<svg width="156" height="156" viewBox="0 0 156 156" fill="none" xmlns="http://www.w3.org/2000/svg">
<path fill-rule="evenodd" clip-rule="evenodd" d="M128.497 91.6958L149.231 88.7397L133.46 104.481C140.768 115.197 145.042 128.141 145.042 142.081C145.042 146.854 144.541 151.51 143.589 156H130.575C131.755 151.553 132.385 146.882 132.385 142.064C132.385 129.528 128.123 117.987 120.969 108.801L108.007 121.739C111.958 127.532 114.269 134.528 114.269 142.064C114.269 147.003 113.277 151.711 111.482 156H93.5908C97.0433 152.281 99.1538 147.303 99.1538 141.833C99.1538 138.945 98.5643 136.194 97.5009 133.692L85.8072 145.365C82.7483 148.418 77.789 148.418 74.7311 145.365C71.6731 142.312 71.6731 137.362 74.7311 134.309L86.4247 122.636C83.919 121.574 81.1629 120.986 78.2692 120.986C66.7351 120.986 57.3846 130.32 57.3846 141.833C57.3846 147.303 59.4951 152.281 62.9477 156H44.5954C42.7995 151.711 41.8076 147.003 41.8076 142.064C41.8076 122.09 58.0285 105.899 78.0385 105.899C85.5882 105.899 92.597 108.206 98.3999 112.149L111.362 99.2107C102.16 92.07 90.5974 87.8157 78.0387 87.8157C48.0242 87.8157 23.6923 112.103 23.6923 142.064C23.6923 146.882 24.3215 151.553 25.5025 156H12.4525C11.5007 151.51 11 146.854 11 142.081C11 105.133 41.0061 75.1812 78.0209 75.1812C91.9868 75.1812 104.953 79.4473 115.688 86.742L131.459 71L128.497 91.6958Z" fill="white" fill-opacity="0.05"/>
</svg>
