<svg width="156" height="156" viewBox="0 0 156 156" fill="none" xmlns="http://www.w3.org/2000/svg">
<path d="M94 1V60.5H155.5" stroke="white" stroke-opacity="0.1" stroke-width="10"/>
<circle cx="119.299" cy="75.2985" r="2.29851" fill="white" fill-opacity="0.25"/>
<circle cx="132.179" cy="75.2985" r="2.29851" fill="white" fill-opacity="0.25"/>
<circle cx="145.06" cy="75.2985" r="2.29851" fill="white" fill-opacity="0.25"/>
<circle cx="119.299" cy="88.1791" r="2.29851" fill="white" fill-opacity="0.25"/>
<circle cx="132.179" cy="88.1791" r="2.29851" fill="white" fill-opacity="0.25"/>
<circle cx="145.06" cy="88.1791" r="2.29851" fill="white" fill-opacity="0.25"/>
<circle cx="119.299" cy="101.06" r="2.29851" fill="white" fill-opacity="0.25"/>
<circle cx="132.179" cy="101.06" r="2.29851" fill="white" fill-opacity="0.25"/>
<circle cx="145.06" cy="101.06" r="2.29851" fill="white" fill-opacity="0.25"/>
<circle cx="119.299" cy="113.94" r="2.29851" fill="white" fill-opacity="0.25"/>
<circle cx="132.179" cy="113.94" r="2.29851" fill="white" fill-opacity="0.25"/>
<circle cx="145.06" cy="113.94" r="2.29851" fill="white" fill-opacity="0.25"/>
<circle cx="119.299" cy="126.821" r="2.29851" fill="white" fill-opacity="0.25"/>
<circle cx="132.179" cy="126.821" r="2.29851" fill="white" fill-opacity="0.25"/>
<circle cx="145.06" cy="126.821" r="2.29851" fill="white" fill-opacity="0.25"/>
<circle cx="119.299" cy="139.701" r="2.29851" fill="white" fill-opacity="0.25"/>
<circle cx="132.179" cy="139.702" r="2.29851" fill="white" fill-opacity="0.25"/>
<circle cx="145.06" cy="139.702" r="2.29851" fill="white" fill-opacity="0.25"/>
</svg>
