<svg width="73" height="48" viewBox="0 0 73 48" fill="none" xmlns="http://www.w3.org/2000/svg">
<rect x="0.35" y="0.35" width="72.3" height="47.3" rx="1.65" fill="#F8F8FB" stroke="#D6DBE3" stroke-width="0.7"/>
<rect x="10.5" y="13.5" width="51.7" height="24" fill="#B2B9C7" stroke="#B2B9C7"/>
<path d="M0.5 2C0.5 1.17157 1.17157 0.5 2 0.5H71C71.8284 0.5 72.5 1.17157 72.5 2V3.5H0.5V2Z" fill="#B2B9C7" stroke="#B2B9C7"/>
<line x1="10.35" y1="4" x2="10.35" y2="48" stroke="#B2B9C7" stroke-width="0.7" stroke-dasharray="1 1"/>
<line x1="62.35" y1="4" x2="62.35" y2="48" stroke="#B2B9C7" stroke-width="0.7" stroke-dasharray="1 1"/>
<path d="M41.491 18.1993L30.2795 29.6443C29.997 29.9328 30.2013 30.419 30.6051 30.419H52.4051C52.8027 30.419 53.0096 29.9456 52.7397 29.6538L42.1511 18.2087C41.9742 18.0175 41.6733 18.0132 41.491 18.1993Z" fill="#E8EBF3"/>
<path d="M31.2686 20.5468L20.1351 31.6287C19.847 31.9155 20.0501 32.4075 20.4567 32.4075H42.1051C42.5054 32.4075 42.7112 31.9284 42.4357 31.6381L31.9208 20.5561C31.7446 20.3704 31.4501 20.3662 31.2686 20.5468Z" fill="#DADFEB"/>
<path d="M37.2121 19.6623C37.2121 20.5803 36.4852 21.3245 35.5885 21.3245C34.6918 21.3245 33.9648 20.5803 33.9648 19.6623C33.9648 18.7442 34.6918 18 35.5885 18C36.4852 18 37.2121 18.7442 37.2121 19.6623Z" fill="#DADFEB"/>
</svg>
