<svg width="20" height="20" viewBox="0 0 20 20" fill="none" xmlns="http://www.w3.org/2000/svg">
<path d="M0 10C0 4.47715 4.47715 0 10 0C15.5228 0 20 4.47715 20 10C20 15.5228 15.5228 20 10 20C4.47715 20 0 15.5228 0 10Z" fill="#0186FF"/>
<path d="M14.6311 5.69588C13.1527 5.15529 11.5053 5.79842 10.7745 7.20141C10.3123 6.31418 9.46043 5.69971 8.47778 5.54467C7.49513 5.38962 6.49762 5.71228 5.78824 6.41465C5.78578 6.41755 5.78309 6.42026 5.78021 6.42274L5.76735 6.43165C5.74482 6.44626 5.71863 6.45412 5.69183 6.45431C5.63738 6.45488 5.58767 6.42319 5.56488 6.37337C5.413 5.85679 4.9427 5.50177 4.40791 5.5H3.5V14.5H5.5689V9.29135C5.5689 8.3186 6.35165 7.53004 7.31722 7.53004C8.28279 7.53004 9.06554 8.3186 9.06554 9.29135V14.5H11.1344V9.29135C11.1344 8.3186 11.9172 7.53004 12.8828 7.53004C13.8483 7.53004 14.6311 8.3186 14.6311 9.29135V14.5H15.5864C16.216 14.4517 16.7018 13.922 16.7 13.2859V8.67133C16.7006 7.33974 15.8735 6.1503 14.6311 5.69588Z" fill="white"/>
</svg>
