<svg width="18" height="7" viewBox="0 0 18 7" fill="none" xmlns="http://www.w3.org/2000/svg">
<path d="M12.7143 3.28571C12.7143 3.89192 12.9552 4.4733 13.3838 4.90195C13.8125 5.33061 14.3938 5.57142 15.0001 5.57142C15.6063 5.57142 16.1876 5.33061 16.6163 4.90195C17.045 4.4733 17.2858 3.89192 17.2858 3.28571C17.2858 2.6795 17.045 2.09812 16.6163 1.66947C16.1876 1.24081 15.6063 0.999997 15.0001 0.999997C14.3938 0.999997 13.8125 1.24081 13.3838 1.66947C12.9552 2.09812 12.7143 2.6795 12.7143 3.28571Z" fill="#53B1FF"/>
<path d="M12.7143 3.28571C12.7143 3.89192 12.9552 4.4733 13.3838 4.90195C13.8125 5.33061 14.3938 5.57142 15.0001 5.57142C15.6063 5.57142 16.1876 5.33061 16.6163 4.90195C17.045 4.4733 17.2858 3.89192 17.2858 3.28571C17.2858 2.6795 17.045 2.09812 16.6163 1.66947C16.1876 1.24081 15.6063 0.999997 15.0001 0.999997C14.3938 0.999997 13.8125 1.24081 13.3838 1.66947C12.9552 2.09812 12.7143 2.6795 12.7143 3.28571ZM12.7143 3.28571L5.8572 3.28571M5.8572 3.28571C5.8572 3.73778 5.72314 4.1797 5.47198 4.55559C5.22083 4.93147 4.86385 5.22444 4.44619 5.39744C4.02853 5.57044 3.56895 5.6157 3.12556 5.52751C2.68218 5.43931 2.2749 5.22162 1.95524 4.90196C1.63557 4.58229 1.41788 4.17502 1.32969 3.73163C1.24149 3.28825 1.28676 2.82867 1.45976 2.41101C1.63276 1.99335 1.92572 1.63637 2.30161 1.38521C2.67749 1.13405 3.11941 0.999997 3.57148 0.999997C4.17769 0.999997 4.75907 1.24081 5.18773 1.66947C5.61638 2.09812 5.8572 2.6795 5.8572 3.28571Z" stroke="#53B1FF"/>
<ellipse cx="3.5" cy="3.28572" rx="2.5" ry="2" fill="#53B1FF"/>
</svg>
