<svg width="18" height="18" viewBox="0 0 18 18" fill="none" xmlns="http://www.w3.org/2000/svg">
<path d="M3.28572 12.4286C2.67951 12.4286 2.09813 12.6694 1.66947 13.098C1.24082 13.5267 1 14.1081 1 14.7143C1 15.3205 1.24082 15.9019 1.66947 16.3305C2.09813 16.7592 2.67951 17 3.28572 17C3.89192 17 4.4733 16.7592 4.90196 16.3305C5.33061 15.9019 5.57143 15.3205 5.57143 14.7143C5.57143 14.1081 5.33061 13.5267 4.90196 13.098C4.4733 12.6694 3.89192 12.4286 3.28572 12.4286ZM3.28572 12.4286V5.57143M3.28572 5.57143C2.83364 5.57143 2.39172 5.43737 2.01584 5.18622C1.63996 4.93506 1.34699 4.57808 1.17399 4.16042C1.00099 3.74276 0.955726 3.28318 1.04392 2.83979C1.13212 2.39641 1.34981 1.98913 1.66947 1.66947C1.98913 1.34981 2.39641 1.13212 2.83979 1.04392C3.28318 0.955726 3.74276 1.00099 4.16042 1.17399C4.57808 1.34699 4.93506 1.63996 5.18622 2.01584C5.43737 2.39172 5.57143 2.83364 5.57143 3.28572M3.28572 5.57143C3.89192 5.57143 4.4733 5.33061 4.90196 4.90196C5.33061 4.4733 5.57143 3.89192 5.57143 3.28572M5.57143 3.28572H11.2857C12.195 3.28572 13.0671 3.64694 13.7101 4.28992C14.3531 4.9329 14.7143 5.80497 14.7143 6.71429V9M14.7143 9C14.1081 9 13.5267 9.24082 13.098 9.66947C12.6694 10.0981 12.4286 10.6795 12.4286 11.2857C12.4286 11.8919 12.6694 12.4733 13.098 12.902C13.5267 13.3306 14.1081 13.5714 14.7143 13.5714C15.3205 13.5714 15.9019 13.3306 16.3305 12.902C16.7592 12.4733 17 11.8919 17 11.2857C17 10.6795 16.7592 10.0981 16.3305 9.66947C15.9019 9.24082 15.3205 9 14.7143 9Z" stroke="#53B1FF"/>
<circle cx="3.30005" cy="3.2998" r="2" fill="#53B1FF"/>
</svg>
