<svg width="236" height="59" viewBox="0 0 236 59" fill="none" xmlns="http://www.w3.org/2000/svg">
<path d="M4.04 0.815999H5.672V10.64H11.336V12H4.04V0.815999ZM16.1818 12.24C15.3178 12.24 14.5551 12.08 13.8938 11.76C13.2431 11.4293 12.7311 10.96 12.3578 10.352C11.9951 9.73333 11.8138 9.008 11.8138 8.176C11.8138 7.35467 11.9951 6.63467 12.3578 6.016C12.7204 5.39733 13.2324 4.92267 13.8938 4.592C14.5551 4.25067 15.3178 4.08 16.1818 4.08C17.0458 4.08 17.8084 4.25067 18.4698 4.592C19.1311 4.92267 19.6431 5.39733 20.0058 6.016C20.3791 6.63467 20.5658 7.35467 20.5658 8.176C20.5658 9.008 20.3791 9.73333 20.0058 10.352C19.6431 10.96 19.1311 11.4293 18.4698 11.76C17.8084 12.08 17.0458 12.24 16.1818 12.24ZM16.1818 10.96C17.0138 10.96 17.6751 10.704 18.1658 10.192C18.6564 9.68 18.9018 9.008 18.9018 8.176C18.9018 7.312 18.6564 6.62933 18.1658 6.128C17.6751 5.62667 17.0138 5.376 16.1818 5.376C15.3498 5.376 14.6884 5.62667 14.1978 6.128C13.7071 6.62933 13.4618 7.312 13.4618 8.176C13.4618 9.008 13.7071 9.68 14.1978 10.192C14.6884 10.704 15.3498 10.96 16.1818 10.96ZM22.3213 4.32H23.8893V5.696C24.2093 5.22667 24.6573 4.88 25.2333 4.656C25.8199 4.432 26.4973 4.32 27.2653 4.32V5.584C26.4439 5.584 25.7399 5.71733 25.1533 5.984C24.5666 6.25067 24.1613 6.672 23.9373 7.248V12H22.3213V4.32ZM32.4515 12.24C31.0328 12.24 29.9182 11.888 29.1075 11.184C28.3075 10.4693 27.9075 9.46667 27.9075 8.176C27.9075 6.91733 28.2648 5.92 28.9795 5.184C29.7048 4.448 30.7342 4.08 32.0675 4.08C32.9528 4.08 33.7048 4.25067 34.3235 4.592C34.9422 4.92267 35.4062 5.38667 35.7155 5.984C36.0355 6.57067 36.1955 7.24267 36.1955 8V8.8H29.4435C29.4968 9.52533 29.8008 10.0693 30.3555 10.432C30.9208 10.784 31.6835 10.96 32.6435 10.96C33.1342 10.96 33.6302 10.9173 34.1315 10.832C34.6328 10.736 35.0755 10.6133 35.4595 10.464V11.76C35.1182 11.8987 34.6648 12.0107 34.0995 12.096C33.5448 12.192 32.9955 12.24 32.4515 12.24ZM34.6755 7.664C34.6542 6.93867 34.4142 6.37867 33.9555 5.984C33.5075 5.57867 32.8675 5.376 32.0355 5.376C31.2248 5.376 30.5955 5.584 30.1475 6C29.6995 6.416 29.4648 6.97067 29.4435 7.664H34.6755ZM40.7139 12.24C39.7859 12.24 39.0392 12.0053 38.4739 11.536C37.9192 11.056 37.6419 10.4107 37.6419 9.6C37.6419 8.74667 37.9085 8.09067 38.4419 7.632C38.9859 7.16267 39.7539 6.928 40.7459 6.928C41.8019 6.928 42.6979 7.14133 43.4339 7.568V7.168C43.4339 6.56 43.2472 6.112 42.8739 5.824C42.5112 5.52533 41.9352 5.376 41.1459 5.376C40.6765 5.376 40.2179 5.424 39.7699 5.52C39.3325 5.60533 38.9379 5.728 38.5859 5.888V4.576C38.9059 4.42667 39.3219 4.30933 39.8339 4.224C40.3459 4.128 40.8419 4.08 41.3219 4.08C42.5912 4.08 43.5299 4.36267 44.1379 4.928C44.7565 5.48267 45.0659 6.256 45.0659 7.248V12H43.5459V11.136C43.2152 11.4987 42.8205 11.776 42.3619 11.968C41.9139 12.1493 41.3645 12.24 40.7139 12.24ZM41.1139 11.008C41.6259 11.008 42.0899 10.9067 42.5059 10.704C42.9219 10.5013 43.2312 10.2187 43.4339 9.856V8.816C42.7405 8.368 41.9672 8.144 41.1139 8.144C40.4952 8.144 40.0312 8.26667 39.7219 8.512C39.4232 8.74667 39.2739 9.10933 39.2739 9.6C39.2739 10.5387 39.8872 11.008 41.1139 11.008ZM47.0713 4.32H48.6073V5.424C48.9699 4.976 49.3806 4.64 49.8393 4.416C50.2979 4.192 50.7726 4.08 51.2633 4.08C51.8819 4.08 52.3726 4.18667 52.7353 4.4C53.0979 4.60267 53.3646 4.91733 53.5353 5.344C53.8766 4.928 54.2926 4.61333 54.7833 4.4C55.2846 4.18667 55.7859 4.08 56.2873 4.08C57.2259 4.08 57.9033 4.32 58.3193 4.8C58.7353 5.26933 58.9433 5.968 58.9433 6.896V12H57.3753V7.104C57.3753 6.47467 57.2579 6.032 57.0233 5.776C56.7886 5.50933 56.3886 5.376 55.8233 5.376C55.0126 5.376 54.3513 5.728 53.8393 6.432C53.8606 6.592 53.8713 6.85333 53.8713 7.216V12H52.3033V7.104C52.3033 6.47467 52.1966 6.032 51.9833 5.776C51.7699 5.50933 51.3859 5.376 50.8313 5.376C50.0206 5.376 49.2953 5.83467 48.6553 6.752V12H47.0713V4.32Z" fill="black"/>
<path d="M0.84 29.612H1.776V37.208H6.24V38H0.84V29.612ZM9.85059 38.18C9.22659 38.18 8.67059 38.056 8.18259 37.808C7.70259 37.56 7.32659 37.208 7.05459 36.752C6.79059 36.288 6.65859 35.748 6.65859 35.132C6.65859 34.524 6.79459 33.988 7.06659 33.524C7.33859 33.06 7.71459 32.7 8.19459 32.444C8.68259 32.188 9.23459 32.06 9.85059 32.06C10.4666 32.06 11.0146 32.188 11.4946 32.444C11.9826 32.7 12.3626 33.06 12.6346 33.524C12.9066 33.988 13.0426 34.524 13.0426 35.132C13.0426 35.748 12.9066 36.288 12.6346 36.752C12.3706 37.208 11.9946 37.56 11.5066 37.808C11.0266 38.056 10.4746 38.18 9.85059 38.18ZM9.85059 37.448C10.5386 37.448 11.0866 37.24 11.4946 36.824C11.9106 36.4 12.1186 35.836 12.1186 35.132C12.1186 34.42 11.9106 33.856 11.4946 33.44C11.0866 33.016 10.5386 32.804 9.85059 32.804C9.16259 32.804 8.61059 33.016 8.19459 33.44C7.78659 33.856 7.58259 34.42 7.58259 35.132C7.58259 35.836 7.78659 36.4 8.19459 36.824C8.61059 37.24 9.16259 37.448 9.85059 37.448ZM14.4806 32.24H15.3806V33.368C15.8446 32.616 16.7126 32.24 17.9846 32.24V32.984C16.5926 32.984 15.7326 33.444 15.4046 34.364V38H14.4806V32.24ZM21.9126 38.18C20.8646 38.18 20.0446 37.912 19.4526 37.376C18.8686 36.84 18.5766 36.092 18.5766 35.132C18.5766 34.188 18.8406 33.44 19.3686 32.888C19.8966 32.336 20.6486 32.06 21.6246 32.06C22.2806 32.06 22.8366 32.188 23.2926 32.444C23.7486 32.692 24.0926 33.036 24.3246 33.476C24.5566 33.916 24.6726 34.416 24.6726 34.976V35.48H19.4406C19.4726 36.136 19.7126 36.628 20.1606 36.956C20.6166 37.284 21.2326 37.448 22.0086 37.448C22.3846 37.448 22.7526 37.416 23.1126 37.352C23.4806 37.28 23.8086 37.184 24.0966 37.064V37.844C23.8566 37.94 23.5286 38.02 23.1126 38.084C22.7046 38.148 22.3046 38.18 21.9126 38.18ZM23.8086 34.82C23.7926 34.196 23.6006 33.704 23.2326 33.344C22.8646 32.984 22.3246 32.804 21.6126 32.804C20.9166 32.804 20.3846 32.992 20.0166 33.368C19.6486 33.736 19.4566 34.22 19.4406 34.82H23.8086ZM26.1173 32.24H27.0053V33.14C27.5573 32.42 28.2413 32.06 29.0573 32.06C29.5373 32.06 29.9093 32.144 30.1733 32.312C30.4453 32.48 30.6413 32.732 30.7613 33.068C31.0173 32.724 31.3333 32.472 31.7093 32.312C32.0933 32.144 32.4853 32.06 32.8853 32.06C33.5733 32.06 34.0733 32.236 34.3853 32.588C34.6973 32.94 34.8533 33.46 34.8533 34.148V38H33.9413V34.256C33.9413 33.72 33.8453 33.344 33.6533 33.128C33.4693 32.912 33.1373 32.804 32.6573 32.804C31.9693 32.804 31.4013 33.112 30.9533 33.728C30.9773 33.84 30.9893 34.024 30.9893 34.28V38H30.0893V34.28C30.0893 33.744 30.0013 33.364 29.8253 33.14C29.6493 32.916 29.3213 32.804 28.8413 32.804C28.1533 32.804 27.5493 33.188 27.0293 33.956V38H26.1173V32.24ZM41.6113 30.992C41.4513 30.992 41.3153 30.936 41.2033 30.824C41.0913 30.712 41.0353 30.576 41.0353 30.416C41.0353 30.256 41.0913 30.12 41.2033 30.008C41.3153 29.896 41.4513 29.84 41.6113 29.84C41.7713 29.84 41.9073 29.896 42.0193 30.008C42.1393 30.12 42.1993 30.256 42.1993 30.416C42.1993 30.576 42.1393 30.712 42.0193 30.824C41.9073 30.936 41.7713 30.992 41.6113 30.992ZM41.1553 32.24H42.0793V38H41.1553V32.24ZM43.883 32.24H44.783V33.236C45.351 32.452 46.191 32.06 47.303 32.06C47.871 32.06 48.383 32.188 48.839 32.444C49.295 32.7 49.655 33.06 49.919 33.524C50.183 33.988 50.315 34.524 50.315 35.132C50.315 35.732 50.183 36.264 49.919 36.728C49.663 37.192 49.303 37.552 48.839 37.808C48.383 38.056 47.871 38.18 47.303 38.18C46.783 38.18 46.299 38.084 45.851 37.892C45.403 37.692 45.055 37.404 44.807 37.028V40.628H43.883V32.24ZM47.111 37.448C47.543 37.448 47.931 37.352 48.275 37.16C48.627 36.968 48.899 36.7 49.091 36.356C49.291 36.004 49.391 35.596 49.391 35.132C49.391 34.676 49.291 34.272 49.091 33.92C48.899 33.56 48.627 33.284 48.275 33.092C47.931 32.9 47.543 32.804 47.111 32.804C46.567 32.804 46.087 32.948 45.671 33.236C45.263 33.516 44.975 33.904 44.807 34.4V35.828C44.959 36.316 45.243 36.708 45.659 37.004C46.083 37.3 46.567 37.448 47.111 37.448ZM53.5862 38.18C53.2102 38.18 52.8062 38.124 52.3742 38.012C51.9422 37.908 51.6062 37.776 51.3662 37.616V36.836C51.6702 37.02 52.0182 37.168 52.4102 37.28C52.8102 37.392 53.1942 37.448 53.5622 37.448C54.0582 37.448 54.4142 37.38 54.6302 37.244C54.8542 37.1 54.9662 36.888 54.9662 36.608C54.9662 36.392 54.9182 36.224 54.8222 36.104C54.7262 35.976 54.5662 35.864 54.3422 35.768C54.1182 35.672 53.7702 35.56 53.2982 35.432C52.8342 35.304 52.4622 35.172 52.1822 35.036C51.9102 34.892 51.7022 34.712 51.5582 34.496C51.4142 34.28 51.3422 34.004 51.3422 33.668C51.3422 33.148 51.5502 32.752 51.9662 32.48C52.3902 32.2 52.9502 32.06 53.6462 32.06C54.0222 32.06 54.3742 32.096 54.7022 32.168C55.0382 32.232 55.3182 32.324 55.5422 32.444V33.224C55.3102 33.096 55.0302 32.996 54.7022 32.924C54.3742 32.844 54.0342 32.804 53.6822 32.804C53.2182 32.804 52.8662 32.872 52.6262 33.008C52.3862 33.144 52.2662 33.364 52.2662 33.668C52.2662 33.876 52.3062 34.036 52.3862 34.148C52.4742 34.26 52.6302 34.364 52.8542 34.46C53.0862 34.548 53.4542 34.66 53.9582 34.796C54.6782 34.996 55.1782 35.232 55.4582 35.504C55.7462 35.768 55.8902 36.136 55.8902 36.608C55.8902 37.096 55.6982 37.48 55.3142 37.76C54.9382 38.04 54.3622 38.18 53.5862 38.18ZM59.6524 38.18C58.8844 38.18 58.2924 37.972 57.8764 37.556C57.4684 37.14 57.2644 36.584 57.2644 35.888V32.24H58.1884V35.936C58.1884 36.944 58.7124 37.448 59.7604 37.448C60.2004 37.448 60.5844 37.352 60.9124 37.16C61.2484 36.968 61.5484 36.664 61.8124 36.248V32.24H62.7364V38H61.8364V37.136C61.3164 37.832 60.5884 38.18 59.6524 38.18ZM64.4142 32.24H65.3022V33.14C65.8542 32.42 66.5382 32.06 67.3542 32.06C67.8342 32.06 68.2062 32.144 68.4702 32.312C68.7422 32.48 68.9382 32.732 69.0582 33.068C69.3142 32.724 69.6302 32.472 70.0062 32.312C70.3902 32.144 70.7822 32.06 71.1822 32.06C71.8702 32.06 72.3702 32.236 72.6822 32.588C72.9942 32.94 73.1502 33.46 73.1502 34.148V38H72.2382V34.256C72.2382 33.72 72.1422 33.344 71.9502 33.128C71.7662 32.912 71.4342 32.804 70.9542 32.804C70.2662 32.804 69.6982 33.112 69.2502 33.728C69.2742 33.84 69.2862 34.024 69.2862 34.28V38H68.3862V34.28C68.3862 33.744 68.2982 33.364 68.1222 33.14C67.9462 32.916 67.6182 32.804 67.1382 32.804C66.4502 32.804 65.8462 33.188 65.3262 33.956V38H64.4142V32.24ZM82.1042 38.18C81.5362 38.18 81.0242 38.056 80.5682 37.808C80.1122 37.56 79.7522 37.204 79.4882 36.74C79.2242 36.276 79.0922 35.74 79.0922 35.132C79.0922 34.532 79.2202 34 79.4762 33.536C79.7402 33.064 80.1002 32.7 80.5562 32.444C81.0202 32.188 81.5362 32.06 82.1042 32.06C82.6562 32.06 83.1442 32.16 83.5682 32.36C84.0002 32.552 84.3442 32.836 84.6002 33.212V29.132H85.5242V38H84.6242V36.992C84.3202 37.392 83.9602 37.692 83.5442 37.892C83.1362 38.084 82.6562 38.18 82.1042 38.18ZM82.2962 37.448C82.8482 37.448 83.3282 37.308 83.7362 37.028C84.1522 36.74 84.4402 36.348 84.6002 35.852V34.412C84.4482 33.916 84.1642 33.524 83.7482 33.236C83.3402 32.948 82.8562 32.804 82.2962 32.804C81.8722 32.804 81.4842 32.904 81.1322 33.104C80.7882 33.296 80.5162 33.568 80.3162 33.92C80.1162 34.272 80.0162 34.676 80.0162 35.132C80.0162 35.588 80.1162 35.992 80.3162 36.344C80.5162 36.696 80.7882 36.968 81.1322 37.16C81.4842 37.352 81.8722 37.448 82.2962 37.448ZM89.9834 38.18C89.3594 38.18 88.8034 38.056 88.3154 37.808C87.8354 37.56 87.4594 37.208 87.1874 36.752C86.9234 36.288 86.7914 35.748 86.7914 35.132C86.7914 34.524 86.9274 33.988 87.1994 33.524C87.4714 33.06 87.8474 32.7 88.3274 32.444C88.8154 32.188 89.3674 32.06 89.9834 32.06C90.5994 32.06 91.1474 32.188 91.6274 32.444C92.1154 32.7 92.4954 33.06 92.7674 33.524C93.0394 33.988 93.1754 34.524 93.1754 35.132C93.1754 35.748 93.0394 36.288 92.7674 36.752C92.5034 37.208 92.1274 37.56 91.6394 37.808C91.1594 38.056 90.6074 38.18 89.9834 38.18ZM89.9834 37.448C90.6714 37.448 91.2194 37.24 91.6274 36.824C92.0434 36.4 92.2514 35.836 92.2514 35.132C92.2514 34.42 92.0434 33.856 91.6274 33.44C91.2194 33.016 90.6714 32.804 89.9834 32.804C89.2954 32.804 88.7434 33.016 88.3274 33.44C87.9194 33.856 87.7154 34.42 87.7154 35.132C87.7154 35.836 87.9194 36.4 88.3274 36.824C88.7434 37.24 89.2954 37.448 89.9834 37.448ZM94.6134 29.132H95.5374V38H94.6134V29.132ZM100.167 38.18C99.543 38.18 98.987 38.056 98.499 37.808C98.019 37.56 97.643 37.208 97.371 36.752C97.107 36.288 96.975 35.748 96.975 35.132C96.975 34.524 97.111 33.988 97.383 33.524C97.655 33.06 98.031 32.7 98.511 32.444C98.999 32.188 99.551 32.06 100.167 32.06C100.783 32.06 101.331 32.188 101.811 32.444C102.299 32.7 102.679 33.06 102.951 33.524C103.223 33.988 103.359 34.524 103.359 35.132C103.359 35.748 103.223 36.288 102.951 36.752C102.687 37.208 102.311 37.56 101.823 37.808C101.343 38.056 100.791 38.18 100.167 38.18ZM100.167 37.448C100.855 37.448 101.403 37.24 101.811 36.824C102.227 36.4 102.435 35.836 102.435 35.132C102.435 34.42 102.227 33.856 101.811 33.44C101.403 33.016 100.855 32.804 100.167 32.804C99.479 32.804 98.927 33.016 98.511 33.44C98.103 33.856 97.899 34.42 97.899 35.132C97.899 35.836 98.103 36.4 98.511 36.824C98.927 37.24 99.479 37.448 100.167 37.448ZM104.797 32.24H105.697V33.368C106.161 32.616 107.029 32.24 108.301 32.24V32.984C106.909 32.984 106.049 33.444 105.721 34.364V38H104.797V32.24ZM116.059 38.18C115.683 38.18 115.279 38.124 114.847 38.012C114.415 37.908 114.079 37.776 113.839 37.616V36.836C114.143 37.02 114.491 37.168 114.883 37.28C115.283 37.392 115.667 37.448 116.035 37.448C116.531 37.448 116.887 37.38 117.103 37.244C117.327 37.1 117.439 36.888 117.439 36.608C117.439 36.392 117.391 36.224 117.295 36.104C117.199 35.976 117.039 35.864 116.815 35.768C116.591 35.672 116.243 35.56 115.771 35.432C115.307 35.304 114.935 35.172 114.655 35.036C114.383 34.892 114.175 34.712 114.031 34.496C113.887 34.28 113.815 34.004 113.815 33.668C113.815 33.148 114.023 32.752 114.439 32.48C114.863 32.2 115.423 32.06 116.119 32.06C116.495 32.06 116.847 32.096 117.175 32.168C117.511 32.232 117.791 32.324 118.015 32.444V33.224C117.783 33.096 117.503 32.996 117.175 32.924C116.847 32.844 116.507 32.804 116.155 32.804C115.691 32.804 115.339 32.872 115.099 33.008C114.859 33.144 114.739 33.364 114.739 33.668C114.739 33.876 114.779 34.036 114.859 34.148C114.947 34.26 115.103 34.364 115.327 34.46C115.559 34.548 115.927 34.66 116.431 34.796C117.151 34.996 117.651 35.232 117.931 35.504C118.219 35.768 118.363 36.136 118.363 36.608C118.363 37.096 118.171 37.48 117.787 37.76C117.411 38.04 116.835 38.18 116.059 38.18ZM120.373 30.992C120.213 30.992 120.077 30.936 119.965 30.824C119.853 30.712 119.797 30.576 119.797 30.416C119.797 30.256 119.853 30.12 119.965 30.008C120.077 29.896 120.213 29.84 120.373 29.84C120.533 29.84 120.669 29.896 120.781 30.008C120.901 30.12 120.961 30.256 120.961 30.416C120.961 30.576 120.901 30.712 120.781 30.824C120.669 30.936 120.533 30.992 120.373 30.992ZM119.917 32.24H120.841V38H119.917V32.24ZM124.781 38.18C124.237 38.18 123.813 38.02 123.509 37.7C123.213 37.38 123.065 36.924 123.065 36.332V32.96H122.165V32.24H123.065V30.512H123.989V32.24H125.441V32.96H123.989V36.356C123.989 36.756 124.069 37.04 124.229 37.208C124.389 37.368 124.681 37.448 125.105 37.448C125.313 37.448 125.533 37.4 125.765 37.304V38.06C125.501 38.14 125.173 38.18 124.781 38.18ZM133.602 38.18C132.906 38.18 132.354 38.008 131.946 37.664C131.546 37.312 131.346 36.832 131.346 36.224C131.346 35.592 131.542 35.108 131.934 34.772C132.326 34.428 132.894 34.256 133.638 34.256C134.47 34.256 135.186 34.428 135.786 34.772V34.34C135.786 33.82 135.638 33.436 135.342 33.188C135.046 32.932 134.578 32.804 133.938 32.804C133.258 32.804 132.63 32.932 132.054 33.188V32.408C132.294 32.304 132.598 32.22 132.966 32.156C133.334 32.092 133.686 32.06 134.022 32.06C134.934 32.06 135.61 32.268 136.05 32.684C136.49 33.092 136.71 33.66 136.71 34.388V38H135.846V37.256C135.342 37.872 134.594 38.18 133.602 38.18ZM133.83 37.424C134.262 37.424 134.65 37.34 134.994 37.172C135.346 36.996 135.61 36.752 135.786 36.44V35.516C135.474 35.332 135.162 35.2 134.85 35.12C134.546 35.032 134.202 34.988 133.818 34.988C133.274 34.988 132.878 35.092 132.63 35.3C132.39 35.5 132.27 35.808 132.27 36.224C132.27 37.024 132.79 37.424 133.83 37.424ZM138.324 32.24H139.212V33.14C139.764 32.42 140.448 32.06 141.264 32.06C141.744 32.06 142.116 32.144 142.38 32.312C142.652 32.48 142.848 32.732 142.968 33.068C143.224 32.724 143.54 32.472 143.916 32.312C144.3 32.144 144.692 32.06 145.092 32.06C145.78 32.06 146.28 32.236 146.592 32.588C146.904 32.94 147.06 33.46 147.06 34.148V38H146.148V34.256C146.148 33.72 146.052 33.344 145.86 33.128C145.676 32.912 145.344 32.804 144.864 32.804C144.176 32.804 143.608 33.112 143.16 33.728C143.184 33.84 143.196 34.024 143.196 34.28V38H142.296V34.28C142.296 33.744 142.208 33.364 142.032 33.14C141.856 32.916 141.528 32.804 141.048 32.804C140.36 32.804 139.756 33.188 139.236 33.956V38H138.324V32.24ZM151.78 38.18C150.732 38.18 149.912 37.912 149.32 37.376C148.736 36.84 148.444 36.092 148.444 35.132C148.444 34.188 148.708 33.44 149.236 32.888C149.764 32.336 150.516 32.06 151.492 32.06C152.148 32.06 152.704 32.188 153.16 32.444C153.616 32.692 153.96 33.036 154.192 33.476C154.424 33.916 154.54 34.416 154.54 34.976V35.48H149.308C149.34 36.136 149.58 36.628 150.028 36.956C150.484 37.284 151.1 37.448 151.876 37.448C152.252 37.448 152.62 37.416 152.98 37.352C153.348 37.28 153.676 37.184 153.964 37.064V37.844C153.724 37.94 153.396 38.02 152.98 38.084C152.572 38.148 152.172 38.18 151.78 38.18ZM153.676 34.82C153.66 34.196 153.468 33.704 153.1 33.344C152.732 32.984 152.192 32.804 151.48 32.804C150.784 32.804 150.252 32.992 149.884 33.368C149.516 33.736 149.324 34.22 149.308 34.82H153.676ZM158.121 38.18C157.577 38.18 157.153 38.02 156.849 37.7C156.553 37.38 156.405 36.924 156.405 36.332V32.96H155.505V32.24H156.405V30.512H157.329V32.24H158.781V32.96H157.329V36.356C157.329 36.756 157.409 37.04 157.569 37.208C157.729 37.368 158.021 37.448 158.445 37.448C158.653 37.448 158.873 37.4 159.105 37.304V38.06C158.841 38.14 158.513 38.18 158.121 38.18ZM161.087 37.4H162.059L160.967 39.764H160.127L161.087 37.4ZM170.995 38.18C170.387 38.18 169.839 38.06 169.351 37.82C168.871 37.572 168.495 37.22 168.223 36.764C167.951 36.3 167.815 35.756 167.815 35.132C167.815 34.516 167.951 33.976 168.223 33.512C168.503 33.04 168.887 32.68 169.375 32.432C169.863 32.184 170.415 32.06 171.031 32.06C171.471 32.06 171.859 32.1 172.195 32.18C172.531 32.26 172.831 32.388 173.095 32.564V33.344C172.591 32.984 171.931 32.804 171.115 32.804C170.411 32.804 169.839 33.008 169.399 33.416C168.959 33.824 168.739 34.396 168.739 35.132C168.739 35.868 168.959 36.44 169.399 36.848C169.839 37.248 170.399 37.448 171.079 37.448C171.503 37.448 171.883 37.4 172.219 37.304C172.555 37.208 172.875 37.06 173.179 36.86V37.64C172.899 37.832 172.583 37.968 172.231 38.048C171.887 38.136 171.475 38.18 170.995 38.18ZM177.394 38.18C176.77 38.18 176.214 38.056 175.726 37.808C175.246 37.56 174.87 37.208 174.598 36.752C174.334 36.288 174.202 35.748 174.202 35.132C174.202 34.524 174.338 33.988 174.61 33.524C174.882 33.06 175.258 32.7 175.738 32.444C176.226 32.188 176.778 32.06 177.394 32.06C178.01 32.06 178.558 32.188 179.038 32.444C179.526 32.7 179.906 33.06 180.178 33.524C180.45 33.988 180.586 34.524 180.586 35.132C180.586 35.748 180.45 36.288 180.178 36.752C179.914 37.208 179.538 37.56 179.05 37.808C178.57 38.056 178.018 38.18 177.394 38.18ZM177.394 37.448C178.082 37.448 178.63 37.24 179.038 36.824C179.454 36.4 179.662 35.836 179.662 35.132C179.662 34.42 179.454 33.856 179.038 33.44C178.63 33.016 178.082 32.804 177.394 32.804C176.706 32.804 176.154 33.016 175.738 33.44C175.33 33.856 175.126 34.42 175.126 35.132C175.126 35.836 175.33 36.4 175.738 36.824C176.154 37.24 176.706 37.448 177.394 37.448ZM182.024 32.24H182.924V33.104C183.204 32.744 183.544 32.48 183.944 32.312C184.352 32.144 184.784 32.06 185.24 32.06C186 32.06 186.564 32.26 186.932 32.66C187.308 33.06 187.496 33.596 187.496 34.268V38H186.572V34.352C186.572 33.856 186.452 33.476 186.212 33.212C185.972 32.94 185.588 32.804 185.06 32.804C184.172 32.804 183.468 33.204 182.948 34.004V38H182.024V32.24ZM191.117 38.18C190.741 38.18 190.337 38.124 189.905 38.012C189.473 37.908 189.137 37.776 188.897 37.616V36.836C189.201 37.02 189.549 37.168 189.941 37.28C190.341 37.392 190.725 37.448 191.093 37.448C191.589 37.448 191.945 37.38 192.161 37.244C192.385 37.1 192.497 36.888 192.497 36.608C192.497 36.392 192.449 36.224 192.353 36.104C192.257 35.976 192.097 35.864 191.873 35.768C191.649 35.672 191.301 35.56 190.829 35.432C190.365 35.304 189.993 35.172 189.713 35.036C189.441 34.892 189.233 34.712 189.089 34.496C188.945 34.28 188.873 34.004 188.873 33.668C188.873 33.148 189.081 32.752 189.497 32.48C189.921 32.2 190.481 32.06 191.177 32.06C191.553 32.06 191.905 32.096 192.233 32.168C192.569 32.232 192.849 32.324 193.073 32.444V33.224C192.841 33.096 192.561 32.996 192.233 32.924C191.905 32.844 191.565 32.804 191.213 32.804C190.749 32.804 190.397 32.872 190.157 33.008C189.917 33.144 189.797 33.364 189.797 33.668C189.797 33.876 189.837 34.036 189.917 34.148C190.005 34.26 190.161 34.364 190.385 34.46C190.617 34.548 190.985 34.66 191.489 34.796C192.209 34.996 192.709 35.232 192.989 35.504C193.277 35.768 193.421 36.136 193.421 36.608C193.421 37.096 193.229 37.48 192.845 37.76C192.469 38.04 191.893 38.18 191.117 38.18ZM197.952 38.18C196.904 38.18 196.084 37.912 195.492 37.376C194.908 36.84 194.616 36.092 194.616 35.132C194.616 34.188 194.88 33.44 195.408 32.888C195.936 32.336 196.688 32.06 197.664 32.06C198.32 32.06 198.876 32.188 199.332 32.444C199.788 32.692 200.132 33.036 200.364 33.476C200.596 33.916 200.712 34.416 200.712 34.976V35.48H195.48C195.512 36.136 195.752 36.628 196.2 36.956C196.656 37.284 197.272 37.448 198.048 37.448C198.424 37.448 198.792 37.416 199.152 37.352C199.52 37.28 199.848 37.184 200.136 37.064V37.844C199.896 37.94 199.568 38.02 199.152 38.084C198.744 38.148 198.344 38.18 197.952 38.18ZM199.848 34.82C199.832 34.196 199.64 33.704 199.272 33.344C198.904 32.984 198.364 32.804 197.652 32.804C196.956 32.804 196.424 32.992 196.056 33.368C195.688 33.736 195.496 34.22 195.48 34.82H199.848ZM205.096 38.18C204.488 38.18 203.94 38.06 203.452 37.82C202.972 37.572 202.596 37.22 202.324 36.764C202.052 36.3 201.916 35.756 201.916 35.132C201.916 34.516 202.052 33.976 202.324 33.512C202.604 33.04 202.988 32.68 203.476 32.432C203.964 32.184 204.516 32.06 205.132 32.06C205.572 32.06 205.96 32.1 206.296 32.18C206.632 32.26 206.932 32.388 207.196 32.564V33.344C206.692 32.984 206.032 32.804 205.216 32.804C204.512 32.804 203.94 33.008 203.5 33.416C203.06 33.824 202.84 34.396 202.84 35.132C202.84 35.868 203.06 36.44 203.5 36.848C203.94 37.248 204.5 37.448 205.18 37.448C205.604 37.448 205.984 37.4 206.32 37.304C206.656 37.208 206.976 37.06 207.28 36.86V37.64C207 37.832 206.684 37.968 206.332 38.048C205.988 38.136 205.576 38.18 205.096 38.18ZM210.855 38.18C210.311 38.18 209.887 38.02 209.583 37.7C209.287 37.38 209.139 36.924 209.139 36.332V32.96H208.239V32.24H209.139V30.512H210.063V32.24H211.515V32.96H210.063V36.356C210.063 36.756 210.143 37.04 210.303 37.208C210.463 37.368 210.755 37.448 211.179 37.448C211.387 37.448 211.607 37.4 211.839 37.304V38.06C211.575 38.14 211.247 38.18 210.855 38.18ZM216.198 38.18C215.15 38.18 214.33 37.912 213.738 37.376C213.154 36.84 212.862 36.092 212.862 35.132C212.862 34.188 213.126 33.44 213.654 32.888C214.182 32.336 214.934 32.06 215.91 32.06C216.566 32.06 217.122 32.188 217.578 32.444C218.034 32.692 218.378 33.036 218.61 33.476C218.842 33.916 218.958 34.416 218.958 34.976V35.48H213.726C213.758 36.136 213.998 36.628 214.446 36.956C214.902 37.284 215.518 37.448 216.294 37.448C216.67 37.448 217.038 37.416 217.398 37.352C217.766 37.28 218.094 37.184 218.382 37.064V37.844C218.142 37.94 217.814 38.02 217.398 38.084C216.99 38.148 216.59 38.18 216.198 38.18ZM218.094 34.82C218.078 34.196 217.886 33.704 217.518 33.344C217.15 32.984 216.61 32.804 215.898 32.804C215.202 32.804 214.67 32.992 214.302 33.368C213.934 33.736 213.742 34.22 213.726 34.82H218.094ZM222.539 38.18C221.995 38.18 221.571 38.02 221.267 37.7C220.971 37.38 220.823 36.924 220.823 36.332V32.96H219.923V32.24H220.823V30.512H221.747V32.24H223.199V32.96H221.747V36.356C221.747 36.756 221.827 37.04 221.987 37.208C222.147 37.368 222.439 37.448 222.863 37.448C223.071 37.448 223.291 37.4 223.523 37.304V38.06C223.259 38.14 222.931 38.18 222.539 38.18ZM227.055 38.18C226.287 38.18 225.695 37.972 225.279 37.556C224.871 37.14 224.667 36.584 224.667 35.888V32.24H225.591V35.936C225.591 36.944 226.115 37.448 227.163 37.448C227.603 37.448 227.987 37.352 228.315 37.16C228.651 36.968 228.951 36.664 229.215 36.248V32.24H230.139V38H229.239V37.136C228.719 37.832 227.991 38.18 227.055 38.18ZM231.817 32.24H232.717V33.368C233.181 32.616 234.049 32.24 235.321 32.24V32.984C233.929 32.984 233.069 33.444 232.741 34.364V38H231.817V32.24ZM2.856 56.18C2.16 56.18 1.608 56.008 1.2 55.664C0.8 55.312 0.6 54.832 0.6 54.224C0.6 53.592 0.796 53.108 1.188 52.772C1.58 52.428 2.148 52.256 2.892 52.256C3.724 52.256 4.44 52.428 5.04 52.772V52.34C5.04 51.82 4.892 51.436 4.596 51.188C4.3 50.932 3.832 50.804 3.192 50.804C2.512 50.804 1.884 50.932 1.308 51.188V50.408C1.548 50.304 1.852 50.22 2.22 50.156C2.588 50.092 2.94 50.06 3.276 50.06C4.188 50.06 4.864 50.268 5.304 50.684C5.744 51.092 5.964 51.66 5.964 52.388V56H5.1V55.256C4.596 55.872 3.848 56.18 2.856 56.18ZM3.084 55.424C3.516 55.424 3.904 55.34 4.248 55.172C4.6 54.996 4.864 54.752 5.04 54.44V53.516C4.728 53.332 4.416 53.2 4.104 53.12C3.8 53.032 3.456 52.988 3.072 52.988C2.528 52.988 2.132 53.092 1.884 53.3C1.644 53.5 1.524 53.808 1.524 54.224C1.524 55.024 2.044 55.424 3.084 55.424ZM10.3503 56.18C9.78228 56.18 9.27028 56.056 8.81428 55.808C8.35828 55.56 7.99828 55.204 7.73428 54.74C7.47028 54.276 7.33828 53.74 7.33828 53.132C7.33828 52.532 7.46628 52 7.72228 51.536C7.98628 51.064 8.34628 50.7 8.80228 50.444C9.26628 50.188 9.78228 50.06 10.3503 50.06C10.9023 50.06 11.3903 50.16 11.8143 50.36C12.2463 50.552 12.5903 50.836 12.8463 51.212V47.132H13.7703V56H12.8703V54.992C12.5663 55.392 12.2063 55.692 11.7903 55.892C11.3823 56.084 10.9023 56.18 10.3503 56.18ZM10.5423 55.448C11.0943 55.448 11.5743 55.308 11.9823 55.028C12.3983 54.74 12.6863 54.348 12.8463 53.852V52.412C12.6943 51.916 12.4103 51.524 11.9943 51.236C11.5863 50.948 11.1023 50.804 10.5423 50.804C10.1183 50.804 9.73028 50.904 9.37828 51.104C9.03428 51.296 8.76228 51.568 8.56228 51.92C8.36228 52.272 8.26228 52.676 8.26228 53.132C8.26228 53.588 8.36228 53.992 8.56228 54.344C8.76228 54.696 9.03428 54.968 9.37828 55.16C9.73028 55.352 10.1183 55.448 10.5423 55.448ZM16.0293 48.992C15.8693 48.992 15.7333 48.936 15.6213 48.824C15.5093 48.712 15.4533 48.576 15.4533 48.416C15.4533 48.256 15.5093 48.12 15.6213 48.008C15.7333 47.896 15.8693 47.84 16.0293 47.84C16.1893 47.84 16.3253 47.896 16.4373 48.008C16.5573 48.12 16.6173 48.256 16.6173 48.416C16.6173 48.576 16.5573 48.712 16.4373 48.824C16.3253 48.936 16.1893 48.992 16.0293 48.992ZM15.5733 50.24H16.4973V56H15.5733V50.24ZM18.3009 50.24H19.2009V51.236C19.7689 50.452 20.6089 50.06 21.7209 50.06C22.2889 50.06 22.8009 50.188 23.2569 50.444C23.7129 50.7 24.0729 51.06 24.3369 51.524C24.6009 51.988 24.7329 52.524 24.7329 53.132C24.7329 53.732 24.6009 54.264 24.3369 54.728C24.0809 55.192 23.7209 55.552 23.2569 55.808C22.8009 56.056 22.2889 56.18 21.7209 56.18C21.2009 56.18 20.7169 56.084 20.2689 55.892C19.8209 55.692 19.4729 55.404 19.2249 55.028V58.628H18.3009V50.24ZM21.5289 55.448C21.9609 55.448 22.3489 55.352 22.6929 55.16C23.0449 54.968 23.3169 54.7 23.5089 54.356C23.7089 54.004 23.8089 53.596 23.8089 53.132C23.8089 52.676 23.7089 52.272 23.5089 51.92C23.3169 51.56 23.0449 51.284 22.6929 51.092C22.3489 50.9 21.9609 50.804 21.5289 50.804C20.9849 50.804 20.5049 50.948 20.0889 51.236C19.6809 51.516 19.3929 51.904 19.2249 52.4V53.828C19.3769 54.316 19.6609 54.708 20.0769 55.004C20.5009 55.3 20.9849 55.448 21.5289 55.448ZM26.7519 48.992C26.5919 48.992 26.4559 48.936 26.3439 48.824C26.2319 48.712 26.1759 48.576 26.1759 48.416C26.1759 48.256 26.2319 48.12 26.3439 48.008C26.4559 47.896 26.5919 47.84 26.7519 47.84C26.9119 47.84 27.0479 47.896 27.1599 48.008C27.2799 48.12 27.3399 48.256 27.3399 48.416C27.3399 48.576 27.2799 48.712 27.1599 48.824C27.0479 48.936 26.9119 48.992 26.7519 48.992ZM26.2959 50.24H27.2199V56H26.2959V50.24ZM31.0276 56.18C30.6516 56.18 30.2476 56.124 29.8156 56.012C29.3836 55.908 29.0476 55.776 28.8076 55.616V54.836C29.1116 55.02 29.4596 55.168 29.8516 55.28C30.2516 55.392 30.6356 55.448 31.0036 55.448C31.4996 55.448 31.8556 55.38 32.0716 55.244C32.2956 55.1 32.4076 54.888 32.4076 54.608C32.4076 54.392 32.3596 54.224 32.2636 54.104C32.1676 53.976 32.0076 53.864 31.7836 53.768C31.5596 53.672 31.2116 53.56 30.7396 53.432C30.2756 53.304 29.9036 53.172 29.6236 53.036C29.3516 52.892 29.1436 52.712 28.9996 52.496C28.8556 52.28 28.7836 52.004 28.7836 51.668C28.7836 51.148 28.9916 50.752 29.4076 50.48C29.8316 50.2 30.3916 50.06 31.0876 50.06C31.4636 50.06 31.8156 50.096 32.1436 50.168C32.4796 50.232 32.7596 50.324 32.9836 50.444V51.224C32.7516 51.096 32.4716 50.996 32.1436 50.924C31.8156 50.844 31.4756 50.804 31.1236 50.804C30.6596 50.804 30.3076 50.872 30.0676 51.008C29.8276 51.144 29.7076 51.364 29.7076 51.668C29.7076 51.876 29.7476 52.036 29.8276 52.148C29.9156 52.26 30.0716 52.364 30.2956 52.46C30.5276 52.548 30.8956 52.66 31.3996 52.796C32.1196 52.996 32.6196 53.232 32.8996 53.504C33.1876 53.768 33.3316 54.136 33.3316 54.608C33.3316 55.096 33.1396 55.48 32.7556 55.76C32.3796 56.04 31.8036 56.18 31.0276 56.18ZM37.4011 56.18C36.7931 56.18 36.2451 56.06 35.7571 55.82C35.2771 55.572 34.9011 55.22 34.6291 54.764C34.3571 54.3 34.2211 53.756 34.2211 53.132C34.2211 52.516 34.3571 51.976 34.6291 51.512C34.9091 51.04 35.2931 50.68 35.7811 50.432C36.2691 50.184 36.8211 50.06 37.4371 50.06C37.8771 50.06 38.2651 50.1 38.6011 50.18C38.9371 50.26 39.2371 50.388 39.5011 50.564V51.344C38.9971 50.984 38.3371 50.804 37.5211 50.804C36.8171 50.804 36.2451 51.008 35.8051 51.416C35.3651 51.824 35.1451 52.396 35.1451 53.132C35.1451 53.868 35.3651 54.44 35.8051 54.848C36.2451 55.248 36.8051 55.448 37.4851 55.448C37.9091 55.448 38.2891 55.4 38.6251 55.304C38.9611 55.208 39.2811 55.06 39.5851 54.86V55.64C39.3051 55.832 38.9891 55.968 38.6371 56.048C38.2931 56.136 37.8811 56.18 37.4011 56.18ZM41.5996 48.992C41.4396 48.992 41.3036 48.936 41.1916 48.824C41.0796 48.712 41.0236 48.576 41.0236 48.416C41.0236 48.256 41.0796 48.12 41.1916 48.008C41.3036 47.896 41.4396 47.84 41.5996 47.84C41.7596 47.84 41.8956 47.896 42.0076 48.008C42.1276 48.12 42.1876 48.256 42.1876 48.416C42.1876 48.576 42.1276 48.712 42.0076 48.824C41.8956 48.936 41.7596 48.992 41.5996 48.992ZM41.1436 50.24H42.0676V56H41.1436V50.24ZM43.8713 50.24H44.7713V51.104C45.0513 50.744 45.3913 50.48 45.7913 50.312C46.1993 50.144 46.6313 50.06 47.0873 50.06C47.8473 50.06 48.4113 50.26 48.7793 50.66C49.1553 51.06 49.3433 51.596 49.3433 52.268V56H48.4193V52.352C48.4193 51.856 48.2993 51.476 48.0593 51.212C47.8193 50.94 47.4353 50.804 46.9073 50.804C46.0193 50.804 45.3153 51.204 44.7952 52.004V56H43.8713V50.24ZM53.9371 58.76C53.5531 58.76 53.1771 58.728 52.8091 58.664C52.4411 58.6 52.1291 58.512 51.8731 58.4V57.62C52.4811 57.892 53.1691 58.028 53.9371 58.028C54.7211 58.028 55.2971 57.848 55.6651 57.488C56.0411 57.136 56.2291 56.6 56.2291 55.88V55.028C55.7091 55.796 54.8851 56.18 53.7571 56.18C53.1891 56.18 52.6731 56.056 52.2091 55.808C51.7451 55.552 51.3811 55.192 51.1171 54.728C50.8531 54.264 50.7211 53.732 50.7211 53.132C50.7211 52.524 50.8531 51.988 51.1171 51.524C51.3811 51.06 51.7411 50.7 52.1971 50.444C52.6531 50.188 53.1651 50.06 53.7331 50.06C54.3251 50.06 54.8171 50.152 55.2091 50.336C55.6011 50.512 55.9491 50.804 56.2531 51.212V50.24H57.1531V55.76C57.1531 56.736 56.8891 57.48 56.3611 57.992C55.8331 58.504 55.0251 58.76 53.9371 58.76ZM53.9251 55.448C54.4931 55.448 54.9811 55.304 55.3891 55.016C55.7971 54.728 56.0771 54.332 56.2291 53.828V52.4C56.0691 51.896 55.7851 51.504 55.3771 51.224C54.9691 50.944 54.4851 50.804 53.9251 50.804C53.5011 50.804 53.1131 50.904 52.7611 51.104C52.4171 51.296 52.1451 51.568 51.9451 51.92C51.7451 52.272 51.6451 52.676 51.6451 53.132C51.6451 53.596 51.7451 54.004 51.9451 54.356C52.1451 54.7 52.4171 54.968 52.7611 55.16C53.1131 55.352 53.5011 55.448 53.9251 55.448ZM66.4907 56.18C65.4427 56.18 64.6227 55.912 64.0307 55.376C63.4467 54.84 63.1547 54.092 63.1547 53.132C63.1547 52.188 63.4187 51.44 63.9467 50.888C64.4747 50.336 65.2267 50.06 66.2027 50.06C66.8587 50.06 67.4147 50.188 67.8707 50.444C68.3267 50.692 68.6707 51.036 68.9027 51.476C69.1347 51.916 69.2507 52.416 69.2507 52.976V53.48H64.0187C64.0507 54.136 64.2907 54.628 64.7387 54.956C65.1947 55.284 65.8107 55.448 66.5867 55.448C66.9627 55.448 67.3307 55.416 67.6907 55.352C68.0587 55.28 68.3867 55.184 68.6747 55.064V55.844C68.4347 55.94 68.1067 56.02 67.6907 56.084C67.2827 56.148 66.8827 56.18 66.4907 56.18ZM68.3867 52.82C68.3707 52.196 68.1787 51.704 67.8107 51.344C67.4427 50.984 66.9027 50.804 66.1907 50.804C65.4947 50.804 64.9627 50.992 64.5947 51.368C64.2267 51.736 64.0347 52.22 64.0187 52.82H68.3867ZM70.6955 47.132H71.6195V56H70.6955V47.132ZM73.873 48.992C73.713 48.992 73.577 48.936 73.465 48.824C73.353 48.712 73.297 48.576 73.297 48.416C73.297 48.256 73.353 48.12 73.465 48.008C73.577 47.896 73.713 47.84 73.873 47.84C74.033 47.84 74.169 47.896 74.281 48.008C74.401 48.12 74.461 48.256 74.461 48.416C74.461 48.576 74.401 48.712 74.281 48.824C74.169 48.936 74.033 48.992 73.873 48.992ZM73.417 50.24H74.341V56H73.417V50.24ZM78.2807 56.18C77.7367 56.18 77.3127 56.02 77.0087 55.7C76.7127 55.38 76.5647 54.924 76.5647 54.332V50.96H75.6647V50.24H76.5647V48.512H77.4887V50.24H78.9407V50.96H77.4887V54.356C77.4887 54.756 77.5687 55.04 77.7287 55.208C77.8887 55.368 78.1807 55.448 78.6047 55.448C78.8127 55.448 79.0327 55.4 79.2647 55.304V56.06C79.0007 56.14 78.6727 56.18 78.2807 56.18ZM80.8155 56C80.6635 56 80.5355 55.952 80.4315 55.856C80.3355 55.752 80.2875 55.624 80.2875 55.472C80.2875 55.32 80.3355 55.192 80.4315 55.088C80.5355 54.984 80.6635 54.932 80.8155 54.932C80.9675 54.932 81.0955 54.984 81.1995 55.088C81.3035 55.192 81.3555 55.32 81.3555 55.472C81.3555 55.624 81.3035 55.752 81.1995 55.856C81.0955 55.952 80.9675 56 80.8155 56ZM87.3715 47.612H88.3075V56H87.3715V47.612ZM89.9963 50.24H90.8963V51.104C91.1763 50.744 91.5163 50.48 91.9163 50.312C92.3243 50.144 92.7563 50.06 93.2123 50.06C93.9723 50.06 94.5363 50.26 94.9043 50.66C95.2803 51.06 95.4683 51.596 95.4683 52.268V56H94.5443V52.352C94.5443 51.856 94.4243 51.476 94.1843 51.212C93.9443 50.94 93.5603 50.804 93.0323 50.804C92.1443 50.804 91.4403 51.204 90.9202 52.004V56H89.9963V50.24ZM99.2221 56.18C98.6781 56.18 98.2541 56.02 97.9501 55.7C97.6541 55.38 97.5061 54.924 97.5061 54.332V50.96H96.6061V50.24H97.5061V48.512H98.4301V50.24H99.8821V50.96H98.4301V54.356C98.4301 54.756 98.5101 55.04 98.6701 55.208C98.8301 55.368 99.1221 55.448 99.5461 55.448C99.7541 55.448 99.9741 55.4 100.206 55.304V56.06C99.9421 56.14 99.6141 56.18 99.2221 56.18ZM104.565 56.18C103.517 56.18 102.697 55.912 102.105 55.376C101.521 54.84 101.229 54.092 101.229 53.132C101.229 52.188 101.493 51.44 102.021 50.888C102.549 50.336 103.301 50.06 104.277 50.06C104.933 50.06 105.489 50.188 105.945 50.444C106.401 50.692 106.745 51.036 106.977 51.476C107.209 51.916 107.325 52.416 107.325 52.976V53.48H102.093C102.125 54.136 102.365 54.628 102.813 54.956C103.269 55.284 103.885 55.448 104.661 55.448C105.037 55.448 105.405 55.416 105.765 55.352C106.133 55.28 106.461 55.184 106.749 55.064V55.844C106.509 55.94 106.181 56.02 105.765 56.084C105.357 56.148 104.957 56.18 104.565 56.18ZM106.461 52.82C106.445 52.196 106.253 51.704 105.885 51.344C105.517 50.984 104.977 50.804 104.265 50.804C103.569 50.804 103.037 50.992 102.669 51.368C102.301 51.736 102.109 52.22 102.093 52.82H106.461ZM111.746 58.76C111.362 58.76 110.986 58.728 110.618 58.664C110.25 58.6 109.938 58.512 109.682 58.4V57.62C110.29 57.892 110.978 58.028 111.746 58.028C112.53 58.028 113.106 57.848 113.474 57.488C113.85 57.136 114.038 56.6 114.038 55.88V55.028C113.518 55.796 112.694 56.18 111.566 56.18C110.998 56.18 110.482 56.056 110.018 55.808C109.554 55.552 109.19 55.192 108.926 54.728C108.662 54.264 108.53 53.732 108.53 53.132C108.53 52.524 108.662 51.988 108.926 51.524C109.19 51.06 109.55 50.7 110.006 50.444C110.462 50.188 110.974 50.06 111.542 50.06C112.134 50.06 112.626 50.152 113.018 50.336C113.41 50.512 113.758 50.804 114.062 51.212V50.24H114.962V55.76C114.962 56.736 114.698 57.48 114.17 57.992C113.642 58.504 112.834 58.76 111.746 58.76ZM111.734 55.448C112.302 55.448 112.79 55.304 113.198 55.016C113.606 54.728 113.886 54.332 114.038 53.828V52.4C113.878 51.896 113.594 51.504 113.186 51.224C112.778 50.944 112.294 50.804 111.734 50.804C111.31 50.804 110.922 50.904 110.57 51.104C110.226 51.296 109.954 51.568 109.754 51.92C109.554 52.272 109.454 52.676 109.454 53.132C109.454 53.596 109.554 54.004 109.754 54.356C109.954 54.7 110.226 54.968 110.57 55.16C110.922 55.352 111.31 55.448 111.734 55.448ZM119.741 56.18C118.693 56.18 117.873 55.912 117.281 55.376C116.697 54.84 116.405 54.092 116.405 53.132C116.405 52.188 116.669 51.44 117.197 50.888C117.725 50.336 118.477 50.06 119.453 50.06C120.109 50.06 120.665 50.188 121.121 50.444C121.577 50.692 121.921 51.036 122.153 51.476C122.385 51.916 122.501 52.416 122.501 52.976V53.48H117.269C117.301 54.136 117.541 54.628 117.989 54.956C118.445 55.284 119.061 55.448 119.837 55.448C120.213 55.448 120.581 55.416 120.941 55.352C121.309 55.28 121.637 55.184 121.925 55.064V55.844C121.685 55.94 121.357 56.02 120.941 56.084C120.533 56.148 120.133 56.18 119.741 56.18ZM121.637 52.82C121.621 52.196 121.429 51.704 121.061 51.344C120.693 50.984 120.153 50.804 119.441 50.804C118.745 50.804 118.213 50.992 117.845 51.368C117.477 51.736 117.285 52.22 117.269 52.82H121.637ZM123.945 50.24H124.845V51.368C125.309 50.616 126.177 50.24 127.449 50.24V50.984C126.057 50.984 125.197 51.444 124.869 52.364V56H123.945V50.24Z" fill="black"/>
</svg>
