<svg width="225" height="55" viewBox="0 0 225 55" fill="none" xmlns="http://www.w3.org/2000/svg">
<path d="M6.16 0.839999H9.632L7.744 9.656H10.992L10.72 11H4L6.16 0.839999ZM16.4619 3.944C17.7312 3.944 18.6539 4.168 19.2299 4.616C19.8379 5.08533 20.1419 5.864 20.1419 6.952C20.1419 7.624 20.0299 8.232 19.8059 8.776C19.5819 9.30933 19.2672 9.752 18.8619 10.104C18.0512 10.7867 16.8779 11.128 15.3419 11.128C14.0299 11.128 13.0912 10.8773 12.5259 10.376C11.9179 9.85333 11.6139 9.06933 11.6139 8.024C11.6139 7.33067 11.7525 6.70133 12.0299 6.136C12.3179 5.57067 12.7285 5.10133 13.2619 4.728C14.0405 4.20533 15.1072 3.944 16.4619 3.944ZM15.3739 10.04C15.6405 10.04 15.8699 9.89067 16.0619 9.592C16.2645 9.29333 16.4245 8.93067 16.5419 8.504C16.6592 8.06667 16.7445 7.61867 16.7979 7.16C16.8619 6.69067 16.8939 6.28533 16.8939 5.944C16.8939 5.64533 16.8619 5.42133 16.7979 5.272C16.7445 5.112 16.6219 5.032 16.4299 5.032C16.1419 5.032 15.8912 5.18667 15.6779 5.496C15.4752 5.80533 15.3099 6.17333 15.1819 6.6C15.0539 7.02667 14.9579 7.464 14.8939 7.912C14.8405 8.36 14.8139 8.72267 14.8139 9C14.8139 9.69333 15.0005 10.04 15.3739 10.04ZM21.921 4.12H24.529L24.769 5.32H24.881C25.1263 4.936 25.441 4.61067 25.825 4.344C26.209 4.07733 26.7157 3.944 27.345 3.944C27.3877 3.944 27.4517 3.94933 27.537 3.96C27.633 3.96 27.7343 3.976 27.841 4.008C27.9583 4.02933 28.0757 4.06667 28.193 4.12C28.321 4.16267 28.4437 4.22667 28.561 4.312L27.857 7.608H26.113C26.0917 6.94667 26.033 6.488 25.937 6.232C25.841 5.96533 25.6863 5.832 25.473 5.832C25.3663 5.832 25.249 5.85867 25.121 5.912C25.0037 5.95467 24.881 6.056 24.753 6.216L23.729 11H20.465L21.921 4.12ZM31.8474 7.784C31.8047 8.01867 31.7727 8.24267 31.7514 8.456C31.7407 8.66933 31.7354 8.86133 31.7354 9.032C31.7354 9.128 31.7407 9.23467 31.7514 9.352C31.762 9.46933 31.7834 9.58133 31.8154 9.688C31.858 9.784 31.9114 9.86933 31.9754 9.944C32.05 10.008 32.1514 10.04 32.2794 10.04C32.3754 10.04 32.482 10.008 32.5994 9.944C32.7274 9.88 32.85 9.78933 32.9674 9.672C33.0954 9.55467 33.2127 9.41067 33.3194 9.24C33.4367 9.06933 33.5274 8.87733 33.5914 8.664H36.2154L35.7994 10.376C35.586 10.5147 35.3407 10.632 35.0634 10.728C34.786 10.824 34.4927 10.904 34.1834 10.968C33.874 11.0213 33.5594 11.0587 33.2394 11.08C32.9194 11.112 32.6154 11.128 32.3274 11.128C31.794 11.128 31.298 11.08 30.8394 10.984C30.3807 10.888 29.9807 10.7227 29.6394 10.488C29.298 10.2533 29.026 9.944 28.8234 9.56C28.6314 9.16533 28.5354 8.68 28.5354 8.104C28.5354 7.58133 28.6154 7.06933 28.7754 6.568C28.946 6.06667 29.2234 5.624 29.6074 5.24C30.002 4.84533 30.5247 4.53067 31.1754 4.296C31.8367 4.06133 32.658 3.944 33.6394 3.944C34.706 3.944 35.506 4.10933 36.0394 4.44C36.5834 4.77067 36.8554 5.288 36.8554 5.992C36.8554 6.28 36.8127 6.59467 36.7274 6.936C36.642 7.26667 36.514 7.54933 36.3434 7.784H31.8474ZM33.9754 5.88C33.9754 5.54933 33.922 5.32533 33.8154 5.208C33.7087 5.09067 33.5807 5.032 33.4314 5.032C33.2607 5.032 33.1007 5.09067 32.9514 5.208C32.8127 5.31467 32.6847 5.464 32.5674 5.656C32.45 5.83733 32.3434 6.05067 32.2474 6.296C32.1514 6.53067 32.0714 6.78133 32.0074 7.048H33.8314C33.8527 6.92 33.874 6.78667 33.8954 6.648C33.9167 6.53067 33.9327 6.40267 33.9434 6.264C33.9647 6.12533 33.9754 5.99733 33.9754 5.88ZM38.2614 4.712C38.8054 4.44533 39.36 4.25333 39.9254 4.136C40.5014 4.008 41.1414 3.944 41.8454 3.944C42.528 3.944 43.0934 3.99733 43.5414 4.104C43.9894 4.21067 44.3467 4.36533 44.6134 4.568C44.88 4.77067 45.0667 5.01067 45.1734 5.288C45.28 5.56533 45.3334 5.88 45.3334 6.232C45.3334 6.43467 45.3174 6.65333 45.2854 6.888C45.264 7.12267 45.2374 7.32 45.2054 7.48L44.4534 11H41.8774L41.5894 9.976H41.4934C41.152 10.3493 40.752 10.6373 40.2934 10.84C39.8454 11.032 39.3974 11.128 38.9494 11.128C38.6934 11.128 38.4427 11.0907 38.1974 11.016C37.952 10.9413 37.7334 10.8293 37.5414 10.68C37.3494 10.52 37.1947 10.3227 37.0774 10.088C36.96 9.84267 36.9014 9.54933 36.9014 9.208C36.9014 8.65333 37.0507 8.216 37.3494 7.896C37.6587 7.56533 38.0587 7.32 38.5494 7.16C39.0507 6.98933 39.6107 6.88267 40.2294 6.84C40.8587 6.79733 41.488 6.776 42.1174 6.776C42.1387 6.66933 42.1654 6.52 42.1974 6.328C42.2294 6.12533 42.2454 5.94933 42.2454 5.8C42.2454 5.608 42.192 5.432 42.0854 5.272C41.9894 5.10133 41.7814 5.016 41.4614 5.016C41.088 5.016 40.8107 5.128 40.6294 5.352C40.4587 5.56533 40.3467 5.82667 40.2934 6.136H37.9574L38.2614 4.712ZM41.9414 7.528H41.6534C41.344 7.528 41.0774 7.57067 40.8534 7.656C40.64 7.73067 40.464 7.832 40.3254 7.96C40.1974 8.088 40.1014 8.232 40.0374 8.392C39.9734 8.552 39.9414 8.712 39.9414 8.872C39.9414 9.128 40.0054 9.32 40.1334 9.448C40.272 9.576 40.432 9.64 40.6134 9.64C40.8374 9.64 41.056 9.56 41.2694 9.4C41.4934 9.24 41.632 9.02667 41.6854 8.76L41.9414 7.528ZM50.2255 5.144C50.4495 4.93067 50.7002 4.73333 50.9775 4.552C51.2228 4.40267 51.5162 4.264 51.8575 4.136C52.1988 4.008 52.5828 3.944 53.0095 3.944C53.5215 3.944 53.9002 4.06133 54.1455 4.296C54.4015 4.53067 54.5455 4.81867 54.5775 5.16H54.6735C54.9188 4.936 55.1855 4.73333 55.4735 4.552C55.7188 4.40267 56.0068 4.264 56.3375 4.136C56.6682 4.008 57.0202 3.944 57.3935 3.944C57.9482 3.944 58.3962 4.09867 58.7375 4.408C59.0895 4.70667 59.2655 5.096 59.2655 5.576C59.2655 5.82133 59.2228 6.14667 59.1375 6.552C59.0522 6.95733 58.9562 7.4 58.8495 7.88L58.1775 11H55.0255L55.8895 6.824C55.9215 6.664 55.9535 6.50933 55.9855 6.36C56.0175 6.21067 56.0335 6.088 56.0335 5.992C56.0335 5.84267 55.9908 5.72 55.9055 5.624C55.8202 5.51733 55.6975 5.464 55.5375 5.464C55.3348 5.464 55.1428 5.53867 54.9615 5.688C54.7908 5.82667 54.6575 5.944 54.5615 6.04L53.5215 11H50.5295L51.4095 6.824C51.4308 6.68533 51.4575 6.54667 51.4895 6.408C51.5215 6.25867 51.5375 6.12533 51.5375 6.008C51.5375 5.848 51.4948 5.72 51.4095 5.624C51.3348 5.51733 51.2175 5.464 51.0575 5.464C50.8655 5.464 50.6788 5.53333 50.4975 5.672C50.3268 5.81067 50.1935 5.928 50.0975 6.024L49.0415 11H45.7775L47.2335 4.12H49.8415L50.1295 5.144H50.2255Z" fill="black"/>
<path d="M2.62 29.38H5.224L3.808 35.992H6.244L6.04 37H1L2.62 29.38ZM10.3464 31.708C11.2984 31.708 11.9904 31.876 12.4224 32.212C12.8784 32.564 13.1064 33.148 13.1064 33.964C13.1064 34.468 13.0224 34.924 12.8544 35.332C12.6864 35.732 12.4504 36.064 12.1464 36.328C11.5384 36.84 10.6584 37.096 9.50641 37.096C8.52241 37.096 7.81841 36.908 7.39441 36.532C6.93841 36.14 6.71041 35.552 6.71041 34.768C6.71041 34.248 6.81441 33.776 7.02241 33.352C7.23841 32.928 7.54641 32.576 7.94641 32.296C8.53041 31.904 9.33041 31.708 10.3464 31.708ZM9.53041 36.28C9.73041 36.28 9.90241 36.168 10.0464 35.944C10.1984 35.72 10.3184 35.448 10.4064 35.128C10.4944 34.8 10.5584 34.464 10.5984 34.12C10.6464 33.768 10.6704 33.464 10.6704 33.208C10.6704 32.984 10.6464 32.816 10.5984 32.704C10.5584 32.584 10.4664 32.524 10.3224 32.524C10.1064 32.524 9.91841 32.64 9.75841 32.872C9.60641 33.104 9.48241 33.38 9.38641 33.7C9.29041 34.02 9.21841 34.348 9.17041 34.684C9.13041 35.02 9.11041 35.292 9.11041 35.5C9.11041 36.02 9.25041 36.28 9.53041 36.28ZM14.4408 31.84H16.3968L16.5768 32.74H16.6608C16.8448 32.452 17.0808 32.208 17.3688 32.008C17.6568 31.808 18.0368 31.708 18.5088 31.708C18.5408 31.708 18.5888 31.712 18.6528 31.72C18.7248 31.72 18.8008 31.732 18.8808 31.756C18.9688 31.772 19.0568 31.8 19.1448 31.84C19.2408 31.872 19.3328 31.92 19.4208 31.984L18.8928 34.456H17.5848C17.5688 33.96 17.5248 33.616 17.4528 33.424C17.3808 33.224 17.2648 33.124 17.1048 33.124C17.0248 33.124 16.9368 33.144 16.8408 33.184C16.7528 33.216 16.6608 33.292 16.5648 33.412L15.7968 37H13.3487L14.4408 31.84ZM21.8855 34.588C21.8535 34.764 21.8295 34.932 21.8135 35.092C21.8055 35.252 21.8015 35.396 21.8015 35.524C21.8015 35.596 21.8055 35.676 21.8135 35.764C21.8215 35.852 21.8375 35.936 21.8615 36.016C21.8935 36.088 21.9335 36.152 21.9815 36.208C22.0375 36.256 22.1135 36.28 22.2095 36.28C22.2815 36.28 22.3615 36.256 22.4495 36.208C22.5455 36.16 22.6375 36.092 22.7255 36.004C22.8215 35.916 22.9095 35.808 22.9895 35.68C23.0775 35.552 23.1455 35.408 23.1935 35.248H25.1615L24.8495 36.532C24.6895 36.636 24.5055 36.724 24.2975 36.796C24.0895 36.868 23.8695 36.928 23.6375 36.976C23.4055 37.016 23.1695 37.044 22.9295 37.06C22.6895 37.084 22.4615 37.096 22.2455 37.096C21.8455 37.096 21.4735 37.06 21.1295 36.988C20.7855 36.916 20.4855 36.792 20.2295 36.616C19.9735 36.44 19.7695 36.208 19.6175 35.92C19.4735 35.624 19.4015 35.26 19.4015 34.828C19.4015 34.436 19.4615 34.052 19.5815 33.676C19.7095 33.3 19.9175 32.968 20.2055 32.68C20.5015 32.384 20.8935 32.148 21.3815 31.972C21.8775 31.796 22.4935 31.708 23.2295 31.708C24.0295 31.708 24.6295 31.832 25.0295 32.08C25.4375 32.328 25.6415 32.716 25.6415 33.244C25.6415 33.46 25.6095 33.696 25.5455 33.952C25.4815 34.2 25.3855 34.412 25.2575 34.588H21.8855ZM23.4815 33.16C23.4815 32.912 23.4415 32.744 23.3615 32.656C23.2815 32.568 23.1855 32.524 23.0735 32.524C22.9455 32.524 22.8255 32.568 22.7135 32.656C22.6095 32.736 22.5135 32.848 22.4255 32.992C22.3375 33.128 22.2575 33.288 22.1855 33.472C22.1135 33.648 22.0535 33.836 22.0055 34.036H23.3735C23.3895 33.94 23.4055 33.84 23.4215 33.736C23.4375 33.648 23.4495 33.552 23.4575 33.448C23.4735 33.344 23.4815 33.248 23.4815 33.16ZM29.048 32.608C29.216 32.448 29.404 32.3 29.612 32.164C29.796 32.052 30.016 31.948 30.272 31.852C30.528 31.756 30.816 31.708 31.136 31.708C31.52 31.708 31.804 31.796 31.988 31.972C32.18 32.148 32.288 32.364 32.312 32.62H32.384C32.568 32.452 32.768 32.3 32.984 32.164C33.168 32.052 33.384 31.948 33.632 31.852C33.88 31.756 34.144 31.708 34.424 31.708C34.84 31.708 35.176 31.824 35.432 32.056C35.696 32.28 35.828 32.572 35.828 32.932C35.828 33.116 35.796 33.36 35.732 33.664C35.668 33.968 35.596 34.3 35.516 34.66L35.012 37H32.648L33.296 33.868C33.32 33.748 33.344 33.632 33.368 33.52C33.392 33.408 33.404 33.316 33.404 33.244C33.404 33.132 33.372 33.04 33.308 32.968C33.244 32.888 33.152 32.848 33.032 32.848C32.88 32.848 32.736 32.904 32.6 33.016C32.472 33.12 32.372 33.208 32.3 33.28L31.52 37H29.276L29.936 33.868C29.952 33.764 29.972 33.66 29.996 33.556C30.02 33.444 30.032 33.344 30.032 33.256C30.032 33.136 30 33.04 29.936 32.968C29.88 32.888 29.792 32.848 29.672 32.848C29.528 32.848 29.388 32.9 29.252 33.004C29.124 33.108 29.024 33.196 28.952 33.268L28.16 37H25.712L26.804 31.84H28.76L28.976 32.608H29.048ZM40.7808 37H38.3448L39.4368 31.84H41.8968L40.7808 37ZM42.2088 30.268C42.2088 30.452 42.1688 30.612 42.0888 30.748C42.0168 30.884 41.9168 31 41.7888 31.096C41.6688 31.192 41.5288 31.264 41.3688 31.312C41.2088 31.36 41.0448 31.384 40.8768 31.384C40.5568 31.384 40.2888 31.308 40.0728 31.156C39.8568 31.004 39.7488 30.764 39.7488 30.436C39.7488 30.26 39.7848 30.104 39.8568 29.968C39.9288 29.824 40.0248 29.708 40.1448 29.62C40.2728 29.524 40.4168 29.452 40.5768 29.404C40.7448 29.356 40.9168 29.332 41.0928 29.332C41.4048 29.332 41.6688 29.408 41.8848 29.56C42.1008 29.712 42.2088 29.948 42.2088 30.268ZM43.8765 39.016H41.4285L42.9405 31.84H44.8965L45.1125 32.608H45.1845C45.4725 32.304 45.7925 32.088 46.1445 31.96C46.5045 31.824 46.8565 31.756 47.2005 31.756C47.4805 31.756 47.7125 31.8 47.8965 31.888C48.0885 31.968 48.2405 32.08 48.3525 32.224C48.4645 32.368 48.5445 32.54 48.5925 32.74C48.6405 32.94 48.6645 33.152 48.6645 33.376C48.6645 33.488 48.6565 33.656 48.6405 33.88C48.6245 34.104 48.5885 34.356 48.5325 34.636C48.4765 34.908 48.3965 35.192 48.2925 35.488C48.1885 35.776 48.0485 36.04 47.8725 36.28C47.7045 36.52 47.4885 36.716 47.2245 36.868C46.9685 37.02 46.6605 37.096 46.3005 37.096C46.1005 37.096 45.9045 37.072 45.7125 37.024C45.5285 36.976 45.3605 36.912 45.2085 36.832C45.0565 36.752 44.9205 36.66 44.8005 36.556C44.6885 36.444 44.6045 36.332 44.5485 36.22H44.4765L43.8765 39.016ZM45.1485 35.932C45.3405 35.932 45.5005 35.832 45.6285 35.632C45.7565 35.424 45.8605 35.184 45.9405 34.912C46.0205 34.632 46.0765 34.356 46.1085 34.084C46.1485 33.804 46.1685 33.596 46.1685 33.46C46.1685 33.3 46.1405 33.168 46.0845 33.064C46.0365 32.96 45.9445 32.908 45.8085 32.908C45.6565 32.908 45.5125 32.964 45.3765 33.076C45.2405 33.18 45.1405 33.272 45.0765 33.352L44.6085 35.548C44.6725 35.636 44.7485 35.724 44.8365 35.812C44.9245 35.892 45.0285 35.932 45.1485 35.932ZM52.6723 33.352C52.6803 33.312 52.6883 33.272 52.6963 33.232C52.7043 33.192 52.7083 33.148 52.7083 33.1C52.7083 32.956 52.6803 32.824 52.6243 32.704C52.5763 32.576 52.4763 32.512 52.3243 32.512C52.1883 32.512 52.0523 32.572 51.9163 32.692C51.7803 32.804 51.7123 32.956 51.7123 33.148C51.7123 33.276 51.7443 33.38 51.8083 33.46C51.8803 33.532 51.9723 33.592 52.0843 33.64C52.1963 33.688 52.3203 33.728 52.4563 33.76C52.6003 33.792 52.7403 33.824 52.8763 33.856C53.0683 33.904 53.2483 33.964 53.4163 34.036C53.5923 34.1 53.7483 34.188 53.8843 34.3C54.0203 34.412 54.1283 34.552 54.2083 34.72C54.2883 34.88 54.3283 35.08 54.3283 35.32C54.3283 35.656 54.2483 35.94 54.0883 36.172C53.9363 36.396 53.7203 36.58 53.4403 36.724C53.1683 36.86 52.8443 36.956 52.4683 37.012C52.1003 37.068 51.7043 37.096 51.2803 37.096C50.6323 37.096 50.0963 37.048 49.6723 36.952C49.2483 36.856 48.9523 36.764 48.7843 36.676L49.0363 35.476H50.6563C50.6483 35.516 50.6443 35.556 50.6443 35.596C50.6443 35.628 50.6443 35.664 50.6443 35.704C50.6443 35.888 50.6843 36.036 50.7643 36.148C50.8523 36.252 51.0003 36.304 51.2083 36.304C51.4403 36.304 51.6043 36.24 51.7003 36.112C51.8043 35.976 51.8563 35.852 51.8563 35.74C51.8563 35.628 51.8123 35.532 51.7243 35.452C51.6443 35.364 51.5403 35.292 51.4123 35.236C51.2843 35.172 51.1403 35.12 50.9803 35.08C50.8283 35.032 50.6803 34.988 50.5363 34.948C50.4323 34.924 50.3123 34.884 50.1763 34.828C50.0483 34.772 49.9243 34.692 49.8043 34.588C49.6843 34.484 49.5843 34.352 49.5043 34.192C49.4243 34.024 49.3843 33.816 49.3843 33.568C49.3843 33.216 49.4683 32.924 49.6363 32.692C49.8123 32.452 50.0363 32.26 50.3083 32.116C50.5883 31.972 50.9003 31.868 51.2443 31.804C51.5963 31.74 51.9483 31.708 52.3003 31.708C52.7403 31.708 53.1563 31.748 53.5483 31.828C53.9403 31.908 54.2603 32.012 54.5083 32.14L54.2323 33.352H52.6723ZM59.3119 31.84H61.7599L60.6559 37H58.7119L58.4959 36.232H58.4239C58.2159 36.48 57.9319 36.688 57.5719 36.856C57.2199 37.016 56.8639 37.096 56.5039 37.096C56.0239 37.096 55.6479 36.976 55.3759 36.736C55.1039 36.488 54.9679 36.168 54.9679 35.776C54.9679 35.576 54.9999 35.328 55.0639 35.032C55.1359 34.728 55.1999 34.444 55.2559 34.18L55.7599 31.84H58.1959L57.5959 34.648C57.5799 34.712 57.5639 34.788 57.5479 34.876C57.5319 34.964 57.5159 35.052 57.4999 35.14C57.4839 35.22 57.4679 35.3 57.4519 35.38C57.4439 35.452 57.4399 35.512 57.4399 35.56C57.4399 35.68 57.4639 35.784 57.5119 35.872C57.5679 35.952 57.6639 35.992 57.7999 35.992C57.9439 35.992 58.0799 35.944 58.2079 35.848C58.3359 35.752 58.4359 35.66 58.5079 35.572L59.3119 31.84ZM65.0715 32.608C65.2395 32.448 65.4275 32.3 65.6355 32.164C65.8195 32.052 66.0395 31.948 66.2955 31.852C66.5515 31.756 66.8395 31.708 67.1595 31.708C67.5435 31.708 67.8275 31.796 68.0115 31.972C68.2035 32.148 68.3115 32.364 68.3355 32.62H68.4075C68.5915 32.452 68.7915 32.3 69.0075 32.164C69.1915 32.052 69.4075 31.948 69.6555 31.852C69.9035 31.756 70.1675 31.708 70.4475 31.708C70.8635 31.708 71.1995 31.824 71.4555 32.056C71.7195 32.28 71.8515 32.572 71.8515 32.932C71.8515 33.116 71.8195 33.36 71.7555 33.664C71.6915 33.968 71.6195 34.3 71.5395 34.66L71.0355 37H68.6715L69.3195 33.868C69.3435 33.748 69.3675 33.632 69.3915 33.52C69.4155 33.408 69.4275 33.316 69.4275 33.244C69.4275 33.132 69.3955 33.04 69.3315 32.968C69.2675 32.888 69.1755 32.848 69.0555 32.848C68.9035 32.848 68.7595 32.904 68.6235 33.016C68.4955 33.12 68.3955 33.208 68.3235 33.28L67.5435 37H65.2995L65.9595 33.868C65.9755 33.764 65.9955 33.66 66.0195 33.556C66.0435 33.444 66.0555 33.344 66.0555 33.256C66.0555 33.136 66.0235 33.04 65.9595 32.968C65.9035 32.888 65.8155 32.848 65.6955 32.848C65.5515 32.848 65.4115 32.9 65.2755 33.004C65.1475 33.108 65.0475 33.196 64.9755 33.268L64.1835 37H61.7355L62.8275 31.84H64.7835L64.9995 32.608H65.0715ZM79.4803 28.936H81.9403L80.2243 37H78.2803L78.0643 36.232H77.9803C77.9323 36.304 77.8563 36.392 77.7523 36.496C77.6563 36.592 77.5323 36.688 77.3803 36.784C77.2283 36.872 77.0483 36.944 76.8403 37C76.6323 37.064 76.3923 37.096 76.1203 37.096C75.8403 37.096 75.6003 37.056 75.4003 36.976C75.2083 36.888 75.0483 36.772 74.9203 36.628C74.8003 36.484 74.7123 36.312 74.6563 36.112C74.6003 35.904 74.5723 35.68 74.5723 35.44C74.5723 35.336 74.5803 35.172 74.5963 34.948C74.6123 34.716 74.6483 34.464 74.7043 34.192C74.7683 33.912 74.8563 33.628 74.9683 33.34C75.0883 33.044 75.2443 32.776 75.4363 32.536C75.6363 32.296 75.8803 32.1 76.1683 31.948C76.4563 31.788 76.8043 31.708 77.2123 31.708C77.3403 31.708 77.4763 31.72 77.6203 31.744C77.7643 31.768 77.9003 31.812 78.0283 31.876C78.1643 31.94 78.2843 32.032 78.3883 32.152C78.4923 32.272 78.5683 32.428 78.6163 32.62H78.7003L79.4803 28.936ZM78.0163 32.884C77.8243 32.884 77.6643 32.992 77.5363 33.208C77.4083 33.416 77.3043 33.66 77.2243 33.94C77.1443 34.22 77.0843 34.5 77.0443 34.78C77.0123 35.06 76.9963 35.268 76.9963 35.404C76.9963 35.564 77.0203 35.7 77.0683 35.812C77.1163 35.916 77.2083 35.968 77.3443 35.968C77.4243 35.968 77.5003 35.952 77.5723 35.92C77.6523 35.88 77.7243 35.836 77.7883 35.788C77.8603 35.732 77.9203 35.676 77.9683 35.62C78.0163 35.564 78.0563 35.516 78.0883 35.476L78.5563 33.292C78.5003 33.204 78.4243 33.116 78.3283 33.028C78.2403 32.932 78.1363 32.884 78.0163 32.884ZM85.1941 31.708C86.1461 31.708 86.8381 31.876 87.2701 32.212C87.7261 32.564 87.9541 33.148 87.9541 33.964C87.9541 34.468 87.8701 34.924 87.7021 35.332C87.5341 35.732 87.2981 36.064 86.9941 36.328C86.3861 36.84 85.5061 37.096 84.3541 37.096C83.3701 37.096 82.6661 36.908 82.2421 36.532C81.7861 36.14 81.5581 35.552 81.5581 34.768C81.5581 34.248 81.6621 33.776 81.8701 33.352C82.0861 32.928 82.3941 32.576 82.7941 32.296C83.3781 31.904 84.1781 31.708 85.1941 31.708ZM84.3781 36.28C84.5781 36.28 84.7501 36.168 84.8941 35.944C85.0461 35.72 85.1661 35.448 85.2541 35.128C85.3421 34.8 85.4061 34.464 85.4461 34.12C85.4941 33.768 85.5181 33.464 85.5181 33.208C85.5181 32.984 85.4941 32.816 85.4461 32.704C85.4061 32.584 85.3141 32.524 85.1701 32.524C84.9541 32.524 84.7661 32.64 84.6061 32.872C84.4541 33.104 84.3301 33.38 84.2341 33.7C84.1381 34.02 84.0661 34.348 84.0181 34.684C83.9781 35.02 83.9581 35.292 83.9581 35.5C83.9581 36.02 84.0981 36.28 84.3781 36.28ZM90.6444 37H88.1964L89.9004 28.936H92.3604L90.6444 37ZM95.612 31.708C96.564 31.708 97.256 31.876 97.688 32.212C98.144 32.564 98.372 33.148 98.372 33.964C98.372 34.468 98.288 34.924 98.12 35.332C97.952 35.732 97.716 36.064 97.412 36.328C96.804 36.84 95.924 37.096 94.772 37.096C93.788 37.096 93.084 36.908 92.66 36.532C92.204 36.14 91.976 35.552 91.976 34.768C91.976 34.248 92.08 33.776 92.288 33.352C92.504 32.928 92.812 32.576 93.212 32.296C93.796 31.904 94.596 31.708 95.612 31.708ZM94.796 36.28C94.996 36.28 95.168 36.168 95.312 35.944C95.464 35.72 95.584 35.448 95.672 35.128C95.76 34.8 95.824 34.464 95.864 34.12C95.912 33.768 95.936 33.464 95.936 33.208C95.936 32.984 95.912 32.816 95.864 32.704C95.824 32.584 95.732 32.524 95.588 32.524C95.372 32.524 95.184 32.64 95.024 32.872C94.872 33.104 94.748 33.38 94.652 33.7C94.556 34.02 94.484 34.348 94.436 34.684C94.396 35.02 94.376 35.292 94.376 35.5C94.376 36.02 94.516 36.28 94.796 36.28ZM99.7064 31.84H101.662L101.842 32.74H101.926C102.11 32.452 102.346 32.208 102.634 32.008C102.922 31.808 103.302 31.708 103.774 31.708C103.806 31.708 103.854 31.712 103.918 31.72C103.99 31.72 104.066 31.732 104.146 31.756C104.234 31.772 104.322 31.8 104.41 31.84C104.506 31.872 104.598 31.92 104.686 31.984L104.158 34.456H102.85C102.834 33.96 102.79 33.616 102.718 33.424C102.646 33.224 102.53 33.124 102.37 33.124C102.29 33.124 102.202 33.144 102.106 33.184C102.018 33.216 101.926 33.292 101.83 33.412L101.062 37H98.6144L99.7064 31.84ZM110.364 33.352C110.372 33.312 110.38 33.272 110.388 33.232C110.396 33.192 110.4 33.148 110.4 33.1C110.4 32.956 110.372 32.824 110.316 32.704C110.268 32.576 110.168 32.512 110.016 32.512C109.88 32.512 109.744 32.572 109.608 32.692C109.472 32.804 109.404 32.956 109.404 33.148C109.404 33.276 109.436 33.38 109.5 33.46C109.572 33.532 109.664 33.592 109.776 33.64C109.888 33.688 110.012 33.728 110.148 33.76C110.292 33.792 110.432 33.824 110.568 33.856C110.76 33.904 110.94 33.964 111.108 34.036C111.284 34.1 111.44 34.188 111.576 34.3C111.712 34.412 111.82 34.552 111.9 34.72C111.98 34.88 112.02 35.08 112.02 35.32C112.02 35.656 111.94 35.94 111.78 36.172C111.628 36.396 111.412 36.58 111.132 36.724C110.86 36.86 110.536 36.956 110.16 37.012C109.792 37.068 109.396 37.096 108.972 37.096C108.324 37.096 107.788 37.048 107.364 36.952C106.94 36.856 106.644 36.764 106.476 36.676L106.728 35.476H108.348C108.34 35.516 108.336 35.556 108.336 35.596C108.336 35.628 108.336 35.664 108.336 35.704C108.336 35.888 108.376 36.036 108.456 36.148C108.544 36.252 108.692 36.304 108.9 36.304C109.132 36.304 109.296 36.24 109.392 36.112C109.496 35.976 109.548 35.852 109.548 35.74C109.548 35.628 109.504 35.532 109.416 35.452C109.336 35.364 109.232 35.292 109.104 35.236C108.976 35.172 108.832 35.12 108.672 35.08C108.52 35.032 108.372 34.988 108.228 34.948C108.124 34.924 108.004 34.884 107.868 34.828C107.74 34.772 107.616 34.692 107.496 34.588C107.376 34.484 107.276 34.352 107.196 34.192C107.116 34.024 107.076 33.816 107.076 33.568C107.076 33.216 107.16 32.924 107.328 32.692C107.504 32.452 107.728 32.26 108 32.116C108.28 31.972 108.592 31.868 108.936 31.804C109.288 31.74 109.64 31.708 109.992 31.708C110.432 31.708 110.848 31.748 111.24 31.828C111.632 31.908 111.952 32.012 112.2 32.14L111.924 33.352H110.364ZM114.843 37H112.407L113.499 31.84H115.959L114.843 37ZM116.271 30.268C116.271 30.452 116.231 30.612 116.151 30.748C116.079 30.884 115.979 31 115.851 31.096C115.731 31.192 115.591 31.264 115.431 31.312C115.271 31.36 115.107 31.384 114.939 31.384C114.619 31.384 114.351 31.308 114.135 31.156C113.919 31.004 113.811 30.764 113.811 30.436C113.811 30.26 113.847 30.104 113.919 29.968C113.991 29.824 114.087 29.708 114.207 29.62C114.335 29.524 114.479 29.452 114.639 29.404C114.807 29.356 114.979 29.332 115.155 29.332C115.467 29.332 115.731 29.408 115.947 29.56C116.163 29.712 116.271 29.948 116.271 30.268ZM116.595 31.84C116.891 31.776 117.151 31.704 117.375 31.624C117.599 31.544 117.803 31.444 117.987 31.324C118.179 31.204 118.359 31.056 118.527 30.88C118.703 30.704 118.891 30.488 119.091 30.232H120.327L119.979 31.84H120.915L120.759 32.644H119.811L119.319 34.984C119.279 35.168 119.247 35.332 119.223 35.476C119.199 35.62 119.187 35.732 119.187 35.812C119.187 35.972 119.243 36.072 119.355 36.112C119.475 36.152 119.695 36.172 120.015 36.172L119.835 37C119.779 37.016 119.691 37.028 119.571 37.036C119.459 37.044 119.331 37.052 119.187 37.06C119.051 37.076 118.907 37.084 118.755 37.084C118.611 37.092 118.483 37.096 118.371 37.096C118.171 37.096 117.975 37.08 117.783 37.048C117.591 37.024 117.419 36.972 117.267 36.892C117.115 36.804 116.991 36.68 116.895 36.52C116.807 36.36 116.763 36.144 116.763 35.872C116.763 35.776 116.767 35.656 116.775 35.512C116.791 35.368 116.819 35.208 116.859 35.032L117.363 32.644H116.427L116.595 31.84ZM123.903 32.284C124.311 32.084 124.727 31.94 125.151 31.852C125.583 31.756 126.063 31.708 126.591 31.708C127.103 31.708 127.527 31.748 127.863 31.828C128.199 31.908 128.467 32.024 128.667 32.176C128.867 32.328 129.007 32.508 129.087 32.716C129.167 32.924 129.207 33.16 129.207 33.424C129.207 33.576 129.195 33.74 129.171 33.916C129.155 34.092 129.135 34.24 129.111 34.36L128.547 37H126.615L126.399 36.232H126.327C126.071 36.512 125.771 36.728 125.427 36.88C125.091 37.024 124.755 37.096 124.419 37.096C124.227 37.096 124.039 37.068 123.855 37.012C123.671 36.956 123.507 36.872 123.363 36.76C123.219 36.64 123.103 36.492 123.015 36.316C122.927 36.132 122.883 35.912 122.883 35.656C122.883 35.24 122.995 34.912 123.219 34.672C123.451 34.424 123.751 34.24 124.119 34.12C124.495 33.992 124.915 33.912 125.379 33.88C125.851 33.848 126.323 33.832 126.795 33.832C126.811 33.752 126.831 33.64 126.855 33.496C126.879 33.344 126.891 33.212 126.891 33.1C126.891 32.956 126.851 32.824 126.771 32.704C126.699 32.576 126.543 32.512 126.303 32.512C126.023 32.512 125.815 32.596 125.679 32.764C125.551 32.924 125.467 33.12 125.427 33.352H123.675L123.903 32.284ZM126.663 34.396H126.447C126.215 34.396 126.015 34.428 125.847 34.492C125.687 34.548 125.555 34.624 125.451 34.72C125.355 34.816 125.283 34.924 125.235 35.044C125.187 35.164 125.163 35.284 125.163 35.404C125.163 35.596 125.211 35.74 125.307 35.836C125.411 35.932 125.531 35.98 125.667 35.98C125.835 35.98 125.999 35.92 126.159 35.8C126.327 35.68 126.431 35.52 126.471 35.32L126.663 34.396ZM132.876 32.608C133.044 32.448 133.232 32.3 133.44 32.164C133.624 32.052 133.844 31.948 134.1 31.852C134.356 31.756 134.644 31.708 134.964 31.708C135.348 31.708 135.632 31.796 135.816 31.972C136.008 32.148 136.116 32.364 136.14 32.62H136.212C136.396 32.452 136.596 32.3 136.812 32.164C136.996 32.052 137.212 31.948 137.46 31.852C137.708 31.756 137.972 31.708 138.252 31.708C138.668 31.708 139.004 31.824 139.26 32.056C139.524 32.28 139.656 32.572 139.656 32.932C139.656 33.116 139.624 33.36 139.56 33.664C139.496 33.968 139.424 34.3 139.344 34.66L138.84 37H136.476L137.124 33.868C137.148 33.748 137.172 33.632 137.196 33.52C137.22 33.408 137.232 33.316 137.232 33.244C137.232 33.132 137.2 33.04 137.136 32.968C137.072 32.888 136.98 32.848 136.86 32.848C136.708 32.848 136.564 32.904 136.428 33.016C136.3 33.12 136.2 33.208 136.128 33.28L135.348 37H133.104L133.764 33.868C133.78 33.764 133.8 33.66 133.824 33.556C133.848 33.444 133.86 33.344 133.86 33.256C133.86 33.136 133.828 33.04 133.764 32.968C133.708 32.888 133.62 32.848 133.5 32.848C133.356 32.848 133.216 32.9 133.08 33.004C132.952 33.108 132.852 33.196 132.78 33.268L131.988 37H129.54L130.632 31.84H132.588L132.804 32.608H132.876ZM142.612 34.588C142.58 34.764 142.556 34.932 142.54 35.092C142.532 35.252 142.528 35.396 142.528 35.524C142.528 35.596 142.532 35.676 142.54 35.764C142.548 35.852 142.564 35.936 142.588 36.016C142.62 36.088 142.66 36.152 142.708 36.208C142.764 36.256 142.84 36.28 142.936 36.28C143.008 36.28 143.088 36.256 143.176 36.208C143.272 36.16 143.364 36.092 143.452 36.004C143.548 35.916 143.636 35.808 143.716 35.68C143.804 35.552 143.872 35.408 143.92 35.248H145.888L145.576 36.532C145.416 36.636 145.232 36.724 145.024 36.796C144.816 36.868 144.596 36.928 144.364 36.976C144.132 37.016 143.896 37.044 143.656 37.06C143.416 37.084 143.188 37.096 142.972 37.096C142.572 37.096 142.2 37.06 141.856 36.988C141.512 36.916 141.212 36.792 140.956 36.616C140.7 36.44 140.496 36.208 140.344 35.92C140.2 35.624 140.128 35.26 140.128 34.828C140.128 34.436 140.188 34.052 140.308 33.676C140.436 33.3 140.644 32.968 140.932 32.68C141.228 32.384 141.62 32.148 142.108 31.972C142.604 31.796 143.22 31.708 143.956 31.708C144.756 31.708 145.356 31.832 145.756 32.08C146.164 32.328 146.368 32.716 146.368 33.244C146.368 33.46 146.336 33.696 146.272 33.952C146.208 34.2 146.112 34.412 145.984 34.588H142.612ZM144.208 33.16C144.208 32.912 144.168 32.744 144.088 32.656C144.008 32.568 143.912 32.524 143.8 32.524C143.672 32.524 143.552 32.568 143.44 32.656C143.336 32.736 143.24 32.848 143.152 32.992C143.064 33.128 142.984 33.288 142.912 33.472C142.84 33.648 142.78 33.836 142.732 34.036H144.1C144.116 33.94 144.132 33.84 144.148 33.736C144.164 33.648 144.176 33.552 144.184 33.448C144.2 33.344 144.208 33.248 144.208 33.16ZM147.052 31.84C147.348 31.776 147.608 31.704 147.832 31.624C148.056 31.544 148.26 31.444 148.444 31.324C148.636 31.204 148.816 31.056 148.984 30.88C149.16 30.704 149.348 30.488 149.548 30.232H150.784L150.436 31.84H151.372L151.216 32.644H150.268L149.776 34.984C149.736 35.168 149.704 35.332 149.68 35.476C149.656 35.62 149.644 35.732 149.644 35.812C149.644 35.972 149.7 36.072 149.812 36.112C149.932 36.152 150.152 36.172 150.472 36.172L150.292 37C150.236 37.016 150.148 37.028 150.028 37.036C149.916 37.044 149.788 37.052 149.644 37.06C149.508 37.076 149.364 37.084 149.212 37.084C149.068 37.092 148.94 37.096 148.828 37.096C148.628 37.096 148.432 37.08 148.24 37.048C148.048 37.024 147.876 36.972 147.724 36.892C147.572 36.804 147.448 36.68 147.352 36.52C147.264 36.36 147.22 36.144 147.22 35.872C147.22 35.776 147.224 35.656 147.232 35.512C147.248 35.368 147.276 35.208 147.316 35.032L147.82 32.644H146.884L147.052 31.84ZM153.611 35.98C153.611 36.284 153.539 36.576 153.395 36.856C153.251 37.136 153.067 37.392 152.843 37.624C152.627 37.864 152.379 38.072 152.099 38.248C151.827 38.432 151.559 38.576 151.295 38.68L150.959 38.176C151.247 37.952 151.463 37.752 151.607 37.576C151.759 37.4 151.835 37.224 151.835 37.048C151.835 36.768 151.611 36.464 151.163 36.136C151.163 35.944 151.199 35.772 151.271 35.62C151.343 35.468 151.439 35.34 151.559 35.236C151.687 35.132 151.831 35.052 151.991 34.996C152.151 34.94 152.315 34.912 152.483 34.912C152.803 34.912 153.071 35 153.287 35.176C153.503 35.352 153.611 35.62 153.611 35.98ZM162.129 36.712C161.793 36.848 161.437 36.944 161.061 37C160.693 37.064 160.273 37.096 159.801 37.096C159.385 37.096 159.001 37.056 158.649 36.976C158.305 36.888 158.005 36.752 157.749 36.568C157.493 36.384 157.293 36.148 157.149 35.86C157.005 35.564 156.933 35.208 156.933 34.792C156.933 34.36 157.005 33.96 157.149 33.592C157.301 33.216 157.525 32.888 157.821 32.608C158.125 32.328 158.509 32.108 158.973 31.948C159.437 31.788 159.989 31.708 160.629 31.708C161.149 31.708 161.601 31.752 161.985 31.84C162.369 31.92 162.685 32.108 162.933 32.404L162.597 33.94H160.965C160.973 33.804 160.981 33.684 160.989 33.58C160.997 33.476 161.001 33.36 161.001 33.232C161.001 32.976 160.973 32.796 160.917 32.692C160.861 32.58 160.769 32.524 160.641 32.524C160.417 32.524 160.221 32.636 160.053 32.86C159.885 33.076 159.745 33.34 159.633 33.652C159.529 33.956 159.449 34.28 159.393 34.624C159.345 34.96 159.321 35.248 159.321 35.488C159.321 35.576 159.325 35.668 159.333 35.764C159.341 35.852 159.357 35.936 159.381 36.016C159.413 36.096 159.453 36.16 159.501 36.208C159.549 36.256 159.617 36.28 159.705 36.28C159.785 36.28 159.877 36.256 159.981 36.208C160.085 36.16 160.185 36.088 160.281 35.992C160.377 35.888 160.469 35.756 160.557 35.596C160.645 35.436 160.713 35.244 160.761 35.02H162.477L162.129 36.712ZM166.839 31.708C167.791 31.708 168.483 31.876 168.915 32.212C169.371 32.564 169.599 33.148 169.599 33.964C169.599 34.468 169.515 34.924 169.347 35.332C169.179 35.732 168.943 36.064 168.639 36.328C168.031 36.84 167.151 37.096 165.999 37.096C165.015 37.096 164.311 36.908 163.887 36.532C163.431 36.14 163.203 35.552 163.203 34.768C163.203 34.248 163.307 33.776 163.515 33.352C163.731 32.928 164.039 32.576 164.439 32.296C165.023 31.904 165.823 31.708 166.839 31.708ZM166.023 36.28C166.223 36.28 166.395 36.168 166.539 35.944C166.691 35.72 166.811 35.448 166.899 35.128C166.987 34.8 167.051 34.464 167.091 34.12C167.139 33.768 167.163 33.464 167.163 33.208C167.163 32.984 167.139 32.816 167.091 32.704C167.051 32.584 166.959 32.524 166.815 32.524C166.599 32.524 166.411 32.64 166.251 32.872C166.099 33.104 165.975 33.38 165.879 33.7C165.783 34.02 165.711 34.348 165.663 34.684C165.623 35.02 165.603 35.292 165.603 35.5C165.603 36.02 165.743 36.28 166.023 36.28ZM173.177 32.608C173.345 32.448 173.533 32.3 173.741 32.164C173.925 32.052 174.141 31.948 174.389 31.852C174.637 31.756 174.913 31.708 175.217 31.708C175.633 31.708 175.977 31.816 176.249 32.032C176.521 32.24 176.657 32.528 176.657 32.896C176.657 33 176.645 33.128 176.621 33.28C176.597 33.424 176.569 33.576 176.537 33.736C176.505 33.896 176.469 34.06 176.429 34.228C176.397 34.388 176.369 34.532 176.345 34.66L175.841 37H173.405L174.065 33.868C174.081 33.764 174.101 33.66 174.125 33.556C174.149 33.444 174.161 33.344 174.161 33.256C174.161 33.136 174.129 33.04 174.065 32.968C174.009 32.888 173.921 32.848 173.801 32.848C173.657 32.848 173.517 32.9 173.381 33.004C173.253 33.108 173.153 33.196 173.081 33.268L172.289 37H169.841L170.933 31.84H172.889L173.105 32.608H173.177ZM180.676 33.352C180.684 33.312 180.692 33.272 180.7 33.232C180.708 33.192 180.712 33.148 180.712 33.1C180.712 32.956 180.684 32.824 180.628 32.704C180.58 32.576 180.48 32.512 180.328 32.512C180.192 32.512 180.056 32.572 179.92 32.692C179.784 32.804 179.716 32.956 179.716 33.148C179.716 33.276 179.748 33.38 179.812 33.46C179.884 33.532 179.976 33.592 180.088 33.64C180.2 33.688 180.324 33.728 180.46 33.76C180.604 33.792 180.744 33.824 180.88 33.856C181.072 33.904 181.252 33.964 181.42 34.036C181.596 34.1 181.752 34.188 181.888 34.3C182.024 34.412 182.132 34.552 182.212 34.72C182.292 34.88 182.332 35.08 182.332 35.32C182.332 35.656 182.252 35.94 182.092 36.172C181.94 36.396 181.724 36.58 181.444 36.724C181.172 36.86 180.848 36.956 180.472 37.012C180.104 37.068 179.708 37.096 179.284 37.096C178.636 37.096 178.1 37.048 177.676 36.952C177.252 36.856 176.956 36.764 176.788 36.676L177.04 35.476H178.66C178.652 35.516 178.648 35.556 178.648 35.596C178.648 35.628 178.648 35.664 178.648 35.704C178.648 35.888 178.688 36.036 178.768 36.148C178.856 36.252 179.004 36.304 179.212 36.304C179.444 36.304 179.608 36.24 179.704 36.112C179.808 35.976 179.86 35.852 179.86 35.74C179.86 35.628 179.816 35.532 179.728 35.452C179.648 35.364 179.544 35.292 179.416 35.236C179.288 35.172 179.144 35.12 178.984 35.08C178.832 35.032 178.684 34.988 178.54 34.948C178.436 34.924 178.316 34.884 178.18 34.828C178.052 34.772 177.928 34.692 177.808 34.588C177.688 34.484 177.588 34.352 177.508 34.192C177.428 34.024 177.388 33.816 177.388 33.568C177.388 33.216 177.472 32.924 177.64 32.692C177.816 32.452 178.04 32.26 178.312 32.116C178.592 31.972 178.904 31.868 179.248 31.804C179.6 31.74 179.952 31.708 180.304 31.708C180.744 31.708 181.16 31.748 181.552 31.828C181.944 31.908 182.264 32.012 182.512 32.14L182.236 33.352H180.676ZM185.409 34.588C185.377 34.764 185.353 34.932 185.337 35.092C185.329 35.252 185.325 35.396 185.325 35.524C185.325 35.596 185.329 35.676 185.337 35.764C185.345 35.852 185.361 35.936 185.385 36.016C185.417 36.088 185.457 36.152 185.505 36.208C185.561 36.256 185.637 36.28 185.733 36.28C185.805 36.28 185.885 36.256 185.973 36.208C186.069 36.16 186.161 36.092 186.249 36.004C186.345 35.916 186.433 35.808 186.513 35.68C186.601 35.552 186.669 35.408 186.717 35.248H188.685L188.373 36.532C188.213 36.636 188.029 36.724 187.821 36.796C187.613 36.868 187.393 36.928 187.161 36.976C186.929 37.016 186.693 37.044 186.453 37.06C186.213 37.084 185.985 37.096 185.769 37.096C185.369 37.096 184.997 37.06 184.653 36.988C184.309 36.916 184.009 36.792 183.753 36.616C183.497 36.44 183.293 36.208 183.141 35.92C182.997 35.624 182.925 35.26 182.925 34.828C182.925 34.436 182.985 34.052 183.105 33.676C183.233 33.3 183.441 32.968 183.729 32.68C184.025 32.384 184.417 32.148 184.905 31.972C185.401 31.796 186.017 31.708 186.753 31.708C187.553 31.708 188.153 31.832 188.553 32.08C188.961 32.328 189.165 32.716 189.165 33.244C189.165 33.46 189.133 33.696 189.069 33.952C189.005 34.2 188.909 34.412 188.781 34.588H185.409ZM187.005 33.16C187.005 32.912 186.965 32.744 186.885 32.656C186.805 32.568 186.709 32.524 186.597 32.524C186.469 32.524 186.349 32.568 186.237 32.656C186.133 32.736 186.037 32.848 185.949 32.992C185.861 33.128 185.781 33.288 185.709 33.472C185.637 33.648 185.577 33.836 185.529 34.036H186.897C186.913 33.94 186.929 33.84 186.945 33.736C186.961 33.648 186.973 33.552 186.981 33.448C186.997 33.344 187.005 33.248 187.005 33.16ZM194.683 36.712C194.347 36.848 193.991 36.944 193.615 37C193.247 37.064 192.827 37.096 192.355 37.096C191.939 37.096 191.555 37.056 191.203 36.976C190.859 36.888 190.559 36.752 190.303 36.568C190.047 36.384 189.847 36.148 189.703 35.86C189.559 35.564 189.487 35.208 189.487 34.792C189.487 34.36 189.559 33.96 189.703 33.592C189.855 33.216 190.079 32.888 190.375 32.608C190.679 32.328 191.063 32.108 191.527 31.948C191.991 31.788 192.543 31.708 193.183 31.708C193.703 31.708 194.155 31.752 194.539 31.84C194.923 31.92 195.239 32.108 195.487 32.404L195.151 33.94H193.519C193.527 33.804 193.535 33.684 193.543 33.58C193.551 33.476 193.555 33.36 193.555 33.232C193.555 32.976 193.527 32.796 193.471 32.692C193.415 32.58 193.323 32.524 193.195 32.524C192.971 32.524 192.775 32.636 192.607 32.86C192.439 33.076 192.299 33.34 192.187 33.652C192.083 33.956 192.003 34.28 191.947 34.624C191.899 34.96 191.875 35.248 191.875 35.488C191.875 35.576 191.879 35.668 191.887 35.764C191.895 35.852 191.911 35.936 191.935 36.016C191.967 36.096 192.007 36.16 192.055 36.208C192.103 36.256 192.171 36.28 192.259 36.28C192.339 36.28 192.431 36.256 192.535 36.208C192.639 36.16 192.739 36.088 192.835 35.992C192.931 35.888 193.023 35.756 193.111 35.596C193.199 35.436 193.267 35.244 193.315 35.02H195.031L194.683 36.712ZM196.118 31.84C196.414 31.776 196.674 31.704 196.898 31.624C197.122 31.544 197.326 31.444 197.51 31.324C197.702 31.204 197.882 31.056 198.05 30.88C198.226 30.704 198.414 30.488 198.614 30.232H199.85L199.502 31.84H200.438L200.282 32.644H199.334L198.842 34.984C198.802 35.168 198.77 35.332 198.746 35.476C198.722 35.62 198.71 35.732 198.71 35.812C198.71 35.972 198.766 36.072 198.878 36.112C198.998 36.152 199.218 36.172 199.538 36.172L199.358 37C199.302 37.016 199.214 37.028 199.094 37.036C198.982 37.044 198.854 37.052 198.71 37.06C198.574 37.076 198.43 37.084 198.278 37.084C198.134 37.092 198.006 37.096 197.894 37.096C197.694 37.096 197.498 37.08 197.306 37.048C197.114 37.024 196.942 36.972 196.79 36.892C196.638 36.804 196.514 36.68 196.418 36.52C196.33 36.36 196.286 36.144 196.286 35.872C196.286 35.776 196.29 35.656 196.298 35.512C196.314 35.368 196.342 35.208 196.382 35.032L196.886 32.644H195.95L196.118 31.84ZM202.776 34.588C202.744 34.764 202.72 34.932 202.704 35.092C202.696 35.252 202.692 35.396 202.692 35.524C202.692 35.596 202.696 35.676 202.704 35.764C202.712 35.852 202.728 35.936 202.752 36.016C202.784 36.088 202.824 36.152 202.872 36.208C202.928 36.256 203.004 36.28 203.1 36.28C203.172 36.28 203.252 36.256 203.34 36.208C203.436 36.16 203.528 36.092 203.616 36.004C203.712 35.916 203.8 35.808 203.88 35.68C203.968 35.552 204.036 35.408 204.084 35.248H206.052L205.74 36.532C205.58 36.636 205.396 36.724 205.188 36.796C204.98 36.868 204.76 36.928 204.528 36.976C204.296 37.016 204.06 37.044 203.82 37.06C203.58 37.084 203.352 37.096 203.136 37.096C202.736 37.096 202.364 37.06 202.02 36.988C201.676 36.916 201.376 36.792 201.12 36.616C200.864 36.44 200.66 36.208 200.508 35.92C200.364 35.624 200.292 35.26 200.292 34.828C200.292 34.436 200.352 34.052 200.472 33.676C200.6 33.3 200.808 32.968 201.096 32.68C201.392 32.384 201.784 32.148 202.272 31.972C202.768 31.796 203.384 31.708 204.12 31.708C204.92 31.708 205.52 31.832 205.92 32.08C206.328 32.328 206.532 32.716 206.532 33.244C206.532 33.46 206.5 33.696 206.436 33.952C206.372 34.2 206.276 34.412 206.148 34.588H202.776ZM204.372 33.16C204.372 32.912 204.332 32.744 204.252 32.656C204.172 32.568 204.076 32.524 203.964 32.524C203.836 32.524 203.716 32.568 203.604 32.656C203.5 32.736 203.404 32.848 203.316 32.992C203.228 33.128 203.148 33.288 203.076 33.472C203.004 33.648 202.944 33.836 202.896 34.036H204.264C204.28 33.94 204.296 33.84 204.312 33.736C204.328 33.648 204.34 33.552 204.348 33.448C204.364 33.344 204.372 33.248 204.372 33.16ZM207.216 31.84C207.512 31.776 207.772 31.704 207.996 31.624C208.22 31.544 208.424 31.444 208.608 31.324C208.8 31.204 208.98 31.056 209.148 30.88C209.324 30.704 209.512 30.488 209.712 30.232H210.948L210.6 31.84H211.536L211.38 32.644H210.432L209.94 34.984C209.9 35.168 209.868 35.332 209.844 35.476C209.82 35.62 209.808 35.732 209.808 35.812C209.808 35.972 209.864 36.072 209.976 36.112C210.096 36.152 210.316 36.172 210.636 36.172L210.456 37C210.4 37.016 210.312 37.028 210.192 37.036C210.08 37.044 209.952 37.052 209.808 37.06C209.672 37.076 209.528 37.084 209.376 37.084C209.232 37.092 209.104 37.096 208.992 37.096C208.792 37.096 208.596 37.08 208.404 37.048C208.212 37.024 208.04 36.972 207.888 36.892C207.736 36.804 207.612 36.68 207.516 36.52C207.428 36.36 207.384 36.144 207.384 35.872C207.384 35.776 207.388 35.656 207.396 35.512C207.412 35.368 207.44 35.208 207.48 35.032L207.984 32.644H207.048L207.216 31.84ZM215.839 31.84H218.287L217.183 37H215.239L215.023 36.232H214.951C214.743 36.48 214.459 36.688 214.099 36.856C213.747 37.016 213.391 37.096 213.031 37.096C212.551 37.096 212.175 36.976 211.903 36.736C211.631 36.488 211.495 36.168 211.495 35.776C211.495 35.576 211.527 35.328 211.591 35.032C211.663 34.728 211.727 34.444 211.783 34.18L212.287 31.84H214.723L214.123 34.648C214.107 34.712 214.091 34.788 214.075 34.876C214.059 34.964 214.043 35.052 214.027 35.14C214.011 35.22 213.995 35.3 213.979 35.38C213.971 35.452 213.967 35.512 213.967 35.56C213.967 35.68 213.991 35.784 214.039 35.872C214.095 35.952 214.191 35.992 214.327 35.992C214.471 35.992 214.607 35.944 214.735 35.848C214.863 35.752 214.963 35.66 215.035 35.572L215.839 31.84ZM219.355 31.84H221.311L221.491 32.74H221.575C221.759 32.452 221.995 32.208 222.283 32.008C222.571 31.808 222.951 31.708 223.423 31.708C223.455 31.708 223.503 31.712 223.567 31.72C223.639 31.72 223.715 31.732 223.795 31.756C223.883 31.772 223.971 31.8 224.059 31.84C224.155 31.872 224.247 31.92 224.335 31.984L223.807 34.456H222.499C222.483 33.96 222.439 33.616 222.367 33.424C222.295 33.224 222.179 33.124 222.019 33.124C221.939 33.124 221.851 33.144 221.755 33.184C221.667 33.216 221.575 33.292 221.479 33.412L220.711 37H218.263L219.355 31.84ZM1.864 47.284C2.272 47.084 2.688 46.94 3.112 46.852C3.544 46.756 4.024 46.708 4.552 46.708C5.064 46.708 5.488 46.748 5.824 46.828C6.16 46.908 6.428 47.024 6.628 47.176C6.828 47.328 6.968 47.508 7.048 47.716C7.128 47.924 7.168 48.16 7.168 48.424C7.168 48.576 7.156 48.74 7.132 48.916C7.116 49.092 7.096 49.24 7.072 49.36L6.508 52H4.576L4.36 51.232H4.288C4.032 51.512 3.732 51.728 3.388 51.88C3.052 52.024 2.716 52.096 2.38 52.096C2.188 52.096 2 52.068 1.816 52.012C1.632 51.956 1.468 51.872 1.324 51.76C1.18 51.64 1.064 51.492 0.976 51.316C0.888 51.132 0.844 50.912 0.844 50.656C0.844 50.24 0.956 49.912 1.18 49.672C1.412 49.424 1.712 49.24 2.08 49.12C2.456 48.992 2.876 48.912 3.34 48.88C3.812 48.848 4.284 48.832 4.756 48.832C4.772 48.752 4.792 48.64 4.816 48.496C4.84 48.344 4.852 48.212 4.852 48.1C4.852 47.956 4.812 47.824 4.732 47.704C4.66 47.576 4.504 47.512 4.264 47.512C3.984 47.512 3.776 47.596 3.64 47.764C3.512 47.924 3.428 48.12 3.388 48.352H1.636L1.864 47.284ZM4.624 49.396H4.408C4.176 49.396 3.976 49.428 3.808 49.492C3.648 49.548 3.516 49.624 3.412 49.72C3.316 49.816 3.244 49.924 3.196 50.044C3.148 50.164 3.124 50.284 3.124 50.404C3.124 50.596 3.172 50.74 3.268 50.836C3.372 50.932 3.492 50.98 3.628 50.98C3.796 50.98 3.96 50.92 4.12 50.8C4.288 50.68 4.392 50.52 4.432 50.32L4.624 49.396ZM12.6131 43.936H15.0731L13.3571 52H11.4131L11.1971 51.232H11.1131C11.0651 51.304 10.9891 51.392 10.8851 51.496C10.7891 51.592 10.6651 51.688 10.5131 51.784C10.3611 51.872 10.1811 51.944 9.97309 52C9.76509 52.064 9.52509 52.096 9.25309 52.096C8.97309 52.096 8.73309 52.056 8.53309 51.976C8.34109 51.888 8.18109 51.772 8.05309 51.628C7.93309 51.484 7.84509 51.312 7.78909 51.112C7.73309 50.904 7.70509 50.68 7.70509 50.44C7.70509 50.336 7.71309 50.172 7.72909 49.948C7.74509 49.716 7.78109 49.464 7.83709 49.192C7.90109 48.912 7.98909 48.628 8.10109 48.34C8.22109 48.044 8.37709 47.776 8.56909 47.536C8.76909 47.296 9.01309 47.1 9.30109 46.948C9.58909 46.788 9.93709 46.708 10.3451 46.708C10.4731 46.708 10.6091 46.72 10.7531 46.744C10.8971 46.768 11.0331 46.812 11.1611 46.876C11.2971 46.94 11.4171 47.032 11.5211 47.152C11.6251 47.272 11.7011 47.428 11.7491 47.62H11.8331L12.6131 43.936ZM11.1491 47.884C10.9571 47.884 10.7971 47.992 10.6691 48.208C10.5411 48.416 10.4371 48.66 10.3571 48.94C10.2771 49.22 10.2171 49.5 10.1771 49.78C10.1451 50.06 10.1291 50.268 10.1291 50.404C10.1291 50.564 10.1531 50.7 10.2011 50.812C10.2491 50.916 10.3411 50.968 10.4771 50.968C10.5571 50.968 10.6331 50.952 10.7051 50.92C10.7851 50.88 10.8571 50.836 10.9211 50.788C10.9931 50.732 11.0531 50.676 11.1011 50.62C11.1491 50.564 11.1891 50.516 11.2211 50.476L11.6891 48.292C11.6331 48.204 11.5571 48.116 11.4611 48.028C11.3731 47.932 11.2691 47.884 11.1491 47.884ZM16.8629 52H14.4269L15.5189 46.84H17.9789L16.8629 52ZM18.2909 45.268C18.2909 45.452 18.2509 45.612 18.1709 45.748C18.0989 45.884 17.9989 46 17.8709 46.096C17.7509 46.192 17.6109 46.264 17.4509 46.312C17.2909 46.36 17.1269 46.384 16.9589 46.384C16.6389 46.384 16.3709 46.308 16.1549 46.156C15.9389 46.004 15.8309 45.764 15.8309 45.436C15.8309 45.26 15.8669 45.104 15.9389 44.968C16.0109 44.824 16.1069 44.708 16.2269 44.62C16.3549 44.524 16.4989 44.452 16.6589 44.404C16.8269 44.356 16.9989 44.332 17.1749 44.332C17.4869 44.332 17.7509 44.408 17.9669 44.56C18.1829 44.712 18.2909 44.948 18.2909 45.268ZM19.9585 54.016H17.5105L19.0225 46.84H20.9785L21.1945 47.608H21.2665C21.5545 47.304 21.8745 47.088 22.2265 46.96C22.5865 46.824 22.9385 46.756 23.2825 46.756C23.5625 46.756 23.7945 46.8 23.9785 46.888C24.1705 46.968 24.3225 47.08 24.4345 47.224C24.5465 47.368 24.6265 47.54 24.6745 47.74C24.7225 47.94 24.7465 48.152 24.7465 48.376C24.7465 48.488 24.7385 48.656 24.7225 48.88C24.7065 49.104 24.6705 49.356 24.6145 49.636C24.5585 49.908 24.4785 50.192 24.3745 50.488C24.2705 50.776 24.1305 51.04 23.9545 51.28C23.7865 51.52 23.5705 51.716 23.3065 51.868C23.0505 52.02 22.7425 52.096 22.3825 52.096C22.1825 52.096 21.9865 52.072 21.7945 52.024C21.6105 51.976 21.4425 51.912 21.2905 51.832C21.1385 51.752 21.0025 51.66 20.8825 51.556C20.7705 51.444 20.6865 51.332 20.6305 51.22H20.5585L19.9585 54.016ZM21.2305 50.932C21.4225 50.932 21.5825 50.832 21.7105 50.632C21.8385 50.424 21.9425 50.184 22.0225 49.912C22.1025 49.632 22.1585 49.356 22.1905 49.084C22.2305 48.804 22.2505 48.596 22.2505 48.46C22.2505 48.3 22.2225 48.168 22.1665 48.064C22.1185 47.96 22.0265 47.908 21.8905 47.908C21.7385 47.908 21.5945 47.964 21.4585 48.076C21.3225 48.18 21.2225 48.272 21.1585 48.352L20.6905 50.548C20.7545 50.636 20.8305 50.724 20.9185 50.812C21.0065 50.892 21.1105 50.932 21.2305 50.932ZM27.3863 52H24.9503L26.0423 46.84H28.5023L27.3863 52ZM28.8143 45.268C28.8143 45.452 28.7743 45.612 28.6943 45.748C28.6223 45.884 28.5223 46 28.3943 46.096C28.2743 46.192 28.1343 46.264 27.9743 46.312C27.8143 46.36 27.6503 46.384 27.4823 46.384C27.1623 46.384 26.8943 46.308 26.6783 46.156C26.4623 46.004 26.3543 45.764 26.3543 45.436C26.3543 45.26 26.3903 45.104 26.4623 44.968C26.5343 44.824 26.6303 44.708 26.7503 44.62C26.8783 44.524 27.0223 44.452 27.1823 44.404C27.3503 44.356 27.5223 44.332 27.6983 44.332C28.0103 44.332 28.2743 44.408 28.4903 44.56C28.7063 44.712 28.8143 44.948 28.8143 45.268ZM32.2699 48.352C32.2779 48.312 32.2859 48.272 32.2939 48.232C32.3019 48.192 32.3059 48.148 32.3059 48.1C32.3059 47.956 32.2779 47.824 32.2219 47.704C32.1739 47.576 32.0739 47.512 31.9219 47.512C31.7859 47.512 31.6499 47.572 31.5139 47.692C31.3779 47.804 31.3099 47.956 31.3099 48.148C31.3099 48.276 31.3419 48.38 31.4059 48.46C31.4779 48.532 31.5699 48.592 31.6819 48.64C31.7939 48.688 31.9179 48.728 32.0539 48.76C32.1979 48.792 32.3379 48.824 32.4739 48.856C32.6659 48.904 32.8459 48.964 33.0139 49.036C33.1899 49.1 33.3459 49.188 33.4819 49.3C33.6179 49.412 33.7259 49.552 33.8059 49.72C33.8859 49.88 33.9259 50.08 33.9259 50.32C33.9259 50.656 33.8459 50.94 33.6859 51.172C33.5339 51.396 33.3179 51.58 33.0379 51.724C32.7659 51.86 32.4419 51.956 32.0659 52.012C31.6979 52.068 31.3019 52.096 30.8779 52.096C30.2299 52.096 29.6939 52.048 29.2699 51.952C28.8459 51.856 28.5499 51.764 28.3819 51.676L28.6339 50.476H30.2539C30.2459 50.516 30.2419 50.556 30.2419 50.596C30.2419 50.628 30.2419 50.664 30.2419 50.704C30.2419 50.888 30.2819 51.036 30.3619 51.148C30.4499 51.252 30.5979 51.304 30.8059 51.304C31.0379 51.304 31.2019 51.24 31.2979 51.112C31.4019 50.976 31.4539 50.852 31.4539 50.74C31.4539 50.628 31.4099 50.532 31.3219 50.452C31.2419 50.364 31.1379 50.292 31.0099 50.236C30.8819 50.172 30.7379 50.12 30.5779 50.08C30.4259 50.032 30.2779 49.988 30.1339 49.948C30.0299 49.924 29.9099 49.884 29.7739 49.828C29.6459 49.772 29.5219 49.692 29.4019 49.588C29.2819 49.484 29.1819 49.352 29.1019 49.192C29.0219 49.024 28.9819 48.816 28.9819 48.568C28.9819 48.216 29.0659 47.924 29.2339 47.692C29.4099 47.452 29.6339 47.26 29.9059 47.116C30.1859 46.972 30.4979 46.868 30.8419 46.804C31.1939 46.74 31.5459 46.708 31.8979 46.708C32.3379 46.708 32.7539 46.748 33.1459 46.828C33.5379 46.908 33.8579 47.012 34.1059 47.14L33.8299 48.352H32.2699ZM39.7147 51.712C39.3787 51.848 39.0227 51.944 38.6467 52C38.2787 52.064 37.8587 52.096 37.3867 52.096C36.9707 52.096 36.5867 52.056 36.2347 51.976C35.8907 51.888 35.5907 51.752 35.3347 51.568C35.0787 51.384 34.8787 51.148 34.7347 50.86C34.5907 50.564 34.5187 50.208 34.5187 49.792C34.5187 49.36 34.5907 48.96 34.7347 48.592C34.8867 48.216 35.1107 47.888 35.4067 47.608C35.7107 47.328 36.0947 47.108 36.5587 46.948C37.0227 46.788 37.5747 46.708 38.2147 46.708C38.7347 46.708 39.1867 46.752 39.5707 46.84C39.9547 46.92 40.2707 47.108 40.5187 47.404L40.1827 48.94H38.5507C38.5587 48.804 38.5667 48.684 38.5747 48.58C38.5827 48.476 38.5867 48.36 38.5867 48.232C38.5867 47.976 38.5587 47.796 38.5027 47.692C38.4467 47.58 38.3547 47.524 38.2267 47.524C38.0027 47.524 37.8067 47.636 37.6387 47.86C37.4707 48.076 37.3307 48.34 37.2187 48.652C37.1147 48.956 37.0347 49.28 36.9787 49.624C36.9307 49.96 36.9067 50.248 36.9067 50.488C36.9067 50.576 36.9107 50.668 36.9187 50.764C36.9267 50.852 36.9427 50.936 36.9667 51.016C36.9987 51.096 37.0387 51.16 37.0867 51.208C37.1347 51.256 37.2027 51.28 37.2907 51.28C37.3707 51.28 37.4627 51.256 37.5667 51.208C37.6707 51.16 37.7707 51.088 37.8667 50.992C37.9627 50.888 38.0547 50.756 38.1427 50.596C38.2307 50.436 38.2987 50.244 38.3467 50.02H40.0627L39.7147 51.712ZM42.9605 52H40.5245L41.6165 46.84H44.0765L42.9605 52ZM44.3885 45.268C44.3885 45.452 44.3485 45.612 44.2685 45.748C44.1965 45.884 44.0965 46 43.9685 46.096C43.8485 46.192 43.7085 46.264 43.5485 46.312C43.3885 46.36 43.2245 46.384 43.0565 46.384C42.7365 46.384 42.4685 46.308 42.2525 46.156C42.0365 46.004 41.9285 45.764 41.9285 45.436C41.9285 45.26 41.9645 45.104 42.0365 44.968C42.1085 44.824 42.2045 44.708 42.3245 44.62C42.4525 44.524 42.5965 44.452 42.7565 44.404C42.9245 44.356 43.0965 44.332 43.2725 44.332C43.5845 44.332 43.8485 44.408 44.0645 44.56C44.2805 44.712 44.3885 44.948 44.3885 45.268ZM47.3762 47.608C47.5442 47.448 47.7322 47.3 47.9402 47.164C48.1242 47.052 48.3402 46.948 48.5882 46.852C48.8362 46.756 49.1122 46.708 49.4162 46.708C49.8322 46.708 50.1762 46.816 50.4482 47.032C50.7202 47.24 50.8562 47.528 50.8562 47.896C50.8562 48 50.8442 48.128 50.8202 48.28C50.7962 48.424 50.7682 48.576 50.7362 48.736C50.7042 48.896 50.6682 49.06 50.6282 49.228C50.5962 49.388 50.5682 49.532 50.5442 49.66L50.0402 52H47.6042L48.2642 48.868C48.2802 48.764 48.3002 48.66 48.3242 48.556C48.3482 48.444 48.3602 48.344 48.3602 48.256C48.3602 48.136 48.3282 48.04 48.2642 47.968C48.2082 47.888 48.1202 47.848 48.0002 47.848C47.8562 47.848 47.7162 47.9 47.5802 48.004C47.4522 48.108 47.3522 48.196 47.2802 48.268L46.4882 52H44.0402L45.1322 46.84H47.0882L47.3042 47.608H47.3762ZM56.0874 46.84H58.0314L57.0474 51.508C56.9754 51.868 56.8554 52.2 56.6874 52.504C56.5194 52.808 56.2834 53.072 55.9794 53.296C55.6834 53.52 55.3074 53.696 54.8514 53.824C54.4034 53.952 53.8554 54.016 53.2074 54.016C53.0874 54.016 52.9434 54.012 52.7754 54.004C52.6074 54.004 52.4354 54 52.2594 53.992C52.0834 53.992 51.9154 53.988 51.7554 53.98C51.5954 53.972 51.4674 53.964 51.3714 53.956L51.5994 53.092C51.8554 53.132 52.1154 53.152 52.3794 53.152C52.6514 53.16 52.8834 53.164 53.0754 53.164C53.3154 53.164 53.5154 53.14 53.6754 53.092C53.8434 53.052 53.9794 52.984 54.0834 52.888C54.1954 52.792 54.2834 52.664 54.3474 52.504C54.4194 52.344 54.4754 52.148 54.5154 51.916L54.6594 51.136H54.5754C54.5274 51.208 54.4554 51.296 54.3594 51.4C54.2714 51.496 54.1554 51.592 54.0114 51.688C53.8674 51.776 53.6954 51.852 53.4954 51.916C53.3034 51.972 53.0834 52 52.8354 52C52.5554 52 52.3154 51.96 52.1154 51.88C51.9234 51.792 51.7674 51.676 51.6474 51.532C51.5274 51.38 51.4394 51.204 51.3834 51.004C51.3274 50.796 51.2994 50.572 51.2994 50.332C51.2994 50.228 51.3074 50.068 51.3234 49.852C51.3394 49.636 51.3754 49.392 51.4314 49.12C51.4954 48.848 51.5834 48.572 51.6954 48.292C51.8154 48.004 51.9714 47.744 52.1634 47.512C52.3634 47.28 52.6074 47.088 52.8954 46.936C53.1914 46.784 53.5474 46.708 53.9634 46.708C54.0914 46.708 54.2314 46.72 54.3834 46.744C54.5354 46.768 54.6834 46.812 54.8274 46.876C54.9714 46.94 55.0994 47.032 55.2114 47.152C55.3234 47.272 55.4114 47.428 55.4754 47.62H55.5474L56.0874 46.84ZM54.7434 47.884C54.5514 47.884 54.3914 47.988 54.2634 48.196C54.1354 48.396 54.0314 48.632 53.9514 48.904C53.8714 49.176 53.8114 49.448 53.7714 49.72C53.7394 49.984 53.7234 50.18 53.7234 50.308C53.7234 50.468 53.7474 50.604 53.7954 50.716C53.8514 50.82 53.9474 50.872 54.0834 50.872C54.1634 50.872 54.2394 50.852 54.3114 50.812C54.3914 50.772 54.4634 50.728 54.5274 50.68C54.5994 50.624 54.6594 50.568 54.7074 50.512C54.7634 50.456 54.8034 50.412 54.8274 50.38L55.2714 48.28C55.2074 48.192 55.1314 48.104 55.0434 48.016C54.9634 47.928 54.8634 47.884 54.7434 47.884ZM63.0418 49.588C63.0098 49.764 62.9858 49.932 62.9698 50.092C62.9618 50.252 62.9578 50.396 62.9578 50.524C62.9578 50.596 62.9618 50.676 62.9698 50.764C62.9778 50.852 62.9938 50.936 63.0178 51.016C63.0498 51.088 63.0898 51.152 63.1378 51.208C63.1938 51.256 63.2698 51.28 63.3658 51.28C63.4378 51.28 63.5178 51.256 63.6058 51.208C63.7018 51.16 63.7938 51.092 63.8818 51.004C63.9778 50.916 64.0658 50.808 64.1458 50.68C64.2338 50.552 64.3018 50.408 64.3498 50.248H66.3178L66.0058 51.532C65.8458 51.636 65.6618 51.724 65.4538 51.796C65.2458 51.868 65.0258 51.928 64.7938 51.976C64.5618 52.016 64.3258 52.044 64.0858 52.06C63.8458 52.084 63.6178 52.096 63.4018 52.096C63.0018 52.096 62.6298 52.06 62.2858 51.988C61.9418 51.916 61.6418 51.792 61.3858 51.616C61.1298 51.44 60.9258 51.208 60.7738 50.92C60.6298 50.624 60.5578 50.26 60.5578 49.828C60.5578 49.436 60.6178 49.052 60.7378 48.676C60.8658 48.3 61.0738 47.968 61.3618 47.68C61.6578 47.384 62.0498 47.148 62.5378 46.972C63.0338 46.796 63.6498 46.708 64.3858 46.708C65.1858 46.708 65.7858 46.832 66.1858 47.08C66.5938 47.328 66.7978 47.716 66.7978 48.244C66.7978 48.46 66.7658 48.696 66.7018 48.952C66.6378 49.2 66.5418 49.412 66.4138 49.588H63.0418ZM64.6378 48.16C64.6378 47.912 64.5978 47.744 64.5178 47.656C64.4378 47.568 64.3418 47.524 64.2298 47.524C64.1018 47.524 63.9818 47.568 63.8698 47.656C63.7658 47.736 63.6698 47.848 63.5818 47.992C63.4938 48.128 63.4138 48.288 63.3418 48.472C63.2698 48.648 63.2098 48.836 63.1618 49.036H64.5298C64.5458 48.94 64.5618 48.84 64.5778 48.736C64.5938 48.648 64.6058 48.552 64.6138 48.448C64.6298 48.344 64.6378 48.248 64.6378 48.16ZM69.3163 52H66.8683L68.5723 43.936H71.0323L69.3163 52ZM72.8199 52H70.3839L71.4759 46.84H73.9359L72.8199 52ZM74.2479 45.268C74.2479 45.452 74.2079 45.612 74.1279 45.748C74.0559 45.884 73.9559 46 73.8279 46.096C73.7079 46.192 73.5679 46.264 73.4079 46.312C73.2479 46.36 73.0839 46.384 72.9159 46.384C72.5959 46.384 72.3279 46.308 72.1119 46.156C71.8959 46.004 71.7879 45.764 71.7879 45.436C71.7879 45.26 71.8239 45.104 71.8959 44.968C71.9679 44.824 72.0639 44.708 72.1839 44.62C72.3119 44.524 72.4559 44.452 72.6159 44.404C72.7839 44.356 72.9559 44.332 73.1319 44.332C73.4439 44.332 73.7079 44.408 73.9239 44.56C74.1399 44.712 74.2479 44.948 74.2479 45.268ZM74.5715 46.84C74.8675 46.776 75.1275 46.704 75.3515 46.624C75.5755 46.544 75.7795 46.444 75.9635 46.324C76.1555 46.204 76.3355 46.056 76.5035 45.88C76.6795 45.704 76.8675 45.488 77.0675 45.232H78.3035L77.9555 46.84H78.8915L78.7355 47.644H77.7875L77.2955 49.984C77.2555 50.168 77.2235 50.332 77.1995 50.476C77.1755 50.62 77.1635 50.732 77.1635 50.812C77.1635 50.972 77.2195 51.072 77.3315 51.112C77.4515 51.152 77.6715 51.172 77.9915 51.172L77.8115 52C77.7555 52.016 77.6675 52.028 77.5475 52.036C77.4355 52.044 77.3075 52.052 77.1635 52.06C77.0275 52.076 76.8835 52.084 76.7315 52.084C76.5875 52.092 76.4595 52.096 76.3475 52.096C76.1475 52.096 75.9515 52.08 75.7595 52.048C75.5675 52.024 75.3955 51.972 75.2435 51.892C75.0915 51.804 74.9675 51.68 74.8715 51.52C74.7835 51.36 74.7395 51.144 74.7395 50.872C74.7395 50.776 74.7435 50.656 74.7515 50.512C74.7675 50.368 74.7955 50.208 74.8355 50.032L75.3395 47.644H74.4035L74.5715 46.84ZM81.1548 50.944C81.1548 51.128 81.1148 51.292 81.0348 51.436C80.9628 51.58 80.8628 51.7 80.7348 51.796C80.6148 51.892 80.4748 51.964 80.3148 52.012C80.1548 52.068 79.9868 52.096 79.8108 52.096C79.5068 52.096 79.2468 52.016 79.0308 51.856C78.8228 51.688 78.7188 51.428 78.7188 51.076C78.7188 50.892 78.7548 50.728 78.8268 50.584C78.8988 50.44 78.9948 50.32 79.1147 50.224C79.2348 50.128 79.3708 50.056 79.5228 50.008C79.6828 49.952 79.8468 49.924 80.0148 49.924C80.3428 49.924 80.6148 50.008 80.8308 50.176C81.0468 50.336 81.1548 50.592 81.1548 50.944ZM86.9006 52H84.3086L85.9286 44.38H88.5326L86.9006 52ZM91.4387 47.608C91.6067 47.448 91.7947 47.3 92.0027 47.164C92.1867 47.052 92.4027 46.948 92.6507 46.852C92.8987 46.756 93.1747 46.708 93.4787 46.708C93.8947 46.708 94.2387 46.816 94.5107 47.032C94.7827 47.24 94.9187 47.528 94.9187 47.896C94.9187 48 94.9067 48.128 94.8827 48.28C94.8587 48.424 94.8307 48.576 94.7987 48.736C94.7667 48.896 94.7307 49.06 94.6907 49.228C94.6587 49.388 94.6307 49.532 94.6067 49.66L94.1027 52H91.6667L92.3267 48.868C92.3427 48.764 92.3627 48.66 92.3867 48.556C92.4107 48.444 92.4227 48.344 92.4227 48.256C92.4227 48.136 92.3907 48.04 92.3267 47.968C92.2707 47.888 92.1827 47.848 92.0627 47.848C91.9187 47.848 91.7787 47.9 91.6427 48.004C91.5147 48.108 91.4147 48.196 91.3427 48.268L90.5507 52H88.1027L89.1947 46.84H91.1507L91.3667 47.608H91.4387ZM95.7473 46.84C96.0433 46.776 96.3033 46.704 96.5273 46.624C96.7513 46.544 96.9553 46.444 97.1393 46.324C97.3313 46.204 97.5113 46.056 97.6793 45.88C97.8553 45.704 98.0433 45.488 98.2433 45.232H99.4793L99.1313 46.84H100.067L99.9113 47.644H98.9633L98.4713 49.984C98.4313 50.168 98.3993 50.332 98.3753 50.476C98.3513 50.62 98.3393 50.732 98.3393 50.812C98.3393 50.972 98.3953 51.072 98.5073 51.112C98.6273 51.152 98.8473 51.172 99.1673 51.172L98.9873 52C98.9313 52.016 98.8433 52.028 98.7233 52.036C98.6113 52.044 98.4833 52.052 98.3393 52.06C98.2033 52.076 98.0593 52.084 97.9073 52.084C97.7633 52.092 97.6353 52.096 97.5233 52.096C97.3233 52.096 97.1273 52.08 96.9353 52.048C96.7433 52.024 96.5713 51.972 96.4193 51.892C96.2673 51.804 96.1433 51.68 96.0473 51.52C95.9593 51.36 95.9153 51.144 95.9153 50.872C95.9153 50.776 95.9193 50.656 95.9273 50.512C95.9433 50.368 95.9713 50.208 96.0113 50.032L96.5153 47.644H95.5793L95.7473 46.84ZM102.405 49.588C102.373 49.764 102.349 49.932 102.333 50.092C102.325 50.252 102.321 50.396 102.321 50.524C102.321 50.596 102.325 50.676 102.333 50.764C102.341 50.852 102.357 50.936 102.381 51.016C102.413 51.088 102.453 51.152 102.501 51.208C102.557 51.256 102.633 51.28 102.729 51.28C102.801 51.28 102.881 51.256 102.969 51.208C103.065 51.16 103.157 51.092 103.245 51.004C103.341 50.916 103.429 50.808 103.509 50.68C103.597 50.552 103.665 50.408 103.713 50.248H105.681L105.369 51.532C105.209 51.636 105.025 51.724 104.817 51.796C104.609 51.868 104.389 51.928 104.157 51.976C103.925 52.016 103.689 52.044 103.449 52.06C103.209 52.084 102.981 52.096 102.765 52.096C102.365 52.096 101.993 52.06 101.649 51.988C101.305 51.916 101.005 51.792 100.749 51.616C100.493 51.44 100.289 51.208 100.137 50.92C99.9931 50.624 99.9211 50.26 99.9211 49.828C99.9211 49.436 99.9811 49.052 100.101 48.676C100.229 48.3 100.437 47.968 100.725 47.68C101.021 47.384 101.413 47.148 101.901 46.972C102.397 46.796 103.013 46.708 103.749 46.708C104.549 46.708 105.149 46.832 105.549 47.08C105.957 47.328 106.161 47.716 106.161 48.244C106.161 48.46 106.129 48.696 106.065 48.952C106.001 49.2 105.905 49.412 105.777 49.588H102.405ZM104.001 48.16C104.001 47.912 103.961 47.744 103.881 47.656C103.801 47.568 103.705 47.524 103.593 47.524C103.465 47.524 103.345 47.568 103.233 47.656C103.129 47.736 103.033 47.848 102.945 47.992C102.857 48.128 102.777 48.288 102.705 48.472C102.633 48.648 102.573 48.836 102.525 49.036H103.893C103.909 48.94 103.925 48.84 103.941 48.736C103.957 48.648 103.969 48.552 103.977 48.448C103.993 48.344 104.001 48.248 104.001 48.16ZM111.248 46.84H113.192L112.208 51.508C112.136 51.868 112.016 52.2 111.848 52.504C111.68 52.808 111.444 53.072 111.14 53.296C110.844 53.52 110.468 53.696 110.012 53.824C109.564 53.952 109.016 54.016 108.368 54.016C108.248 54.016 108.104 54.012 107.936 54.004C107.768 54.004 107.596 54 107.42 53.992C107.244 53.992 107.076 53.988 106.916 53.98C106.756 53.972 106.628 53.964 106.532 53.956L106.76 53.092C107.016 53.132 107.276 53.152 107.54 53.152C107.812 53.16 108.044 53.164 108.236 53.164C108.476 53.164 108.676 53.14 108.836 53.092C109.004 53.052 109.14 52.984 109.244 52.888C109.356 52.792 109.444 52.664 109.508 52.504C109.58 52.344 109.636 52.148 109.676 51.916L109.82 51.136H109.736C109.688 51.208 109.616 51.296 109.52 51.4C109.432 51.496 109.316 51.592 109.172 51.688C109.028 51.776 108.856 51.852 108.656 51.916C108.464 51.972 108.244 52 107.996 52C107.716 52 107.476 51.96 107.276 51.88C107.084 51.792 106.928 51.676 106.808 51.532C106.688 51.38 106.6 51.204 106.544 51.004C106.488 50.796 106.46 50.572 106.46 50.332C106.46 50.228 106.468 50.068 106.484 49.852C106.5 49.636 106.536 49.392 106.592 49.12C106.656 48.848 106.744 48.572 106.856 48.292C106.976 48.004 107.132 47.744 107.324 47.512C107.524 47.28 107.768 47.088 108.056 46.936C108.352 46.784 108.708 46.708 109.124 46.708C109.252 46.708 109.392 46.72 109.544 46.744C109.696 46.768 109.844 46.812 109.988 46.876C110.132 46.94 110.26 47.032 110.372 47.152C110.484 47.272 110.572 47.428 110.636 47.62H110.708L111.248 46.84ZM109.904 47.884C109.712 47.884 109.552 47.988 109.424 48.196C109.296 48.396 109.192 48.632 109.112 48.904C109.032 49.176 108.972 49.448 108.932 49.72C108.9 49.984 108.884 50.18 108.884 50.308C108.884 50.468 108.908 50.604 108.956 50.716C109.012 50.82 109.108 50.872 109.244 50.872C109.324 50.872 109.4 50.852 109.472 50.812C109.552 50.772 109.624 50.728 109.688 50.68C109.76 50.624 109.82 50.568 109.868 50.512C109.924 50.456 109.964 50.412 109.988 50.38L110.432 48.28C110.368 48.192 110.292 48.104 110.204 48.016C110.124 47.928 110.024 47.884 109.904 47.884ZM115.905 49.588C115.873 49.764 115.849 49.932 115.833 50.092C115.825 50.252 115.821 50.396 115.821 50.524C115.821 50.596 115.825 50.676 115.833 50.764C115.841 50.852 115.857 50.936 115.881 51.016C115.913 51.088 115.953 51.152 116.001 51.208C116.057 51.256 116.133 51.28 116.229 51.28C116.301 51.28 116.381 51.256 116.469 51.208C116.565 51.16 116.657 51.092 116.745 51.004C116.841 50.916 116.929 50.808 117.009 50.68C117.097 50.552 117.165 50.408 117.213 50.248H119.181L118.869 51.532C118.709 51.636 118.525 51.724 118.317 51.796C118.109 51.868 117.889 51.928 117.657 51.976C117.425 52.016 117.189 52.044 116.949 52.06C116.709 52.084 116.481 52.096 116.265 52.096C115.865 52.096 115.493 52.06 115.149 51.988C114.805 51.916 114.505 51.792 114.249 51.616C113.993 51.44 113.789 51.208 113.637 50.92C113.493 50.624 113.421 50.26 113.421 49.828C113.421 49.436 113.481 49.052 113.601 48.676C113.729 48.3 113.937 47.968 114.225 47.68C114.521 47.384 114.913 47.148 115.401 46.972C115.897 46.796 116.513 46.708 117.249 46.708C118.049 46.708 118.649 46.832 119.049 47.08C119.457 47.328 119.661 47.716 119.661 48.244C119.661 48.46 119.629 48.696 119.565 48.952C119.501 49.2 119.405 49.412 119.277 49.588H115.905ZM117.501 48.16C117.501 47.912 117.461 47.744 117.381 47.656C117.301 47.568 117.205 47.524 117.093 47.524C116.965 47.524 116.845 47.568 116.733 47.656C116.629 47.736 116.533 47.848 116.445 47.992C116.357 48.128 116.277 48.288 116.205 48.472C116.133 48.648 116.073 48.836 116.025 49.036H117.393C117.409 48.94 117.425 48.84 117.441 48.736C117.457 48.648 117.469 48.552 117.477 48.448C117.493 48.344 117.501 48.248 117.501 48.16ZM120.824 46.84H122.78L122.96 47.74H123.044C123.228 47.452 123.464 47.208 123.752 47.008C124.04 46.808 124.42 46.708 124.892 46.708C124.924 46.708 124.972 46.712 125.036 46.72C125.108 46.72 125.184 46.732 125.264 46.756C125.352 46.772 125.44 46.8 125.528 46.84C125.624 46.872 125.716 46.92 125.804 46.984L125.276 49.456H123.968C123.952 48.96 123.908 48.616 123.836 48.424C123.764 48.224 123.648 48.124 123.488 48.124C123.408 48.124 123.32 48.144 123.224 48.184C123.136 48.216 123.044 48.292 122.948 48.412L122.18 52H119.732L120.824 46.84Z" fill="black"/>
</svg>
