<svg width="237" height="63" viewBox="0 0 237 63" fill="none" xmlns="http://www.w3.org/2000/svg">
<path d="M1.08 9V0.599999H2.28V7.92H5.388V9H1.08ZM11.8022 8.256L10.4102 9.06H8.09419L6.70219 8.256V3.744L8.09419 2.94H10.4102L11.8022 3.744V8.256ZM7.86619 3.984V8.016H10.6382V3.984H7.86619ZM17.0697 4.044H14.8857V9H13.7217V3H14.5977L14.8857 3.492L15.7377 3H17.0697V4.044ZM23.1258 7.956V9H19.7778L18.3858 8.196V3.744L19.7778 2.94H21.7338L23.1258 3.744V6.408H19.5498V7.956H23.1258ZM19.5498 3.984V5.364H21.9618V3.984H19.5498ZM33.118 3.744V9H31.954V3.984H29.662V9H28.498V3.984H26.206V9H25.042V2.94H25.918L26.206 3.432L27.058 2.94H28.27L29.386 3.588L30.514 2.94H31.726L33.118 3.744ZM39.3193 3V9H38.1553V3H39.3193ZM38.0953 1.524V0.24H39.3793V1.524H38.0953ZM45.0653 9.06H43.2533L42.4013 8.568V11.4H41.2373V2.94H42.1133L42.4013 3.432L43.2533 2.94H45.0653L46.4573 3.744V8.256L45.0653 9.06ZM42.4013 3.984V8.016H45.2933V3.984H42.4013ZM52.8861 6.24V8.196L51.4941 9H48.3741V7.956H51.7221V6.48H49.7661L48.3741 5.676V3.804L49.7661 3H52.7661V4.044H49.5381V5.436H51.4941L52.8861 6.24ZM54.8077 8.256V3H55.9717V8.016H58.7437V3H59.9077V9.06H59.0317L58.7437 8.568L57.8917 9.06H56.1997L54.8077 8.256ZM69.9032 3.744V9H68.7392V3.984H66.4472V9H65.2832V3.984H62.9912V9H61.8272V2.94H62.7032L62.9912 3.432L63.8432 2.94H65.0552L66.1712 3.588L67.2992 2.94H68.5112L69.9032 3.744ZM76.3325 2.94H78.1445L78.9965 3.432V0.24H80.1605V9.06H79.2845L78.9965 8.568L78.1445 9.06H76.3325L74.9405 8.256V3.744L76.3325 2.94ZM78.9965 8.016V3.984H76.1045V8.016H78.9965ZM87.1772 8.256L85.7852 9.06H83.4692L82.0772 8.256V3.744L83.4692 2.94H85.7852L87.1772 3.744V8.256ZM83.2412 3.984V8.016H86.0132V3.984H83.2412ZM90.4887 9L89.0967 8.196V0.24H90.2607V7.956H91.7007V9H90.4887ZM98.0053 8.256L96.6133 9.06H94.2973L92.9053 8.256V3.744L94.2973 2.94H96.6133L98.0053 3.744V8.256ZM94.0693 3.984V8.016H96.8413V3.984H94.0693ZM103.273 4.044H101.089V9H99.9248V3H100.801L101.089 3.492L101.941 3H103.273V4.044ZM112.218 6.24V8.196L110.826 9H107.706V7.956H111.054V6.48H109.098L107.706 5.676V3.804L109.098 3H112.098V4.044H108.87V5.436H110.826L112.218 6.24ZM115.304 3V9H114.14V3H115.304ZM114.08 1.524V0.24H115.364V1.524H114.08ZM116.742 4.044V3H117.846V1.992L119.01 1.32V3H120.45V4.044H119.01V7.956H120.45V9H119.238L117.846 8.196V4.044H116.742ZM126.173 6.54V8.016H128.585V6.54H126.173ZM126.401 9.06L125.009 8.256V6.3L126.401 5.496H128.585V4.044H125.609V3H128.357L129.749 3.804V9.06H129.437L128.585 8.568L127.733 9.06H126.401ZM139.747 3.744V9H138.583V3.984H136.291V9H135.127V3.984H132.835V9H131.671V2.94H132.547L132.835 3.432L133.687 2.94H134.899L136.015 3.588L137.143 2.94H138.355L139.747 3.744ZM146.407 7.956V9H143.059L141.667 8.196V3.744L143.059 2.94H145.015L146.407 3.744V6.408H142.831V7.956H146.407ZM142.831 3.984V5.364H145.243V3.984H142.831ZM147.843 4.044V3H148.947V1.992L150.111 1.32V3H151.551V4.044H150.111V7.956H151.551V9H150.339L148.947 8.196V4.044H147.843ZM153.473 11.4V7.2H155.273V7.704L153.977 11.4H153.473ZM161.71 4.044V7.956H165.046V9H161.938L160.546 8.196V3.804L161.938 3H165.046V4.044H161.71ZM171.822 8.256L170.43 9.06H168.114L166.722 8.256V3.744L168.114 2.94H170.43L171.822 3.744V8.256ZM167.886 3.984V8.016H170.658V3.984H167.886ZM178.841 3.744V9H177.677V3.984H174.905V9H173.741V2.94H174.617L174.905 3.432L175.757 2.94H177.449L178.841 3.744ZM185.273 6.24V8.196L183.881 9H180.761V7.956H184.109V6.48H182.153L180.761 5.676V3.804L182.153 3H185.153V4.044H181.925V5.436H183.881L185.273 6.24ZM191.934 7.956V9H188.586L187.194 8.196V3.744L188.586 2.94H190.542L191.934 3.744V6.408H188.358V7.956H191.934ZM188.358 3.984V5.364H190.77V3.984H188.358ZM195.015 4.044V7.956H198.351V9H195.243L193.851 8.196V3.804L195.243 3H198.351V4.044H195.015ZM199.546 4.044V3H200.65V1.992L201.814 1.32V3H203.254V4.044H201.814V7.956H203.254V9H202.042L200.65 8.196V4.044H199.546ZM209.677 7.956V9H206.329L204.937 8.196V3.744L206.329 2.94H208.285L209.677 3.744V6.408H206.101V7.956H209.677ZM206.101 3.984V5.364H208.513V3.984H206.101ZM211.113 4.044V3H212.217V1.992L213.381 1.32V3H214.821V4.044H213.381V7.956H214.821V9H213.609L212.217 8.196V4.044H211.113ZM216.503 8.256V3H217.667V8.016H220.439V3H221.603V9.06H220.727L220.439 8.568L219.587 9.06H217.895L216.503 8.256ZM226.871 4.044H224.687V9H223.523V3H224.399L224.687 3.492L225.539 3H226.871V4.044ZM1.884 23.54V25.016H4.296V23.54H1.884ZM2.112 26.06L0.72 25.256V23.3L2.112 22.496H4.296V21.044H1.32V20H4.068L5.46 20.804V26.06H5.148L4.296 25.568L3.444 26.06H2.112ZM8.77388 19.94H10.5859L11.4379 20.432V17.24H12.6019V26.06H11.7259L11.4379 25.568L10.5859 26.06H8.77388L7.38188 25.256V20.744L8.77388 19.94ZM11.4379 25.016V20.984H8.54588V25.016H11.4379ZM15.6826 20V26H14.5186V20H15.6826ZM14.4586 18.524V17.24H15.7426V18.524H14.4586ZM21.4286 26.06H19.6166L18.7646 25.568V28.4H17.6006V19.94H18.4766L18.7646 20.432L19.6166 19.94H21.4286L22.8206 20.744V25.256L21.4286 26.06ZM18.7646 20.984V25.016H21.6566V20.984H18.7646ZM25.9013 20V26H24.7373V20H25.9013ZM24.6773 18.524V17.24H25.9613V18.524H24.6773ZM32.3314 23.24V25.196L30.9394 26H27.8194V24.956H31.1674V23.48H29.2114L27.8194 22.676V20.804L29.2114 20H32.2114V21.044H28.9834V22.436H30.9394L32.3314 23.24ZM35.417 21.044V24.956H38.753V26H35.645L34.253 25.196V20.804L35.645 20H38.753V21.044H35.417ZM41.5928 20V26H40.4288V20H41.5928ZM40.3688 18.524V17.24H41.6528V18.524H40.3688ZM48.6108 20.744V26H47.4468V20.984H44.6748V26H43.5108V19.94H44.3868L44.6748 20.432L45.5268 19.94H47.2188L48.6108 20.744ZM51.6943 26L50.5303 25.328V24.248L51.3823 23.756L50.5303 23.264V20.804L51.9223 20H55.7503V20.408L54.6583 21.044L55.3903 21.476V23.132L53.9983 23.936H51.6943V24.956H54.3583L55.7503 25.76V27.656L54.3583 28.46H51.6823L50.2903 27.656V26.912L51.4543 26.24V27.44H54.5863V26H51.6943ZM51.6943 21.02V22.916H54.2263V21.02H51.6943ZM65.2898 24.956V26H61.9418L60.5498 25.196V20.744L61.9418 19.94H63.8978L65.2898 20.744V23.408H61.7138V24.956H65.2898ZM61.7138 20.984V22.364H64.1258V20.984H61.7138ZM68.5981 26L67.2061 25.196V17.24H68.3701V24.956H69.8101V26H68.5981ZM72.1787 20V26H71.0147V20H72.1787ZM70.9547 18.524V17.24H72.2387V18.524H70.9547ZM73.6167 21.044V20H74.7207V18.992L75.8847 18.32V20H77.3247V21.044H75.8847V24.956H77.3247V26H76.1127L74.7207 25.196V21.044H73.6167ZM79.2469 26V24.2H81.0469V26H79.2469ZM86.4394 26V17.6H87.6394V26H86.4394ZM91.0747 19.94H92.8867L93.7387 20.432V17.24H94.9027V26.06H94.0267L93.7387 25.568L92.8867 26.06H91.0747L89.6827 25.256V20.744L91.0747 19.94ZM93.7387 25.016V20.984H90.8467V25.016H93.7387ZM100.861 23.54V25.016H103.273V23.54H100.861ZM101.089 26.06L99.6966 25.256V23.3L101.089 22.496H103.273V21.044H100.297V20H103.045L104.437 20.804V26.06H104.125L103.273 25.568L102.421 26.06H101.089ZM107.522 21.044V24.956H110.858V26H107.75L106.358 25.196V20.804L107.75 20H110.858V21.044H107.522ZM113.698 21.044V24.956H117.034V26H113.926L112.534 25.196V20.804L113.926 20H117.034V21.044H113.698ZM118.71 25.256V20H119.874V25.016H122.646V20H123.81V26.06H122.934L122.646 25.568L121.794 26.06H120.102L118.71 25.256ZM133.806 20.744V26H132.642V20.984H130.35V26H129.186V20.984H126.894V26H125.73V19.94H126.606L126.894 20.432L127.746 19.94H128.958L130.074 20.588L131.202 19.94H132.414L133.806 20.744ZM140.238 23.24V25.196L138.846 26H135.726V24.956H139.074V23.48H137.118L135.726 22.676V20.804L137.118 20H140.118V21.044H136.89V22.436H138.846L140.238 23.24ZM143.083 23.54V25.016H145.495V23.54H143.083ZM143.311 26.06L141.919 25.256V23.3L143.311 22.496H145.495V21.044H142.519V20H145.267L146.659 20.804V26.06H146.347L145.495 25.568L144.643 26.06H143.311ZM153.681 20.744V26H152.517V20.984H149.745V26H148.581V19.94H149.457L149.745 20.432L150.597 19.94H152.289L153.681 20.744ZM155.841 28.4V24.2H157.641V24.704L156.345 28.4H155.841ZM164.077 20V26H162.913V20H164.077ZM162.853 18.524V17.24H164.137V18.524H162.853ZM167.387 19.94H169.199L170.051 20.432V17.24H171.215V26.06H170.339L170.051 25.568L169.199 26.06H167.387L165.995 25.256V20.744L167.387 19.94ZM170.051 25.016V20.984H167.159V25.016H170.051ZM176.669 20L178.433 24.896H178.457L180.233 20H181.373L179.153 26H177.749L175.529 20H176.669ZM183.741 20V26H182.577V20H183.741ZM182.517 18.524V17.24H183.801V18.524H182.517ZM185.179 21.044V20H186.283V18.992L187.447 18.32V20H188.887V21.044H187.447V24.956H188.887V26H187.675L186.283 25.196V21.044H185.179ZM191.493 23.54V25.016H193.905V23.54H191.493ZM191.721 26.06L190.329 25.256V23.3L191.721 22.496H193.905V21.044H190.929V20H193.677L195.069 20.804V26.06H194.757L193.905 25.568L193.053 26.06H191.721ZM201.731 24.956V26H198.383L196.991 25.196V20.744L198.383 19.94H200.339L201.731 20.744V23.408H198.155V24.956H201.731ZM198.155 20.984V22.364H200.567V20.984H198.155ZM207.689 23.54V25.016H210.101V23.54H207.689ZM207.917 26.06L206.525 25.256V23.3L207.917 22.496H210.101V21.044H207.125V20H209.873L211.265 20.804V26.06H210.953L210.101 25.568L209.249 26.06H207.917ZM221.263 20.744V26H220.099V20.984H217.807V26H216.643V20.984H214.351V26H213.187V19.94H214.063L214.351 20.432L215.203 19.94H216.415L217.531 20.588L218.659 19.94H219.871L221.263 20.744ZM227.923 24.956V26H224.575L223.183 25.196V20.744L224.575 19.94H226.531L227.923 20.744V23.408H224.347V24.956H227.923ZM224.347 20.984V22.364H226.759V20.984H224.347ZM229.359 21.044V20H230.463V18.992L231.627 18.32V20H233.067V21.044H231.627V24.956H233.067V26H231.855L230.463 25.196V21.044H229.359ZM234.989 28.4V24.2H236.789V24.704L235.493 28.4H234.989ZM1.38 37L3.144 41.896H3.168L4.944 37H6.084L3.864 43H2.46L0.24 37H1.38ZM8.21213 40.54V42.016H10.6241V40.54H8.21213ZM8.44013 43.06L7.04813 42.256V40.3L8.44013 39.496H10.6241V38.044H7.64813V37H10.3961L11.7881 37.804V43.06H11.4761L10.6241 42.568L9.77213 43.06H8.44013ZM17.058 38.044H14.874V43H13.71V37H14.586L14.874 37.492L15.726 37H17.058V38.044ZM19.5381 37V43H18.3741V37H19.5381ZM18.3141 35.524V34.24H19.5981V35.524H18.3141ZM21.4561 42.256V37H22.6201V42.016H25.3921V37H26.5561V43.06H25.6801L25.3921 42.568L24.5401 43.06H22.8481L21.4561 42.256ZM32.9876 40.24V42.196L31.5956 43H28.4756V41.956H31.8236V40.48H29.8676L28.4756 39.676V37.804L29.8676 37H32.8676V38.044H29.6396V39.436H31.5956L32.9876 40.24ZM35.1492 43V41.2H36.9492V43H35.1492ZM42.3417 43V34.6H43.5417V43H42.3417ZM46.977 36.94H48.789L49.641 37.432V34.24H50.805V43.06H49.929L49.641 42.568L48.789 43.06H46.977L45.585 42.256V37.744L46.977 36.94ZM49.641 42.016V37.984H46.749V42.016H49.641ZM56.7629 40.54V42.016H59.1749V40.54H56.7629ZM56.9909 43.06L55.5989 42.256V40.3L56.9909 39.496H59.1749V38.044H56.1989V37H58.9469L60.3389 37.804V43.06H60.0269L59.1749 42.568L58.3229 43.06H56.9909ZM70.3368 37.744V43H69.1728V37.984H66.8808V43H65.7168V37.984H63.4248V43H62.2608V36.94H63.1368L63.4248 37.432L64.2768 36.94H65.4888L66.6048 37.588L67.7328 36.94H68.9448L70.3368 37.744ZM76.9969 41.956V43H73.6489L72.2569 42.196V37.744L73.6489 36.94H75.6049L76.9969 37.744V40.408H73.4209V41.956H76.9969ZM73.4209 37.984V39.364H75.8329V37.984H73.4209ZM78.4331 38.044V37H79.5371V35.992L80.7011 35.32V37H82.1411V38.044H80.7011V41.956H82.1411V43H80.9291L79.5371 42.196V38.044H78.4331ZM87.8645 40.54V42.016H90.2765V40.54H87.8645ZM88.0925 43.06L86.7005 42.256V40.3L88.0925 39.496H90.2765V38.044H87.3005V37H90.0485L91.4405 37.804V43.06H91.1285L90.2765 42.568L89.4245 43.06H88.0925ZM94.7543 43L93.3623 42.196V34.24H94.5263V41.956H95.9663V43H94.7543ZM98.3349 37V43H97.1709V37H98.3349ZM97.1109 35.524V34.24H98.3949V35.524H97.1109ZM103.457 43.06H101.645L100.253 42.256V37.744L101.645 36.94H103.457L104.309 37.432L105.161 36.94H105.473V45.4H104.309V42.568L103.457 43.06ZM104.309 42.016V37.984H101.417V42.016H104.309ZM107.39 42.256V37H108.554V42.016H111.326V37H112.49V43.06H111.614L111.326 42.568L110.474 43.06H108.782L107.39 42.256ZM115.333 40.54V42.016H117.745V40.54H115.333ZM115.561 43.06L114.169 42.256V40.3L115.561 39.496H117.745V38.044H114.769V37H117.517L118.909 37.804V43.06H118.597L117.745 42.568L116.893 43.06H115.561ZM128.907 37.744V43H127.743V37.984H125.451V43H124.287V37.984H121.995V43H120.831V36.94H121.707L121.995 37.432L122.847 36.94H124.059L125.175 37.588L126.303 36.94H127.515L128.907 37.744ZM137.772 43.06H135.96L135.108 42.568V45.4H133.944V36.94H134.82L135.108 37.432L135.96 36.94H137.772L139.164 37.744V42.256L137.772 43.06ZM135.108 37.984V42.016H138V37.984H135.108ZM145.821 41.956V43H142.473L141.081 42.196V37.744L142.473 36.94H144.429L145.821 37.744V40.408H142.245V41.956H145.821ZM142.245 37.984V39.364H144.657V37.984H142.245ZM152.837 37.744V43H151.673V37.984H148.901V43H147.737V36.94H148.613L148.901 37.432L149.753 36.94H151.445L152.837 37.744ZM155.681 40.54V42.016H158.093V40.54H155.681ZM155.909 43.06L154.517 42.256V40.3L155.909 39.496H158.093V38.044H155.117V37H157.865L159.257 37.804V43.06H158.945L158.093 42.568L157.241 43.06H155.909ZM160.699 38.044V37H161.803V35.992L162.967 35.32V37H164.407V38.044H162.967V41.956H164.407V43H163.195L161.803 42.196V38.044H160.699ZM167.253 37V43H166.089V37H167.253ZM166.029 35.524V34.24H167.313V35.524H166.029ZM171.187 36.94H172.999L174.391 37.744V42.256L172.999 43.06H171.187L170.335 42.568L169.483 43.06H169.171V34.24H170.335V37.432L171.187 36.94ZM170.335 37.984V42.016H173.227V37.984H170.335ZM176.308 42.256V37H177.472V42.016H180.244V37H181.408V43.06H180.532L180.244 42.568L179.392 43.06H177.7L176.308 42.256ZM187.839 40.24V42.196L186.447 43H183.327V41.956H186.675V40.48H184.719L183.327 39.676V37.804L184.719 37H187.719V38.044H184.491V39.436H186.447L187.839 40.24ZM197.618 41.956V43H194.27L192.878 42.196V37.744L194.27 36.94H196.226L197.618 37.744V40.408H194.042V41.956H197.618ZM194.042 37.984V39.364H196.454V37.984H194.042ZM200.698 43L199.534 42.328V41.248L200.386 40.756L199.534 40.264V37.804L200.926 37H204.754V37.408L203.662 38.044L204.394 38.476V40.132L203.002 40.936H200.698V41.956H203.362L204.754 42.76V44.656L203.362 45.46H200.686L199.294 44.656V43.912L200.458 43.24V44.44H203.59V43H200.698ZM200.698 38.02V39.916H203.23V38.02H200.698ZM211.177 41.956V43H207.829L206.437 42.196V37.744L207.829 36.94H209.785L211.177 37.744V40.408H207.601V41.956H211.177ZM207.601 37.984V39.364H210.013V37.984H207.601ZM212.613 38.044V37H213.717V35.992L214.881 35.32V37H216.321V38.044H214.881V41.956H216.321V43H215.109L213.717 42.196V38.044H212.613ZM4.788 60.06H2.976L2.124 59.568V62.4H0.96V53.94H1.836L2.124 54.432L2.976 53.94H4.788L6.18 54.744V59.256L4.788 60.06ZM2.124 54.984V59.016H5.016V54.984H2.124ZM12.8367 58.956V60H9.48872L8.09672 59.196V54.744L9.48872 53.94H11.4447L12.8367 54.744V57.408H9.26072V58.956H12.8367ZM9.26072 54.984V56.364H11.6727V54.984H9.26072ZM16.145 60L14.753 59.196V51.24H15.917V58.956H17.357V60H16.145ZM19.9536 60L18.5616 59.196V51.24H19.7256V58.956H21.1656V60H19.9536ZM27.1102 58.956V60H23.7622L22.3702 59.196V54.744L23.7622 53.94H25.7182L27.1102 54.744V57.408H23.5342V58.956H27.1102ZM23.5342 54.984V56.364H25.9462V54.984H23.5342ZM34.1264 54.744V60H32.9624V54.984H30.1904V60H29.0264V53.94H29.9024L30.1904 54.432L31.0424 53.94H32.7344L34.1264 54.744ZM35.5659 55.044V54H36.6699V52.992L37.8339 52.32V54H39.2739V55.044H37.8339V58.956H39.2739V60H38.0619L36.6699 59.196V55.044H35.5659ZM45.6961 58.956V60H42.3481L40.9561 59.196V54.744L42.3481 53.94H44.3041L45.6961 54.744V57.408H42.1201V58.956H45.6961ZM42.1201 54.984V56.364H44.5321V54.984H42.1201ZM52.1243 57.24V59.196L50.7323 60H47.6123V58.956H50.9603V57.48H49.0043L47.6123 56.676V54.804L49.0043 54H52.0043V55.044H48.7763V56.436H50.7323L52.1243 57.24ZM57.2499 60.06H55.4379L54.0459 59.256V54.744L55.4379 53.94H57.2499L58.1019 54.432L58.9539 53.94H59.2659V62.4H58.1019V59.568L57.2499 60.06ZM58.1019 59.016V54.984H55.2099V59.016H58.1019ZM61.1827 59.256V54H62.3467V59.016H65.1187V54H66.2827V60.06H65.4067L65.1187 59.568L64.2667 60.06H62.5747L61.1827 59.256ZM72.9422 58.956V60H69.5942L68.2022 59.196V54.744L69.5942 53.94H71.5502L72.9422 54.744V57.408H69.3662V58.956H72.9422ZM69.3662 54.984V56.364H71.7782V54.984H69.3662ZM82.7156 58.956V60H79.3676L77.9756 59.196V54.744L79.3676 53.94H81.3236L82.7156 54.744V57.408H79.1396V58.956H82.7156ZM79.1396 54.984V56.364H81.5516V54.984H79.1396ZM89.1439 57.24V59.196L87.7519 60H84.6319V58.956H87.9799V57.48H86.0239L84.6319 56.676V54.804L86.0239 54H89.0239V55.044H85.7959V56.436H87.7519L89.1439 57.24ZM90.5855 55.044V54H91.6895V52.992L92.8535 52.32V54H94.2935V55.044H92.8535V58.956H94.2935V60H93.0815L91.6895 59.196V55.044H90.5855ZM103.833 58.956V60H100.485L99.0928 59.196V54.744L100.485 53.94H102.441L103.833 54.744V57.408H100.257V58.956H103.833ZM100.257 54.984V56.364H102.669V54.984H100.257ZM110.849 54.744V60H109.685V54.984H106.913V60H105.749V53.94H106.625L106.913 54.432L107.765 53.94H109.457L110.849 54.744ZM113.933 54V60H112.769V54H113.933ZM112.709 52.524V51.24H113.993V52.524H112.709ZM123.927 54.744V60H122.763V54.984H120.471V60H119.307V54.984H117.015V60H115.851V53.94H116.727L117.015 54.432L117.867 53.94H119.079L120.195 54.588L121.323 53.94H122.535L123.927 54.744ZM134.064 54.744V60H132.9V54.984H130.128V60H128.964V53.94H129.84L130.128 54.432L130.98 53.94H132.672L134.064 54.744ZM136.907 57.54V59.016H139.319V57.54H136.907ZM137.135 60.06L135.743 59.256V57.3L137.135 56.496H139.319V55.044H136.343V54H139.091L140.483 54.804V60.06H140.171L139.319 59.568L138.467 60.06H137.135ZM150.481 54.744V60H149.317V54.984H147.025V60H145.861V54.984H143.569V60H142.405V53.94H143.281L143.569 54.432L144.421 53.94H145.633L146.749 54.588L147.877 53.94H149.089L150.481 54.744ZM155.039 55.044V54H156.143V52.992L157.307 52.32V54H158.747V55.044H157.307V58.956H158.747V60H157.535L156.143 59.196V55.044H155.039ZM163.777 55.044H161.593V60H160.429V54H161.305L161.593 54.492L162.445 54H163.777V55.044ZM166.257 54V60H165.093V54H166.257ZM165.033 52.524V51.24H166.317V52.524H165.033ZM172.687 57.24V59.196L171.295 60H168.175V58.956H171.523V57.48H169.567L168.175 56.676V54.804L169.567 54H172.567V55.044H169.339V56.436H171.295L172.687 57.24ZM174.128 55.044V54H175.232V52.992L176.396 52.32V54H177.836V55.044H176.396V58.956H177.836V60H176.624L175.232 59.196V55.044H174.128ZM180.683 54V60H179.519V54H180.683ZM179.459 52.524V51.24H180.743V52.524H179.459ZM185.805 60.06H183.993L182.601 59.256V54.744L183.993 53.94H185.805L186.657 54.432L187.509 53.94H187.821V62.4H186.657V59.568L185.805 60.06ZM186.657 59.016V54.984H183.765V59.016H186.657ZM189.737 59.256V54H190.901V59.016H193.673V54H194.837V60.06H193.961L193.673 59.568L192.821 60.06H191.129L189.737 59.256ZM201.497 58.956V60H198.149L196.757 59.196V54.744L198.149 53.94H200.105L201.497 54.744V57.408H197.921V58.956H201.497ZM197.921 54.984V56.364H200.333V54.984H197.921ZM203.653 60V58.2H205.453V60H203.653Z" fill="black"/>
</svg>
