<svg width="242" height="55" viewBox="0 0 242 55" fill="none" xmlns="http://www.w3.org/2000/svg">
<path d="M0.546875 10V0.429688H1.27148V9.30273H5.6875V10H0.546875ZM6.48047 8.04492V4.79102C6.48047 4.36263 6.67188 3.94792 7.05469 3.54688C7.51042 3.08203 8.07552 2.84961 8.75 2.84961V3.5332C8.13932 3.5332 7.68359 3.78841 7.38281 4.29883C7.25521 4.52669 7.19141 4.75 7.19141 4.96875V7.86719C7.19141 8.23177 7.36458 8.57812 7.71094 8.90625C8.02083 9.1888 8.36719 9.33008 8.75 9.33008V10.0137C7.90234 10.0137 7.25521 9.67188 6.80859 8.98828C6.58984 8.66016 6.48047 8.3457 6.48047 8.04492ZM9.32422 10.0137V9.33008C9.88932 9.33008 10.3177 9.07031 10.6094 8.55078C10.7461 8.32292 10.8145 8.10417 10.8145 7.89453V4.96875C10.8145 4.56771 10.6413 4.21224 10.2949 3.90234C10.0124 3.65625 9.6888 3.5332 9.32422 3.5332V2.84961C10.1445 2.84961 10.7734 3.18229 11.2109 3.84766C11.4206 4.17578 11.5254 4.49023 11.5254 4.79102V8.04492C11.5254 8.48242 11.3385 8.90169 10.9648 9.30273C10.5273 9.76758 9.98047 10.0046 9.32422 10.0137ZM12.6191 10V2.84961H13.3301V3.9707C13.5124 3.58789 13.8177 3.28711 14.2461 3.06836C14.5286 2.92253 14.8203 2.84961 15.1211 2.84961H15.2031L15.0254 3.5332C14.5697 3.5332 14.1595 3.80664 13.7949 4.35352C13.4941 4.80924 13.3438 5.28776 13.3438 5.78906V10H12.6191ZM16.0098 8.04492V4.77734C16.0189 4.34896 16.2194 3.9388 16.6113 3.54688C17.0579 3.08203 17.6094 2.84961 18.2656 2.84961V3.51953C17.7461 3.51953 17.3177 3.75195 16.9805 4.2168C16.8073 4.45378 16.7207 4.67708 16.7207 4.88672V5.9668H20.4395V4.88672C20.4395 4.43099 20.2161 4.06185 19.7695 3.7793C19.487 3.59701 19.1953 3.50586 18.8945 3.50586V2.84961C19.5052 2.84961 20.0521 3.07292 20.5352 3.51953C20.9362 3.90234 21.1413 4.31706 21.1504 4.76367V6.65039H16.7207V8.04492C16.7207 8.32747 16.8939 8.61914 17.2402 8.91992C17.5684 9.19336 17.9147 9.33008 18.2793 9.33008V10C17.4772 10 16.8438 9.67188 16.3789 9.01562C16.1328 8.66927 16.0098 8.3457 16.0098 8.04492ZM18.8945 10V9.28906C19.487 9.28906 19.9518 9.03841 20.2891 8.53711C20.3893 8.38216 20.4577 8.23633 20.4941 8.09961L21.1641 8.33203C20.9635 8.9974 20.5579 9.47591 19.9473 9.76758C19.6191 9.92253 19.2682 10 18.8945 10ZM22.2168 10V4.77734C22.2168 4.20312 22.4128 3.72005 22.8047 3.32812C23.1784 2.98177 23.6569 2.80859 24.2402 2.80859V3.50586C23.6842 3.50586 23.2923 3.7474 23.0645 4.23047C22.9733 4.43099 22.9277 4.64518 22.9277 4.87305V10H22.2168ZM24.8418 3.50586V2.80859C25.5254 2.80859 26.0449 3.04102 26.4004 3.50586C26.446 3.56966 26.4915 3.63346 26.5371 3.69727C26.8379 3.24154 27.2116 2.96354 27.6582 2.86328C27.8314 2.82682 28.0182 2.80859 28.2188 2.80859V3.50586C27.6719 3.50586 27.2799 3.74284 27.043 4.2168C26.9427 4.42643 26.8926 4.64518 26.8926 4.87305V10H26.1816V4.87305C26.1816 4.32617 25.9674 3.92969 25.5391 3.68359C25.3294 3.5651 25.097 3.50586 24.8418 3.50586ZM28.8203 3.50586V2.80859C29.668 2.80859 30.2741 3.17773 30.6387 3.91602C30.7845 4.20768 30.8574 4.49479 30.8574 4.77734V10H30.1465V4.87305C30.1465 4.30794 29.9232 3.9069 29.4766 3.66992C29.276 3.56055 29.0573 3.50586 28.8203 3.50586ZM35.2324 1.90625C35.2324 1.70573 35.3327 1.56445 35.5332 1.48242C35.5879 1.46419 35.6426 1.45508 35.6973 1.45508C35.9069 1.45508 36.0482 1.55534 36.1211 1.75586C36.1393 1.81055 36.1484 1.86068 36.1484 1.90625C36.1484 2.11589 36.0482 2.25716 35.8477 2.33008C35.793 2.34831 35.7428 2.35742 35.6973 2.35742C35.4876 2.35742 35.3418 2.26172 35.2598 2.07031C35.2415 2.01562 35.2324 1.96094 35.2324 1.90625ZM35.3418 10V2.9043H36.0527V10H35.3418ZM38.7324 10V9.31641H40.1133C40.7604 9.31641 41.2207 9.07943 41.4941 8.60547C41.6035 8.41406 41.6582 8.2181 41.6582 8.01758V4.8457C41.6582 4.50846 41.485 4.19857 41.1387 3.91602C40.8197 3.66081 40.4414 3.5332 40.0039 3.5332H38.6504V2.84961H40.0039C40.8971 2.84961 41.5762 3.18685 42.041 3.86133C42.2598 4.18945 42.3691 4.50391 42.3691 4.80469V8.07227C42.3691 8.52799 42.1686 8.95182 41.7676 9.34375C41.321 9.78125 40.765 10 40.0996 10H38.7324ZM37.3105 12.5156V2.84961H38.0352V12.5156H37.3105ZM43.1484 8.11328L43.832 7.99023C43.832 8.46419 44.0827 8.85156 44.584 9.15234C44.8574 9.30729 45.1263 9.38932 45.3906 9.39844V10.0684C44.5977 10.0684 43.9779 9.77214 43.5312 9.17969C43.276 8.83333 43.1484 8.47786 43.1484 8.11328ZM43.2031 4.92773C43.2031 4.09831 43.5723 3.48763 44.3105 3.0957C44.6569 2.91341 45.0078 2.82227 45.3633 2.82227V3.50586C44.9349 3.50586 44.5658 3.68359 44.2559 4.03906C44.0189 4.30339 43.9004 4.59961 43.9004 4.92773C43.9004 5.24674 44.1237 5.49284 44.5703 5.66602C44.7435 5.73893 45.4316 5.92122 46.6348 6.21289C46.6986 6.23112 46.7578 6.24479 46.8125 6.25391C47.7695 6.5 48.2799 6.99219 48.3438 7.73047C48.3438 7.77604 48.3438 7.82161 48.3438 7.86719C48.3438 8.67839 48.0111 9.28906 47.3457 9.69922C46.9355 9.94531 46.4753 10.0684 45.9648 10.0684V9.39844C46.4388 9.39844 46.8535 9.22982 47.209 8.89258C47.5007 8.61003 47.6465 8.27279 47.6465 7.88086C47.6465 7.4707 47.2682 7.14714 46.5117 6.91016C46.4661 6.89193 45.8874 6.75065 44.7754 6.48633C44.6934 6.4681 44.6204 6.44987 44.5566 6.43164C43.7546 6.19466 43.3079 5.77539 43.2168 5.17383C43.2077 5.0918 43.2031 5.00977 43.2031 4.92773ZM45.9512 3.51953V2.82227C46.7168 2.82227 47.3275 3.10938 47.7832 3.68359C48.0749 4.03906 48.2207 4.41276 48.2207 4.80469L47.5371 4.91406C47.5371 4.3763 47.2409 3.9707 46.6484 3.69727C46.3932 3.57878 46.1608 3.51953 45.9512 3.51953ZM49.1367 8.09961V2.87695H49.8477V8.01758C49.8477 8.37305 50.0391 8.69661 50.4219 8.98828C50.7227 9.23438 51.0599 9.35742 51.4336 9.35742V10.0684C50.5768 10.0684 49.9251 9.73568 49.4785 9.07031C49.2507 8.73307 49.1367 8.40951 49.1367 8.09961ZM52.0215 10.0684V9.35742C52.5866 9.35742 53.0286 9.13411 53.3477 8.6875C53.5117 8.45964 53.5938 8.23633 53.5938 8.01758V2.87695H54.3184V8.09961C54.3184 8.51888 54.127 8.92904 53.7441 9.33008C53.2793 9.81315 52.7051 10.0592 52.0215 10.0684ZM55.3574 10V4.77734C55.3574 4.20312 55.5534 3.72005 55.9453 3.32812C56.319 2.98177 56.7975 2.80859 57.3809 2.80859V3.50586C56.8249 3.50586 56.4329 3.7474 56.2051 4.23047C56.1139 4.43099 56.0684 4.64518 56.0684 4.87305V10H55.3574ZM57.9824 3.50586V2.80859C58.666 2.80859 59.1855 3.04102 59.541 3.50586C59.5866 3.56966 59.6322 3.63346 59.6777 3.69727C59.9785 3.24154 60.3522 2.96354 60.7988 2.86328C60.972 2.82682 61.1589 2.80859 61.3594 2.80859V3.50586C60.8125 3.50586 60.4206 3.74284 60.1836 4.2168C60.0833 4.42643 60.0332 4.64518 60.0332 4.87305V10H59.3223V4.87305C59.3223 4.32617 59.1081 3.92969 58.6797 3.68359C58.4701 3.5651 58.2376 3.50586 57.9824 3.50586ZM61.9609 3.50586V2.80859C62.8086 2.80859 63.4147 3.17773 63.7793 3.91602C63.9251 4.20768 63.998 4.49479 63.998 4.77734V10H63.2871V4.87305C63.2871 4.30794 63.0638 3.9069 62.6172 3.66992C62.4167 3.56055 62.1979 3.50586 61.9609 3.50586ZM68.1953 8.04492V4.77734C68.1953 4.25781 68.4368 3.79297 68.9199 3.38281C69.3392 3.02734 69.804 2.84961 70.3145 2.84961H71.791V3.5332H70.3281C69.8997 3.5332 69.526 3.72005 69.207 4.09375C69.0065 4.33984 68.9062 4.58594 68.9062 4.83203V8.01758C68.9062 8.41862 69.125 8.76497 69.5625 9.05664C69.8268 9.22982 70.0866 9.31641 70.3418 9.31641H71.791V10H70.3555C69.5534 10 68.9382 9.66276 68.5098 8.98828C68.3001 8.65104 68.1953 8.33659 68.1953 8.04492ZM72.4199 10V0.416016H73.1445V10H72.4199ZM74.2109 8.04492V4.79102C74.2109 4.36263 74.4023 3.94792 74.7852 3.54688C75.2409 3.08203 75.806 2.84961 76.4805 2.84961V3.5332C75.8698 3.5332 75.4141 3.78841 75.1133 4.29883C74.9857 4.52669 74.9219 4.75 74.9219 4.96875V7.86719C74.9219 8.23177 75.0951 8.57812 75.4414 8.90625C75.7513 9.1888 76.0977 9.33008 76.4805 9.33008V10.0137C75.6328 10.0137 74.9857 9.67188 74.5391 8.98828C74.3203 8.66016 74.2109 8.3457 74.2109 8.04492ZM77.0547 10.0137V9.33008C77.6198 9.33008 78.0482 9.07031 78.3398 8.55078C78.4766 8.32292 78.5449 8.10417 78.5449 7.89453V4.96875C78.5449 4.56771 78.3717 4.21224 78.0254 3.90234C77.7428 3.65625 77.4193 3.5332 77.0547 3.5332V2.84961C77.875 2.84961 78.5039 3.18229 78.9414 3.84766C79.151 4.17578 79.2559 4.49023 79.2559 4.79102V8.04492C79.2559 8.48242 79.069 8.90169 78.6953 9.30273C78.2578 9.76758 77.7109 10.0046 77.0547 10.0137ZM80.3496 10V0.429688H81.0879V10H80.3496ZM82.1816 8.04492V4.79102C82.1816 4.36263 82.373 3.94792 82.7559 3.54688C83.2116 3.08203 83.7767 2.84961 84.4512 2.84961V3.5332C83.8405 3.5332 83.3848 3.78841 83.084 4.29883C82.9564 4.52669 82.8926 4.75 82.8926 4.96875V7.86719C82.8926 8.23177 83.0658 8.57812 83.4121 8.90625C83.722 9.1888 84.0684 9.33008 84.4512 9.33008V10.0137C83.6035 10.0137 82.9564 9.67188 82.5098 8.98828C82.291 8.66016 82.1816 8.3457 82.1816 8.04492ZM85.0254 10.0137V9.33008C85.5905 9.33008 86.0189 9.07031 86.3105 8.55078C86.4473 8.32292 86.5156 8.10417 86.5156 7.89453V4.96875C86.5156 4.56771 86.3424 4.21224 85.9961 3.90234C85.7135 3.65625 85.39 3.5332 85.0254 3.5332V2.84961C85.8457 2.84961 86.4746 3.18229 86.9121 3.84766C87.1217 4.17578 87.2266 4.49023 87.2266 4.79102V8.04492C87.2266 8.48242 87.0397 8.90169 86.666 9.30273C86.2285 9.76758 85.6816 10.0046 85.0254 10.0137ZM88.3203 10V2.84961H89.0312V3.9707C89.2135 3.58789 89.5189 3.28711 89.9473 3.06836C90.2298 2.92253 90.5215 2.84961 90.8223 2.84961H90.9043L90.7266 3.5332C90.2708 3.5332 89.8607 3.80664 89.4961 4.35352C89.1953 4.80924 89.0449 5.28776 89.0449 5.78906V10H88.3203ZM94.7051 8.11328L95.3887 7.99023C95.3887 8.46419 95.6393 8.85156 96.1406 9.15234C96.4141 9.30729 96.6829 9.38932 96.9473 9.39844V10.0684C96.1543 10.0684 95.5345 9.77214 95.0879 9.17969C94.8327 8.83333 94.7051 8.47786 94.7051 8.11328ZM94.7598 4.92773C94.7598 4.09831 95.1289 3.48763 95.8672 3.0957C96.2135 2.91341 96.5645 2.82227 96.9199 2.82227V3.50586C96.4915 3.50586 96.1224 3.68359 95.8125 4.03906C95.5755 4.30339 95.457 4.59961 95.457 4.92773C95.457 5.24674 95.6803 5.49284 96.127 5.66602C96.3001 5.73893 96.9883 5.92122 98.1914 6.21289C98.2552 6.23112 98.3145 6.24479 98.3691 6.25391C99.3262 6.5 99.8366 6.99219 99.9004 7.73047C99.9004 7.77604 99.9004 7.82161 99.9004 7.86719C99.9004 8.67839 99.5677 9.28906 98.9023 9.69922C98.4922 9.94531 98.0319 10.0684 97.5215 10.0684V9.39844C97.9954 9.39844 98.4102 9.22982 98.7656 8.89258C99.0573 8.61003 99.2031 8.27279 99.2031 7.88086C99.2031 7.4707 98.8249 7.14714 98.0684 6.91016C98.0228 6.89193 97.444 6.75065 96.332 6.48633C96.25 6.4681 96.1771 6.44987 96.1133 6.43164C95.3112 6.19466 94.8646 5.77539 94.7734 5.17383C94.7643 5.0918 94.7598 5.00977 94.7598 4.92773ZM97.5078 3.51953V2.82227C98.2734 2.82227 98.8841 3.10938 99.3398 3.68359C99.6315 4.03906 99.7773 4.41276 99.7773 4.80469L99.0938 4.91406C99.0938 4.3763 98.7975 3.9707 98.2051 3.69727C97.9499 3.57878 97.7174 3.51953 97.5078 3.51953ZM100.762 1.90625C100.762 1.70573 100.862 1.56445 101.062 1.48242C101.117 1.46419 101.172 1.45508 101.227 1.45508C101.436 1.45508 101.577 1.55534 101.65 1.75586C101.669 1.81055 101.678 1.86068 101.678 1.90625C101.678 2.11589 101.577 2.25716 101.377 2.33008C101.322 2.34831 101.272 2.35742 101.227 2.35742C101.017 2.35742 100.871 2.26172 100.789 2.07031C100.771 2.01562 100.762 1.96094 100.762 1.90625ZM100.871 10V2.9043H101.582V10H100.871ZM102.525 3.68359V2.98633H103.4V0.402344H104.111V2.98633H104.986V3.68359H104.111V7.79883C104.111 8.55534 104.367 9.02474 104.877 9.20703C105.087 9.27083 105.328 9.30273 105.602 9.30273H105.656L105.82 10H105.533C104.43 9.99089 103.76 9.5625 103.523 8.71484C103.441 8.42318 103.4 8.07682 103.4 7.67578V3.68359H102.525ZM109.621 8.33203C109.621 8.8151 109.858 9.2207 110.332 9.54883C110.733 9.84049 111.216 9.98633 111.781 9.98633V9.31641C111.07 9.31641 110.61 9.08398 110.4 8.61914C110.337 8.47331 110.305 8.31836 110.305 8.1543V7.66211C110.305 7.42513 110.355 7.25651 110.455 7.15625C110.61 7.0013 111.18 6.81445 112.164 6.5957C113.039 6.39518 113.609 6.22656 113.873 6.08984V7.93555C113.864 8.84701 113.376 9.30729 112.41 9.31641V9.98633C113.021 9.98633 113.513 9.84505 113.887 9.5625C113.923 9.53516 113.955 9.50781 113.982 9.48047C114.283 9.79036 114.602 9.95898 114.939 9.98633V9.30273C114.702 9.29362 114.584 9.13867 114.584 8.83789V4.96875C114.584 4.33073 114.356 3.79753 113.9 3.36914C113.499 2.99544 113.003 2.80859 112.41 2.80859V3.46484C112.857 3.46484 113.23 3.64714 113.531 4.01172C113.75 4.28516 113.859 4.59961 113.859 4.95508V5.1875C113.868 5.40625 113.303 5.65234 112.164 5.92578C111.079 6.1901 110.46 6.36328 110.305 6.44531C109.858 6.70052 109.63 7.11523 109.621 7.68945V8.33203ZM109.717 4.61328L110.359 4.85938C110.359 4.33984 110.592 3.94792 111.057 3.68359C111.285 3.54688 111.526 3.47852 111.781 3.47852V2.80859C111.171 2.80859 110.646 3.02734 110.209 3.46484C109.881 3.8112 109.717 4.19401 109.717 4.61328ZM115.979 10V4.77734C115.979 4.20312 116.174 3.72005 116.566 3.32812C116.94 2.98177 117.419 2.80859 118.002 2.80859V3.50586C117.446 3.50586 117.054 3.7474 116.826 4.23047C116.735 4.43099 116.689 4.64518 116.689 4.87305V10H115.979ZM118.604 3.50586V2.80859C119.287 2.80859 119.807 3.04102 120.162 3.50586C120.208 3.56966 120.253 3.63346 120.299 3.69727C120.6 3.24154 120.973 2.96354 121.42 2.86328C121.593 2.82682 121.78 2.80859 121.98 2.80859V3.50586C121.434 3.50586 121.042 3.74284 120.805 4.2168C120.704 4.42643 120.654 4.64518 120.654 4.87305V10H119.943V4.87305C119.943 4.32617 119.729 3.92969 119.301 3.68359C119.091 3.5651 118.859 3.50586 118.604 3.50586ZM122.582 3.50586V2.80859C123.43 2.80859 124.036 3.17773 124.4 3.91602C124.546 4.20768 124.619 4.49479 124.619 4.77734V10H123.908V4.87305C123.908 4.30794 123.685 3.9069 123.238 3.66992C123.038 3.56055 122.819 3.50586 122.582 3.50586ZM125.686 8.04492V4.77734C125.695 4.34896 125.895 3.9388 126.287 3.54688C126.734 3.08203 127.285 2.84961 127.941 2.84961V3.51953C127.422 3.51953 126.993 3.75195 126.656 4.2168C126.483 4.45378 126.396 4.67708 126.396 4.88672V5.9668H130.115V4.88672C130.115 4.43099 129.892 4.06185 129.445 3.7793C129.163 3.59701 128.871 3.50586 128.57 3.50586V2.84961C129.181 2.84961 129.728 3.07292 130.211 3.51953C130.612 3.90234 130.817 4.31706 130.826 4.76367V6.65039H126.396V8.04492C126.396 8.32747 126.57 8.61914 126.916 8.91992C127.244 9.19336 127.59 9.33008 127.955 9.33008V10C127.153 10 126.52 9.67188 126.055 9.01562C125.809 8.66927 125.686 8.3457 125.686 8.04492ZM128.57 10V9.28906C129.163 9.28906 129.628 9.03841 129.965 8.53711C130.065 8.38216 130.133 8.23633 130.17 8.09961L130.84 8.33203C130.639 8.9974 130.234 9.47591 129.623 9.76758C129.295 9.92253 128.944 10 128.57 10ZM131.633 3.68359V2.98633H132.508V0.402344H133.219V2.98633H134.094V3.68359H133.219V7.79883C133.219 8.55534 133.474 9.02474 133.984 9.20703C134.194 9.27083 134.436 9.30273 134.709 9.30273H134.764L134.928 10H134.641C133.538 9.99089 132.868 9.5625 132.631 8.71484C132.549 8.42318 132.508 8.07682 132.508 7.67578V3.68359H131.633ZM135.502 10.3145L136.008 8.23633H136.705L136.199 10.3145H135.502ZM141.08 8.04492C141.08 8.53711 141.267 8.97917 141.641 9.37109C142.06 9.79036 142.607 10 143.281 10V9.31641C142.743 9.31641 142.32 9.0931 142.01 8.64648C141.864 8.43685 141.791 8.23633 141.791 8.04492V4.87305C141.791 4.50846 141.969 4.18034 142.324 3.88867C142.616 3.65169 142.939 3.5332 143.295 3.5332V2.84961C142.456 2.84961 141.823 3.17773 141.395 3.83398C141.185 4.17122 141.08 4.50391 141.08 4.83203V8.04492ZM143.896 3.54688C144.361 3.54688 144.726 3.73828 144.99 4.12109C145.136 4.33073 145.223 4.57227 145.25 4.8457V5.0918L145.934 4.8457C145.934 4.19857 145.669 3.67448 145.141 3.27344C144.767 2.99089 144.352 2.84961 143.896 2.84961V3.54688ZM143.883 10.0137C144.53 10.0137 145.086 9.77214 145.551 9.28906C145.915 8.90625 146.093 8.47786 146.084 8.00391L145.414 7.74414C145.414 7.76237 145.41 7.80339 145.4 7.86719C145.4 7.92188 145.4 7.95833 145.4 7.97656C145.337 8.49609 145.068 8.88802 144.594 9.15234C144.366 9.27083 144.129 9.33008 143.883 9.33008V10.0137ZM147 8.04492V4.79102C147 4.36263 147.191 3.94792 147.574 3.54688C148.03 3.08203 148.595 2.84961 149.27 2.84961V3.5332C148.659 3.5332 148.203 3.78841 147.902 4.29883C147.775 4.52669 147.711 4.75 147.711 4.96875V7.86719C147.711 8.23177 147.884 8.57812 148.23 8.90625C148.54 9.1888 148.887 9.33008 149.27 9.33008V10.0137C148.422 10.0137 147.775 9.67188 147.328 8.98828C147.109 8.66016 147 8.3457 147 8.04492ZM149.844 10.0137V9.33008C150.409 9.33008 150.837 9.07031 151.129 8.55078C151.266 8.32292 151.334 8.10417 151.334 7.89453V4.96875C151.334 4.56771 151.161 4.21224 150.814 3.90234C150.532 3.65625 150.208 3.5332 149.844 3.5332V2.84961C150.664 2.84961 151.293 3.18229 151.73 3.84766C151.94 4.17578 152.045 4.49023 152.045 4.79102V8.04492C152.045 8.48242 151.858 8.90169 151.484 9.30273C151.047 9.76758 150.5 10.0046 149.844 10.0137ZM153.084 10V4.77734C153.084 4.33984 153.28 3.91602 153.672 3.50586C154.137 3.04102 154.706 2.80859 155.381 2.80859V3.51953C154.88 3.51953 154.456 3.71549 154.109 4.10742C153.9 4.35352 153.795 4.60417 153.795 4.85938V10H153.084ZM155.969 3.51953V2.80859C156.789 2.80859 157.436 3.14583 157.91 3.82031C158.147 4.15755 158.266 4.47656 158.266 4.77734V10H157.541V4.85938C157.541 4.56771 157.391 4.27604 157.09 3.98438C156.771 3.67448 156.397 3.51953 155.969 3.51953ZM159.059 8.11328L159.742 7.99023C159.742 8.46419 159.993 8.85156 160.494 9.15234C160.768 9.30729 161.036 9.38932 161.301 9.39844V10.0684C160.508 10.0684 159.888 9.77214 159.441 9.17969C159.186 8.83333 159.059 8.47786 159.059 8.11328ZM159.113 4.92773C159.113 4.09831 159.482 3.48763 160.221 3.0957C160.567 2.91341 160.918 2.82227 161.273 2.82227V3.50586C160.845 3.50586 160.476 3.68359 160.166 4.03906C159.929 4.30339 159.811 4.59961 159.811 4.92773C159.811 5.24674 160.034 5.49284 160.48 5.66602C160.654 5.73893 161.342 5.92122 162.545 6.21289C162.609 6.23112 162.668 6.24479 162.723 6.25391C163.68 6.5 164.19 6.99219 164.254 7.73047C164.254 7.77604 164.254 7.82161 164.254 7.86719C164.254 8.67839 163.921 9.28906 163.256 9.69922C162.846 9.94531 162.385 10.0684 161.875 10.0684V9.39844C162.349 9.39844 162.764 9.22982 163.119 8.89258C163.411 8.61003 163.557 8.27279 163.557 7.88086C163.557 7.4707 163.178 7.14714 162.422 6.91016C162.376 6.89193 161.798 6.75065 160.686 6.48633C160.604 6.4681 160.531 6.44987 160.467 6.43164C159.665 6.19466 159.218 5.77539 159.127 5.17383C159.118 5.0918 159.113 5.00977 159.113 4.92773ZM161.861 3.51953V2.82227C162.627 2.82227 163.238 3.10938 163.693 3.68359C163.985 4.03906 164.131 4.41276 164.131 4.80469L163.447 4.91406C163.447 4.3763 163.151 3.9707 162.559 3.69727C162.303 3.57878 162.071 3.51953 161.861 3.51953ZM165.074 8.04492V4.77734C165.083 4.34896 165.284 3.9388 165.676 3.54688C166.122 3.08203 166.674 2.84961 167.33 2.84961V3.51953C166.811 3.51953 166.382 3.75195 166.045 4.2168C165.872 4.45378 165.785 4.67708 165.785 4.88672V5.9668H169.504V4.88672C169.504 4.43099 169.281 4.06185 168.834 3.7793C168.551 3.59701 168.26 3.50586 167.959 3.50586V2.84961C168.57 2.84961 169.117 3.07292 169.6 3.51953C170.001 3.90234 170.206 4.31706 170.215 4.76367V6.65039H165.785V8.04492C165.785 8.32747 165.958 8.61914 166.305 8.91992C166.633 9.19336 166.979 9.33008 167.344 9.33008V10C166.542 10 165.908 9.67188 165.443 9.01562C165.197 8.66927 165.074 8.3457 165.074 8.04492ZM167.959 10V9.28906C168.551 9.28906 169.016 9.03841 169.354 8.53711C169.454 8.38216 169.522 8.23633 169.559 8.09961L170.229 8.33203C170.028 8.9974 169.622 9.47591 169.012 9.76758C168.684 9.92253 168.333 10 167.959 10ZM171.309 8.04492C171.309 8.53711 171.495 8.97917 171.869 9.37109C172.288 9.79036 172.835 10 173.51 10V9.31641C172.972 9.31641 172.548 9.0931 172.238 8.64648C172.092 8.43685 172.02 8.23633 172.02 8.04492V4.87305C172.02 4.50846 172.197 4.18034 172.553 3.88867C172.844 3.65169 173.168 3.5332 173.523 3.5332V2.84961C172.685 2.84961 172.051 3.17773 171.623 3.83398C171.413 4.17122 171.309 4.50391 171.309 4.83203V8.04492ZM174.125 3.54688C174.59 3.54688 174.954 3.73828 175.219 4.12109C175.365 4.33073 175.451 4.57227 175.479 4.8457V5.0918L176.162 4.8457C176.162 4.19857 175.898 3.67448 175.369 3.27344C174.995 2.99089 174.581 2.84961 174.125 2.84961V3.54688ZM174.111 10.0137C174.758 10.0137 175.314 9.77214 175.779 9.28906C176.144 8.90625 176.322 8.47786 176.312 8.00391L175.643 7.74414C175.643 7.76237 175.638 7.80339 175.629 7.86719C175.629 7.92188 175.629 7.95833 175.629 7.97656C175.565 8.49609 175.296 8.88802 174.822 9.15234C174.594 9.27083 174.357 9.33008 174.111 9.33008V10.0137ZM176.969 3.68359V2.98633H177.844V0.402344H178.555V2.98633H179.43V3.68359H178.555V7.79883C178.555 8.55534 178.81 9.02474 179.32 9.20703C179.53 9.27083 179.771 9.30273 180.045 9.30273H180.1L180.264 10H179.977C178.874 9.99089 178.204 9.5625 177.967 8.71484C177.885 8.42318 177.844 8.07682 177.844 7.67578V3.68359H176.969ZM180.824 8.04492V4.77734C180.833 4.34896 181.034 3.9388 181.426 3.54688C181.872 3.08203 182.424 2.84961 183.08 2.84961V3.51953C182.561 3.51953 182.132 3.75195 181.795 4.2168C181.622 4.45378 181.535 4.67708 181.535 4.88672V5.9668H185.254V4.88672C185.254 4.43099 185.031 4.06185 184.584 3.7793C184.301 3.59701 184.01 3.50586 183.709 3.50586V2.84961C184.32 2.84961 184.867 3.07292 185.35 3.51953C185.751 3.90234 185.956 4.31706 185.965 4.76367V6.65039H181.535V8.04492C181.535 8.32747 181.708 8.61914 182.055 8.91992C182.383 9.19336 182.729 9.33008 183.094 9.33008V10C182.292 10 181.658 9.67188 181.193 9.01562C180.947 8.66927 180.824 8.3457 180.824 8.04492ZM183.709 10V9.28906C184.301 9.28906 184.766 9.03841 185.104 8.53711C185.204 8.38216 185.272 8.23633 185.309 8.09961L185.979 8.33203C185.778 8.9974 185.372 9.47591 184.762 9.76758C184.434 9.92253 184.083 10 183.709 10ZM186.771 3.68359V2.98633H187.646V0.402344H188.357V2.98633H189.232V3.68359H188.357V7.79883C188.357 8.55534 188.613 9.02474 189.123 9.20703C189.333 9.27083 189.574 9.30273 189.848 9.30273H189.902L190.066 10H189.779C188.676 9.99089 188.007 9.5625 187.77 8.71484C187.688 8.42318 187.646 8.07682 187.646 7.67578V3.68359H186.771ZM190.6 8.09961V2.87695H191.311V8.01758C191.311 8.37305 191.502 8.69661 191.885 8.98828C192.186 9.23438 192.523 9.35742 192.896 9.35742V10.0684C192.04 10.0684 191.388 9.73568 190.941 9.07031C190.714 8.73307 190.6 8.40951 190.6 8.09961ZM193.484 10.0684V9.35742C194.049 9.35742 194.492 9.13411 194.811 8.6875C194.975 8.45964 195.057 8.23633 195.057 8.01758V2.87695H195.781V8.09961C195.781 8.51888 195.59 8.92904 195.207 9.33008C194.742 9.81315 194.168 10.0592 193.484 10.0684ZM196.875 10V2.84961H197.586V3.9707C197.768 3.58789 198.074 3.28711 198.502 3.06836C198.785 2.92253 199.076 2.84961 199.377 2.84961H199.459L199.281 3.5332C198.826 3.5332 198.415 3.80664 198.051 4.35352C197.75 4.80924 197.6 5.28776 197.6 5.78906V10H196.875ZM0.519531 29.332C0.519531 29.8151 0.75651 30.2207 1.23047 30.5488C1.63151 30.8405 2.11458 30.9863 2.67969 30.9863V30.3164C1.96875 30.3164 1.50846 30.084 1.29883 29.6191C1.23503 29.4733 1.20312 29.3184 1.20312 29.1543V28.6621C1.20312 28.4251 1.25326 28.2565 1.35352 28.1562C1.50846 28.0013 2.07812 27.8145 3.0625 27.5957C3.9375 27.3952 4.50716 27.2266 4.77148 27.0898V28.9355C4.76237 29.847 4.27474 30.3073 3.30859 30.3164V30.9863C3.91927 30.9863 4.41146 30.8451 4.78516 30.5625C4.82161 30.5352 4.85352 30.5078 4.88086 30.4805C5.18164 30.7904 5.50065 30.959 5.83789 30.9863V30.3027C5.60091 30.2936 5.48242 30.1387 5.48242 29.8379V25.9688C5.48242 25.3307 5.25456 24.7975 4.79883 24.3691C4.39779 23.9954 3.90104 23.8086 3.30859 23.8086V24.4648C3.75521 24.4648 4.12891 24.6471 4.42969 25.0117C4.64844 25.2852 4.75781 25.5996 4.75781 25.9551V26.1875C4.76693 26.4062 4.20182 26.6523 3.0625 26.9258C1.97786 27.1901 1.35807 27.3633 1.20312 27.4453C0.75651 27.7005 0.528646 28.1152 0.519531 28.6895V29.332ZM0.615234 25.6133L1.25781 25.8594C1.25781 25.3398 1.49023 24.9479 1.95508 24.6836C2.18294 24.5469 2.42448 24.4785 2.67969 24.4785V23.8086C2.06901 23.8086 1.54492 24.0273 1.10742 24.4648C0.779297 24.8112 0.615234 25.194 0.615234 25.6133ZM6.76758 29.0449V25.7773C6.76758 25.2578 7.00911 24.793 7.49219 24.3828C7.91146 24.0273 8.3763 23.8496 8.88672 23.8496H10.3633V24.5332H8.90039C8.47201 24.5332 8.09831 24.7201 7.7793 25.0938C7.57878 25.3398 7.47852 25.5859 7.47852 25.832V29.0176C7.47852 29.4186 7.69727 29.765 8.13477 30.0566C8.39909 30.2298 8.65885 30.3164 8.91406 30.3164H10.3633V31H8.92773C8.12565 31 7.51042 30.6628 7.08203 29.9883C6.8724 29.651 6.76758 29.3366 6.76758 29.0449ZM10.9922 31V21.416H11.7168V31H10.9922ZM12.8516 22.9062C12.8516 22.7057 12.9518 22.5645 13.1523 22.4824C13.207 22.4642 13.2617 22.4551 13.3164 22.4551C13.526 22.4551 13.6673 22.5553 13.7402 22.7559C13.7585 22.8105 13.7676 22.8607 13.7676 22.9062C13.7676 23.1159 13.6673 23.2572 13.4668 23.3301C13.4121 23.3483 13.362 23.3574 13.3164 23.3574C13.1068 23.3574 12.9609 23.2617 12.8789 23.0703C12.8607 23.0156 12.8516 22.9609 12.8516 22.9062ZM12.9609 31V23.9043H13.6719V31H12.9609ZM16.3516 31V30.3164H17.7324C18.3796 30.3164 18.8398 30.0794 19.1133 29.6055C19.2227 29.4141 19.2773 29.2181 19.2773 29.0176V25.8457C19.2773 25.5085 19.1042 25.1986 18.7578 24.916C18.4388 24.6608 18.0605 24.5332 17.623 24.5332H16.2695V23.8496H17.623C18.5163 23.8496 19.1953 24.1868 19.6602 24.8613C19.8789 25.1895 19.9883 25.5039 19.9883 25.8047V29.0723C19.9883 29.528 19.7878 29.9518 19.3867 30.3438C18.9401 30.7812 18.3841 31 17.7188 31H16.3516ZM14.9297 33.5156V23.8496H15.6543V33.5156H14.9297ZM21.082 22.9062C21.082 22.7057 21.1823 22.5645 21.3828 22.4824C21.4375 22.4642 21.4922 22.4551 21.5469 22.4551C21.7565 22.4551 21.8978 22.5553 21.9707 22.7559C21.9889 22.8105 21.998 22.8607 21.998 22.9062C21.998 23.1159 21.8978 23.2572 21.6973 23.3301C21.6426 23.3483 21.5924 23.3574 21.5469 23.3574C21.3372 23.3574 21.1914 23.2617 21.1094 23.0703C21.0911 23.0156 21.082 22.9609 21.082 22.9062ZM21.1914 31V23.9043H21.9023V31H21.1914ZM22.8594 29.1133L23.543 28.9902C23.543 29.4642 23.7936 29.8516 24.2949 30.1523C24.5684 30.3073 24.8372 30.3893 25.1016 30.3984V31.0684C24.3086 31.0684 23.6888 30.7721 23.2422 30.1797C22.987 29.8333 22.8594 29.4779 22.8594 29.1133ZM22.9141 25.9277C22.9141 25.0983 23.2832 24.4876 24.0215 24.0957C24.3678 23.9134 24.7188 23.8223 25.0742 23.8223V24.5059C24.6458 24.5059 24.2767 24.6836 23.9668 25.0391C23.7298 25.3034 23.6113 25.5996 23.6113 25.9277C23.6113 26.2467 23.8346 26.4928 24.2812 26.666C24.4544 26.7389 25.1426 26.9212 26.3457 27.2129C26.4095 27.2311 26.4688 27.2448 26.5234 27.2539C27.4805 27.5 27.9909 27.9922 28.0547 28.7305C28.0547 28.776 28.0547 28.8216 28.0547 28.8672C28.0547 29.6784 27.722 30.2891 27.0566 30.6992C26.6465 30.9453 26.1862 31.0684 25.6758 31.0684V30.3984C26.1497 30.3984 26.5645 30.2298 26.9199 29.8926C27.2116 29.61 27.3574 29.2728 27.3574 28.8809C27.3574 28.4707 26.9792 28.1471 26.2227 27.9102C26.1771 27.8919 25.5983 27.7507 24.4863 27.4863C24.4043 27.4681 24.3314 27.4499 24.2676 27.4316C23.4655 27.1947 23.0189 26.7754 22.9277 26.1738C22.9186 26.0918 22.9141 26.0098 22.9141 25.9277ZM25.6621 24.5195V23.8223C26.4277 23.8223 27.0384 24.1094 27.4941 24.6836C27.7858 25.0391 27.9316 25.4128 27.9316 25.8047L27.248 25.9141C27.248 25.3763 26.9518 24.9707 26.3594 24.6973C26.1042 24.5788 25.8717 24.5195 25.6621 24.5195ZM28.875 29.0449C28.875 29.5371 29.0618 29.9792 29.4355 30.3711C29.8548 30.7904 30.4017 31 31.0762 31V30.3164C30.5384 30.3164 30.1146 30.0931 29.8047 29.6465C29.6589 29.4368 29.5859 29.2363 29.5859 29.0449V25.873C29.5859 25.5085 29.7637 25.1803 30.1191 24.8887C30.4108 24.6517 30.7344 24.5332 31.0898 24.5332V23.8496C30.2513 23.8496 29.6178 24.1777 29.1895 24.834C28.9798 25.1712 28.875 25.5039 28.875 25.832V29.0449ZM31.6914 24.5469C32.1562 24.5469 32.5208 24.7383 32.7852 25.1211C32.931 25.3307 33.0176 25.5723 33.0449 25.8457V26.0918L33.7285 25.8457C33.7285 25.1986 33.4642 24.6745 32.9355 24.2734C32.5618 23.9909 32.1471 23.8496 31.6914 23.8496V24.5469ZM31.6777 31.0137C32.3249 31.0137 32.8809 30.7721 33.3457 30.2891C33.7103 29.9062 33.888 29.4779 33.8789 29.0039L33.209 28.7441C33.209 28.7624 33.2044 28.8034 33.1953 28.8672C33.1953 28.9219 33.1953 28.9583 33.1953 28.9766C33.1315 29.4961 32.8626 29.888 32.3887 30.1523C32.1608 30.2708 31.9238 30.3301 31.6777 30.3301V31.0137ZM34.8633 22.9062C34.8633 22.7057 34.9635 22.5645 35.1641 22.4824C35.2188 22.4642 35.2734 22.4551 35.3281 22.4551C35.5378 22.4551 35.679 22.5553 35.752 22.7559C35.7702 22.8105 35.7793 22.8607 35.7793 22.9062C35.7793 23.1159 35.679 23.2572 35.4785 23.3301C35.4238 23.3483 35.3737 23.3574 35.3281 23.3574C35.1185 23.3574 34.9727 23.2617 34.8906 23.0703C34.8724 23.0156 34.8633 22.9609 34.8633 22.9062ZM34.9727 31V23.9043H35.6836V31H34.9727ZM36.8867 31V25.7773C36.8867 25.3398 37.0827 24.916 37.4746 24.5059C37.9395 24.041 38.5091 23.8086 39.1836 23.8086V24.5195C38.6823 24.5195 38.2585 24.7155 37.9121 25.1074C37.7025 25.3535 37.5977 25.6042 37.5977 25.8594V31H36.8867ZM39.7715 24.5195V23.8086C40.5918 23.8086 41.2389 24.1458 41.7129 24.8203C41.9499 25.1576 42.0684 25.4766 42.0684 25.7773V31H41.3438V25.8594C41.3438 25.5677 41.1934 25.276 40.8926 24.9844C40.5736 24.6745 40.1999 24.5195 39.7715 24.5195ZM42.9844 33.4883L43.1621 32.8184H45.6641C46.3021 32.791 46.7806 32.5495 47.0996 32.0938C47.2363 31.9023 47.3047 31.7155 47.3047 31.5332V30.3301C47.0586 30.64 46.7122 30.8451 46.2656 30.9453C46.1289 30.9818 45.9922 31 45.8555 31V30.3574C46.2747 30.3574 46.6484 30.1706 46.9766 29.7969C47.1953 29.5508 47.3047 29.3047 47.3047 29.0586V25.8047C47.3047 25.3125 47.0449 24.9388 46.5254 24.6836C46.2884 24.5651 46.0651 24.5059 45.8555 24.5059V23.8359C46.3385 23.8359 46.7715 23.9909 47.1543 24.3008C47.2181 24.3555 47.2682 24.4056 47.3047 24.4512V23.8359H48.002V31.5332C48.002 31.916 47.8288 32.3125 47.4824 32.7227C47.054 33.224 46.5208 33.4792 45.8828 33.4883H42.9844ZM43.1074 29.0586V25.75C43.1165 25.3216 43.3034 24.9069 43.668 24.5059C44.0964 24.0592 44.6204 23.8359 45.2402 23.8359V24.5059C44.7572 24.5059 44.3561 24.7292 44.0371 25.1758C43.8822 25.3945 43.8047 25.5996 43.8047 25.791V29.0449C43.8047 29.3548 43.9642 29.6556 44.2832 29.9473C44.5749 30.2025 44.8939 30.3301 45.2402 30.3301V31C44.4199 30.9909 43.8047 30.64 43.3945 29.9473C43.2031 29.6374 43.1074 29.3411 43.1074 29.0586ZM52.3633 29.0449V25.7773C52.3724 25.349 52.5729 24.9388 52.9648 24.5469C53.4115 24.082 53.9629 23.8496 54.6191 23.8496V24.5195C54.0996 24.5195 53.6712 24.752 53.334 25.2168C53.1608 25.4538 53.0742 25.6771 53.0742 25.8867V26.9668H56.793V25.8867C56.793 25.431 56.5697 25.0618 56.123 24.7793C55.8405 24.597 55.5488 24.5059 55.248 24.5059V23.8496C55.8587 23.8496 56.4056 24.0729 56.8887 24.5195C57.2897 24.9023 57.4948 25.3171 57.5039 25.7637V27.6504H53.0742V29.0449C53.0742 29.3275 53.2474 29.6191 53.5938 29.9199C53.9219 30.1934 54.2682 30.3301 54.6328 30.3301V31C53.8307 31 53.1973 30.6719 52.7324 30.0156C52.4863 29.6693 52.3633 29.3457 52.3633 29.0449ZM55.248 31V30.2891C55.8405 30.2891 56.3053 30.0384 56.6426 29.5371C56.7428 29.3822 56.8112 29.2363 56.8477 29.0996L57.5176 29.332C57.3171 29.9974 56.9115 30.4759 56.3008 30.7676C55.9727 30.9225 55.6217 31 55.248 31ZM58.625 31V21.4297H59.3633V31H58.625ZM60.5254 22.9062C60.5254 22.7057 60.6257 22.5645 60.8262 22.4824C60.8809 22.4642 60.9355 22.4551 60.9902 22.4551C61.1999 22.4551 61.3411 22.5553 61.4141 22.7559C61.4323 22.8105 61.4414 22.8607 61.4414 22.9062C61.4414 23.1159 61.3411 23.2572 61.1406 23.3301C61.0859 23.3483 61.0358 23.3574 60.9902 23.3574C60.7806 23.3574 60.6348 23.2617 60.5527 23.0703C60.5345 23.0156 60.5254 22.9609 60.5254 22.9062ZM60.6348 31V23.9043H61.3457V31H60.6348ZM62.2891 24.6836V23.9863H63.1641V21.4023H63.875V23.9863H64.75V24.6836H63.875V28.7988C63.875 29.5553 64.1302 30.0247 64.6406 30.207C64.8503 30.2708 65.0918 30.3027 65.3652 30.3027H65.4199L65.584 31H65.2969C64.194 30.9909 63.5241 30.5625 63.2871 29.7148C63.2051 29.4232 63.1641 29.0768 63.1641 28.6758V24.6836H62.2891ZM66.1309 30.4531C66.1309 30.1979 66.2493 30.0202 66.4863 29.9199C66.5684 29.8835 66.6458 29.8652 66.7188 29.8652C66.9831 29.8652 67.1654 29.9883 67.2656 30.2344C67.3021 30.3073 67.3203 30.3802 67.3203 30.4531C67.3203 30.7174 67.1973 30.9043 66.9512 31.0137C66.8691 31.041 66.7917 31.0547 66.7188 31.0547C66.4635 31.0547 66.2812 30.9316 66.1719 30.6855C66.1445 30.6035 66.1309 30.526 66.1309 30.4531ZM71.6953 31V21.4297H72.4199V31H71.6953ZM73.4043 29.0449V25.7773C73.4043 25.2578 73.6458 24.793 74.1289 24.3828C74.5482 24.0273 75.013 23.8496 75.5234 23.8496H77V24.5332H75.5371C75.1087 24.5332 74.735 24.7201 74.416 25.0938C74.2155 25.3398 74.1152 25.5859 74.1152 25.832V29.0176C74.1152 29.4186 74.334 29.765 74.7715 30.0566C75.0358 30.2298 75.2956 30.3164 75.5508 30.3164H77V31H75.5645C74.7624 31 74.1471 30.6628 73.7188 29.9883C73.5091 29.651 73.4043 29.3366 73.4043 29.0449ZM77.6289 31V21.416H78.3535V31H77.6289ZM82.6875 29.332C82.6875 29.8151 82.9245 30.2207 83.3984 30.5488C83.7995 30.8405 84.2826 30.9863 84.8477 30.9863V30.3164C84.1367 30.3164 83.6764 30.084 83.4668 29.6191C83.403 29.4733 83.3711 29.3184 83.3711 29.1543V28.6621C83.3711 28.4251 83.4212 28.2565 83.5215 28.1562C83.6764 28.0013 84.2461 27.8145 85.2305 27.5957C86.1055 27.3952 86.6751 27.2266 86.9395 27.0898V28.9355C86.9303 29.847 86.4427 30.3073 85.4766 30.3164V30.9863C86.0872 30.9863 86.5794 30.8451 86.9531 30.5625C86.9896 30.5352 87.0215 30.5078 87.0488 30.4805C87.3496 30.7904 87.6686 30.959 88.0059 30.9863V30.3027C87.7689 30.2936 87.6504 30.1387 87.6504 29.8379V25.9688C87.6504 25.3307 87.4225 24.7975 86.9668 24.3691C86.5658 23.9954 86.069 23.8086 85.4766 23.8086V24.4648C85.9232 24.4648 86.2969 24.6471 86.5977 25.0117C86.8164 25.2852 86.9258 25.5996 86.9258 25.9551V26.1875C86.9349 26.4062 86.3698 26.6523 85.2305 26.9258C84.1458 27.1901 83.526 27.3633 83.3711 27.4453C82.9245 27.7005 82.6966 28.1152 82.6875 28.6895V29.332ZM82.7832 25.6133L83.4258 25.8594C83.4258 25.3398 83.6582 24.9479 84.123 24.6836C84.3509 24.5469 84.5924 24.4785 84.8477 24.4785V23.8086C84.237 23.8086 83.7129 24.0273 83.2754 24.4648C82.9473 24.8112 82.7832 25.194 82.7832 25.6133ZM89.0723 29.0449C89.0723 29.5371 89.2591 29.9792 89.6328 30.3711C90.0521 30.7904 90.599 31 91.2734 31V30.3164C90.7357 30.3164 90.3118 30.0931 90.002 29.6465C89.8561 29.4368 89.7832 29.2363 89.7832 29.0449V25.873C89.7832 25.5085 89.9609 25.1803 90.3164 24.8887C90.6081 24.6517 90.9316 24.5332 91.2871 24.5332V23.8496C90.4486 23.8496 89.8151 24.1777 89.3867 24.834C89.1771 25.1712 89.0723 25.5039 89.0723 25.832V29.0449ZM91.8887 24.5469C92.3535 24.5469 92.7181 24.7383 92.9824 25.1211C93.1283 25.3307 93.2148 25.5723 93.2422 25.8457V26.0918L93.9258 25.8457C93.9258 25.1986 93.6615 24.6745 93.1328 24.2734C92.7591 23.9909 92.3444 23.8496 91.8887 23.8496V24.5469ZM91.875 31.0137C92.5221 31.0137 93.0781 30.7721 93.543 30.2891C93.9076 29.9062 94.0853 29.4779 94.0762 29.0039L93.4062 28.7441C93.4062 28.7624 93.4017 28.8034 93.3926 28.8672C93.3926 28.9219 93.3926 28.9583 93.3926 28.9766C93.3288 29.4961 93.0599 29.888 92.5859 30.1523C92.3581 30.2708 92.1211 30.3301 91.875 30.3301V31.0137ZM95.0195 29.0449C95.0195 29.5371 95.2064 29.9792 95.5801 30.3711C95.9993 30.7904 96.5462 31 97.2207 31V30.3164C96.6829 30.3164 96.2591 30.0931 95.9492 29.6465C95.8034 29.4368 95.7305 29.2363 95.7305 29.0449V25.873C95.7305 25.5085 95.9082 25.1803 96.2637 24.8887C96.5553 24.6517 96.8789 24.5332 97.2344 24.5332V23.8496C96.3958 23.8496 95.7624 24.1777 95.334 24.834C95.1243 25.1712 95.0195 25.5039 95.0195 25.832V29.0449ZM97.8359 24.5469C98.3008 24.5469 98.6654 24.7383 98.9297 25.1211C99.0755 25.3307 99.1621 25.5723 99.1895 25.8457V26.0918L99.873 25.8457C99.873 25.1986 99.6087 24.6745 99.0801 24.2734C98.7064 23.9909 98.2917 23.8496 97.8359 23.8496V24.5469ZM97.8223 31.0137C98.4694 31.0137 99.0254 30.7721 99.4902 30.2891C99.8548 29.9062 100.033 29.4779 100.023 29.0039L99.3535 28.7441C99.3535 28.7624 99.349 28.8034 99.3398 28.8672C99.3398 28.9219 99.3398 28.9583 99.3398 28.9766C99.276 29.4961 99.0072 29.888 98.5332 30.1523C98.3053 30.2708 98.0684 30.3301 97.8223 30.3301V31.0137ZM100.939 29.0996V23.877H101.65V29.0176C101.65 29.373 101.842 29.6966 102.225 29.9883C102.525 30.2344 102.863 30.3574 103.236 30.3574V31.0684C102.38 31.0684 101.728 30.7357 101.281 30.0703C101.053 29.7331 100.939 29.4095 100.939 29.0996ZM103.824 31.0684V30.3574C104.389 30.3574 104.831 30.1341 105.15 29.6875C105.314 29.4596 105.396 29.2363 105.396 29.0176V23.877H106.121V29.0996C106.121 29.5189 105.93 29.929 105.547 30.3301C105.082 30.8132 104.508 31.0592 103.824 31.0684ZM107.16 31V25.7773C107.16 25.2031 107.356 24.7201 107.748 24.3281C108.122 23.9818 108.6 23.8086 109.184 23.8086V24.5059C108.628 24.5059 108.236 24.7474 108.008 25.2305C107.917 25.431 107.871 25.6452 107.871 25.873V31H107.16ZM109.785 24.5059V23.8086C110.469 23.8086 110.988 24.041 111.344 24.5059C111.389 24.5697 111.435 24.6335 111.48 24.6973C111.781 24.2415 112.155 23.9635 112.602 23.8633C112.775 23.8268 112.962 23.8086 113.162 23.8086V24.5059C112.615 24.5059 112.223 24.7428 111.986 25.2168C111.886 25.4264 111.836 25.6452 111.836 25.873V31H111.125V25.873C111.125 25.3262 110.911 24.9297 110.482 24.6836C110.273 24.5651 110.04 24.5059 109.785 24.5059ZM113.764 24.5059V23.8086C114.611 23.8086 115.217 24.1777 115.582 24.916C115.728 25.2077 115.801 25.4948 115.801 25.7773V31H115.09V25.873C115.09 25.3079 114.867 24.9069 114.42 24.6699C114.219 24.5605 114.001 24.5059 113.764 24.5059ZM116.594 29.1133L117.277 28.9902C117.277 29.4642 117.528 29.8516 118.029 30.1523C118.303 30.3073 118.572 30.3893 118.836 30.3984V31.0684C118.043 31.0684 117.423 30.7721 116.977 30.1797C116.721 29.8333 116.594 29.4779 116.594 29.1133ZM116.648 25.9277C116.648 25.0983 117.018 24.4876 117.756 24.0957C118.102 23.9134 118.453 23.8223 118.809 23.8223V24.5059C118.38 24.5059 118.011 24.6836 117.701 25.0391C117.464 25.3034 117.346 25.5996 117.346 25.9277C117.346 26.2467 117.569 26.4928 118.016 26.666C118.189 26.7389 118.877 26.9212 120.08 27.2129C120.144 27.2311 120.203 27.2448 120.258 27.2539C121.215 27.5 121.725 27.9922 121.789 28.7305C121.789 28.776 121.789 28.8216 121.789 28.8672C121.789 29.6784 121.456 30.2891 120.791 30.6992C120.381 30.9453 119.921 31.0684 119.41 31.0684V30.3984C119.884 30.3984 120.299 30.2298 120.654 29.8926C120.946 29.61 121.092 29.2728 121.092 28.8809C121.092 28.4707 120.714 28.1471 119.957 27.9102C119.911 27.8919 119.333 27.7507 118.221 27.4863C118.139 27.4681 118.066 27.4499 118.002 27.4316C117.2 27.1947 116.753 26.7754 116.662 26.1738C116.653 26.0918 116.648 26.0098 116.648 25.9277ZM119.396 24.5195V23.8223C120.162 23.8223 120.773 24.1094 121.229 24.6836C121.52 25.0391 121.666 25.4128 121.666 25.8047L120.982 25.9141C120.982 25.3763 120.686 24.9707 120.094 24.6973C119.839 24.5788 119.606 24.5195 119.396 24.5195ZM122.582 29.332C122.582 29.8151 122.819 30.2207 123.293 30.5488C123.694 30.8405 124.177 30.9863 124.742 30.9863V30.3164C124.031 30.3164 123.571 30.084 123.361 29.6191C123.298 29.4733 123.266 29.3184 123.266 29.1543V28.6621C123.266 28.4251 123.316 28.2565 123.416 28.1562C123.571 28.0013 124.141 27.8145 125.125 27.5957C126 27.3952 126.57 27.2266 126.834 27.0898V28.9355C126.825 29.847 126.337 30.3073 125.371 30.3164V30.9863C125.982 30.9863 126.474 30.8451 126.848 30.5625C126.884 30.5352 126.916 30.5078 126.943 30.4805C127.244 30.7904 127.563 30.959 127.9 30.9863V30.3027C127.663 30.2936 127.545 30.1387 127.545 29.8379V25.9688C127.545 25.3307 127.317 24.7975 126.861 24.3691C126.46 23.9954 125.964 23.8086 125.371 23.8086V24.4648C125.818 24.4648 126.191 24.6471 126.492 25.0117C126.711 25.2852 126.82 25.5996 126.82 25.9551V26.1875C126.829 26.4062 126.264 26.6523 125.125 26.9258C124.04 27.1901 123.421 27.3633 123.266 27.4453C122.819 27.7005 122.591 28.1152 122.582 28.6895V29.332ZM122.678 25.6133L123.32 25.8594C123.32 25.3398 123.553 24.9479 124.018 24.6836C124.245 24.5469 124.487 24.4785 124.742 24.4785V23.8086C124.132 23.8086 123.607 24.0273 123.17 24.4648C122.842 24.8112 122.678 25.194 122.678 25.6133ZM128.939 31V25.7773C128.939 25.3398 129.135 24.916 129.527 24.5059C129.992 24.041 130.562 23.8086 131.236 23.8086V24.5195C130.735 24.5195 130.311 24.7155 129.965 25.1074C129.755 25.3535 129.65 25.6042 129.65 25.8594V31H128.939ZM131.824 24.5195V23.8086C132.645 23.8086 133.292 24.1458 133.766 24.8203C134.003 25.1576 134.121 25.4766 134.121 25.7773V31H133.396V25.8594C133.396 25.5677 133.246 25.276 132.945 24.9844C132.626 24.6745 132.253 24.5195 131.824 24.5195ZM135.201 31.3145L135.707 29.2363H136.404L135.898 31.3145H135.201ZM140.82 22.9062C140.82 22.7057 140.921 22.5645 141.121 22.4824C141.176 22.4642 141.23 22.4551 141.285 22.4551C141.495 22.4551 141.636 22.5553 141.709 22.7559C141.727 22.8105 141.736 22.8607 141.736 22.9062C141.736 23.1159 141.636 23.2572 141.436 23.3301C141.381 23.3483 141.331 23.3574 141.285 23.3574C141.076 23.3574 140.93 23.2617 140.848 23.0703C140.829 23.0156 140.82 22.9609 140.82 22.9062ZM140.93 31V23.9043H141.641V31H140.93ZM142.734 29.0449V25.7773C142.734 25.2578 142.976 24.793 143.459 24.3828C143.878 24.0273 144.343 23.8496 144.854 23.8496H146.33V24.5332H144.867C144.439 24.5332 144.065 24.7201 143.746 25.0938C143.546 25.3398 143.445 25.5859 143.445 25.832V29.0176C143.445 29.4186 143.664 29.765 144.102 30.0566C144.366 30.2298 144.626 30.3164 144.881 30.3164H146.33V31H144.895C144.092 31 143.477 30.6628 143.049 29.9883C142.839 29.651 142.734 29.3366 142.734 29.0449ZM146.959 31V21.416H147.684V31H146.959ZM151.635 23.8633H152.428L154.656 30.3848L154.424 31H154.055L151.635 23.8633ZM154.492 28.5664L156.16 23.8633H156.953L154.971 29.4961H154.807L154.492 28.5664ZM157.678 22.9062C157.678 22.7057 157.778 22.5645 157.979 22.4824C158.033 22.4642 158.088 22.4551 158.143 22.4551C158.352 22.4551 158.493 22.5553 158.566 22.7559C158.585 22.8105 158.594 22.8607 158.594 22.9062C158.594 23.1159 158.493 23.2572 158.293 23.3301C158.238 23.3483 158.188 23.3574 158.143 23.3574C157.933 23.3574 157.787 23.2617 157.705 23.0703C157.687 23.0156 157.678 22.9609 157.678 22.9062ZM157.787 31V23.9043H158.498V31H157.787ZM159.441 24.6836V23.9863H160.316V21.4023H161.027V23.9863H161.902V24.6836H161.027V28.7988C161.027 29.5553 161.283 30.0247 161.793 30.207C162.003 30.2708 162.244 30.3027 162.518 30.3027H162.572L162.736 31H162.449C161.346 30.9909 160.676 30.5625 160.439 29.7148C160.357 29.4232 160.316 29.0768 160.316 28.6758V24.6836H159.441ZM163.27 29.332C163.27 29.8151 163.507 30.2207 163.98 30.5488C164.382 30.8405 164.865 30.9863 165.43 30.9863V30.3164C164.719 30.3164 164.258 30.084 164.049 29.6191C163.985 29.4733 163.953 29.3184 163.953 29.1543V28.6621C163.953 28.4251 164.003 28.2565 164.104 28.1562C164.258 28.0013 164.828 27.8145 165.812 27.5957C166.688 27.3952 167.257 27.2266 167.521 27.0898V28.9355C167.512 29.847 167.025 30.3073 166.059 30.3164V30.9863C166.669 30.9863 167.161 30.8451 167.535 30.5625C167.572 30.5352 167.604 30.5078 167.631 30.4805C167.932 30.7904 168.251 30.959 168.588 30.9863V30.3027C168.351 30.2936 168.232 30.1387 168.232 29.8379V25.9688C168.232 25.3307 168.005 24.7975 167.549 24.3691C167.148 23.9954 166.651 23.8086 166.059 23.8086V24.4648C166.505 24.4648 166.879 24.6471 167.18 25.0117C167.398 25.2852 167.508 25.5996 167.508 25.9551V26.1875C167.517 26.4062 166.952 26.6523 165.812 26.9258C164.728 27.1901 164.108 27.3633 163.953 27.4453C163.507 27.7005 163.279 28.1152 163.27 28.6895V29.332ZM163.365 25.6133L164.008 25.8594C164.008 25.3398 164.24 24.9479 164.705 24.6836C164.933 24.5469 165.174 24.4785 165.43 24.4785V23.8086C164.819 23.8086 164.295 24.0273 163.857 24.4648C163.529 24.8112 163.365 25.194 163.365 25.6133ZM169.654 29.0449V25.7773C169.663 25.349 169.864 24.9388 170.256 24.5469C170.702 24.082 171.254 23.8496 171.91 23.8496V24.5195C171.391 24.5195 170.962 24.752 170.625 25.2168C170.452 25.4538 170.365 25.6771 170.365 25.8867V26.9668H174.084V25.8867C174.084 25.431 173.861 25.0618 173.414 24.7793C173.132 24.597 172.84 24.5059 172.539 24.5059V23.8496C173.15 23.8496 173.697 24.0729 174.18 24.5195C174.581 24.9023 174.786 25.3171 174.795 25.7637V27.6504H170.365V29.0449C170.365 29.3275 170.538 29.6191 170.885 29.9199C171.213 30.1934 171.559 30.3301 171.924 30.3301V31C171.122 31 170.488 30.6719 170.023 30.0156C169.777 29.6693 169.654 29.3457 169.654 29.0449ZM172.539 31V30.2891C173.132 30.2891 173.596 30.0384 173.934 29.5371C174.034 29.3822 174.102 29.2363 174.139 29.0996L174.809 29.332C174.608 29.9974 174.202 30.4759 173.592 30.7676C173.264 30.9225 172.913 31 172.539 31ZM179.129 29.332C179.129 29.8151 179.366 30.2207 179.84 30.5488C180.241 30.8405 180.724 30.9863 181.289 30.9863V30.3164C180.578 30.3164 180.118 30.084 179.908 29.6191C179.844 29.4733 179.812 29.3184 179.812 29.1543V28.6621C179.812 28.4251 179.863 28.2565 179.963 28.1562C180.118 28.0013 180.688 27.8145 181.672 27.5957C182.547 27.3952 183.117 27.2266 183.381 27.0898V28.9355C183.372 29.847 182.884 30.3073 181.918 30.3164V30.9863C182.529 30.9863 183.021 30.8451 183.395 30.5625C183.431 30.5352 183.463 30.5078 183.49 30.4805C183.791 30.7904 184.11 30.959 184.447 30.9863V30.3027C184.21 30.2936 184.092 30.1387 184.092 29.8379V25.9688C184.092 25.3307 183.864 24.7975 183.408 24.3691C183.007 23.9954 182.51 23.8086 181.918 23.8086V24.4648C182.365 24.4648 182.738 24.6471 183.039 25.0117C183.258 25.2852 183.367 25.5996 183.367 25.9551V26.1875C183.376 26.4062 182.811 26.6523 181.672 26.9258C180.587 27.1901 179.967 27.3633 179.812 27.4453C179.366 27.7005 179.138 28.1152 179.129 28.6895V29.332ZM179.225 25.6133L179.867 25.8594C179.867 25.3398 180.1 24.9479 180.564 24.6836C180.792 24.5469 181.034 24.4785 181.289 24.4785V23.8086C180.678 23.8086 180.154 24.0273 179.717 24.4648C179.389 24.8112 179.225 25.194 179.225 25.6133ZM185.486 31V25.7773C185.486 25.2031 185.682 24.7201 186.074 24.3281C186.448 23.9818 186.926 23.8086 187.51 23.8086V24.5059C186.954 24.5059 186.562 24.7474 186.334 25.2305C186.243 25.431 186.197 25.6452 186.197 25.873V31H185.486ZM188.111 24.5059V23.8086C188.795 23.8086 189.314 24.041 189.67 24.5059C189.715 24.5697 189.761 24.6335 189.807 24.6973C190.107 24.2415 190.481 23.9635 190.928 23.8633C191.101 23.8268 191.288 23.8086 191.488 23.8086V24.5059C190.941 24.5059 190.549 24.7428 190.312 25.2168C190.212 25.4264 190.162 25.6452 190.162 25.873V31H189.451V25.873C189.451 25.3262 189.237 24.9297 188.809 24.6836C188.599 24.5651 188.367 24.5059 188.111 24.5059ZM192.09 24.5059V23.8086C192.938 23.8086 193.544 24.1777 193.908 24.916C194.054 25.2077 194.127 25.4948 194.127 25.7773V31H193.416V25.873C193.416 25.3079 193.193 24.9069 192.746 24.6699C192.546 24.5605 192.327 24.5059 192.09 24.5059ZM195.193 29.0449V25.7773C195.202 25.349 195.403 24.9388 195.795 24.5469C196.242 24.082 196.793 23.8496 197.449 23.8496V24.5195C196.93 24.5195 196.501 24.752 196.164 25.2168C195.991 25.4538 195.904 25.6771 195.904 25.8867V26.9668H199.623V25.8867C199.623 25.431 199.4 25.0618 198.953 24.7793C198.671 24.597 198.379 24.5059 198.078 24.5059V23.8496C198.689 23.8496 199.236 24.0729 199.719 24.5195C200.12 24.9023 200.325 25.3171 200.334 25.7637V27.6504H195.904V29.0449C195.904 29.3275 196.077 29.6191 196.424 29.9199C196.752 30.1934 197.098 30.3301 197.463 30.3301V31C196.661 31 196.027 30.6719 195.562 30.0156C195.316 29.6693 195.193 29.3457 195.193 29.0449ZM198.078 31V30.2891C198.671 30.2891 199.135 30.0384 199.473 29.5371C199.573 29.3822 199.641 29.2363 199.678 29.0996L200.348 29.332C200.147 29.9974 199.742 30.4759 199.131 30.7676C198.803 30.9225 198.452 31 198.078 31ZM201.141 24.6836V23.9863H202.016V21.4023H202.727V23.9863H203.602V24.6836H202.727V28.7988C202.727 29.5553 202.982 30.0247 203.492 30.207C203.702 30.2708 203.943 30.3027 204.217 30.3027H204.271L204.436 31H204.148C203.046 30.9909 202.376 30.5625 202.139 29.7148C202.057 29.4232 202.016 29.0768 202.016 28.6758V24.6836H201.141ZM205.01 31.3145L205.516 29.2363H206.213L205.707 31.3145H205.01ZM210.178 23.8633H210.971L213.199 30.3848L212.967 31H212.598L210.178 23.8633ZM213.035 28.5664L214.703 23.8633H215.496L213.514 29.4961H213.35L213.035 28.5664ZM216.152 29.332C216.152 29.8151 216.389 30.2207 216.863 30.5488C217.264 30.8405 217.747 30.9863 218.312 30.9863V30.3164C217.602 30.3164 217.141 30.084 216.932 29.6191C216.868 29.4733 216.836 29.3184 216.836 29.1543V28.6621C216.836 28.4251 216.886 28.2565 216.986 28.1562C217.141 28.0013 217.711 27.8145 218.695 27.5957C219.57 27.3952 220.14 27.2266 220.404 27.0898V28.9355C220.395 29.847 219.908 30.3073 218.941 30.3164V30.9863C219.552 30.9863 220.044 30.8451 220.418 30.5625C220.454 30.5352 220.486 30.5078 220.514 30.4805C220.814 30.7904 221.133 30.959 221.471 30.9863V30.3027C221.234 30.2936 221.115 30.1387 221.115 29.8379V25.9688C221.115 25.3307 220.887 24.7975 220.432 24.3691C220.031 23.9954 219.534 23.8086 218.941 23.8086V24.4648C219.388 24.4648 219.762 24.6471 220.062 25.0117C220.281 25.2852 220.391 25.5996 220.391 25.9551V26.1875C220.4 26.4062 219.835 26.6523 218.695 26.9258C217.611 27.1901 216.991 27.3633 216.836 27.4453C216.389 27.7005 216.161 28.1152 216.152 28.6895V29.332ZM216.248 25.6133L216.891 25.8594C216.891 25.3398 217.123 24.9479 217.588 24.6836C217.816 24.5469 218.057 24.4785 218.312 24.4785V23.8086C217.702 23.8086 217.178 24.0273 216.74 24.4648C216.412 24.8112 216.248 25.194 216.248 25.6133ZM222.564 31V23.8496H223.275V24.9707C223.458 24.5879 223.763 24.2871 224.191 24.0684C224.474 23.9225 224.766 23.8496 225.066 23.8496H225.148L224.971 24.5332C224.515 24.5332 224.105 24.8066 223.74 25.3535C223.439 25.8092 223.289 26.2878 223.289 26.7891V31H222.564ZM225.996 22.9062C225.996 22.7057 226.096 22.5645 226.297 22.4824C226.352 22.4642 226.406 22.4551 226.461 22.4551C226.671 22.4551 226.812 22.5553 226.885 22.7559C226.903 22.8105 226.912 22.8607 226.912 22.9062C226.912 23.1159 226.812 23.2572 226.611 23.3301C226.557 23.3483 226.507 23.3574 226.461 23.3574C226.251 23.3574 226.105 23.2617 226.023 23.0703C226.005 23.0156 225.996 22.9609 225.996 22.9062ZM226.105 31V23.9043H226.816V31H226.105ZM228.02 29.0996V23.877H228.73V29.0176C228.73 29.373 228.922 29.6966 229.305 29.9883C229.605 30.2344 229.943 30.3574 230.316 30.3574V31.0684C229.46 31.0684 228.808 30.7357 228.361 30.0703C228.133 29.7331 228.02 29.4095 228.02 29.0996ZM230.904 31.0684V30.3574C231.469 30.3574 231.911 30.1341 232.23 29.6875C232.395 29.4596 232.477 29.2363 232.477 29.0176V23.877H233.201V29.0996C233.201 29.5189 233.01 29.929 232.627 30.3301C232.162 30.8132 231.588 31.0592 230.904 31.0684ZM233.994 29.1133L234.678 28.9902C234.678 29.4642 234.928 29.8516 235.43 30.1523C235.703 30.3073 235.972 30.3893 236.236 30.3984V31.0684C235.443 31.0684 234.824 30.7721 234.377 30.1797C234.122 29.8333 233.994 29.4779 233.994 29.1133ZM234.049 25.9277C234.049 25.0983 234.418 24.4876 235.156 24.0957C235.503 23.9134 235.854 23.8223 236.209 23.8223V24.5059C235.781 24.5059 235.411 24.6836 235.102 25.0391C234.865 25.3034 234.746 25.5996 234.746 25.9277C234.746 26.2467 234.969 26.4928 235.416 26.666C235.589 26.7389 236.277 26.9212 237.48 27.2129C237.544 27.2311 237.604 27.2448 237.658 27.2539C238.615 27.5 239.126 27.9922 239.189 28.7305C239.189 28.776 239.189 28.8216 239.189 28.8672C239.189 29.6784 238.857 30.2891 238.191 30.6992C237.781 30.9453 237.321 31.0684 236.811 31.0684V30.3984C237.285 30.3984 237.699 30.2298 238.055 29.8926C238.346 29.61 238.492 29.2728 238.492 28.8809C238.492 28.4707 238.114 28.1471 237.357 27.9102C237.312 27.8919 236.733 27.7507 235.621 27.4863C235.539 27.4681 235.466 27.4499 235.402 27.4316C234.6 27.1947 234.154 26.7754 234.062 26.1738C234.053 26.0918 234.049 26.0098 234.049 25.9277ZM236.797 24.5195V23.8223C237.562 23.8223 238.173 24.1094 238.629 24.6836C238.921 25.0391 239.066 25.4128 239.066 25.8047L238.383 25.9141C238.383 25.3763 238.087 24.9707 237.494 24.6973C237.239 24.5788 237.007 24.5195 236.797 24.5195ZM239.996 30.4531C239.996 30.1979 240.115 30.0202 240.352 29.9199C240.434 29.8835 240.511 29.8652 240.584 29.8652C240.848 29.8652 241.031 29.9883 241.131 30.2344C241.167 30.3073 241.186 30.3802 241.186 30.4531C241.186 30.7174 241.062 30.9043 240.816 31.0137C240.734 31.041 240.657 31.0547 240.584 31.0547C240.329 31.0547 240.146 30.9316 240.037 30.6855C240.01 30.6035 239.996 30.526 239.996 30.4531ZM0.574219 52V42.4297H1.29883V52H0.574219ZM2.2832 50.0449V46.7773C2.2832 46.2578 2.52474 45.793 3.00781 45.3828C3.42708 45.0273 3.89193 44.8496 4.40234 44.8496H5.87891V45.5332H4.41602C3.98763 45.5332 3.61393 45.7201 3.29492 46.0938C3.0944 46.3398 2.99414 46.5859 2.99414 46.832V50.0176C2.99414 50.4186 3.21289 50.765 3.65039 51.0566C3.91471 51.2298 4.17448 51.3164 4.42969 51.3164H5.87891V52H4.44336C3.64128 52 3.02604 51.6628 2.59766 50.9883C2.38802 50.651 2.2832 50.3366 2.2832 50.0449ZM6.50781 52V42.416H7.23242V52H6.50781ZM11.5664 50.332C11.5664 50.8151 11.8034 51.2207 12.2773 51.5488C12.6784 51.8405 13.1615 51.9863 13.7266 51.9863V51.3164C13.0156 51.3164 12.5553 51.084 12.3457 50.6191C12.2819 50.4733 12.25 50.3184 12.25 50.1543V49.6621C12.25 49.4251 12.3001 49.2565 12.4004 49.1562C12.5553 49.0013 13.125 48.8145 14.1094 48.5957C14.9844 48.3952 15.554 48.2266 15.8184 48.0898V49.9355C15.8092 50.847 15.3216 51.3073 14.3555 51.3164V51.9863C14.9661 51.9863 15.4583 51.8451 15.832 51.5625C15.8685 51.5352 15.9004 51.5078 15.9277 51.4805C16.2285 51.7904 16.5475 51.959 16.8848 51.9863V51.3027C16.6478 51.2936 16.5293 51.1387 16.5293 50.8379V46.9688C16.5293 46.3307 16.3014 45.7975 15.8457 45.3691C15.4447 44.9954 14.9479 44.8086 14.3555 44.8086V45.4648C14.8021 45.4648 15.1758 45.6471 15.4766 46.0117C15.6953 46.2852 15.8047 46.5996 15.8047 46.9551V47.1875C15.8138 47.4062 15.2487 47.6523 14.1094 47.9258C13.0247 48.1901 12.4049 48.3633 12.25 48.4453C11.8034 48.7005 11.5755 49.1152 11.5664 49.6895V50.332ZM11.6621 46.6133L12.3047 46.8594C12.3047 46.3398 12.5371 45.9479 13.002 45.6836C13.2298 45.5469 13.4714 45.4785 13.7266 45.4785V44.8086C13.1159 44.8086 12.5918 45.0273 12.1543 45.4648C11.8262 45.8112 11.6621 46.194 11.6621 46.6133ZM17.9238 52V46.7773C17.9238 46.2031 18.1198 45.7201 18.5117 45.3281C18.8854 44.9818 19.3639 44.8086 19.9473 44.8086V45.5059C19.3913 45.5059 18.9993 45.7474 18.7715 46.2305C18.6803 46.431 18.6348 46.6452 18.6348 46.873V52H17.9238ZM20.5488 45.5059V44.8086C21.2324 44.8086 21.752 45.041 22.1074 45.5059C22.153 45.5697 22.1986 45.6335 22.2441 45.6973C22.5449 45.2415 22.9186 44.9635 23.3652 44.8633C23.5384 44.8268 23.7253 44.8086 23.9258 44.8086V45.5059C23.3789 45.5059 22.987 45.7428 22.75 46.2168C22.6497 46.4264 22.5996 46.6452 22.5996 46.873V52H21.8887V46.873C21.8887 46.3262 21.6745 45.9297 21.2461 45.6836C21.0365 45.5651 20.804 45.5059 20.5488 45.5059ZM24.5273 45.5059V44.8086C25.375 44.8086 25.9811 45.1777 26.3457 45.916C26.4915 46.2077 26.5645 46.4948 26.5645 46.7773V52H25.8535V46.873C25.8535 46.3079 25.6302 45.9069 25.1836 45.6699C24.9831 45.5605 24.7643 45.5059 24.5273 45.5059ZM27.6309 50.0449V46.7773C27.64 46.349 27.8405 45.9388 28.2324 45.5469C28.679 45.082 29.2305 44.8496 29.8867 44.8496V45.5195C29.3672 45.5195 28.9388 45.752 28.6016 46.2168C28.4284 46.4538 28.3418 46.6771 28.3418 46.8867V47.9668H32.0605V46.8867C32.0605 46.431 31.8372 46.0618 31.3906 45.7793C31.1081 45.597 30.8164 45.5059 30.5156 45.5059V44.8496C31.1263 44.8496 31.6732 45.0729 32.1562 45.5195C32.5573 45.9023 32.7624 46.3171 32.7715 46.7637V48.6504H28.3418V50.0449C28.3418 50.3275 28.515 50.6191 28.8613 50.9199C29.1895 51.1934 29.5358 51.3301 29.9004 51.3301V52C29.0983 52 28.4648 51.6719 28 51.0156C27.7539 50.6693 27.6309 50.3457 27.6309 50.0449ZM30.5156 52V51.2891C31.1081 51.2891 31.5729 51.0384 31.9102 50.5371C32.0104 50.3822 32.0788 50.2363 32.1152 50.0996L32.7852 50.332C32.5846 50.9974 32.179 51.4759 31.5684 51.7676C31.2402 51.9225 30.8893 52 30.5156 52ZM33.5781 45.6836V44.9863H34.4531V42.4023H35.1641V44.9863H36.0391V45.6836H35.1641V49.7988C35.1641 50.5553 35.4193 51.0247 35.9297 51.207C36.1393 51.2708 36.3809 51.3027 36.6543 51.3027H36.709L36.873 52H36.5859C35.4831 51.9909 34.8132 51.5625 34.5762 50.7148C34.4941 50.4232 34.4531 50.0768 34.4531 49.6758V45.6836H33.5781ZM40.6738 50.332C40.6738 50.8151 40.9108 51.2207 41.3848 51.5488C41.7858 51.8405 42.2689 51.9863 42.834 51.9863V51.3164C42.123 51.3164 41.6628 51.084 41.4531 50.6191C41.3893 50.4733 41.3574 50.3184 41.3574 50.1543V49.6621C41.3574 49.4251 41.4076 49.2565 41.5078 49.1562C41.6628 49.0013 42.2324 48.8145 43.2168 48.5957C44.0918 48.3952 44.6615 48.2266 44.9258 48.0898V49.9355C44.9167 50.847 44.429 51.3073 43.4629 51.3164V51.9863C44.0736 51.9863 44.5658 51.8451 44.9395 51.5625C44.9759 51.5352 45.0078 51.5078 45.0352 51.4805C45.3359 51.7904 45.6549 51.959 45.9922 51.9863V51.3027C45.7552 51.2936 45.6367 51.1387 45.6367 50.8379V46.9688C45.6367 46.3307 45.4089 45.7975 44.9531 45.3691C44.5521 44.9954 44.0553 44.8086 43.4629 44.8086V45.4648C43.9095 45.4648 44.2832 45.6471 44.584 46.0117C44.8027 46.2852 44.9121 46.5996 44.9121 46.9551V47.1875C44.9212 47.4062 44.3561 47.6523 43.2168 47.9258C42.1322 48.1901 41.5124 48.3633 41.3574 48.4453C40.9108 48.7005 40.6829 49.1152 40.6738 49.6895V50.332ZM40.7695 46.6133L41.4121 46.8594C41.4121 46.3398 41.6445 45.9479 42.1094 45.6836C42.3372 45.5469 42.5788 45.4785 42.834 45.4785V44.8086C42.2233 44.8086 41.6992 45.0273 41.2617 45.4648C40.9336 45.8112 40.7695 46.194 40.7695 46.6133ZM47.0859 52V42.4297H47.8242V52H47.0859ZM48.9863 43.9062C48.9863 43.7057 49.0866 43.5645 49.2871 43.4824C49.3418 43.4642 49.3965 43.4551 49.4512 43.4551C49.6608 43.4551 49.8021 43.5553 49.875 43.7559C49.8932 43.8105 49.9023 43.8607 49.9023 43.9062C49.9023 44.1159 49.8021 44.2572 49.6016 44.3301C49.5469 44.3483 49.4967 44.3574 49.4512 44.3574C49.2415 44.3574 49.0957 44.2617 49.0137 44.0703C48.9954 44.0156 48.9863 43.9609 48.9863 43.9062ZM49.0957 52V44.9043H49.8066V52H49.0957ZM53.2793 52C52.4225 52 51.7708 51.6673 51.3242 51.002C51.1146 50.6829 51.0098 50.373 51.0098 50.0723V46.8047C51.0098 46.3307 51.2057 45.8978 51.5977 45.5059C52.0352 45.0684 52.5957 44.8496 53.2793 44.8496H54.6328V45.5332H53.2793C52.6322 45.5332 52.1628 45.7884 51.8711 46.2988C51.7708 46.4902 51.7207 46.6725 51.7207 46.8457V50.0176C51.7207 50.446 51.9212 50.7923 52.3223 51.0566C52.5866 51.2298 52.8965 51.3164 53.252 51.3164H54.5371V52H53.2793ZM55.248 54.5156V44.8496H55.9727V54.5156H55.248ZM57.0664 50.0996V44.877H57.7773V50.0176C57.7773 50.373 57.9688 50.6966 58.3516 50.9883C58.6523 51.2344 58.9896 51.3574 59.3633 51.3574V52.0684C58.5065 52.0684 57.8548 51.7357 57.4082 51.0703C57.1803 50.7331 57.0664 50.4095 57.0664 50.0996ZM59.9512 52.0684V51.3574C60.5163 51.3574 60.9583 51.1341 61.2773 50.6875C61.4414 50.4596 61.5234 50.2363 61.5234 50.0176V44.877H62.248V50.0996C62.248 50.5189 62.0566 50.929 61.6738 51.3301C61.209 51.8132 60.6348 52.0592 59.9512 52.0684ZM63.2871 50.332C63.2871 50.8151 63.5241 51.2207 63.998 51.5488C64.3991 51.8405 64.8822 51.9863 65.4473 51.9863V51.3164C64.7363 51.3164 64.276 51.084 64.0664 50.6191C64.0026 50.4733 63.9707 50.3184 63.9707 50.1543V49.6621C63.9707 49.4251 64.0208 49.2565 64.1211 49.1562C64.276 49.0013 64.8457 48.8145 65.8301 48.5957C66.7051 48.3952 67.2747 48.2266 67.5391 48.0898V49.9355C67.5299 50.847 67.0423 51.3073 66.0762 51.3164V51.9863C66.6868 51.9863 67.179 51.8451 67.5527 51.5625C67.5892 51.5352 67.6211 51.5078 67.6484 51.4805C67.9492 51.7904 68.2682 51.959 68.6055 51.9863V51.3027C68.3685 51.2936 68.25 51.1387 68.25 50.8379V46.9688C68.25 46.3307 68.0221 45.7975 67.5664 45.3691C67.1654 44.9954 66.6686 44.8086 66.0762 44.8086V45.4648C66.5228 45.4648 66.8965 45.6471 67.1973 46.0117C67.416 46.2852 67.5254 46.5996 67.5254 46.9551V47.1875C67.5345 47.4062 66.9694 47.6523 65.8301 47.9258C64.7454 48.1901 64.1257 48.3633 63.9707 48.4453C63.5241 48.7005 63.2962 49.1152 63.2871 49.6895V50.332ZM63.3828 46.6133L64.0254 46.8594C64.0254 46.3398 64.2578 45.9479 64.7227 45.6836C64.9505 45.5469 65.1921 45.4785 65.4473 45.4785V44.8086C64.8366 44.8086 64.3125 45.0273 63.875 45.4648C63.5469 45.8112 63.3828 46.194 63.3828 46.6133ZM69.6445 52V46.7773C69.6445 46.2031 69.8405 45.7201 70.2324 45.3281C70.6061 44.9818 71.0846 44.8086 71.668 44.8086V45.5059C71.112 45.5059 70.7201 45.7474 70.4922 46.2305C70.401 46.431 70.3555 46.6452 70.3555 46.873V52H69.6445ZM72.2695 45.5059V44.8086C72.9531 44.8086 73.4727 45.041 73.8281 45.5059C73.8737 45.5697 73.9193 45.6335 73.9648 45.6973C74.2656 45.2415 74.6393 44.9635 75.0859 44.8633C75.2591 44.8268 75.446 44.8086 75.6465 44.8086V45.5059C75.0996 45.5059 74.7077 45.7428 74.4707 46.2168C74.3704 46.4264 74.3203 46.6452 74.3203 46.873V52H73.6094V46.873C73.6094 46.3262 73.3952 45.9297 72.9668 45.6836C72.7572 45.5651 72.5247 45.5059 72.2695 45.5059ZM76.248 45.5059V44.8086C77.0957 44.8086 77.7018 45.1777 78.0664 45.916C78.2122 46.2077 78.2852 46.4948 78.2852 46.7773V52H77.5742V46.873C77.5742 46.3079 77.3509 45.9069 76.9043 45.6699C76.7038 45.5605 76.485 45.5059 76.248 45.5059ZM84.0684 52V51.3164H85.4492C86.0964 51.3164 86.5566 51.0794 86.8301 50.6055C86.9395 50.4141 86.9941 50.2181 86.9941 50.0176V46.8457C86.9941 46.5085 86.821 46.1986 86.4746 45.916C86.1556 45.6608 85.7773 45.5332 85.3398 45.5332H83.9863V44.8496H85.3398C86.2331 44.8496 86.9121 45.1868 87.377 45.8613C87.5957 46.1895 87.7051 46.5039 87.7051 46.8047V50.0723C87.7051 50.528 87.5046 50.9518 87.1035 51.3438C86.6569 51.7812 86.1009 52 85.4355 52H84.0684ZM82.6465 54.5156V44.8496H83.3711V54.5156H82.6465ZM88.7578 50.0449V46.7773C88.7669 46.349 88.9674 45.9388 89.3594 45.5469C89.806 45.082 90.3574 44.8496 91.0137 44.8496V45.5195C90.4941 45.5195 90.0658 45.752 89.7285 46.2168C89.5553 46.4538 89.4688 46.6771 89.4688 46.8867V47.9668H93.1875V46.8867C93.1875 46.431 92.9642 46.0618 92.5176 45.7793C92.235 45.597 91.9434 45.5059 91.6426 45.5059V44.8496C92.2533 44.8496 92.8001 45.0729 93.2832 45.5195C93.6842 45.9023 93.8893 46.3171 93.8984 46.7637V48.6504H89.4688V50.0449C89.4688 50.3275 89.6419 50.6191 89.9883 50.9199C90.3164 51.1934 90.6628 51.3301 91.0273 51.3301V52C90.2253 52 89.5918 51.6719 89.127 51.0156C88.8809 50.6693 88.7578 50.3457 88.7578 50.0449ZM91.6426 52V51.2891C92.235 51.2891 92.6999 51.0384 93.0371 50.5371C93.1374 50.3822 93.2057 50.2363 93.2422 50.0996L93.9121 50.332C93.7116 50.9974 93.306 51.4759 92.6953 51.7676C92.3672 51.9225 92.0163 52 91.6426 52ZM94.9648 52V46.7773C94.9648 46.3398 95.1608 45.916 95.5527 45.5059C96.0176 45.041 96.5872 44.8086 97.2617 44.8086V45.5195C96.7604 45.5195 96.3366 45.7155 95.9902 46.1074C95.7806 46.3535 95.6758 46.6042 95.6758 46.8594V52H94.9648ZM97.8496 45.5195V44.8086C98.6699 44.8086 99.3171 45.1458 99.791 45.8203C100.028 46.1576 100.146 46.4766 100.146 46.7773V52H99.4219V46.8594C99.4219 46.5677 99.2715 46.276 98.9707 45.9844C98.6517 45.6745 98.278 45.5195 97.8496 45.5195ZM101.186 50.332C101.186 50.8151 101.423 51.2207 101.896 51.5488C102.298 51.8405 102.781 51.9863 103.346 51.9863V51.3164C102.635 51.3164 102.174 51.084 101.965 50.6191C101.901 50.4733 101.869 50.3184 101.869 50.1543V49.6621C101.869 49.4251 101.919 49.2565 102.02 49.1562C102.174 49.0013 102.744 48.8145 103.729 48.5957C104.604 48.3952 105.173 48.2266 105.438 48.0898V49.9355C105.428 50.847 104.941 51.3073 103.975 51.3164V51.9863C104.585 51.9863 105.077 51.8451 105.451 51.5625C105.488 51.5352 105.52 51.5078 105.547 51.4805C105.848 51.7904 106.167 51.959 106.504 51.9863V51.3027C106.267 51.2936 106.148 51.1387 106.148 50.8379V46.9688C106.148 46.3307 105.921 45.7975 105.465 45.3691C105.064 44.9954 104.567 44.8086 103.975 44.8086V45.4648C104.421 45.4648 104.795 45.6471 105.096 46.0117C105.314 46.2852 105.424 46.5996 105.424 46.9551V47.1875C105.433 47.4062 104.868 47.6523 103.729 47.9258C102.644 48.1901 102.024 48.3633 101.869 48.4453C101.423 48.7005 101.195 49.1152 101.186 49.6895V50.332ZM101.281 46.6133L101.924 46.8594C101.924 46.3398 102.156 45.9479 102.621 45.6836C102.849 45.5469 103.09 45.4785 103.346 45.4785V44.8086C102.735 44.8086 102.211 45.0273 101.773 45.4648C101.445 45.8112 101.281 46.194 101.281 46.6133ZM107.283 45.6836V44.9863H108.158V42.4023H108.869V44.9863H109.744V45.6836H108.869V49.7988C108.869 50.5553 109.124 51.0247 109.635 51.207C109.844 51.2708 110.086 51.3027 110.359 51.3027H110.414L110.578 52H110.291C109.188 51.9909 108.518 51.5625 108.281 50.7148C108.199 50.4232 108.158 50.0768 108.158 49.6758V45.6836H107.283ZM111.18 43.9062C111.18 43.7057 111.28 43.5645 111.48 43.4824C111.535 43.4642 111.59 43.4551 111.645 43.4551C111.854 43.4551 111.995 43.5553 112.068 43.7559C112.087 43.8105 112.096 43.8607 112.096 43.9062C112.096 44.1159 111.995 44.2572 111.795 44.3301C111.74 44.3483 111.69 44.3574 111.645 44.3574C111.435 44.3574 111.289 44.2617 111.207 44.0703C111.189 44.0156 111.18 43.9609 111.18 43.9062ZM111.289 52V44.9043H112V52H111.289ZM113.23 52V42.416H113.955V52H113.23ZM114.584 52V51.3164H116.047C116.439 51.3164 116.799 51.1432 117.127 50.7969C117.355 50.5508 117.473 50.291 117.482 50.0176V46.832C117.482 46.4401 117.282 46.1029 116.881 45.8203C116.607 45.6289 116.329 45.5332 116.047 45.5332H114.584V44.8496H116.061C116.726 44.8496 117.286 45.1139 117.742 45.6426C118.043 46.0072 118.193 46.3854 118.193 46.7773V50.0449C118.193 50.4733 118.011 50.888 117.646 51.2891C117.218 51.7539 116.68 51.9909 116.033 52H114.584ZM119.123 50.0996V44.877H119.834V50.0176C119.834 50.373 120.025 50.6966 120.408 50.9883C120.709 51.2344 121.046 51.3574 121.42 51.3574V52.0684C120.563 52.0684 119.911 51.7357 119.465 51.0703C119.237 50.7331 119.123 50.4095 119.123 50.0996ZM122.008 52.0684V51.3574C122.573 51.3574 123.015 51.1341 123.334 50.6875C123.498 50.4596 123.58 50.2363 123.58 50.0176V44.877H124.305V50.0996C124.305 50.5189 124.113 50.929 123.73 51.3301C123.266 51.8132 122.691 52.0592 122.008 52.0684ZM125.098 50.1133L125.781 49.9902C125.781 50.4642 126.032 50.8516 126.533 51.1523C126.807 51.3073 127.076 51.3893 127.34 51.3984V52.0684C126.547 52.0684 125.927 51.7721 125.48 51.1797C125.225 50.8333 125.098 50.4779 125.098 50.1133ZM125.152 46.9277C125.152 46.0983 125.521 45.4876 126.26 45.0957C126.606 44.9134 126.957 44.8223 127.312 44.8223V45.5059C126.884 45.5059 126.515 45.6836 126.205 46.0391C125.968 46.3034 125.85 46.5996 125.85 46.9277C125.85 47.2467 126.073 47.4928 126.52 47.666C126.693 47.7389 127.381 47.9212 128.584 48.2129C128.648 48.2311 128.707 48.2448 128.762 48.2539C129.719 48.5 130.229 48.9922 130.293 49.7305C130.293 49.776 130.293 49.8216 130.293 49.8672C130.293 50.6784 129.96 51.2891 129.295 51.6992C128.885 51.9453 128.424 52.0684 127.914 52.0684V51.3984C128.388 51.3984 128.803 51.2298 129.158 50.8926C129.45 50.61 129.596 50.2728 129.596 49.8809C129.596 49.4707 129.217 49.1471 128.461 48.9102C128.415 48.8919 127.837 48.7507 126.725 48.4863C126.643 48.4681 126.57 48.4499 126.506 48.4316C125.704 48.1947 125.257 47.7754 125.166 47.1738C125.157 47.0918 125.152 47.0098 125.152 46.9277ZM127.9 45.5195V44.8223C128.666 44.8223 129.277 45.1094 129.732 45.6836C130.024 46.0391 130.17 46.4128 130.17 46.8047L129.486 46.9141C129.486 46.3763 129.19 45.9707 128.598 45.6973C128.342 45.5788 128.11 45.5195 127.9 45.5195ZM134.381 50.0449V46.7773C134.39 46.349 134.59 45.9388 134.982 45.5469C135.429 45.082 135.98 44.8496 136.637 44.8496V45.5195C136.117 45.5195 135.689 45.752 135.352 46.2168C135.178 46.4538 135.092 46.6771 135.092 46.8867V47.9668H138.811V46.8867C138.811 46.431 138.587 46.0618 138.141 45.7793C137.858 45.597 137.566 45.5059 137.266 45.5059V44.8496C137.876 44.8496 138.423 45.0729 138.906 45.5195C139.307 45.9023 139.512 46.3171 139.521 46.7637V48.6504H135.092V50.0449C135.092 50.3275 135.265 50.6191 135.611 50.9199C135.939 51.1934 136.286 51.3301 136.65 51.3301V52C135.848 52 135.215 51.6719 134.75 51.0156C134.504 50.6693 134.381 50.3457 134.381 50.0449ZM137.266 52V51.2891C137.858 51.2891 138.323 51.0384 138.66 50.5371C138.76 50.3822 138.829 50.2363 138.865 50.0996L139.535 50.332C139.335 50.9974 138.929 51.4759 138.318 51.7676C137.99 51.9225 137.639 52 137.266 52ZM140.465 54.4883L140.643 53.8184H143.145C143.783 53.791 144.261 53.5495 144.58 53.0938C144.717 52.9023 144.785 52.7155 144.785 52.5332V51.3301C144.539 51.64 144.193 51.8451 143.746 51.9453C143.609 51.9818 143.473 52 143.336 52V51.3574C143.755 51.3574 144.129 51.1706 144.457 50.7969C144.676 50.5508 144.785 50.3047 144.785 50.0586V46.8047C144.785 46.3125 144.525 45.9388 144.006 45.6836C143.769 45.5651 143.546 45.5059 143.336 45.5059V44.8359C143.819 44.8359 144.252 44.9909 144.635 45.3008C144.699 45.3555 144.749 45.4056 144.785 45.4512V44.8359H145.482V52.5332C145.482 52.916 145.309 53.3125 144.963 53.7227C144.535 54.224 144.001 54.4792 143.363 54.4883H140.465ZM140.588 50.0586V46.75C140.597 46.3216 140.784 45.9069 141.148 45.5059C141.577 45.0592 142.101 44.8359 142.721 44.8359V45.5059C142.238 45.5059 141.837 45.7292 141.518 46.1758C141.363 46.3945 141.285 46.5996 141.285 46.791V50.0449C141.285 50.3548 141.445 50.6556 141.764 50.9473C142.055 51.2025 142.374 51.3301 142.721 51.3301V52C141.9 51.9909 141.285 51.64 140.875 50.9473C140.684 50.6374 140.588 50.3411 140.588 50.0586ZM146.576 50.0449V46.7773C146.585 46.349 146.786 45.9388 147.178 45.5469C147.624 45.082 148.176 44.8496 148.832 44.8496V45.5195C148.312 45.5195 147.884 45.752 147.547 46.2168C147.374 46.4538 147.287 46.6771 147.287 46.8867V47.9668H151.006V46.8867C151.006 46.431 150.783 46.0618 150.336 45.7793C150.053 45.597 149.762 45.5059 149.461 45.5059V44.8496C150.072 44.8496 150.618 45.0729 151.102 45.5195C151.503 45.9023 151.708 46.3171 151.717 46.7637V48.6504H147.287V50.0449C147.287 50.3275 147.46 50.6191 147.807 50.9199C148.135 51.1934 148.481 51.3301 148.846 51.3301V52C148.044 52 147.41 51.6719 146.945 51.0156C146.699 50.6693 146.576 50.3457 146.576 50.0449ZM149.461 52V51.2891C150.053 51.2891 150.518 51.0384 150.855 50.5371C150.956 50.3822 151.024 50.2363 151.061 50.0996L151.73 50.332C151.53 50.9974 151.124 51.4759 150.514 51.7676C150.186 51.9225 149.835 52 149.461 52ZM152.523 45.6836V44.9863H153.398V42.4023H154.109V44.9863H154.984V45.6836H154.109V49.7988C154.109 50.5553 154.365 51.0247 154.875 51.207C155.085 51.2708 155.326 51.3027 155.6 51.3027H155.654L155.818 52H155.531C154.428 51.9909 153.758 51.5625 153.521 50.7148C153.439 50.4232 153.398 50.0768 153.398 49.6758V45.6836H152.523ZM161.096 52V51.3164H162.477C163.124 51.3164 163.584 51.0794 163.857 50.6055C163.967 50.4141 164.021 50.2181 164.021 50.0176V46.8457C164.021 46.5085 163.848 46.1986 163.502 45.916C163.183 45.6608 162.805 45.5332 162.367 45.5332H161.014V44.8496H162.367C163.26 44.8496 163.939 45.1868 164.404 45.8613C164.623 46.1895 164.732 46.5039 164.732 46.8047V50.0723C164.732 50.528 164.532 50.9518 164.131 51.3438C163.684 51.7812 163.128 52 162.463 52H161.096ZM159.674 54.5156V44.8496H160.398V54.5156H159.674ZM165.785 50.0449V46.7773C165.794 46.349 165.995 45.9388 166.387 45.5469C166.833 45.082 167.385 44.8496 168.041 44.8496V45.5195C167.521 45.5195 167.093 45.752 166.756 46.2168C166.583 46.4538 166.496 46.6771 166.496 46.8867V47.9668H170.215V46.8867C170.215 46.431 169.992 46.0618 169.545 45.7793C169.262 45.597 168.971 45.5059 168.67 45.5059V44.8496C169.281 44.8496 169.827 45.0729 170.311 45.5195C170.712 45.9023 170.917 46.3171 170.926 46.7637V48.6504H166.496V50.0449C166.496 50.3275 166.669 50.6191 167.016 50.9199C167.344 51.1934 167.69 51.3301 168.055 51.3301V52C167.253 52 166.619 51.6719 166.154 51.0156C165.908 50.6693 165.785 50.3457 165.785 50.0449ZM168.67 52V51.2891C169.262 51.2891 169.727 51.0384 170.064 50.5371C170.165 50.3822 170.233 50.2363 170.27 50.0996L170.939 50.332C170.739 50.9974 170.333 51.4759 169.723 51.7676C169.395 51.9225 169.044 52 168.67 52ZM172.047 52V42.4297H172.785V52H172.047ZM173.934 52V42.4297H174.672V52H173.934ZM175.793 50.0449V46.7773C175.802 46.349 176.003 45.9388 176.395 45.5469C176.841 45.082 177.393 44.8496 178.049 44.8496V45.5195C177.529 45.5195 177.101 45.752 176.764 46.2168C176.59 46.4538 176.504 46.6771 176.504 46.8867V47.9668H180.223V46.8867C180.223 46.431 179.999 46.0618 179.553 45.7793C179.27 45.597 178.979 45.5059 178.678 45.5059V44.8496C179.288 44.8496 179.835 45.0729 180.318 45.5195C180.719 45.9023 180.924 46.3171 180.934 46.7637V48.6504H176.504V50.0449C176.504 50.3275 176.677 50.6191 177.023 50.9199C177.352 51.1934 177.698 51.3301 178.062 51.3301V52C177.26 52 176.627 51.6719 176.162 51.0156C175.916 50.6693 175.793 50.3457 175.793 50.0449ZM178.678 52V51.2891C179.27 51.2891 179.735 51.0384 180.072 50.5371C180.173 50.3822 180.241 50.2363 180.277 50.0996L180.947 50.332C180.747 50.9974 180.341 51.4759 179.73 51.7676C179.402 51.9225 179.051 52 178.678 52ZM182 52V46.7773C182 46.3398 182.196 45.916 182.588 45.5059C183.053 45.041 183.622 44.8086 184.297 44.8086V45.5195C183.796 45.5195 183.372 45.7155 183.025 46.1074C182.816 46.3535 182.711 46.6042 182.711 46.8594V52H182ZM184.885 45.5195V44.8086C185.705 44.8086 186.352 45.1458 186.826 45.8203C187.063 46.1576 187.182 46.4766 187.182 46.7773V52H186.457V46.8594C186.457 46.5677 186.307 46.276 186.006 45.9844C185.687 45.6745 185.313 45.5195 184.885 45.5195ZM187.961 45.6836V44.9863H188.836V42.4023H189.547V44.9863H190.422V45.6836H189.547V49.7988C189.547 50.5553 189.802 51.0247 190.312 51.207C190.522 51.2708 190.764 51.3027 191.037 51.3027H191.092L191.256 52H190.969C189.866 51.9909 189.196 51.5625 188.959 50.7148C188.877 50.4232 188.836 50.0768 188.836 49.6758V45.6836H187.961ZM191.816 50.0449V46.7773C191.826 46.349 192.026 45.9388 192.418 45.5469C192.865 45.082 193.416 44.8496 194.072 44.8496V45.5195C193.553 45.5195 193.124 45.752 192.787 46.2168C192.614 46.4538 192.527 46.6771 192.527 46.8867V47.9668H196.246V46.8867C196.246 46.431 196.023 46.0618 195.576 45.7793C195.294 45.597 195.002 45.5059 194.701 45.5059V44.8496C195.312 44.8496 195.859 45.0729 196.342 45.5195C196.743 45.9023 196.948 46.3171 196.957 46.7637V48.6504H192.527V50.0449C192.527 50.3275 192.701 50.6191 193.047 50.9199C193.375 51.1934 193.721 51.3301 194.086 51.3301V52C193.284 52 192.65 51.6719 192.186 51.0156C191.939 50.6693 191.816 50.3457 191.816 50.0449ZM194.701 52V51.2891C195.294 51.2891 195.758 51.0384 196.096 50.5371C196.196 50.3822 196.264 50.2363 196.301 50.0996L196.971 50.332C196.77 50.9974 196.365 51.4759 195.754 51.7676C195.426 51.9225 195.075 52 194.701 52ZM197.777 50.1133L198.461 49.9902C198.461 50.4642 198.712 50.8516 199.213 51.1523C199.486 51.3073 199.755 51.3893 200.02 51.3984V52.0684C199.227 52.0684 198.607 51.7721 198.16 51.1797C197.905 50.8333 197.777 50.4779 197.777 50.1133ZM197.832 46.9277C197.832 46.0983 198.201 45.4876 198.939 45.0957C199.286 44.9134 199.637 44.8223 199.992 44.8223V45.5059C199.564 45.5059 199.195 45.6836 198.885 46.0391C198.648 46.3034 198.529 46.5996 198.529 46.9277C198.529 47.2467 198.753 47.4928 199.199 47.666C199.372 47.7389 200.061 47.9212 201.264 48.2129C201.327 48.2311 201.387 48.2448 201.441 48.2539C202.398 48.5 202.909 48.9922 202.973 49.7305C202.973 49.776 202.973 49.8216 202.973 49.8672C202.973 50.6784 202.64 51.2891 201.975 51.6992C201.564 51.9453 201.104 52.0684 200.594 52.0684V51.3984C201.068 51.3984 201.482 51.2298 201.838 50.8926C202.13 50.61 202.275 50.2728 202.275 49.8809C202.275 49.4707 201.897 49.1471 201.141 48.9102C201.095 48.8919 200.516 48.7507 199.404 48.4863C199.322 48.4681 199.249 48.4499 199.186 48.4316C198.383 48.1947 197.937 47.7754 197.846 47.1738C197.837 47.0918 197.832 47.0098 197.832 46.9277ZM200.58 45.5195V44.8223C201.346 44.8223 201.956 45.1094 202.412 45.6836C202.704 46.0391 202.85 46.4128 202.85 46.8047L202.166 46.9141C202.166 46.3763 201.87 45.9707 201.277 45.6973C201.022 45.5788 200.79 45.5195 200.58 45.5195ZM206.035 52C205.178 52 204.527 51.6673 204.08 51.002C203.87 50.6829 203.766 50.373 203.766 50.0723V46.8047C203.766 46.3307 203.962 45.8978 204.354 45.5059C204.791 45.0684 205.352 44.8496 206.035 44.8496H207.389V45.5332H206.035C205.388 45.5332 204.919 45.7884 204.627 46.2988C204.527 46.4902 204.477 46.6725 204.477 46.8457V50.0176C204.477 50.446 204.677 50.7923 205.078 51.0566C205.342 51.2298 205.652 51.3164 206.008 51.3164H207.293V52H206.035ZM208.004 54.5156V44.8496H208.729V54.5156H208.004ZM209.822 50.0996V44.877H210.533V50.0176C210.533 50.373 210.725 50.6966 211.107 50.9883C211.408 51.2344 211.745 51.3574 212.119 51.3574V52.0684C211.262 52.0684 210.611 51.7357 210.164 51.0703C209.936 50.7331 209.822 50.4095 209.822 50.0996ZM212.707 52.0684V51.3574C213.272 51.3574 213.714 51.1341 214.033 50.6875C214.197 50.4596 214.279 50.2363 214.279 50.0176V44.877H215.004V50.0996C215.004 50.5189 214.812 50.929 214.43 51.3301C213.965 51.8132 213.391 52.0592 212.707 52.0684ZM216.07 50.0449V46.7773C216.079 46.349 216.28 45.9388 216.672 45.5469C217.118 45.082 217.67 44.8496 218.326 44.8496V45.5195C217.807 45.5195 217.378 45.752 217.041 46.2168C216.868 46.4538 216.781 46.6771 216.781 46.8867V47.9668H220.5V46.8867C220.5 46.431 220.277 46.0618 219.83 45.7793C219.548 45.597 219.256 45.5059 218.955 45.5059V44.8496C219.566 44.8496 220.113 45.0729 220.596 45.5195C220.997 45.9023 221.202 46.3171 221.211 46.7637V48.6504H216.781V50.0449C216.781 50.3275 216.954 50.6191 217.301 50.9199C217.629 51.1934 217.975 51.3301 218.34 51.3301V52C217.538 52 216.904 51.6719 216.439 51.0156C216.193 50.6693 216.07 50.3457 216.07 50.0449ZM218.955 52V51.2891C219.548 51.2891 220.012 51.0384 220.35 50.5371C220.45 50.3822 220.518 50.2363 220.555 50.0996L221.225 50.332C221.024 50.9974 220.618 51.4759 220.008 51.7676C219.68 51.9225 219.329 52 218.955 52ZM225.572 50.0449V46.7773C225.581 46.349 225.782 45.9388 226.174 45.5469C226.62 45.082 227.172 44.8496 227.828 44.8496V45.5195C227.309 45.5195 226.88 45.752 226.543 46.2168C226.37 46.4538 226.283 46.6771 226.283 46.8867V47.9668H230.002V46.8867C230.002 46.431 229.779 46.0618 229.332 45.7793C229.049 45.597 228.758 45.5059 228.457 45.5059V44.8496C229.068 44.8496 229.615 45.0729 230.098 45.5195C230.499 45.9023 230.704 46.3171 230.713 46.7637V48.6504H226.283V50.0449C226.283 50.3275 226.456 50.6191 226.803 50.9199C227.131 51.1934 227.477 51.3301 227.842 51.3301V52C227.04 52 226.406 51.6719 225.941 51.0156C225.695 50.6693 225.572 50.3457 225.572 50.0449ZM228.457 52V51.2891C229.049 51.2891 229.514 51.0384 229.852 50.5371C229.952 50.3822 230.02 50.2363 230.057 50.0996L230.727 50.332C230.526 50.9974 230.12 51.4759 229.51 51.7676C229.182 51.9225 228.831 52 228.457 52ZM231.533 50.1133L232.217 49.9902C232.217 50.4642 232.467 50.8516 232.969 51.1523C233.242 51.3073 233.511 51.3893 233.775 51.3984V52.0684C232.982 52.0684 232.363 51.7721 231.916 51.1797C231.661 50.8333 231.533 50.4779 231.533 50.1133ZM231.588 46.9277C231.588 46.0983 231.957 45.4876 232.695 45.0957C233.042 44.9134 233.393 44.8223 233.748 44.8223V45.5059C233.32 45.5059 232.951 45.6836 232.641 46.0391C232.404 46.3034 232.285 46.5996 232.285 46.9277C232.285 47.2467 232.508 47.4928 232.955 47.666C233.128 47.7389 233.816 47.9212 235.02 48.2129C235.083 48.2311 235.143 48.2448 235.197 48.2539C236.154 48.5 236.665 48.9922 236.729 49.7305C236.729 49.776 236.729 49.8216 236.729 49.8672C236.729 50.6784 236.396 51.2891 235.73 51.6992C235.32 51.9453 234.86 52.0684 234.35 52.0684V51.3984C234.824 51.3984 235.238 51.2298 235.594 50.8926C235.885 50.61 236.031 50.2728 236.031 49.8809C236.031 49.4707 235.653 49.1471 234.896 48.9102C234.851 48.8919 234.272 48.7507 233.16 48.4863C233.078 48.4681 233.005 48.4499 232.941 48.4316C232.139 48.1947 231.693 47.7754 231.602 47.1738C231.592 47.0918 231.588 47.0098 231.588 46.9277ZM234.336 45.5195V44.8223C235.102 44.8223 235.712 45.1094 236.168 45.6836C236.46 46.0391 236.605 46.4128 236.605 46.8047L235.922 46.9141C235.922 46.3763 235.626 45.9707 235.033 45.6973C234.778 45.5788 234.546 45.5195 234.336 45.5195ZM237.262 45.6836V44.9863H238.137V42.4023H238.848V44.9863H239.723V45.6836H238.848V49.7988C238.848 50.5553 239.103 51.0247 239.613 51.207C239.823 51.2708 240.064 51.3027 240.338 51.3027H240.393L240.557 52H240.27C239.167 51.9909 238.497 51.5625 238.26 50.7148C238.178 50.4232 238.137 50.0768 238.137 49.6758V45.6836H237.262Z" fill="black"/>
</svg>
