<svg width="20" height="20" viewBox="0 0 18 18" fill="none" xmlns="http://www.w3.org/2000/svg">
<path d="M3.56428 12.555C2.95807 12.555 2.37669 12.7959 1.94804 13.2245C1.51938 13.6532 1.27857 14.2345 1.27857 14.8408C1.27857 15.447 1.51938 16.0283 1.94804 16.457C2.37669 16.8856 2.95807 17.1265 3.56428 17.1265C4.17049 17.1265 4.75187 16.8856 5.18052 16.457C5.60918 16.0283 5.84999 15.447 5.84999 14.8408C5.84999 14.2345 5.60918 13.6532 5.18052 13.2245C4.75187 12.7959 4.17049 12.555 3.56428 12.555ZM3.56428 12.555V5.69789M3.56428 5.69789C3.11221 5.69789 2.67029 5.56384 2.2944 5.31268C1.91852 5.06152 1.62556 4.70454 1.45256 4.28688C1.27955 3.86923 1.23429 3.40964 1.32248 2.96626C1.41068 2.52287 1.62837 2.1156 1.94804 1.79594C2.2677 1.47627 2.67497 1.25858 3.11836 1.17039C3.56174 1.08219 4.02132 1.12746 4.43898 1.30046C4.85664 1.47346 5.21362 1.76642 5.46478 2.14231C5.71594 2.51819 5.84999 2.96011 5.84999 3.41218M3.56428 5.69789C4.17049 5.69789 4.75187 5.45708 5.18052 5.02842C5.60918 4.59977 5.84999 4.01839 5.84999 3.41218M5.84999 3.41218H11.5643C12.4736 3.41218 13.3457 3.7734 13.9886 4.41639C14.6316 5.05937 14.9929 5.93144 14.9929 6.84075V9.12647M14.9929 9.12647C14.3866 9.12647 13.8053 9.36728 13.3766 9.79594C12.948 10.2246 12.7071 10.806 12.7071 11.4122C12.7071 12.0184 12.948 12.5998 13.3766 13.0284C13.8053 13.4571 14.3866 13.6979 14.9929 13.6979C15.5991 13.6979 16.1804 13.4571 16.6091 13.0284C17.0377 12.5998 17.2786 12.0184 17.2786 11.4122C17.2786 10.806 17.0377 10.2246 16.6091 9.79594C16.1804 9.36728 15.5991 9.12647 14.9929 9.12647Z" stroke="#53B1FF"/>
<circle cx="3.57861" cy="3.42627" r="2" fill="#53B1FF"/>
<line x1="10.9438" y1="3.41113" x2="9.56818" y2="3.41113" stroke="white"/>
<line x1="10.6772" y1="5.82665" x2="11.9713" y2="0.997016" stroke="#53B1FF"/>
</svg>
