<svg width="18" height="7" viewBox="0 0 18 7" fill="none" xmlns="http://www.w3.org/2000/svg">
<path d="M11.993 3.41228C11.993 4.01849 12.2338 4.59987 12.6625 5.02853C13.0912 5.45718 13.6725 5.698 14.2787 5.698C14.8849 5.698 15.4663 5.45718 15.895 5.02853C16.3236 4.59987 16.5645 4.01849 16.5645 3.41228C16.5645 2.80607 16.3236 2.22469 15.895 1.79604C15.4663 1.36738 14.8849 1.12657 14.2787 1.12657C13.6725 1.12657 13.0912 1.36738 12.6625 1.79604C12.2338 2.22469 11.993 2.80607 11.993 3.41228Z" fill="#53B1FF" stroke="#53B1FF"/>
<ellipse cx="2.77856" cy="3.41235" rx="2.5" ry="2" fill="#53B1FF"/>
<line x1="8.92182" y1="5.82665" x2="10.2159" y2="0.997016" stroke="#53B1FF"/>
<line x1="5.27856" y1="3.41333" x2="7.68181" y2="3.41333" stroke="#53B1FF"/>
<line x1="9.2417" y1="3.41333" x2="11.5885" y2="3.41333" stroke="#53B1FF"/>
</svg>

