<svg width="67" height="23" viewBox="0 0 67 23" fill="none" xmlns="http://www.w3.org/2000/svg">
<path fill-rule="evenodd" clip-rule="evenodd" d="M20.9093 0.0208481H10.6993L0.579283 0.00891905C0.45949 -0.00297302 0.339076 -0.00297302 0.219283 0.00891905C-0.00071703 0.0566252 -0.0507171 0.187819 0.0492829 0.402497C0.10032 0.494946 0.157149 0.582659 0.219283 0.664882C0.325729 0.821457 0.435951 0.975029 0.54593 1.12826L0.545932 1.12826C0.745911 1.40689 0.945084 1.6844 1.11928 1.9768C1.2391 2.18182 1.40185 2.34585 1.59133 2.45256C1.7808 2.55927 1.99041 2.60495 2.19928 2.58505H20.6693C20.7493 2.58679 20.8277 2.55749 20.8926 2.50158C20.9575 2.44567 21.0055 2.36615 21.0293 2.27496C21.068 2.11163 21.1068 1.95229 21.145 1.79507L21.1451 1.79483C21.2548 1.34368 21.3603 0.910055 21.4493 0.450204C21.4993 0.18782 21.3793 0.0208481 21.1493 0.0208481C21.0694 0.014879 20.9892 0.014879 20.9093 0.0208481ZM19.7592 4.11164H11.6892L3.40923 4.09972C3.28944 4.08782 3.16902 4.08782 3.04923 4.09972C2.84923 4.14742 2.79923 4.30247 2.90923 4.51715C2.97378 4.63631 3.04743 4.7481 3.12923 4.85109C3.48923 5.29237 3.82923 5.7098 4.12923 6.16301C4.24712 6.34298 4.39941 6.48669 4.57338 6.58213C4.74734 6.67757 4.93794 6.72198 5.12923 6.71163H19.2192H19.6092C19.9992 6.71163 20.0292 6.67585 20.1392 6.23457C20.1942 6.01393 20.2467 5.79328 20.2992 5.57264C20.3517 5.352 20.4042 5.13136 20.4592 4.91072C20.4864 4.78983 20.5032 4.66595 20.5092 4.541C20.5192 4.25476 20.3292 4.11164 20.1892 4.11164H19.7592ZM12.6793 8.10699H19.0793C19.1458 8.10104 19.2127 8.10104 19.2793 8.10699C19.6193 8.10699 19.7493 8.26203 19.6693 8.66753C19.5893 9.07304 19.4193 9.86018 19.2793 10.3969C19.2611 10.4808 19.2196 10.555 19.1614 10.607C19.1032 10.659 19.0319 10.6859 18.9593 10.6831H18.5693H7.81927C7.64984 10.6975 7.48014 10.6601 7.32618 10.5745C7.17221 10.489 7.03906 10.3581 6.93927 10.1941C6.69768 9.81306 6.4318 9.45371 6.16529 9.09352L6.16518 9.09337C6.08975 8.99142 6.01427 8.8894 5.93927 8.7868C5.86736 8.69561 5.80368 8.59568 5.74927 8.48863C5.66927 8.28588 5.74927 8.14276 5.90927 8.10699C6.06578 8.09533 6.22275 8.09533 6.37927 8.10699H12.6793ZM18.2292 12.1024H13.6792L9.46924 12.1501C9.30959 12.1323 9.14889 12.1323 8.98924 12.1501C8.85834 12.1856 8.73096 12.2376 8.60924 12.3052L8.75924 12.7703L9.93924 14.4162C9.99959 14.5012 10.0746 14.5697 10.1592 14.617C10.2437 14.6644 10.3358 14.6894 10.4292 14.6905H17.6692H18.0192L18.0536 14.6879C18.3346 14.6669 18.403 14.6618 18.4992 14.2373C18.5659 13.9431 18.6237 13.6489 18.6815 13.3547C18.7104 13.2076 18.7392 13.0605 18.7692 12.9134C18.9092 12.2217 18.8292 12.1024 18.2292 12.1024ZM14.6593 16.1097H17.5493C17.9593 16.1097 18.0593 16.2767 17.9693 16.7657C17.8948 17.1705 17.7928 17.5918 17.6918 18.009C17.6709 18.0957 17.6499 18.1822 17.6293 18.2684C17.5263 18.6981 17.4749 18.6978 17.2604 18.6965H17.2604C17.2248 18.6963 17.1848 18.6961 17.1393 18.6978H13.3093C13.2169 18.7039 13.1247 18.6845 13.0397 18.641C12.9547 18.5976 12.8792 18.5313 12.8193 18.4473C12.6931 18.2734 12.5669 18.1032 12.4411 17.9336L12.4411 17.9335C12.1184 17.4985 11.7987 17.0673 11.4893 16.5868C11.2993 16.3125 11.3693 16.1574 11.6593 16.1216C11.7624 16.1097 11.8662 16.1097 11.9693 16.1216H14.6593V16.1097ZM16.7693 20.0574H15.7693L15.7893 20.0812C15.6689 20.0812 15.5463 20.0799 15.4241 20.0786C15.1808 20.0759 14.9389 20.0733 14.7193 20.0812C14.3893 20.0932 14.3493 20.3198 14.5293 20.5941C14.6659 20.8022 14.8082 20.9966 14.9519 21.1929C14.9976 21.2553 15.0435 21.3179 15.0893 21.3812C15.3993 21.8344 15.7693 22.3592 16.0293 22.717C16.2893 23.0748 16.4993 23.0152 16.6193 22.5739C16.8093 21.9299 16.9692 21.286 17.1292 20.642L17.1293 20.6418C17.2293 20.2363 17.1193 20.0574 16.7693 20.0574Z" fill="#FF8000"/>
<path d="M46.5793 10.3969C46.4886 10.5503 46.4051 10.7096 46.3293 10.874L42.3293 20.2721C42.0393 20.9519 41.7393 21.6079 41.4693 22.2996C41.4174 22.4777 41.3152 22.6287 41.1802 22.7266C41.0451 22.8246 40.8857 22.8633 40.7293 22.8363C40.3793 22.8363 40.0193 22.8363 39.6593 22.8363C39.2993 22.8363 39.2593 22.7051 39.2593 22.3473C39.2593 21.6913 39.2593 21.0473 39.2593 20.4033C39.2593 19.9859 39.3393 19.9024 39.7193 19.9024C40.0993 19.9024 40.7193 19.9024 41.1793 19.9024C41.6393 19.9024 41.6793 19.64 41.7693 19.2703C41.781 19.233 41.7848 19.1927 41.7801 19.1533C41.7755 19.1138 41.7627 19.0763 41.7428 19.0443C41.7229 19.0123 41.6966 18.9867 41.6663 18.9699C41.636 18.9531 41.6026 18.9457 41.5693 18.9482C41.3993 18.9482 41.2293 18.9482 41.0593 18.9482H39.8393C39.4993 18.9482 39.4193 18.829 39.4193 18.4235C39.4193 17.7556 39.4193 17.0758 39.4193 16.396C39.4193 15.9428 39.4793 15.8712 39.8493 15.8712H42.8493C43.0014 15.8872 43.1531 15.8367 43.2764 15.7292C43.3996 15.6217 43.4859 15.4645 43.5193 15.2868C43.5693 15.0602 43.5193 14.9529 43.3193 14.9409C43.1995 14.929 43.0791 14.929 42.9593 14.9409H39.9993C39.5393 14.9409 39.4893 14.8694 39.4893 14.3088C39.4893 13.7483 39.4893 13.0208 39.4893 12.3767C39.4893 11.7327 39.5593 11.8281 39.9593 11.8281H44.5393C44.6859 11.8529 44.8348 11.8098 44.9557 11.7078C45.0765 11.6058 45.1601 11.4526 45.1893 11.2795C45.2493 11.0648 45.1893 10.9575 44.9893 10.9336C44.8728 10.9214 44.7557 10.9214 44.6393 10.9336H40.1693C39.9144 10.9224 39.6605 10.8905 39.4093 10.8382C39.4093 10.9575 39.3193 11.0887 39.2893 11.2318C38.5493 14.4758 37.8126 17.7238 37.0793 20.9758C36.9793 21.3813 36.8993 21.7987 36.8093 22.1684C36.7193 22.5381 36.6193 22.7528 36.1793 22.7528H32.0993C31.8693 22.7528 31.7893 22.5978 31.8493 22.3473C32.0193 21.6317 32.2093 20.928 32.3893 20.2244C32.4593 19.9501 32.6393 19.8904 32.8493 19.8904H33.9993C34.6893 19.8904 35.3693 19.8904 36.0593 19.8904C36.1313 19.9052 36.2051 19.9002 36.2752 19.8758C36.3454 19.8514 36.4099 19.8082 36.4639 19.7495C36.5179 19.6909 36.56 19.6183 36.5869 19.5373C36.6138 19.4563 36.6249 19.369 36.6193 19.2822C36.6193 19.0794 36.6193 18.9721 36.4093 18.9602H33.2393C33.1495 18.972 33.059 18.972 32.9693 18.9602C32.7593 18.9602 32.7093 18.8171 32.7393 18.5666C32.7545 18.4581 32.7745 18.3506 32.7993 18.2446C32.9393 17.6482 33.0693 17.0519 33.1993 16.4675C33.3293 15.8831 33.3793 15.907 33.7993 15.907H36.9993C37.3593 15.907 37.4993 15.74 37.5193 15.3226C37.5193 15.1079 37.4693 14.9886 37.2893 14.9767H33.9993C33.6793 14.9767 33.5993 14.8336 33.6793 14.4519C33.7593 14.0703 33.8593 13.6409 33.9393 13.2593C34.0193 12.8776 34.0393 12.7345 34.0893 12.4841C34.1893 12.0189 34.2793 11.9354 34.6593 11.9354H37.6593C37.7657 11.9474 37.8728 11.9474 37.9793 11.9354C38.0369 11.9201 38.0914 11.8911 38.1394 11.8501C38.1874 11.8091 38.228 11.757 38.2588 11.6969C38.2896 11.6368 38.31 11.57 38.3186 11.5003C38.3273 11.4306 38.3241 11.3596 38.3093 11.2914C38.2764 11.2128 38.2189 11.1528 38.1493 11.1244C38.0431 11.1063 37.9354 11.1063 37.8293 11.1244H34.7793C34.5293 11.1244 34.4493 10.9813 34.5093 10.6832C34.6593 9.896 34.8293 9.09693 35.0093 8.29785C35.0893 7.97583 35.1993 7.9162 35.5293 7.9162H41.8993C42.1693 7.9162 42.2793 7.76115 42.2693 7.45106C42.2593 7.14098 42.1593 7.02171 41.8593 7.02171H36.0493C35.3093 7.02171 35.3093 7.0217 35.4893 6.13914C35.5993 5.6263 35.6993 5.10153 35.7993 4.57677C35.8993 4.052 35.9693 3.99237 36.4093 3.99237H41.9093C42.1593 3.99237 42.2593 3.81347 42.2493 3.5153C42.2393 3.21714 42.1393 3.09788 41.8693 3.09788C41.1493 3.09788 40.4193 3.09788 39.6993 3.09788H36.6993C36.6193 3.10385 36.5392 3.10385 36.4593 3.09788C36.1893 3.09788 36.0993 2.95475 36.1693 2.64466C36.2993 1.96485 36.4493 1.29697 36.6093 0.629085C36.6793 0.318995 36.7793 0.247437 37.0693 0.247437H42.5293C43.0593 0.247437 43.1193 0.318994 43.1193 0.963027C43.1193 2.99054 43.1193 5.01805 43.1193 7.04556C43.1193 7.71344 43.1193 8.36941 43.1193 9.02537C43.1306 9.14256 43.1507 9.25831 43.1793 9.37124C43.2893 9.24005 43.3793 9.18041 43.4193 9.08499C43.5258 8.86459 43.6226 8.63768 43.7093 8.40518C43.7594 8.26886 43.8445 8.15501 43.9523 8.08C44.0601 8.005 44.1851 7.9727 44.3093 7.98776H50.4793C50.5488 8.00095 50.6199 7.99493 50.6872 7.97018C50.7544 7.94544 50.816 7.90262 50.8672 7.84502C50.9184 7.78741 50.9578 7.71656 50.9825 7.63793C51.0071 7.55929 51.0163 7.47496 51.0093 7.39143C51.0093 7.17675 50.9493 7.05748 50.7693 7.04556H45.0693C44.5093 7.04556 44.4593 6.93822 44.7293 6.3419C44.9993 5.74557 45.2393 5.14924 45.4793 4.57677C45.5342 4.3939 45.6389 4.23821 45.7766 4.13447C45.9143 4.03073 46.0772 3.98492 46.2393 4.0043C47.9393 4.0043 49.6393 4.0043 51.3493 4.0043C51.4524 4.01619 51.5562 4.01619 51.6593 4.0043C51.7204 3.99025 51.7785 3.96155 51.83 3.91995C51.8816 3.87834 51.9255 3.8247 51.9591 3.76226C51.9928 3.69982 52.0155 3.62989 52.0258 3.55669C52.0361 3.48349 52.0339 3.40855 52.0193 3.3364C52.0052 3.29307 51.9837 3.25372 51.9562 3.22086C51.9286 3.188 51.8956 3.16236 51.8593 3.14558C51.7699 3.12734 51.6786 3.12734 51.5893 3.14558H46.7593C46.6827 3.15157 46.6059 3.15157 46.5293 3.14558C46.2693 3.14558 46.1993 2.99054 46.3093 2.7043C46.6093 2.00063 46.9193 1.3089 47.2293 0.617156C47.2784 0.506242 47.3541 0.415266 47.4467 0.355799C47.5393 0.296332 47.6446 0.271064 47.7493 0.283215H53.2093C53.5793 0.283215 53.6493 0.402479 53.5593 0.831834C53.3093 2.02449 53.0393 3.14558 52.7793 4.29053L50.7793 13.2712L48.8993 21.3813C48.8193 21.7033 48.7593 22.0253 48.6793 22.3354C48.5993 22.6455 48.4893 22.8244 48.1493 22.8244H44.4293C44.0093 22.8244 43.9393 22.6932 44.0493 22.2161C44.1593 21.7391 44.3393 21.0235 44.4893 20.3556C44.6393 19.6877 44.6593 19.8427 45.0693 19.8427C46.0693 19.8427 46.9693 19.8427 47.9193 19.8427C48.3093 19.8427 48.4093 19.64 48.4393 19.2583C48.4486 19.2153 48.4494 19.1702 48.4416 19.1267C48.4338 19.0833 48.4176 19.0425 48.3943 19.0078C48.371 18.9731 48.3413 18.9453 48.3074 18.9267C48.2736 18.9081 48.2365 18.8991 48.1993 18.9005C48.0993 18.9005 47.9893 18.9005 47.8893 18.9005C47.0393 18.9005 46.1993 18.9005 45.3493 18.9005C44.9293 18.9005 44.8693 18.7813 44.9793 18.2923C45.0893 17.8033 45.2493 17.0996 45.3893 16.4198C45.5293 15.74 45.5493 15.8712 45.9893 15.8712C46.9293 15.8712 47.8693 15.8712 48.7993 15.8712C49.1893 15.8712 49.2893 15.6207 49.3193 15.2629C49.3271 15.2213 49.3267 15.178 49.3181 15.1365C49.3095 15.0951 49.2928 15.0566 49.2695 15.0242C49.2462 14.9917 49.2169 14.9662 49.1838 14.9497C49.1508 14.9332 49.115 14.9261 49.0793 14.929H46.3093C46.2162 14.9409 46.1223 14.9409 46.0293 14.929C45.9889 14.9284 45.9493 14.9161 45.9139 14.8933C45.8784 14.8705 45.848 14.8378 45.8254 14.7979C45.8028 14.7581 45.7887 14.7123 45.7841 14.6645C45.7795 14.6168 45.7847 14.5684 45.7993 14.5235C45.9593 13.7602 46.1293 13.0088 46.2893 12.2455C46.3593 11.9235 46.5693 11.9116 46.7893 11.9116H49.7193C49.8021 11.9174 49.885 11.9003 49.9614 11.8617C50.0378 11.8231 50.1057 11.764 50.1599 11.689C50.2141 11.614 50.253 11.5252 50.2737 11.4293C50.2944 11.3335 50.2963 11.2332 50.2793 11.1364C50.2793 11.1009 50.2733 11.0658 50.2616 11.0331C50.2499 11.0005 50.2328 10.971 50.2113 10.9465C50.1898 10.922 50.1644 10.9029 50.1365 10.8904C50.1087 10.878 50.079 10.8724 50.0493 10.874H47.2393C47.0996 10.9022 46.956 10.8696 46.8348 10.782C46.7136 10.6944 46.6229 10.5577 46.5793 10.3969V10.3969Z" fill="#323F9E"/>
<path d="M53.7593 11.9831C53.9693 11.9831 54.0793 11.9831 54.1993 11.9831H63.4493H63.8793C63.858 11.8649 63.8278 11.7491 63.7893 11.6373C63.6703 11.4224 63.506 11.2487 63.3129 11.1335C63.1198 11.0184 62.9048 10.9659 62.6893 10.9813C59.8093 10.9813 56.9193 10.9813 54.0293 10.9813H53.8293C53.5493 10.9813 53.4793 10.8263 53.5493 10.5162C53.6993 9.86021 53.8493 9.20425 54.0093 8.56022C54.1693 7.91618 54.1993 7.99967 54.6493 7.99967C55.7293 7.99967 56.8193 7.99967 57.8993 7.99967C58.3093 7.99967 58.4193 7.74921 58.4293 7.31986C58.4354 7.28061 58.434 7.2402 58.4251 7.20172C58.4161 7.16324 58.4 7.12769 58.3778 7.09779C58.3556 7.06788 58.328 7.04441 58.2971 7.02915C58.2661 7.0139 58.2327 7.00727 58.1993 7.00976H54.6393C54.4293 7.00976 54.3593 6.85472 54.4093 6.61619C54.5893 5.84096 54.7793 5.07767 54.9693 4.30244C55.0393 4.00428 55.2293 3.95657 55.4593 3.95657H65.3893C65.6393 3.95657 65.7693 3.82538 65.8093 3.6107C65.8284 3.50034 65.8124 3.38543 65.7643 3.2884C65.7162 3.19137 65.6395 3.11919 65.5493 3.08593C65.3958 3.00042 65.2286 2.95566 65.0593 2.95474H55.9993C55.8746 2.94201 55.7509 2.91809 55.6293 2.88318C55.6852 2.7669 55.7523 2.65882 55.8293 2.56116C56.6593 1.83364 57.4793 1.0942 58.3193 0.378613C58.4726 0.265194 58.6488 0.203375 58.8293 0.199713H63.8293C63.9331 0.199278 64.0361 0.22328 64.1322 0.27035C64.2283 0.31742 64.3156 0.386628 64.3893 0.474018L66.3893 2.63273C66.4753 2.71755 66.539 2.83018 66.5727 2.95711C66.6064 3.08405 66.6087 3.21988 66.5793 3.34832C66.3593 4.374 66.1593 5.39968 65.9493 6.42537C65.8393 6.93821 65.7593 6.99783 65.3093 6.99783H61.8093C61.7195 7.00975 61.629 7.00975 61.5393 6.99783C61.4989 6.99647 61.4593 6.98391 61.4237 6.96115C61.3881 6.93838 61.3575 6.90605 61.3342 6.8667C61.3109 6.82734 61.2956 6.78206 61.2896 6.73444C61.2835 6.68682 61.2868 6.63816 61.2993 6.59234C61.2993 6.44922 61.3593 6.31803 61.3793 6.17491C61.3993 6.03179 61.3793 5.80518 61.1293 5.80518C60.7193 5.80518 60.3093 5.80518 59.9093 5.80518C59.6593 5.80518 59.5793 6.01986 59.5293 6.27031L59.1993 7.90425C59.1993 8.03545 59.1993 8.17856 59.1293 8.30975C59.1199 8.3528 59.1191 8.39786 59.1269 8.44134C59.1347 8.48483 59.1509 8.52555 59.1742 8.56027C59.1975 8.595 59.2272 8.62277 59.2611 8.64139C59.295 8.66001 59.332 8.66897 59.3693 8.66755H59.6493C60.5193 8.66755 61.3893 8.66755 62.2593 8.66755C62.3838 8.66086 62.508 8.68615 62.6236 8.74171C62.7392 8.79727 62.8434 8.8818 62.9293 8.98957L64.7393 11.2437C64.8115 11.3341 64.861 11.4468 64.8822 11.5691C64.9034 11.6914 64.8955 11.8183 64.8593 11.9354C64.6393 12.973 64.4293 14.0106 64.2093 15.0482C63.9193 16.4437 63.6093 17.851 63.3393 19.2583C63.3039 19.5035 63.225 19.7368 63.1077 19.9426C62.9904 20.1483 62.8375 20.3216 62.6593 20.451C61.8493 21.0711 61.0593 21.7271 60.2793 22.395C59.9321 22.7087 59.5044 22.8688 59.0693 22.8482C57.6293 22.8482 56.1893 22.8482 54.7593 22.8482C54.5887 22.8568 54.4184 22.8242 54.2586 22.7525C54.0988 22.6807 53.9528 22.5713 53.8293 22.4308C53.2593 21.7748 52.6593 21.1546 52.0793 20.5106C51.9514 20.3519 51.8312 20.1847 51.7193 20.0097C51.9293 20.0097 52.0493 20.0097 52.1693 20.0097C55.1693 20.0097 58.2393 20.0097 61.2693 20.0097C61.4785 20.0055 61.6849 19.9504 61.8758 19.8479C62.0666 19.7454 62.2379 19.5975 62.3793 19.4134C62.4418 19.3065 62.4923 19.1902 62.5293 19.0675C62.3393 19.0675 62.2093 19.0675 62.0693 19.0675H52.2993C51.6393 19.0675 51.6193 19.0079 51.7993 18.2446C51.9293 17.684 52.0593 17.1235 52.1793 16.5629C52.2993 16.0024 52.3393 16.0859 52.7093 16.0859H56.7093C57.0993 16.0859 57.1493 16.1693 57.0693 16.6225C56.9893 17.0758 57.0693 17.1712 57.4193 17.1831H58.4193C58.5248 17.189 58.6288 17.1504 58.7129 17.0741C58.797 16.9978 58.8559 16.8886 58.8793 16.7657C59.0893 16.0143 59.0893 16.0262 59.7493 16.0262H62.7493C63.1193 16.0262 63.2393 15.907 63.3193 15.5253C63.3993 15.1437 63.3193 15.084 63.0393 15.0721C62.7593 15.0602 62.4093 15.0721 62.0893 15.0721H59.7893C59.3793 15.0721 59.3493 15.0721 59.3593 14.5235C59.3593 14.2134 59.2993 14.1418 58.9893 14.1418H57.0593C56.6293 14.1418 56.2093 14.1418 55.7893 14.1418C55.6828 14.1464 55.5767 14.1255 55.4771 14.0804C55.3775 14.0354 55.2864 13.967 55.2093 13.8795L53.9993 12.3886C53.9101 12.2615 53.8298 12.1259 53.7593 11.9831Z" fill="#323F9E"/>
<path d="M29.3093 0.116232H33.7393C33.8192 0.110263 33.8994 0.110263 33.9793 0.116232C34.2293 0.116232 34.2993 0.247425 34.2593 0.545588L34.1993 0.819893C33.8893 2.2153 33.5693 3.61071 33.2593 5.00611C33.2593 5.07767 33.2593 5.13731 33.2593 5.19694C33.1493 5.63822 33.0893 5.68592 32.6993 5.68592H29.0893C28.5593 5.68592 28.5193 5.68592 28.3893 6.32996C28.2593 6.97399 28.1393 7.52261 28.0193 8.11894C27.9493 8.44095 28.0193 8.54829 28.2893 8.58407C28.5593 8.61985 28.5493 8.58407 28.6893 8.58407H31.9293C32.3393 8.58407 32.4093 8.67948 32.3093 9.14462C32.0993 10.1464 31.8693 11.1483 31.6493 12.1501C31.5293 12.6749 31.4293 13.1877 31.3093 13.7006C31.1893 14.2134 31.1093 14.2372 30.7293 14.2372H27.2393C26.7493 14.2372 26.7193 14.2373 26.5893 14.8217L26.1993 16.551C26.1193 16.9326 26.1993 17.0281 26.5093 17.0519H30.0693C30.4593 17.0519 30.5293 17.1473 30.4293 17.5767C30.0793 19.1629 29.7293 20.7372 29.3693 22.3473C29.2993 22.6693 29.1993 22.7528 28.9193 22.7766H20.0993C19.6393 22.7766 19.4193 22.7766 19.6093 22.0491C19.7993 21.3216 19.8193 20.9757 19.9293 20.439C20.0393 19.9024 20.0993 19.9023 20.4993 19.9023H28.3693C28.4754 19.9205 28.5831 19.9205 28.6893 19.9023C28.7893 19.9023 28.9293 19.8069 28.9693 19.6996C29.0413 19.5176 29.0657 19.314 29.0393 19.1152C29.0393 18.9125 28.7793 18.9721 28.6193 18.9721H20.9093C20.3793 18.9721 20.3393 18.8767 20.4693 18.2684C20.5993 17.6602 20.7093 17.0758 20.8393 16.4794C20.9693 15.8831 20.9993 15.9427 21.4393 15.9427H24.9193C25.3093 15.9427 25.4693 15.74 25.4893 15.2868C25.4893 15.096 25.4293 14.9767 25.2693 14.9648H21.8293C21.7228 14.9768 21.6157 14.9768 21.5093 14.9648C21.2793 14.9648 21.1893 14.8217 21.2393 14.5593C21.3893 13.8079 21.5493 13.0684 21.7093 12.3171C21.7263 12.2149 21.7747 12.124 21.845 12.0622C21.9153 12.0004 22.0024 11.9722 22.0893 11.9831H30.2393C30.6693 11.9831 30.8293 11.8281 30.8593 11.3987C30.8671 11.3555 30.8664 11.3106 30.8572 11.2678C30.848 11.2249 30.8307 11.1851 30.8064 11.1516C30.7822 11.1181 30.7518 11.0917 30.7176 11.0746C30.6834 11.0575 30.6463 11.05 30.6093 11.0529H22.6993C22.0593 11.0529 22.0293 11.0529 22.1793 10.2776C22.3293 9.50241 22.4393 9.08498 22.5793 8.45288C22.6693 8.02352 22.7293 7.97581 23.0993 7.97581H26.5793C26.9993 7.97581 27.1693 7.80884 27.2193 7.34371C27.2193 7.12903 27.2193 7.0217 26.9993 6.98592C26.9194 6.97998 26.8392 6.97998 26.7593 6.98592H23.4793C22.8993 6.98592 22.8593 6.98592 23.0193 6.24647L23.4093 4.46942C23.5293 3.95658 23.5593 3.9208 24.0093 3.9208H28.1593H31.9993C32.3993 3.9208 32.5693 3.7419 32.5693 3.34832C32.5693 3.1575 32.4993 3.03823 32.3393 3.03823H24.4293C23.7993 3.03823 23.7593 3.03823 23.9093 2.25108C24.0193 1.75017 24.1193 1.24925 24.2293 0.748337C24.3393 0.247423 24.3893 0.223567 24.7993 0.223567H29.3093V0.116232Z" fill="#323F9E"/>
</svg>
