<svg width="158" height="49" viewBox="0 0 158 49" fill="none" xmlns="http://www.w3.org/2000/svg">
<path d="M158 0H0V49H158V0Z" fill="#FCEB00"/>
<path d="M158 0H0V49H158V0Z" fill="#FCEB00"/>
<path d="M135.974 13.44C134.774 16.22 133.624 18.91 132.434 21.68C132.612 21.7144 132.792 21.7377 132.974 21.75H140.584C142.284 21.75 143.984 21.75 145.684 21.75C145.841 21.7759 146.001 21.7434 146.136 21.6586C146.271 21.5739 146.369 21.4427 146.414 21.29C147.134 19.58 147.874 17.88 148.594 16.17C148.944 15.36 149.294 14.54 149.594 13.72C149.626 13.619 149.69 13.5313 149.777 13.47C149.864 13.4087 149.968 13.3771 150.074 13.38H150.394H157.394C157.527 13.3726 157.66 13.3726 157.794 13.38C157.78 13.505 157.756 13.6287 157.724 13.75L155.724 18.49C154.864 20.49 153.994 22.49 153.134 24.49C152.274 26.49 151.304 28.72 150.404 30.84C149.934 31.93 149.474 33.02 149.034 34.12C149.005 34.2311 148.94 34.3295 148.85 34.4001C148.76 34.4706 148.648 34.5093 148.534 34.51H141.294C141.102 34.4924 140.912 34.4624 140.724 34.42C141.314 33.04 141.894 31.73 142.454 30.42C143.014 29.11 143.564 27.84 144.144 26.42H143.594H130.854C130.698 26.4015 130.54 26.4384 130.408 26.5243C130.277 26.6102 130.18 26.7397 130.134 26.89C129.134 29.29 128.134 31.68 127.074 34.08C127.038 34.2157 126.955 34.3341 126.839 34.4132C126.723 34.4922 126.583 34.5266 126.444 34.51H119.264C119.102 34.4958 118.942 34.4725 118.784 34.44C118.984 33.95 119.144 33.51 119.334 33.08C120.094 31.2867 120.864 29.4967 121.644 27.71C122.264 26.26 122.904 24.82 123.524 23.38C124.454 21.23 125.364 19.08 126.284 16.93C126.724 15.93 127.204 14.93 127.604 13.93C127.658 13.7384 127.78 13.5734 127.948 13.4664C128.116 13.3594 128.317 13.318 128.514 13.35C130.754 13.35 132.984 13.35 135.224 13.35L135.974 13.44Z" fill="black"/>
<path d="M75.0037 29.11C75.3337 29.11 75.5537 29.11 75.7737 29.11C77.2637 29.11 78.7737 29.11 80.2437 29.11C80.4176 29.1007 80.5904 29.142 80.7413 29.229C80.8922 29.3159 81.0146 29.4448 81.0937 29.6C82.0937 31.11 83.0937 32.6 84.0937 34.11C84.1537 34.19 84.2137 34.35 84.1837 34.39C84.0999 34.4714 83.9902 34.521 83.8737 34.53H65.5037C65.2337 34.53 64.9437 34.64 64.6437 34.42C64.8037 34.04 64.9537 33.67 65.1137 33.3C65.6037 32.17 66.1137 31.03 66.5937 29.89C67.1837 28.51 67.7737 27.12 68.3737 25.74L71.3737 18.93C72.1137 17.22 72.8537 15.51 73.5637 13.8C73.6056 13.658 73.6976 13.5361 73.8227 13.457C73.9478 13.3779 74.0975 13.3469 74.2437 13.37H83.3437C83.4758 13.3575 83.6088 13.384 83.726 13.4462C83.8433 13.5084 83.9398 13.6036 84.0037 13.72C85.0037 15.34 86.0037 16.95 87.0037 18.55C88.0037 20.15 89.0037 21.7 90.0037 23.27L93.6337 29.15C94.3537 30.3 95.0737 31.46 95.8037 32.61L96.7137 34.04C96.7137 34.14 96.8337 34.32 96.7937 34.38C96.6936 34.4671 96.5663 34.5166 96.4337 34.52H88.6637C88.4744 34.5375 88.2843 34.496 88.1195 34.4011C87.9548 34.3062 87.8235 34.1626 87.7437 33.99C86.9137 32.55 86.0137 31.15 85.1437 29.73L83.2337 26.54C82.1403 24.74 81.0437 22.94 79.9437 21.14C79.7737 20.86 79.6137 20.56 79.4437 20.27C79.3482 20.1466 79.2446 20.0297 79.1337 19.92C77.6737 23.04 76.3337 26.02 75.0037 29.11Z" fill="black"/>
<path d="M35.8837 13.44C35.8544 13.6025 35.8143 13.7629 35.7637 13.92C35.1837 15.33 34.5937 16.73 34.0137 18.14C33.6637 18.99 33.6837 19 32.7637 19H16.0037C15.6707 18.9782 15.3367 18.9782 15.0037 19C14.9294 19.0061 14.8574 19.0291 14.7933 19.0672C14.7291 19.1053 14.6746 19.1576 14.6337 19.22C14.2937 19.94 13.9937 20.68 13.6337 21.41C13.6283 21.4699 13.6283 21.5301 13.6337 21.59C13.8137 21.59 13.9937 21.59 14.1837 21.59H32.0337C32.1837 21.59 32.3437 21.59 32.5837 21.59C32.4537 21.86 32.3537 22.05 32.2637 22.25C31.7237 23.43 31.1637 24.6 30.6537 25.78C30.5944 25.9716 30.47 26.1364 30.302 26.246C30.134 26.3556 29.933 26.403 29.7337 26.38C24.3037 26.38 18.8837 26.38 13.4537 26.38C12.9237 26.38 12.3837 26.38 11.8537 26.38C11.7314 26.3635 11.6072 26.3919 11.5043 26.4599C11.4013 26.5279 11.3265 26.631 11.2937 26.75C10.8737 27.75 10.4337 28.85 9.99371 29.89C9.40371 31.3 8.80371 32.69 8.21371 34.1C8.17328 34.2176 8.09348 34.3177 7.98781 34.3833C7.88213 34.4489 7.75705 34.476 7.63371 34.46H0.403707C-0.0262931 34.46 -0.0762927 34.37 0.0837073 34C0.423707 33.24 0.753707 32.47 1.08371 31.71L2.14371 29.21L4.14371 24.53C4.70371 23.24 5.27371 21.97 5.82371 20.68C6.37371 19.39 6.98371 17.94 7.57371 16.57L8.84371 13.57C8.87573 13.4689 8.94247 13.3823 9.03212 13.3256C9.12178 13.2689 9.22859 13.2456 9.33371 13.26H35.4737C35.6148 13.3093 35.7519 13.3695 35.8837 13.44V13.44Z" fill="black"/>
<path d="M41.2137 29.15H58.2137C59.0237 29.15 59.8437 29.15 60.6637 29.15C61.4837 29.15 62.2337 29.15 63.1137 29.15C62.9437 29.61 62.8237 29.97 62.6737 30.32C62.1337 31.58 61.5837 32.82 61.0637 34.08C61.0223 34.2242 60.9315 34.3493 60.8072 34.4334C60.6829 34.5175 60.533 34.5552 60.3837 34.54C59.2637 34.54 58.1537 34.54 57.0337 34.54H30.7137C30.7416 34.3772 30.7817 34.2168 30.8337 34.06L33.5637 27.72C34.2537 26.12 34.9537 24.54 35.6337 22.94C36.3137 21.34 36.9137 19.94 37.5637 18.39C38.0937 17.15 38.6437 15.92 39.1837 14.69C39.3137 14.4 39.4537 14.11 39.5537 13.81C39.6537 13.51 39.8837 13.37 40.2337 13.37H47.3037C47.8037 13.37 47.8837 13.48 47.6837 13.93C46.7437 16.1 45.8137 18.26 44.8737 20.42L41.6437 27.88C41.4837 28.26 41.3537 28.62 41.2137 29.15Z" fill="black"/>
<path d="M90.3137 48.85C90.3668 48.7056 90.4303 48.5652 90.5037 48.43C90.8837 47.82 91.2837 47.21 91.6637 46.59L93.8437 43.07L97.9237 36.48L100.684 32L103.454 27.48L105.454 24.32C105.714 23.91 105.684 23.85 105.204 23.75L100.574 22.8L95.9337 21.88L95.3037 21.73C95.4937 21.25 95.9137 21.12 96.2237 20.87C97.0537 20.18 97.9037 19.52 98.7537 18.87L99.8937 18L107.114 12.31C108.524 11.2 109.934 10.11 111.344 9.01L115.344 5.82C116.184 5.17 117.044 4.54 117.874 3.89L120.354 1.89L122.604 0.120003C122.707 0.0644264 122.819 0.0240119 122.934 0C122.748 0.467665 122.507 0.910945 122.214 1.32C121.994 1.74 121.734 2.15001 121.484 2.56001C121.234 2.97001 120.964 3.4 120.704 3.83C120.444 4.26 120.194 4.67 119.934 5.09L119.184 6.37L118.394 7.62L117.634 8.9L116.864 10.17L116.094 11.44C115.844 11.85 115.584 12.25 115.344 12.66C115.104 13.07 114.844 13.52 114.584 13.95C114.324 14.38 114.064 14.79 113.804 15.21L113.024 16.48C112.774 16.89 112.534 17.3 112.294 17.71L111.514 19.02C112.024 19.13 112.444 19.24 112.874 19.32L117.524 20.16L121.714 20.92C121.823 20.9613 121.927 21.015 122.024 21.08C121.974 21.2047 121.903 21.3198 121.814 21.42L117.814 24.91L111.674 30.32C109.894 31.88 108.124 33.45 106.334 35.01C105.494 35.75 104.644 36.47 103.804 37.2L99.6737 40.86L95.9037 44.21L90.7937 48.69C90.6837 48.79 90.5537 48.87 90.4337 48.96L90.3137 48.85ZM110.424 19.52C110.564 19.26 110.634 19.1 110.724 18.96C110.814 18.82 110.974 18.61 111.084 18.43C112.174 16.61 113.264 14.78 114.364 12.96L116.984 8.62L120.214 3.29C120.294 3.16 120.404 3.03001 120.214 2.85001C120.151 2.87388 120.091 2.90403 120.034 2.94L116.324 5.86C114.464 7.33 112.604 8.86 110.734 10.27C109.464 11.27 108.184 12.27 106.924 13.27C105.004 14.78 103.094 16.27 101.174 17.8C99.7937 18.89 98.4037 19.96 97.0237 21.03C96.9037 21.13 96.8137 21.23 96.9237 21.41C100.134 22.12 103.384 22.69 106.634 23.41C106.614 23.5018 106.587 23.5921 106.554 23.68C105.434 25.52 104.314 27.37 103.174 29.21C101.544 31.85 99.8937 34.47 98.2637 37.1L93.3437 45.1C93.3075 45.1961 93.2872 45.2974 93.2837 45.4H93.3637L120.544 21.51V21.36C118.904 20.98 117.224 20.75 115.544 20.42C113.864 20.09 112.214 19.85 110.424 19.52Z" fill="black"/>
<path d="M132.264 42.96C132.72 43.6013 132.993 44.355 133.054 45.14C133.174 45.59 133.264 46.04 133.354 46.49C133.444 46.94 133.354 46.96 132.974 46.96C132.464 46.96 131.974 46.96 131.434 46.96C131.074 46.96 131.014 46.89 130.954 46.53C130.854 45.9 130.754 45.27 130.644 44.64C130.644 44.43 130.524 44.23 130.474 44.03C130.384 43.66 130.104 43.5 129.664 43.49C129.557 43.4807 129.45 43.5083 129.36 43.5684C129.271 43.6284 129.205 43.7172 129.174 43.82C128.794 44.73 128.394 45.64 128.014 46.56C127.844 46.96 127.784 46.99 127.334 46.98C126.884 46.97 126.554 46.98 126.164 46.98C125.774 46.98 125.734 46.88 125.864 46.57C126.104 45.98 126.364 45.4 126.614 44.82C126.864 44.24 127.104 43.76 127.344 43.22C127.884 42.01 128.414 40.79 128.944 39.58C129.144 39.14 129.354 38.71 129.524 38.27C129.559 38.1415 129.638 38.0296 129.748 37.9545C129.858 37.8793 129.991 37.8458 130.124 37.86C131.184 37.86 132.254 37.86 133.314 37.86C133.722 37.8789 134.125 37.9529 134.514 38.08C134.687 38.1225 134.85 38.2012 134.991 38.3108C135.132 38.4204 135.248 38.5585 135.332 38.7161C135.416 38.8737 135.466 39.0472 135.478 39.2254C135.49 39.4035 135.465 39.5823 135.404 39.75C135.243 40.4052 134.922 41.0104 134.47 41.5112C134.018 42.0121 133.449 42.393 132.814 42.62L132.334 42.84C132.334 42.84 132.294 42.89 132.264 42.96ZM130.794 41.89C131.265 41.903 131.729 41.7682 132.119 41.5046C132.51 41.241 132.809 40.8618 132.974 40.42C133.054 40.3212 133.102 40.1999 133.111 40.0728C133.121 39.9456 133.09 39.8187 133.025 39.7094C132.959 39.6001 132.861 39.5137 132.745 39.4619C132.628 39.4101 132.499 39.3955 132.374 39.42C132.064 39.42 131.744 39.42 131.424 39.42C131.317 39.4125 131.211 39.4409 131.122 39.5007C131.033 39.5605 130.967 39.6482 130.934 39.75C130.724 40.27 130.494 40.75 130.264 41.3C130.034 41.85 130.084 41.86 130.644 41.85L130.794 41.89Z" fill="black"/>
<path d="M113.974 43.71C113.862 43.7942 113.755 43.8844 113.654 43.98C112.764 44.89 111.874 45.81 110.964 46.7C110.794 46.8503 110.58 46.9415 110.354 46.96C109.844 46.96 109.354 46.96 108.814 46.96C108.664 46.9434 108.516 46.9098 108.374 46.86C108.474 46.73 108.514 46.65 108.574 46.59L112.324 43.14C112.441 43.0072 112.572 42.8866 112.714 42.78C112.885 42.685 113.018 42.533 113.089 42.3504C113.16 42.1678 113.166 41.966 113.104 41.78C112.864 40.67 112.694 39.55 112.514 38.43C112.434 37.95 112.514 37.87 112.994 37.87C113.474 37.87 113.994 37.87 114.434 37.87C114.874 37.87 114.974 37.87 115.004 38.41C115.054 39.26 115.104 40.11 115.164 41.03C115.286 40.9677 115.4 40.8904 115.504 40.8C116.414 39.88 117.314 38.95 118.224 38.04C118.343 37.9362 118.496 37.8793 118.654 37.88C119.164 37.88 119.654 37.88 120.194 37.88C120.344 37.9082 120.492 37.9517 120.634 38.01C120.494 38.16 120.424 38.25 120.334 38.33L118.084 40.44C117.464 41.02 116.864 41.62 116.224 42.18C116.126 42.2518 116.052 42.351 116.011 42.465C115.97 42.5789 115.964 42.7025 115.994 42.82C116.204 43.94 116.424 45.05 116.644 46.16C116.638 46.1931 116.638 46.2269 116.644 46.26C116.784 46.98 116.754 47.01 116.014 46.99C115.584 46.99 115.164 46.99 114.734 46.99C114.677 46.9989 114.619 46.9951 114.563 46.9789C114.508 46.9626 114.457 46.9344 114.414 46.8962C114.371 46.8579 114.337 46.8107 114.315 46.7577C114.292 46.7048 114.281 46.6475 114.284 46.59C114.204 45.78 114.104 44.98 114.014 44.17C114.014 44.01 113.994 43.9 113.974 43.71Z" fill="black"/>
<path d="M121.964 43.82C121.414 43.66 121.104 43.94 120.894 44.52C120.684 45.1 120.304 45.85 120.034 46.52C120.005 46.6488 119.93 46.7626 119.823 46.84C119.716 46.9173 119.585 46.9529 119.454 46.94C119.064 46.94 118.674 46.94 118.284 46.94C117.894 46.94 117.784 46.82 117.934 46.48L118.864 44.39L120.334 41.1C120.744 40.16 121.164 39.22 121.554 38.27C121.593 38.1255 121.684 38.0002 121.809 37.9175C121.934 37.8347 122.085 37.8001 122.234 37.82C123.184 37.82 124.144 37.82 125.104 37.82C125.744 37.7982 126.377 37.9651 126.924 38.3C127.11 38.4053 127.263 38.5623 127.362 38.7522C127.461 38.942 127.504 39.1566 127.484 39.37C127.445 39.9627 127.285 40.5411 127.013 41.0693C126.741 41.5974 126.364 42.064 125.904 42.44C124.813 43.3835 123.405 43.8768 121.964 43.82V43.82ZM121.964 42.23C122.418 42.277 122.878 42.25 123.324 42.15C123.742 42.0715 124.129 41.877 124.442 41.5888C124.755 41.3006 124.981 40.9303 125.094 40.52C125.152 40.4238 125.185 40.3144 125.189 40.202C125.193 40.0896 125.168 39.9781 125.117 39.8779C125.066 39.7777 124.99 39.6923 124.897 39.6296C124.804 39.567 124.696 39.5293 124.584 39.52C124.164 39.4551 123.738 39.435 123.314 39.46C123.224 39.46 123.094 39.62 123.044 39.73C122.774 40.29 122.534 40.85 122.284 41.42C122.154 41.68 122.064 41.9 121.934 42.23H121.964Z" fill="black"/>
<path d="M137.024 45.21C138.184 45.33 139.254 45.15 140.394 45.29C140.346 45.4661 140.289 45.6397 140.224 45.81C140.044 46.18 139.854 46.54 139.674 46.9C139.284 46.9 138.904 46.9 138.514 46.9H134.584C134.314 46.9 134.214 46.77 134.324 46.48C134.514 46 134.734 45.48 134.934 45.06C135.524 43.73 136.124 42.41 136.704 41.06C137.134 40.06 137.554 39.15 137.954 38.19C137.996 38.0557 138.082 37.9394 138.198 37.8596C138.314 37.7799 138.453 37.7413 138.594 37.75C140.014 37.75 141.434 37.75 142.854 37.75C143.014 37.75 143.164 37.75 143.394 37.75C143.359 37.9503 143.309 38.1475 143.244 38.34C143.164 38.57 143.024 38.78 142.944 39.02C142.908 39.1569 142.823 39.2758 142.705 39.3534C142.586 39.431 142.443 39.4619 142.304 39.44C141.504 39.44 140.704 39.44 139.904 39.44C139.775 39.4132 139.641 39.438 139.531 39.5091C139.42 39.5802 139.342 39.6919 139.314 39.82C139.164 40.26 138.944 40.66 138.754 41.08C138.721 41.1707 138.697 41.2645 138.684 41.36C138.784 41.36 138.864 41.45 138.944 41.44H141.114C141.554 41.44 141.634 41.54 141.464 41.93C141.294 42.32 141.174 42.58 141.034 42.93C140.997 43.021 140.93 43.097 140.845 43.146C140.76 43.1949 140.661 43.2139 140.564 43.2C139.874 43.2 139.184 43.2 138.494 43.2C138.302 43.1638 138.103 43.2028 137.94 43.3089C137.776 43.4151 137.659 43.5801 137.614 43.77C137.454 44.24 137.214 44.67 137.024 45.21Z" fill="black"/>
<path d="M111.454 37.92C111.214 38.45 111.014 38.86 110.834 39.28C110.784 39.3747 110.707 39.4521 110.612 39.5021C110.517 39.5521 110.41 39.5722 110.304 39.56C109.844 39.56 109.384 39.56 108.924 39.56H107.754C107.664 39.5512 107.573 39.5717 107.496 39.6186C107.418 39.6654 107.358 39.7361 107.324 39.82C107.124 40.29 106.904 40.75 106.714 41.23C106.634 41.43 106.734 41.53 107.014 41.53C107.684 41.53 108.354 41.53 109.014 41.53H109.494C109.473 41.7022 109.44 41.8726 109.394 42.04C109.274 42.33 109.124 42.62 109.004 42.91C108.969 43.0205 108.895 43.1143 108.795 43.1733C108.695 43.2324 108.577 43.2525 108.464 43.23C107.724 43.23 106.974 43.23 106.234 43.23C106.121 43.2127 106.005 43.2365 105.908 43.297C105.811 43.3575 105.738 43.4508 105.704 43.56C105.484 44.1 105.234 44.62 104.974 45.18C105.094 45.18 105.164 45.28 105.244 45.27C105.974 45.27 106.694 45.27 107.424 45.27C108.324 45.27 108.424 45.35 108.044 46.16C108.02 46.2047 107.999 46.2516 107.984 46.3C107.874 46.95 107.434 47 106.884 47C105.454 47 104.014 47 102.574 47C102.234 47 102.144 46.86 102.284 46.52L102.884 45.16C103.884 42.88 104.884 40.6 105.884 38.31C105.923 38.1772 106.007 38.0623 106.122 37.9856C106.238 37.9088 106.376 37.8749 106.514 37.89H110.874C111.067 37.8894 111.261 37.8995 111.454 37.92V37.92Z" fill="black"/>
<path d="M149.624 39.96L149.114 39.69C148.681 39.4606 148.199 39.3407 147.709 39.3407C147.219 39.3407 146.736 39.4606 146.304 39.69C146.184 39.7592 146.076 39.847 145.984 39.95C145.524 40.4 145.554 40.77 146.074 41.12C146.423 41.3593 146.787 41.5764 147.164 41.77C147.572 41.937 147.906 42.2449 148.106 42.6377C148.306 43.0304 148.358 43.4819 148.254 43.91C148.112 44.4242 147.87 44.9049 147.54 45.3239C147.21 45.7429 146.8 46.0918 146.334 46.35C144.978 47.0768 143.406 47.2932 141.904 46.96C141.658 46.9215 141.417 46.8578 141.184 46.77C140.874 46.65 140.814 46.49 140.944 46.19C141.074 45.89 141.304 45.35 141.494 44.93C141.684 44.51 141.784 44.54 142.024 44.81C142.488 45.1687 143.047 45.3835 143.631 45.4279C144.216 45.4724 144.801 45.3445 145.314 45.06C145.509 44.9116 145.675 44.7285 145.804 44.52C145.883 44.4214 145.922 44.2964 145.913 44.1702C145.903 44.044 145.847 43.926 145.754 43.84C145.559 43.6605 145.348 43.4998 145.124 43.36C144.704 43.08 144.224 42.86 143.834 42.54C143.563 42.317 143.373 42.0117 143.291 41.6705C143.21 41.3294 143.243 40.9711 143.384 40.65C143.699 39.7178 144.347 38.9345 145.204 38.45C145.817 38.1307 146.474 37.9049 147.154 37.78C148.003 37.59 148.884 37.59 149.734 37.78C149.874 37.8047 150.012 37.845 150.144 37.9C150.186 37.9137 150.224 37.9364 150.256 37.9667C150.289 37.9969 150.314 38.0339 150.33 38.075C150.346 38.1161 150.353 38.1602 150.35 38.2043C150.348 38.2484 150.335 38.2913 150.314 38.33L149.624 39.96Z" fill="black"/>
<path d="M148.134 46.55C148.364 46 148.564 45.47 148.794 44.96C148.944 44.62 149.054 44.63 149.354 44.85C149.599 45.0488 149.876 45.2044 150.174 45.31C150.944 45.55 151.776 45.4893 152.504 45.14C152.673 45.0459 152.825 44.9242 152.954 44.78C153.033 44.7009 153.093 44.6046 153.13 44.4984C153.166 44.3923 153.177 44.2792 153.163 44.168C153.148 44.0567 153.108 43.9503 153.046 43.857C152.984 43.7638 152.901 43.6861 152.804 43.63C152.454 43.39 152.064 43.2 151.704 42.99C151.546 42.9051 151.396 42.8082 151.254 42.7C150.944 42.4818 150.718 42.1656 150.611 41.8026C150.504 41.4396 150.522 41.0511 150.664 40.7C150.84 40.1607 151.129 39.6651 151.512 39.2461C151.895 38.8271 152.362 38.4944 152.884 38.27C154.173 37.6911 155.613 37.5404 156.994 37.84C157.132 37.8594 157.27 37.8895 157.404 37.93C157.453 37.9385 157.499 37.959 157.538 37.9897C157.577 38.0204 157.608 38.0604 157.628 38.106C157.648 38.1517 157.656 38.2015 157.652 38.2511C157.647 38.3007 157.631 38.3484 157.604 38.39C157.424 38.8 157.254 39.21 157.084 39.61C156.914 40.01 156.794 39.97 156.504 39.77C156.048 39.5067 155.53 39.3681 155.004 39.3681C154.477 39.3681 153.96 39.5067 153.504 39.77C153.373 39.8606 153.256 39.9682 153.154 40.09C153.085 40.1579 153.032 40.2405 152.999 40.3318C152.967 40.423 152.955 40.5204 152.966 40.6167C152.976 40.713 153.009 40.8056 153.06 40.8876C153.112 40.9696 153.181 41.0388 153.264 41.09C153.672 41.3714 154.096 41.6285 154.534 41.86C154.748 41.9472 154.942 42.0766 155.105 42.2406C155.268 42.4046 155.397 42.5998 155.483 42.8145C155.568 43.0292 155.61 43.259 155.605 43.4902C155.6 43.7214 155.549 43.9492 155.454 44.16C155.213 44.8593 154.793 45.4827 154.235 45.9673C153.676 46.4519 153 46.7806 152.274 46.92C151.106 47.2449 149.871 47.2449 148.704 46.92L148.364 46.79C148.276 46.7212 148.199 46.6404 148.134 46.55Z" fill="black"/>
<path d="M110.424 19.52C112.234 19.85 113.924 20.13 115.604 20.47C117.284 20.81 118.934 21.03 120.604 21.41V21.56L93.4237 45.45H93.3437C93.3472 45.3474 93.3674 45.2461 93.4037 45.15L98.3237 37.15C99.9537 34.52 101.604 31.9 103.234 29.26C104.374 27.42 105.494 25.57 106.614 23.73C106.647 23.6421 106.674 23.5519 106.694 23.46C103.444 22.74 100.194 22.17 96.9837 21.46C96.8737 21.28 96.9837 21.18 97.0837 21.08C98.4637 20.01 99.8537 18.94 101.234 17.85C103.154 16.35 105.064 14.85 106.984 13.32C108.244 12.32 109.524 11.32 110.794 10.32C112.664 8.86002 114.524 7.38003 116.384 5.91003L120.094 2.99003C120.151 2.95405 120.211 2.9239 120.274 2.90002C120.444 3.08002 120.334 3.21003 120.274 3.34003L116.984 8.62003L114.364 12.93C113.264 14.75 112.174 16.58 111.084 18.4C110.974 18.58 110.834 18.75 110.724 18.93C110.614 19.11 110.564 19.26 110.424 19.52Z" fill="white"/>
</svg>
