<svg width="22" height="22" viewBox="0 0 22 22" fill="none" xmlns="http://www.w3.org/2000/svg">
<circle cx="11" cy="11" r="10.5" fill="#DDDFEA" stroke="#DDDFEA"/>
<path fill-rule="evenodd" clip-rule="evenodd" d="M16.2555 16.9137C16.4373 17.0954 16.7319 17.0954 16.9137 16.9137C17.0954 16.7319 17.0954 16.4373 16.9137 16.2555L11.6582 11L16.9137 5.74447C17.0954 5.56273 17.0954 5.26806 16.9137 5.08632C16.7319 4.90458 16.4373 4.90458 16.2555 5.08632L11 10.3419L5.74447 5.08633C5.56273 4.90459 5.26806 4.90459 5.08632 5.08633C4.90458 5.26808 4.90458 5.56274 5.08632 5.74449L10.3419 11L5.08632 16.2556C4.90458 16.4373 4.90458 16.732 5.08632 16.9137C5.26806 17.0955 5.56273 17.0955 5.74447 16.9137L11 11.6582L16.2555 16.9137Z" fill="white"/>
</svg>
