<?xml version="1.0" encoding="UTF-8"?>
<svg width="56px" height="59px" viewBox="0 0 56 59" version="1.1" xmlns="http://www.w3.org/2000/svg" xmlns:xlink="http://www.w3.org/1999/xlink">
    <!-- Generator: Sketch 61 (89581) - https://sketch.com -->
    <title>icon_Attach</title>
    <desc>Created with Sketch.</desc>
    <g id="Plusmar-Inbox" stroke="none" stroke-width="1" fill="none" fill-rule="evenodd">
        <g id="icon" transform="translate(-939.000000, -47.000000)" fill="#DDDFEA" fill-rule="nonzero">
            <g id="icon_Attach" transform="translate(939.000000, 47.000000)">
                <path d="M55.2681183,21.4876289 C54.2959153,20.5301264 52.7240282,20.5343901 51.7570622,21.4969631 L21.912737,51.209042 C18.0407998,55.0430854 11.752204,55.0430854 7.87305157,51.2038563 C3.99680849,47.3635902 3.99680849,41.1365395 7.87351707,37.2977714 L38.6012506,6.71092997 C41.0186074,4.31734651 44.9487324,4.31734651 47.3730718,6.71611562 C49.7967129,9.1160371 49.7967129,13.0072379 47.3724899,15.4078508 L21.917392,40.6135949 C21.9157627,40.6152082 21.9143662,40.617052 21.912737,40.6186653 C20.942978,41.5736326 19.3757459,41.572365 18.4079653,40.6140559 C17.4385554,39.6541334 17.4385554,38.0983214 18.4079653,37.1383989 L30.6949157,24.9691629 C31.6643256,24.00901 31.6642092,22.4523913 30.6945665,21.4924688 C29.7249239,20.5325463 28.1529204,20.5326616 27.1835105,21.4928145 L14.8966765,33.66182 C11.9883304,36.5417028 11.9883304,41.2106367 14.8969092,44.0906347 C17.8053717,46.9706327 22.5204511,46.9706327 25.4290299,44.0906347 C25.4324048,44.0872928 25.4350814,44.0837205 25.43834,44.0803786 L50.8834296,18.8843145 C55.2468215,14.5636261 55.2468215,7.55930325 50.8834296,3.23861487 C46.5194558,-1.07953829 39.4463712,-1.07953829 35.0855395,3.23861487 L4.35780603,33.8256868 C-1.45330007,39.5799209 -1.45330007,48.9192869 4.36199555,54.6805504 C10.1811316,60.4397397 19.6129196,60.4397397 25.4285644,54.6810114 L55.2776611,24.964323 C56.2445107,24.0016348 56.2402048,22.4451314 55.2681183,21.4876289 Z" id="Path"></path>
            </g>
        </g>
    </g>
</svg>