<svg width="38" height="30" viewBox="0 0 38 30" fill="none" xmlns="http://www.w3.org/2000/svg">
<path fill-rule="evenodd" clip-rule="evenodd" d="M34 0H4C1.79086 0 0 1.79086 0 4V26C0 28.2091 1.79086 30 4 30H34C36.2091 30 38 28.2091 38 26V4C38 1.79086 36.2091 0 34 0ZM3 6.00109V26C3 26.5523 3.44772 27 4 27H34C34.5523 27 35 26.5523 35 26V6.00104L22.0841 18.1572C20.3514 19.788 17.6486 19.788 15.9158 18.1572L3 6.00109ZM33.8114 3H4.18857L17.9719 15.9726C18.5495 16.5162 19.4504 16.5162 20.028 15.9726L33.8114 3Z" fill="white"/>
</svg>
