<svg width="20" height="20" viewBox="0 0 20 20" fill="none" xmlns="http://www.w3.org/2000/svg">
<path d="M7.70824 0C8.51253 0 9.16667 0.624406 9.16667 1.39199V4.9715C9.16667 5.73923 8.51253 6.36364 7.70824 6.36364H1.45827C0.654141 6.36364 0 5.73923 0 4.9715V1.39199C0 0.624406 0.654141 0 1.45827 0H7.70824Z" fill="white"/>
<path d="M7.70824 9.09088C8.51253 9.09088 9.16667 9.70255 9.16667 10.4546V18.6364C9.16667 19.3883 8.51253 20 7.70824 20H1.45827C0.654141 20 0 19.3883 0 18.6364V10.4546C0 9.70255 0.654141 9.09088 1.45827 9.09088H7.70824Z" fill="white"/>
<path d="M18.5417 13.6364C19.3458 13.6364 20 14.2608 20 15.0285V18.608C20 19.3756 19.3458 20 18.5417 20H12.2917C11.4875 20 10.8333 19.3756 10.8333 18.608V15.0285C10.8333 14.2608 11.4875 13.6364 12.2917 13.6364H18.5417Z" fill="white"/>
<path d="M18.5417 0C19.3458 0 20 0.611665 20 1.36358V9.54536C20 10.2974 19.3458 10.9091 18.5417 10.9091H12.2917C11.4875 10.9091 10.8333 10.2974 10.8333 9.54536V1.36358C10.8333 0.611665 11.4875 0 12.2917 0H18.5417Z" fill="white"/>
</svg>
