<svg width="20" height="21" viewBox="0 0 20 21" fill="none" xmlns="http://www.w3.org/2000/svg">
<path d="M10 0C15.5139 0 20 4.53391 20 10.1066C20 15.6793 15.5139 20.2132 10 20.2132C8.85216 20.2132 7.74757 20.0236 6.71315 19.649L1.54833 20.5599C1.5048 20.5679 1.46099 20.5714 1.4177 20.5714C1.18835 20.5714 0.968109 20.4663 0.822527 20.2805C0.649633 20.06 0.609878 19.7616 0.719244 19.5027L2.08252 16.2722C1.50861 15.5296 1.03975 14.6973 0.68581 13.7913C0.230379 12.6118 0 11.3729 0 10.1066C0 4.53391 4.48609 0 10 0ZM10.8163 12.9076H5.5102C5.17207 12.9076 4.89796 13.1785 4.89796 13.5126C4.89796 13.8468 5.17207 14.1176 5.5102 14.1176H10.8163C11.1545 14.1176 11.4286 13.8468 11.4286 13.5126C11.4286 13.1785 11.1545 12.9076 10.8163 12.9076ZM12.449 10.084H5.5102C5.17207 10.084 4.89796 10.3549 4.89796 10.6891C4.89796 11.0232 5.17207 11.2941 5.5102 11.2941H12.449C12.7871 11.2941 13.0612 11.0232 13.0612 10.6891C13.0612 10.3549 12.7871 10.084 12.449 10.084ZM16.1224 7.2605H5.5102C5.17207 7.2605 4.89796 7.53139 4.89796 7.86555C4.89796 8.1997 5.17207 8.47059 5.5102 8.47059H16.1224C16.4606 8.47059 16.7347 8.1997 16.7347 7.86555C16.7347 7.53139 16.4606 7.2605 16.1224 7.2605Z" fill="#738492"/>
</svg>
