<svg width="20" height="23" viewBox="0 0 20 23" fill="none" xmlns="http://www.w3.org/2000/svg">
<path d="M18.5715 16.2083C17.1225 14.9835 16.2917 13.1934 16.2917 11.2968V8.625C16.2917 5.25262 13.7866 2.461 10.5417 1.99333V0.958333C10.5417 0.428375 10.1123 0 9.58333 0C9.05433 0 8.625 0.428375 8.625 0.958333V1.99333C5.37912 2.461 2.875 5.25262 2.875 8.625V11.2968C2.875 13.1934 2.04413 14.9835 0.5865 16.216C0.213708 16.5351 0 16.9989 0 17.4896C0 18.4144 0.752292 19.1667 1.67708 19.1667H17.4896C18.4144 19.1667 19.1667 18.4144 19.1667 17.4896C19.1667 16.9989 18.953 16.5351 18.5715 16.2083Z" fill="white"/>
<path d="M9.50004 23C11.2356 23 12.6875 21.7628 13.021 20.125H5.97913C6.31263 21.7628 7.7645 23 9.50004 23Z" fill="white"/>
</svg>
