<?xml version="1.0" encoding="UTF-8"?>
<svg width="90px" height="102px" viewBox="0 0 90 102" version="1.1" xmlns="http://www.w3.org/2000/svg" xmlns:xlink="http://www.w3.org/1999/xlink">
    <!-- Generator: Sketch 61 (89581) - https://sketch.com -->
    <title>icon_Leads 2</title>
    <desc>Created with Sketch.</desc>
    <g id="More-commerce" stroke="none" stroke-width="1" fill="none" fill-rule="evenodd">
        <g id="Inactive_Copy" transform="translate(-65.000000, -59.000000)" fill="#DDDFEA" fill-rule="nonzero">
            <g id="icon_Leads-2" transform="translate(65.000000, 59.000000)">
                <g id="icon_Leads">
                    <path d="M50.8392435,60.2727787 C61.2082561,60.2727787 70.9767675,64.3357925 78.3454673,71.7135823 C85.6780812,79.0551987 89.7163121,88.7461167 89.7163121,99.00185 C89.7163121,100.630437 88.3773459,101.950764 86.7257683,101.950764 L86.7257683,101.950764 L2.99054374,101.950764 C1.33896612,101.950764 0,100.630437 0,99.00185 C0,88.7461167 4.03823089,79.0551987 11.3708448,71.7135823 C18.7395445,64.3357925 28.5082553,60.2727787 38.8770686,60.2727787 L38.8770686,60.2727787 Z M50.8392435,66.1706068 L38.8770686,66.1706068 C21.7334775,66.1706068 7.61093381,79.3255158 6.11267139,96.0529359 L6.11267139,96.0529359 L83.6036407,96.0529359 C82.1053783,79.3255158 67.9828345,66.1706068 50.8392435,66.1706068 L50.8392435,66.1706068 Z M44.5330969,2.73359905e-14 C59.4098168,2.73359905e-14 71.5130024,12.0809732 71.5130024,26.9303905 C71.5130024,41.7798078 59.4098168,53.860781 44.5330969,53.860781 C29.6563771,53.860781 17.5531915,41.7798078 17.5531915,26.9303905 C17.5531915,12.0809732 29.6563771,2.73359905e-14 44.5330969,2.73359905e-14 Z M44.5330969,5.98453122 C32.9623148,5.98453122 23.548726,15.3808437 23.548726,26.9303905 C23.548726,38.4799373 32.9623148,47.8762498 44.5330969,47.8762498 C56.103879,47.8762498 65.5174678,38.4799373 65.5174678,26.9303905 C65.5174678,15.3808437 56.103879,5.98453122 44.5330969,5.98453122 Z" id="Combined-Shape"></path>
                </g>
            </g>
        </g>
    </g>
</svg>