<?xml version="1.0" encoding="UTF-8"?>
<svg width="109px" height="109px" viewBox="0 0 109 109" version="1.1" xmlns="http://www.w3.org/2000/svg" xmlns:xlink="http://www.w3.org/1999/xlink">
    <!-- Generator: Sketch 61 (89581) - https://sketch.com -->
    <title>icon_tags</title>
    <desc>Created with Sketch.</desc>
    <g id="More-commerce" stroke="none" stroke-width="1" fill="none" fill-rule="evenodd">
        <g id="Inactive_Copy" transform="translate(-55.000000, -56.000000)" fill-rule="nonzero" stroke="#DDDFEA">
            <g id="icon_tags" transform="translate(58.000000, 59.000000)">
                <path d="M92.2709004,0 L65.0487246,0 C59.8900742,0 55.040625,2.0085 51.3925742,5.65634961 L3.66072461,53.3884004 C1.300375,55.74875 0,58.8860254 0,62.23775 C0,65.572375 1.300375,68.7096504 3.66072461,71.07 L31.93,99.3392754 C34.2903496,101.699625 37.427625,103 40.7793496,103 C44.1139746,103 47.25125,101.699625 49.6115996,99.3392754 L97.3434492,51.6074258 C100.9915,47.959375 103,43.1097246 103,37.9512754 L103,10.7290996 C103,4.81525 98.18475,0 92.2709004,0 Z" id="Shape" stroke-width="6"></path>
                <path d="M78.5,14 C72.7124295,14 68,18.7124295 68,24.5 C68,30.2875705 72.7124295,35 78.5,35 C84.2875705,35 89,30.2877674 89,24.5 C89,18.7124295 84.2875705,14 78.5,14 Z" id="Shape" stroke-width="5"></path>
            </g>
        </g>
    </g>
</svg>