<svg width="102" height="100" viewBox="0 0 102 100" fill="none" xmlns="http://www.w3.org/2000/svg">
<path d="M96.318 0.226562H7.6816C4.66913 0.226562 2.22705 2.66865 2.22705 5.68111V94.3175C2.22705 97.3299 4.66913 99.772 7.6816 99.772H96.318C99.3304 99.772 101.773 97.3299 101.773 94.3175V5.68111C101.773 2.66865 99.3304 0.226562 96.318 0.226562Z" fill="#2EC639"/>
<path fill-rule="evenodd" clip-rule="evenodd" d="M7.68182 0.454545C4.79488 0.454545 2.45455 2.79488 2.45455 5.68182V94.3182C2.45455 97.2051 4.79488 99.5455 7.68182 99.5455H96.3182C99.2051 99.5455 101.545 97.2051 101.545 94.3182V5.68182C101.545 2.79488 99.2051 0.454545 96.3182 0.454545H7.68182ZM2 5.68182C2 2.54384 4.54384 0 7.68182 0H96.3182C99.4562 0 102 2.54384 102 5.68182V94.3182C102 97.4562 99.4562 100 96.3182 100H7.68182C4.54384 100 2 97.4562 2 94.3182V5.68182Z" fill="#2EC639"/>
<g filter="url(#filter0_d_6892_59899)">
<path d="M88.3636 49.0938H15.6364C13.6281 49.0938 12 50.7218 12 52.7301V64.0938C12 66.1021 13.6281 67.7301 15.6364 67.7301H88.3636C90.3719 67.7301 92 66.1021 92 64.0938V52.7301C92 50.7218 90.3719 49.0938 88.3636 49.0938Z" fill="black"/>
</g>
<path d="M88.1361 49.3203H15.8634C13.8551 49.3203 12.2271 50.9484 12.2271 52.9567V63.8658C12.2271 65.8741 13.8551 67.5021 15.8634 67.5021H88.1361C90.1445 67.5021 91.7725 65.8741 91.7725 63.8658V52.9567C91.7725 50.9484 90.1445 49.3203 88.1361 49.3203Z" fill="white"/>
<path fill-rule="evenodd" clip-rule="evenodd" d="M15.8636 49.5483C13.9808 49.5483 12.4545 51.0746 12.4545 52.9574V63.8665C12.4545 65.7493 13.9808 67.2756 15.8636 67.2756H88.1364C90.0192 67.2756 91.5455 65.7493 91.5455 63.8665V52.9574C91.5455 51.0746 90.0192 49.5483 88.1364 49.5483H15.8636ZM12 52.9574C12 50.8236 13.7298 49.0938 15.8636 49.0938H88.1364C90.2702 49.0938 92 50.8236 92 52.9574V63.8665C92 66.0003 90.2702 67.7301 88.1364 67.7301H15.8636C13.7298 67.7301 12 66.0003 12 63.8665V52.9574Z" fill="white"/>
<path d="M22.5317 56.1016H26.3036V56.8052H23.3663V58.6134H25.559V59.3088H23.3663V61.1252H26.3036V61.8207H22.5317V56.1016Z" fill="#2EC639"/>
<path d="M27.166 57.8934H27.9678V58.4579C28.1532 58.2234 28.3796 58.0516 28.6469 57.9425C28.9196 57.8279 29.2032 57.7707 29.4978 57.7707C30.0214 57.7707 30.4114 57.9097 30.6678 58.1879C30.9242 58.4661 31.0523 58.8397 31.0523 59.3088V61.8207H30.226V59.3907C30.226 58.7525 29.9205 58.4334 29.3096 58.4334C29.0478 58.4334 28.8023 58.4961 28.5732 58.6216C28.3496 58.7416 28.156 58.927 27.9923 59.1779V61.8207H27.166V57.8934Z" fill="#2EC639"/>
<path d="M33.5855 61.9434C33.1873 61.9434 32.8791 61.8288 32.661 61.5997C32.4482 61.3707 32.3419 61.0461 32.3419 60.6261V58.5316H31.7446V57.8934H32.3419V56.7152H33.1764V57.8934H34.1419V58.5316H33.1764V60.5688C33.1764 60.8307 33.2255 61.0161 33.3237 61.1252C33.4273 61.2343 33.6128 61.2888 33.88 61.2888C34.0382 61.2888 34.1964 61.2534 34.3546 61.1825V61.837C34.1473 61.9079 33.891 61.9434 33.5855 61.9434Z" fill="#2EC639"/>
<path d="M37.2921 61.9434C36.5666 61.9434 35.9966 61.7634 35.5821 61.4034C35.173 61.0379 34.9684 60.5252 34.9684 59.8652C34.9684 59.2216 35.1511 58.7116 35.5166 58.3352C35.8875 57.9588 36.4139 57.7707 37.0957 57.7707C37.5484 57.7707 37.933 57.8579 38.2493 58.0325C38.5657 58.2016 38.803 58.4388 38.9612 58.7443C39.1248 59.0443 39.2066 59.3879 39.2066 59.7752V60.1843H35.7539C35.7811 60.5552 35.9366 60.8334 36.2202 61.0188C36.5093 61.1988 36.8993 61.2888 37.3902 61.2888C37.6412 61.2888 37.8948 61.267 38.1511 61.2234C38.4075 61.1743 38.6339 61.1116 38.8302 61.0352V61.6979C38.6557 61.7688 38.4239 61.8261 38.1348 61.8697C37.8512 61.9188 37.5702 61.9434 37.2921 61.9434ZM38.4293 59.6034C38.4184 59.2325 38.2957 58.9461 38.0611 58.7443C37.8321 58.537 37.5048 58.4334 37.0793 58.4334C36.6648 58.4334 36.343 58.5397 36.1139 58.7525C35.8848 58.9652 35.7648 59.2488 35.7539 59.6034H38.4293Z" fill="#2EC639"/>
<path d="M40.1099 57.8934H40.9117V58.597C41.0753 58.357 41.3044 58.1797 41.599 58.0652C41.899 57.9507 42.2453 57.8934 42.638 57.8934V58.5397C42.218 58.5397 41.858 58.6079 41.558 58.7443C41.258 58.8807 41.0508 59.0961 40.9362 59.3907V61.8207H40.1099V57.8934Z" fill="#2EC639"/>
<path d="M43.5987 61.8207C43.4896 61.8207 43.3969 61.7852 43.3205 61.7143C43.2496 61.6379 43.2142 61.5452 43.2142 61.4361C43.2142 61.327 43.2496 61.2343 43.3205 61.1579C43.3969 61.0816 43.4896 61.0434 43.5987 61.0434C43.7078 61.0434 43.8005 61.0816 43.8769 61.1579C43.9533 61.2343 43.9914 61.327 43.9914 61.4361C43.9914 61.5452 43.9533 61.6379 43.8769 61.7143C43.8005 61.7852 43.7078 61.8207 43.5987 61.8207ZM45.2351 61.8207C45.126 61.8207 45.0333 61.7852 44.9569 61.7143C44.886 61.6379 44.8505 61.5452 44.8505 61.4361C44.8505 61.327 44.886 61.2343 44.9569 61.1579C45.0333 61.0816 45.126 61.0434 45.2351 61.0434C45.3442 61.0434 45.4369 61.0816 45.5133 61.1579C45.5951 61.2343 45.636 61.327 45.636 61.4361C45.636 61.5452 45.5951 61.6379 45.5133 61.7143C45.4369 61.7852 45.3442 61.8207 45.2351 61.8207ZM46.8796 61.8207C46.7705 61.8207 46.6778 61.7852 46.6014 61.7143C46.5305 61.6379 46.4951 61.5452 46.4951 61.4361C46.4951 61.327 46.5305 61.2343 46.6014 61.1579C46.6778 61.0816 46.7705 61.0434 46.8796 61.0434C46.9887 61.0434 47.0814 61.0816 47.1578 61.1579C47.2342 61.2343 47.2723 61.327 47.2723 61.4361C47.2723 61.5452 47.2342 61.6379 47.1578 61.7143C47.0814 61.7852 46.9887 61.8207 46.8796 61.8207Z" fill="#2EC639"/>
<path fill-rule="evenodd" clip-rule="evenodd" d="M17.6816 53.8125C17.9326 53.8125 18.1361 54.016 18.1361 54.267V63.0083C18.1361 63.2593 17.9326 63.4628 17.6816 63.4628C17.4306 63.4628 17.2271 63.2593 17.2271 63.0083V54.267C17.2271 54.016 17.4306 53.8125 17.6816 53.8125Z" fill="#2EC639"/>
<path d="M18.0709 37.2575H16.2954V36.5538H20.689V37.2575H18.9136V42.2729H18.0709V37.2575Z" fill="white"/>
<path d="M20.8095 38.3457H21.6113V39.0493C21.7749 38.8093 22.004 38.632 22.2986 38.5175C22.5986 38.4029 22.9449 38.3457 23.3377 38.3457V38.992C22.9177 38.992 22.5577 39.0602 22.2577 39.1966C21.9577 39.3329 21.7504 39.5484 21.6358 39.8429V42.2729H20.8095V38.3457Z" fill="white"/>
<path d="M25.1171 42.3957C24.6426 42.3957 24.2608 42.2757 23.9717 42.0357C23.688 41.7902 23.5462 41.4602 23.5462 41.0457C23.5462 40.6093 23.6826 40.2738 23.9553 40.0393C24.2335 39.7993 24.6262 39.6793 25.1335 39.6793C25.6735 39.6793 26.1317 39.7884 26.508 40.0066V39.802C26.508 39.4911 26.4126 39.262 26.2217 39.1147C26.0362 38.962 25.7417 38.8857 25.338 38.8857C25.098 38.8857 24.8635 38.9102 24.6344 38.9593C24.4108 39.0029 24.209 39.0657 24.029 39.1475V38.4766C24.1926 38.4002 24.4053 38.3402 24.6671 38.2966C24.929 38.2475 25.1826 38.2229 25.428 38.2229C26.0771 38.2229 26.5571 38.3675 26.868 38.6566C27.1844 38.9402 27.3426 39.3357 27.3426 39.8429V42.2729H26.5653V41.8311C26.3962 42.0166 26.1944 42.1584 25.9599 42.2566C25.7308 42.3493 25.4499 42.3957 25.1171 42.3957ZM25.3217 41.7657C25.5835 41.7657 25.8208 41.7138 26.0335 41.6102C26.2462 41.5066 26.4044 41.362 26.508 41.1766V40.6447C26.1535 40.4157 25.758 40.3011 25.3217 40.3011C25.0053 40.3011 24.768 40.3638 24.6099 40.4893C24.4571 40.6093 24.3808 40.7947 24.3808 41.0457C24.3808 41.5257 24.6944 41.7657 25.3217 41.7657Z" fill="white"/>
<path d="M30.2783 42.3957C29.8419 42.3957 29.4546 42.3138 29.1164 42.1502C28.7783 41.9866 28.5137 41.7493 28.3228 41.4384C28.1374 41.122 28.0446 40.7484 28.0446 40.3175C28.0446 39.8866 28.1374 39.5157 28.3228 39.2047C28.5137 38.8884 28.7783 38.6457 29.1164 38.4766C29.4601 38.3075 29.8528 38.2229 30.2946 38.2229C30.8946 38.2229 31.3746 38.3402 31.7346 38.5747V39.2538C31.3801 39.0084 30.9274 38.8857 30.3764 38.8857C29.9292 38.8857 29.5664 39.0084 29.2883 39.2538C29.0155 39.4938 28.8792 39.8484 28.8792 40.3175C28.8792 40.7866 29.0155 41.1411 29.2883 41.3811C29.561 41.6211 29.9183 41.7411 30.3601 41.7411C30.911 41.7411 31.3855 41.6102 31.7837 41.3484V42.0193C31.5928 42.1502 31.3746 42.2457 31.1292 42.3057C30.8892 42.3657 30.6055 42.3957 30.2783 42.3957Z" fill="white"/>
<path d="M32.6827 36.2266H33.5091V42.2729H32.6827V36.2266ZM33.5172 40.2847L35.3254 38.3457H36.3318L34.5154 40.2847L36.52 42.2729H35.5136L33.5172 40.2847Z" fill="white"/>
<path d="M37.8236 37.5766C37.6873 37.5766 37.5727 37.5302 37.48 37.4375C37.3873 37.3447 37.3409 37.2302 37.3409 37.0938C37.3409 36.9575 37.3873 36.8429 37.48 36.7502C37.5727 36.6575 37.6873 36.6111 37.8236 36.6111C37.9654 36.6111 38.0827 36.6575 38.1754 36.7502C38.2736 36.8429 38.3227 36.9575 38.3227 37.0938C38.3227 37.2302 38.2736 37.3447 38.1754 37.4375C38.0827 37.5302 37.9654 37.5766 37.8236 37.5766ZM37.4064 38.3457H38.2491V42.2729H37.4064V38.3457Z" fill="white"/>
<path d="M39.3864 38.3457H40.1882V38.9102C40.3736 38.6757 40.6 38.5038 40.8673 38.3947C41.14 38.2802 41.4236 38.2229 41.7182 38.2229C42.2418 38.2229 42.6318 38.362 42.8882 38.6402C43.1445 38.9184 43.2727 39.292 43.2727 39.7611V42.2729H42.4464V39.8429C42.4464 39.2047 42.1409 38.8857 41.53 38.8857C41.2682 38.8857 41.0227 38.9484 40.7936 39.0738C40.57 39.1938 40.3764 39.3793 40.2127 39.6302V42.2729H39.3864V38.3457Z" fill="white"/>
<path d="M46.3459 44.1547C46.0786 44.1547 45.8168 44.1329 45.5604 44.0893C45.3095 44.0457 45.0968 43.9829 44.9223 43.9011V43.222C45.3313 43.4075 45.8059 43.5002 46.3459 43.5002C46.8532 43.5002 47.2213 43.3884 47.4504 43.1647C47.685 42.9466 47.8023 42.6138 47.8023 42.1666V41.7493C47.4423 42.1802 46.9132 42.3957 46.215 42.3957C45.8168 42.3957 45.4595 42.3084 45.1432 42.1338C44.8268 41.9593 44.5786 41.7138 44.3986 41.3975C44.2186 41.0811 44.1286 40.7184 44.1286 40.3093C44.1286 39.8947 44.2159 39.532 44.3904 39.2211C44.5704 38.9047 44.8159 38.6593 45.1268 38.4847C45.4432 38.3102 45.7977 38.2229 46.1904 38.2229C46.5559 38.2229 46.8641 38.2775 47.115 38.3866C47.3713 38.4902 47.6086 38.6647 47.8268 38.9102V38.3457H48.6286V42.0766C48.6286 42.7475 48.4404 43.2602 48.0641 43.6147C47.6932 43.9747 47.1204 44.1547 46.3459 44.1547ZM46.3786 41.7411C46.7168 41.7411 47.0141 41.6511 47.2704 41.4711C47.5323 41.2911 47.7095 41.0511 47.8023 40.7511V39.8675C47.6986 39.562 47.5186 39.322 47.2623 39.1475C47.0113 38.9729 46.7168 38.8857 46.3786 38.8857C46.1113 38.8857 45.8686 38.9457 45.6504 39.0657C45.4377 39.1802 45.2686 39.3466 45.1432 39.5647C45.0232 39.7829 44.9632 40.0311 44.9632 40.3093C44.9632 40.5929 45.0232 40.8438 45.1432 41.062C45.2686 41.2747 45.4377 41.4411 45.6504 41.5611C45.8686 41.6811 46.1113 41.7411 46.3786 41.7411Z" fill="white"/>
<path d="M52.7218 36.5538H53.5154L56.4281 40.8657V36.5538H57.2709V42.2729H56.469L53.5563 37.9611V42.2729H52.7218V36.5538Z" fill="white"/>
<path d="M60.4008 42.3957C59.959 42.3957 59.569 42.3138 59.2308 42.1502C58.8981 41.9811 58.6362 41.7411 58.4453 41.4302C58.2599 41.1138 58.1671 40.7429 58.1671 40.3175C58.1671 39.8975 58.2599 39.5293 58.4453 39.2129C58.6308 38.8966 58.8926 38.6538 59.2308 38.4847C59.569 38.3102 59.959 38.2229 60.4008 38.2229C60.8426 38.2229 61.2326 38.3102 61.5708 38.4847C61.909 38.6538 62.1708 38.8966 62.3562 39.2129C62.5471 39.5293 62.6426 39.8975 62.6426 40.3175C62.6426 40.7429 62.5471 41.1138 62.3562 41.4302C62.1708 41.7411 61.909 41.9811 61.5708 42.1502C61.2326 42.3138 60.8426 42.3957 60.4008 42.3957ZM60.4008 41.7411C60.8262 41.7411 61.1644 41.6102 61.4153 41.3484C61.6662 41.0866 61.7917 40.7429 61.7917 40.3175C61.7917 39.8757 61.6662 39.5266 61.4153 39.2702C61.1644 39.0138 60.8262 38.8857 60.4008 38.8857C59.9753 38.8857 59.6371 39.0138 59.3862 39.2702C59.1353 39.5266 59.0099 39.8757 59.0099 40.3175C59.0099 40.7429 59.1353 41.0866 59.3862 41.3484C59.6371 41.6102 59.9753 41.7411 60.4008 41.7411Z" fill="white"/>
<path d="M63.7612 42.2729C63.6521 42.2729 63.5594 42.2375 63.483 42.1666C63.4121 42.0902 63.3767 41.9975 63.3767 41.8884C63.3767 41.7793 63.4121 41.6866 63.483 41.6102C63.5594 41.5338 63.6521 41.4957 63.7612 41.4957C63.8703 41.4957 63.963 41.5338 64.0394 41.6102C64.1158 41.6866 64.1539 41.7793 64.1539 41.8884C64.1539 41.9975 64.1158 42.0902 64.0394 42.1666C63.963 42.2375 63.8703 42.2729 63.7612 42.2729Z" fill="white"/>
<defs>
<filter id="filter0_d_6892_59899" x="0" y="39.0938" width="100" height="38.6328" filterUnits="userSpaceOnUse" color-interpolation-filters="sRGB">
<feFlood flood-opacity="0" result="BackgroundImageFix"/>
<feColorMatrix in="SourceAlpha" type="matrix" values="0 0 0 0 0 0 0 0 0 0 0 0 0 0 0 0 0 0 127 0" result="hardAlpha"/>
<feOffset dx="-2"/>
<feGaussianBlur stdDeviation="5"/>
<feColorMatrix type="matrix" values="0 0 0 0 0 0 0 0 0 0 0 0 0 0 0 0 0 0 0.5 0"/>
<feBlend mode="normal" in2="BackgroundImageFix" result="effect1_dropShadow_6892_59899"/>
<feBlend mode="normal" in="SourceGraphic" in2="effect1_dropShadow_6892_59899" result="shape"/>
</filter>
</defs>
</svg>
