<svg width="130" height="21" viewBox="0 0 130 21" fill="none" xmlns="http://www.w3.org/2000/svg">
<path d="M10.6993 0.896143H20.9093C20.9892 0.891138 21.0694 0.891138 21.1493 0.896143C21.3793 0.896143 21.4993 1.03614 21.4493 1.25614C21.3293 1.77614 21.1793 2.25614 21.0293 2.78614C21.0055 2.8626 20.9575 2.92927 20.8926 2.97615C20.8277 3.02303 20.7493 3.0476 20.6693 3.04614H2.19928C1.99041 3.06283 1.7808 3.02453 1.59133 2.93505C1.40185 2.84558 1.2391 2.70804 1.11928 2.53614C0.849283 2.15614 0.519283 1.80614 0.219283 1.43614C0.157149 1.3672 0.10032 1.29366 0.0492829 1.21614C-0.0507171 1.03614 -0.000717029 0.92614 0.219283 0.88614C0.339076 0.876169 0.45949 0.876169 0.579283 0.88614L10.6993 0.896143Z" fill="#FF8000"/>
<path d="M12.6793 7.67603H19.0793C19.1459 7.67105 19.2127 7.67105 19.2793 7.67603C19.6193 7.67603 19.7493 7.80603 19.6693 8.14603C19.5893 8.48603 19.4193 9.14603 19.2793 9.59603C19.2611 9.66644 19.2196 9.72857 19.1614 9.77219C19.1032 9.81582 19.0319 9.83834 18.9593 9.83604H18.5693H7.81928C7.64985 9.84806 7.48015 9.81672 7.32619 9.74499C7.17222 9.67325 7.03907 9.56348 6.93928 9.42603C6.62928 9.01603 6.27928 8.63603 5.93928 8.24603C5.86737 8.16958 5.80369 8.08578 5.74928 7.99603C5.66928 7.82603 5.74928 7.70603 5.90928 7.67603C6.06579 7.66626 6.22276 7.66626 6.37928 7.67603H12.6793Z" fill="#FF8000"/>
<path d="M13.6793 11.0261H18.2293C18.8293 11.0261 18.9093 11.1261 18.7693 11.7061C18.6793 12.0761 18.5993 12.4461 18.4993 12.8161C18.3993 13.1861 18.3293 13.1761 18.0193 13.1961C17.9093 13.1961 17.7893 13.1961 17.6693 13.1961H10.4293C10.3358 13.1953 10.2437 13.1742 10.1592 13.1346C10.0746 13.0949 9.99961 13.0374 9.93925 12.9661L8.75925 11.5861L8.60925 11.1961C8.73097 11.1395 8.85835 11.0959 8.98925 11.0661C9.1489 11.0511 9.3096 11.0511 9.46925 11.0661L13.6793 11.0261Z" fill="#FF8000"/>
<path d="M14.6592 14.386H17.5492C17.9592 14.386 18.0592 14.526 17.9692 14.936C17.8792 15.346 17.7492 15.776 17.6292 16.196C17.5092 16.616 17.4592 16.546 17.1392 16.556H13.3092C13.2169 16.5611 13.1246 16.5448 13.0396 16.5084C12.9546 16.472 12.8792 16.4164 12.8192 16.346C12.3692 15.826 11.9192 15.346 11.4892 14.786C11.2992 14.556 11.3692 14.426 11.6592 14.396C11.7623 14.386 11.8661 14.386 11.9692 14.396H14.6592V14.386Z" fill="#FF8000"/>
<path d="M15.7693 17.696H16.7693C17.1193 17.696 17.2293 17.846 17.1293 18.186C16.9693 18.726 16.8093 19.266 16.6193 19.806C16.4993 20.176 16.2893 20.226 16.0293 19.926C15.7693 19.626 15.3993 19.186 15.0893 18.806C14.8993 18.586 14.7093 18.376 14.5293 18.146C14.3493 17.916 14.3893 17.726 14.7193 17.716C15.0493 17.706 15.4293 17.716 15.7893 17.716L15.7693 17.696Z" fill="#FF8000"/>
<path d="M74.265 6.41601H69.065C68.645 6.41601 68.555 6.28601 68.625 5.86601C68.695 5.44601 68.795 5.06601 68.895 4.67601C68.995 4.28601 69.065 4.30601 69.365 4.29601C69.665 4.28601 69.735 4.29601 69.925 4.29601H128.135C128.555 4.29601 128.975 4.29601 129.405 4.29601C129.835 4.29601 129.915 4.39601 129.925 4.80601C129.935 5.21601 129.925 5.59601 129.925 5.99601C129.925 6.39601 129.805 6.41601 129.495 6.43601H74.265V6.41601Z" fill="#FF8000"/>
<path d="M70.495 3.05601C70.205 3.05601 69.915 3.05601 69.625 3.05601C69.335 3.05601 69.205 2.916 69.265 2.596C69.325 2.276 69.425 1.736 69.525 1.316C69.625 0.896002 69.695 0.926006 70.005 0.906006C70.115 0.906006 70.215 0.906006 70.325 0.906006H127.745C128.285 0.906006 128.825 0.906006 129.365 0.906006C129.905 0.906006 129.915 0.996001 129.925 1.456C129.935 1.916 129.925 2.196 129.925 2.566C129.925 2.936 129.825 3.056 129.425 3.066C129.025 3.076 128.635 3.066 128.235 3.066L70.495 3.05601Z" fill="#FF8000"/>
<path d="M73.935 9.79602H69.005C68.785 9.79602 68.555 9.79602 68.335 9.79602C68.115 9.79602 67.915 9.64602 67.965 9.32602C68.015 9.00602 68.115 8.52602 68.205 8.12602C68.295 7.72602 68.385 7.71602 68.725 7.69602C69.065 7.67602 69.195 7.69602 69.435 7.69602H128.845C129.075 7.69602 129.295 7.69602 129.515 7.69602C129.735 7.69602 129.905 7.81602 129.915 8.08602C129.915 8.53602 129.915 8.98602 129.915 9.43602C129.916 9.48236 129.908 9.52849 129.891 9.57158C129.874 9.61467 129.848 9.6538 129.816 9.68659C129.783 9.71937 129.744 9.7451 129.701 9.7622C129.657 9.7793 129.611 9.7874 129.565 9.78602H73.935V9.79602Z" fill="#FF8000"/>
<path d="M11.625 4.32607H19.695C19.845 4.32607 19.985 4.32607 20.125 4.32607C20.265 4.32607 20.455 4.44607 20.445 4.68607C20.4389 4.79084 20.4222 4.89471 20.395 4.99607C20.285 5.36607 20.185 5.73607 20.075 6.10607C19.965 6.47607 19.935 6.50607 19.545 6.50607C19.415 6.50607 19.285 6.50607 19.155 6.50607H5.06497C4.87368 6.51475 4.68309 6.47752 4.50912 6.39749C4.33515 6.31747 4.18286 6.19698 4.06497 6.04608C3.76497 5.66608 3.42497 5.31608 3.06497 4.94608C2.98317 4.85972 2.90952 4.76599 2.84497 4.66608C2.73497 4.48608 2.78497 4.35607 2.98497 4.31607C3.10477 4.3061 3.22518 4.3061 3.34497 4.31607L11.625 4.32607Z" fill="#FF8000"/>
<path d="M46.5151 9.59618C46.4244 9.72478 46.3409 9.85832 46.2651 9.99618L42.2651 17.8762C41.9751 18.4462 41.6751 18.9962 41.4051 19.5762C41.3532 19.7255 41.251 19.8521 41.116 19.9342C40.9809 20.0164 40.8215 20.0489 40.6651 20.0262C40.3151 20.0262 39.9551 20.0262 39.5951 20.0262C39.2351 20.0262 39.1951 19.9162 39.1951 19.6162C39.1951 19.0662 39.1951 18.5262 39.1951 17.9862C39.1951 17.6362 39.2751 17.5662 39.6551 17.5662C40.0351 17.5662 40.6551 17.5662 41.1151 17.5662C41.5751 17.5662 41.6151 17.3462 41.7051 17.0362C41.7168 17.0049 41.7206 16.9712 41.7159 16.9381C41.7113 16.905 41.6985 16.8736 41.6786 16.8467C41.6587 16.8199 41.6324 16.7984 41.6021 16.7844C41.5718 16.7703 41.5384 16.764 41.5051 16.7662C41.3351 16.7662 41.1651 16.7662 40.9951 16.7662H39.7751C39.4351 16.7662 39.3551 16.6662 39.3551 16.3262C39.3551 15.7662 39.3551 15.1962 39.3551 14.6262C39.3551 14.2462 39.4151 14.1862 39.7851 14.1862H42.7851C42.9372 14.1996 43.0889 14.1573 43.2122 14.0671C43.3354 13.977 43.4217 13.8452 43.4551 13.6962C43.5051 13.5062 43.4551 13.4162 43.2551 13.4062C43.1353 13.3962 43.0149 13.3962 42.8951 13.4062H39.9351C39.4751 13.4062 39.4251 13.3462 39.4251 12.8762C39.4251 12.4062 39.4251 11.7962 39.4251 11.2562C39.4251 10.7162 39.4951 10.7962 39.8951 10.7962H44.4751C44.6216 10.817 44.7706 10.7809 44.8915 10.6954C45.0123 10.6098 45.0959 10.4813 45.1251 10.3362C45.1851 10.1562 45.1251 10.0662 44.9251 10.0462C44.8086 10.036 44.6915 10.036 44.5751 10.0462H40.1051C39.8502 10.0368 39.5963 10.01 39.3451 9.96618C39.3451 10.0662 39.2551 10.1762 39.2251 10.2962C38.4851 13.0162 37.7484 15.7395 37.0151 18.4662C36.9151 18.8062 36.8351 19.1562 36.7451 19.4662C36.6551 19.7762 36.5551 19.9562 36.1151 19.9562H32.0351C31.8051 19.9562 31.7251 19.8262 31.7851 19.6162C31.9551 19.0162 32.1451 18.4262 32.3251 17.8362C32.3951 17.6062 32.5751 17.5562 32.7851 17.5562H33.9351C34.6251 17.5562 35.3051 17.5562 35.9951 17.5562C36.067 17.5686 36.1409 17.5644 36.211 17.5439C36.2812 17.5234 36.3457 17.4872 36.3997 17.438C36.4537 17.3888 36.4958 17.328 36.5227 17.2601C36.5496 17.1922 36.5607 17.119 36.5551 17.0462C36.5551 16.8762 36.5551 16.7862 36.3451 16.7762H33.1751C33.0853 16.7861 32.9948 16.7861 32.9051 16.7762C32.6951 16.7762 32.6451 16.6562 32.6751 16.4462C32.6903 16.3552 32.7103 16.2651 32.7351 16.1762C32.8751 15.6762 33.0051 15.1762 33.1351 14.6862C33.2651 14.1962 33.3151 14.2162 33.7351 14.2162H36.9351C37.2951 14.2162 37.4351 14.0762 37.4551 13.7262C37.4551 13.5462 37.4051 13.4462 37.2251 13.4362H33.9351C33.6151 13.4362 33.5351 13.3162 33.6151 12.9962C33.6951 12.6762 33.7951 12.3162 33.8751 11.9962C33.9551 11.6762 33.9751 11.5562 34.0251 11.3462C34.1251 10.9562 34.2151 10.8862 34.5951 10.8862H37.5951C37.7015 10.8962 37.8086 10.8962 37.9151 10.8862C37.9727 10.8733 38.0271 10.849 38.0752 10.8146C38.1232 10.7803 38.1638 10.7366 38.1946 10.6862C38.2254 10.6358 38.2458 10.5797 38.2544 10.5213C38.2631 10.4629 38.2599 10.4033 38.2451 10.3462C38.2122 10.2803 38.1547 10.23 38.0851 10.2062C37.9789 10.191 37.8712 10.191 37.7651 10.2062H34.7151C34.4651 10.2062 34.3851 10.0862 34.4451 9.83618C34.5951 9.17618 34.7651 8.50618 34.9451 7.83618C35.0251 7.56618 35.1351 7.51618 35.4651 7.51618H41.8351C42.1051 7.51618 42.2151 7.38618 42.2051 7.12618C42.1951 6.86618 42.0951 6.76618 41.7951 6.76618H35.9851C35.2451 6.76618 35.2451 6.76618 35.4251 6.02618C35.5351 5.59618 35.6351 5.15618 35.7351 4.71618C35.8351 4.27618 35.9051 4.22618 36.3451 4.22618H41.8451C42.0951 4.22618 42.1951 4.07618 42.1851 3.82618C42.1751 3.57618 42.0751 3.47618 41.8051 3.47618C41.0851 3.47618 40.3551 3.47618 39.6351 3.47618H36.6351C36.5551 3.48119 36.475 3.48119 36.3951 3.47618C36.1251 3.47618 36.0351 3.35618 36.1051 3.09618C36.2351 2.52618 36.3851 1.96618 36.5451 1.40618C36.6151 1.14618 36.7151 1.08618 37.0051 1.08618H42.4651C42.9951 1.08618 43.0551 1.14618 43.0551 1.68618C43.0551 3.38618 43.0551 5.08618 43.0551 6.78618C43.0551 7.34618 43.0551 7.89618 43.0551 8.44618C43.0664 8.54444 43.0865 8.6415 43.1151 8.73618C43.2251 8.62618 43.3151 8.57618 43.3551 8.49618C43.4616 8.31138 43.5584 8.12112 43.6451 7.92618C43.6952 7.81187 43.7803 7.71642 43.8881 7.65353C43.9959 7.59064 44.1209 7.56355 44.2451 7.57618H50.4151C50.4846 7.58724 50.5557 7.5822 50.6229 7.56145C50.6902 7.5407 50.7518 7.5048 50.803 7.4565C50.8542 7.4082 50.8936 7.34879 50.9183 7.28286C50.9429 7.21693 50.9521 7.14622 50.9451 7.07618C50.9451 6.89618 50.8851 6.79618 50.7051 6.78618H45.0051C44.4451 6.78618 44.3951 6.69618 44.6651 6.19618C44.9351 5.69618 45.1751 5.19618 45.4151 4.71618C45.47 4.56285 45.5747 4.43231 45.7124 4.34533C45.8501 4.25835 46.013 4.21993 46.1751 4.23618C47.8751 4.23618 49.5751 4.23618 51.2851 4.23618C51.3881 4.24615 51.492 4.24615 51.5951 4.23618C51.6562 4.2244 51.7143 4.20034 51.7658 4.16546C51.8173 4.13058 51.8613 4.08559 51.8949 4.03324C51.9286 3.98089 51.9513 3.92225 51.9616 3.86088C51.9719 3.7995 51.9697 3.73667 51.9551 3.67618C51.941 3.63984 51.9195 3.60685 51.8919 3.5793C51.8644 3.55175 51.8314 3.53025 51.7951 3.51618C51.7057 3.50088 51.6144 3.50088 51.5251 3.51618H46.6951C46.6185 3.5212 46.5416 3.5212 46.4651 3.51618C46.2051 3.51618 46.1351 3.38618 46.2451 3.14618C46.5451 2.55618 46.8551 1.97618 47.1651 1.39618C47.2142 1.30318 47.2898 1.2269 47.3824 1.17704C47.475 1.12718 47.5804 1.10599 47.6851 1.11618H53.1451C53.5151 1.11618 53.5851 1.21618 53.4951 1.57618C53.2451 2.57618 52.9751 3.51618 52.7151 4.47618L50.7151 12.0062L48.8351 18.8062C48.7551 19.0762 48.6951 19.3462 48.6151 19.6062C48.5351 19.8662 48.4251 20.0162 48.0851 20.0162H44.3651C43.9451 20.0162 43.8751 19.9062 43.9851 19.5062C44.0951 19.1062 44.2751 18.5062 44.4251 17.9462C44.5751 17.3862 44.5951 17.5162 45.0051 17.5162C46.0051 17.5162 46.9051 17.5162 47.8551 17.5162C48.2451 17.5162 48.3451 17.3462 48.3751 17.0262C48.3844 16.9901 48.3852 16.9523 48.3774 16.9158C48.3696 16.8794 48.3534 16.8452 48.3301 16.8161C48.3068 16.787 48.2771 16.7637 48.2432 16.7481C48.2094 16.7325 48.1723 16.725 48.1351 16.7262C48.0351 16.7262 47.9251 16.7262 47.8251 16.7262C46.9751 16.7262 46.1351 16.7262 45.2851 16.7262C44.8651 16.7262 44.8051 16.6262 44.9151 16.2162C45.0251 15.8062 45.1851 15.2162 45.3251 14.6462C45.4651 14.0762 45.4851 14.1862 45.9251 14.1862C46.8651 14.1862 47.8051 14.1862 48.7351 14.1862C49.1251 14.1862 49.2251 13.9762 49.2551 13.6762C49.2629 13.6412 49.2625 13.6049 49.2539 13.5702C49.2453 13.5354 49.2286 13.5032 49.2053 13.476C49.182 13.4488 49.1527 13.4274 49.1196 13.4135C49.0866 13.3997 49.0508 13.3937 49.0151 13.3962H46.2451C46.152 13.4062 46.0581 13.4062 45.9651 13.3962C45.9247 13.3957 45.8851 13.3854 45.8496 13.3663C45.8142 13.3471 45.7838 13.3197 45.7612 13.2863C45.7386 13.2529 45.7244 13.2145 45.7199 13.1744C45.7153 13.1344 45.7205 13.0938 45.7351 13.0562C45.8951 12.4162 46.0651 11.7862 46.2251 11.1462C46.2951 10.8762 46.5051 10.8662 46.7251 10.8662H49.6551C49.7379 10.871 49.8208 10.8567 49.8972 10.8243C49.9736 10.792 50.0415 10.7424 50.0957 10.6796C50.1498 10.6167 50.1888 10.5422 50.2095 10.4618C50.2302 10.3815 50.2321 10.2974 50.2151 10.2162C50.2151 10.1864 50.2091 10.157 50.1974 10.1296C50.1857 10.1023 50.1686 10.0775 50.1471 10.057C50.1256 10.0364 50.1002 10.0204 50.0723 10.01C50.0445 9.99952 50.0148 9.99483 49.9851 9.99618H47.1751C47.0354 10.0199 46.8918 9.99251 46.7706 9.91906C46.6494 9.84561 46.5587 9.731 46.5151 9.59618V9.59618Z" fill="#323F9E"/>
<path d="M53.695 10.9261C53.905 10.9261 54.015 10.9261 54.135 10.9261H63.385H63.815C63.7937 10.827 63.7636 10.7299 63.725 10.6361C63.606 10.456 63.4418 10.3103 63.2487 10.2138C63.0556 10.1173 62.8405 10.0732 62.625 10.0861C59.745 10.0861 56.855 10.0861 53.965 10.0861H53.765C53.485 10.0861 53.415 9.95615 53.485 9.69615C53.635 9.14615 53.785 8.59615 53.945 8.05615C54.105 7.51615 54.135 7.58615 54.585 7.58615C55.665 7.58615 56.755 7.58615 57.835 7.58615C58.245 7.58615 58.355 7.37615 58.365 7.01615C58.3711 6.98324 58.3697 6.94936 58.3608 6.9171C58.3519 6.88483 58.3357 6.85503 58.3135 6.82995C58.2913 6.80488 58.2637 6.78519 58.2328 6.7724C58.2018 6.75961 58.1684 6.75405 58.135 6.75615H54.575C54.365 6.75615 54.295 6.62614 54.345 6.42614C54.525 5.77614 54.715 5.13615 54.905 4.48615C54.975 4.23615 55.165 4.19615 55.395 4.19615H65.325C65.575 4.19615 65.705 4.08615 65.745 3.90615C65.7641 3.81361 65.7481 3.71726 65.7 3.63591C65.6519 3.55455 65.5753 3.49403 65.485 3.46615C65.3315 3.39444 65.1644 3.35691 64.995 3.35614H55.935C55.8103 3.34547 55.6866 3.32542 55.565 3.29615C55.6209 3.19865 55.688 3.10803 55.765 3.02614C56.595 2.41614 57.415 1.79615 58.255 1.19615C58.4083 1.10105 58.5846 1.04922 58.765 1.04615H63.765C63.8689 1.04578 63.9718 1.06591 64.0679 1.10537C64.164 1.14484 64.2514 1.20287 64.325 1.27614L66.325 3.08615C66.411 3.15727 66.4747 3.25171 66.5084 3.35814C66.5421 3.46457 66.5444 3.57846 66.515 3.68615C66.295 4.54615 66.095 5.40615 65.885 6.26615C65.775 6.69615 65.695 6.74614 65.245 6.74614H61.745C61.6553 6.75613 61.5647 6.75613 61.475 6.74614C61.4346 6.745 61.3951 6.73447 61.3595 6.71538C61.3239 6.6963 61.2932 6.66919 61.2699 6.63619C61.2466 6.60319 61.2314 6.56523 61.2253 6.5253C61.2192 6.48537 61.2225 6.44457 61.235 6.40615C61.235 6.28615 61.295 6.17615 61.315 6.05615C61.335 5.93615 61.315 5.74614 61.065 5.74614C60.655 5.74614 60.245 5.74614 59.845 5.74614C59.595 5.74614 59.515 5.92614 59.465 6.13614L59.135 7.50615C59.135 7.61615 59.135 7.73614 59.065 7.84614C59.0556 7.88224 59.0548 7.92002 59.0626 7.95648C59.0704 7.99294 59.0866 8.02708 59.1099 8.0562C59.1332 8.08531 59.163 8.1086 59.1968 8.12421C59.2307 8.13982 59.2677 8.14733 59.305 8.14615H59.585C60.455 8.14615 61.325 8.14615 62.195 8.14615C62.3195 8.14054 62.4437 8.16174 62.5593 8.20833C62.6749 8.25491 62.7792 8.32578 62.865 8.41615L64.675 10.3061C64.7472 10.3819 64.7967 10.4765 64.8179 10.579C64.8392 10.6815 64.8312 10.7879 64.795 10.8861C64.575 11.7561 64.365 12.6261 64.145 13.4961C63.855 14.6661 63.545 15.8461 63.275 17.0261C63.2397 17.2317 63.1607 17.4274 63.0434 17.5999C62.9261 17.7724 62.7732 17.9177 62.595 18.0261C61.785 18.5461 60.995 19.0961 60.215 19.6561C59.8678 19.9191 59.4402 20.0535 59.005 20.0361C57.565 20.0361 56.125 20.0361 54.695 20.0361C54.5244 20.0433 54.3541 20.016 54.1943 19.9559C54.0345 19.8957 53.8885 19.804 53.765 19.6861C53.195 19.1361 52.595 18.6161 52.015 18.0761C51.8871 17.9431 51.7669 17.8029 51.655 17.6561C51.865 17.6561 51.985 17.6561 52.105 17.6561C55.105 17.6561 58.175 17.6561 61.205 17.6561C61.4143 17.6526 61.6206 17.6065 61.8115 17.5205C62.0023 17.4345 62.1737 17.3106 62.315 17.1561C62.3775 17.0665 62.428 16.969 62.465 16.8661C62.275 16.8661 62.145 16.8661 62.005 16.8661H52.235C51.575 16.8661 51.555 16.8161 51.735 16.1761C51.865 15.7061 51.995 15.2361 52.115 14.7661C52.235 14.2961 52.275 14.3661 52.645 14.3661H56.645C57.035 14.3661 57.085 14.4361 57.005 14.8161C56.925 15.1961 57.005 15.2761 57.355 15.2861H58.355C58.4606 15.2911 58.5645 15.2588 58.6486 15.1948C58.7327 15.1308 58.7916 15.0392 58.815 14.9361C59.025 14.3061 59.025 14.3161 59.685 14.3161H62.685C63.055 14.3161 63.175 14.2161 63.255 13.8961C63.335 13.5761 63.255 13.5261 62.975 13.5161C62.695 13.5061 62.345 13.5161 62.025 13.5161H59.725C59.315 13.5161 59.285 13.5161 59.295 13.0561C59.295 12.7961 59.235 12.7361 58.925 12.7361H56.995C56.565 12.7361 56.145 12.7361 55.725 12.7361C55.6185 12.7399 55.5124 12.7224 55.4128 12.6847C55.3132 12.6469 55.2221 12.5896 55.145 12.5161L53.935 11.2661C53.8458 11.1596 53.7656 11.0459 53.695 10.9261Z" fill="#323F9E"/>
<path d="M29.2451 0.976166H33.6751C33.755 0.971161 33.8352 0.971161 33.9151 0.976166C34.1651 0.976166 34.2351 1.08617 34.1951 1.33617L34.1351 1.56616C33.8251 2.73616 33.5051 3.90616 33.1951 5.07616C33.1951 5.13616 33.1951 5.18617 33.1951 5.23617C33.0851 5.60617 33.0251 5.64616 32.6351 5.64616H29.0251C28.4951 5.64616 28.4551 5.64616 28.3251 6.18616C28.1951 6.72616 28.0751 7.18616 27.9551 7.68616C27.8851 7.95616 27.9551 8.04616 28.2251 8.07616C28.4951 8.10616 28.4851 8.07616 28.6251 8.07616H31.8651C32.2751 8.07616 32.3451 8.15617 32.2451 8.54617C32.0351 9.38617 31.8051 10.2262 31.5851 11.0662C31.4651 11.5062 31.3651 11.9362 31.2451 12.3662C31.1251 12.7962 31.0451 12.8162 30.6651 12.8162H27.1751C26.6851 12.8162 26.6551 12.8162 26.5251 13.3062L26.1351 14.7562C26.0551 15.0762 26.1351 15.1562 26.4451 15.1762H30.0051C30.3951 15.1762 30.4651 15.2562 30.3651 15.6162C30.0151 16.9462 29.6651 18.2662 29.3051 19.6162C29.2351 19.8862 29.1351 19.9562 28.8551 19.9762H20.0351C19.5751 19.9762 19.3551 19.9762 19.5451 19.3662C19.7351 18.7562 19.7551 18.4662 19.8651 18.0162C19.9751 17.5662 20.0351 17.5662 20.4351 17.5662H28.3051C28.4113 17.5813 28.519 17.5813 28.6251 17.5662C28.7251 17.5662 28.8651 17.4862 28.9051 17.3962C28.9771 17.2436 29.0015 17.0728 28.9751 16.9062C28.9751 16.7362 28.7151 16.7862 28.5551 16.7862H20.8451C20.3151 16.7862 20.2751 16.7062 20.4051 16.1962C20.5351 15.6862 20.6451 15.1962 20.7751 14.6962C20.9051 14.1962 20.9351 14.2462 21.3751 14.2462H24.8551C25.2451 14.2462 25.4051 14.0762 25.4251 13.6962C25.4251 13.5362 25.3651 13.4362 25.2051 13.4262H21.7651C21.6587 13.4363 21.5516 13.4363 21.4451 13.4262C21.2151 13.4262 21.1251 13.3062 21.1751 13.0862C21.3251 12.4562 21.4851 11.8362 21.6451 11.2062C21.6621 11.1205 21.7105 11.0443 21.7808 10.9925C21.8511 10.9407 21.9383 10.917 22.0251 10.9262H30.1751C30.6051 10.9262 30.7651 10.7962 30.7951 10.4362C30.8029 10.3999 30.8022 10.3623 30.7931 10.3264C30.7839 10.2904 30.7665 10.2571 30.7423 10.229C30.7181 10.2009 30.6876 10.1788 30.6534 10.1644C30.6192 10.15 30.5822 10.1438 30.5451 10.1462H22.6351C21.9951 10.1462 21.9651 10.1462 22.1151 9.49616C22.2651 8.84616 22.3751 8.49616 22.5151 7.96616C22.6051 7.60616 22.6651 7.56616 23.0351 7.56616H26.5151C26.9351 7.56616 27.1051 7.42616 27.1551 7.03616C27.1551 6.85616 27.1551 6.76617 26.9351 6.73617C26.8552 6.73119 26.775 6.73119 26.6951 6.73617H23.4151C22.8351 6.73617 22.7951 6.73617 22.9551 6.11617L23.3451 4.62617C23.4651 4.19617 23.4951 4.16617 23.9451 4.16617H28.0951H31.9351C32.3351 4.16617 32.5051 4.01616 32.5051 3.68616C32.5051 3.52616 32.4351 3.42616 32.2751 3.42616H24.3651C23.7351 3.42616 23.6951 3.42617 23.8451 2.76617C23.9551 2.34617 24.0551 1.92616 24.1651 1.50616C24.2751 1.08616 24.3251 1.06616 24.7351 1.06616H29.2451V0.976166Z" fill="#323F9E"/>
</svg>
