<svg width="115" height="25" viewBox="0 0 115 25" fill="none" xmlns="http://www.w3.org/2000/svg">
<g clip-path="url(#clip0)">
<path fill-rule="evenodd" clip-rule="evenodd" d="M43.97 6.60254H53.7923L48.9586 23.924H55.7567L60.5904 6.60254H68.5216L70.3475 4.54027H63.9243L64.7721 3.57842H71.2116L72.1245 2.55135H65.5301L66.3779 1.19009H73.3309L74.3906 0H46.9941L43.97 6.60254Z" fill="#FF0000"/>
<path fill-rule="evenodd" clip-rule="evenodd" d="M18.6029 24.1603H0.00976562L2.86272 19.5467L13.5572 19.6119L18.4235 0.179199H24.6267L19.6625 19.6119L18.6029 24.1603Z" fill="#FF0000"/>
<path fill-rule="evenodd" clip-rule="evenodd" d="M47.5 23.9165H41.4681L40.4329 22.7671C37.5555 24.4871 34.1156 25.3592 30.6921 24.8539C26.4779 24.0224 23.9428 21.4629 24.3015 17.2813C24.8639 14.3632 26.1436 11.9259 28.0347 9.9044C25.9236 5.67388 26.6979 2.77203 28.051 0.13916H42.6337L40.1965 5.69834C38.3054 1.88354 32.3223 2.84539 32.5587 7.94809L39.6992 15.8467C40.3106 15.0968 40.9301 13.385 41.5414 11.445L46.0246 13.6784C45.3481 15.7326 44.5737 17.7785 43.514 19.4903L43.5303 19.5066L47.5 23.9165ZM36.8707 18.7975L31.3442 13.0508C25.6057 17.208 31.4257 23.9898 36.8707 18.7975Z" fill="#FF0000"/>
<path fill-rule="evenodd" clip-rule="evenodd" d="M71.0484 14.8597C71.0484 14.8923 71.0484 14.9412 71.0403 15.0145C71.0321 15.0797 71.024 15.1613 71.0077 15.2509C70.9914 15.3324 70.9751 15.4221 70.9506 15.5199C70.9261 15.6177 70.9017 15.6992 70.8609 15.7808C70.8283 15.8541 70.7876 15.9193 70.7387 15.9764C70.6898 16.0253 70.6327 16.0497 70.5756 16.0497H67.3233L66.875 18.275H69.6382C69.7035 18.275 69.7524 18.2995 69.7768 18.3403C69.8094 18.3892 69.8257 18.4544 69.8257 18.5359C69.8257 18.5766 69.8176 18.6256 69.8176 18.6908C69.8094 18.756 69.7931 18.8375 69.7768 18.9272C69.7687 19.0087 69.7524 19.0983 69.7279 19.188C69.7035 19.2777 69.6708 19.3592 69.6382 19.4325C69.6056 19.5059 69.5567 19.5711 69.516 19.62C69.4671 19.6608 69.4182 19.6852 69.3611 19.6852H66.5978L66.0843 22.2529H69.3774C69.4345 22.2529 69.4834 22.2773 69.5078 22.3344C69.5323 22.3751 69.5486 22.4485 69.5486 22.5463C69.5486 22.5789 69.5486 22.6278 69.5404 22.7012C69.5404 22.7746 69.5241 22.8561 69.5078 22.9376C69.4915 23.0272 69.4752 23.1169 69.4508 23.2066C69.4263 23.2962 69.4019 23.3778 69.3611 23.4593C69.3285 23.5326 69.2877 23.5978 69.2388 23.6467C69.1899 23.6875 69.141 23.712 69.084 23.712H64.4948C64.4214 23.712 64.3562 23.7038 64.291 23.6794C64.2258 23.663 64.1769 23.6223 64.1443 23.5734C64.1035 23.5245 64.0709 23.4674 64.0628 23.3941C64.0465 23.3207 64.0465 23.231 64.0628 23.1251L65.6523 15.1776C65.693 14.9738 65.7827 14.8189 65.9131 14.7292C66.0354 14.6396 66.1821 14.5907 66.337 14.5907H70.8691C70.9914 14.5907 71.0484 14.6803 71.0484 14.8597ZM76.2571 19.0087L77.6591 22.9946C77.708 23.1658 77.7406 23.2962 77.7488 23.4022C77.7569 23.5 77.7243 23.5815 77.6591 23.6304C77.5939 23.6875 77.4879 23.7201 77.3412 23.7364C77.1863 23.7527 76.9826 23.7527 76.7136 23.7527C76.5179 23.7527 76.3712 23.7527 76.2571 23.7446C76.143 23.7364 76.0615 23.7201 75.9962 23.6957C75.931 23.6712 75.8903 23.6467 75.8658 23.606C75.8332 23.5734 75.8169 23.5245 75.7925 23.4674L74.6839 20.1498L72.3445 23.4674C72.3037 23.5245 72.263 23.5734 72.2141 23.606C72.1733 23.6467 72.1081 23.6712 72.0266 23.6957C71.9451 23.7201 71.8309 23.7364 71.7005 23.7446C71.5619 23.7527 71.3908 23.7527 71.1788 23.7527C70.9343 23.7527 70.7387 23.7527 70.6001 23.7364C70.4615 23.7201 70.3637 23.6875 70.323 23.6386C70.2822 23.5897 70.2822 23.5082 70.3311 23.4104C70.3719 23.3125 70.4534 23.1821 70.5756 23.0191L73.5753 19.0005L72.3037 15.2917C72.2548 15.1287 72.2222 14.9982 72.2141 14.8923C72.2059 14.7944 72.2385 14.7211 72.3037 14.6722C72.3608 14.6151 72.4667 14.5825 72.6216 14.5744C72.7683 14.5581 72.9803 14.5499 73.2411 14.5499C73.4367 14.5499 73.5998 14.5581 73.7139 14.5662C73.828 14.5744 73.9177 14.5907 73.9829 14.6151C74.0481 14.6396 74.097 14.6722 74.1215 14.7129C74.1541 14.7537 74.1785 14.8108 74.1948 14.876L75.1648 17.8512L77.3005 14.8352C77.3331 14.7863 77.3738 14.7374 77.4227 14.6966C77.4635 14.664 77.5205 14.6314 77.5939 14.607C77.6754 14.5907 77.7732 14.5744 77.8955 14.5662C78.0178 14.5581 78.1808 14.5499 78.3846 14.5499C78.6454 14.5499 78.8492 14.5581 78.9959 14.5744C79.1426 14.5825 79.2323 14.6151 79.2812 14.6722C79.322 14.7211 79.322 14.7944 79.2812 14.8923C79.2405 14.9982 79.1589 15.1287 79.0448 15.2917L76.2571 19.0087ZM86.5033 16.8323C86.5033 17.0931 86.4707 17.3703 86.4136 17.6555C86.3565 17.9408 86.2587 18.2261 86.1283 18.4951C85.9979 18.7723 85.8267 19.0331 85.6148 19.2777C85.4028 19.5222 85.1501 19.7423 84.8485 19.9379C84.5469 20.1254 84.1883 20.2803 83.7889 20.3862C83.3895 20.5003 82.9248 20.5493 82.3869 20.5493H81.4332L80.8463 23.4674C80.8381 23.5163 80.8137 23.5571 80.7811 23.5978C80.7403 23.6304 80.6832 23.663 80.6017 23.6875C80.5202 23.712 80.4224 23.7283 80.3001 23.7364C80.1779 23.7527 80.023 23.7527 79.8518 23.7527C79.6725 23.7527 79.5339 23.7527 79.4116 23.7364C79.2975 23.7283 79.2079 23.712 79.1426 23.6875C79.0774 23.663 79.0367 23.6304 79.0122 23.5978C78.9878 23.5652 78.9796 23.5163 78.9959 23.4674L80.6425 15.2591C80.6832 15.039 80.7729 14.8678 80.9196 14.7618C81.0582 14.6477 81.2294 14.5907 81.4332 14.5907H83.4302C83.6748 14.5907 83.8948 14.5988 84.0823 14.6151C84.278 14.6314 84.4654 14.664 84.6529 14.6966C84.9382 14.7537 85.1991 14.8434 85.4273 14.9575C85.6555 15.0797 85.843 15.2265 86.006 15.3976C86.1691 15.577 86.2913 15.7808 86.3728 16.0253C86.4544 16.2617 86.5033 16.5307 86.5033 16.8323ZM84.5551 17.0361C84.5551 16.816 84.498 16.6203 84.3921 16.4492C84.2861 16.2861 84.1149 16.172 83.8948 16.1068C83.7889 16.0742 83.6829 16.0497 83.5606 16.0416C83.4384 16.0253 83.2998 16.0253 83.1531 16.0253H82.3379L81.7185 19.1228H82.5662C82.8352 19.1228 83.0634 19.0902 83.2509 19.025C83.4465 18.9679 83.6096 18.8782 83.7563 18.7804C83.903 18.6745 84.0253 18.5522 84.1231 18.4136C84.229 18.2669 84.3106 18.1202 84.3758 17.9653C84.4328 17.8104 84.4817 17.6555 84.5062 17.4925C84.5388 17.3376 84.5551 17.1828 84.5551 17.0361ZM94.2959 16.5796C94.2959 16.8893 94.2551 17.1828 94.1736 17.4762C94.0921 17.7778 93.9617 18.055 93.7824 18.3158C93.603 18.5848 93.3666 18.8212 93.0895 19.0331C92.8042 19.2451 92.4537 19.4162 92.0461 19.5385C92.2744 19.6282 92.4618 19.8075 92.6167 20.0683C92.7716 20.3373 92.902 20.696 92.9998 21.1606L93.3503 23.0109C93.3748 23.1169 93.3911 23.2066 93.4074 23.2881C93.4237 23.3696 93.4319 23.443 93.4319 23.5C93.4319 23.5408 93.4155 23.5815 93.3829 23.6141C93.3503 23.6467 93.3014 23.6712 93.2118 23.6957C93.1303 23.7201 93.0243 23.7364 92.8857 23.7446C92.7471 23.7527 92.5678 23.7527 92.3559 23.7527C92.1603 23.7527 91.9972 23.7527 91.8831 23.7364C91.769 23.7283 91.6712 23.712 91.606 23.6794C91.5408 23.6549 91.5 23.6223 91.4837 23.5815C91.4592 23.5408 91.4429 23.4919 91.4348 23.4348L91.0843 21.4133C91.0517 21.1769 90.9946 20.9731 90.9294 20.7938C90.8723 20.6145 90.7827 20.4677 90.6849 20.3455C90.5871 20.2232 90.4648 20.1335 90.3262 20.0765C90.1795 20.0194 90.0083 19.9868 89.8045 19.9868H89.2176L88.5248 23.4674C88.5248 23.5163 88.5003 23.5571 88.4596 23.5978C88.4188 23.6304 88.3618 23.663 88.2884 23.6875C88.2069 23.712 88.1091 23.7283 87.9868 23.7364C87.8645 23.7527 87.7096 23.7527 87.5303 23.7527C87.351 23.7527 87.2124 23.7527 87.0983 23.7364C86.976 23.7283 86.8864 23.712 86.8212 23.6875C86.7559 23.663 86.7152 23.6304 86.6907 23.5978C86.6663 23.5652 86.6581 23.5163 86.6744 23.4674L88.3373 15.1776C88.3781 14.9738 88.4596 14.8189 88.5818 14.7292C88.7123 14.6396 88.8671 14.5907 89.0383 14.5907H91.4837C91.9157 14.5907 92.2988 14.6314 92.6493 14.7129C92.9917 14.7944 93.2851 14.9167 93.5297 15.0797C93.7824 15.2428 93.9698 15.4547 94.1003 15.6992C94.2307 15.9519 94.2959 16.2454 94.2959 16.5796ZM92.307 16.9301C92.307 16.7997 92.2825 16.6774 92.2336 16.5633C92.1929 16.4492 92.1195 16.3513 92.0217 16.2617C91.9239 16.1802 91.7934 16.1231 91.6386 16.0742C91.4755 16.0253 91.2881 16.009 91.068 16.009H90.0165L89.4948 18.6011H90.3833C90.7338 18.6011 91.0354 18.5522 91.2799 18.4544C91.5245 18.3484 91.7201 18.218 91.875 18.055C92.0217 17.9001 92.1358 17.7208 92.201 17.5251C92.2744 17.3295 92.307 17.1339 92.307 16.9301ZM101.844 14.8597C101.844 14.8923 101.844 14.9412 101.836 15.0145C101.828 15.0797 101.811 15.1613 101.803 15.2509C101.787 15.3324 101.771 15.4221 101.746 15.5199C101.722 15.6177 101.689 15.6992 101.657 15.7808C101.624 15.8541 101.575 15.9193 101.526 15.9764C101.477 16.0253 101.428 16.0497 101.371 16.0497H98.1188L97.6705 18.275H100.434C100.499 18.275 100.548 18.2995 100.572 18.3403C100.605 18.3892 100.613 18.4544 100.613 18.5359C100.613 18.5766 100.613 18.6256 100.605 18.6908C100.597 18.756 100.589 18.8375 100.572 18.9272C100.564 19.0087 100.54 19.0983 100.515 19.188C100.491 19.2777 100.466 19.3592 100.426 19.4325C100.393 19.5059 100.352 19.5711 100.303 19.62C100.254 19.6608 100.206 19.6852 100.149 19.6852H97.3852L96.8717 22.2529H100.173C100.23 22.2529 100.271 22.2773 100.295 22.3344C100.328 22.3751 100.344 22.4485 100.344 22.5463C100.344 22.5789 100.336 22.6278 100.336 22.7012C100.328 22.7746 100.32 22.8561 100.303 22.9376C100.287 23.0272 100.271 23.1169 100.246 23.2066C100.222 23.2962 100.189 23.3778 100.157 23.4593C100.124 23.5326 100.083 23.5978 100.034 23.6467C99.9855 23.6875 99.9366 23.712 99.8714 23.712H95.2903C95.217 23.712 95.1436 23.7038 95.0866 23.6794C95.0214 23.663 94.9724 23.6223 94.9317 23.5734C94.8909 23.5245 94.8665 23.4674 94.8502 23.3941C94.8339 23.3207 94.842 23.231 94.8583 23.1251L96.4478 15.1776C96.4886 14.9738 96.5701 14.8189 96.7005 14.7292C96.8309 14.6396 96.9777 14.5907 97.1325 14.5907H101.657C101.779 14.5907 101.844 14.6803 101.844 14.8597ZM108.08 15.2917C108.08 15.3324 108.072 15.3895 108.063 15.4629C108.055 15.5281 108.047 15.6096 108.031 15.6911C108.023 15.7726 107.998 15.8623 107.982 15.9519C107.957 16.0334 107.933 16.115 107.9 16.1883C107.868 16.2617 107.835 16.3187 107.794 16.3676C107.754 16.4166 107.713 16.441 107.672 16.441C107.607 16.441 107.525 16.4084 107.428 16.3513C107.33 16.2943 107.208 16.2291 107.061 16.1557C106.914 16.0905 106.751 16.0253 106.555 15.9682C106.368 15.903 106.148 15.8786 105.903 15.8786C105.651 15.8786 105.439 15.9112 105.259 15.9845C105.088 16.0497 104.941 16.1476 104.827 16.2617C104.713 16.3758 104.632 16.5062 104.583 16.6529C104.526 16.7915 104.501 16.9382 104.501 17.085C104.501 17.248 104.542 17.4029 104.624 17.5333C104.713 17.6637 104.819 17.7778 104.966 17.8919C105.104 17.9979 105.268 18.1039 105.447 18.2098C105.626 18.3158 105.814 18.4218 106.001 18.5359C106.18 18.6419 106.368 18.7723 106.547 18.9027C106.727 19.0413 106.89 19.188 107.036 19.3673C107.175 19.5466 107.289 19.7423 107.371 19.9705C107.452 20.1988 107.501 20.4677 107.501 20.7612C107.501 21.2014 107.411 21.6089 107.232 21.992C107.053 22.367 106.8 22.693 106.474 22.9783C106.14 23.2555 105.748 23.4756 105.284 23.6304C104.819 23.7935 104.306 23.875 103.743 23.875C103.433 23.875 103.156 23.8505 102.895 23.7935C102.643 23.7527 102.406 23.6875 102.211 23.6141C102.015 23.5489 101.844 23.4756 101.714 23.3941C101.575 23.3125 101.469 23.2392 101.404 23.174C101.339 23.1006 101.306 22.9946 101.306 22.8561C101.306 22.8153 101.314 22.7583 101.322 22.6849C101.33 22.6034 101.347 22.5219 101.363 22.4404C101.379 22.3507 101.396 22.261 101.42 22.1714C101.445 22.0817 101.469 21.992 101.502 21.9187C101.534 21.8453 101.575 21.7801 101.616 21.7312C101.657 21.6904 101.697 21.666 101.738 21.666C101.82 21.666 101.917 21.6986 102.023 21.7719C102.137 21.8453 102.276 21.9268 102.439 22.0165C102.602 22.098 102.798 22.1877 103.026 22.261C103.246 22.3344 103.515 22.3751 103.833 22.3751C104.11 22.3751 104.355 22.3344 104.567 22.2692C104.778 22.1958 104.95 22.098 105.088 21.9757C105.235 21.8535 105.341 21.7149 105.414 21.5519C105.488 21.397 105.52 21.2177 105.52 21.0302C105.52 20.8509 105.479 20.696 105.398 20.5737C105.308 20.4351 105.202 20.321 105.064 20.2069C104.925 20.0928 104.762 19.9868 104.591 19.889C104.412 19.7912 104.232 19.6934 104.053 19.5793C103.865 19.4651 103.686 19.3429 103.515 19.2124C103.336 19.082 103.181 18.9272 103.042 18.7478C102.904 18.5685 102.79 18.3729 102.708 18.1365C102.618 17.9082 102.578 17.6392 102.578 17.3376C102.578 16.9138 102.659 16.5225 102.83 16.1639C103.001 15.8134 103.238 15.5036 103.531 15.2509C103.833 14.9901 104.192 14.7944 104.607 14.6477C105.023 14.5092 105.488 14.4358 105.985 14.4358C106.221 14.4358 106.449 14.4521 106.661 14.4847C106.873 14.5255 107.069 14.5662 107.24 14.6233C107.411 14.6722 107.566 14.7374 107.688 14.8026C107.811 14.8678 107.892 14.9249 107.941 14.9656C107.99 15.0145 108.023 15.0634 108.047 15.1042C108.063 15.1613 108.08 15.2183 108.08 15.2917ZM114.788 15.2917C114.788 15.3324 114.788 15.3895 114.78 15.4629C114.772 15.5281 114.764 15.6096 114.747 15.6911C114.731 15.7726 114.715 15.8623 114.69 15.9519C114.674 16.0334 114.642 16.115 114.617 16.1883C114.584 16.2617 114.544 16.3187 114.511 16.3676C114.47 16.4166 114.43 16.441 114.389 16.441C114.324 16.441 114.242 16.4084 114.136 16.3513C114.038 16.2943 113.916 16.2291 113.777 16.1557C113.631 16.0905 113.468 16.0253 113.272 15.9682C113.076 15.903 112.865 15.8786 112.62 15.8786C112.367 15.8786 112.147 15.9112 111.976 15.9845C111.797 16.0497 111.658 16.1476 111.544 16.2617C111.43 16.3758 111.348 16.5062 111.291 16.6529C111.242 16.7915 111.21 16.9382 111.21 17.085C111.21 17.248 111.259 17.4029 111.34 17.5333C111.422 17.6637 111.536 17.7778 111.683 17.8919C111.821 17.9979 111.984 18.1039 112.164 18.2098C112.343 18.3158 112.53 18.4218 112.71 18.5359C112.897 18.6419 113.085 18.7723 113.264 18.9027C113.443 19.0413 113.606 19.188 113.745 19.3673C113.892 19.5466 114.006 19.7423 114.087 19.9705C114.169 20.1988 114.218 20.4677 114.218 20.7612C114.218 21.2014 114.128 21.6089 113.949 21.992C113.769 22.367 113.517 22.693 113.191 22.9783C112.856 23.2555 112.465 23.4756 112 23.6304C111.536 23.7935 111.022 23.875 110.452 23.875C110.15 23.875 109.873 23.8505 109.612 23.7935C109.351 23.7527 109.123 23.6875 108.927 23.6141C108.732 23.5489 108.561 23.4756 108.422 23.3941C108.292 23.3125 108.186 23.2392 108.12 23.174C108.055 23.1006 108.023 22.9946 108.023 22.8561C108.023 22.8153 108.031 22.7583 108.039 22.6849C108.047 22.6034 108.063 22.5219 108.08 22.4404C108.096 22.3507 108.112 22.261 108.137 22.1714C108.161 22.0817 108.186 21.992 108.218 21.9187C108.251 21.8453 108.292 21.7801 108.324 21.7312C108.365 21.6904 108.406 21.666 108.455 21.666C108.536 21.666 108.626 21.6986 108.74 21.7719C108.854 21.8453 108.985 21.9268 109.156 22.0165C109.319 22.098 109.514 22.1877 109.743 22.261C109.963 22.3344 110.232 22.3751 110.55 22.3751C110.827 22.3751 111.071 22.3344 111.283 22.2692C111.487 22.1958 111.666 22.098 111.805 21.9757C111.952 21.8535 112.058 21.7149 112.123 21.5519C112.204 21.397 112.237 21.2177 112.237 21.0302C112.237 20.8509 112.196 20.696 112.106 20.5737C112.025 20.4351 111.919 20.321 111.772 20.2069C111.642 20.0928 111.479 19.9868 111.308 19.889C111.128 19.7912 110.949 19.6934 110.761 19.5793C110.582 19.4651 110.403 19.3429 110.224 19.2124C110.052 19.082 109.889 18.9272 109.759 18.7478C109.612 18.5685 109.506 18.3729 109.425 18.1365C109.335 17.9082 109.294 17.6392 109.294 17.3376C109.294 16.9138 109.376 16.5225 109.547 16.1639C109.718 15.8134 109.946 15.5036 110.248 15.2509C110.55 14.9901 110.908 14.7944 111.324 14.6477C111.74 14.5092 112.204 14.4358 112.701 14.4358C112.938 14.4358 113.166 14.4521 113.378 14.4847C113.59 14.5255 113.777 14.5662 113.957 14.6233C114.128 14.6722 114.283 14.7374 114.405 14.8026C114.527 14.8678 114.609 14.9249 114.658 14.9656C114.707 15.0145 114.739 15.0634 114.764 15.1042C114.78 15.1613 114.788 15.2183 114.788 15.2917Z" fill="#FF0000"/>
</g>
<defs>
<clipPath id="clip0">
<rect width="114.797" height="25" fill="white"/>
</clipPath>
</defs>
</svg>
