<svg width="182" height="25" viewBox="0 0 182 25" fill="none" xmlns="http://www.w3.org/2000/svg">
      <path
        fill-rule="evenodd"
        clip-rule="evenodd"
        d="M30.1573 0.00323486C39.1707 0.0043335 48.1841 0.00543213 57.1973 0C58.6656 2.38672 60.1225 4.77919 61.5381 7.19659C61.6534 7.40976 61.7776 7.61992 61.902 7.83043C62.2627 8.44063 62.625 9.05374 62.7759 9.75116C62.9821 10.6599 62.3558 11.6727 61.4336 11.854C60.3781 12.1228 59.3148 11.8971 58.2668 11.6747C57.9745 11.6126 57.6833 11.5508 57.3939 11.5001C38.2632 7.66559 19.1316 3.8364 0 0.00863647C10.0522 0.000793457 20.1048 0.00201416 30.1573 0.00323486ZM103.734 0.0382385C101.302 0.0332031 98.869 0.028183 96.4365 0.0632019C97.9967 0.309998 99.5605 0.531921 101.124 0.753876C102.351 0.928009 103.579 1.10217 104.804 1.28836C104.105 3.36638 103.402 5.4435 102.699 7.52061C102.016 9.53938 101.333 11.5582 100.653 13.5778C100.505 14.0836 99.9261 14.2122 99.481 14.2998C99.4543 14.3882 99.4272 14.4766 99.4001 14.565C99.3817 14.6248 99.3634 14.6845 99.3452 14.7442C100.024 14.7407 100.703 14.741 101.382 14.7412C101.825 14.7414 102.268 14.7416 102.712 14.7407C102.735 14.613 102.76 14.4866 102.785 14.3603C102.745 14.344 102.703 14.3298 102.661 14.3155C102.53 14.271 102.398 14.2259 102.306 14.1161C102.253 13.7849 102.366 13.4697 102.477 13.1619C102.502 13.0914 102.527 13.0213 102.55 12.9514C103.121 11.2671 103.688 9.58171 104.255 7.89644C104.925 5.90596 105.595 3.91559 106.27 1.92719C106.478 1.18382 107.274 0.83638 107.985 0.910217C108.045 0.74324 108.106 0.576569 108.167 0.410019C108.213 0.285919 108.258 0.16188 108.303 0.0378418C106.78 0.0445251 105.257 0.0413818 103.734 0.0382385ZM159.18 0.0378876C156.844 0.0341339 154.508 0.0303802 152.173 0.0583038V0.0587463C153.868 0.330994 155.567 0.578644 157.266 0.826279C158.366 0.986542 159.465 1.1468 160.564 1.31372C159.712 3.89104 158.847 6.46429 157.983 9.03783C157.479 10.5364 156.976 12.035 156.475 13.5346C156.308 14.0449 155.742 14.2015 155.277 14.2771C155.239 14.4529 155.201 14.6286 155.165 14.8056C155.975 14.8031 156.786 14.8035 157.596 14.804C157.908 14.8041 158.221 14.8043 158.533 14.8043C158.565 14.6553 158.598 14.5089 158.632 14.3616C158.4 14.2998 158.184 14.193 158.013 14.02C158.734 11.8854 159.454 9.75009 160.173 7.61482C160.816 5.70583 161.46 3.79686 162.104 1.88849C162.338 1.17226 163.13 0.894653 163.812 0.919571C163.914 0.623291 164.016 0.328339 164.123 0.034729C162.476 0.0431976 160.828 0.0405426 159.18 0.0378876ZM146.819 1.26691L146.378 1.26611C146.296 1.44806 146.214 1.62912 146.131 1.81018C146.193 1.83258 146.266 1.84853 146.342 1.86507C146.578 1.91653 146.84 1.97368 146.861 2.24838C146.889 2.57913 146.549 2.64609 146.296 2.69592C146.276 2.69984 146.256 2.70366 146.238 2.70749C145.595 2.79518 144.953 2.8826 144.311 2.96988C142.66 3.19434 141.009 3.41798 139.358 3.64348C139.249 3.65923 139.14 3.67139 139.031 3.68355C138.704 3.71986 138.376 3.75632 138.071 3.8886C138.419 3.92815 138.767 3.92603 139.116 3.9239C139.23 3.92322 139.344 3.92253 139.459 3.92331C140.497 3.91862 141.535 3.92078 142.573 3.92293C144.196 3.92628 145.819 3.92964 147.442 3.90685C147.933 3.8624 148.075 3.43788 148.214 3.02313C148.271 2.85249 148.327 2.6835 148.407 2.54332C148.619 2.08244 149.133 1.92853 149.585 1.83421C149.624 1.64381 149.667 1.4534 149.709 1.26344C148.746 1.27039 147.783 1.26865 146.819 1.26691ZM115.038 1.29102C114.548 1.29068 114.057 1.29034 113.566 1.29192C113.527 1.3978 113.448 1.60956 113.409 1.71677C113.465 1.7451 113.529 1.76631 113.594 1.78778C113.75 1.83945 113.91 1.89264 113.98 2.05042C114.107 2.24704 114.035 2.4834 113.972 2.6906L113.963 2.71994C113.084 5.28204 112.207 7.84529 111.331 10.4083L110.691 12.2797C110.257 13.3758 109.025 13.8385 107.954 13.9857C107.313 13.9786 106.563 13.8033 106.223 13.1917C105.996 12.729 106.181 12.2186 106.347 11.7613C106.363 11.7169 106.379 11.673 106.394 11.6297C106.707 10.7511 107.015 9.87125 107.324 8.99147C107.685 7.96205 108.046 6.93274 108.413 5.90562C108.566 5.44519 109.024 5.1765 109.493 5.21164C109.526 5.1106 109.558 5.00906 109.589 4.90762C109.609 4.84116 109.63 4.77472 109.65 4.7085C109.342 4.71126 109.033 4.70996 108.725 4.70866C107.892 4.70515 107.06 4.70163 106.231 4.77789C106.217 4.88287 106.192 5.09108 106.179 5.19606C106.287 5.21652 106.501 5.25656 106.609 5.27658C106.662 5.3669 106.715 5.45587 106.769 5.54617C106.697 5.97678 106.548 6.38597 106.399 6.79456C106.353 6.92249 106.306 7.05037 106.262 7.17883C105.725 8.73097 105.184 10.2831 104.642 11.8344C104.497 12.2441 104.448 12.6965 104.555 13.1214C104.711 13.7077 105.197 14.1445 105.729 14.3812C106.56 14.7838 107.503 14.7589 108.4 14.726C109.822 14.7109 111.265 14.0267 112.077 12.8193C112.363 12.4054 112.521 11.923 112.677 11.4476C112.691 11.4064 112.705 11.3652 112.718 11.3241C113.115 10.1487 113.508 8.97224 113.902 7.79582C114.484 6.05315 115.067 4.31056 115.661 2.57179C115.829 2.04819 116.336 1.7657 116.853 1.72701C116.863 1.64774 116.882 1.5106 116.897 1.39943L116.913 1.28836C116.288 1.29185 115.663 1.29143 115.038 1.29102ZM156.61 2.14731C156.259 2.14375 155.834 2.13943 155.608 2.4637C155.36 2.8727 155.207 3.33006 155.055 3.78253L155.026 3.86903C155.86 3.87259 156.695 3.87125 157.53 3.87036C157.584 3.61189 157.643 3.35432 157.708 3.09807C157.453 3.01711 157.2 2.92369 156.955 2.81781C157.049 2.72795 157.149 2.64386 157.256 2.56868C157.496 2.49844 157.744 2.46169 157.992 2.42493C158.337 2.37392 158.681 2.32294 159.004 2.18254C158.511 2.1414 158.017 2.14568 157.524 2.14995C157.222 2.15256 156.92 2.15517 156.619 2.1474L156.61 2.14731ZM122.755 5.32819C121.174 4.43268 119.2 4.3219 117.502 4.9296C116.713 5.20451 116.052 5.77795 115.601 6.48262C115.277 6.97375 114.998 7.58278 115.153 8.18335C115.265 8.69228 115.692 9.0704 116.161 9.24257C116.376 9.32169 116.591 9.3989 116.807 9.4761C117.415 9.69411 118.024 9.91219 118.616 10.1737C119.211 10.4433 119.793 11.0509 119.623 11.7694C119.348 12.6507 118.649 13.4288 117.768 13.7041C116.891 14.0267 115.842 14.1681 115.019 13.6281C114.516 13.2651 114.487 12.6353 114.458 12.0421C114.45 11.8668 114.442 11.6947 114.422 11.5336L114.23 11.5371C114.101 11.5394 113.973 11.5416 113.845 11.5443C113.723 11.9665 113.607 12.3908 113.491 12.8154C113.408 13.1209 113.324 13.4266 113.239 13.7317C114.694 14.7838 116.605 14.9751 118.309 14.5471C119.416 14.2736 120.454 13.5791 121.011 12.5519C121.316 11.9749 121.529 11.321 121.491 10.659C121.434 9.88896 120.856 9.26036 120.193 8.94406C119.795 8.73236 119.354 8.63326 118.914 8.53438C118.327 8.40263 117.743 8.27132 117.267 7.8746C116.972 7.50581 117.054 6.94884 117.24 6.54535C117.596 5.86559 118.355 5.5524 119.061 5.40649C119.828 5.25212 120.725 5.28148 121.332 5.84601C121.723 6.21391 121.813 6.77757 121.839 7.29361C121.929 7.27722 122.019 7.26137 122.109 7.24561C122.181 7.23315 122.252 7.22076 122.323 7.20819C122.377 6.93417 122.447 6.66425 122.517 6.39444C122.609 6.04179 122.701 5.68935 122.755 5.32819ZM133.517 4.68135C132.411 4.68581 131.306 4.68803 130.2 4.68002C130.127 4.8544 130.053 5.02879 129.979 5.20274C130.232 5.27214 130.48 5.35178 130.732 5.43274C130.541 5.68207 130.278 5.84299 130.016 6.00288C129.929 6.05638 129.841 6.10977 129.757 6.16632C129.223 6.5132 128.688 6.85822 128.153 7.20328C127.355 7.71805 126.557 8.23288 125.763 8.7541C125.688 8.75499 125.538 8.75589 125.463 8.75589C125.362 9.07486 125.252 9.39026 125.137 9.70479C126.521 9.70123 127.905 9.69989 129.288 9.70479C129.163 10.14 129.01 10.5662 128.858 10.9923C128.764 11.2553 128.67 11.5182 128.582 11.7832C128.55 11.8721 128.52 11.9631 128.489 12.0545C128.365 12.4302 128.239 12.8134 127.946 13.0893C127.097 13.9457 125.694 14.2771 124.604 13.7144C124.204 13.5062 123.862 13.0698 123.948 12.5893C124.057 11.9331 124.277 11.3063 124.496 10.6816C124.559 10.5042 124.621 10.3269 124.681 10.1492C124.863 9.60849 125.048 9.06842 125.234 8.52835C125.485 7.79805 125.735 7.06773 125.979 6.33582C125.989 6.30637 126 6.27672 126.01 6.24696C126.107 5.9706 126.206 5.68582 126.422 5.483C126.569 5.31792 126.775 5.26666 126.98 5.21573C127.067 5.19418 127.153 5.1727 127.235 5.14268C127.27 5.04686 127.302 4.95103 127.332 4.85477C127.35 4.79863 127.366 4.74234 127.382 4.68581C126.654 4.71492 125.925 4.71126 125.197 4.70758C124.79 4.70554 124.383 4.70349 123.976 4.70715C123.952 4.81081 123.904 5.01811 123.881 5.12177C123.976 5.15224 124.072 5.18523 124.168 5.21831C124.233 5.24077 124.298 5.26326 124.363 5.28503C124.419 5.58443 124.447 5.89851 124.334 6.19034C123.847 7.62447 123.365 9.05952 122.882 10.4947L122.588 11.3686C122.278 12.192 122.075 13.3651 122.85 13.9866C123.633 14.5538 124.624 14.7158 125.565 14.7611C126.736 14.7318 127.954 14.5151 128.954 13.8625C129.601 13.4572 129.932 12.7228 130.199 12.0319C130.467 11.2898 130.728 10.5438 130.938 9.78352C131.361 9.76707 131.784 9.76973 132.208 9.76973C132.286 9.43831 132.37 9.10912 132.462 8.78125C132.095 8.78436 131.73 8.78436 131.364 8.78258C131.506 8.27219 131.677 7.77054 131.848 7.26912C131.943 6.98737 132.039 6.70569 132.13 6.42256C132.154 6.35822 132.175 6.29196 132.197 6.22522C132.294 5.93164 132.394 5.62881 132.647 5.43852C132.817 5.29594 133.031 5.24577 133.242 5.1962C133.306 5.18097 133.371 5.1658 133.434 5.14803C133.461 4.99187 133.489 4.83617 133.517 4.68135ZM129.211 8.78488C128.869 8.78667 128.527 8.78845 128.186 8.76344C128.54 8.41441 128.961 8.15166 129.382 7.88921C129.593 7.75726 129.805 7.6254 130.007 7.48268C129.958 7.6432 129.909 7.80348 129.859 7.96375C129.775 8.23697 129.69 8.51013 129.609 8.78436C129.477 8.78349 129.344 8.78418 129.211 8.78488ZM138.453 4.62308C137.315 4.72095 136.151 4.92737 135.15 5.51015C134.779 5.7437 134.379 6.02174 134.228 6.45726C134.123 6.90919 134.51 7.13127 134.863 7.33322C134.975 7.39764 135.084 7.46002 135.172 7.52716C135.118 7.90335 134.791 8.10928 134.494 8.29539C134.459 8.3177 134.424 8.33974 134.39 8.36174C133.957 8.60686 133.516 8.93472 133.364 9.43919C133.097 10.2378 132.83 11.0367 132.564 11.8355L132.082 13.2806C131.975 13.5996 131.832 13.931 131.546 14.1259C131.384 14.2524 131.181 14.2641 130.983 14.2755C130.922 14.2791 130.86 14.2826 130.801 14.2896L130.793 14.327C130.767 14.4561 130.74 14.586 130.716 14.7166C131.301 14.7082 131.885 14.7199 132.47 14.7316C132.99 14.742 133.51 14.7525 134.031 14.7487C134.05 14.6943 134.07 14.6406 134.091 14.5873C134.118 14.5154 134.146 14.4441 134.174 14.3728L134.126 14.357C133.934 14.2944 133.742 14.2321 133.562 14.1405C133.587 13.8887 133.618 13.6361 133.708 13.3985C133.96 12.7088 134.207 12.0165 134.455 11.3243C134.595 10.9308 134.736 10.5373 134.878 10.1443C134.924 10.0186 134.964 9.88963 135.003 9.76059C135.077 9.51932 135.151 9.27777 135.274 9.05661C135.498 8.7323 135.784 8.46259 136.069 8.19347C136.198 8.07239 136.326 7.95143 136.448 7.82567C136.541 7.74506 136.58 7.63043 136.619 7.51776C136.628 7.4899 136.638 7.46216 136.648 7.43507C136.552 7.33958 136.443 7.25414 136.334 7.16858C136.109 6.99269 135.884 6.8163 135.769 6.55113C135.867 6.0912 136.359 5.88181 136.747 5.71689L136.756 5.713C137.711 5.38959 138.761 5.19696 139.756 5.44296C140.2 5.53862 140.388 6.02618 140.385 6.44391C140.368 7.01823 140.208 7.5761 140.009 8.11038C139.819 8.67372 139.625 9.23607 139.432 9.79845C139.122 10.7003 138.812 11.6022 138.514 12.5083C138.356 12.9714 138.307 13.4764 138.403 13.9582C138.501 14.391 138.88 14.726 139.312 14.7829C140.388 14.9418 141.428 14.3959 142.211 13.6895C142.259 13.6536 142.304 13.6124 142.35 13.5708C142.471 13.4617 142.593 13.3508 142.756 13.3318C142.581 13.7602 142.308 14.1632 141.879 14.359C141.85 14.4424 141.821 14.5253 141.793 14.6085C141.771 14.6749 141.748 14.7414 141.726 14.8083C142.475 14.8024 143.223 14.8031 143.972 14.8039C144.346 14.8043 144.72 14.8047 145.094 14.8043C145.133 14.6361 145.175 14.4698 145.219 14.3047C145.153 14.3014 145.086 14.3007 145.019 14.3C144.808 14.2978 144.595 14.2957 144.4 14.2113C144.222 13.9777 144.31 13.6703 144.388 13.4194C145.231 10.938 146.072 8.45515 146.91 5.97147C146.988 5.69565 147.172 5.47722 147.375 5.28682C147.467 5.28485 147.559 5.28201 147.651 5.27841C147.766 5.27388 147.882 5.26816 147.998 5.26146C148.027 5.14392 148.057 5.02744 148.088 4.91124C148.105 4.84317 148.124 4.77519 148.142 4.70715C147.023 4.70715 145.906 4.71117 144.788 4.70493C144.735 4.87799 144.683 5.05283 144.632 5.22676C144.849 5.29172 145.06 5.37712 145.259 5.48923C145.247 5.90881 145.106 6.29985 144.965 6.68942C144.917 6.82153 144.869 6.95348 144.827 7.0863C144.52 8.02141 144.214 8.95653 143.901 9.88896C143.567 10.9962 143.053 12.0871 142.206 12.886C141.838 13.2433 141.377 13.5004 140.886 13.6361C140.651 13.693 140.349 13.661 140.211 13.4332C140.079 13.0576 140.212 12.6737 140.337 12.3109C140.359 12.247 140.381 12.1837 140.401 12.1213C140.855 10.7604 141.305 9.39848 141.754 8.03772L141.903 7.58678C142.087 7.02492 142.207 6.38965 141.978 5.82466C141.799 5.35756 141.38 5.03058 140.93 4.85663C140.143 4.55368 139.281 4.539 138.453 4.62308ZM153.095 5.29172C152.378 4.87042 151.509 4.52609 150.679 4.78456C149.449 5.21431 148.293 6.22192 148.12 7.59612C148.018 8.25275 148.455 8.85153 149.012 9.13625C148.202 9.47345 147.402 9.94368 146.926 10.7186C146.344 11.6315 146.028 12.89 146.606 13.8843C147.013 14.6201 147.874 14.9444 148.672 14.9222C149.507 14.9079 150.333 14.7839 151.159 14.66C151.463 14.6145 151.766 14.569 152.07 14.5289L152.114 14.5248C152.756 14.4644 153.45 14.3991 154.027 14.7554C154.167 14.5743 154.31 14.3968 154.454 14.2193C154.322 14.1325 154.19 14.0458 154.057 13.9617C154.084 13.693 154.134 13.427 154.224 13.1716C154.566 12.169 154.907 11.1656 155.247 10.1622C155.674 8.90402 156.101 7.64594 156.531 6.38965C156.701 5.86115 157.096 5.3669 157.674 5.3064C157.729 5.09552 157.785 4.88644 157.842 4.67647C157.158 4.68741 156.474 4.68596 155.79 4.68451C155.39 4.68367 154.989 4.68283 154.589 4.68446C154.538 4.86909 154.487 5.05283 154.432 5.23566C154.513 5.259 154.594 5.28284 154.676 5.3067C154.784 5.33833 154.892 5.37003 155 5.40071C155.002 5.43732 155.004 5.47417 155.006 5.51114C155.014 5.67546 155.023 5.8423 154.969 6.00172C154.856 6.36888 154.729 6.73164 154.602 7.09464C154.447 7.54048 154.291 7.98669 154.16 8.44182C153.699 8.50819 153.243 8.5974 152.786 8.6866C152.459 8.75044 152.133 8.81429 151.804 8.86977C151.188 8.92227 150.485 8.95964 149.961 8.56593C149.65 8.34706 149.679 7.92221 149.733 7.58856C149.874 6.75398 150.494 6.04665 151.293 5.80286C151.763 5.61023 152.274 5.75037 152.697 5.99416C152.825 5.75749 152.958 5.52393 153.095 5.29172ZM148.422 11.3321C148.873 10.4553 149.752 9.83914 150.704 9.66029C150.871 9.62523 151.038 9.58937 151.205 9.5535C152.095 9.36224 152.986 9.17059 153.894 9.09755C153.707 9.68649 153.51 10.2729 153.313 10.8593C153.127 11.4113 152.942 11.9633 152.764 12.5177C152.59 13.0551 152.258 13.5951 151.715 13.8029C151.129 14.0084 150.499 14.0414 149.884 14.02C149.294 14.0129 148.725 13.6783 148.387 13.193C148.013 12.6373 148.141 11.898 148.422 11.3321ZM164.359 4.71449C163.777 4.70689 163.195 4.69928 162.613 4.70271L162.602 4.74069C162.563 4.88654 162.524 5.0331 162.486 5.18005C162.529 5.19489 162.575 5.20699 162.621 5.21921C162.777 5.26045 162.938 5.30299 163.023 5.45676C163.126 5.70201 163.043 5.97249 162.968 6.21576L162.956 6.25485C162.65 7.17509 162.345 8.09535 162.04 9.01546C161.537 10.5373 161.033 12.0587 160.524 13.5791C160.36 14.0894 159.79 14.2398 159.332 14.3465C159.304 14.4599 159.275 14.573 159.246 14.6862C159.232 14.7449 159.217 14.8037 159.203 14.8626C160.013 14.8519 160.823 14.8537 161.634 14.8554C161.939 14.8561 162.245 14.8568 162.551 14.8568C162.588 14.7064 162.627 14.5574 162.667 14.4079C162.614 14.3882 162.551 14.3803 162.487 14.3723C162.35 14.355 162.209 14.3374 162.153 14.1997C162.088 13.8934 162.195 13.6007 162.3 13.314C162.335 13.2202 162.369 13.127 162.397 13.0342C162.516 12.7114 162.624 12.384 162.731 12.0567C162.913 11.5042 163.094 10.9518 163.332 10.4219C164.185 8.81862 165.488 7.51694 166.891 6.40433C167.358 6.04532 167.893 5.68452 168.501 5.69031C168.983 5.6743 169.334 6.22993 169.231 6.68192C169.167 7.03181 169.047 7.3663 168.927 7.70064C168.871 7.85515 168.815 8.00961 168.765 8.16554C168.554 8.78282 168.342 9.39999 168.129 10.0172C167.713 11.2296 167.296 12.4423 166.884 13.6565C166.754 14.1315 166.243 14.2538 165.831 14.3525L165.793 14.3616C165.765 14.5089 165.738 14.657 165.712 14.8056C166.018 14.8056 166.324 14.8049 166.629 14.8042C167.43 14.8023 168.232 14.8005 169.034 14.8114C169.065 14.725 169.097 14.6392 169.129 14.5533L169.177 14.4235C168.959 14.3056 168.752 14.1735 168.555 14.0258C168.974 12.6218 169.433 11.2301 169.892 9.83835C170.241 8.77951 170.59 7.72069 170.922 6.65656C171.097 6.0649 170.988 5.32108 170.481 4.92737C170.098 4.6778 169.624 4.62575 169.181 4.60173C168.312 4.63553 167.429 4.89133 166.75 5.46075C165.944 6.04198 165.241 6.74814 164.541 7.4519L164.389 7.60457C164.372 7.64995 164.339 7.74248 164.324 7.78786C164.131 7.89996 164.158 7.58188 164.301 7.5463L164.308 7.52277C164.486 6.89214 164.666 6.25748 164.904 5.64671C165.074 5.27925 165.514 5.24278 165.866 5.22231C165.906 5.07831 165.949 4.93564 165.992 4.79314L166.011 4.72673C165.461 4.7289 164.91 4.72169 164.359 4.71449ZM174.814 4.72318C174.272 4.83038 173.799 5.13913 173.35 5.44875C172.593 5.98526 172.033 6.87589 172.01 7.82655C172.003 8.42445 172.456 8.85866 172.908 9.16695C171.968 9.4828 171.11 10.1123 170.65 11.0189C170.194 11.8833 169.985 13.0026 170.513 13.8852C170.907 14.6188 171.765 14.9311 172.551 14.9222C173.354 14.9138 174.149 14.7956 174.943 14.6775C175.375 14.6133 175.806 14.5492 176.239 14.5027C176.812 14.4582 177.424 14.4364 177.931 14.7603C178.07 14.5743 178.212 14.3901 178.358 14.2077C178.224 14.1268 178.089 14.0449 177.956 13.9653C177.998 13.5 178.157 13.0645 178.315 12.6295C178.391 12.4224 178.467 12.2153 178.53 12.0052C179.16 10.1363 179.793 8.26875 180.427 6.40076C180.601 5.8736 180.99 5.37712 181.568 5.30995C181.625 5.10042 181.682 4.88956 181.738 4.68002C181.101 4.68605 180.463 4.68544 179.825 4.68483C179.38 4.6844 178.935 4.68398 178.489 4.68581C178.472 4.7468 178.454 4.80798 178.437 4.86923C178.402 4.99072 178.367 5.11247 178.331 5.23343C178.517 5.28682 178.705 5.34509 178.892 5.40071L178.893 5.41695C178.91 5.64766 178.927 5.88547 178.842 6.10715L178.716 6.4726C178.491 7.12833 178.265 7.78432 178.052 8.44537C177.528 8.52235 177.007 8.62381 176.487 8.72527C176.261 8.76921 176.036 8.81314 175.81 8.85509C175.056 8.9543 174.137 8.97031 173.61 8.30969C173.5 7.33498 174.016 6.28821 174.934 5.91319C175.455 5.62758 176.104 5.65161 176.59 6.00439C176.722 5.76772 176.857 5.53194 176.996 5.29704C176.344 4.90646 175.583 4.59595 174.814 4.72318ZM172.067 12.2579C172.158 11.0167 173.206 10.0238 174.352 9.72302C175.487 9.45656 176.633 9.21277 177.795 9.09309C177.607 9.70956 177.402 10.3198 177.196 10.9303C177.024 11.441 176.851 11.9518 176.689 12.4665C176.509 13.0417 176.154 13.6361 175.555 13.8265C174.949 14.0164 174.304 14.0493 173.676 14.012C172.814 13.9595 171.966 13.1814 172.067 12.2579ZM167.449 16.4365C166.712 15.7986 165.669 15.7532 164.753 15.8773C162.856 16.166 161.178 17.6332 160.636 19.5061C160.378 20.3602 160.404 21.3687 160.964 22.0979C161.401 22.7011 162.164 22.9418 162.876 22.9529C165.226 23.1331 167.558 21.3607 168.052 19.0221C168.28 18.1332 168.148 17.0771 167.449 16.4365ZM162.209 18.6382C162.641 17.6123 163.515 16.7279 164.611 16.4881C165.312 16.3271 166.153 16.5913 166.502 17.2631C166.732 17.7609 166.781 18.325 166.764 18.8668C166.683 20.6102 165.314 22.2424 163.581 22.4484C162.845 22.5338 162.146 21.9791 161.951 21.2731C161.696 20.4007 161.871 19.4612 162.209 18.6382ZM174.482 15.854C174.345 15.9701 174.2 16.092 174.008 16.0708C173.855 16.0509 173.702 16.0258 173.549 16.0006C173.107 15.928 172.664 15.8551 172.215 15.9067C171.394 15.9796 170.529 16.2715 169.988 16.9352C169.724 17.3089 169.446 17.7889 169.624 18.2587C169.806 18.6346 170.165 18.8966 170.547 19.0416C170.874 19.1687 171.204 19.291 171.533 19.4133C171.856 19.533 172.179 19.6527 172.5 19.777C172.831 19.8802 173.084 20.2277 173.017 20.5862C172.895 21.3478 172.293 22.0147 171.549 22.19C170.802 22.4235 169.872 22.4484 169.287 21.8381C168.787 21.3825 168.629 20.6881 168.667 20.0297C168.517 20.2825 168.49 20.5756 168.463 20.8655C168.454 20.9607 168.446 21.0556 168.432 21.1485C168.412 21.3102 168.393 21.4721 168.374 21.6341C168.326 22.0408 168.278 22.4477 168.204 22.8515C168.653 22.5356 169.192 22.7011 169.673 22.8488C169.704 22.8586 169.736 22.8682 169.767 22.8777C171.42 23.2376 173.2 22.3265 174.042 20.8687C174.423 20.2437 174.397 19.3224 173.793 18.8495C173.364 18.5182 172.848 18.3782 172.331 18.2381C171.839 18.1047 171.347 17.9712 170.93 17.6723C170.596 17.401 170.918 16.9499 171.184 16.7702C171.959 16.2897 173.072 16.3146 173.747 16.9672C174.008 17.2075 174.068 17.5709 174.117 17.9077C174.155 17.9126 174.231 17.9228 174.27 17.9281C174.315 17.6227 174.352 17.3163 174.388 17.0099C174.437 16.6037 174.485 16.1976 174.554 15.7941C174.53 15.8134 174.506 15.8336 174.482 15.854ZM100.346 16.5426C100.091 16.9913 99.8365 17.4398 99.6335 17.9157C99.8224 17.781 99.9788 17.6094 100.135 17.4378C100.323 17.2308 100.512 17.024 100.757 16.8827C101.231 16.5536 101.806 16.5025 102.362 16.453C102.428 16.4472 102.493 16.4414 102.558 16.4352C102.263 17.3714 101.955 18.3036 101.648 19.236C101.39 20.0173 101.132 20.7988 100.881 21.5827C100.872 21.611 100.862 21.6397 100.853 21.6685C100.763 21.9366 100.669 22.2197 100.443 22.4008C100.305 22.5035 100.151 22.5766 99.9959 22.6498C99.922 22.6848 99.848 22.7198 99.7758 22.7581C100.658 22.7865 101.541 22.7879 102.423 22.7581C102.371 22.7187 102.317 22.6809 102.263 22.6432C102.162 22.5732 102.062 22.5033 101.97 22.4235C101.884 22.2748 101.934 22.0986 101.98 21.9386C101.99 21.9062 101.999 21.8745 102.006 21.8439C102.603 20.0399 103.196 18.236 103.783 16.4294C103.849 16.4378 103.916 16.4454 103.984 16.453C104.452 16.506 104.944 16.5618 105.305 16.8929C105.568 17.1251 105.62 17.4768 105.67 17.812C105.681 17.8815 105.691 17.9503 105.703 18.0171C105.846 17.5903 105.884 17.143 105.923 16.6951C105.95 16.3806 105.977 16.0658 106.04 15.7576C105.828 15.8373 105.607 15.9 105.379 15.892C105.104 15.8918 104.83 15.8914 104.556 15.8911C103.596 15.89 102.637 15.8888 101.677 15.8933C101.372 15.9022 101.071 15.8453 100.779 15.7576C100.642 16.0229 100.494 16.2828 100.346 16.5426ZM106.74 15.9689C106.719 15.9967 106.698 16.024 106.684 16.0424L106.899 16.0978C106.963 16.1144 107.025 16.1304 107.067 16.1416C107.221 16.3398 107.149 16.6037 107.086 16.8312C107.079 16.8585 107.072 16.8852 107.065 16.9112C106.78 17.7664 106.5 18.6233 106.219 19.48C105.959 20.273 105.7 21.066 105.437 21.8577C105.3 22.3701 104.803 22.617 104.345 22.7638C105.266 22.7834 106.188 22.7843 107.11 22.7616C107.055 22.732 106.999 22.7049 106.943 22.6779C106.828 22.6229 106.714 22.5681 106.612 22.4929C106.428 22.2097 106.537 21.8632 106.632 21.5619C106.642 21.531 106.651 21.5005 106.66 21.4706C106.872 20.8436 107.077 20.215 107.283 19.5862C107.417 19.1755 107.551 18.7648 107.688 18.3543C108.241 18.3586 108.794 18.3583 109.348 18.358C109.824 18.3577 110.301 18.3574 110.777 18.3601C110.51 19.2517 110.216 20.1344 109.922 21.0172C109.822 21.3184 109.721 21.6197 109.622 21.9213C109.48 22.4142 108.999 22.6433 108.544 22.7478C109.42 22.7981 110.298 22.7843 111.174 22.7572C111.017 22.6388 110.86 22.5249 110.701 22.4119C110.702 22.133 110.729 21.8528 110.829 21.5921C111.082 20.8408 111.328 20.0869 111.574 19.3331C111.872 18.4198 112.169 17.5066 112.481 16.598C112.559 16.307 112.802 16.2209 113.049 16.1334C113.206 16.0775 113.365 16.021 113.484 15.9102C113.123 15.8866 112.761 15.8884 112.399 15.8902C112.189 15.8913 111.979 15.8923 111.77 15.8884C111.708 15.8891 111.646 15.888 111.584 15.8869C111.32 15.8823 111.053 15.8776 110.814 16.0072C110.867 16.0384 110.944 16.0565 111.025 16.0756C111.21 16.1188 111.413 16.1664 111.39 16.3804C111.365 16.6812 111.264 16.9648 111.163 17.2491C111.098 17.4313 111.033 17.6136 110.988 17.8009C110.255 17.8065 109.523 17.8053 108.79 17.8041C108.483 17.8036 108.176 17.8031 107.868 17.8031C107.929 17.6361 107.981 17.4649 108.033 17.2936C108.124 16.9956 108.214 16.6974 108.355 16.4205C108.474 16.2269 108.673 16.1694 108.874 16.1114C109.03 16.0663 109.187 16.021 109.308 15.9116C108.806 15.884 108.304 15.8872 107.802 15.8903C107.468 15.8924 107.134 15.8945 106.8 15.8875C106.785 15.9077 106.762 15.9386 106.74 15.9689ZM116.22 15.9827C116.165 16.014 116.11 16.0455 116.074 16.0664L116.336 16.1006C116.342 16.4103 116.208 16.6861 116.029 16.9272L115.974 17.005C114.746 18.75 113.519 20.4951 112.292 22.2402C112.13 22.4935 111.855 22.5985 111.587 22.7005C111.535 22.7205 111.483 22.7403 111.432 22.7612C111.986 22.7831 112.54 22.7795 113.095 22.7759C113.303 22.7745 113.512 22.7732 113.721 22.7732C113.673 22.7367 113.622 22.7036 113.571 22.6705C113.461 22.5991 113.351 22.5277 113.271 22.4222C113.172 22.1495 113.317 21.8701 113.467 21.6503C113.628 21.4177 113.791 21.187 113.954 20.9562C114.239 20.5528 114.525 20.1494 114.795 19.7356C115.281 19.7779 115.788 19.8678 116.18 20.1854C116.641 20.5431 117.075 21.092 116.969 21.7206C116.909 22.2484 116.413 22.523 115.997 22.7525L115.962 22.7719C116.188 22.7722 116.414 22.7737 116.639 22.7752C117.281 22.7794 117.922 22.7836 118.562 22.7616C118.457 22.6806 118.35 22.601 118.243 22.524C118.123 22.1419 118.12 21.7435 118.116 21.3468C118.115 21.2026 118.114 21.0587 118.107 20.9159C118.102 20.2227 118.081 19.5304 118.061 18.8382C118.038 18.0769 118.015 17.3157 118.014 16.554C118.085 16.449 118.158 16.344 118.231 16.2408C118.355 16.1291 118.48 16.0152 118.603 15.9022L118.401 15.8989C117.721 15.8876 117.04 15.8763 116.361 15.9022C116.325 15.9223 116.273 15.9524 116.22 15.9827ZM115.698 18.3605C115.752 18.2857 115.806 18.211 115.858 18.1355C115.961 17.9919 116.061 17.8462 116.161 17.7004C116.38 17.3803 116.599 17.0603 116.849 16.7644C116.866 17.8174 116.877 18.8713 116.887 19.9247C116.465 19.4167 115.842 19.1929 115.203 19.172C115.21 19.1595 115.221 19.1342 115.228 19.1222C115.349 18.8461 115.524 18.6029 115.698 18.3605ZM122.65 15.8889C122.105 15.8707 121.56 15.8524 121.034 15.9903C121.351 16.065 121.657 16.3409 121.53 16.703C121.295 17.489 121.032 18.2669 120.769 19.0447C120.572 19.6258 120.376 20.2069 120.19 20.7913C120.134 20.9498 120.084 21.1112 120.034 21.2726C119.93 21.6079 119.827 21.943 119.66 22.2505C119.533 22.4967 119.28 22.5906 119.036 22.681C118.968 22.7059 118.902 22.7306 118.839 22.7581C119.68 22.7901 120.521 22.7803 121.361 22.7652C121.247 22.6433 121.134 22.5214 121.019 22.4017C120.957 22.0216 121.083 21.6661 121.207 21.315C121.238 21.2276 121.268 21.1405 121.296 21.0533C121.484 20.494 121.666 19.9329 121.848 19.3717C122.139 18.4739 122.43 17.5761 122.744 16.6861C122.858 16.2906 123.236 16.0833 123.616 16.0388L123.622 15.8884C123.3 15.9107 122.975 15.8998 122.65 15.8889ZM125.119 15.8872C124.868 15.8823 124.615 15.8773 124.386 15.9952C124.428 16.0296 124.471 16.0633 124.514 16.0971C124.613 16.1752 124.714 16.254 124.804 16.3431C124.895 16.5597 124.829 16.7928 124.765 17.0059C124.292 18.4215 123.827 19.8406 123.366 21.2606C123.195 21.9399 122.794 22.6362 122.052 22.7616C122.697 22.7867 123.343 22.781 123.988 22.7753C124.845 22.7677 125.701 22.7602 126.555 22.8243C126.582 22.8375 126.621 22.8561 126.661 22.8756C126.715 22.9015 126.772 22.9289 126.808 22.9467C127.158 22.448 127.494 21.939 127.83 21.4299C128.07 21.0666 128.31 20.7034 128.555 20.3438C128.538 20.3358 128.512 20.3239 128.487 20.312C128.461 20.3001 128.436 20.2882 128.418 20.2802C127.743 21.2366 126.739 21.96 125.618 22.2634C125.215 22.3425 124.696 22.3951 124.415 22.0227C124.292 21.8107 124.364 21.5674 124.429 21.3495L124.443 21.3038C124.894 19.9565 125.334 18.6066 125.774 17.2561L125.877 16.941C125.957 16.7221 126.04 16.4912 126.21 16.3257C126.329 16.2384 126.466 16.1851 126.602 16.1316C126.751 16.0735 126.9 16.0154 127.026 15.9138C126.663 15.8859 126.299 15.8879 125.934 15.89C125.735 15.8911 125.535 15.8922 125.336 15.8884C125.264 15.89 125.192 15.8886 125.119 15.8872ZM133.263 15.89C132.945 15.8908 132.626 15.8917 132.308 15.8884C132.434 16.2666 132.355 16.6572 132.093 16.9534C131.334 18.0269 130.578 19.1027 129.823 20.1784C129.332 20.8764 128.842 21.5745 128.351 22.2718C128.201 22.4962 127.953 22.5931 127.712 22.6873C127.651 22.7111 127.591 22.7348 127.532 22.7603C128.296 22.7865 129.061 22.7843 129.825 22.7603C129.653 22.6544 129.463 22.5703 129.324 22.42C129.253 22.0832 129.449 21.79 129.629 21.5316C130.053 20.9328 130.476 20.3326 130.889 19.7267C131.413 19.7779 131.95 19.9029 132.358 20.261C132.812 20.6263 133.181 21.2197 133.025 21.8278C132.921 22.2417 132.547 22.4719 132.206 22.6825C132.16 22.7103 132.116 22.7377 132.073 22.7652C132.94 22.7834 133.808 22.7812 134.675 22.7661C134.537 22.6637 134.403 22.5636 134.27 22.46C134.175 21.1055 134.152 19.7465 134.129 18.388C134.12 17.8599 134.111 17.332 134.098 16.8044C134.06 16.4772 134.289 16.2587 134.505 16.0517C134.559 16.0006 134.611 15.9503 134.659 15.8991C134.194 15.8875 133.728 15.8887 133.263 15.89ZM132.433 17.423C132.561 17.2319 132.692 17.0379 132.889 16.9134C132.897 16.9074 132.91 16.8978 132.921 16.8893C132.926 16.8852 132.931 16.8813 132.935 16.8783C132.953 17.8587 132.947 18.8406 132.939 19.821C132.932 19.8169 132.922 19.8105 132.913 19.8043C132.904 19.7986 132.895 19.7931 132.889 19.7895C132.806 19.7375 132.725 19.679 132.645 19.6203C132.463 19.4875 132.28 19.3544 132.06 19.2979C131.869 19.2522 131.675 19.2293 131.481 19.2064C131.401 19.1969 131.321 19.1875 131.241 19.1764C131.441 18.8343 131.671 18.5123 131.901 18.1904C132.05 17.9812 132.199 17.7719 132.341 17.5571C132.372 17.5132 132.402 17.4682 132.433 17.423ZM137.926 15.8879C137.599 15.8821 137.269 15.8763 136.962 16.0059C137.145 16.0824 137.33 16.1562 137.515 16.2305C137.527 16.5424 137.476 16.8542 137.365 17.1461C137.064 17.995 136.786 18.8517 136.508 19.7082C136.26 20.471 136.012 21.2337 135.749 21.9907C135.631 22.3525 135.298 22.5081 134.981 22.6564C134.911 22.6892 134.842 22.7216 134.775 22.7558C135.53 22.7879 136.287 22.7901 137.043 22.7518C136.85 22.6339 136.656 22.5201 136.462 22.4088C136.464 22.2162 136.448 22.0191 136.501 21.8323C136.733 21.0871 136.983 20.3476 137.233 19.608C137.549 18.6701 137.866 17.7322 138.146 16.7826C138.281 16.8613 138.41 16.9574 138.51 17.0811C138.751 17.362 138.99 17.6453 139.228 17.9286C139.667 18.4493 140.105 18.9699 140.561 19.4749C140.671 19.6026 140.781 19.7325 140.861 19.8824C140.877 20.1695 140.783 20.4385 140.689 20.7059C140.655 20.8015 140.622 20.8969 140.593 20.9928C140.542 21.1322 140.498 21.2748 140.454 21.4174C140.365 21.7087 140.275 22.0001 140.122 22.2638C139.973 22.5202 139.685 22.6062 139.421 22.6852L139.368 22.7011V22.7812C139.644 22.7742 139.92 22.7756 140.197 22.7769C140.611 22.7789 141.026 22.7808 141.44 22.7549C141.389 22.7186 141.331 22.6885 141.274 22.6584C141.155 22.596 141.035 22.5333 140.967 22.4142C140.93 22.0754 141.04 21.7538 141.149 21.437C141.181 21.3448 141.213 21.2531 141.24 21.1614C141.455 20.5201 141.665 19.8768 141.874 19.2336C142.158 18.3613 142.443 17.4891 142.74 16.6216C142.837 16.2849 143.163 16.1771 143.463 16.0775C143.53 16.0552 143.596 16.0333 143.658 16.0094C143.546 15.9276 143.414 15.8795 143.276 15.8911C142.946 15.8859 142.616 15.8879 142.286 15.8899C142.026 15.8915 141.766 15.8931 141.506 15.8911L141.508 16.057C141.715 16.1198 141.917 16.1963 142.112 16.2897C141.911 17.0202 141.668 17.736 141.412 18.4477C141.175 18.2044 140.953 17.9463 140.732 17.6882C140.541 17.4656 140.35 17.243 140.149 17.03C139.915 16.7804 139.683 16.5206 139.549 16.1994C139.662 16.0957 139.779 15.9992 139.902 15.908C139.51 15.8853 139.116 15.8876 138.724 15.89C138.524 15.8911 138.325 15.8923 138.126 15.8902C138.06 15.8902 137.993 15.889 137.926 15.8879ZM145.284 15.8883C144.932 15.8801 144.578 15.8719 144.248 16.0117C144.283 16.0224 144.33 16.0367 144.38 16.052C144.47 16.0794 144.572 16.11 144.634 16.1291L144.648 16.1449C144.731 16.2376 144.815 16.3311 144.898 16.4263C144.835 16.81 144.709 17.1765 144.584 17.5431C144.537 17.6788 144.491 17.8146 144.448 17.9513C144.292 18.4272 144.136 18.9027 143.98 19.3782C143.734 20.1237 143.489 20.8691 143.248 21.6161C143.136 22.0979 142.816 22.5579 142.288 22.5921L142.291 22.7803C142.933 22.7747 143.576 22.7754 144.218 22.776C144.54 22.7764 144.861 22.7767 145.182 22.7763C145.279 22.7757 145.376 22.7766 145.473 22.7775C145.86 22.7813 146.249 22.785 146.627 22.6904C147.777 22.4395 148.751 21.6268 149.37 20.6311C149.877 19.7401 150.194 18.6413 149.879 17.6287C149.654 16.8556 149.011 16.2359 148.24 16.0437C147.589 15.8784 146.918 15.8845 146.249 15.8906C146.042 15.8925 145.834 15.8944 145.627 15.8911C145.514 15.8936 145.399 15.8909 145.284 15.8883ZM145.428 18.5398C145.574 18.0941 145.72 17.6485 145.866 17.203C146.012 16.7279 146.481 16.3658 146.98 16.4192C148.133 16.4774 149.002 17.7631 148.784 18.885C148.578 19.9122 148.063 20.9012 147.218 21.5276C146.455 22.0952 145.447 22.5214 144.502 22.198L144.433 22.1025C144.389 22.0418 144.34 21.9748 144.31 21.9337C144.688 20.8046 145.058 19.6722 145.428 18.5398ZM156.502 15.8875C156.259 15.8773 156.023 15.9307 155.794 16.0023C155.894 16.0413 155.996 16.0811 156.098 16.121C156.185 16.1553 156.273 16.1897 156.359 16.2234C156.376 16.4863 156.381 16.7555 156.287 17.0068C156.136 17.462 155.984 17.9168 155.832 18.3717C155.46 19.4816 155.088 20.5918 154.733 21.7082L154.727 21.7256C154.629 22.0182 154.521 22.3415 154.247 22.5134C154.122 22.5811 153.989 22.6286 153.856 22.676C153.782 22.7026 153.707 22.7292 153.634 22.7594C154.538 22.7901 155.443 22.7803 156.347 22.7638C156.05 22.6388 155.647 22.46 155.77 22.0512C155.998 21.2598 156.254 20.4701 156.545 19.7005L156.74 19.6413C158.03 19.2505 159.373 18.8438 160.396 17.9135C160.773 17.5585 161.169 17.0388 161.009 16.4881C160.849 16.0206 160.316 15.9013 159.885 15.8933C159.305 15.8881 158.724 15.889 158.144 15.89C157.597 15.8909 157.049 15.8919 156.502 15.8875ZM157.326 17.249C157.405 17.0181 157.49 16.7671 157.724 16.6576C158.348 16.3386 159.072 16.4387 159.705 16.6785C159.784 17.0558 159.754 17.4762 159.458 17.752C158.731 18.4967 157.712 18.8428 156.736 19.1057C156.842 18.7185 156.968 18.3383 157.094 17.9582C157.164 17.747 157.234 17.5359 157.3 17.3236C157.309 17.2991 157.317 17.2742 157.326 17.249ZM178.972 15.8915C178.152 15.9015 177.332 15.9115 176.517 15.8186C176.07 16.4636 175.711 17.187 175.365 17.8988C175.56 17.7626 175.722 17.589 175.884 17.4154C176.079 17.2073 176.273 16.9993 176.522 16.8565C176.992 16.5471 177.557 16.4985 178.102 16.4515C178.16 16.4466 178.216 16.4417 178.273 16.4365C177.988 17.3734 177.68 18.3028 177.371 19.2323C177.186 19.7905 177.001 20.3488 176.821 20.9088C176.777 21.0347 176.738 21.1621 176.698 21.2896C176.603 21.5921 176.509 21.8947 176.364 22.1779C176.236 22.4192 175.991 22.5287 175.751 22.636C175.664 22.6749 175.577 22.7135 175.497 22.7581C176.392 22.7843 177.288 22.7959 178.183 22.7492C178 22.6317 177.816 22.5196 177.63 22.4088C177.664 22.0116 177.794 21.6384 177.924 21.2658C177.971 21.1284 178.019 20.9911 178.062 20.8527C178.246 20.2806 178.435 19.7102 178.624 19.1397C178.922 18.24 179.219 17.3403 179.499 16.4343C179.555 16.4406 179.612 16.4465 179.67 16.4525C180.193 16.5063 180.762 16.565 181.12 16.9944C181.308 17.2015 181.344 17.476 181.379 17.746C181.391 17.8338 181.402 17.9212 181.419 18.0056C181.581 17.5471 181.619 17.0595 181.657 16.5725C181.678 16.3071 181.698 16.0419 181.739 15.7817C181.384 15.9064 181.012 15.8997 180.642 15.8931C180.521 15.8909 180.4 15.8887 180.281 15.8911C179.845 15.8809 179.409 15.8862 178.972 15.8915Z"
        fill="#2E3192"
      />
      <path
        fill-rule="evenodd"
        clip-rule="evenodd"
        d="M58.2542 0.0182813C70.3709 0.0182813 82.4891 0.00389477 94.6073 0.0259541C83.7844 2.1633 72.9514 4.24695 62.1275 6.37471C60.837 4.25366 59.5432 2.13933 58.2542 0.0182813Z"
        fill="#ED1C24"
      />
      <path
        d="M2.34975 1.4589C1.73929 1.35676 1.13937 1.21673 0.547607 1.03882C1.05209 1.22153 1.57864 1.33134 2.08456 1.51022C2.35934 1.63921 2.64659 1.73704 2.93768 1.82336C3.3688 2.03292 3.83012 2.16672 4.28569 2.31346C4.60124 2.46883 4.93404 2.58441 5.27021 2.68271C5.58575 2.83713 5.91712 2.95366 6.25472 3.05101C6.56883 3.20542 6.90068 3.3186 7.23444 3.4217C7.35864 3.46438 7.48237 3.50514 7.60753 3.54446C7.92211 3.69936 8.25444 3.81301 8.58965 3.91132C8.90279 4.06861 9.2356 4.18034 9.57081 4.28249C9.69357 4.32373 9.81633 4.36449 9.94006 4.40381C10.2532 4.55871 10.5846 4.67236 10.9212 4.77067C11.2344 4.92556 11.5643 5.0397 11.8995 5.13896C12.1009 5.23008 12.3033 5.32119 12.5133 5.39073C12.7574 5.47033 13.002 5.55138 13.2485 5.6281C13.564 5.78492 13.8992 5.89905 14.2368 5.99975C14.55 6.15321 14.8813 6.2683 15.218 6.36661C15.5311 6.5215 15.8635 6.63564 16.1977 6.73778C16.3205 6.77902 16.4442 6.81978 16.5684 6.85911C16.7684 6.94974 16.9698 7.04086 17.1784 7.11135C17.3026 7.15019 17.4277 7.18904 17.5515 7.22596C17.8636 7.38229 18.195 7.49499 18.5288 7.5933C18.9599 7.8043 19.4212 7.93665 19.8768 8.08196C20.1933 8.24021 20.5275 8.35434 20.8661 8.45361C21.1793 8.6085 21.5106 8.72359 21.8458 8.82094C22.1604 8.9768 22.4927 9.08949 22.8279 9.19307C22.9507 9.23431 23.0735 9.27507 23.1986 9.3144C23.5103 9.46785 23.8407 9.58199 24.175 9.68029C24.4901 9.83615 24.8243 9.95028 25.1605 10.0495C25.5916 10.2582 26.052 10.3919 26.507 10.5387C26.8216 10.6941 27.1554 10.8096 27.492 10.9089C27.8061 11.0638 28.1375 11.1779 28.4727 11.2762C28.9038 11.4848 29.3652 11.6196 29.8207 11.7663C30.1372 11.9217 30.47 12.0373 30.8091 12.1365C31.2373 12.348 31.6991 12.4789 32.1533 12.6257C32.4688 12.7811 32.8016 12.8966 33.1392 12.9959C33.3392 13.0861 33.5392 13.1781 33.7492 13.2477C33.8729 13.2884 33.9986 13.3263 34.1247 13.3632C34.5534 13.5771 35.0147 13.7066 35.4689 13.8543C35.6717 13.944 35.8731 14.0394 36.0841 14.1089L36.1354 14.1248C36.2424 14.1579 36.3493 14.1909 36.4572 14.2235C36.7689 14.3799 37.1008 14.4926 37.436 14.5909C37.8666 14.8033 38.3308 14.9357 38.7873 15.0819C39.1005 15.2378 39.4309 15.3505 39.7656 15.4502C40.0812 15.6046 40.414 15.7202 40.7516 15.8185C41.0662 15.9744 41.3975 16.0885 41.7327 16.1907C41.8555 16.2319 41.9792 16.2727 42.1034 16.312C42.4166 16.4654 42.7465 16.5796 43.0803 16.6779C43.3958 16.8337 43.7301 16.9479 44.0677 17.0471C44.3818 17.2035 44.7146 17.3162 45.0507 17.4183C45.1725 17.4595 45.2953 17.5003 45.4181 17.5396C45.7322 17.6945 46.065 17.8082 46.4011 17.9079C46.7143 18.0628 47.0447 18.1755 47.3799 18.2738C47.694 18.4273 48.0268 18.5424 48.3606 18.6459C48.4848 18.6872 48.6085 18.7279 48.7327 18.7673C49.0459 18.9222 49.3772 19.0349 49.7124 19.1332C50.0265 19.289 50.3579 19.4032 50.6945 19.5015C51.0087 19.6559 51.3415 19.7691 51.6767 19.8736C51.7994 19.9148 51.9232 19.9556 52.0483 19.9949C52.3615 20.1484 52.6919 20.2635 53.028 20.3608C53.3421 20.5181 53.6749 20.6294 54.0116 20.7329C54.1329 20.7742 54.2557 20.8149 54.3799 20.8543C54.693 21.0092 55.023 21.1219 55.3567 21.2202L55.3791 21.2303C55.5731 21.3181 55.7674 21.406 55.9705 21.4748C56.0947 21.5136 56.2199 21.5515 56.3465 21.5894C56.7738 21.8023 57.2351 21.9318 57.6883 22.0786C58.0024 22.2339 58.3352 22.3481 58.6704 22.4488C58.8728 22.5375 59.0742 22.6296 59.2852 22.7025C59.4094 22.7413 59.5336 22.7792 59.6597 22.8171C59.8587 22.9091 60.0587 22.9993 60.2687 23.0688C60.3901 23.1105 60.5143 23.1499 60.6394 23.1868C60.7612 23.2295 60.885 23.2702 61.0092 23.3096C61.3247 23.4645 61.6561 23.5781 61.9922 23.6764C62.3054 23.8337 62.6368 23.9493 62.9758 24.0375L62.9827 24.0407C63.2519 24.1663 63.5277 24.2949 63.7455 24.5065L63.4913 24.2317L63.9445 24.2854C63.7551 24.1847 63.5244 24.0989 63.5095 23.851L63.4645 23.8572C63.3492 23.5986 63.2257 23.3437 63.1025 23.0893L63.0938 23.0712C62.9657 22.8689 62.8358 22.6684 62.7154 22.4636C62.6382 22.2982 62.561 22.1332 62.4785 21.9711C62.2709 21.5491 62.0661 21.1228 61.7947 20.7349L61.7934 20.7322C61.6725 20.4876 61.5511 20.242 61.4326 19.9964C61.3698 19.8769 61.3074 19.759 61.2461 19.641C61.165 19.4746 61.0849 19.3087 61.0053 19.1428C60.8787 18.9404 60.7502 18.7414 60.6284 18.5376C60.6001 18.4762 60.544 18.352 60.5157 18.2911C60.4332 18.1252 60.3484 17.9607 60.2663 17.7971C60.1081 17.4523 59.9225 17.121 59.7091 16.8078C59.6084 16.6055 59.5101 16.4026 59.4094 16.2012C59.3375 16.0582 59.2648 15.9163 59.1921 15.7742L59.16 15.7116C59.079 15.5447 58.9979 15.3802 58.9183 15.2138C58.8167 15.0474 58.7073 14.8877 58.6042 14.7232C58.5452 14.6019 58.4848 14.4801 58.4263 14.3588C58.3448 14.1957 58.2614 14.0332 58.1794 13.8701C58.0983 13.7047 58.0158 13.5387 57.9362 13.3728C57.7396 13.0846 57.6111 12.6871 57.2241 12.6242C57.0572 12.582 56.8903 12.5456 56.7234 12.5077C56.522 12.4559 56.3168 12.4228 56.1144 12.3869C55.912 12.3341 55.7058 12.3001 55.5006 12.2641C55.3001 12.2118 55.0958 12.1765 54.8923 12.1413L54.8868 12.1404C54.6911 12.0903 54.4914 12.0555 54.2946 12.0211L54.2744 12.0176C54.0774 11.9676 53.8778 11.9327 53.6811 11.8984L53.6606 11.8949C53.4577 11.8433 53.2535 11.8079 53.0498 11.7726L53.0467 11.7721C52.8561 11.7225 52.6625 11.689 52.47 11.6557L52.4329 11.6493C52.2423 11.5998 52.0487 11.5663 51.8562 11.533L51.8191 11.5266C51.6285 11.477 51.4349 11.4435 51.2423 11.4102L51.2053 11.4038C51.0039 11.3486 50.7976 11.3141 50.5924 11.2801C50.391 11.2259 50.1838 11.1914 49.9786 11.1573C49.7762 11.1012 49.5686 11.0686 49.3609 11.0398C49.2024 10.9904 49.0411 10.9518 48.881 10.9136L48.8675 10.9103C48.6661 10.8585 48.4598 10.8269 48.256 10.7924C48.0537 10.7382 47.8484 10.7041 47.6437 10.6682C47.4413 10.6145 47.2346 10.5814 47.0298 10.5444C46.8275 10.4927 46.6208 10.4586 46.416 10.4217C46.2146 10.3701 46.0104 10.3347 45.8066 10.2994L45.8036 10.2989C45.6048 10.2484 45.4036 10.2134 45.2047 10.1787L45.1898 10.1761C44.9896 10.1241 44.7862 10.0893 44.5841 10.0548L44.576 10.0534C44.3854 10.0038 44.1918 9.97034 43.9992 9.93704L43.9622 9.93062C43.7607 9.87643 43.5545 9.84286 43.3493 9.8069C43.1469 9.75271 42.9407 9.71818 42.7355 9.68413C42.5367 9.62877 42.331 9.59815 42.1275 9.56786L42.1192 9.56664C41.9562 9.51677 41.7903 9.47744 41.6258 9.4386C41.4365 9.39026 41.2455 9.35822 41.054 9.32609L41.0129 9.31919C40.812 9.26501 40.6053 9.23096 40.4005 9.19499C40.1982 9.14224 39.9905 9.10819 39.7853 9.07223C39.5829 9.01948 39.3781 8.98399 39.1729 8.9485C38.9705 8.89671 38.7643 8.86266 38.5591 8.82574C38.3567 8.77395 38.1505 8.7399 37.9453 8.70297C37.7558 8.65337 37.5622 8.61988 37.3695 8.58655L37.3329 8.58021C37.1327 8.52815 36.9293 8.49338 36.7272 8.45883L36.719 8.45744C36.5284 8.40788 36.3349 8.3744 36.1423 8.3411L36.1052 8.33468C35.9038 8.28049 35.6976 8.24692 35.4924 8.21096C35.2909 8.15677 35.0847 8.12224 34.88 8.08819C34.6771 8.03208 34.47 7.99947 34.2638 7.9707C34.0993 7.92083 33.9333 7.88151 33.7674 7.84266C33.5665 7.79087 33.3612 7.75778 33.1574 7.72325C32.9551 7.66906 32.7489 7.63502 32.5436 7.59905C32.3412 7.5463 32.135 7.51225 31.9298 7.47629C31.7383 7.42546 31.5433 7.39181 31.349 7.35827L31.316 7.35256C31.1136 7.30077 30.9074 7.26672 30.7021 7.2298C30.4998 7.17801 30.2945 7.14396 30.0898 7.10703C29.8992 7.05747 29.7056 7.02399 29.513 6.99069L29.4759 6.98427C29.2758 6.93222 29.0723 6.89744 28.8703 6.8629L28.8621 6.8615C28.6715 6.81194 28.4779 6.77846 28.2854 6.74516L28.2483 6.73874C28.0469 6.68455 27.8407 6.65098 27.6354 6.61502C27.434 6.56083 27.2278 6.5263 27.023 6.49225C26.8229 6.4369 26.6172 6.40628 26.4137 6.376L26.4054 6.37476C26.2419 6.32489 26.0764 6.28557 25.9119 6.24672C25.7096 6.19493 25.5043 6.16184 25.3005 6.12731C25.0981 6.07313 24.8919 6.03908 24.6867 6.00311C24.4843 5.95036 24.2781 5.91631 24.0729 5.88035C23.8705 5.82664 23.6643 5.79211 23.4605 5.75662C23.2576 5.70483 23.0514 5.66934 22.8466 5.63482C22.6466 5.58279 22.4433 5.54756 22.2413 5.51256L22.2328 5.51109C22.0327 5.45904 21.8292 5.42427 21.6271 5.38972L21.619 5.38833C21.4161 5.33558 21.2099 5.30105 21.0052 5.26556C20.8023 5.21281 20.5961 5.17829 20.3914 5.1428C20.1899 5.08861 19.9837 5.05504 19.7785 5.01908C19.5771 4.96489 19.3709 4.93036 19.1647 4.89631C18.9633 4.8402 18.7561 4.8076 18.5484 4.77882C18.3854 4.72895 18.2195 4.68963 18.055 4.65078C17.8536 4.59755 17.6474 4.5659 17.4421 4.53137C17.2412 4.47719 17.035 4.44314 16.8297 4.40717C16.6274 4.35442 16.4212 4.32037 16.2145 4.28441C16.0235 4.23337 15.8287 4.19965 15.6341 4.16597L15.6035 4.16068C15.4007 4.10889 15.1945 4.07484 14.9897 4.03792C14.7859 3.98613 14.5792 3.95208 14.3744 3.91515C14.1757 3.86309 13.9722 3.82832 13.7701 3.79376L13.7621 3.79239C13.5667 3.74159 13.3696 3.70769 13.1711 3.67356L13.1482 3.66963C12.9545 3.61925 12.7591 3.5855 12.5631 3.55166L12.5354 3.54686C12.333 3.49171 12.1278 3.45718 11.9216 3.42314C11.7201 3.36895 11.5139 3.33442 11.3077 3.30037C11.109 3.24501 10.9033 3.21439 10.6997 3.18411L10.6915 3.18288C10.5285 3.13301 10.3625 3.09273 10.1966 3.0534C9.99521 3.00161 9.79044 2.96996 9.58663 2.93544C9.38426 2.88125 9.17758 2.8472 8.97281 2.81123C8.77044 2.75848 8.56375 2.72443 8.35898 2.68847C8.15661 2.63572 7.95137 2.60167 7.74516 2.5657C7.54649 2.51367 7.34315 2.47843 7.14114 2.44343L7.13278 2.44198C6.92993 2.39019 6.72372 2.35614 6.51752 2.31921C6.3161 2.26646 6.1099 2.23194 5.90513 2.19645C5.70228 2.1437 5.49608 2.10917 5.29131 2.07369C5.08846 2.02093 4.88369 1.98641 4.67844 1.95092C4.47703 1.89577 4.27083 1.86125 4.06606 1.82816C3.86321 1.77301 3.657 1.73848 3.4508 1.70443C3.24939 1.64833 3.04222 1.61572 2.83458 1.58694C2.67489 1.53707 2.51184 1.49775 2.34975 1.4589Z"
        fill="#BCBDC0"
      />
      <path
        d="M90.3302 1.77876C89.8454 1.89913 89.3515 1.97298 88.8633 2.07369C88.6542 2.10869 88.4456 2.13986 88.2442 2.20268C87.9977 2.23146 87.7508 2.25543 87.51 2.31826C87.3029 2.35614 87.0966 2.39163 86.8938 2.4463L86.8509 2.45119C86.6139 2.47817 86.377 2.50514 86.1486 2.57433C85.821 2.60886 85.4945 2.64099 85.1693 2.68655C85.6566 2.66113 86.1452 2.64195 86.6324 2.66881C87.0803 2.80788 87.5997 2.8189 88.0111 2.56474C88.1354 2.49761 88.2591 2.42855 88.3866 2.36094C89.0216 2.12404 89.6781 1.95715 90.3302 1.77876Z"
        fill="#BCBDC0"
      />
      <path
        d="M81.2015 3.58379C81.0088 3.57995 80.8184 3.60728 80.6381 3.66963C80.4304 3.70655 80.2252 3.73964 80.0243 3.79335C79.818 3.82931 79.6114 3.86336 79.4104 3.91611L79.3634 3.92428C79.1727 3.95736 78.9837 3.99013 78.7976 4.03888C78.5914 4.07484 78.3852 4.10889 78.1837 4.16068L78.1597 4.165C77.9567 4.20141 77.754 4.23777 77.5575 4.29544C77.2055 4.3338 76.853 4.36449 76.5044 4.41101C78.8076 4.32757 81.1152 4.40381 83.4199 4.37073C83.5734 4.36545 83.7072 4.27578 83.8506 4.22446C83.9671 4.15685 84.0851 4.09067 84.204 4.02449C84.3699 3.9468 84.5344 3.8672 84.7013 3.78759C84.8313 3.74587 84.9617 3.70032 85.0931 3.65236C85.2945 3.6303 85.4945 3.60728 85.6983 3.58235C84.324 3.58894 82.9498 3.58667 81.5759 3.5844L81.2015 3.58379Z"
        fill="#BCBDC0"
      />
      <path
        d="M72.608 5.2953C72.4138 5.2905 72.2234 5.32215 72.0431 5.38929C71.8369 5.42382 71.6307 5.45834 71.4293 5.51013C71.2231 5.54658 71.0169 5.58111 70.8155 5.63386C70.6093 5.67078 70.404 5.70483 70.2031 5.75662C69.9969 5.79355 69.7902 5.8276 69.5893 5.88083L69.5588 5.88608C69.3639 5.91973 69.1704 5.95314 68.9812 6.00647C68.6537 6.07696 68.3247 6.13595 67.9895 6.13451C69.8554 6.26734 71.729 6.15561 73.5988 6.19062C74.156 6.15465 74.7377 6.27741 75.2791 6.10669C76.8861 6.0784 78.4955 6.10142 80.1039 6.09518C80.2832 6.09854 80.465 6.06833 80.6405 6.01942C80.9584 5.78156 81.319 5.60748 81.6408 5.37107C81.8005 5.34757 81.9602 5.32311 82.1223 5.29626C78.951 5.2953 75.7788 5.29865 72.608 5.2953Z"
        fill="#BCBDC0"
      />
      <path
        d="M64.5041 7.03222C64.1152 7.04086 63.7162 6.99146 63.3369 7.10464C63.1302 7.17561 62.9254 7.28015 62.7005 7.23459C62.9413 7.39812 63.0602 7.6777 63.1993 7.92466C67.8533 7.9309 72.5073 7.92466 77.1613 7.92706C77.3551 7.94049 77.533 7.85705 77.7123 7.79327C78.0648 7.54774 78.4441 7.34249 78.8076 7.11183C78.881 7.10943 79.0258 7.1032 79.0997 7.09984C78.2916 6.98427 77.4754 7.04805 76.6626 7.03318C72.6104 7.03222 68.5578 7.03318 64.5041 7.03222Z"
        fill="#BCBDC0"
      />
      <path
        d="M76.4444 8.78258C72.1558 8.73798 67.8667 8.76052 63.5786 8.74949C63.6155 8.83053 63.6879 8.99262 63.7234 9.07366C63.7455 9.28035 63.7431 9.61795 64.0203 9.63234C67.6826 9.64097 71.3459 9.6357 75.0077 9.6333C75.1611 9.49087 75.3175 9.34749 75.4954 9.23335C75.6105 9.15087 75.7285 9.06887 75.8464 8.98878C76.043 8.91541 76.2392 8.83533 76.4444 8.78258Z"
        fill="#BCBDC0"
      />
      <path
        d="M73.8342 10.591C70.4803 10.5727 67.1263 10.5886 63.7723 10.5838C63.7344 10.8955 63.6289 11.1933 63.4961 11.4762C66.5619 11.4594 69.6281 11.4762 72.6939 11.4676L72.7152 11.4461C72.8923 11.2675 73.0707 11.0875 73.2832 10.9506C73.4659 10.8303 73.6501 10.7128 73.8342 10.591Z"
        fill="#BCBDC0"
      />
      <path
        d="M64.0193 12.3207C63.5872 12.338 63.1331 12.2483 62.7279 12.4387C62.5289 12.5566 62.3241 12.6631 62.1188 12.7676C61.9889 12.8031 61.8599 12.8439 61.7323 12.888C61.4767 12.9163 61.2192 12.936 60.9761 13.017C60.2898 13.0683 59.6022 13.0117 58.9174 13.0424C59.138 13.1076 59.3576 13.1973 59.5959 13.1882C63.3906 13.1887 67.1867 13.1863 70.9814 13.1882C71.3286 12.9053 71.5679 12.3921 72.058 12.3595C69.3802 12.2727 66.6981 12.3442 64.0193 12.3207Z"
        fill="#BCBDC0"
      />
      <path
        d="M69.5485 14.0394C66.2118 14.0375 62.8765 14.0456 59.5394 14.0346L59.5671 14.0707C59.6665 14.1998 59.7665 14.3297 59.8573 14.4657C59.9532 14.6153 59.9863 14.9112 60.2174 14.9035C63.2324 14.9112 66.2463 14.9035 69.2613 14.9069L69.2617 14.9065C69.4946 14.6716 69.728 14.4363 69.9633 14.2039C70.053 14.1612 70.1465 14.1252 70.2434 14.0974C70.0113 14.0691 69.7806 14.0346 69.5485 14.0394Z"
        fill="#BCBDC0"
      />
      <path
        d="M60.5819 15.7715C60.4615 15.9154 60.6802 16.0588 60.7195 16.1988C60.8212 16.3393 60.9109 16.4875 60.9761 16.6481C63.2434 16.6592 65.5107 16.6419 67.7785 16.6582C67.8685 16.5473 67.9575 16.4363 68.0466 16.3254L68.0485 16.323C68.1712 16.1067 68.3492 15.9327 68.5199 15.7562C65.8728 15.7715 63.2261 15.7375 60.5819 15.7715Z"
        fill="#BCBDC0"
      />
      <path
        d="M67.2922 17.4749C65.3203 17.4806 63.3503 17.4749 61.3799 17.4768C61.4398 17.624 61.5036 17.7727 61.5616 17.9213C61.6561 18.071 61.7295 18.2379 61.8599 18.3635C63.4227 18.3865 64.9865 18.3573 66.5508 18.3769C66.64 18.2652 66.7311 18.1549 66.8208 18.0417C66.9436 17.8254 67.1215 17.6514 67.2922 17.4749Z"
        fill="#BCBDC0"
      />
      <path
        d="M66.1897 19.2924C64.9069 19.3072 63.6242 19.2986 62.3409 19.2977C62.3792 19.3763 62.455 19.5331 62.4934 19.6132C62.561 19.7714 62.6296 19.9287 62.6957 20.0894C63.699 20.0884 64.7031 20.0937 65.7073 20.0856C65.7797 19.9287 65.8632 19.7767 65.9538 19.6281C66.0301 19.5149 66.1087 19.4032 66.1897 19.2924Z"
        fill="#BCBDC0"
      />
      <path
        d="M65.468 21.1228C64.6907 21.1132 63.9052 21.1952 63.1355 21.0758C63.253 21.1449 63.3599 21.2322 63.4338 21.3501C63.5599 21.5405 63.6558 21.7563 63.828 21.9122C64.2562 21.9395 64.6868 21.916 65.118 21.9208C65.1462 21.7688 65.1755 21.6153 65.2076 21.4633C65.2847 21.3566 65.3658 21.2531 65.4476 21.1488L65.468 21.1228Z"
        fill="#BCBDC0"
      />
      <path
        d="M64.8096 22.7437C64.5583 22.7595 64.3075 22.7801 64.0586 22.8036C64.2106 22.9365 64.3838 23.064 64.3996 23.2856L64.519 23.2664C64.5032 23.334 64.4696 23.4697 64.4528 23.5364L64.6221 23.5023C64.6144 23.5834 64.6 23.744 64.5914 23.8251C64.6087 23.8265 64.6427 23.828 64.66 23.828C64.6614 23.6668 64.6662 23.5071 64.6734 23.3474C64.7433 23.1531 64.7764 22.9488 64.8094 22.7449L64.8096 22.7437Z"
        fill="#BCBDC0"
      />
    </svg>