<svg width="141" height="102" viewBox="0 0 141 102" fill="none" xmlns="http://www.w3.org/2000/svg">
<g filter="url(#filter0_d_7427_137934)">
<rect x="4" y="4" width="133" height="94" rx="4" fill="white"/>
</g>
<path d="M58.13 77.15C57.4367 77.15 56.81 77 56.25 76.7C55.69 76.3933 55.25 75.9633 54.93 75.41C54.61 74.8567 54.45 74.2233 54.45 73.51C54.45 72.7967 54.61 72.1633 54.93 71.61C55.25 71.0567 55.69 70.6267 56.25 70.32C56.81 70.0133 57.4367 69.86 58.13 69.86C58.8233 69.86 59.45 70.0133 60.01 70.32C60.57 70.6267 61.01 71.0567 61.33 71.61C61.65 72.1633 61.81 72.7967 61.81 73.51C61.81 74.2233 61.65 74.8567 61.33 75.41C61.01 75.9633 60.57 76.3933 60.01 76.7C59.45 77 58.8233 77.15 58.13 77.15ZM58.13 76.23C58.6233 76.23 59.07 76.12 59.47 75.9C59.8767 75.6733 60.1967 75.3567 60.43 74.95C60.6633 74.5367 60.78 74.0567 60.78 73.51C60.78 72.97 60.6633 72.4967 60.43 72.09C60.2033 71.6767 59.89 71.36 59.49 71.14C59.09 70.9133 58.6433 70.8 58.15 70.8C57.65 70.8 57.1967 70.91 56.79 71.13C56.39 71.35 56.07 71.6667 55.83 72.08C55.5967 72.4933 55.48 72.97 55.48 73.51C55.48 74.0567 55.5967 74.5367 55.83 74.95C56.0633 75.3567 56.38 75.6733 56.78 75.9C57.1867 76.12 57.6367 76.23 58.13 76.23ZM63.0952 72.98H62.3652V72.2H63.0952V71.26C63.0952 70.7067 63.2519 70.2867 63.5652 70C63.8786 69.7067 64.2986 69.56 64.8252 69.56C65.0986 69.56 65.3552 69.6 65.5952 69.68V70.52C65.4086 70.4333 65.2152 70.39 65.0152 70.39C64.7019 70.39 64.4719 70.4667 64.3252 70.62C64.1786 70.7667 64.1052 71 64.1052 71.32V72.2H65.3052V72.98H64.1052V77H63.0952V72.98ZM71.3018 71.11L69.7918 72.2V71.23L71.4418 70.01H72.3218V77H71.3018V71.11ZM76.3346 77.15C75.7346 77.15 75.2146 77.0033 74.7746 76.71C74.3413 76.4167 74.0079 75.9967 73.7746 75.45C73.5413 74.9033 73.4246 74.2567 73.4246 73.51C73.4246 72.7633 73.5379 72.1167 73.7646 71.57C73.9979 71.0167 74.3313 70.5933 74.7646 70.3C75.2046 70.0067 75.7279 69.86 76.3346 69.86C76.9413 69.86 77.4613 70.0067 77.8946 70.3C78.3346 70.5933 78.6679 71.0167 78.8946 71.57C79.1279 72.1167 79.2446 72.7633 79.2446 73.51C79.2446 74.2567 79.1279 74.9033 78.8946 75.45C78.6613 75.9967 78.3246 76.4167 77.8846 76.71C77.4513 77.0033 76.9346 77.15 76.3346 77.15ZM76.3346 76.25C76.9279 76.25 77.3913 76.0067 77.7246 75.52C78.0646 75.0267 78.2346 74.36 78.2346 73.52C78.2346 72.68 78.0679 72.0133 77.7346 71.52C77.4013 71.0267 76.9346 70.78 76.3346 70.78C75.7346 70.78 75.2679 71.0267 74.9346 71.52C74.6013 72.0133 74.4346 72.68 74.4346 73.52C74.4346 74.36 74.6013 75.0267 74.9346 75.52C75.2746 76.0067 75.7413 76.25 76.3346 76.25Z" fill="#484B52"/>
<path d="M102 64H120C121.105 64 122 64.8954 122 66V82C122 83.1046 121.105 84 120 84H102V64Z" fill="#2EC639"/>
<path d="M110 78L114 74L110 70" stroke="white" stroke-linecap="round"/>
<path d="M102 84H84C82.8954 84 82 83.1046 82 82V66C82 64.8954 82.8954 64 84 64H102V84Z" fill="#E2E3E7"/>
<path d="M94 70L90 74L94 78" stroke="#484B52" stroke-linecap="round"/>
<rect x="20.35" y="64.35" width="27.3" height="19.3" rx="1.65" stroke="#F4F4F9" stroke-width="0.7"/>
<path d="M34.58 78.15C34.1733 78.15 33.7833 78.1167 33.41 78.05C33.0433 77.99 32.7233 77.8967 32.45 77.77V76.93C33.07 77.21 33.7367 77.35 34.45 77.35C35.0633 77.35 35.5167 77.24 35.81 77.02C36.11 76.7933 36.26 76.4733 36.26 76.06C36.26 75.6333 36.1067 75.33 35.8 75.15C35.4933 74.9633 35.0267 74.87 34.4 74.87H33.58V74.05H34.38C34.88 74.05 35.2833 73.95 35.59 73.75C35.8967 73.5433 36.05 73.2433 36.05 72.85C36.05 72.4633 35.9233 72.17 35.67 71.97C35.4167 71.77 35.05 71.67 34.57 71.67C34.1967 71.67 33.86 71.7133 33.56 71.8C33.26 71.8867 32.95 72.03 32.63 72.23V71.39C33.2167 71.0367 33.9033 70.86 34.69 70.86C35.47 70.86 36.0633 71.0333 36.47 71.38C36.8767 71.7267 37.08 72.2067 37.08 72.82C37.08 73.1933 36.98 73.52 36.78 73.8C36.58 74.08 36.28 74.2967 35.88 74.45C36.3333 74.5567 36.68 74.75 36.92 75.03C37.1667 75.31 37.29 75.6633 37.29 76.09C37.29 76.7233 37.0733 77.2267 36.64 77.6C36.2067 77.9667 35.52 78.15 34.58 78.15Z" fill="#484B52"/>
<defs>
<filter id="filter0_d_7427_137934" x="0" y="0" width="141" height="102" filterUnits="userSpaceOnUse" color-interpolation-filters="sRGB">
<feFlood flood-opacity="0" result="BackgroundImageFix"/>
<feColorMatrix in="SourceAlpha" type="matrix" values="0 0 0 0 0 0 0 0 0 0 0 0 0 0 0 0 0 0 127 0" result="hardAlpha"/>
<feOffset/>
<feGaussianBlur stdDeviation="2"/>
<feColorMatrix type="matrix" values="0 0 0 0 0 0 0 0 0 0 0 0 0 0 0 0 0 0 0.1 0"/>
<feBlend mode="normal" in2="BackgroundImageFix" result="effect1_dropShadow_7427_137934"/>
<feBlend mode="normal" in="SourceGraphic" in2="effect1_dropShadow_7427_137934" result="shape"/>
</filter>
</defs>
</svg>
