<svg width="141" height="102" viewBox="0 0 141 102" fill="none" xmlns="http://www.w3.org/2000/svg">
<g filter="url(#filter0_d_7427_137934)">
<rect x="4" y="4" width="133" height="94" rx="4" fill="white"/>
</g>
<rect x="51" y="58" width="20" height="20" rx="2" fill="#484B52"/>
<path d="M40.96 66.11L39.45 67.2V66.23L41.1 65.01H41.98V72H40.96V66.11Z" fill="#484B52"/>
<path d="M58.45 71.33L59.96 69.88C60.0933 69.7467 60.28 69.5733 60.52 69.36C60.9 69.0133 61.19 68.7333 61.39 68.52C61.59 68.3067 61.7533 68.08 61.88 67.84C62.0067 67.5933 62.07 67.33 62.07 67.05C62.07 66.6367 61.95 66.3233 61.71 66.11C61.47 65.89 61.12 65.78 60.66 65.78C60.3467 65.78 60.0233 65.8367 59.69 65.95C59.3633 66.0633 59.0567 66.23 58.77 66.45V65.47C59.33 65.0633 60.0133 64.86 60.82 64.86C61.54 64.86 62.1 65.0533 62.5 65.44C62.9 65.82 63.1 66.34 63.1 67C63.1 67.32 63.03 67.6267 62.89 67.92C62.7567 68.2133 62.5667 68.5033 62.32 68.79C62.0733 69.07 61.74 69.4133 61.32 69.82L59.96 71.15H63.36V72H58.45V71.33Z" fill="white"/>
<path d="M80.58 72.15C80.1733 72.15 79.7833 72.1167 79.41 72.05C79.0433 71.99 78.7233 71.8967 78.45 71.77V70.93C79.07 71.21 79.7367 71.35 80.45 71.35C81.0633 71.35 81.5167 71.24 81.81 71.02C82.11 70.7933 82.26 70.4733 82.26 70.06C82.26 69.6333 82.1067 69.33 81.8 69.15C81.4933 68.9633 81.0267 68.87 80.4 68.87H79.58V68.05H80.38C80.88 68.05 81.2833 67.95 81.59 67.75C81.8967 67.5433 82.05 67.2433 82.05 66.85C82.05 66.4633 81.9233 66.17 81.67 65.97C81.4167 65.77 81.05 65.67 80.57 65.67C80.1967 65.67 79.86 65.7133 79.56 65.8C79.26 65.8867 78.95 66.03 78.63 66.23V65.39C79.2167 65.0367 79.9033 64.86 80.69 64.86C81.47 64.86 82.0633 65.0333 82.47 65.38C82.8767 65.7267 83.08 66.2067 83.08 66.82C83.08 67.1933 82.98 67.52 82.78 67.8C82.58 68.08 82.28 68.2967 81.88 68.45C82.3333 68.5567 82.68 68.75 82.92 69.03C83.1667 69.31 83.29 69.6633 83.29 70.09C83.29 70.7233 83.0733 71.2267 82.64 71.6C82.2067 71.9667 81.52 72.15 80.58 72.15Z" fill="#484B52"/>
<path d="M98.92 72C98.7867 72 98.6733 71.9567 98.58 71.87C98.4933 71.7767 98.45 71.6633 98.45 71.53C98.45 71.3967 98.4933 71.2833 98.58 71.19C98.6733 71.0967 98.7867 71.05 98.92 71.05C99.0533 71.05 99.1667 71.0967 99.26 71.19C99.3533 71.2833 99.4 71.3967 99.4 71.53C99.4 71.6633 99.3533 71.7767 99.26 71.87C99.1667 71.9567 99.0533 72 98.92 72ZM100.766 72C100.632 72 100.519 71.9567 100.426 71.87C100.339 71.7767 100.296 71.6633 100.296 71.53C100.296 71.3967 100.339 71.2833 100.426 71.19C100.519 71.0967 100.632 71.05 100.766 71.05C100.899 71.05 101.012 71.0967 101.106 71.19C101.199 71.2833 101.246 71.3967 101.246 71.53C101.246 71.6633 101.199 71.7767 101.106 71.87C101.012 71.9567 100.899 72 100.766 72ZM102.611 72C102.478 72 102.365 71.9567 102.271 71.87C102.185 71.7767 102.141 71.6633 102.141 71.53C102.141 71.3967 102.185 71.2833 102.271 71.19C102.365 71.0967 102.478 71.05 102.611 71.05C102.745 71.05 102.858 71.0967 102.951 71.19C103.045 71.2833 103.091 71.3967 103.091 71.53C103.091 71.6633 103.045 71.7767 102.951 71.87C102.858 71.9567 102.745 72 102.611 72Z" fill="#484B52"/>
<path d="M119 72L123 68L119 64" stroke="#484B52" stroke-linecap="round"/>
<defs>
<filter id="filter0_d_7427_137934" x="0" y="0" width="141" height="102" filterUnits="userSpaceOnUse" color-interpolation-filters="sRGB">
<feFlood flood-opacity="0" result="BackgroundImageFix"/>
<feColorMatrix in="SourceAlpha" type="matrix" values="0 0 0 0 0 0 0 0 0 0 0 0 0 0 0 0 0 0 127 0" result="hardAlpha"/>
<feOffset/>
<feGaussianBlur stdDeviation="2"/>
<feColorMatrix type="matrix" values="0 0 0 0 0 0 0 0 0 0 0 0 0 0 0 0 0 0 0.1 0"/>
<feBlend mode="normal" in2="BackgroundImageFix" result="effect1_dropShadow_7427_137934"/>
<feBlend mode="normal" in="SourceGraphic" in2="effect1_dropShadow_7427_137934" result="shape"/>
</filter>
</defs>
</svg>
