<svg width="141" height="102" viewBox="0 0 141 102" fill="none" xmlns="http://www.w3.org/2000/svg">
<g filter="url(#filter0_d_7427_137934)">
<rect x="4" y="4" width="133" height="94" rx="4" fill="white"/>
</g>
<rect x="39" y="58" width="63" height="20" fill="#484B52"/>
<path d="M21 58.5H38.5V77.5H21C20.1716 77.5 19.5 76.8284 19.5 76V60C19.5 59.1716 20.1716 58.5 21 58.5Z" fill="#F4F4F9" stroke="#F4F4F9"/>
<path d="M102 58H120C121.105 58 122 58.8954 122 60V76C122 77.1046 121.105 78 120 78H102V58Z" fill="#2EC639"/>
<path d="M54.58 72.15C54.1733 72.15 53.7833 72.1167 53.41 72.05C53.0433 71.99 52.7233 71.8967 52.45 71.77V70.93C53.07 71.21 53.7367 71.35 54.45 71.35C55.0633 71.35 55.5167 71.24 55.81 71.02C56.11 70.7933 56.26 70.4733 56.26 70.06C56.26 69.6333 56.1067 69.33 55.8 69.15C55.4933 68.9633 55.0267 68.87 54.4 68.87H53.58V68.05H54.38C54.88 68.05 55.2833 67.95 55.59 67.75C55.8967 67.5433 56.05 67.2433 56.05 66.85C56.05 66.4633 55.9233 66.17 55.67 65.97C55.4167 65.77 55.05 65.67 54.57 65.67C54.1967 65.67 53.86 65.7133 53.56 65.8C53.26 65.8867 52.95 66.03 52.63 66.23V65.39C53.2167 65.0367 53.9033 64.86 54.69 64.86C55.47 64.86 56.0633 65.0333 56.47 65.38C56.8767 65.7267 57.08 66.2067 57.08 66.82C57.08 67.1933 56.98 67.52 56.78 67.8C56.58 68.08 56.28 68.2967 55.88 68.45C56.3333 68.5567 56.68 68.75 56.92 69.03C57.1667 69.31 57.29 69.6633 57.29 70.09C57.29 70.7233 57.0733 71.2267 56.64 71.6C56.2067 71.9667 55.52 72.15 54.58 72.15ZM65.5734 72.15C64.88 72.15 64.2534 72 63.6934 71.7C63.1334 71.3933 62.6934 70.9633 62.3734 70.41C62.0534 69.8567 61.8934 69.2233 61.8934 68.51C61.8934 67.7967 62.0534 67.1633 62.3734 66.61C62.6934 66.0567 63.1334 65.6267 63.6934 65.32C64.2534 65.0133 64.88 64.86 65.5734 64.86C66.2667 64.86 66.8934 65.0133 67.4534 65.32C68.0134 65.6267 68.4534 66.0567 68.7734 66.61C69.0934 67.1633 69.2534 67.7967 69.2534 68.51C69.2534 69.2233 69.0934 69.8567 68.7734 70.41C68.4534 70.9633 68.0134 71.3933 67.4534 71.7C66.8934 72 66.2667 72.15 65.5734 72.15ZM65.5734 71.23C66.0667 71.23 66.5134 71.12 66.9134 70.9C67.32 70.6733 67.64 70.3567 67.8734 69.95C68.1067 69.5367 68.2234 69.0567 68.2234 68.51C68.2234 67.97 68.1067 67.4967 67.8734 67.09C67.6467 66.6767 67.3334 66.36 66.9334 66.14C66.5334 65.9133 66.0867 65.8 65.5934 65.8C65.0934 65.8 64.64 65.91 64.2334 66.13C63.8334 66.35 63.5134 66.6667 63.2734 67.08C63.04 67.4933 62.9234 67.97 62.9234 68.51C62.9234 69.0567 63.04 69.5367 63.2734 69.95C63.5067 70.3567 63.8234 70.6733 64.2234 70.9C64.63 71.12 65.08 71.23 65.5734 71.23ZM70.3551 65.01H74.9651V65.87H71.3751V68.1H74.0551V68.91H71.3751V72H70.3551V65.01ZM80.8741 66.11L79.3641 67.2V66.23L81.0141 65.01H81.8941V72H80.8741V66.11ZM85.9069 72.15C85.3069 72.15 84.7869 72.0033 84.3469 71.71C83.9135 71.4167 83.5802 70.9967 83.3469 70.45C83.1135 69.9033 82.9969 69.2567 82.9969 68.51C82.9969 67.7633 83.1102 67.1167 83.3369 66.57C83.5702 66.0167 83.9035 65.5933 84.3369 65.3C84.7769 65.0067 85.3002 64.86 85.9069 64.86C86.5135 64.86 87.0335 65.0067 87.4669 65.3C87.9069 65.5933 88.2402 66.0167 88.4669 66.57C88.7002 67.1167 88.8169 67.7633 88.8169 68.51C88.8169 69.2567 88.7002 69.9033 88.4669 70.45C88.2335 70.9967 87.8969 71.4167 87.4569 71.71C87.0235 72.0033 86.5069 72.15 85.9069 72.15ZM85.9069 71.25C86.5002 71.25 86.9635 71.0067 87.2969 70.52C87.6369 70.0267 87.8069 69.36 87.8069 68.52C87.8069 67.68 87.6402 67.0133 87.3069 66.52C86.9735 66.0267 86.5069 65.78 85.9069 65.78C85.3069 65.78 84.8402 66.0267 84.5069 66.52C84.1735 67.0133 84.0069 67.68 84.0069 68.52C84.0069 69.36 84.1735 70.0267 84.5069 70.52C84.8469 71.0067 85.3135 71.25 85.9069 71.25Z" fill="white"/>
<path d="M54.58 72.15C54.1733 72.15 53.7833 72.1167 53.41 72.05C53.0433 71.99 52.7233 71.8967 52.45 71.77V70.93C53.07 71.21 53.7367 71.35 54.45 71.35C55.0633 71.35 55.5167 71.24 55.81 71.02C56.11 70.7933 56.26 70.4733 56.26 70.06C56.26 69.6333 56.1067 69.33 55.8 69.15C55.4933 68.9633 55.0267 68.87 54.4 68.87H53.58V68.05H54.38C54.88 68.05 55.2833 67.95 55.59 67.75C55.8967 67.5433 56.05 67.2433 56.05 66.85C56.05 66.4633 55.9233 66.17 55.67 65.97C55.4167 65.77 55.05 65.67 54.57 65.67C54.1967 65.67 53.86 65.7133 53.56 65.8C53.26 65.8867 52.95 66.03 52.63 66.23V65.39C53.2167 65.0367 53.9033 64.86 54.69 64.86C55.47 64.86 56.0633 65.0333 56.47 65.38C56.8767 65.7267 57.08 66.2067 57.08 66.82C57.08 67.1933 56.98 67.52 56.78 67.8C56.58 68.08 56.28 68.2967 55.88 68.45C56.3333 68.5567 56.68 68.75 56.92 69.03C57.1667 69.31 57.29 69.6633 57.29 70.09C57.29 70.7233 57.0733 71.2267 56.64 71.6C56.2067 71.9667 55.52 72.15 54.58 72.15ZM65.5734 72.15C64.88 72.15 64.2534 72 63.6934 71.7C63.1334 71.3933 62.6934 70.9633 62.3734 70.41C62.0534 69.8567 61.8934 69.2233 61.8934 68.51C61.8934 67.7967 62.0534 67.1633 62.3734 66.61C62.6934 66.0567 63.1334 65.6267 63.6934 65.32C64.2534 65.0133 64.88 64.86 65.5734 64.86C66.2667 64.86 66.8934 65.0133 67.4534 65.32C68.0134 65.6267 68.4534 66.0567 68.7734 66.61C69.0934 67.1633 69.2534 67.7967 69.2534 68.51C69.2534 69.2233 69.0934 69.8567 68.7734 70.41C68.4534 70.9633 68.0134 71.3933 67.4534 71.7C66.8934 72 66.2667 72.15 65.5734 72.15ZM65.5734 71.23C66.0667 71.23 66.5134 71.12 66.9134 70.9C67.32 70.6733 67.64 70.3567 67.8734 69.95C68.1067 69.5367 68.2234 69.0567 68.2234 68.51C68.2234 67.97 68.1067 67.4967 67.8734 67.09C67.6467 66.6767 67.3334 66.36 66.9334 66.14C66.5334 65.9133 66.0867 65.8 65.5934 65.8C65.0934 65.8 64.64 65.91 64.2334 66.13C63.8334 66.35 63.5134 66.6667 63.2734 67.08C63.04 67.4933 62.9234 67.97 62.9234 68.51C62.9234 69.0567 63.04 69.5367 63.2734 69.95C63.5067 70.3567 63.8234 70.6733 64.2234 70.9C64.63 71.12 65.08 71.23 65.5734 71.23ZM70.3551 65.01H74.9651V65.87H71.3751V68.1H74.0551V68.91H71.3751V72H70.3551V65.01ZM80.8741 66.11L79.3641 67.2V66.23L81.0141 65.01H81.8941V72H80.8741V66.11ZM85.9069 72.15C85.3069 72.15 84.7869 72.0033 84.3469 71.71C83.9135 71.4167 83.5802 70.9967 83.3469 70.45C83.1135 69.9033 82.9969 69.2567 82.9969 68.51C82.9969 67.7633 83.1102 67.1167 83.3369 66.57C83.5702 66.0167 83.9035 65.5933 84.3369 65.3C84.7769 65.0067 85.3002 64.86 85.9069 64.86C86.5135 64.86 87.0335 65.0067 87.4669 65.3C87.9069 65.5933 88.2402 66.0167 88.4669 66.57C88.7002 67.1167 88.8169 67.7633 88.8169 68.51C88.8169 69.2567 88.7002 69.9033 88.4669 70.45C88.2335 70.9967 87.8969 71.4167 87.4569 71.71C87.0235 72.0033 86.5069 72.15 85.9069 72.15ZM85.9069 71.25C86.5002 71.25 86.9635 71.0067 87.2969 70.52C87.6369 70.0267 87.8069 69.36 87.8069 68.52C87.8069 67.68 87.6402 67.0133 87.3069 66.52C86.9735 66.0267 86.5069 65.78 85.9069 65.78C85.3069 65.78 84.8402 66.0267 84.5069 66.52C84.1735 67.0133 84.0069 67.68 84.0069 68.52C84.0069 69.36 84.1735 70.0267 84.5069 70.52C84.8469 71.0067 85.3135 71.25 85.9069 71.25Z" fill="white"/>
<path d="M30 64L26 68L30 72" stroke="#484B52" stroke-linecap="round"/>
<path d="M110 72L114 68L110 64" stroke="white" stroke-linecap="round"/>
<line x1="102.5" y1="59" x2="102.5" y2="77" stroke="white" stroke-opacity="0.1"/>
<defs>
<filter id="filter0_d_7427_137934" x="0" y="0" width="141" height="102" filterUnits="userSpaceOnUse" color-interpolation-filters="sRGB">
<feFlood flood-opacity="0" result="BackgroundImageFix"/>
<feColorMatrix in="SourceAlpha" type="matrix" values="0 0 0 0 0 0 0 0 0 0 0 0 0 0 0 0 0 0 127 0" result="hardAlpha"/>
<feOffset/>
<feGaussianBlur stdDeviation="2"/>
<feColorMatrix type="matrix" values="0 0 0 0 0 0 0 0 0 0 0 0 0 0 0 0 0 0 0.1 0"/>
<feBlend mode="normal" in2="BackgroundImageFix" result="effect1_dropShadow_7427_137934"/>
<feBlend mode="normal" in="SourceGraphic" in2="effect1_dropShadow_7427_137934" result="shape"/>
</filter>
</defs>
</svg>
