<svg width="143" height="106" viewBox="0 0 143 106" fill="none" xmlns="http://www.w3.org/2000/svg">
<g filter="url(#filter0_d_210_8390)">
<rect x="4" y="4.09766" width="133" height="94" rx="4" fill="white"/>
</g>
<path d="M66.65 46.2053H67.68V53.1953H66.65V46.2053ZM68.984 48.3953H69.964V49.0853C70.1907 48.7986 70.4673 48.5886 70.794 48.4553C71.1273 48.3153 71.474 48.2453 71.834 48.2453C72.474 48.2453 72.9507 48.4153 73.264 48.7553C73.5773 49.0953 73.734 49.552 73.734 50.1253V53.1953H72.724V50.2253C72.724 49.4453 72.3507 49.0553 71.604 49.0553C71.284 49.0553 70.984 49.132 70.704 49.2853C70.4307 49.432 70.194 49.6586 69.994 49.9653V53.1953H68.984V48.3953ZM74.3309 48.3953H75.4009L76.8109 51.8453L78.2209 48.3953H79.2909L77.2509 53.1953H76.3709L74.3309 48.3953ZM82.6298 53.3453C81.7432 53.3453 81.0465 53.1253 80.5398 52.6853C80.0398 52.2386 79.7898 51.612 79.7898 50.8053C79.7898 50.0186 80.0132 49.3953 80.4598 48.9353C80.9132 48.4753 81.5565 48.2453 82.3898 48.2453C82.9432 48.2453 83.4132 48.352 83.7998 48.5653C84.1865 48.772 84.4765 49.062 84.6698 49.4353C84.8698 49.802 84.9698 50.222 84.9698 50.6953V51.1953H80.7498C80.7832 51.6486 80.9732 51.9886 81.3198 52.2153C81.6732 52.4353 82.1498 52.5453 82.7498 52.5453C83.0565 52.5453 83.3665 52.5186 83.6798 52.4653C83.9932 52.4053 84.2698 52.3286 84.5098 52.2353V53.0453C84.2965 53.132 84.0132 53.202 83.6598 53.2553C83.3132 53.3153 82.9698 53.3453 82.6298 53.3453ZM84.0198 50.4853C84.0065 50.032 83.8565 49.682 83.5698 49.4353C83.2898 49.182 82.8898 49.0553 82.3698 49.0553C81.8632 49.0553 81.4698 49.1853 81.1898 49.4453C80.9098 49.7053 80.7632 50.052 80.7498 50.4853H84.0198ZM86.0738 48.3953H87.0538V49.0853C87.2805 48.7986 87.5572 48.5886 87.8838 48.4553C88.2172 48.3153 88.5638 48.2453 88.9238 48.2453C89.5638 48.2453 90.0405 48.4153 90.3538 48.7553C90.6672 49.0953 90.8238 49.552 90.8238 50.1253V53.1953H89.8138V50.2253C89.8138 49.4453 89.4405 49.0553 88.6938 49.0553C88.3738 49.0553 88.0738 49.132 87.7938 49.2853C87.5205 49.432 87.2838 49.6586 87.0838 49.9653V53.1953H86.0738V48.3953ZM93.9199 53.3453C93.4333 53.3453 93.0566 53.2053 92.7899 52.9253C92.5299 52.6453 92.3999 52.2486 92.3999 51.7353V49.1753H91.6699V48.3953H92.3999V46.9553H93.4199V48.3953H94.5999V49.1753H93.4199V51.6653C93.4199 51.9853 93.4799 52.212 93.5999 52.3453C93.7266 52.4786 93.9533 52.5453 94.2799 52.5453C94.4733 52.5453 94.6666 52.502 94.8599 52.4153V53.2153C94.6066 53.302 94.2933 53.3453 93.9199 53.3453ZM98.2913 53.3453C97.7513 53.3453 97.2747 53.2453 96.8613 53.0453C96.4547 52.8386 96.1347 52.5453 95.9013 52.1653C95.6747 51.7786 95.5613 51.3253 95.5613 50.8053C95.5613 50.292 95.6747 49.842 95.9013 49.4553C96.128 49.0686 96.448 48.772 96.8613 48.5653C97.2747 48.352 97.7513 48.2453 98.2913 48.2453C98.8313 48.2453 99.308 48.352 99.7213 48.5653C100.135 48.772 100.455 49.0686 100.681 49.4553C100.915 49.842 101.031 50.292 101.031 50.8053C101.031 51.3253 100.915 51.7786 100.681 52.1653C100.455 52.5453 100.135 52.8386 99.7213 53.0453C99.308 53.2453 98.8313 53.3453 98.2913 53.3453ZM98.2913 52.5453C98.8113 52.5453 99.2247 52.3853 99.5313 52.0653C99.838 51.7453 99.9913 51.3253 99.9913 50.8053C99.9913 50.2653 99.838 49.8386 99.5313 49.5253C99.2247 49.212 98.8113 49.0553 98.2913 49.0553C97.7713 49.0553 97.358 49.212 97.0513 49.5253C96.7447 49.8386 96.5913 50.2653 96.5913 50.8053C96.5913 51.3253 96.7447 51.7453 97.0513 52.0653C97.358 52.3853 97.7713 52.5453 98.2913 52.5453ZM102.129 48.3953H103.109V49.2553C103.309 48.962 103.589 48.7453 103.949 48.6053C104.315 48.4653 104.739 48.3953 105.219 48.3953V49.1853C104.705 49.1853 104.265 49.2686 103.899 49.4353C103.532 49.602 103.279 49.8653 103.139 50.2253V53.1953H102.129V48.3953ZM106.996 55.1753C106.636 55.1753 106.336 55.1386 106.096 55.0653V54.2753C106.27 54.342 106.483 54.3753 106.736 54.3753C106.97 54.3753 107.153 54.3153 107.286 54.1953C107.42 54.082 107.54 53.8953 107.646 53.6353L107.876 53.0753L105.776 48.3953H106.816L108.416 52.0853L109.906 48.3953H110.946L108.786 53.7353C108.586 54.2353 108.346 54.5986 108.066 54.8253C107.793 55.0586 107.436 55.1753 106.996 55.1753ZM116.856 47.3053L115.346 48.3953V47.4253L116.996 46.2053H117.876V53.1953H116.856V47.3053ZM120.929 53.3453C120.563 53.3453 120.206 53.3053 119.859 53.2253C119.513 53.152 119.219 53.0486 118.979 52.9153V52.0053C119.253 52.172 119.563 52.302 119.909 52.3953C120.256 52.482 120.586 52.5253 120.899 52.5253C121.506 52.5253 121.966 52.3986 122.279 52.1453C122.593 51.8853 122.749 51.5053 122.749 51.0053C122.749 50.532 122.603 50.172 122.309 49.9253C122.023 49.672 121.593 49.5453 121.019 49.5453C120.779 49.5453 120.526 49.5686 120.259 49.6153C119.999 49.662 119.766 49.7253 119.559 49.8053L119.109 49.5453L119.369 46.2053H123.279V47.0653H120.299L120.149 48.8653C120.563 48.7786 120.983 48.7353 121.409 48.7353C122.149 48.7353 122.729 48.942 123.149 49.3553C123.569 49.7686 123.779 50.3186 123.779 51.0053C123.779 51.7586 123.543 52.3386 123.069 52.7453C122.596 53.1453 121.883 53.3453 120.929 53.3453Z" fill="#9799A5"/>
<rect x="12" y="40.1953" width="50" height="20" rx="3" fill="#484B52"/>
<path d="M19.5998 54.3453C19.1998 54.3453 18.8031 54.3086 18.4098 54.2353C18.0231 54.1686 17.7064 54.0753 17.4598 53.9553V53.0353C18.0998 53.3353 18.7898 53.4853 19.5298 53.4853C20.5698 53.4853 21.0898 53.1353 21.0898 52.4353C21.0898 52.1953 21.0331 52.002 20.9198 51.8553C20.8064 51.7086 20.6431 51.582 20.4298 51.4753C20.2164 51.362 19.8698 51.2086 19.3898 51.0153C18.7298 50.7486 18.2531 50.4553 17.9598 50.1353C17.6664 49.8153 17.5198 49.412 17.5198 48.9253C17.5198 48.5586 17.6198 48.2353 17.8198 47.9553C18.0198 47.6686 18.2998 47.4486 18.6598 47.2953C19.0198 47.1353 19.4331 47.0553 19.8998 47.0553C20.2798 47.0553 20.6231 47.0853 20.9298 47.1453C21.2364 47.2053 21.5364 47.302 21.8298 47.4353V48.3153C21.2498 48.0553 20.6631 47.9253 20.0698 47.9253C19.5898 47.9253 19.2231 48.012 18.9698 48.1853C18.7164 48.3586 18.5898 48.6053 18.5898 48.9253C18.5898 49.1453 18.6431 49.332 18.7498 49.4853C18.8631 49.632 19.0264 49.7653 19.2398 49.8853C19.4598 49.9986 19.7831 50.142 20.2098 50.3153C20.6831 50.5086 21.0564 50.692 21.3298 50.8653C21.6031 51.0386 21.8098 51.252 21.9498 51.5053C22.0964 51.752 22.1698 52.062 22.1698 52.4353C22.1698 53.042 21.9531 53.512 21.5198 53.8453C21.0864 54.1786 20.4464 54.3453 19.5998 54.3453ZM25.6488 54.3453C25.1088 54.3453 24.6321 54.2453 24.2188 54.0453C23.8121 53.8386 23.4921 53.5453 23.2588 53.1653C23.0321 52.7786 22.9188 52.3253 22.9188 51.8053C22.9188 51.292 23.0321 50.842 23.2588 50.4553C23.4854 50.0686 23.8054 49.772 24.2188 49.5653C24.6321 49.352 25.1088 49.2453 25.6488 49.2453C26.1888 49.2453 26.6654 49.352 27.0788 49.5653C27.4921 49.772 27.8121 50.0686 28.0388 50.4553C28.2721 50.842 28.3888 51.292 28.3888 51.8053C28.3888 52.3253 28.2721 52.7786 28.0388 53.1653C27.8121 53.5453 27.4921 53.8386 27.0788 54.0453C26.6654 54.2453 26.1888 54.3453 25.6488 54.3453ZM25.6488 53.5453C26.1688 53.5453 26.5821 53.3853 26.8888 53.0653C27.1954 52.7453 27.3488 52.3253 27.3488 51.8053C27.3488 51.2653 27.1954 50.8386 26.8888 50.5253C26.5821 50.212 26.1688 50.0553 25.6488 50.0553C25.1288 50.0553 24.7154 50.212 24.4088 50.5253C24.1021 50.8386 23.9488 51.2653 23.9488 51.8053C23.9488 52.3253 24.1021 52.7453 24.4088 53.0653C24.7154 53.3853 25.1288 53.5453 25.6488 53.5453ZM29.4859 46.8053H30.4959V54.1953H29.4859V46.8053ZM34.1204 54.3453C33.6404 54.3453 33.2071 54.242 32.8204 54.0353C32.4404 53.822 32.1404 53.5253 31.9204 53.1453C31.7071 52.7586 31.6004 52.312 31.6004 51.8053C31.6004 51.3053 31.7071 50.862 31.9204 50.4753C32.1404 50.0886 32.4404 49.7886 32.8204 49.5753C33.2071 49.3553 33.6404 49.2453 34.1204 49.2453C34.9871 49.2453 35.6437 49.5086 36.0904 50.0353V46.8053H37.1004V54.1953H36.1204V53.4953C35.8537 53.7886 35.5604 54.0053 35.2404 54.1453C34.9271 54.2786 34.5537 54.3453 34.1204 54.3453ZM34.3504 53.5453C34.7637 53.5453 35.1237 53.4386 35.4304 53.2253C35.7437 53.0053 35.9637 52.712 36.0904 52.3453V51.2653C35.9771 50.8986 35.7604 50.6053 35.4404 50.3853C35.1271 50.1653 34.7637 50.0553 34.3504 50.0553C34.0237 50.0553 33.7271 50.1286 33.4604 50.2753C33.2004 50.422 32.9937 50.6286 32.8404 50.8953C32.6937 51.162 32.6204 51.4653 32.6204 51.8053C32.6204 52.1453 32.6937 52.4486 32.8404 52.7153C32.9937 52.982 33.2004 53.1886 33.4604 53.3353C33.7271 53.4753 34.0237 53.5453 34.3504 53.5453ZM43.4131 48.3053L41.9031 49.3953V48.4253L43.5531 47.2053H44.4331V54.1953H43.4131V48.3053ZM47.4159 54.3453C47.0493 54.3453 46.7226 54.3053 46.4359 54.2253V53.3753C46.6959 53.4753 46.9959 53.5253 47.3359 53.5253C48.7693 53.5253 49.5559 52.6686 49.6959 50.9553C49.4959 51.2086 49.2326 51.3986 48.9059 51.5253C48.5859 51.652 48.2259 51.7153 47.8259 51.7153C47.3793 51.7153 46.9826 51.622 46.6359 51.4353C46.2893 51.2486 46.0193 50.982 45.8259 50.6353C45.6326 50.2886 45.5359 49.8853 45.5359 49.4253C45.5359 48.972 45.6359 48.5653 45.8359 48.2053C46.0426 47.8453 46.3393 47.5653 46.7259 47.3653C47.1126 47.1586 47.5693 47.0553 48.0959 47.0553C48.6026 47.0553 49.0526 47.1686 49.4459 47.3953C49.8459 47.622 50.1593 47.962 50.3859 48.4153C50.6126 48.862 50.7259 49.4053 50.7259 50.0453C50.7259 51.432 50.4393 52.4953 49.8659 53.2353C49.2993 53.9753 48.4826 54.3453 47.4159 54.3453ZM48.0959 50.9153C48.5359 50.9153 48.9026 50.7753 49.1959 50.4953C49.4959 50.2153 49.6459 49.8453 49.6459 49.3853C49.6459 49.112 49.5793 48.8586 49.4459 48.6253C49.3193 48.392 49.1393 48.2053 48.9059 48.0653C48.6726 47.9253 48.4026 47.8553 48.0959 47.8553C47.6293 47.8553 47.2526 47.9953 46.9659 48.2753C46.6859 48.5553 46.5459 48.9286 46.5459 49.3953C46.5459 49.862 46.6859 50.232 46.9659 50.5053C47.2526 50.7786 47.6293 50.9153 48.0959 50.9153ZM51.6297 53.5253L53.1397 52.0753C53.273 51.942 53.4597 51.7686 53.6997 51.5553C54.0797 51.2086 54.3697 50.9286 54.5697 50.7153C54.7697 50.502 54.933 50.2753 55.0597 50.0353C55.1864 49.7886 55.2497 49.5253 55.2497 49.2453C55.2497 48.832 55.1297 48.5186 54.8897 48.3053C54.6497 48.0853 54.2997 47.9753 53.8397 47.9753C53.5264 47.9753 53.203 48.032 52.8697 48.1453C52.543 48.2586 52.2364 48.4253 51.9497 48.6453V47.6653C52.5097 47.2586 53.193 47.0553 53.9997 47.0553C54.7197 47.0553 55.2797 47.2486 55.6797 47.6353C56.0797 48.0153 56.2797 48.5353 56.2797 49.1953C56.2797 49.5153 56.2097 49.822 56.0697 50.1153C55.9364 50.4086 55.7464 50.6986 55.4997 50.9853C55.253 51.2653 54.9197 51.6086 54.4997 52.0153L53.1397 53.3453H56.5397V54.1953H51.6297V53.5253Z" fill="white"/>
<path d="M8 5H133C134.657 5 136 6.34315 136 8V94C136 95.6569 134.657 97 133 97H8C6.34315 97 5 95.6569 5 94V8C5 6.34315 6.34315 5 8 5Z" fill="#2EC639" fill-opacity="0.2" stroke="#2EC639" stroke-width="2"/>
<g filter="url(#filter1_d_210_8390)">
<rect x="107" y="69" width="22" height="22" rx="11" fill="white"/>
</g>
<path d="M112.867 79.9707L117.079 83.6667L123.133 77.0667" stroke="#2EC639" stroke-width="2" stroke-linecap="round" stroke-linejoin="round"/>
<defs>
<filter id="filter0_d_210_8390" x="0" y="0.0976562" width="141" height="102" filterUnits="userSpaceOnUse" color-interpolation-filters="sRGB">
<feFlood flood-opacity="0" result="BackgroundImageFix"/>
<feColorMatrix in="SourceAlpha" type="matrix" values="0 0 0 0 0 0 0 0 0 0 0 0 0 0 0 0 0 0 127 0" result="hardAlpha"/>
<feOffset/>
<feGaussianBlur stdDeviation="2"/>
<feColorMatrix type="matrix" values="0 0 0 0 0 0 0 0 0 0 0 0 0 0 0 0 0 0 0.1 0"/>
<feBlend mode="normal" in2="BackgroundImageFix" result="effect1_dropShadow_210_8390"/>
<feBlend mode="normal" in="SourceGraphic" in2="effect1_dropShadow_210_8390" result="shape"/>
</filter>
<filter id="filter1_d_210_8390" x="97" y="60" width="46" height="46" filterUnits="userSpaceOnUse" color-interpolation-filters="sRGB">
<feFlood flood-opacity="0" result="BackgroundImageFix"/>
<feColorMatrix in="SourceAlpha" type="matrix" values="0 0 0 0 0 0 0 0 0 0 0 0 0 0 0 0 0 0 127 0" result="hardAlpha"/>
<feOffset dx="2" dy="3"/>
<feGaussianBlur stdDeviation="6"/>
<feColorMatrix type="matrix" values="0 0 0 0 0.180392 0 0 0 0 0.776471 0 0 0 0 0.223529 0 0 0 0.35 0"/>
<feBlend mode="normal" in2="BackgroundImageFix" result="effect1_dropShadow_210_8390"/>
<feBlend mode="normal" in="SourceGraphic" in2="effect1_dropShadow_210_8390" result="shape"/>
</filter>
</defs>
</svg>