<svg width="113" height="33" viewBox="0 0 113 33" fill="none" xmlns="http://www.w3.org/2000/svg">
<path d="M2.072 31.2177C1.752 31.2177 1.43467 31.1883 1.12 31.1297C0.810667 31.0763 0.557333 31.0017 0.36 30.9057V30.1697C0.872 30.4097 1.424 30.5297 2.016 30.5297C2.848 30.5297 3.264 30.2497 3.264 29.6897C3.264 29.4977 3.21867 29.343 3.128 29.2257C3.03733 29.1083 2.90667 29.007 2.736 28.9217C2.56533 28.831 2.288 28.7083 1.904 28.5537C1.376 28.3403 0.994667 28.1057 0.76 27.8497C0.525333 27.5937 0.408 27.271 0.408 26.8817C0.408 26.5883 0.488 26.3297 0.648 26.1057C0.808 25.8763 1.032 25.7003 1.32 25.5777C1.608 25.4497 1.93867 25.3857 2.312 25.3857C2.616 25.3857 2.89067 25.4097 3.136 25.4577C3.38133 25.5057 3.62133 25.583 3.856 25.6897V26.3937C3.392 26.1857 2.92267 26.0817 2.448 26.0817C2.064 26.0817 1.77067 26.151 1.568 26.2897C1.36533 26.4283 1.264 26.6257 1.264 26.8817C1.264 27.0577 1.30667 27.207 1.392 27.3297C1.48267 27.447 1.61333 27.5537 1.784 27.6497C1.96 27.7403 2.21867 27.855 2.56 27.9937C2.93867 28.1483 3.23733 28.295 3.456 28.4337C3.67467 28.5723 3.84 28.743 3.952 28.9457C4.06933 29.143 4.128 29.391 4.128 29.6897C4.128 30.175 3.95467 30.551 3.608 30.8177C3.26133 31.0843 2.74933 31.2177 2.072 31.2177ZM6.91119 31.2177C6.47919 31.2177 6.09785 31.1377 5.76719 30.9777C5.44185 30.8123 5.18585 30.5777 4.99919 30.2737C4.81785 29.9643 4.72719 29.6017 4.72719 29.1857C4.72719 28.775 4.81785 28.415 4.99919 28.1057C5.18052 27.7963 5.43652 27.559 5.76719 27.3937C6.09785 27.223 6.47919 27.1377 6.91119 27.1377C7.34319 27.1377 7.72452 27.223 8.05519 27.3937C8.38585 27.559 8.64185 27.7963 8.82319 28.1057C9.00985 28.415 9.10319 28.775 9.10319 29.1857C9.10319 29.6017 9.00985 29.9643 8.82319 30.2737C8.64185 30.5777 8.38585 30.8123 8.05519 30.9777C7.72452 31.1377 7.34319 31.2177 6.91119 31.2177ZM6.91119 30.5777C7.32719 30.5777 7.65785 30.4497 7.90319 30.1937C8.14852 29.9377 8.27119 29.6017 8.27119 29.1857C8.27119 28.7537 8.14852 28.4123 7.90319 28.1617C7.65785 27.911 7.32719 27.7857 6.91119 27.7857C6.49519 27.7857 6.16452 27.911 5.91919 28.1617C5.67385 28.4123 5.55119 28.7537 5.55119 29.1857C5.55119 29.6017 5.67385 29.9377 5.91919 30.1937C6.16452 30.4497 6.49519 30.5777 6.91119 30.5777ZM9.98094 25.1857H10.7889V31.0977H9.98094V25.1857ZM13.6885 31.2177C13.3045 31.2177 12.9578 31.135 12.6485 30.9697C12.3445 30.799 12.1045 30.5617 11.9285 30.2577C11.7578 29.9483 11.6725 29.591 11.6725 29.1857C11.6725 28.7857 11.7578 28.431 11.9285 28.1217C12.1045 27.8123 12.3445 27.5723 12.6485 27.4017C12.9578 27.2257 13.3045 27.1377 13.6885 27.1377C14.3818 27.1377 14.9072 27.3483 15.2645 27.7697V25.1857H16.0725V31.0977H15.2885V30.5377C15.0752 30.7723 14.8405 30.9457 14.5845 31.0577C14.3338 31.1643 14.0352 31.2177 13.6885 31.2177ZM13.8725 30.5777C14.2032 30.5777 14.4912 30.4923 14.7365 30.3217C14.9872 30.1457 15.1632 29.911 15.2645 29.6177V28.7537C15.1738 28.4603 15.0005 28.2257 14.7445 28.0497C14.4938 27.8737 14.2032 27.7857 13.8725 27.7857C13.6112 27.7857 13.3738 27.8443 13.1605 27.9617C12.9525 28.079 12.7872 28.2443 12.6645 28.4577C12.5472 28.671 12.4885 28.9137 12.4885 29.1857C12.4885 29.4577 12.5472 29.7003 12.6645 29.9137C12.7872 30.127 12.9525 30.2923 13.1605 30.4097C13.3738 30.5217 13.6112 30.5777 13.8725 30.5777ZM21.1227 26.3857L19.9147 27.2577V26.4817L21.2347 25.5057H21.9387V31.0977H21.1227V26.3857ZM24.3249 31.2177C24.0316 31.2177 23.7703 31.1857 23.5409 31.1217V30.4417C23.7489 30.5217 23.9889 30.5617 24.2609 30.5617C25.4076 30.5617 26.0369 29.8763 26.1489 28.5057C25.9889 28.7083 25.7783 28.8603 25.5169 28.9617C25.2609 29.063 24.9729 29.1137 24.6529 29.1137C24.2956 29.1137 23.9783 29.039 23.7009 28.8897C23.4236 28.7403 23.2076 28.527 23.0529 28.2497C22.8983 27.9723 22.8209 27.6497 22.8209 27.2817C22.8209 26.919 22.9009 26.5937 23.0609 26.3057C23.2263 26.0177 23.4636 25.7937 23.7729 25.6337C24.0823 25.4683 24.4476 25.3857 24.8689 25.3857C25.2743 25.3857 25.6343 25.4763 25.9489 25.6577C26.2689 25.839 26.5196 26.111 26.7009 26.4737C26.8823 26.831 26.9729 27.2657 26.9729 27.7777C26.9729 28.887 26.7436 29.7377 26.2849 30.3297C25.8316 30.9217 25.1783 31.2177 24.3249 31.2177ZM24.8689 28.4737C25.2209 28.4737 25.5143 28.3617 25.7489 28.1377C25.9889 27.9137 26.1089 27.6177 26.1089 27.2497C26.1089 27.031 26.0556 26.8283 25.9489 26.6417C25.8476 26.455 25.7036 26.3057 25.5169 26.1937C25.3303 26.0817 25.1143 26.0257 24.8689 26.0257C24.4956 26.0257 24.1943 26.1377 23.9649 26.3617C23.7409 26.5857 23.6289 26.8843 23.6289 27.2577C23.6289 27.631 23.7409 27.927 23.9649 28.1457C24.1943 28.3643 24.4956 28.4737 24.8689 28.4737ZM27.6959 30.5617L28.9039 29.4017C29.0106 29.295 29.1599 29.1563 29.3519 28.9857C29.6559 28.7083 29.8879 28.4843 30.0479 28.3137C30.2079 28.143 30.3386 27.9617 30.4399 27.7697C30.5413 27.5723 30.5919 27.3617 30.5919 27.1377C30.5919 26.807 30.4959 26.5563 30.3039 26.3857C30.1119 26.2097 29.8319 26.1217 29.4639 26.1217C29.2133 26.1217 28.9546 26.167 28.6879 26.2577C28.4266 26.3483 28.1813 26.4817 27.9519 26.6577V25.8737C28.3999 25.5483 28.9466 25.3857 29.5919 25.3857C30.1679 25.3857 30.6159 25.5403 30.9359 25.8497C31.2559 26.1537 31.4159 26.5697 31.4159 27.0977C31.4159 27.3537 31.3599 27.599 31.2479 27.8337C31.1413 28.0683 30.9893 28.3003 30.7919 28.5297C30.5946 28.7537 30.3279 29.0283 29.9919 29.3537L28.9039 30.4177H31.6239V31.0977H27.6959V30.5617Z" fill="#484B52"/>
<path d="M64.52 25.5057H65.344V31.0977H64.52V25.5057ZM66.3872 27.2577H67.1712V27.8097C67.3525 27.5803 67.5739 27.4123 67.8352 27.3057C68.1019 27.1937 68.3792 27.1377 68.6672 27.1377C69.1792 27.1377 69.5605 27.2737 69.8112 27.5457C70.0619 27.8177 70.1872 28.183 70.1872 28.6417V31.0977H69.3792V28.7217C69.3792 28.0977 69.0805 27.7857 68.4832 27.7857C68.2272 27.7857 67.9872 27.847 67.7632 27.9697C67.5445 28.087 67.3552 28.2683 67.1952 28.5137V31.0977H66.3872V27.2577ZM70.6647 27.2577H71.5207L72.6487 30.0177L73.7767 27.2577H74.6327L73.0007 31.0977H72.2967L70.6647 27.2577ZM77.3039 31.2177C76.5945 31.2177 76.0372 31.0417 75.6319 30.6897C75.2319 30.3323 75.0319 29.831 75.0319 29.1857C75.0319 28.5563 75.2105 28.0577 75.5679 27.6897C75.9305 27.3217 76.4452 27.1377 77.1119 27.1377C77.5545 27.1377 77.9305 27.223 78.2399 27.3937C78.5492 27.559 78.7812 27.791 78.9359 28.0897C79.0959 28.383 79.1759 28.719 79.1759 29.0977V29.4977H75.7999C75.8265 29.8603 75.9785 30.1323 76.2559 30.3137C76.5385 30.4897 76.9199 30.5777 77.3999 30.5777C77.6452 30.5777 77.8932 30.5563 78.1439 30.5137C78.3945 30.4657 78.6159 30.4043 78.8079 30.3297V30.9777C78.6372 31.047 78.4105 31.103 78.1279 31.1457C77.8505 31.1937 77.5759 31.2177 77.3039 31.2177ZM78.4159 28.9297C78.4052 28.567 78.2852 28.287 78.0559 28.0897C77.8319 27.887 77.5119 27.7857 77.0959 27.7857C76.6905 27.7857 76.3759 27.8897 76.1519 28.0977C75.9279 28.3057 75.8105 28.583 75.7999 28.9297H78.4159ZM80.0591 27.2577H80.8431V27.8097C81.0244 27.5803 81.2457 27.4123 81.5071 27.3057C81.7737 27.1937 82.0511 27.1377 82.3391 27.1377C82.8511 27.1377 83.2324 27.2737 83.4831 27.5457C83.7337 27.8177 83.8591 28.183 83.8591 28.6417V31.0977H83.0511V28.7217C83.0511 28.0977 82.7524 27.7857 82.1551 27.7857C81.8991 27.7857 81.6591 27.847 81.4351 27.9697C81.2164 28.087 81.0271 28.2683 80.8671 28.5137V31.0977H80.0591V27.2577ZM86.3359 31.2177C85.9466 31.2177 85.6453 31.1057 85.4319 30.8817C85.2239 30.6577 85.1199 30.3403 85.1199 29.9297V27.8817H84.5359V27.2577H85.1199V26.1057H85.9359V27.2577H86.8799V27.8817H85.9359V29.8737C85.9359 30.1297 85.9839 30.311 86.0799 30.4177C86.1813 30.5243 86.3626 30.5777 86.6239 30.5777C86.7786 30.5777 86.9333 30.543 87.0879 30.4737V31.1137C86.8853 31.183 86.6346 31.2177 86.3359 31.2177ZM89.8331 31.2177C89.4011 31.2177 89.0197 31.1377 88.6891 30.9777C88.3637 30.8123 88.1077 30.5777 87.9211 30.2737C87.7397 29.9643 87.6491 29.6017 87.6491 29.1857C87.6491 28.775 87.7397 28.415 87.9211 28.1057C88.1024 27.7963 88.3584 27.559 88.6891 27.3937C89.0197 27.223 89.4011 27.1377 89.8331 27.1377C90.2651 27.1377 90.6464 27.223 90.9771 27.3937C91.3077 27.559 91.5637 27.7963 91.7451 28.1057C91.9317 28.415 92.0251 28.775 92.0251 29.1857C92.0251 29.6017 91.9317 29.9643 91.7451 30.2737C91.5637 30.5777 91.3077 30.8123 90.9771 30.9777C90.6464 31.1377 90.2651 31.2177 89.8331 31.2177ZM89.8331 30.5777C90.2491 30.5777 90.5797 30.4497 90.8251 30.1937C91.0704 29.9377 91.1931 29.6017 91.1931 29.1857C91.1931 28.7537 91.0704 28.4123 90.8251 28.1617C90.5797 27.911 90.2491 27.7857 89.8331 27.7857C89.4171 27.7857 89.0864 27.911 88.8411 28.1617C88.5957 28.4123 88.4731 28.7537 88.4731 29.1857C88.4731 29.6017 88.5957 29.9377 88.8411 30.1937C89.0864 30.4497 89.4171 30.5777 89.8331 30.5777ZM92.9028 27.2577H93.6868V27.9457C93.8468 27.711 94.0708 27.5377 94.3588 27.4257C94.6521 27.3137 94.9908 27.2577 95.3748 27.2577V27.8897C94.9641 27.8897 94.6121 27.9563 94.3188 28.0897C94.0255 28.223 93.8228 28.4337 93.7108 28.7217V31.0977H92.9028V27.2577ZM96.7969 32.6817C96.5089 32.6817 96.2689 32.6523 96.0769 32.5937V31.9617C96.2156 32.015 96.3863 32.0417 96.5889 32.0417C96.7756 32.0417 96.9223 31.9937 97.0289 31.8977C97.1356 31.807 97.2316 31.6577 97.3169 31.4497L97.5009 31.0017L95.8209 27.2577H96.6529L97.9329 30.2097L99.1249 27.2577H99.9569L98.2289 31.5297C98.0689 31.9297 97.8769 32.2203 97.6529 32.4017C97.4343 32.5883 97.1489 32.6817 96.7969 32.6817ZM104.685 26.3857L103.477 27.2577V26.4817L104.797 25.5057H105.501V31.0977H104.685V26.3857ZM107.943 31.2177C107.65 31.2177 107.365 31.1857 107.087 31.1217C106.81 31.063 106.575 30.9803 106.383 30.8737V30.1457C106.602 30.279 106.85 30.383 107.127 30.4577C107.405 30.527 107.669 30.5617 107.919 30.5617C108.405 30.5617 108.773 30.4603 109.023 30.2577C109.274 30.0497 109.399 29.7457 109.399 29.3457C109.399 28.967 109.282 28.679 109.047 28.4817C108.818 28.279 108.474 28.1777 108.015 28.1777C107.823 28.1777 107.621 28.1963 107.407 28.2337C107.199 28.271 107.013 28.3217 106.847 28.3857L106.487 28.1777L106.695 25.5057H109.823V26.1937H107.439L107.319 27.6337C107.65 27.5643 107.986 27.5297 108.327 27.5297C108.919 27.5297 109.383 27.695 109.719 28.0257C110.055 28.3563 110.223 28.7963 110.223 29.3457C110.223 29.9483 110.034 30.4123 109.655 30.7377C109.277 31.0577 108.706 31.2177 107.943 31.2177Z" fill="#9799A5"/>
<rect y="0.0976562" width="113" height="16" rx="8" fill="#C4C4C4"/>
<rect y="0.0976562" width="60" height="16" rx="8" fill="#484B52"/>
</svg>
