<svg width="137" height="102" viewBox="0 0 137 102" fill="none" xmlns="http://www.w3.org/2000/svg">
<g filter="url(#filter0_d_7427_137934)">
<rect y="4" width="133" height="94" rx="4" fill="white"/>
<rect x="0.5" y="4.5" width="132" height="93" rx="3.5" stroke="#74D179"/>
</g>
<path d="M41.36 62.464L42.568 61.304C42.6747 61.1973 42.824 61.0587 43.016 60.888C43.32 60.6107 43.552 60.3867 43.712 60.216C43.872 60.0453 44.0027 59.864 44.104 59.672C44.2053 59.4747 44.256 59.264 44.256 59.04C44.256 58.7093 44.16 58.4587 43.968 58.288C43.776 58.112 43.496 58.024 43.128 58.024C42.8773 58.024 42.6187 58.0693 42.352 58.16C42.0907 58.2507 41.8453 58.384 41.616 58.56V57.776C42.064 57.4507 42.6107 57.288 43.256 57.288C43.832 57.288 44.28 57.4427 44.6 57.752C44.92 58.056 45.08 58.472 45.08 59C45.08 59.256 45.024 59.5013 44.912 59.736C44.8053 59.9707 44.6533 60.2027 44.456 60.432C44.2587 60.656 43.992 60.9307 43.656 61.256L42.568 62.32H45.288V63H41.36V62.464ZM48.3364 63.12C47.8564 63.12 47.4404 63.0027 47.0884 62.768C46.7418 62.5333 46.4751 62.1973 46.2884 61.76C46.1018 61.3227 46.0084 60.8053 46.0084 60.208C46.0084 59.6107 46.0991 59.0933 46.2804 58.656C46.4671 58.2133 46.7338 57.8747 47.0804 57.64C47.4324 57.4053 47.8511 57.288 48.3364 57.288C48.8218 57.288 49.2378 57.4053 49.5844 57.64C49.9364 57.8747 50.2031 58.2133 50.3844 58.656C50.5711 59.0933 50.6644 59.6107 50.6644 60.208C50.6644 60.8053 50.5711 61.3227 50.3844 61.76C50.1978 62.1973 49.9284 62.5333 49.5764 62.768C49.2298 63.0027 48.8164 63.12 48.3364 63.12ZM48.3364 62.4C48.8111 62.4 49.1818 62.2053 49.4484 61.816C49.7204 61.4213 49.8564 60.888 49.8564 60.216C49.8564 59.544 49.7231 59.0107 49.4564 58.616C49.1898 58.2213 48.8164 58.024 48.3364 58.024C47.8564 58.024 47.4831 58.2213 47.2164 58.616C46.9498 59.0107 46.8164 59.544 46.8164 60.216C46.8164 60.888 46.9498 61.4213 47.2164 61.816C47.4884 62.2053 47.8618 62.4 48.3364 62.4ZM53.9434 61.624H51.2234V61.104L53.9354 57.408H54.7674V60.984H55.6314V61.624H54.7674V63H53.9434V61.624ZM54.0394 60.984V58.384L52.1434 60.984H54.0394ZM59.3091 57.408H61.5571C62.1544 57.408 62.6131 57.552 62.9331 57.84C63.2531 58.128 63.4131 58.5493 63.4131 59.104C63.4131 59.5147 63.3037 59.864 63.0851 60.152C62.8664 60.4347 62.5571 60.6267 62.1571 60.728L63.3891 63H62.5411L61.3491 60.792H60.1251V63H59.3091V57.408ZM61.4211 60.104C61.7784 60.104 62.0611 60.0213 62.2691 59.856C62.4824 59.6853 62.5891 59.4347 62.5891 59.104C62.5891 58.7413 62.4851 58.4827 62.2771 58.328C62.0744 58.1733 61.7891 58.096 61.4211 58.096H60.1251V60.104H61.4211ZM66.0851 63.12C65.3758 63.12 64.8185 62.944 64.4131 62.592C64.0131 62.2347 63.8131 61.7333 63.8131 61.088C63.8131 60.4587 63.9918 59.96 64.3491 59.592C64.7118 59.224 65.2265 59.04 65.8931 59.04C66.3358 59.04 66.7118 59.1253 67.0211 59.296C67.3305 59.4613 67.5625 59.6933 67.7171 59.992C67.8771 60.2853 67.9571 60.6213 67.9571 61V61.4H64.5811C64.6078 61.7627 64.7598 62.0347 65.0371 62.216C65.3198 62.392 65.7011 62.48 66.1811 62.48C66.4265 62.48 66.6745 62.4587 66.9251 62.416C67.1758 62.368 67.3971 62.3067 67.5891 62.232V62.88C67.4185 62.9493 67.1918 63.0053 66.9091 63.048C66.6318 63.096 66.3571 63.12 66.0851 63.12ZM67.1971 60.832C67.1865 60.4693 67.0665 60.1893 66.8371 59.992C66.6131 59.7893 66.2931 59.688 65.8771 59.688C65.4718 59.688 65.1571 59.792 64.9331 60C64.7091 60.208 64.5918 60.4853 64.5811 60.832H67.1971ZM68.36 59.16H69.216L70.344 61.92L71.472 59.16H72.328L70.696 63H69.992L68.36 59.16ZM73.6795 58.408C73.5462 58.408 73.4342 58.3627 73.3435 58.272C73.2528 58.1813 73.2075 58.0693 73.2075 57.936C73.2075 57.8027 73.2528 57.6907 73.3435 57.6C73.4342 57.5093 73.5462 57.464 73.6795 57.464C73.8182 57.464 73.9328 57.5093 74.0235 57.6C74.1195 57.6907 74.1675 57.8027 74.1675 57.936C74.1675 58.0693 74.1195 58.1813 74.0235 58.272C73.9328 58.3627 73.8182 58.408 73.6795 58.408ZM73.2715 59.16H74.0955V63H73.2715V59.16ZM77.3195 63.12C76.6102 63.12 76.0528 62.944 75.6475 62.592C75.2475 62.2347 75.0475 61.7333 75.0475 61.088C75.0475 60.4587 75.2262 59.96 75.5835 59.592C75.9462 59.224 76.4608 59.04 77.1275 59.04C77.5702 59.04 77.9462 59.1253 78.2555 59.296C78.5648 59.4613 78.7968 59.6933 78.9515 59.992C79.1115 60.2853 79.1915 60.6213 79.1915 61V61.4H75.8155C75.8422 61.7627 75.9942 62.0347 76.2715 62.216C76.5542 62.392 76.9355 62.48 77.4155 62.48C77.6608 62.48 77.9088 62.4587 78.1595 62.416C78.4102 62.368 78.6315 62.3067 78.8235 62.232V62.88C78.6528 62.9493 78.4262 63.0053 78.1435 63.048C77.8662 63.096 77.5915 63.12 77.3195 63.12ZM78.4315 60.832C78.4208 60.4693 78.3008 60.1893 78.0715 59.992C77.8475 59.7893 77.5275 59.688 77.1115 59.688C76.7062 59.688 76.3915 59.792 76.1675 60C75.9435 60.208 75.8262 60.4853 75.8155 60.832H78.4315ZM79.6725 59.16H80.4965L81.3605 62.008L82.2165 59.16H82.9445L83.8005 62.008L84.6645 59.16H85.4965L84.2485 63H83.4725L82.5845 60.136L81.6965 63H80.9125L79.6725 59.16ZM87.436 63.12C87.1693 63.12 86.8867 63.0853 86.588 63.016C86.2893 62.952 86.0547 62.864 85.884 62.752V62.064C86.092 62.1867 86.332 62.288 86.604 62.368C86.876 62.4427 87.14 62.48 87.396 62.48C87.684 62.48 87.8947 62.4453 88.028 62.376C88.1613 62.3067 88.228 62.1947 88.228 62.04C88.228 61.9227 88.196 61.8293 88.132 61.76C88.0733 61.6853 87.9693 61.6187 87.82 61.56C87.676 61.5013 87.4573 61.432 87.164 61.352C86.8493 61.2613 86.5987 61.1707 86.412 61.08C86.2307 60.984 86.092 60.864 85.996 60.72C85.9053 60.576 85.86 60.3893 85.86 60.16C85.86 59.792 86.004 59.5147 86.292 59.328C86.5853 59.136 86.9773 59.04 87.468 59.04C87.724 59.04 87.9747 59.064 88.22 59.112C88.4653 59.16 88.6627 59.2267 88.812 59.312V59.984C88.6573 59.8933 88.4653 59.8213 88.236 59.768C88.012 59.7147 87.7827 59.688 87.548 59.688C87.2653 59.688 87.0493 59.7227 86.9 59.792C86.7507 59.8613 86.676 59.984 86.676 60.16C86.676 60.272 86.708 60.3627 86.772 60.432C86.836 60.5013 86.9373 60.5627 87.076 60.616C87.22 60.664 87.4467 60.728 87.756 60.808C88.2413 60.9413 88.5773 61.0987 88.764 61.28C88.956 61.4613 89.052 61.712 89.052 62.032C89.052 62.3627 88.916 62.6267 88.644 62.824C88.372 63.0213 87.9693 63.12 87.436 63.12Z" fill="#484B52"/>
<path d="M30.3573 50C30.193 50 30.0298 49.9465 29.8905 49.8414C29.6311 49.6452 29.5099 49.308 29.5805 48.9825L30.5455 44.5469L27.2728 41.552C27.0323 41.3329 26.9404 40.9859 27.0391 40.6683C27.1379 40.3514 27.4066 40.127 27.7248 40.0963L32.0549 39.6861L33.7668 35.5055C33.8931 35.1984 34.1805 35 34.4999 35C34.8194 35 35.1068 35.1984 35.2331 35.5048L36.945 39.6861L41.2744 40.0963C41.5933 40.1263 41.862 40.3514 41.9608 40.6683C42.0595 40.9853 41.9682 41.3329 41.7276 41.552L38.455 44.5463L39.42 48.9818C39.4907 49.308 39.3694 49.6452 39.1101 49.8408C38.8513 50.0364 38.5063 50.0515 38.2338 49.8806L34.4999 47.5522L30.7661 49.8819C30.6399 49.9601 30.4992 50 30.3573 50Z" fill="#F2C938"/>
<path d="M46.3573 50C46.193 50 46.0298 49.9465 45.8905 49.8414C45.6311 49.6452 45.5099 49.308 45.5805 48.9825L46.5455 44.5469L43.2728 41.552C43.0323 41.3329 42.9404 40.9859 43.0391 40.6683C43.1379 40.3514 43.4066 40.127 43.7248 40.0963L48.0549 39.6861L49.7668 35.5055C49.8931 35.1984 50.1805 35 50.4999 35C50.8194 35 51.1068 35.1984 51.2331 35.5048L52.945 39.6861L57.2744 40.0963C57.5933 40.1263 57.862 40.3514 57.9608 40.6683C58.0595 40.9853 57.9682 41.3329 57.7276 41.552L54.455 44.5463L55.42 48.9818C55.4907 49.308 55.3694 49.6452 55.1101 49.8408C54.8513 50.0364 54.5063 50.0515 54.2338 49.8806L50.4999 47.5522L46.7661 49.8819C46.6399 49.9601 46.4992 50 46.3573 50Z" fill="#F2C938"/>
<path d="M62.3573 50C62.193 50 62.0298 49.9465 61.8905 49.8414C61.6311 49.6452 61.5099 49.308 61.5805 48.9825L62.5455 44.5469L59.2728 41.552C59.0323 41.3329 58.9404 40.9859 59.0391 40.6683C59.1379 40.3514 59.4066 40.127 59.7248 40.0963L64.0549 39.6861L65.7668 35.5055C65.8931 35.1984 66.1805 35 66.4999 35C66.8194 35 67.1068 35.1984 67.2331 35.5048L68.945 39.6861L73.2744 40.0963C73.5933 40.1263 73.862 40.3514 73.9608 40.6683C74.0595 40.9853 73.9682 41.3329 73.7276 41.552L70.455 44.5463L71.42 48.9818C71.4907 49.308 71.3694 49.6452 71.1101 49.8408C70.8513 50.0364 70.5063 50.0515 70.2338 49.8806L66.4999 47.5522L62.7661 49.8819C62.6399 49.9601 62.4992 50 62.3573 50Z" fill="#F2C938"/>
<path d="M78.3573 50C78.193 50 78.0298 49.9465 77.8905 49.8414C77.6311 49.6452 77.5099 49.308 77.5805 48.9825L78.5455 44.5469L75.2728 41.552C75.0323 41.3329 74.9404 40.9859 75.0391 40.6683C75.1379 40.3514 75.4066 40.127 75.7248 40.0963L80.0549 39.6861L81.7668 35.5055C81.8931 35.1984 82.1805 35 82.4999 35C82.8194 35 83.1068 35.1984 83.2331 35.5048L84.945 39.6861L89.2744 40.0963C89.5933 40.1263 89.862 40.3514 89.9608 40.6683C90.0595 40.9853 89.9682 41.3329 89.7276 41.552L86.455 44.5463L87.42 48.9818C87.4907 49.308 87.3694 49.6452 87.1101 49.8408C86.8513 50.0364 86.5063 50.0515 86.2338 49.8806L82.4999 47.5522L78.7661 49.8819C78.6399 49.9601 78.4992 50 78.3573 50Z" fill="#F2C938"/>
<path d="M103.42 48.9818C103.491 49.308 103.369 49.6452 103.11 49.8408C102.851 50.0364 102.506 50.0515 102.234 49.8806L102.455 44.5463L103.42 48.9818ZM103.42 48.9818L102.931 49.0881M103.42 48.9818L102.931 49.0878M102.931 49.0881C102.962 49.231 102.907 49.368 102.809 49.4416L102.809 49.442C102.715 49.513 102.595 49.517 102.499 49.457L102.498 49.4563L98.7645 47.128L98.4999 46.9629L98.2353 47.128L94.5027 49.4569C94.5025 49.457 94.5023 49.4571 94.5021 49.4573C94.4536 49.4872 94.4042 49.5 94.3573 49.5C94.3028 49.5 94.2451 49.4826 94.1918 49.4424C94.0934 49.3677 94.0383 49.2303 94.0691 49.0886L95.034 44.6532L95.0952 44.3722L94.883 44.178L91.6104 41.1832L91.6095 41.1824C91.5163 41.0975 91.4739 40.954 91.5166 40.8168L91.0391 40.6683L91.5165 40.8171C91.5585 40.6823 91.665 40.6045 91.7725 40.594C91.7726 40.594 91.7727 40.594 91.7728 40.594L96.102 40.1839L96.403 40.1553L96.5176 39.8756L98.2293 35.6956C98.2293 35.6954 98.2294 35.6953 98.2294 35.6952C98.2828 35.5658 98.394 35.5 98.4999 35.5C98.6062 35.5 98.7174 35.5661 98.7706 35.6949C98.7707 35.695 98.7707 35.6951 98.7708 35.6952L100.482 39.8755L100.597 40.1553L100.898 40.1839L105.227 40.5941L105.228 40.5941C105.334 40.6041 105.441 40.6816 105.483 40.8171C105.526 40.9541 105.484 41.0979 105.391 41.1824L105.39 41.1831L102.117 44.1774L101.905 44.3715L101.966 44.6526L102.931 49.0878M102.931 49.0881L102.931 49.0878M102.931 49.0881L102.931 49.0878" fill="#D6DBE3" stroke="#D6DBE3"/>
<defs>
<filter id="filter0_d_7427_137934" x="-4" y="0" width="141" height="102" filterUnits="userSpaceOnUse" color-interpolation-filters="sRGB">
<feFlood flood-opacity="0" result="BackgroundImageFix"/>
<feColorMatrix in="SourceAlpha" type="matrix" values="0 0 0 0 0 0 0 0 0 0 0 0 0 0 0 0 0 0 127 0" result="hardAlpha"/>
<feOffset/>
<feGaussianBlur stdDeviation="2"/>
<feColorMatrix type="matrix" values="0 0 0 0 0 0 0 0 0 0 0 0 0 0 0 0 0 0 0.1 0"/>
<feBlend mode="normal" in2="BackgroundImageFix" result="effect1_dropShadow_7427_137934"/>
<feBlend mode="normal" in="SourceGraphic" in2="effect1_dropShadow_7427_137934" result="shape"/>
</filter>
</defs>
</svg>
