<svg width="141" height="102" viewBox="0 0 141 102" fill="none" xmlns="http://www.w3.org/2000/svg">
<g filter="url(#filter0_d_210_8386)">
<rect x="4" y="4" width="133" height="94" rx="4" fill="white"/>
<rect x="4.5" y="4.5" width="132" height="93" rx="3.5" stroke="white"/>
</g>
<path d="M16.072 64.2177C15.752 64.2177 15.4347 64.1883 15.12 64.1297C14.8107 64.0763 14.5573 64.0017 14.36 63.9057V63.1697C14.872 63.4097 15.424 63.5297 16.016 63.5297C16.848 63.5297 17.264 63.2497 17.264 62.6897C17.264 62.4977 17.2187 62.343 17.128 62.2257C17.0373 62.1083 16.9067 62.007 16.736 61.9217C16.5653 61.831 16.288 61.7083 15.904 61.5537C15.376 61.3403 14.9947 61.1057 14.76 60.8497C14.5253 60.5937 14.408 60.271 14.408 59.8817C14.408 59.5883 14.488 59.3297 14.648 59.1057C14.808 58.8763 15.032 58.7003 15.32 58.5777C15.608 58.4497 15.9387 58.3857 16.312 58.3857C16.616 58.3857 16.8907 58.4097 17.136 58.4577C17.3813 58.5057 17.6213 58.583 17.856 58.6897V59.3937C17.392 59.1857 16.9227 59.0817 16.448 59.0817C16.064 59.0817 15.7707 59.151 15.568 59.2897C15.3653 59.4283 15.264 59.6257 15.264 59.8817C15.264 60.0577 15.3067 60.207 15.392 60.3297C15.4827 60.447 15.6133 60.5537 15.784 60.6497C15.96 60.7403 16.2187 60.855 16.56 60.9937C16.9387 61.1483 17.2373 61.295 17.456 61.4337C17.6747 61.5723 17.84 61.743 17.952 61.9457C18.0693 62.143 18.128 62.391 18.128 62.6897C18.128 63.175 17.9547 63.551 17.608 63.8177C17.2613 64.0843 16.7493 64.2177 16.072 64.2177ZM20.9112 64.2177C20.4792 64.2177 20.0979 64.1377 19.7672 63.9777C19.4419 63.8123 19.1859 63.5777 18.9992 63.2737C18.8179 62.9643 18.7272 62.6017 18.7272 62.1857C18.7272 61.775 18.8179 61.415 18.9992 61.1057C19.1805 60.7963 19.4365 60.559 19.7672 60.3937C20.0979 60.223 20.4792 60.1377 20.9112 60.1377C21.3432 60.1377 21.7245 60.223 22.0552 60.3937C22.3859 60.559 22.6419 60.7963 22.8232 61.1057C23.0099 61.415 23.1032 61.775 23.1032 62.1857C23.1032 62.6017 23.0099 62.9643 22.8232 63.2737C22.6419 63.5777 22.3859 63.8123 22.0552 63.9777C21.7245 64.1377 21.3432 64.2177 20.9112 64.2177ZM20.9112 63.5777C21.3272 63.5777 21.6579 63.4497 21.9032 63.1937C22.1485 62.9377 22.2712 62.6017 22.2712 62.1857C22.2712 61.7537 22.1485 61.4123 21.9032 61.1617C21.6579 60.911 21.3272 60.7857 20.9112 60.7857C20.4952 60.7857 20.1645 60.911 19.9192 61.1617C19.6739 61.4123 19.5512 61.7537 19.5512 62.1857C19.5512 62.6017 19.6739 62.9377 19.9192 63.1937C20.1645 63.4497 20.4952 63.5777 20.9112 63.5777ZM23.9809 58.1857H24.7889V64.0977H23.9809V58.1857ZM27.6885 64.2177C27.3045 64.2177 26.9578 64.135 26.6485 63.9697C26.3445 63.799 26.1045 63.5617 25.9285 63.2577C25.7578 62.9483 25.6725 62.591 25.6725 62.1857C25.6725 61.7857 25.7578 61.431 25.9285 61.1217C26.1045 60.8123 26.3445 60.5723 26.6485 60.4017C26.9578 60.2257 27.3045 60.1377 27.6885 60.1377C28.3818 60.1377 28.9072 60.3483 29.2645 60.7697V58.1857H30.0725V64.0977H29.2885V63.5377C29.0752 63.7723 28.8405 63.9457 28.5845 64.0577C28.3338 64.1643 28.0352 64.2177 27.6885 64.2177ZM27.8725 63.5777C28.2032 63.5777 28.4912 63.4923 28.7365 63.3217C28.9872 63.1457 29.1632 62.911 29.2645 62.6177V61.7537C29.1738 61.4603 29.0005 61.2257 28.7445 61.0497C28.4938 60.8737 28.2032 60.7857 27.8725 60.7857C27.6112 60.7857 27.3738 60.8443 27.1605 60.9617C26.9525 61.079 26.7872 61.2443 26.6645 61.4577C26.5472 61.671 26.4885 61.9137 26.4885 62.1857C26.4885 62.4577 26.5472 62.7003 26.6645 62.9137C26.7872 63.127 26.9525 63.2923 27.1605 63.4097C27.3738 63.5217 27.6112 63.5777 27.8725 63.5777ZM35.1227 59.3857L33.9147 60.2577V59.4817L35.2347 58.5057H35.9387V64.0977H35.1227V59.3857ZM38.3249 64.2177C38.0316 64.2177 37.7703 64.1857 37.5409 64.1217V63.4417C37.7489 63.5217 37.9889 63.5617 38.2609 63.5617C39.4076 63.5617 40.0369 62.8763 40.1489 61.5057C39.9889 61.7083 39.7783 61.8603 39.5169 61.9617C39.2609 62.063 38.9729 62.1137 38.6529 62.1137C38.2956 62.1137 37.9783 62.039 37.7009 61.8897C37.4236 61.7403 37.2076 61.527 37.0529 61.2497C36.8983 60.9723 36.8209 60.6497 36.8209 60.2817C36.8209 59.919 36.9009 59.5937 37.0609 59.3057C37.2263 59.0177 37.4636 58.7937 37.7729 58.6337C38.0823 58.4683 38.4476 58.3857 38.8689 58.3857C39.2743 58.3857 39.6343 58.4763 39.9489 58.6577C40.2689 58.839 40.5196 59.111 40.7009 59.4737C40.8823 59.831 40.9729 60.2657 40.9729 60.7777C40.9729 61.887 40.7436 62.7377 40.2849 63.3297C39.8316 63.9217 39.1783 64.2177 38.3249 64.2177ZM38.8689 61.4737C39.2209 61.4737 39.5143 61.3617 39.7489 61.1377C39.9889 60.9137 40.1089 60.6177 40.1089 60.2497C40.1089 60.031 40.0556 59.8283 39.9489 59.6417C39.8476 59.455 39.7036 59.3057 39.5169 59.1937C39.3303 59.0817 39.1143 59.0257 38.8689 59.0257C38.4956 59.0257 38.1943 59.1377 37.9649 59.3617C37.7409 59.5857 37.6289 59.8843 37.6289 60.2577C37.6289 60.631 37.7409 60.927 37.9649 61.1457C38.1943 61.3643 38.4956 61.4737 38.8689 61.4737ZM41.6959 63.5617L42.9039 62.4017C43.0106 62.295 43.1599 62.1563 43.3519 61.9857C43.6559 61.7083 43.8879 61.4843 44.0479 61.3137C44.2079 61.143 44.3386 60.9617 44.4399 60.7697C44.5413 60.5723 44.5919 60.3617 44.5919 60.1377C44.5919 59.807 44.4959 59.5563 44.3039 59.3857C44.1119 59.2097 43.8319 59.1217 43.4639 59.1217C43.2133 59.1217 42.9546 59.167 42.6879 59.2577C42.4266 59.3483 42.1813 59.4817 41.9519 59.6577V58.8737C42.3999 58.5483 42.9466 58.3857 43.5919 58.3857C44.1679 58.3857 44.6159 58.5403 44.9359 58.8497C45.2559 59.1537 45.4159 59.5697 45.4159 60.0977C45.4159 60.3537 45.3599 60.599 45.2479 60.8337C45.1413 61.0683 44.9893 61.3003 44.7919 61.5297C44.5946 61.7537 44.3279 62.0283 43.9919 62.3537L42.9039 63.4177H45.6239V64.0977H41.6959V63.5617Z" fill="#484B52"/>
<path d="M78.52 58.5057H79.344V64.0977H78.52V58.5057ZM80.3872 60.2577H81.1712V60.8097C81.3525 60.5803 81.5739 60.4123 81.8352 60.3057C82.1019 60.1937 82.3792 60.1377 82.6672 60.1377C83.1792 60.1377 83.5605 60.2737 83.8112 60.5457C84.0619 60.8177 84.1872 61.183 84.1872 61.6417V64.0977H83.3792V61.7217C83.3792 61.0977 83.0805 60.7857 82.4832 60.7857C82.2272 60.7857 81.9872 60.847 81.7632 60.9697C81.5445 61.087 81.3552 61.2683 81.1952 61.5137V64.0977H80.3872V60.2577ZM84.6647 60.2577H85.5207L86.6487 63.0177L87.7767 60.2577H88.6327L87.0007 64.0977H86.2967L84.6647 60.2577ZM91.3039 64.2177C90.5945 64.2177 90.0372 64.0417 89.6319 63.6897C89.2319 63.3323 89.0319 62.831 89.0319 62.1857C89.0319 61.5563 89.2105 61.0577 89.5679 60.6897C89.9305 60.3217 90.4452 60.1377 91.1119 60.1377C91.5545 60.1377 91.9305 60.223 92.2399 60.3937C92.5492 60.559 92.7812 60.791 92.9359 61.0897C93.0959 61.383 93.1759 61.719 93.1759 62.0977V62.4977H89.7999C89.8265 62.8603 89.9785 63.1323 90.2559 63.3137C90.5385 63.4897 90.9199 63.5777 91.3999 63.5777C91.6452 63.5777 91.8932 63.5563 92.1439 63.5137C92.3945 63.4657 92.6159 63.4043 92.8079 63.3297V63.9777C92.6372 64.047 92.4105 64.103 92.1279 64.1457C91.8505 64.1937 91.5759 64.2177 91.3039 64.2177ZM92.4159 61.9297C92.4052 61.567 92.2852 61.287 92.0559 61.0897C91.8319 60.887 91.5119 60.7857 91.0959 60.7857C90.6905 60.7857 90.3759 60.8897 90.1519 61.0977C89.9279 61.3057 89.8105 61.583 89.7999 61.9297H92.4159ZM94.0591 60.2577H94.8431V60.8097C95.0244 60.5803 95.2457 60.4123 95.5071 60.3057C95.7737 60.1937 96.0511 60.1377 96.3391 60.1377C96.8511 60.1377 97.2324 60.2737 97.4831 60.5457C97.7337 60.8177 97.8591 61.183 97.8591 61.6417V64.0977H97.0511V61.7217C97.0511 61.0977 96.7524 60.7857 96.1551 60.7857C95.8991 60.7857 95.6591 60.847 95.4351 60.9697C95.2164 61.087 95.0271 61.2683 94.8671 61.5137V64.0977H94.0591V60.2577ZM100.336 64.2177C99.9466 64.2177 99.6453 64.1057 99.4319 63.8817C99.2239 63.6577 99.1199 63.3403 99.1199 62.9297V60.8817H98.5359V60.2577H99.1199V59.1057H99.9359V60.2577H100.88V60.8817H99.9359V62.8737C99.9359 63.1297 99.9839 63.311 100.08 63.4177C100.181 63.5243 100.363 63.5777 100.624 63.5777C100.779 63.5777 100.933 63.543 101.088 63.4737V64.1137C100.885 64.183 100.635 64.2177 100.336 64.2177ZM103.833 64.2177C103.401 64.2177 103.02 64.1377 102.689 63.9777C102.364 63.8123 102.108 63.5777 101.921 63.2737C101.74 62.9643 101.649 62.6017 101.649 62.1857C101.649 61.775 101.74 61.415 101.921 61.1057C102.102 60.7963 102.358 60.559 102.689 60.3937C103.02 60.223 103.401 60.1377 103.833 60.1377C104.265 60.1377 104.646 60.223 104.977 60.3937C105.308 60.559 105.564 60.7963 105.745 61.1057C105.932 61.415 106.025 61.775 106.025 62.1857C106.025 62.6017 105.932 62.9643 105.745 63.2737C105.564 63.5777 105.308 63.8123 104.977 63.9777C104.646 64.1377 104.265 64.2177 103.833 64.2177ZM103.833 63.5777C104.249 63.5777 104.58 63.4497 104.825 63.1937C105.07 62.9377 105.193 62.6017 105.193 62.1857C105.193 61.7537 105.07 61.4123 104.825 61.1617C104.58 60.911 104.249 60.7857 103.833 60.7857C103.417 60.7857 103.086 60.911 102.841 61.1617C102.596 61.4123 102.473 61.7537 102.473 62.1857C102.473 62.6017 102.596 62.9377 102.841 63.1937C103.086 63.4497 103.417 63.5777 103.833 63.5777ZM106.903 60.2577H107.687V60.9457C107.847 60.711 108.071 60.5377 108.359 60.4257C108.652 60.3137 108.991 60.2577 109.375 60.2577V60.8897C108.964 60.8897 108.612 60.9563 108.319 61.0897C108.025 61.223 107.823 61.4337 107.711 61.7217V64.0977H106.903V60.2577ZM110.797 65.6817C110.509 65.6817 110.269 65.6523 110.077 65.5937V64.9617C110.216 65.015 110.386 65.0417 110.589 65.0417C110.776 65.0417 110.922 64.9937 111.029 64.8977C111.136 64.807 111.232 64.6577 111.317 64.4497L111.501 64.0017L109.821 60.2577H110.653L111.933 63.2097L113.125 60.2577H113.957L112.229 64.5297C112.069 64.9297 111.877 65.2203 111.653 65.4017C111.434 65.5883 111.149 65.6817 110.797 65.6817ZM118.685 59.3857L117.477 60.2577V59.4817L118.797 58.5057H119.501V64.0977H118.685V59.3857ZM121.943 64.2177C121.65 64.2177 121.365 64.1857 121.087 64.1217C120.81 64.063 120.575 63.9803 120.383 63.8737V63.1457C120.602 63.279 120.85 63.383 121.127 63.4577C121.405 63.527 121.669 63.5617 121.919 63.5617C122.405 63.5617 122.773 63.4603 123.023 63.2577C123.274 63.0497 123.399 62.7457 123.399 62.3457C123.399 61.967 123.282 61.679 123.047 61.4817C122.818 61.279 122.474 61.1777 122.015 61.1777C121.823 61.1777 121.621 61.1963 121.407 61.2337C121.199 61.271 121.013 61.3217 120.847 61.3857L120.487 61.1777L120.695 58.5057H123.823V59.1937H121.439L121.319 60.6337C121.65 60.5643 121.986 60.5297 122.327 60.5297C122.919 60.5297 123.383 60.695 123.719 61.0257C124.055 61.3563 124.223 61.7963 124.223 62.3457C124.223 62.9483 124.034 63.4123 123.655 63.7377C123.277 64.0577 122.706 64.2177 121.943 64.2177Z" fill="#9799A5"/>
<rect x="14" y="33.0977" width="113" height="16" rx="8" fill="#C4C4C4"/>
<rect x="14" y="33.0977" width="60" height="16" rx="8" fill="#484B52"/>
<defs>
<filter id="filter0_d_210_8386" x="0" y="0" width="141" height="102" filterUnits="userSpaceOnUse" color-interpolation-filters="sRGB">
<feFlood flood-opacity="0" result="BackgroundImageFix"/>
<feColorMatrix in="SourceAlpha" type="matrix" values="0 0 0 0 0 0 0 0 0 0 0 0 0 0 0 0 0 0 127 0" result="hardAlpha"/>
<feOffset/>
<feGaussianBlur stdDeviation="2"/>
<feColorMatrix type="matrix" values="0 0 0 0 0 0 0 0 0 0 0 0 0 0 0 0 0 0 0.1 0"/>
<feBlend mode="normal" in2="BackgroundImageFix" result="effect1_dropShadow_210_8386"/>
<feBlend mode="normal" in="SourceGraphic" in2="effect1_dropShadow_210_8386" result="shape"/>
</filter>
</defs>
</svg>