<svg width="141" height="102" viewBox="0 0 141 102" fill="none" xmlns="http://www.w3.org/2000/svg">
<g filter="url(#filter0_d_7427_137934)">
<rect x="4" y="4" width="133" height="94" rx="4" fill="white"/>
<rect x="4.5" y="4.5" width="132" height="93" rx="3.5" stroke="#74D179"/>
</g>
<path d="M18.132 26H15.78V17.612H18.132V16.376H19.2V17.612H19.632C20.376 17.612 20.952 17.804 21.36 18.188C21.768 18.572 21.972 19.132 21.972 19.868C21.972 20.284 21.872 20.652 21.672 20.972C21.48 21.284 21.224 21.516 20.904 21.668C21.8 21.932 22.248 22.584 22.248 23.624C22.248 24.112 22.14 24.536 21.924 24.896C21.716 25.248 21.428 25.52 21.06 25.712C20.692 25.904 20.284 26 19.836 26H19.2V27.236H18.132V26ZM18.132 21.212V18.608H17.004V21.212H18.132ZM19.476 21.212C19.868 21.212 20.176 21.104 20.4 20.888C20.624 20.672 20.736 20.352 20.736 19.928C20.736 19.44 20.624 19.1 20.4 18.908C20.184 18.708 19.848 18.608 19.392 18.608H19.2V21.212H19.476ZM18.132 25.004V22.22H17.004V25.004H18.132ZM19.56 25.004C20.032 25.004 20.392 24.9 20.64 24.692C20.888 24.484 21.012 24.128 21.012 23.624C21.012 23.12 20.88 22.76 20.616 22.544C20.36 22.328 19.972 22.22 19.452 22.22H19.2V25.004H19.56ZM23.333 25.196L25.145 23.456C25.305 23.296 25.529 23.088 25.817 22.832C26.273 22.416 26.621 22.08 26.861 21.824C27.101 21.568 27.297 21.296 27.449 21.008C27.601 20.712 27.677 20.396 27.677 20.06C27.677 19.564 27.533 19.188 27.245 18.932C26.957 18.668 26.537 18.536 25.985 18.536C25.609 18.536 25.221 18.604 24.821 18.74C24.429 18.876 24.061 19.076 23.717 19.34V18.164C24.389 17.676 25.209 17.432 26.177 17.432C27.041 17.432 27.713 17.664 28.193 18.128C28.673 18.584 28.913 19.208 28.913 20C28.913 20.384 28.829 20.752 28.661 21.104C28.501 21.456 28.273 21.804 27.977 22.148C27.681 22.484 27.281 22.896 26.777 23.384L25.145 24.98H29.225V26H23.333V25.196ZM33.3776 26.18C32.4336 26.18 31.6856 25.968 31.1336 25.544C30.5816 25.112 30.3056 24.5 30.3056 23.708C30.3056 23.172 30.4456 22.724 30.7256 22.364C31.0056 21.996 31.3776 21.748 31.8416 21.62C31.4576 21.46 31.1536 21.216 30.9296 20.888C30.7056 20.552 30.5936 20.164 30.5936 19.724C30.5936 19.02 30.8456 18.464 31.3496 18.056C31.8536 17.64 32.5296 17.432 33.3776 17.432C34.2176 17.432 34.8896 17.64 35.3936 18.056C35.8976 18.464 36.1496 19.02 36.1496 19.724C36.1496 20.164 36.0376 20.552 35.8136 20.888C35.5896 21.216 35.2856 21.46 34.9016 21.62C35.3656 21.748 35.7376 21.996 36.0176 22.364C36.3056 22.724 36.4496 23.172 36.4496 23.708C36.4496 24.5 36.1736 25.112 35.6216 25.544C35.0696 25.968 34.3216 26.18 33.3776 26.18ZM33.3776 21.248C33.8496 21.248 34.2336 21.12 34.5296 20.864C34.8256 20.6 34.9736 20.256 34.9736 19.832C34.9736 19.4 34.8256 19.048 34.5296 18.776C34.2416 18.504 33.8576 18.368 33.3776 18.368C32.8976 18.368 32.5096 18.504 32.2136 18.776C31.9256 19.048 31.7816 19.4 31.7816 19.832C31.7816 20.256 31.9296 20.6 32.2256 20.864C32.5216 21.12 32.9056 21.248 33.3776 21.248ZM33.3776 25.292C33.9536 25.292 34.4056 25.144 34.7336 24.848C35.0616 24.552 35.2256 24.144 35.2256 23.624C35.2256 23.128 35.0536 22.736 34.7096 22.448C34.3736 22.16 33.9296 22.016 33.3776 22.016C32.8256 22.016 32.3776 22.16 32.0336 22.448C31.6896 22.736 31.5176 23.128 31.5176 23.624C31.5176 24.144 31.6816 24.552 32.0096 24.848C32.3456 25.144 32.8016 25.292 33.3776 25.292ZM41.0164 26.18C40.2964 26.18 39.6724 26.004 39.1444 25.652C38.6244 25.3 38.2244 24.796 37.9444 24.14C37.6644 23.484 37.5244 22.708 37.5244 21.812C37.5244 20.916 37.6604 20.14 37.9324 19.484C38.2124 18.82 38.6124 18.312 39.1324 17.96C39.6604 17.608 40.2884 17.432 41.0164 17.432C41.7444 17.432 42.3684 17.608 42.8884 17.96C43.4164 18.312 43.8164 18.82 44.0884 19.484C44.3684 20.14 44.5084 20.916 44.5084 21.812C44.5084 22.708 44.3684 23.484 44.0884 24.14C43.8084 24.796 43.4044 25.3 42.8764 25.652C42.3564 26.004 41.7364 26.18 41.0164 26.18ZM41.0164 25.1C41.7284 25.1 42.2844 24.808 42.6844 24.224C43.0924 23.632 43.2964 22.832 43.2964 21.824C43.2964 20.816 43.0964 20.016 42.6964 19.424C42.2964 18.832 41.7364 18.536 41.0164 18.536C40.2964 18.536 39.7364 18.832 39.3364 19.424C38.9364 20.016 38.7364 20.816 38.7364 21.824C38.7364 22.832 38.9364 23.632 39.3364 24.224C39.7444 24.808 40.3044 25.1 41.0164 25.1ZM46.1509 26C45.9909 26 45.8549 25.948 45.7429 25.844C45.6389 25.732 45.5869 25.596 45.5869 25.436C45.5869 25.276 45.6389 25.14 45.7429 25.028C45.8549 24.916 45.9909 24.86 46.1509 24.86C46.3109 24.86 46.4469 24.916 46.5589 25.028C46.6709 25.14 46.7269 25.276 46.7269 25.436C46.7269 25.596 46.6709 25.732 46.5589 25.844C46.4469 25.948 46.3109 26 46.1509 26ZM51.2937 26.18C50.5737 26.18 49.9497 26.004 49.4217 25.652C48.9017 25.3 48.5017 24.796 48.2217 24.14C47.9417 23.484 47.8017 22.708 47.8017 21.812C47.8017 20.916 47.9377 20.14 48.2097 19.484C48.4897 18.82 48.8897 18.312 49.4097 17.96C49.9377 17.608 50.5657 17.432 51.2937 17.432C52.0217 17.432 52.6457 17.608 53.1657 17.96C53.6937 18.312 54.0937 18.82 54.3657 19.484C54.6457 20.14 54.7857 20.916 54.7857 21.812C54.7857 22.708 54.6457 23.484 54.3657 24.14C54.0857 24.796 53.6817 25.3 53.1537 25.652C52.6337 26.004 52.0137 26.18 51.2937 26.18ZM51.2937 25.1C52.0057 25.1 52.5617 24.808 52.9617 24.224C53.3697 23.632 53.5737 22.832 53.5737 21.824C53.5737 20.816 53.3737 20.016 52.9737 19.424C52.5737 18.832 52.0137 18.536 51.2937 18.536C50.5737 18.536 50.0137 18.832 49.6137 19.424C49.2137 20.016 49.0137 20.816 49.0137 21.824C49.0137 22.832 49.2137 23.632 49.6137 24.224C50.0217 24.808 50.5817 25.1 51.2937 25.1ZM59.3562 26.18C58.6362 26.18 58.0122 26.004 57.4842 25.652C56.9642 25.3 56.5642 24.796 56.2842 24.14C56.0042 23.484 55.8642 22.708 55.8642 21.812C55.8642 20.916 56.0002 20.14 56.2722 19.484C56.5522 18.82 56.9522 18.312 57.4722 17.96C58.0002 17.608 58.6282 17.432 59.3562 17.432C60.0842 17.432 60.7082 17.608 61.2282 17.96C61.7562 18.312 62.1562 18.82 62.4282 19.484C62.7082 20.14 62.8482 20.916 62.8482 21.812C62.8482 22.708 62.7082 23.484 62.4282 24.14C62.1482 24.796 61.7442 25.3 61.2162 25.652C60.6962 26.004 60.0762 26.18 59.3562 26.18ZM59.3562 25.1C60.0682 25.1 60.6242 24.808 61.0242 24.224C61.4322 23.632 61.6362 22.832 61.6362 21.824C61.6362 20.816 61.4362 20.016 61.0362 19.424C60.6362 18.832 60.0762 18.536 59.3562 18.536C58.6362 18.536 58.0762 18.832 57.6762 19.424C57.2762 20.016 57.0762 20.816 57.0762 21.824C57.0762 22.832 57.2762 23.632 57.6762 24.224C58.0842 24.808 58.6442 25.1 59.3562 25.1Z" fill="#484B52"/>
<path d="M55.088 54.5352H53.52V48.9432H55.088V48.1192H55.8V48.9432H56.088C56.584 48.9432 56.968 49.0712 57.24 49.3272C57.512 49.5832 57.648 49.9565 57.648 50.4472C57.648 50.7245 57.5813 50.9698 57.448 51.1832C57.32 51.3912 57.1493 51.5458 56.936 51.6472C57.5333 51.8232 57.832 52.2578 57.832 52.9512C57.832 53.2765 57.76 53.5592 57.616 53.7992C57.4773 54.0338 57.2853 54.2152 57.04 54.3432C56.7947 54.4712 56.5227 54.5352 56.224 54.5352H55.8V55.3592H55.088V54.5352ZM55.088 51.3432V49.6072H54.336V51.3432H55.088ZM55.984 51.3432C56.2453 51.3432 56.4507 51.2712 56.6 51.1272C56.7493 50.9832 56.824 50.7698 56.824 50.4872C56.824 50.1618 56.7493 49.9352 56.6 49.8072C56.456 49.6738 56.232 49.6072 55.928 49.6072H55.8V51.3432H55.984ZM55.088 53.8712V52.0152H54.336V53.8712H55.088ZM56.04 53.8712C56.3547 53.8712 56.5947 53.8018 56.76 53.6632C56.9253 53.5245 57.008 53.2872 57.008 52.9512C57.008 52.6152 56.92 52.3752 56.744 52.2312C56.5733 52.0872 56.3147 52.0152 55.968 52.0152H55.8V53.8712H56.04ZM59.7633 49.8232L58.5553 50.6952V49.9192L59.8753 48.9432H60.5793V54.5352H59.7633V49.8232ZM63.5096 54.6552C62.8802 54.6552 62.3816 54.5138 62.0136 54.2312C61.6456 53.9432 61.4616 53.5352 61.4616 53.0072C61.4616 52.6498 61.5549 52.3512 61.7416 52.1112C61.9282 51.8658 62.1762 51.7005 62.4856 51.6152C62.2296 51.5085 62.0269 51.3458 61.8776 51.1272C61.7282 50.9032 61.6536 50.6445 61.6536 50.3512C61.6536 49.8818 61.8216 49.5112 62.1576 49.2392C62.4936 48.9618 62.9442 48.8232 63.5096 48.8232C64.0696 48.8232 64.5176 48.9618 64.8536 49.2392C65.1896 49.5112 65.3576 49.8818 65.3576 50.3512C65.3576 50.6445 65.2829 50.9032 65.1336 51.1272C64.9842 51.3458 64.7816 51.5085 64.5256 51.6152C64.8349 51.7005 65.0829 51.8658 65.2696 52.1112C65.4616 52.3512 65.5576 52.6498 65.5576 53.0072C65.5576 53.5352 65.3736 53.9432 65.0056 54.2312C64.6376 54.5138 64.1389 54.6552 63.5096 54.6552ZM63.5096 51.3672C63.8242 51.3672 64.0802 51.2818 64.2776 51.1112C64.4749 50.9352 64.5736 50.7058 64.5736 50.4232C64.5736 50.1352 64.4749 49.9005 64.2776 49.7192C64.0856 49.5378 63.8296 49.4472 63.5096 49.4472C63.1896 49.4472 62.9309 49.5378 62.7336 49.7192C62.5416 49.9005 62.4456 50.1352 62.4456 50.4232C62.4456 50.7058 62.5442 50.9352 62.7416 51.1112C62.9389 51.2818 63.1949 51.3672 63.5096 51.3672ZM63.5096 54.0632C63.8936 54.0632 64.1949 53.9645 64.4136 53.7672C64.6322 53.5698 64.7416 53.2978 64.7416 52.9512C64.7416 52.6205 64.6269 52.3592 64.3976 52.1672C64.1736 51.9752 63.8776 51.8792 63.5096 51.8792C63.1416 51.8792 62.8429 51.9752 62.6136 52.1672C62.3842 52.3592 62.2696 52.6205 62.2696 52.9512C62.2696 53.2978 62.3789 53.5698 62.5976 53.7672C62.8216 53.9645 63.1256 54.0632 63.5096 54.0632ZM68.6021 54.6552C68.1221 54.6552 67.7061 54.5378 67.3541 54.3032C67.0074 54.0685 66.7407 53.7325 66.5541 53.2952C66.3674 52.8578 66.2741 52.3405 66.2741 51.7432C66.2741 51.1458 66.3647 50.6285 66.5461 50.1912C66.7327 49.7485 66.9994 49.4098 67.3461 49.1752C67.6981 48.9405 68.1167 48.8232 68.6021 48.8232C69.0874 48.8232 69.5034 48.9405 69.8501 49.1752C70.2021 49.4098 70.4687 49.7485 70.6501 50.1912C70.8367 50.6285 70.9301 51.1458 70.9301 51.7432C70.9301 52.3405 70.8367 52.8578 70.6501 53.2952C70.4634 53.7325 70.1941 54.0685 69.8421 54.3032C69.4954 54.5378 69.0821 54.6552 68.6021 54.6552ZM68.6021 53.9352C69.0767 53.9352 69.4474 53.7405 69.7141 53.3512C69.9861 52.9565 70.1221 52.4232 70.1221 51.7512C70.1221 51.0792 69.9887 50.5458 69.7221 50.1512C69.4554 49.7565 69.0821 49.5592 68.6021 49.5592C68.1221 49.5592 67.7487 49.7565 67.4821 50.1512C67.2154 50.5458 67.0821 51.0792 67.0821 51.7512C67.0821 52.4232 67.2154 52.9565 67.4821 53.3512C67.7541 53.7405 68.1274 53.9352 68.6021 53.9352ZM72.0251 54.5352C71.9184 54.5352 71.8277 54.5005 71.7531 54.4312C71.6837 54.3565 71.6491 54.2658 71.6491 54.1592C71.6491 54.0525 71.6837 53.9618 71.7531 53.8872C71.8277 53.8125 71.9184 53.7752 72.0251 53.7752C72.1317 53.7752 72.2224 53.8125 72.2971 53.8872C72.3717 53.9618 72.4091 54.0525 72.4091 54.1592C72.4091 54.2658 72.3717 54.3565 72.2971 54.4312C72.2224 54.5005 72.1317 54.5352 72.0251 54.5352ZM75.4536 54.6552C74.9736 54.6552 74.5576 54.5378 74.2056 54.3032C73.859 54.0685 73.5923 53.7325 73.4056 53.2952C73.219 52.8578 73.1256 52.3405 73.1256 51.7432C73.1256 51.1458 73.2163 50.6285 73.3976 50.1912C73.5843 49.7485 73.851 49.4098 74.1976 49.1752C74.5496 48.9405 74.9683 48.8232 75.4536 48.8232C75.939 48.8232 76.355 48.9405 76.7016 49.1752C77.0536 49.4098 77.3203 49.7485 77.5016 50.1912C77.6883 50.6285 77.7816 51.1458 77.7816 51.7432C77.7816 52.3405 77.6883 52.8578 77.5016 53.2952C77.315 53.7325 77.0456 54.0685 76.6936 54.3032C76.347 54.5378 75.9336 54.6552 75.4536 54.6552ZM75.4536 53.9352C75.9283 53.9352 76.299 53.7405 76.5656 53.3512C76.8376 52.9565 76.9736 52.4232 76.9736 51.7512C76.9736 51.0792 76.8403 50.5458 76.5736 50.1512C76.307 49.7565 75.9336 49.5592 75.4536 49.5592C74.9736 49.5592 74.6003 49.7565 74.3336 50.1512C74.067 50.5458 73.9336 51.0792 73.9336 51.7512C73.9336 52.4232 74.067 52.9565 74.3336 53.3512C74.6056 53.7405 74.979 53.9352 75.4536 53.9352ZM80.8286 54.6552C80.3486 54.6552 79.9326 54.5378 79.5806 54.3032C79.234 54.0685 78.9673 53.7325 78.7806 53.2952C78.594 52.8578 78.5006 52.3405 78.5006 51.7432C78.5006 51.1458 78.5913 50.6285 78.7726 50.1912C78.9593 49.7485 79.226 49.4098 79.5726 49.1752C79.9246 48.9405 80.3433 48.8232 80.8286 48.8232C81.314 48.8232 81.73 48.9405 82.0766 49.1752C82.4286 49.4098 82.6953 49.7485 82.8766 50.1912C83.0633 50.6285 83.1566 51.1458 83.1566 51.7432C83.1566 52.3405 83.0633 52.8578 82.8766 53.2952C82.69 53.7325 82.4206 54.0685 82.0686 54.3032C81.722 54.5378 81.3086 54.6552 80.8286 54.6552ZM80.8286 53.9352C81.3033 53.9352 81.674 53.7405 81.9406 53.3512C82.2126 52.9565 82.3486 52.4232 82.3486 51.7512C82.3486 51.0792 82.2153 50.5458 81.9486 50.1512C81.682 49.7565 81.3086 49.5592 80.8286 49.5592C80.3486 49.5592 79.9753 49.7565 79.7086 50.1512C79.442 50.5458 79.3086 51.0792 79.3086 51.7512C79.3086 52.4232 79.442 52.9565 79.7086 53.3512C79.9806 53.7405 80.354 53.9352 80.8286 53.9352Z" fill="#484B52"/>
<path d="M17.088 36.6934H15.52V31.1014H17.088V30.2774H17.8V31.1014H18.088C18.584 31.1014 18.968 31.2294 19.24 31.4854C19.512 31.7414 19.648 32.1147 19.648 32.6054C19.648 32.8827 19.5813 33.128 19.448 33.3414C19.32 33.5494 19.1493 33.704 18.936 33.8054C19.5333 33.9814 19.832 34.416 19.832 35.1094C19.832 35.4347 19.76 35.7174 19.616 35.9574C19.4773 36.192 19.2853 36.3734 19.04 36.5014C18.7947 36.6294 18.5227 36.6934 18.224 36.6934H17.8V37.5174H17.088V36.6934ZM17.088 33.5014V31.7654H16.336V33.5014H17.088ZM17.984 33.5014C18.2453 33.5014 18.4507 33.4294 18.6 33.2854C18.7493 33.1414 18.824 32.928 18.824 32.6454C18.824 32.32 18.7493 32.0934 18.6 31.9654C18.456 31.832 18.232 31.7654 17.928 31.7654H17.8V33.5014H17.984ZM17.088 36.0294V34.1734H16.336V36.0294H17.088ZM18.04 36.0294C18.3547 36.0294 18.5947 35.96 18.76 35.8214C18.9253 35.6827 19.008 35.4454 19.008 35.1094C19.008 34.7734 18.92 34.5334 18.744 34.3894C18.5733 34.2454 18.3147 34.1734 17.968 34.1734H17.8V36.0294H18.04ZM23.1153 35.3174H20.3953V34.7974L23.1073 31.1014H23.9393V34.6774H24.8033V35.3174H23.9393V36.6934H23.1153V35.3174ZM23.2113 34.6774V32.0774L21.3153 34.6774H23.2113ZM27.688 36.8134C27.208 36.8134 26.792 36.696 26.44 36.4614C26.0933 36.2267 25.8267 35.8907 25.64 35.4534C25.4533 35.016 25.36 34.4987 25.36 33.9014C25.36 33.304 25.4507 32.7867 25.632 32.3494C25.8187 31.9067 26.0853 31.568 26.432 31.3334C26.784 31.0987 27.2027 30.9814 27.688 30.9814C28.1733 30.9814 28.5893 31.0987 28.936 31.3334C29.288 31.568 29.5547 31.9067 29.736 32.3494C29.9227 32.7867 30.016 33.304 30.016 33.9014C30.016 34.4987 29.9227 35.016 29.736 35.4534C29.5493 35.8907 29.28 36.2267 28.928 36.4614C28.5813 36.696 28.168 36.8134 27.688 36.8134ZM27.688 36.0934C28.1627 36.0934 28.5333 35.8987 28.8 35.5094C29.072 35.1147 29.208 34.5814 29.208 33.9094C29.208 33.2374 29.0747 32.704 28.808 32.3094C28.5413 31.9147 28.168 31.7174 27.688 31.7174C27.208 31.7174 26.8347 31.9147 26.568 32.3094C26.3013 32.704 26.168 33.2374 26.168 33.9094C26.168 34.5814 26.3013 35.1147 26.568 35.5094C26.84 35.8987 27.2133 36.0934 27.688 36.0934ZM33.063 36.8134C32.583 36.8134 32.167 36.696 31.815 36.4614C31.4683 36.2267 31.2017 35.8907 31.015 35.4534C30.8283 35.016 30.735 34.4987 30.735 33.9014C30.735 33.304 30.8257 32.7867 31.007 32.3494C31.1937 31.9067 31.4603 31.568 31.807 31.3334C32.159 31.0987 32.5777 30.9814 33.063 30.9814C33.5483 30.9814 33.9643 31.0987 34.311 31.3334C34.663 31.568 34.9297 31.9067 35.111 32.3494C35.2977 32.7867 35.391 33.304 35.391 33.9014C35.391 34.4987 35.2977 35.016 35.111 35.4534C34.9243 35.8907 34.655 36.2267 34.303 36.4614C33.9563 36.696 33.543 36.8134 33.063 36.8134ZM33.063 36.0934C33.5377 36.0934 33.9083 35.8987 34.175 35.5094C34.447 35.1147 34.583 34.5814 34.583 33.9094C34.583 33.2374 34.4497 32.704 34.183 32.3094C33.9163 31.9147 33.543 31.7174 33.063 31.7174C32.583 31.7174 32.2097 31.9147 31.943 32.3094C31.6763 32.704 31.543 33.2374 31.543 33.9094C31.543 34.5814 31.6763 35.1147 31.943 35.5094C32.215 35.8987 32.5883 36.0934 33.063 36.0934ZM36.486 36.6934C36.3793 36.6934 36.2887 36.6587 36.214 36.5894C36.1447 36.5147 36.11 36.424 36.11 36.3174C36.11 36.2107 36.1447 36.12 36.214 36.0454C36.2887 35.9707 36.3793 35.9334 36.486 35.9334C36.5927 35.9334 36.6833 35.9707 36.758 36.0454C36.8327 36.12 36.87 36.2107 36.87 36.3174C36.87 36.424 36.8327 36.5147 36.758 36.5894C36.6833 36.6587 36.5927 36.6934 36.486 36.6934ZM39.9146 36.8134C39.4346 36.8134 39.0186 36.696 38.6666 36.4614C38.3199 36.2267 38.0532 35.8907 37.8666 35.4534C37.6799 35.016 37.5866 34.4987 37.5866 33.9014C37.5866 33.304 37.6772 32.7867 37.8586 32.3494C38.0452 31.9067 38.3119 31.568 38.6586 31.3334C39.0106 31.0987 39.4292 30.9814 39.9146 30.9814C40.3999 30.9814 40.8159 31.0987 41.1626 31.3334C41.5146 31.568 41.7812 31.9067 41.9626 32.3494C42.1492 32.7867 42.2426 33.304 42.2426 33.9014C42.2426 34.4987 42.1492 35.016 41.9626 35.4534C41.7759 35.8907 41.5066 36.2267 41.1546 36.4614C40.8079 36.696 40.3946 36.8134 39.9146 36.8134ZM39.9146 36.0934C40.3892 36.0934 40.7599 35.8987 41.0266 35.5094C41.2986 35.1147 41.4346 34.5814 41.4346 33.9094C41.4346 33.2374 41.3012 32.704 41.0346 32.3094C40.7679 31.9147 40.3946 31.7174 39.9146 31.7174C39.4346 31.7174 39.0612 31.9147 38.7946 32.3094C38.5279 32.704 38.3946 33.2374 38.3946 33.9094C38.3946 34.5814 38.5279 35.1147 38.7946 35.5094C39.0666 35.8987 39.4399 36.0934 39.9146 36.0934ZM45.2896 36.8134C44.8096 36.8134 44.3936 36.696 44.0416 36.4614C43.6949 36.2267 43.4282 35.8907 43.2416 35.4534C43.0549 35.016 42.9616 34.4987 42.9616 33.9014C42.9616 33.304 43.0522 32.7867 43.2336 32.3494C43.4202 31.9067 43.6869 31.568 44.0336 31.3334C44.3856 31.0987 44.8042 30.9814 45.2896 30.9814C45.7749 30.9814 46.1909 31.0987 46.5376 31.3334C46.8896 31.568 47.1562 31.9067 47.3376 32.3494C47.5242 32.7867 47.6176 33.304 47.6176 33.9014C47.6176 34.4987 47.5242 35.016 47.3376 35.4534C47.1509 35.8907 46.8816 36.2267 46.5296 36.4614C46.1829 36.696 45.7696 36.8134 45.2896 36.8134ZM45.2896 36.0934C45.7642 36.0934 46.1349 35.8987 46.4016 35.5094C46.6736 35.1147 46.8096 34.5814 46.8096 33.9094C46.8096 33.2374 46.6762 32.704 46.4096 32.3094C46.1429 31.9147 45.7696 31.7174 45.2896 31.7174C44.8096 31.7174 44.4362 31.9147 44.1696 32.3094C43.9029 32.704 43.7696 33.2374 43.7696 33.9094C43.7696 34.5814 43.9029 35.1147 44.1696 35.5094C44.4416 35.8987 44.8149 36.0934 45.2896 36.0934Z" fill="#9799A5"/>
<path d="M15 34.1254H47.9776V34.5254H15V34.1254Z" fill="#9799A5"/>
<path d="M116.678 53.674C116.458 53.674 116.244 53.65 116.036 53.602C115.828 53.558 115.652 53.496 115.508 53.416V52.87C115.672 52.97 115.858 53.048 116.066 53.104C116.274 53.156 116.472 53.182 116.66 53.182C117.024 53.182 117.3 53.106 117.488 52.954C117.676 52.798 117.77 52.57 117.77 52.27C117.77 51.986 117.682 51.77 117.506 51.622C117.334 51.47 117.076 51.394 116.732 51.394C116.588 51.394 116.436 51.408 116.276 51.436C116.12 51.464 115.98 51.502 115.856 51.55L115.586 51.394L115.742 49.39H118.088V49.906H116.3L116.21 50.986C116.458 50.934 116.71 50.908 116.966 50.908C117.41 50.908 117.758 51.032 118.01 51.28C118.262 51.528 118.388 51.858 118.388 52.27C118.388 52.722 118.246 53.07 117.962 53.314C117.678 53.554 117.25 53.674 116.678 53.674ZM120.676 53.674C120.316 53.674 120.004 53.586 119.74 53.41C119.48 53.234 119.28 52.982 119.14 52.654C119 52.326 118.93 51.938 118.93 51.49C118.93 51.042 118.998 50.654 119.134 50.326C119.274 49.994 119.474 49.74 119.734 49.564C119.998 49.388 120.312 49.3 120.676 49.3C121.04 49.3 121.352 49.388 121.612 49.564C121.876 49.74 122.076 49.994 122.212 50.326C122.352 50.654 122.422 51.042 122.422 51.49C122.422 51.938 122.352 52.326 122.212 52.654C122.072 52.982 121.87 53.234 121.606 53.41C121.346 53.586 121.036 53.674 120.676 53.674ZM120.676 53.134C121.032 53.134 121.31 52.988 121.51 52.696C121.714 52.4 121.816 52 121.816 51.496C121.816 50.992 121.716 50.592 121.516 50.296C121.316 50 121.036 49.852 120.676 49.852C120.316 49.852 120.036 50 119.836 50.296C119.636 50.592 119.536 50.992 119.536 51.496C119.536 52 119.636 52.4 119.836 52.696C120.04 52.988 120.32 53.134 120.676 53.134ZM124.077 51.502C123.877 51.502 123.693 51.454 123.525 51.358C123.357 51.258 123.223 51.124 123.123 50.956C123.027 50.788 122.979 50.604 122.979 50.404C122.979 50.204 123.027 50.02 123.123 49.852C123.223 49.68 123.357 49.546 123.525 49.45C123.693 49.35 123.877 49.3 124.077 49.3C124.277 49.3 124.461 49.35 124.629 49.45C124.801 49.546 124.935 49.68 125.031 49.852C125.131 50.02 125.181 50.204 125.181 50.404C125.181 50.604 125.131 50.788 125.031 50.956C124.935 51.124 124.801 51.258 124.629 51.358C124.461 51.454 124.277 51.502 124.077 51.502ZM126.219 49.39H126.813L124.491 53.584H123.897L126.219 49.39ZM124.077 51.058C124.261 51.058 124.413 50.996 124.533 50.872C124.657 50.748 124.719 50.596 124.719 50.416C124.719 50.232 124.657 50.078 124.533 49.954C124.413 49.83 124.261 49.768 124.077 49.768C123.893 49.768 123.739 49.83 123.615 49.954C123.495 50.078 123.435 50.232 123.435 50.416C123.435 50.596 123.495 50.748 123.615 50.872C123.739 50.996 123.893 51.058 124.077 51.058ZM126.627 53.674C126.427 53.674 126.243 53.626 126.075 53.53C125.907 53.43 125.773 53.296 125.673 53.128C125.577 52.96 125.529 52.776 125.529 52.576C125.529 52.376 125.577 52.192 125.673 52.024C125.773 51.852 125.907 51.718 126.075 51.622C126.243 51.522 126.427 51.472 126.627 51.472C126.827 51.472 127.011 51.522 127.179 51.622C127.351 51.718 127.485 51.852 127.581 52.024C127.681 52.192 127.731 52.376 127.731 52.576C127.731 52.776 127.681 52.96 127.581 53.128C127.485 53.296 127.351 53.43 127.179 53.53C127.011 53.626 126.827 53.674 126.627 53.674ZM126.621 53.23C126.805 53.23 126.959 53.168 127.083 53.044C127.207 52.92 127.269 52.768 127.269 52.588C127.269 52.404 127.207 52.25 127.083 52.126C126.959 52.002 126.805 51.94 126.621 51.94C126.441 51.94 126.289 52.002 126.165 52.126C126.041 52.25 125.979 52.404 125.979 52.588C125.979 52.768 126.041 52.92 126.165 53.044C126.289 53.168 126.441 53.23 126.621 53.23Z" fill="#F05050"/>
<path d="M58.4161 68.1777H56.8481V62.5857H58.4161V61.7617H59.1281V62.5857H59.4161C59.9121 62.5857 60.2961 62.7137 60.5681 62.9697C60.8401 63.2257 60.9761 63.5991 60.9761 64.0897C60.9761 64.3671 60.9095 64.6124 60.7761 64.8257C60.6481 65.0337 60.4775 65.1884 60.2641 65.2897C60.8615 65.4657 61.1601 65.9004 61.1601 66.5937C61.1601 66.9191 61.0881 67.2017 60.9441 67.4417C60.8055 67.6764 60.6135 67.8577 60.3681 67.9857C60.1228 68.1137 59.8508 68.1777 59.5521 68.1777H59.1281V69.0017H58.4161V68.1777ZM58.4161 64.9857V63.2497H57.6641V64.9857H58.4161ZM59.3121 64.9857C59.5735 64.9857 59.7788 64.9137 59.9281 64.7697C60.0775 64.6257 60.1521 64.4124 60.1521 64.1297C60.1521 63.8044 60.0775 63.5777 59.9281 63.4497C59.7841 63.3164 59.5601 63.2497 59.2561 63.2497H59.1281V64.9857H59.3121ZM58.4161 67.5137V65.6577H57.6641V67.5137H58.4161ZM59.3681 67.5137C59.6828 67.5137 59.9228 67.4444 60.0881 67.3057C60.2535 67.1671 60.3361 66.9297 60.3361 66.5937C60.3361 66.2577 60.2481 66.0177 60.0721 65.8737C59.9015 65.7297 59.6428 65.6577 59.2961 65.6577H59.1281V67.5137H59.3681ZM63.3874 68.2977C63.0941 68.2977 62.8328 68.2657 62.6034 68.2017V67.5217C62.8114 67.6017 63.0514 67.6417 63.3234 67.6417C64.4701 67.6417 65.0994 66.9564 65.2114 65.5857C65.0514 65.7884 64.8408 65.9404 64.5794 66.0417C64.3234 66.1431 64.0354 66.1937 63.7154 66.1937C63.3581 66.1937 63.0408 66.1191 62.7634 65.9697C62.4861 65.8204 62.2701 65.6071 62.1154 65.3297C61.9608 65.0524 61.8834 64.7297 61.8834 64.3617C61.8834 63.9991 61.9634 63.6737 62.1234 63.3857C62.2888 63.0977 62.5261 62.8737 62.8354 62.7137C63.1448 62.5484 63.5101 62.4657 63.9314 62.4657C64.3368 62.4657 64.6968 62.5564 65.0114 62.7377C65.3314 62.9191 65.5821 63.1911 65.7634 63.5537C65.9448 63.9111 66.0354 64.3457 66.0354 64.8577C66.0354 65.9671 65.8061 66.8177 65.3474 67.4097C64.8941 68.0017 64.2408 68.2977 63.3874 68.2977ZM63.9314 65.5537C64.2834 65.5537 64.5768 65.4417 64.8114 65.2177C65.0514 64.9937 65.1714 64.6977 65.1714 64.3297C65.1714 64.1111 65.1181 63.9084 65.0114 63.7217C64.9101 63.5351 64.7661 63.3857 64.5794 63.2737C64.3928 63.1617 64.1768 63.1057 63.9314 63.1057C63.5581 63.1057 63.2568 63.2177 63.0274 63.4417C62.8034 63.6657 62.6914 63.9644 62.6914 64.3377C62.6914 64.7111 62.8034 65.0071 63.0274 65.2257C63.2568 65.4444 63.5581 65.5537 63.9314 65.5537ZM69.0864 68.2977C68.6064 68.2977 68.1904 68.1804 67.8384 67.9457C67.4918 67.7111 67.2251 67.3751 67.0384 66.9377C66.8518 66.5004 66.7584 65.9831 66.7584 65.3857C66.7584 64.7884 66.8491 64.2711 67.0304 63.8337C67.2171 63.3911 67.4838 63.0524 67.8304 62.8177C68.1824 62.5831 68.6011 62.4657 69.0864 62.4657C69.5718 62.4657 69.9878 62.5831 70.3344 62.8177C70.6864 63.0524 70.9531 63.3911 71.1344 63.8337C71.3211 64.2711 71.4144 64.7884 71.4144 65.3857C71.4144 65.9831 71.3211 66.5004 71.1344 66.9377C70.9478 67.3751 70.6784 67.7111 70.3264 67.9457C69.9798 68.1804 69.5664 68.2977 69.0864 68.2977ZM69.0864 67.5777C69.5611 67.5777 69.9318 67.3831 70.1984 66.9937C70.4704 66.5991 70.6064 66.0657 70.6064 65.3937C70.6064 64.7217 70.4731 64.1884 70.2064 63.7937C69.9398 63.3991 69.5664 63.2017 69.0864 63.2017C68.6064 63.2017 68.2331 63.3991 67.9664 63.7937C67.6998 64.1884 67.5664 64.7217 67.5664 65.3937C67.5664 66.0657 67.6998 66.5991 67.9664 66.9937C68.2384 67.3831 68.6118 67.5777 69.0864 67.5777ZM72.5094 68.1777C72.4028 68.1777 72.3121 68.1431 72.2374 68.0737C72.1681 67.9991 72.1334 67.9084 72.1334 67.8017C72.1334 67.6951 72.1681 67.6044 72.2374 67.5297C72.3121 67.4551 72.4028 67.4177 72.5094 67.4177C72.6161 67.4177 72.7068 67.4551 72.7814 67.5297C72.8561 67.6044 72.8934 67.6951 72.8934 67.8017C72.8934 67.9084 72.8561 67.9991 72.7814 68.0737C72.7068 68.1431 72.6161 68.1777 72.5094 68.1777ZM75.938 68.2977C75.458 68.2977 75.042 68.1804 74.69 67.9457C74.3433 67.7111 74.0767 67.3751 73.89 66.9377C73.7033 66.5004 73.61 65.9831 73.61 65.3857C73.61 64.7884 73.7007 64.2711 73.882 63.8337C74.0687 63.3911 74.3353 63.0524 74.682 62.8177C75.034 62.5831 75.4527 62.4657 75.938 62.4657C76.4233 62.4657 76.8393 62.5831 77.186 62.8177C77.538 63.0524 77.8047 63.3911 77.986 63.8337C78.1727 64.2711 78.266 64.7884 78.266 65.3857C78.266 65.9831 78.1727 66.5004 77.986 66.9377C77.7993 67.3751 77.53 67.7111 77.178 67.9457C76.8313 68.1804 76.418 68.2977 75.938 68.2977ZM75.938 67.5777C76.4127 67.5777 76.7833 67.3831 77.05 66.9937C77.322 66.5991 77.458 66.0657 77.458 65.3937C77.458 64.7217 77.3247 64.1884 77.058 63.7937C76.7913 63.3991 76.418 63.2017 75.938 63.2017C75.458 63.2017 75.0847 63.3991 74.818 63.7937C74.5513 64.1884 74.418 64.7217 74.418 65.3937C74.418 66.0657 74.5513 66.5991 74.818 66.9937C75.09 67.3831 75.4633 67.5777 75.938 67.5777ZM81.313 68.2977C80.833 68.2977 80.417 68.1804 80.065 67.9457C79.7183 67.7111 79.4517 67.3751 79.265 66.9377C79.0783 66.5004 78.985 65.9831 78.985 65.3857C78.985 64.7884 79.0757 64.2711 79.257 63.8337C79.4437 63.3911 79.7103 63.0524 80.057 62.8177C80.409 62.5831 80.8277 62.4657 81.313 62.4657C81.7983 62.4657 82.2143 62.5831 82.561 62.8177C82.913 63.0524 83.1797 63.3911 83.361 63.8337C83.5477 64.2711 83.641 64.7884 83.641 65.3857C83.641 65.9831 83.5477 66.5004 83.361 66.9377C83.1743 67.3751 82.905 67.7111 82.553 67.9457C82.2063 68.1804 81.793 68.2977 81.313 68.2977ZM81.313 67.5777C81.7877 67.5777 82.1583 67.3831 82.425 66.9937C82.697 66.5991 82.833 66.0657 82.833 65.3937C82.833 64.7217 82.6997 64.1884 82.433 63.7937C82.1663 63.3991 81.793 63.2017 81.313 63.2017C80.833 63.2017 80.4597 63.3991 80.193 63.7937C79.9263 64.1884 79.793 64.7217 79.793 65.3937C79.793 66.0657 79.9263 66.5991 80.193 66.9937C80.465 67.3831 80.8383 67.5777 81.313 67.5777Z" fill="#484B52"/>
<path d="M117.827 64.5993H115.601V64.0833H118.451V64.5333L116.765 68.2773H116.165L117.827 64.5993ZM120.676 68.3673C120.316 68.3673 120.004 68.2793 119.74 68.1033C119.48 67.9273 119.28 67.6753 119.14 67.3473C119 67.0193 118.93 66.6313 118.93 66.1833C118.93 65.7353 118.998 65.3473 119.134 65.0193C119.274 64.6873 119.474 64.4333 119.734 64.2573C119.998 64.0813 120.312 63.9933 120.676 63.9933C121.04 63.9933 121.352 64.0813 121.612 64.2573C121.876 64.4333 122.076 64.6873 122.212 65.0193C122.352 65.3473 122.422 65.7353 122.422 66.1833C122.422 66.6313 122.352 67.0193 122.212 67.3473C122.072 67.6753 121.87 67.9273 121.606 68.1033C121.346 68.2793 121.036 68.3673 120.676 68.3673ZM120.676 67.8273C121.032 67.8273 121.31 67.6813 121.51 67.3893C121.714 67.0933 121.816 66.6933 121.816 66.1893C121.816 65.6853 121.716 65.2853 121.516 64.9893C121.316 64.6933 121.036 64.5453 120.676 64.5453C120.316 64.5453 120.036 64.6933 119.836 64.9893C119.636 65.2853 119.536 65.6853 119.536 66.1893C119.536 66.6933 119.636 67.0933 119.836 67.3893C120.04 67.6813 120.32 67.8273 120.676 67.8273ZM124.077 66.1953C123.877 66.1953 123.693 66.1473 123.525 66.0513C123.357 65.9513 123.223 65.8173 123.123 65.6493C123.027 65.4813 122.979 65.2973 122.979 65.0973C122.979 64.8973 123.027 64.7133 123.123 64.5453C123.223 64.3733 123.357 64.2393 123.525 64.1433C123.693 64.0433 123.877 63.9933 124.077 63.9933C124.277 63.9933 124.461 64.0433 124.629 64.1433C124.801 64.2393 124.935 64.3733 125.031 64.5453C125.131 64.7133 125.181 64.8973 125.181 65.0973C125.181 65.2973 125.131 65.4813 125.031 65.6493C124.935 65.8173 124.801 65.9513 124.629 66.0513C124.461 66.1473 124.277 66.1953 124.077 66.1953ZM126.219 64.0833H126.813L124.491 68.2773H123.897L126.219 64.0833ZM124.077 65.7513C124.261 65.7513 124.413 65.6893 124.533 65.5653C124.657 65.4413 124.719 65.2893 124.719 65.1093C124.719 64.9253 124.657 64.7713 124.533 64.6473C124.413 64.5233 124.261 64.4613 124.077 64.4613C123.893 64.4613 123.739 64.5233 123.615 64.6473C123.495 64.7713 123.435 64.9253 123.435 65.1093C123.435 65.2893 123.495 65.4413 123.615 65.5653C123.739 65.6893 123.893 65.7513 124.077 65.7513ZM126.627 68.3673C126.427 68.3673 126.243 68.3193 126.075 68.2233C125.907 68.1233 125.773 67.9893 125.673 67.8213C125.577 67.6533 125.529 67.4693 125.529 67.2693C125.529 67.0693 125.577 66.8853 125.673 66.7173C125.773 66.5453 125.907 66.4113 126.075 66.3153C126.243 66.2153 126.427 66.1653 126.627 66.1653C126.827 66.1653 127.011 66.2153 127.179 66.3153C127.351 66.4113 127.485 66.5453 127.581 66.7173C127.681 66.8853 127.731 67.0693 127.731 67.2693C127.731 67.4693 127.681 67.6533 127.581 67.8213C127.485 67.9893 127.351 68.1233 127.179 68.2233C127.011 68.3193 126.827 68.3673 126.627 68.3673ZM126.621 67.9233C126.805 67.9233 126.959 67.8613 127.083 67.7373C127.207 67.6133 127.269 67.4613 127.269 67.2813C127.269 67.0973 127.207 66.9433 127.083 66.8193C126.959 66.6953 126.805 66.6333 126.621 66.6333C126.441 66.6333 126.289 66.6953 126.165 66.8193C126.041 66.9433 125.979 67.0973 125.979 67.2813C125.979 67.4613 126.041 67.6133 126.165 67.7373C126.289 67.8613 126.441 67.9233 126.621 67.9233Z" fill="#F05050"/>
<path d="M88.566 53.584H87.39V49.39H88.566V48.772H89.1V49.39H89.316C89.688 49.39 89.976 49.486 90.18 49.678C90.384 49.87 90.486 50.15 90.486 50.518C90.486 50.726 90.436 50.91 90.336 51.07C90.24 51.226 90.112 51.342 89.952 51.418C90.4 51.55 90.624 51.876 90.624 52.396C90.624 52.64 90.57 52.852 90.462 53.032C90.358 53.208 90.214 53.344 90.03 53.44C89.846 53.536 89.642 53.584 89.418 53.584H89.1V54.202H88.566V53.584ZM88.566 51.19V49.888H88.002V51.19H88.566ZM89.238 51.19C89.434 51.19 89.588 51.136 89.7 51.028C89.812 50.92 89.868 50.76 89.868 50.548C89.868 50.304 89.812 50.134 89.7 50.038C89.592 49.938 89.424 49.888 89.196 49.888H89.1V51.19H89.238ZM88.566 53.086V51.694H88.002V53.086H88.566ZM89.28 53.086C89.516 53.086 89.696 53.034 89.82 52.93C89.944 52.826 90.006 52.648 90.006 52.396C90.006 52.144 89.94 51.964 89.808 51.856C89.68 51.748 89.486 51.694 89.226 51.694H89.1V53.086H89.28ZM92.4445 53.674C92.2005 53.674 91.9665 53.654 91.7425 53.614C91.5225 53.578 91.3305 53.522 91.1665 53.446V52.942C91.5385 53.11 91.9385 53.194 92.3665 53.194C92.7345 53.194 93.0065 53.128 93.1825 52.996C93.3625 52.86 93.4525 52.668 93.4525 52.42C93.4525 52.164 93.3605 51.982 93.1765 51.874C92.9925 51.762 92.7125 51.706 92.3365 51.706H91.8445V51.214H92.3245C92.6245 51.214 92.8665 51.154 93.0505 51.034C93.2345 50.91 93.3265 50.73 93.3265 50.494C93.3265 50.262 93.2505 50.086 93.0985 49.966C92.9465 49.846 92.7265 49.786 92.4385 49.786C92.2145 49.786 92.0125 49.812 91.8325 49.864C91.6525 49.916 91.4665 50.002 91.2745 50.122V49.618C91.6265 49.406 92.0385 49.3 92.5105 49.3C92.9785 49.3 93.3345 49.404 93.5785 49.612C93.8225 49.82 93.9445 50.108 93.9445 50.476C93.9445 50.7 93.8845 50.896 93.7645 51.064C93.6445 51.232 93.4645 51.362 93.2245 51.454C93.4965 51.518 93.7045 51.634 93.8485 51.802C93.9965 51.97 94.0705 52.182 94.0705 52.438C94.0705 52.818 93.9405 53.12 93.6805 53.344C93.4205 53.564 93.0085 53.674 92.4445 53.674ZM96.1898 53.674C95.8898 53.674 95.6198 53.606 95.3798 53.47C95.1438 53.33 94.9558 53.126 94.8158 52.858C94.6798 52.586 94.6118 52.26 94.6118 51.88C94.6118 51.048 94.7818 50.41 95.1218 49.966C95.4658 49.522 95.9578 49.3 96.5978 49.3C96.8178 49.3 97.0138 49.324 97.1858 49.372V49.888C97.0458 49.828 96.8658 49.798 96.6458 49.798C95.7898 49.798 95.3198 50.312 95.2358 51.34C95.3558 51.188 95.5138 51.074 95.7098 50.998C95.9098 50.918 96.1278 50.878 96.3638 50.878C96.6358 50.878 96.8738 50.934 97.0778 51.046C97.2818 51.158 97.4398 51.318 97.5518 51.526C97.6678 51.734 97.7258 51.976 97.7258 52.252C97.7258 52.524 97.6638 52.768 97.5398 52.984C97.4198 53.2 97.2438 53.37 97.0118 53.494C96.7798 53.614 96.5058 53.674 96.1898 53.674ZM96.1898 53.2C96.4698 53.2 96.6938 53.116 96.8618 52.948C97.0338 52.776 97.1198 52.55 97.1198 52.27C97.1198 51.99 97.0338 51.768 96.8618 51.604C96.6938 51.44 96.4698 51.358 96.1898 51.358C96.0178 51.358 95.8598 51.396 95.7158 51.472C95.5758 51.548 95.4638 51.656 95.3798 51.796C95.2998 51.936 95.2598 52.098 95.2598 52.282C95.2598 52.446 95.2978 52.598 95.3738 52.738C95.4538 52.878 95.5638 52.99 95.7038 53.074C95.8438 53.158 96.0058 53.2 96.1898 53.2ZM100.014 53.674C99.654 53.674 99.342 53.586 99.078 53.41C98.818 53.234 98.618 52.982 98.478 52.654C98.338 52.326 98.268 51.938 98.268 51.49C98.268 51.042 98.336 50.654 98.472 50.326C98.612 49.994 98.812 49.74 99.072 49.564C99.336 49.388 99.65 49.3 100.014 49.3C100.378 49.3 100.69 49.388 100.95 49.564C101.214 49.74 101.414 49.994 101.55 50.326C101.69 50.654 101.76 51.042 101.76 51.49C101.76 51.938 101.69 52.326 101.55 52.654C101.41 52.982 101.208 53.234 100.944 53.41C100.684 53.586 100.374 53.674 100.014 53.674ZM100.014 53.134C100.37 53.134 100.648 52.988 100.848 52.696C101.052 52.4 101.154 52 101.154 51.496C101.154 50.992 101.054 50.592 100.854 50.296C100.654 50 100.374 49.852 100.014 49.852C99.654 49.852 99.374 50 99.174 50.296C98.974 50.592 98.874 50.992 98.874 51.496C98.874 52 98.974 52.4 99.174 52.696C99.378 52.988 99.658 53.134 100.014 53.134ZM102.581 53.584C102.501 53.584 102.433 53.558 102.377 53.506C102.325 53.45 102.299 53.382 102.299 53.302C102.299 53.222 102.325 53.154 102.377 53.098C102.433 53.042 102.501 53.014 102.581 53.014C102.661 53.014 102.729 53.042 102.785 53.098C102.841 53.154 102.869 53.222 102.869 53.302C102.869 53.382 102.841 53.45 102.785 53.506C102.729 53.558 102.661 53.584 102.581 53.584ZM105.153 53.674C104.793 53.674 104.481 53.586 104.217 53.41C103.957 53.234 103.757 52.982 103.617 52.654C103.477 52.326 103.407 51.938 103.407 51.49C103.407 51.042 103.475 50.654 103.611 50.326C103.751 49.994 103.951 49.74 104.211 49.564C104.475 49.388 104.789 49.3 105.153 49.3C105.517 49.3 105.829 49.388 106.089 49.564C106.353 49.74 106.553 49.994 106.689 50.326C106.829 50.654 106.899 51.042 106.899 51.49C106.899 51.938 106.829 52.326 106.689 52.654C106.549 52.982 106.347 53.234 106.083 53.41C105.823 53.586 105.513 53.674 105.153 53.674ZM105.153 53.134C105.509 53.134 105.787 52.988 105.987 52.696C106.191 52.4 106.293 52 106.293 51.496C106.293 50.992 106.193 50.592 105.993 50.296C105.793 50 105.513 49.852 105.153 49.852C104.793 49.852 104.513 50 104.313 50.296C104.113 50.592 104.013 50.992 104.013 51.496C104.013 52 104.113 52.4 104.313 52.696C104.517 52.988 104.797 53.134 105.153 53.134ZM109.184 53.674C108.824 53.674 108.512 53.586 108.248 53.41C107.988 53.234 107.788 52.982 107.648 52.654C107.508 52.326 107.438 51.938 107.438 51.49C107.438 51.042 107.506 50.654 107.642 50.326C107.782 49.994 107.982 49.74 108.242 49.564C108.506 49.388 108.82 49.3 109.184 49.3C109.548 49.3 109.86 49.388 110.12 49.564C110.384 49.74 110.584 49.994 110.72 50.326C110.86 50.654 110.93 51.042 110.93 51.49C110.93 51.938 110.86 52.326 110.72 52.654C110.58 52.982 110.378 53.234 110.114 53.41C109.854 53.586 109.544 53.674 109.184 53.674ZM109.184 53.134C109.54 53.134 109.818 52.988 110.018 52.696C110.222 52.4 110.324 52 110.324 51.496C110.324 50.992 110.224 50.592 110.024 50.296C109.824 50 109.544 49.852 109.184 49.852C108.824 49.852 108.544 50 108.344 50.296C108.144 50.592 108.044 50.992 108.044 51.496C108.044 52 108.144 52.4 108.344 52.696C108.548 52.988 108.828 53.134 109.184 53.134Z" fill="#9799A5"/>
<path d="M87 51.658H111.2V51.958H87V51.658Z" fill="#9799A5"/>
<path d="M88.566 68.2773H87.39V64.0833H88.566V63.4653H89.1V64.0833H89.316C89.688 64.0833 89.976 64.1793 90.18 64.3713C90.384 64.5633 90.486 64.8433 90.486 65.2113C90.486 65.4193 90.436 65.6033 90.336 65.7633C90.24 65.9193 90.112 66.0353 89.952 66.1113C90.4 66.2433 90.624 66.5693 90.624 67.0893C90.624 67.3333 90.57 67.5453 90.462 67.7253C90.358 67.9013 90.214 68.0373 90.03 68.1333C89.846 68.2293 89.642 68.2773 89.418 68.2773H89.1V68.8953H88.566V68.2773ZM88.566 65.8833V64.5813H88.002V65.8833H88.566ZM89.238 65.8833C89.434 65.8833 89.588 65.8293 89.7 65.7213C89.812 65.6133 89.868 65.4533 89.868 65.2413C89.868 64.9973 89.812 64.8273 89.7 64.7313C89.592 64.6313 89.424 64.5813 89.196 64.5813H89.1V65.8833H89.238ZM88.566 67.7793V66.3873H88.002V67.7793H88.566ZM89.28 67.7793C89.516 67.7793 89.696 67.7273 89.82 67.6233C89.944 67.5193 90.006 67.3413 90.006 67.0893C90.006 66.8373 89.94 66.6573 89.808 66.5493C89.68 66.4413 89.486 66.3873 89.226 66.3873H89.1V67.7793H89.28ZM92.4445 68.3673C92.2005 68.3673 91.9665 68.3473 91.7425 68.3073C91.5225 68.2713 91.3305 68.2153 91.1665 68.1393V67.6353C91.5385 67.8033 91.9385 67.8873 92.3665 67.8873C92.7345 67.8873 93.0065 67.8213 93.1825 67.6893C93.3625 67.5533 93.4525 67.3613 93.4525 67.1133C93.4525 66.8573 93.3605 66.6753 93.1765 66.5673C92.9925 66.4553 92.7125 66.3993 92.3365 66.3993H91.8445V65.9073H92.3245C92.6245 65.9073 92.8665 65.8473 93.0505 65.7273C93.2345 65.6033 93.3265 65.4233 93.3265 65.1873C93.3265 64.9553 93.2505 64.7793 93.0985 64.6593C92.9465 64.5393 92.7265 64.4793 92.4385 64.4793C92.2145 64.4793 92.0125 64.5053 91.8325 64.5573C91.6525 64.6093 91.4665 64.6953 91.2745 64.8153V64.3113C91.6265 64.0993 92.0385 63.9933 92.5105 63.9933C92.9785 63.9933 93.3345 64.0973 93.5785 64.3053C93.8225 64.5133 93.9445 64.8013 93.9445 65.1693C93.9445 65.3933 93.8845 65.5893 93.7645 65.7573C93.6445 65.9253 93.4645 66.0553 93.2245 66.1473C93.4965 66.2113 93.7045 66.3273 93.8485 66.4953C93.9965 66.6633 94.0705 66.8753 94.0705 67.1313C94.0705 67.5113 93.9405 67.8133 93.6805 68.0373C93.4205 68.2573 93.0085 68.3673 92.4445 68.3673ZM96.3578 68.3673C95.9978 68.3673 95.6858 68.2793 95.4218 68.1033C95.1618 67.9273 94.9618 67.6753 94.8218 67.3473C94.6818 67.0193 94.6118 66.6313 94.6118 66.1833C94.6118 65.7353 94.6798 65.3473 94.8158 65.0193C94.9558 64.6873 95.1558 64.4333 95.4158 64.2573C95.6798 64.0813 95.9938 63.9933 96.3578 63.9933C96.7218 63.9933 97.0338 64.0813 97.2938 64.2573C97.5578 64.4333 97.7578 64.6873 97.8938 65.0193C98.0338 65.3473 98.1038 65.7353 98.1038 66.1833C98.1038 66.6313 98.0338 67.0193 97.8938 67.3473C97.7538 67.6753 97.5518 67.9273 97.2878 68.1033C97.0278 68.2793 96.7178 68.3673 96.3578 68.3673ZM96.3578 67.8273C96.7138 67.8273 96.9918 67.6813 97.1918 67.3893C97.3958 67.0933 97.4978 66.6933 97.4978 66.1893C97.4978 65.6853 97.3978 65.2853 97.1978 64.9893C96.9978 64.6933 96.7178 64.5453 96.3578 64.5453C95.9978 64.5453 95.7178 64.6933 95.5178 64.9893C95.3178 65.2853 95.2178 65.6853 95.2178 66.1893C95.2178 66.6933 95.3178 67.0933 95.5178 67.3893C95.7218 67.6813 96.0018 67.8273 96.3578 67.8273ZM100.389 68.3673C100.029 68.3673 99.717 68.2793 99.453 68.1033C99.193 67.9273 98.993 67.6753 98.853 67.3473C98.713 67.0193 98.643 66.6313 98.643 66.1833C98.643 65.7353 98.711 65.3473 98.847 65.0193C98.987 64.6873 99.187 64.4333 99.447 64.2573C99.711 64.0813 100.025 63.9933 100.389 63.9933C100.753 63.9933 101.065 64.0813 101.325 64.2573C101.589 64.4333 101.789 64.6873 101.925 65.0193C102.065 65.3473 102.135 65.7353 102.135 66.1833C102.135 66.6313 102.065 67.0193 101.925 67.3473C101.785 67.6753 101.583 67.9273 101.319 68.1033C101.059 68.2793 100.749 68.3673 100.389 68.3673ZM100.389 67.8273C100.745 67.8273 101.023 67.6813 101.223 67.3893C101.427 67.0933 101.529 66.6933 101.529 66.1893C101.529 65.6853 101.429 65.2853 101.229 64.9893C101.029 64.6933 100.749 64.5453 100.389 64.5453C100.029 64.5453 99.749 64.6933 99.549 64.9893C99.349 65.2853 99.249 65.6853 99.249 66.1893C99.249 66.6933 99.349 67.0933 99.549 67.3893C99.753 67.6813 100.033 67.8273 100.389 67.8273ZM102.956 68.2773C102.876 68.2773 102.808 68.2513 102.752 68.1993C102.7 68.1433 102.674 68.0753 102.674 67.9953C102.674 67.9153 102.7 67.8473 102.752 67.7913C102.808 67.7353 102.876 67.7073 102.956 67.7073C103.036 67.7073 103.104 67.7353 103.16 67.7913C103.216 67.8473 103.244 67.9153 103.244 67.9953C103.244 68.0753 103.216 68.1433 103.16 68.1993C103.104 68.2513 103.036 68.2773 102.956 68.2773ZM105.528 68.3673C105.168 68.3673 104.856 68.2793 104.592 68.1033C104.332 67.9273 104.132 67.6753 103.992 67.3473C103.852 67.0193 103.782 66.6313 103.782 66.1833C103.782 65.7353 103.85 65.3473 103.986 65.0193C104.126 64.6873 104.326 64.4333 104.586 64.2573C104.85 64.0813 105.164 63.9933 105.528 63.9933C105.892 63.9933 106.204 64.0813 106.464 64.2573C106.728 64.4333 106.928 64.6873 107.064 65.0193C107.204 65.3473 107.274 65.7353 107.274 66.1833C107.274 66.6313 107.204 67.0193 107.064 67.3473C106.924 67.6753 106.722 67.9273 106.458 68.1033C106.198 68.2793 105.888 68.3673 105.528 68.3673ZM105.528 67.8273C105.884 67.8273 106.162 67.6813 106.362 67.3893C106.566 67.0933 106.668 66.6933 106.668 66.1893C106.668 65.6853 106.568 65.2853 106.368 64.9893C106.168 64.6933 105.888 64.5453 105.528 64.5453C105.168 64.5453 104.888 64.6933 104.688 64.9893C104.488 65.2853 104.388 65.6853 104.388 66.1893C104.388 66.6933 104.488 67.0933 104.688 67.3893C104.892 67.6813 105.172 67.8273 105.528 67.8273ZM109.559 68.3673C109.199 68.3673 108.887 68.2793 108.623 68.1033C108.363 67.9273 108.163 67.6753 108.023 67.3473C107.883 67.0193 107.813 66.6313 107.813 66.1833C107.813 65.7353 107.881 65.3473 108.017 65.0193C108.157 64.6873 108.357 64.4333 108.617 64.2573C108.881 64.0813 109.195 63.9933 109.559 63.9933C109.923 63.9933 110.235 64.0813 110.495 64.2573C110.759 64.4333 110.959 64.6873 111.095 65.0193C111.235 65.3473 111.305 65.7353 111.305 66.1833C111.305 66.6313 111.235 67.0193 111.095 67.3473C110.955 67.6753 110.753 67.9273 110.489 68.1033C110.229 68.2793 109.919 68.3673 109.559 68.3673ZM109.559 67.8273C109.915 67.8273 110.193 67.6813 110.393 67.3893C110.597 67.0933 110.699 66.6933 110.699 66.1893C110.699 65.6853 110.599 65.2853 110.399 64.9893C110.199 64.6933 109.919 64.5453 109.559 64.5453C109.199 64.5453 108.919 64.6933 108.719 64.9893C108.519 65.2853 108.419 65.6853 108.419 66.1893C108.419 66.6933 108.519 67.0933 108.719 67.3893C108.923 67.6813 109.203 67.8273 109.559 67.8273Z" fill="#9799A5"/>
<path d="M87 66.3513H111.575V66.6513H87V66.3513Z" fill="#9799A5"/>
<path d="M15.6259 48.6422H16.3399L18.0829 52.4572L19.8259 48.6422H20.5399V53.5352H19.8469V50.0562L18.2579 53.5352H17.9079L16.3119 50.0562V53.5352H15.6259V48.6422ZM23.2981 53.6402C22.6775 53.6402 22.1898 53.4862 21.8351 53.1782C21.4851 52.8655 21.3101 52.4268 21.3101 51.8622C21.3101 51.3115 21.4665 50.8752 21.7791 50.5532C22.0965 50.2312 22.5468 50.0702 23.1301 50.0702C23.5175 50.0702 23.8465 50.1448 24.1171 50.2942C24.3878 50.4388 24.5908 50.6418 24.7261 50.9032C24.8661 51.1598 24.9361 51.4538 24.9361 51.7852V52.1352H21.9821C22.0055 52.4525 22.1385 52.6905 22.3811 52.8492C22.6285 53.0032 22.9621 53.0802 23.3821 53.0802C23.5968 53.0802 23.8138 53.0615 24.0331 53.0242C24.2525 52.9822 24.4461 52.9285 24.6141 52.8632V53.4302C24.4648 53.4908 24.2665 53.5398 24.0191 53.5772C23.7765 53.6192 23.5361 53.6402 23.2981 53.6402ZM24.2711 51.6382C24.2618 51.3208 24.1568 51.0758 23.9561 50.9032C23.7601 50.7258 23.4801 50.6372 23.1161 50.6372C22.7615 50.6372 22.4861 50.7282 22.2901 50.9102C22.0941 51.0922 21.9915 51.3348 21.9821 51.6382H24.2711ZM25.7089 50.1752H26.3809V50.6582C26.5396 50.4622 26.7192 50.3152 26.9199 50.2172C27.1206 50.1192 27.3282 50.0702 27.5429 50.0702C27.8136 50.0702 28.0282 50.1168 28.1869 50.2102C28.3456 50.2988 28.4622 50.4365 28.5369 50.6232C28.6862 50.4412 28.8682 50.3035 29.0829 50.2102C29.3022 50.1168 29.5216 50.0702 29.7409 50.0702C30.1516 50.0702 30.4479 50.1752 30.6299 50.3852C30.8119 50.5905 30.9029 50.8962 30.9029 51.3022V53.5352H30.2169V51.3932C30.2169 51.1178 30.1656 50.9242 30.0629 50.8122C29.9602 50.6955 29.7852 50.6372 29.5379 50.6372C29.1832 50.6372 28.8939 50.7912 28.6699 51.0992C28.6792 51.1692 28.6839 51.2835 28.6839 51.4422V53.5352H27.9979V51.3932C27.9979 51.1178 27.9512 50.9242 27.8579 50.8122C27.7646 50.6955 27.5966 50.6372 27.3539 50.6372C26.9992 50.6372 26.6819 50.8378 26.4019 51.2392V53.5352H25.7089V50.1752ZM33.8652 53.6402C33.5619 53.6402 33.2982 53.5935 33.0742 53.5002C32.8549 53.4022 32.6519 53.2505 32.4652 53.0452V53.5352H31.7792V48.3622H32.4862V50.6232C32.6402 50.4412 32.8386 50.3035 33.0812 50.2102C33.3239 50.1168 33.5852 50.0702 33.8652 50.0702C34.2012 50.0702 34.5022 50.1472 34.7682 50.3012C35.0389 50.4505 35.2489 50.6605 35.3982 50.9312C35.5522 51.2018 35.6292 51.5122 35.6292 51.8622C35.6292 52.2168 35.5522 52.5295 35.3982 52.8002C35.2489 53.0662 35.0389 53.2738 34.7682 53.4232C34.5022 53.5678 34.2012 53.6402 33.8652 53.6402ZM33.7042 53.0802C33.9329 53.0802 34.1382 53.0312 34.3202 52.9332C34.5069 52.8305 34.6516 52.6858 34.7542 52.4992C34.8616 52.3125 34.9152 52.1002 34.9152 51.8622C34.9152 51.6242 34.8616 51.4118 34.7542 51.2252C34.6516 51.0385 34.5069 50.8938 34.3202 50.7912C34.1382 50.6885 33.9329 50.6372 33.7042 50.6372C33.4196 50.6372 33.1652 50.7142 32.9412 50.8682C32.7172 51.0222 32.5656 51.2275 32.4862 51.4842V52.2402C32.5749 52.4968 32.7266 52.7022 32.9412 52.8562C33.1606 53.0055 33.4149 53.0802 33.7042 53.0802ZM38.2483 53.6402C37.6276 53.6402 37.14 53.4862 36.7853 53.1782C36.4353 52.8655 36.2603 52.4268 36.2603 51.8622C36.2603 51.3115 36.4166 50.8752 36.7293 50.5532C37.0466 50.2312 37.497 50.0702 38.0803 50.0702C38.4676 50.0702 38.7966 50.1448 39.0673 50.2942C39.338 50.4388 39.541 50.6418 39.6763 50.9032C39.8163 51.1598 39.8863 51.4538 39.8863 51.7852V52.1352H36.9323C36.9556 52.4525 37.0886 52.6905 37.3313 52.8492C37.5786 53.0032 37.9123 53.0802 38.3323 53.0802C38.547 53.0802 38.764 53.0615 38.9833 53.0242C39.2026 52.9822 39.3963 52.9285 39.5643 52.8632V53.4302C39.415 53.4908 39.2166 53.5398 38.9693 53.5772C38.7266 53.6192 38.4863 53.6402 38.2483 53.6402ZM39.2213 51.6382C39.212 51.3208 39.107 51.0758 38.9063 50.9032C38.7103 50.7258 38.4303 50.6372 38.0663 50.6372C37.7116 50.6372 37.4363 50.7282 37.2403 50.9102C37.0443 51.0922 36.9416 51.3348 36.9323 51.6382H39.2213ZM40.6591 50.1752H41.3451V50.7772C41.4851 50.5718 41.6811 50.4202 41.9331 50.3222C42.1898 50.2242 42.4861 50.1752 42.8221 50.1752V50.7282C42.4628 50.7282 42.1548 50.7865 41.8981 50.9032C41.6414 51.0198 41.4641 51.2042 41.3661 51.4562V53.5352H40.6591V50.1752Z" fill="#484B52"/>
<path d="M29.2408 63.3355H29.9968L31.5368 67.2555L33.0768 63.3355H33.8328L31.8798 68.2285H31.1938L29.2408 63.3355ZM34.6034 63.3355H35.3244V68.2285H34.6034V63.3355ZM36.2372 63.3355H38.1202C38.6476 63.3355 39.0629 63.4685 39.3662 63.7345C39.6742 63.9958 39.8282 64.3692 39.8282 64.8545C39.8282 65.3492 39.6766 65.7248 39.3732 65.9815C39.0699 66.2335 38.6522 66.3595 38.1202 66.3595H36.9512V68.2285H36.2372V63.3355ZM38.0432 65.7645C38.3699 65.7645 38.6289 65.6968 38.8202 65.5615C39.0116 65.4262 39.1072 65.1905 39.1072 64.8545C39.1072 64.5185 39.0116 64.2828 38.8202 64.1475C38.6289 64.0075 38.3699 63.9375 38.0432 63.9375H36.9512V65.7645H38.0432Z" fill="#484B52"/>
<path d="M19.39 81.9251H19.972L22.108 85.0871V81.9251H22.726V86.1191H22.138L20.002 82.9571V86.1191H19.39V81.9251ZM25.0873 86.2091C24.5553 86.2091 24.1373 86.0771 23.8333 85.8131C23.5333 85.5451 23.3833 85.1691 23.3833 84.6851C23.3833 84.2131 23.5173 83.8391 23.7853 83.5631C24.0573 83.2871 24.4433 83.1491 24.9433 83.1491C25.2753 83.1491 25.5573 83.2131 25.7893 83.3411C26.0213 83.4651 26.1953 83.6391 26.3113 83.8631C26.4313 84.0831 26.4913 84.3351 26.4913 84.6191V84.9191H23.9593C23.9793 85.1911 24.0933 85.3951 24.3013 85.5311C24.5133 85.6631 24.7993 85.7291 25.1593 85.7291C25.3433 85.7291 25.5293 85.7131 25.7173 85.6811C25.9053 85.6451 26.0713 85.5991 26.2153 85.5431V86.0291C26.0873 86.0811 25.9173 86.1231 25.7053 86.1551C25.4973 86.1911 25.2913 86.2091 25.0873 86.2091ZM25.9213 84.4931C25.9133 84.2211 25.8233 84.0111 25.6513 83.8631C25.4833 83.7111 25.2433 83.6351 24.9313 83.6351C24.6273 83.6351 24.3913 83.7131 24.2233 83.8691C24.0553 84.0251 23.9673 84.2331 23.9593 84.4931H25.9213ZM28.1857 86.2091C27.8377 86.2091 27.5577 86.1211 27.3457 85.9451C27.1377 85.7651 27.0337 85.5231 27.0337 85.2191C27.0337 84.8991 27.1337 84.6531 27.3337 84.4811C27.5377 84.3051 27.8257 84.2171 28.1977 84.2171C28.5937 84.2171 28.9297 84.2971 29.2057 84.4571V84.3071C29.2057 84.0791 29.1357 83.9111 28.9957 83.8031C28.8597 83.6911 28.6437 83.6351 28.3477 83.6351C28.1717 83.6351 27.9997 83.6531 27.8317 83.6891C27.6677 83.7211 27.5197 83.7671 27.3877 83.8271V83.3351C27.5077 83.2791 27.6637 83.2351 27.8557 83.2031C28.0477 83.1671 28.2337 83.1491 28.4137 83.1491C28.8897 83.1491 29.2417 83.2551 29.4697 83.4671C29.7017 83.6751 29.8177 83.9651 29.8177 84.3371V86.1191H29.2477V85.7951C29.1237 85.9311 28.9757 86.0351 28.8037 86.1071C28.6357 86.1751 28.4297 86.2091 28.1857 86.2091ZM28.3357 85.7471C28.5277 85.7471 28.7017 85.7091 28.8577 85.6331C29.0137 85.5571 29.1297 85.4511 29.2057 85.3151V84.9251C28.9457 84.7571 28.6557 84.6731 28.3357 84.6731C28.1037 84.6731 27.9297 84.7191 27.8137 84.8111C27.7017 84.8991 27.6457 85.0351 27.6457 85.2191C27.6457 85.5711 27.8757 85.7471 28.3357 85.7471ZM30.5697 83.2391H31.1577V83.7551C31.2777 83.5791 31.4457 83.4491 31.6617 83.3651C31.8817 83.2811 32.1357 83.2391 32.4237 83.2391V83.7131C32.1157 83.7131 31.8517 83.7631 31.6317 83.8631C31.4117 83.9631 31.2597 84.1211 31.1757 84.3371V86.1191H30.5697V83.2391ZM36.7709 86.2091C36.2389 86.2091 35.8209 86.0771 35.5169 85.8131C35.2169 85.5451 35.0669 85.1691 35.0669 84.6851C35.0669 84.2131 35.2009 83.8391 35.4689 83.5631C35.7409 83.2871 36.1269 83.1491 36.6269 83.1491C36.9589 83.1491 37.2409 83.2131 37.4729 83.3411C37.7049 83.4651 37.8789 83.6391 37.9949 83.8631C38.1149 84.0831 38.1749 84.3351 38.1749 84.6191V84.9191H35.6429C35.6629 85.1911 35.7769 85.3951 35.9849 85.5311C36.1969 85.6631 36.4829 85.7291 36.8429 85.7291C37.0269 85.7291 37.2129 85.7131 37.4009 85.6811C37.5889 85.6451 37.7549 85.5991 37.8989 85.5431V86.0291C37.7709 86.0811 37.6009 86.1231 37.3889 86.1551C37.1809 86.1911 36.9749 86.2091 36.7709 86.2091ZM37.6049 84.4931C37.5969 84.2211 37.5069 84.0111 37.3349 83.8631C37.1669 83.7111 36.9269 83.6351 36.6149 83.6351C36.3109 83.6351 36.0749 83.7131 35.9069 83.8691C35.7389 84.0251 35.6509 84.2331 35.6429 84.4931H37.6049ZM39.8361 84.6131L38.7081 83.2391H39.3981L40.1781 84.1931L40.9641 83.2391H41.6541L40.5261 84.6131L41.7621 86.1191H41.0781L40.1781 85.0331L39.2841 86.1191H38.6001L39.8361 84.6131ZM42.4232 83.2391H43.0112V83.6651C43.3072 83.3211 43.7072 83.1491 44.2112 83.1491C44.4992 83.1491 44.7572 83.2131 44.9852 83.3411C45.2172 83.4691 45.3972 83.6491 45.5252 83.8811C45.6572 84.1091 45.7232 84.3751 45.7232 84.6791C45.7232 84.9791 45.6572 85.2451 45.5252 85.4771C45.3972 85.7091 45.2192 85.8891 44.9912 86.0171C44.7632 86.1451 44.5032 86.2091 44.2112 86.2091C43.9712 86.2091 43.7472 86.1691 43.5392 86.0891C43.3312 86.0091 43.1612 85.8911 43.0292 85.7351V87.4331H42.4232V83.2391ZM44.0732 85.7291C44.2692 85.7291 44.4452 85.6871 44.6012 85.6031C44.7612 85.5151 44.8852 85.3911 44.9732 85.2311C45.0652 85.0711 45.1112 84.8871 45.1112 84.6791C45.1112 84.4711 45.0652 84.2891 44.9732 84.1331C44.8852 83.9731 44.7612 83.8511 44.6012 83.7671C44.4452 83.6791 44.2692 83.6351 44.0732 83.6351C43.8292 83.6351 43.6132 83.6991 43.4252 83.8271C43.2412 83.9551 43.1092 84.1311 43.0292 84.3551V85.0031C43.0972 85.2231 43.2272 85.3991 43.4192 85.5311C43.6112 85.6631 43.8292 85.7291 44.0732 85.7291ZM46.7381 82.6751C46.6381 82.6751 46.5541 82.6411 46.4861 82.5731C46.4181 82.5051 46.3841 82.4211 46.3841 82.3211C46.3841 82.2211 46.4181 82.1371 46.4861 82.0691C46.5541 82.0011 46.6381 81.9671 46.7381 81.9671C46.8421 81.9671 46.9281 82.0011 46.9961 82.0691C47.0681 82.1371 47.1041 82.2211 47.1041 82.3211C47.1041 82.4211 47.0681 82.5051 46.9961 82.5731C46.9281 82.6411 46.8421 82.6751 46.7381 82.6751ZM46.4321 83.2391H47.0501V86.1191H46.4321V83.2391ZM47.8841 83.2391H48.4721V83.7551C48.5921 83.5791 48.7601 83.4491 48.9761 83.3651C49.1961 83.2811 49.4501 83.2391 49.7381 83.2391V83.7131C49.4301 83.7131 49.1661 83.7631 48.9461 83.8631C48.7261 83.9631 48.5741 84.1211 48.4901 84.3371V86.1191H47.8841V83.2391ZM51.0431 86.2091C50.6951 86.2091 50.4151 86.1211 50.2031 85.9451C49.9951 85.7651 49.8911 85.5231 49.8911 85.2191C49.8911 84.8991 49.9911 84.6531 50.1911 84.4811C50.3951 84.3051 50.6831 84.2171 51.0551 84.2171C51.4511 84.2171 51.7871 84.2971 52.0631 84.4571V84.3071C52.0631 84.0791 51.9931 83.9111 51.8531 83.8031C51.7171 83.6911 51.5011 83.6351 51.2051 83.6351C51.0291 83.6351 50.8571 83.6531 50.6891 83.6891C50.5251 83.7211 50.3771 83.7671 50.2451 83.8271V83.3351C50.3651 83.2791 50.5211 83.2351 50.7131 83.2031C50.9051 83.1671 51.0911 83.1491 51.2711 83.1491C51.7471 83.1491 52.0991 83.2551 52.3271 83.4671C52.5591 83.6751 52.6751 83.9651 52.6751 84.3371V86.1191H52.1051V85.7951C51.9811 85.9311 51.8331 86.0351 51.6611 86.1071C51.4931 86.1751 51.2871 86.2091 51.0431 86.2091ZM51.1931 85.7471C51.3851 85.7471 51.5591 85.7091 51.7151 85.6331C51.8711 85.5571 51.9871 85.4511 52.0631 85.3151V84.9251C51.8031 84.7571 51.5131 84.6731 51.1931 84.6731C50.9611 84.6731 50.7871 84.7191 50.6711 84.8111C50.5591 84.8991 50.5031 85.0351 50.5031 85.2191C50.5031 85.5711 50.7331 85.7471 51.1931 85.7471ZM54.3848 86.2091C54.0928 86.2091 53.8668 86.1251 53.7068 85.9571C53.5508 85.7891 53.4728 85.5511 53.4728 85.2431V83.7071H53.0348V83.2391H53.4728V82.3751H54.0848V83.2391H54.7928V83.7071H54.0848V85.2011C54.0848 85.3931 54.1208 85.5291 54.1928 85.6091C54.2688 85.6891 54.4048 85.7291 54.6008 85.7291C54.7168 85.7291 54.8328 85.7031 54.9488 85.6511V86.1311C54.7968 86.1831 54.6088 86.2091 54.3848 86.2091ZM55.8729 82.6751C55.7729 82.6751 55.6889 82.6411 55.6209 82.5731C55.5529 82.5051 55.5189 82.4211 55.5189 82.3211C55.5189 82.2211 55.5529 82.1371 55.6209 82.0691C55.6889 82.0011 55.7729 81.9671 55.8729 81.9671C55.9769 81.9671 56.0629 82.0011 56.1309 82.0691C56.2029 82.1371 56.2389 82.2211 56.2389 82.3211C56.2389 82.4211 56.2029 82.5051 56.1309 82.5731C56.0629 82.6411 55.9769 82.6751 55.8729 82.6751ZM55.5669 83.2391H56.1849V86.1191H55.5669V83.2391ZM58.5369 86.2091C58.2129 86.2091 57.9269 86.1491 57.6789 86.0291C57.4349 85.9051 57.2429 85.7291 57.1029 85.5011C56.9669 85.2691 56.8989 84.9971 56.8989 84.6851C56.8989 84.3771 56.9669 84.1071 57.1029 83.8751C57.2389 83.6431 57.4309 83.4651 57.6789 83.3411C57.9269 83.2131 58.2129 83.1491 58.5369 83.1491C58.8609 83.1491 59.1469 83.2131 59.3949 83.3411C59.6429 83.4651 59.8349 83.6431 59.9709 83.8751C60.1109 84.1071 60.1809 84.3771 60.1809 84.6851C60.1809 84.9971 60.1109 85.2691 59.9709 85.5011C59.8349 85.7291 59.6429 85.9051 59.3949 86.0291C59.1469 86.1491 58.8609 86.2091 58.5369 86.2091ZM58.5369 85.7291C58.8489 85.7291 59.0969 85.6331 59.2809 85.4411C59.4649 85.2491 59.5569 84.9971 59.5569 84.6851C59.5569 84.3611 59.4649 84.1051 59.2809 83.9171C59.0969 83.7291 58.8489 83.6351 58.5369 83.6351C58.2249 83.6351 57.9769 83.7291 57.7929 83.9171C57.6089 84.1051 57.5169 84.3611 57.5169 84.6851C57.5169 84.9971 57.6089 85.2491 57.7929 85.4411C57.9769 85.6331 58.2249 85.7291 58.5369 85.7291ZM60.8392 83.2391H61.4272V83.6531C61.5632 83.4811 61.7292 83.3551 61.9252 83.2751C62.1252 83.1911 62.3332 83.1491 62.5492 83.1491C62.9332 83.1491 63.2192 83.2511 63.4072 83.4551C63.5952 83.6591 63.6892 83.9331 63.6892 84.2771V86.1191H63.0832V84.3371C63.0832 83.8691 62.8592 83.6351 62.4112 83.6351C62.2192 83.6351 62.0392 83.6811 61.8712 83.7731C61.7072 83.8611 61.5652 83.9971 61.4452 84.1811V86.1191H60.8392V83.2391Z" fill="#4D4D4D"/>
<path d="M68.27 85.7171L69.176 84.8471C69.256 84.7671 69.368 84.6631 69.512 84.5351C69.74 84.3271 69.914 84.1591 70.034 84.0311C70.154 83.9031 70.252 83.7671 70.328 83.6231C70.404 83.4751 70.442 83.3171 70.442 83.1491C70.442 82.9011 70.37 82.7131 70.226 82.5851C70.082 82.4531 69.872 82.3871 69.596 82.3871C69.408 82.3871 69.214 82.4211 69.014 82.4891C68.818 82.5571 68.634 82.6571 68.462 82.7891V82.2011C68.798 81.9571 69.208 81.8351 69.692 81.8351C70.124 81.8351 70.46 81.9511 70.7 82.1831C70.94 82.4111 71.06 82.7231 71.06 83.1191C71.06 83.3111 71.018 83.4951 70.934 83.6711C70.854 83.8471 70.74 84.0211 70.592 84.1931C70.444 84.3611 70.244 84.5671 69.992 84.8111L69.176 85.6091H71.216V86.1191H68.27V85.7171ZM75.489 86.2091C75.201 86.2091 74.941 86.1471 74.709 86.0231C74.481 85.8951 74.301 85.7171 74.169 85.4891C74.041 85.2571 73.977 84.9891 73.977 84.6851C73.977 84.3851 74.041 84.1191 74.169 83.8871C74.301 83.6551 74.481 83.4751 74.709 83.3471C74.941 83.2151 75.201 83.1491 75.489 83.1491C76.009 83.1491 76.403 83.3071 76.671 83.6231V81.6851H77.277V86.1191H76.689V85.6991C76.529 85.8751 76.353 86.0051 76.161 86.0891C75.973 86.1691 75.749 86.2091 75.489 86.2091ZM75.627 85.7291C75.875 85.7291 76.091 85.6651 76.275 85.5371C76.463 85.4051 76.595 85.2291 76.671 85.0091V84.3611C76.603 84.1411 76.473 83.9651 76.281 83.8331C76.093 83.7011 75.875 83.6351 75.627 83.6351C75.431 83.6351 75.253 83.6791 75.093 83.7671C74.937 83.8551 74.813 83.9791 74.721 84.1391C74.633 84.2991 74.589 84.4811 74.589 84.6851C74.589 84.8891 74.633 85.0711 74.721 85.2311C74.813 85.3911 74.937 85.5151 75.093 85.6031C75.253 85.6871 75.431 85.7291 75.627 85.7291ZM79.0021 86.2091C78.6541 86.2091 78.3741 86.1211 78.1621 85.9451C77.9541 85.7651 77.8501 85.5231 77.8501 85.2191C77.8501 84.8991 77.9501 84.6531 78.1501 84.4811C78.3541 84.3051 78.6421 84.2171 79.0141 84.2171C79.4101 84.2171 79.7461 84.2971 80.0221 84.4571V84.3071C80.0221 84.0791 79.9521 83.9111 79.8121 83.8031C79.6761 83.6911 79.4601 83.6351 79.1641 83.6351C78.9881 83.6351 78.8161 83.6531 78.6481 83.6891C78.4841 83.7211 78.3361 83.7671 78.2041 83.8271V83.3351C78.3241 83.2791 78.4801 83.2351 78.6721 83.2031C78.8641 83.1671 79.0501 83.1491 79.2301 83.1491C79.7061 83.1491 80.0581 83.2551 80.2861 83.4671C80.5181 83.6751 80.6341 83.9651 80.6341 84.3371V86.1191H80.0641V85.7951C79.9401 85.9311 79.7921 86.0351 79.6201 86.1071C79.4521 86.1751 79.2461 86.2091 79.0021 86.2091ZM79.1521 85.7471C79.3441 85.7471 79.5181 85.7091 79.6741 85.6331C79.8301 85.5571 79.9461 85.4511 80.0221 85.3151V84.9251C79.7621 84.7571 79.4721 84.6731 79.1521 84.6731C78.9201 84.6731 78.7461 84.7191 78.6301 84.8111C78.5181 84.8991 78.4621 85.0351 78.4621 85.2191C78.4621 85.5711 78.6921 85.7471 79.1521 85.7471ZM81.7286 87.3071C81.5126 87.3071 81.3326 87.2851 81.1886 87.2411V86.7671C81.2926 86.8071 81.4206 86.8271 81.5726 86.8271C81.7126 86.8271 81.8226 86.7911 81.9026 86.7191C81.9826 86.6511 82.0546 86.5391 82.1186 86.3831L82.2566 86.0471L80.9966 83.2391H81.6206L82.5806 85.4531L83.4746 83.2391H84.0986L82.8026 86.4431C82.6826 86.7431 82.5386 86.9611 82.3706 87.0971C82.2066 87.2371 81.9926 87.3071 81.7286 87.3071ZM85.4305 86.2091C85.2305 86.2091 85.0185 86.1831 84.7945 86.1311C84.5705 86.0831 84.3945 86.0171 84.2665 85.9331V85.4171C84.4225 85.5091 84.6025 85.5851 84.8065 85.6451C85.0105 85.7011 85.2085 85.7291 85.4005 85.7291C85.6165 85.7291 85.7745 85.7031 85.8745 85.6511C85.9745 85.5991 86.0245 85.5151 86.0245 85.3991C86.0245 85.3111 86.0005 85.2411 85.9525 85.1891C85.9085 85.1331 85.8305 85.0831 85.7185 85.0391C85.6105 84.9951 85.4465 84.9431 85.2265 84.8831C84.9905 84.8151 84.8025 84.7471 84.6625 84.6791C84.5265 84.6071 84.4225 84.5171 84.3505 84.4091C84.2825 84.3011 84.2485 84.1611 84.2485 83.9891C84.2485 83.7131 84.3565 83.5051 84.5725 83.3651C84.7925 83.2211 85.0865 83.1491 85.4545 83.1491C85.6465 83.1491 85.8345 83.1671 86.0185 83.2031C86.2025 83.2391 86.3505 83.2891 86.4625 83.3531V83.8571C86.3465 83.7891 86.2025 83.7351 86.0305 83.6951C85.8625 83.6551 85.6905 83.6351 85.5145 83.6351C85.3025 83.6351 85.1405 83.6611 85.0285 83.7131C84.9165 83.7651 84.8605 83.8571 84.8605 83.9891C84.8605 84.0731 84.8845 84.1411 84.9325 84.1931C84.9805 84.2451 85.0565 84.2911 85.1605 84.3311C85.2685 84.3671 85.4385 84.4151 85.6705 84.4751C86.0345 84.5751 86.2865 84.6931 86.4265 84.8291C86.5705 84.9651 86.6425 85.1531 86.6425 85.3931C86.6425 85.6411 86.5405 85.8391 86.3365 85.9871C86.1325 86.1351 85.8305 86.2091 85.4305 86.2091Z" fill="#F05050"/>
<defs>
<filter id="filter0_d_7427_137934" x="0" y="0" width="141" height="102" filterUnits="userSpaceOnUse" color-interpolation-filters="sRGB">
<feFlood flood-opacity="0" result="BackgroundImageFix"/>
<feColorMatrix in="SourceAlpha" type="matrix" values="0 0 0 0 0 0 0 0 0 0 0 0 0 0 0 0 0 0 127 0" result="hardAlpha"/>
<feOffset/>
<feGaussianBlur stdDeviation="2"/>
<feColorMatrix type="matrix" values="0 0 0 0 0 0 0 0 0 0 0 0 0 0 0 0 0 0 0.1 0"/>
<feBlend mode="normal" in2="BackgroundImageFix" result="effect1_dropShadow_7427_137934"/>
<feBlend mode="normal" in="SourceGraphic" in2="effect1_dropShadow_7427_137934" result="shape"/>
</filter>
</defs>
</svg>
