<svg width="141" height="102" viewBox="0 0 141 102" fill="none" xmlns="http://www.w3.org/2000/svg">
<g filter="url(#filter0_d_210_8387)">
<rect x="4" y="4" width="133" height="94" rx="4" fill="white"/>
</g>
<path d="M66.65 46.1077H67.68V53.0977H66.65V46.1077ZM68.984 48.2977H69.964V48.9877C70.1907 48.701 70.4673 48.491 70.794 48.3577C71.1273 48.2177 71.474 48.1477 71.834 48.1477C72.474 48.1477 72.9507 48.3177 73.264 48.6577C73.5773 48.9977 73.734 49.4543 73.734 50.0277V53.0977H72.724V50.1277C72.724 49.3477 72.3507 48.9577 71.604 48.9577C71.284 48.9577 70.984 49.0343 70.704 49.1877C70.4307 49.3343 70.194 49.561 69.994 49.8677V53.0977H68.984V48.2977ZM74.3309 48.2977H75.4009L76.8109 51.7477L78.2209 48.2977H79.2909L77.2509 53.0977H76.3709L74.3309 48.2977ZM82.6298 53.2477C81.7432 53.2477 81.0465 53.0277 80.5398 52.5877C80.0398 52.141 79.7898 51.5143 79.7898 50.7077C79.7898 49.921 80.0132 49.2977 80.4598 48.8377C80.9132 48.3777 81.5565 48.1477 82.3898 48.1477C82.9432 48.1477 83.4132 48.2543 83.7998 48.4677C84.1865 48.6743 84.4765 48.9643 84.6698 49.3377C84.8698 49.7043 84.9698 50.1243 84.9698 50.5977V51.0977H80.7498C80.7832 51.551 80.9732 51.891 81.3198 52.1177C81.6732 52.3377 82.1498 52.4477 82.7498 52.4477C83.0565 52.4477 83.3665 52.421 83.6798 52.3677C83.9932 52.3077 84.2698 52.231 84.5098 52.1377V52.9477C84.2965 53.0343 84.0132 53.1043 83.6598 53.1577C83.3132 53.2177 82.9698 53.2477 82.6298 53.2477ZM84.0198 50.3877C84.0065 49.9343 83.8565 49.5843 83.5698 49.3377C83.2898 49.0843 82.8898 48.9577 82.3698 48.9577C81.8632 48.9577 81.4698 49.0877 81.1898 49.3477C80.9098 49.6077 80.7632 49.9543 80.7498 50.3877H84.0198ZM86.0738 48.2977H87.0538V48.9877C87.2805 48.701 87.5572 48.491 87.8838 48.3577C88.2172 48.2177 88.5638 48.1477 88.9238 48.1477C89.5638 48.1477 90.0405 48.3177 90.3538 48.6577C90.6672 48.9977 90.8238 49.4543 90.8238 50.0277V53.0977H89.8138V50.1277C89.8138 49.3477 89.4405 48.9577 88.6938 48.9577C88.3738 48.9577 88.0738 49.0343 87.7938 49.1877C87.5205 49.3343 87.2838 49.561 87.0838 49.8677V53.0977H86.0738V48.2977ZM93.9199 53.2477C93.4333 53.2477 93.0566 53.1077 92.7899 52.8277C92.5299 52.5477 92.3999 52.151 92.3999 51.6377V49.0777H91.6699V48.2977H92.3999V46.8577H93.4199V48.2977H94.5999V49.0777H93.4199V51.5677C93.4199 51.8877 93.4799 52.1143 93.5999 52.2477C93.7266 52.381 93.9533 52.4477 94.2799 52.4477C94.4733 52.4477 94.6666 52.4043 94.8599 52.3177V53.1177C94.6066 53.2043 94.2933 53.2477 93.9199 53.2477ZM98.2913 53.2477C97.7513 53.2477 97.2747 53.1477 96.8613 52.9477C96.4547 52.741 96.1347 52.4477 95.9013 52.0677C95.6747 51.681 95.5613 51.2277 95.5613 50.7077C95.5613 50.1943 95.6747 49.7443 95.9013 49.3577C96.128 48.971 96.448 48.6743 96.8613 48.4677C97.2747 48.2543 97.7513 48.1477 98.2913 48.1477C98.8313 48.1477 99.308 48.2543 99.7213 48.4677C100.135 48.6743 100.455 48.971 100.681 49.3577C100.915 49.7443 101.031 50.1943 101.031 50.7077C101.031 51.2277 100.915 51.681 100.681 52.0677C100.455 52.4477 100.135 52.741 99.7213 52.9477C99.308 53.1477 98.8313 53.2477 98.2913 53.2477ZM98.2913 52.4477C98.8113 52.4477 99.2247 52.2877 99.5313 51.9677C99.838 51.6477 99.9913 51.2277 99.9913 50.7077C99.9913 50.1677 99.838 49.741 99.5313 49.4277C99.2247 49.1143 98.8113 48.9577 98.2913 48.9577C97.7713 48.9577 97.358 49.1143 97.0513 49.4277C96.7447 49.741 96.5913 50.1677 96.5913 50.7077C96.5913 51.2277 96.7447 51.6477 97.0513 51.9677C97.358 52.2877 97.7713 52.4477 98.2913 52.4477ZM102.129 48.2977H103.109V49.1577C103.309 48.8643 103.589 48.6477 103.949 48.5077C104.315 48.3677 104.739 48.2977 105.219 48.2977V49.0877C104.705 49.0877 104.265 49.171 103.899 49.3377C103.532 49.5043 103.279 49.7677 103.139 50.1277V53.0977H102.129V48.2977ZM106.996 55.0777C106.636 55.0777 106.336 55.041 106.096 54.9677V54.1777C106.27 54.2443 106.483 54.2777 106.736 54.2777C106.97 54.2777 107.153 54.2177 107.286 54.0977C107.42 53.9843 107.54 53.7977 107.646 53.5377L107.876 52.9777L105.776 48.2977H106.816L108.416 51.9877L109.906 48.2977H110.946L108.786 53.6377C108.586 54.1377 108.346 54.501 108.066 54.7277C107.793 54.961 107.436 55.0777 106.996 55.0777ZM116.856 47.2077L115.346 48.2977V47.3277L116.996 46.1077H117.876V53.0977H116.856V47.2077ZM120.929 53.2477C120.563 53.2477 120.206 53.2077 119.859 53.1277C119.513 53.0543 119.219 52.951 118.979 52.8177V51.9077C119.253 52.0743 119.563 52.2043 119.909 52.2977C120.256 52.3843 120.586 52.4277 120.899 52.4277C121.506 52.4277 121.966 52.301 122.279 52.0477C122.593 51.7877 122.749 51.4077 122.749 50.9077C122.749 50.4343 122.603 50.0743 122.309 49.8277C122.023 49.5743 121.593 49.4477 121.019 49.4477C120.779 49.4477 120.526 49.471 120.259 49.5177C119.999 49.5643 119.766 49.6277 119.559 49.7077L119.109 49.4477L119.369 46.1077H123.279V46.9677H120.299L120.149 48.7677C120.563 48.681 120.983 48.6377 121.409 48.6377C122.149 48.6377 122.729 48.8443 123.149 49.2577C123.569 49.671 123.779 50.221 123.779 50.9077C123.779 51.661 123.543 52.241 123.069 52.6477C122.596 53.0477 121.883 53.2477 120.929 53.2477Z" fill="#9799A5"/>
<rect x="12" y="40.0977" width="50" height="20" rx="3" fill="#484B52"/>
<path d="M19.5998 54.2477C19.1998 54.2477 18.8031 54.211 18.4098 54.1377C18.0231 54.071 17.7064 53.9777 17.4598 53.8577V52.9377C18.0998 53.2377 18.7898 53.3877 19.5298 53.3877C20.5698 53.3877 21.0898 53.0377 21.0898 52.3377C21.0898 52.0977 21.0331 51.9043 20.9198 51.7577C20.8064 51.611 20.6431 51.4843 20.4298 51.3777C20.2164 51.2643 19.8698 51.111 19.3898 50.9177C18.7298 50.651 18.2531 50.3577 17.9598 50.0377C17.6664 49.7177 17.5198 49.3143 17.5198 48.8277C17.5198 48.461 17.6198 48.1377 17.8198 47.8577C18.0198 47.571 18.2998 47.351 18.6598 47.1977C19.0198 47.0377 19.4331 46.9577 19.8998 46.9577C20.2798 46.9577 20.6231 46.9877 20.9298 47.0477C21.2364 47.1077 21.5364 47.2043 21.8298 47.3377V48.2177C21.2498 47.9577 20.6631 47.8277 20.0698 47.8277C19.5898 47.8277 19.2231 47.9143 18.9698 48.0877C18.7164 48.261 18.5898 48.5077 18.5898 48.8277C18.5898 49.0477 18.6431 49.2343 18.7498 49.3877C18.8631 49.5343 19.0264 49.6677 19.2398 49.7877C19.4598 49.901 19.7831 50.0443 20.2098 50.2177C20.6831 50.411 21.0564 50.5943 21.3298 50.7677C21.6031 50.941 21.8098 51.1543 21.9498 51.4077C22.0964 51.6543 22.1698 51.9643 22.1698 52.3377C22.1698 52.9443 21.9531 53.4143 21.5198 53.7477C21.0864 54.081 20.4464 54.2477 19.5998 54.2477ZM25.6488 54.2477C25.1088 54.2477 24.6321 54.1477 24.2188 53.9477C23.8121 53.741 23.4921 53.4477 23.2588 53.0677C23.0321 52.681 22.9188 52.2277 22.9188 51.7077C22.9188 51.1943 23.0321 50.7443 23.2588 50.3577C23.4854 49.971 23.8054 49.6743 24.2188 49.4677C24.6321 49.2543 25.1088 49.1477 25.6488 49.1477C26.1888 49.1477 26.6654 49.2543 27.0788 49.4677C27.4921 49.6743 27.8121 49.971 28.0388 50.3577C28.2721 50.7443 28.3888 51.1943 28.3888 51.7077C28.3888 52.2277 28.2721 52.681 28.0388 53.0677C27.8121 53.4477 27.4921 53.741 27.0788 53.9477C26.6654 54.1477 26.1888 54.2477 25.6488 54.2477ZM25.6488 53.4477C26.1688 53.4477 26.5821 53.2877 26.8888 52.9677C27.1954 52.6477 27.3488 52.2277 27.3488 51.7077C27.3488 51.1677 27.1954 50.741 26.8888 50.4277C26.5821 50.1143 26.1688 49.9577 25.6488 49.9577C25.1288 49.9577 24.7154 50.1143 24.4088 50.4277C24.1021 50.741 23.9488 51.1677 23.9488 51.7077C23.9488 52.2277 24.1021 52.6477 24.4088 52.9677C24.7154 53.2877 25.1288 53.4477 25.6488 53.4477ZM29.4859 46.7077H30.4959V54.0977H29.4859V46.7077ZM34.1204 54.2477C33.6404 54.2477 33.2071 54.1443 32.8204 53.9377C32.4404 53.7243 32.1404 53.4277 31.9204 53.0477C31.7071 52.661 31.6004 52.2143 31.6004 51.7077C31.6004 51.2077 31.7071 50.7643 31.9204 50.3777C32.1404 49.991 32.4404 49.691 32.8204 49.4777C33.2071 49.2577 33.6404 49.1477 34.1204 49.1477C34.9871 49.1477 35.6437 49.411 36.0904 49.9377V46.7077H37.1004V54.0977H36.1204V53.3977C35.8537 53.691 35.5604 53.9077 35.2404 54.0477C34.9271 54.181 34.5537 54.2477 34.1204 54.2477ZM34.3504 53.4477C34.7637 53.4477 35.1237 53.341 35.4304 53.1277C35.7437 52.9077 35.9637 52.6143 36.0904 52.2477V51.1677C35.9771 50.801 35.7604 50.5077 35.4404 50.2877C35.1271 50.0677 34.7637 49.9577 34.3504 49.9577C34.0237 49.9577 33.7271 50.031 33.4604 50.1777C33.2004 50.3243 32.9937 50.531 32.8404 50.7977C32.6937 51.0643 32.6204 51.3677 32.6204 51.7077C32.6204 52.0477 32.6937 52.351 32.8404 52.6177C32.9937 52.8843 33.2004 53.091 33.4604 53.2377C33.7271 53.3777 34.0237 53.4477 34.3504 53.4477ZM43.4131 48.2077L41.9031 49.2977V48.3277L43.5531 47.1077H44.4331V54.0977H43.4131V48.2077ZM47.4159 54.2477C47.0493 54.2477 46.7226 54.2077 46.4359 54.1277V53.2777C46.6959 53.3777 46.9959 53.4277 47.3359 53.4277C48.7693 53.4277 49.5559 52.571 49.6959 50.8577C49.4959 51.111 49.2326 51.301 48.9059 51.4277C48.5859 51.5543 48.2259 51.6177 47.8259 51.6177C47.3793 51.6177 46.9826 51.5243 46.6359 51.3377C46.2893 51.151 46.0193 50.8843 45.8259 50.5377C45.6326 50.191 45.5359 49.7877 45.5359 49.3277C45.5359 48.8743 45.6359 48.4677 45.8359 48.1077C46.0426 47.7477 46.3393 47.4677 46.7259 47.2677C47.1126 47.061 47.5693 46.9577 48.0959 46.9577C48.6026 46.9577 49.0526 47.071 49.4459 47.2977C49.8459 47.5243 50.1593 47.8643 50.3859 48.3177C50.6126 48.7643 50.7259 49.3077 50.7259 49.9477C50.7259 51.3343 50.4393 52.3977 49.8659 53.1377C49.2993 53.8777 48.4826 54.2477 47.4159 54.2477ZM48.0959 50.8177C48.5359 50.8177 48.9026 50.6777 49.1959 50.3977C49.4959 50.1177 49.6459 49.7477 49.6459 49.2877C49.6459 49.0143 49.5793 48.761 49.4459 48.5277C49.3193 48.2943 49.1393 48.1077 48.9059 47.9677C48.6726 47.8277 48.4026 47.7577 48.0959 47.7577C47.6293 47.7577 47.2526 47.8977 46.9659 48.1777C46.6859 48.4577 46.5459 48.831 46.5459 49.2977C46.5459 49.7643 46.6859 50.1343 46.9659 50.4077C47.2526 50.681 47.6293 50.8177 48.0959 50.8177ZM51.6297 53.4277L53.1397 51.9777C53.273 51.8443 53.4597 51.671 53.6997 51.4577C54.0797 51.111 54.3697 50.831 54.5697 50.6177C54.7697 50.4043 54.933 50.1777 55.0597 49.9377C55.1864 49.691 55.2497 49.4277 55.2497 49.1477C55.2497 48.7343 55.1297 48.421 54.8897 48.2077C54.6497 47.9877 54.2997 47.8777 53.8397 47.8777C53.5264 47.8777 53.203 47.9343 52.8697 48.0477C52.543 48.161 52.2364 48.3277 51.9497 48.5477V47.5677C52.5097 47.161 53.193 46.9577 53.9997 46.9577C54.7197 46.9577 55.2797 47.151 55.6797 47.5377C56.0797 47.9177 56.2797 48.4377 56.2797 49.0977C56.2797 49.4177 56.2097 49.7243 56.0697 50.0177C55.9364 50.311 55.7464 50.601 55.4997 50.8877C55.253 51.1677 54.9197 51.511 54.4997 51.9177L53.1397 53.2477H56.5397V54.0977H51.6297V53.4277Z" fill="white"/>
<defs>
<filter id="filter0_d_210_8387" x="0" y="0" width="141" height="102" filterUnits="userSpaceOnUse" color-interpolation-filters="sRGB">
<feFlood flood-opacity="0" result="BackgroundImageFix"/>
<feColorMatrix in="SourceAlpha" type="matrix" values="0 0 0 0 0 0 0 0 0 0 0 0 0 0 0 0 0 0 127 0" result="hardAlpha"/>
<feOffset/>
<feGaussianBlur stdDeviation="2"/>
<feColorMatrix type="matrix" values="0 0 0 0 0 0 0 0 0 0 0 0 0 0 0 0 0 0 0.1 0"/>
<feBlend mode="normal" in2="BackgroundImageFix" result="effect1_dropShadow_210_8387"/>
<feBlend mode="normal" in="SourceGraphic" in2="effect1_dropShadow_210_8387" result="shape"/>
</filter>
</defs>
</svg>