<svg width="141" height="102" viewBox="0 0 141 102" fill="none" xmlns="http://www.w3.org/2000/svg">
<g filter="url(#filter0_d_7427_137934)">
<rect x="4" y="4" width="133" height="94" rx="4" fill="white"/>
</g>
<path d="M54.132 33H51.78V24.612H54.132V23.376H55.2V24.612H55.632C56.376 24.612 56.952 24.804 57.36 25.188C57.768 25.572 57.972 26.132 57.972 26.868C57.972 27.284 57.872 27.652 57.672 27.972C57.48 28.284 57.224 28.516 56.904 28.668C57.8 28.932 58.248 29.584 58.248 30.624C58.248 31.112 58.14 31.536 57.924 31.896C57.716 32.248 57.428 32.52 57.06 32.712C56.692 32.904 56.284 33 55.836 33H55.2V34.236H54.132V33ZM54.132 28.212V25.608H53.004V28.212H54.132ZM55.476 28.212C55.868 28.212 56.176 28.104 56.4 27.888C56.624 27.672 56.736 27.352 56.736 26.928C56.736 26.44 56.624 26.1 56.4 25.908C56.184 25.708 55.848 25.608 55.392 25.608H55.2V28.212H55.476ZM54.132 32.004V29.22H53.004V32.004H54.132ZM55.56 32.004C56.032 32.004 56.392 31.9 56.64 31.692C56.888 31.484 57.012 31.128 57.012 30.624C57.012 30.12 56.88 29.76 56.616 29.544C56.36 29.328 55.972 29.22 55.452 29.22H55.2V32.004H55.56ZM59.333 32.196L61.145 30.456C61.305 30.296 61.529 30.088 61.817 29.832C62.273 29.416 62.621 29.08 62.861 28.824C63.101 28.568 63.297 28.296 63.449 28.008C63.601 27.712 63.677 27.396 63.677 27.06C63.677 26.564 63.533 26.188 63.245 25.932C62.957 25.668 62.537 25.536 61.985 25.536C61.609 25.536 61.221 25.604 60.821 25.74C60.429 25.876 60.061 26.076 59.717 26.34V25.164C60.389 24.676 61.209 24.432 62.177 24.432C63.041 24.432 63.713 24.664 64.193 25.128C64.673 25.584 64.913 26.208 64.913 27C64.913 27.384 64.829 27.752 64.661 28.104C64.501 28.456 64.273 28.804 63.977 29.148C63.681 29.484 63.281 29.896 62.777 30.384L61.145 31.98H65.225V33H59.333V32.196ZM69.3776 33.18C68.4336 33.18 67.6856 32.968 67.1336 32.544C66.5816 32.112 66.3056 31.5 66.3056 30.708C66.3056 30.172 66.4456 29.724 66.7256 29.364C67.0056 28.996 67.3776 28.748 67.8416 28.62C67.4576 28.46 67.1536 28.216 66.9296 27.888C66.7056 27.552 66.5936 27.164 66.5936 26.724C66.5936 26.02 66.8456 25.464 67.3496 25.056C67.8536 24.64 68.5296 24.432 69.3776 24.432C70.2176 24.432 70.8896 24.64 71.3936 25.056C71.8976 25.464 72.1496 26.02 72.1496 26.724C72.1496 27.164 72.0376 27.552 71.8136 27.888C71.5896 28.216 71.2856 28.46 70.9016 28.62C71.3656 28.748 71.7376 28.996 72.0176 29.364C72.3056 29.724 72.4496 30.172 72.4496 30.708C72.4496 31.5 72.1736 32.112 71.6216 32.544C71.0696 32.968 70.3216 33.18 69.3776 33.18ZM69.3776 28.248C69.8496 28.248 70.2336 28.12 70.5296 27.864C70.8256 27.6 70.9736 27.256 70.9736 26.832C70.9736 26.4 70.8256 26.048 70.5296 25.776C70.2416 25.504 69.8576 25.368 69.3776 25.368C68.8976 25.368 68.5096 25.504 68.2136 25.776C67.9256 26.048 67.7816 26.4 67.7816 26.832C67.7816 27.256 67.9296 27.6 68.2256 27.864C68.5216 28.12 68.9056 28.248 69.3776 28.248ZM69.3776 32.292C69.9536 32.292 70.4056 32.144 70.7336 31.848C71.0616 31.552 71.2256 31.144 71.2256 30.624C71.2256 30.128 71.0536 29.736 70.7096 29.448C70.3736 29.16 69.9296 29.016 69.3776 29.016C68.8256 29.016 68.3776 29.16 68.0336 29.448C67.6896 29.736 67.5176 30.128 67.5176 30.624C67.5176 31.144 67.6816 31.552 68.0096 31.848C68.3456 32.144 68.8016 32.292 69.3776 32.292ZM77.0164 33.18C76.2964 33.18 75.6724 33.004 75.1444 32.652C74.6244 32.3 74.2244 31.796 73.9444 31.14C73.6644 30.484 73.5244 29.708 73.5244 28.812C73.5244 27.916 73.6604 27.14 73.9324 26.484C74.2124 25.82 74.6124 25.312 75.1324 24.96C75.6604 24.608 76.2884 24.432 77.0164 24.432C77.7444 24.432 78.3684 24.608 78.8884 24.96C79.4164 25.312 79.8164 25.82 80.0884 26.484C80.3684 27.14 80.5084 27.916 80.5084 28.812C80.5084 29.708 80.3684 30.484 80.0884 31.14C79.8084 31.796 79.4044 32.3 78.8764 32.652C78.3564 33.004 77.7364 33.18 77.0164 33.18ZM77.0164 32.1C77.7284 32.1 78.2844 31.808 78.6844 31.224C79.0924 30.632 79.2964 29.832 79.2964 28.824C79.2964 27.816 79.0964 27.016 78.6964 26.424C78.2964 25.832 77.7364 25.536 77.0164 25.536C76.2964 25.536 75.7364 25.832 75.3364 26.424C74.9364 27.016 74.7364 27.816 74.7364 28.824C74.7364 29.832 74.9364 30.632 75.3364 31.224C75.7444 31.808 76.3044 32.1 77.0164 32.1ZM82.1509 33C81.9909 33 81.8549 32.948 81.7429 32.844C81.6389 32.732 81.5869 32.596 81.5869 32.436C81.5869 32.276 81.6389 32.14 81.7429 32.028C81.8549 31.916 81.9909 31.86 82.1509 31.86C82.3109 31.86 82.4469 31.916 82.5589 32.028C82.6709 32.14 82.7269 32.276 82.7269 32.436C82.7269 32.596 82.6709 32.732 82.5589 32.844C82.4469 32.948 82.3109 33 82.1509 33ZM87.2937 33.18C86.5737 33.18 85.9497 33.004 85.4217 32.652C84.9017 32.3 84.5017 31.796 84.2217 31.14C83.9417 30.484 83.8017 29.708 83.8017 28.812C83.8017 27.916 83.9377 27.14 84.2097 26.484C84.4897 25.82 84.8897 25.312 85.4097 24.96C85.9377 24.608 86.5657 24.432 87.2937 24.432C88.0217 24.432 88.6457 24.608 89.1657 24.96C89.6937 25.312 90.0937 25.82 90.3657 26.484C90.6457 27.14 90.7857 27.916 90.7857 28.812C90.7857 29.708 90.6457 30.484 90.3657 31.14C90.0857 31.796 89.6817 32.3 89.1537 32.652C88.6337 33.004 88.0137 33.18 87.2937 33.18ZM87.2937 32.1C88.0057 32.1 88.5617 31.808 88.9617 31.224C89.3697 30.632 89.5737 29.832 89.5737 28.824C89.5737 27.816 89.3737 27.016 88.9737 26.424C88.5737 25.832 88.0137 25.536 87.2937 25.536C86.5737 25.536 86.0137 25.832 85.6137 26.424C85.2137 27.016 85.0137 27.816 85.0137 28.824C85.0137 29.832 85.2137 30.632 85.6137 31.224C86.0217 31.808 86.5817 32.1 87.2937 32.1ZM95.3562 33.18C94.6362 33.18 94.0122 33.004 93.4842 32.652C92.9642 32.3 92.5642 31.796 92.2842 31.14C92.0042 30.484 91.8642 29.708 91.8642 28.812C91.8642 27.916 92.0002 27.14 92.2722 26.484C92.5522 25.82 92.9522 25.312 93.4722 24.96C94.0002 24.608 94.6282 24.432 95.3562 24.432C96.0842 24.432 96.7082 24.608 97.2282 24.96C97.7562 25.312 98.1562 25.82 98.4282 26.484C98.7082 27.14 98.8482 27.916 98.8482 28.812C98.8482 29.708 98.7082 30.484 98.4282 31.14C98.1482 31.796 97.7442 32.3 97.2162 32.652C96.6962 33.004 96.0762 33.18 95.3562 33.18ZM95.3562 32.1C96.0682 32.1 96.6242 31.808 97.0242 31.224C97.4322 30.632 97.6362 29.832 97.6362 28.824C97.6362 27.816 97.4362 27.016 97.0362 26.424C96.6362 25.832 96.0762 25.536 95.3562 25.536C94.6362 25.536 94.0762 25.832 93.6762 26.424C93.2762 27.016 93.0762 27.816 93.0762 28.824C93.0762 29.832 93.2762 30.632 93.6762 31.224C94.0842 31.808 94.6442 32.1 95.3562 32.1Z" fill="#484B52"/>
<path d="M79.088 50H77.52V44.408H79.088V43.584H79.8V44.408H80.088C80.584 44.408 80.968 44.536 81.24 44.792C81.512 45.048 81.648 45.4213 81.648 45.912C81.648 46.1893 81.5813 46.4347 81.448 46.648C81.32 46.856 81.1493 47.0107 80.936 47.112C81.5333 47.288 81.832 47.7227 81.832 48.416C81.832 48.7413 81.76 49.024 81.616 49.264C81.4773 49.4987 81.2853 49.68 81.04 49.808C80.7947 49.936 80.5227 50 80.224 50H79.8V50.824H79.088V50ZM79.088 46.808V45.072H78.336V46.808H79.088ZM79.984 46.808C80.2453 46.808 80.4507 46.736 80.6 46.592C80.7493 46.448 80.824 46.2347 80.824 45.952C80.824 45.6267 80.7493 45.4 80.6 45.272C80.456 45.1387 80.232 45.072 79.928 45.072H79.8V46.808H79.984ZM79.088 49.336V47.48H78.336V49.336H79.088ZM80.04 49.336C80.3547 49.336 80.5947 49.2667 80.76 49.128C80.9253 48.9893 81.008 48.752 81.008 48.416C81.008 48.08 80.92 47.84 80.744 47.696C80.5733 47.552 80.3147 47.48 79.968 47.48H79.8V49.336H80.04ZM83.7633 45.288L82.5553 46.16V45.384L83.8753 44.408H84.5793V50H83.7633V45.288ZM87.5096 50.12C86.8802 50.12 86.3816 49.9787 86.0136 49.696C85.6456 49.408 85.4616 49 85.4616 48.472C85.4616 48.1147 85.5549 47.816 85.7416 47.576C85.9282 47.3307 86.1762 47.1653 86.4856 47.08C86.2296 46.9733 86.0269 46.8107 85.8776 46.592C85.7282 46.368 85.6536 46.1093 85.6536 45.816C85.6536 45.3467 85.8216 44.976 86.1576 44.704C86.4936 44.4267 86.9442 44.288 87.5096 44.288C88.0696 44.288 88.5176 44.4267 88.8536 44.704C89.1896 44.976 89.3576 45.3467 89.3576 45.816C89.3576 46.1093 89.2829 46.368 89.1336 46.592C88.9842 46.8107 88.7816 46.9733 88.5256 47.08C88.8349 47.1653 89.0829 47.3307 89.2696 47.576C89.4616 47.816 89.5576 48.1147 89.5576 48.472C89.5576 49 89.3736 49.408 89.0056 49.696C88.6376 49.9787 88.1389 50.12 87.5096 50.12ZM87.5096 46.832C87.8242 46.832 88.0802 46.7467 88.2776 46.576C88.4749 46.4 88.5736 46.1707 88.5736 45.888C88.5736 45.6 88.4749 45.3653 88.2776 45.184C88.0856 45.0027 87.8296 44.912 87.5096 44.912C87.1896 44.912 86.9309 45.0027 86.7336 45.184C86.5416 45.3653 86.4456 45.6 86.4456 45.888C86.4456 46.1707 86.5442 46.4 86.7416 46.576C86.9389 46.7467 87.1949 46.832 87.5096 46.832ZM87.5096 49.528C87.8936 49.528 88.1949 49.4293 88.4136 49.232C88.6322 49.0347 88.7416 48.7627 88.7416 48.416C88.7416 48.0853 88.6269 47.824 88.3976 47.632C88.1736 47.44 87.8776 47.344 87.5096 47.344C87.1416 47.344 86.8429 47.44 86.6136 47.632C86.3842 47.824 86.2696 48.0853 86.2696 48.416C86.2696 48.7627 86.3789 49.0347 86.5976 49.232C86.8216 49.4293 87.1256 49.528 87.5096 49.528ZM92.6021 50.12C92.1221 50.12 91.7061 50.0027 91.3541 49.768C91.0074 49.5333 90.7407 49.1973 90.5541 48.76C90.3674 48.3227 90.2741 47.8053 90.2741 47.208C90.2741 46.6107 90.3647 46.0933 90.5461 45.656C90.7327 45.2133 90.9994 44.8747 91.3461 44.64C91.6981 44.4053 92.1167 44.288 92.6021 44.288C93.0874 44.288 93.5034 44.4053 93.8501 44.64C94.2021 44.8747 94.4687 45.2133 94.6501 45.656C94.8367 46.0933 94.9301 46.6107 94.9301 47.208C94.9301 47.8053 94.8367 48.3227 94.6501 48.76C94.4634 49.1973 94.1941 49.5333 93.8421 49.768C93.4954 50.0027 93.0821 50.12 92.6021 50.12ZM92.6021 49.4C93.0767 49.4 93.4474 49.2053 93.7141 48.816C93.9861 48.4213 94.1221 47.888 94.1221 47.216C94.1221 46.544 93.9887 46.0107 93.7221 45.616C93.4554 45.2213 93.0821 45.024 92.6021 45.024C92.1221 45.024 91.7487 45.2213 91.4821 45.616C91.2154 46.0107 91.0821 46.544 91.0821 47.216C91.0821 47.888 91.2154 48.4213 91.4821 48.816C91.7541 49.2053 92.1274 49.4 92.6021 49.4ZM96.0251 50C95.9184 50 95.8277 49.9653 95.7531 49.896C95.6837 49.8213 95.6491 49.7307 95.6491 49.624C95.6491 49.5173 95.6837 49.4267 95.7531 49.352C95.8277 49.2773 95.9184 49.24 96.0251 49.24C96.1317 49.24 96.2224 49.2773 96.2971 49.352C96.3717 49.4267 96.4091 49.5173 96.4091 49.624C96.4091 49.7307 96.3717 49.8213 96.2971 49.896C96.2224 49.9653 96.1317 50 96.0251 50ZM99.4536 50.12C98.9736 50.12 98.5576 50.0027 98.2056 49.768C97.859 49.5333 97.5923 49.1973 97.4056 48.76C97.219 48.3227 97.1256 47.8053 97.1256 47.208C97.1256 46.6107 97.2163 46.0933 97.3976 45.656C97.5843 45.2133 97.851 44.8747 98.1976 44.64C98.5496 44.4053 98.9683 44.288 99.4536 44.288C99.939 44.288 100.355 44.4053 100.702 44.64C101.054 44.8747 101.32 45.2133 101.502 45.656C101.688 46.0933 101.782 46.6107 101.782 47.208C101.782 47.8053 101.688 48.3227 101.502 48.76C101.315 49.1973 101.046 49.5333 100.694 49.768C100.347 50.0027 99.9336 50.12 99.4536 50.12ZM99.4536 49.4C99.9283 49.4 100.299 49.2053 100.566 48.816C100.838 48.4213 100.974 47.888 100.974 47.216C100.974 46.544 100.84 46.0107 100.574 45.616C100.307 45.2213 99.9336 45.024 99.4536 45.024C98.9736 45.024 98.6003 45.2213 98.3336 45.616C98.067 46.0107 97.9336 46.544 97.9336 47.216C97.9336 47.888 98.067 48.4213 98.3336 48.816C98.6056 49.2053 98.979 49.4 99.4536 49.4ZM104.829 50.12C104.349 50.12 103.933 50.0027 103.581 49.768C103.234 49.5333 102.967 49.1973 102.781 48.76C102.594 48.3227 102.501 47.8053 102.501 47.208C102.501 46.6107 102.591 46.0933 102.773 45.656C102.959 45.2133 103.226 44.8747 103.573 44.64C103.925 44.4053 104.343 44.288 104.829 44.288C105.314 44.288 105.73 44.4053 106.077 44.64C106.429 44.8747 106.695 45.2133 106.877 45.656C107.063 46.0933 107.157 46.6107 107.157 47.208C107.157 47.8053 107.063 48.3227 106.877 48.76C106.69 49.1973 106.421 49.5333 106.069 49.768C105.722 50.0027 105.309 50.12 104.829 50.12ZM104.829 49.4C105.303 49.4 105.674 49.2053 105.941 48.816C106.213 48.4213 106.349 47.888 106.349 47.216C106.349 46.544 106.215 46.0107 105.949 45.616C105.682 45.2213 105.309 45.024 104.829 45.024C104.349 45.024 103.975 45.2213 103.709 45.616C103.442 46.0107 103.309 46.544 103.309 47.216C103.309 47.888 103.442 48.4213 103.709 48.816C103.981 49.2053 104.354 49.4 104.829 49.4Z" fill="#484B52"/>
<path d="M16.088 33H14.52V27.408H16.088V26.584H16.8V27.408H17.088C17.584 27.408 17.968 27.536 18.24 27.792C18.512 28.048 18.648 28.4213 18.648 28.912C18.648 29.1893 18.5813 29.4347 18.448 29.648C18.32 29.856 18.1493 30.0107 17.936 30.112C18.5333 30.288 18.832 30.7227 18.832 31.416C18.832 31.7413 18.76 32.024 18.616 32.264C18.4773 32.4987 18.2853 32.68 18.04 32.808C17.7947 32.936 17.5227 33 17.224 33H16.8V33.824H16.088V33ZM16.088 29.808V28.072H15.336V29.808H16.088ZM16.984 29.808C17.2453 29.808 17.4507 29.736 17.6 29.592C17.7493 29.448 17.824 29.2347 17.824 28.952C17.824 28.6267 17.7493 28.4 17.6 28.272C17.456 28.1387 17.232 28.072 16.928 28.072H16.8V29.808H16.984ZM16.088 32.336V30.48H15.336V32.336H16.088ZM17.04 32.336C17.3547 32.336 17.5947 32.2667 17.76 32.128C17.9253 31.9893 18.008 31.752 18.008 31.416C18.008 31.08 17.92 30.84 17.744 30.696C17.5733 30.552 17.3147 30.48 16.968 30.48H16.8V32.336H17.04ZM22.1153 31.624H19.3953V31.104L22.1073 27.408H22.9393V30.984H23.8033V31.624H22.9393V33H22.1153V31.624ZM22.2113 30.984V28.384L20.3153 30.984H22.2113ZM26.688 33.12C26.208 33.12 25.792 33.0027 25.44 32.768C25.0933 32.5333 24.8267 32.1973 24.64 31.76C24.4533 31.3227 24.36 30.8053 24.36 30.208C24.36 29.6107 24.4507 29.0933 24.632 28.656C24.8187 28.2133 25.0853 27.8747 25.432 27.64C25.784 27.4053 26.2027 27.288 26.688 27.288C27.1733 27.288 27.5893 27.4053 27.936 27.64C28.288 27.8747 28.5547 28.2133 28.736 28.656C28.9227 29.0933 29.016 29.6107 29.016 30.208C29.016 30.8053 28.9227 31.3227 28.736 31.76C28.5493 32.1973 28.28 32.5333 27.928 32.768C27.5813 33.0027 27.168 33.12 26.688 33.12ZM26.688 32.4C27.1627 32.4 27.5333 32.2053 27.8 31.816C28.072 31.4213 28.208 30.888 28.208 30.216C28.208 29.544 28.0747 29.0107 27.808 28.616C27.5413 28.2213 27.168 28.024 26.688 28.024C26.208 28.024 25.8347 28.2213 25.568 28.616C25.3013 29.0107 25.168 29.544 25.168 30.216C25.168 30.888 25.3013 31.4213 25.568 31.816C25.84 32.2053 26.2133 32.4 26.688 32.4ZM32.063 33.12C31.583 33.12 31.167 33.0027 30.815 32.768C30.4683 32.5333 30.2017 32.1973 30.015 31.76C29.8283 31.3227 29.735 30.8053 29.735 30.208C29.735 29.6107 29.8257 29.0933 30.007 28.656C30.1937 28.2133 30.4603 27.8747 30.807 27.64C31.159 27.4053 31.5777 27.288 32.063 27.288C32.5483 27.288 32.9643 27.4053 33.311 27.64C33.663 27.8747 33.9297 28.2133 34.111 28.656C34.2977 29.0933 34.391 29.6107 34.391 30.208C34.391 30.8053 34.2977 31.3227 34.111 31.76C33.9243 32.1973 33.655 32.5333 33.303 32.768C32.9563 33.0027 32.543 33.12 32.063 33.12ZM32.063 32.4C32.5377 32.4 32.9083 32.2053 33.175 31.816C33.447 31.4213 33.583 30.888 33.583 30.216C33.583 29.544 33.4497 29.0107 33.183 28.616C32.9163 28.2213 32.543 28.024 32.063 28.024C31.583 28.024 31.2097 28.2213 30.943 28.616C30.6763 29.0107 30.543 29.544 30.543 30.216C30.543 30.888 30.6763 31.4213 30.943 31.816C31.215 32.2053 31.5883 32.4 32.063 32.4ZM35.486 33C35.3793 33 35.2887 32.9653 35.214 32.896C35.1447 32.8213 35.11 32.7307 35.11 32.624C35.11 32.5173 35.1447 32.4267 35.214 32.352C35.2887 32.2773 35.3793 32.24 35.486 32.24C35.5927 32.24 35.6833 32.2773 35.758 32.352C35.8327 32.4267 35.87 32.5173 35.87 32.624C35.87 32.7307 35.8327 32.8213 35.758 32.896C35.6833 32.9653 35.5927 33 35.486 33ZM38.9146 33.12C38.4346 33.12 38.0186 33.0027 37.6666 32.768C37.3199 32.5333 37.0532 32.1973 36.8666 31.76C36.6799 31.3227 36.5866 30.8053 36.5866 30.208C36.5866 29.6107 36.6772 29.0933 36.8586 28.656C37.0452 28.2133 37.3119 27.8747 37.6586 27.64C38.0106 27.4053 38.4292 27.288 38.9146 27.288C39.3999 27.288 39.8159 27.4053 40.1626 27.64C40.5146 27.8747 40.7812 28.2133 40.9626 28.656C41.1492 29.0933 41.2426 29.6107 41.2426 30.208C41.2426 30.8053 41.1492 31.3227 40.9626 31.76C40.7759 32.1973 40.5066 32.5333 40.1546 32.768C39.8079 33.0027 39.3946 33.12 38.9146 33.12ZM38.9146 32.4C39.3892 32.4 39.7599 32.2053 40.0266 31.816C40.2986 31.4213 40.4346 30.888 40.4346 30.216C40.4346 29.544 40.3012 29.0107 40.0346 28.616C39.7679 28.2213 39.3946 28.024 38.9146 28.024C38.4346 28.024 38.0612 28.2213 37.7946 28.616C37.5279 29.0107 37.3946 29.544 37.3946 30.216C37.3946 30.888 37.5279 31.4213 37.7946 31.816C38.0666 32.2053 38.4399 32.4 38.9146 32.4ZM44.2896 33.12C43.8096 33.12 43.3936 33.0027 43.0416 32.768C42.6949 32.5333 42.4282 32.1973 42.2416 31.76C42.0549 31.3227 41.9616 30.8053 41.9616 30.208C41.9616 29.6107 42.0522 29.0933 42.2336 28.656C42.4202 28.2133 42.6869 27.8747 43.0336 27.64C43.3856 27.4053 43.8042 27.288 44.2896 27.288C44.7749 27.288 45.1909 27.4053 45.5376 27.64C45.8896 27.8747 46.1562 28.2133 46.3376 28.656C46.5242 29.0933 46.6176 29.6107 46.6176 30.208C46.6176 30.8053 46.5242 31.3227 46.3376 31.76C46.1509 32.1973 45.8816 32.5333 45.5296 32.768C45.1829 33.0027 44.7696 33.12 44.2896 33.12ZM44.2896 32.4C44.7642 32.4 45.1349 32.2053 45.4016 31.816C45.6736 31.4213 45.8096 30.888 45.8096 30.216C45.8096 29.544 45.6762 29.0107 45.4096 28.616C45.1429 28.2213 44.7696 28.024 44.2896 28.024C43.8096 28.024 43.4362 28.2213 43.1696 28.616C42.9029 29.0107 42.7696 29.544 42.7696 30.216C42.7696 30.888 42.9029 31.4213 43.1696 31.816C43.4416 32.2053 43.8149 32.4 44.2896 32.4Z" fill="#9799A5"/>
<path d="M14 30.432H46.9776V30.832H14V30.432Z" fill="#9799A5"/>
<path d="M115.678 49.09C115.458 49.09 115.244 49.066 115.036 49.018C114.828 48.974 114.652 48.912 114.508 48.832V48.286C114.672 48.386 114.858 48.464 115.066 48.52C115.274 48.572 115.472 48.598 115.66 48.598C116.024 48.598 116.3 48.522 116.488 48.37C116.676 48.214 116.77 47.986 116.77 47.686C116.77 47.402 116.682 47.186 116.506 47.038C116.334 46.886 116.076 46.81 115.732 46.81C115.588 46.81 115.436 46.824 115.276 46.852C115.12 46.88 114.98 46.918 114.856 46.966L114.586 46.81L114.742 44.806H117.088V45.322H115.3L115.21 46.402C115.458 46.35 115.71 46.324 115.966 46.324C116.41 46.324 116.758 46.448 117.01 46.696C117.262 46.944 117.388 47.274 117.388 47.686C117.388 48.138 117.246 48.486 116.962 48.73C116.678 48.97 116.25 49.09 115.678 49.09ZM119.676 49.09C119.316 49.09 119.004 49.002 118.74 48.826C118.48 48.65 118.28 48.398 118.14 48.07C118 47.742 117.93 47.354 117.93 46.906C117.93 46.458 117.998 46.07 118.134 45.742C118.274 45.41 118.474 45.156 118.734 44.98C118.998 44.804 119.312 44.716 119.676 44.716C120.04 44.716 120.352 44.804 120.612 44.98C120.876 45.156 121.076 45.41 121.212 45.742C121.352 46.07 121.422 46.458 121.422 46.906C121.422 47.354 121.352 47.742 121.212 48.07C121.072 48.398 120.87 48.65 120.606 48.826C120.346 49.002 120.036 49.09 119.676 49.09ZM119.676 48.55C120.032 48.55 120.31 48.404 120.51 48.112C120.714 47.816 120.816 47.416 120.816 46.912C120.816 46.408 120.716 46.008 120.516 45.712C120.316 45.416 120.036 45.268 119.676 45.268C119.316 45.268 119.036 45.416 118.836 45.712C118.636 46.008 118.536 46.408 118.536 46.912C118.536 47.416 118.636 47.816 118.836 48.112C119.04 48.404 119.32 48.55 119.676 48.55ZM123.077 46.918C122.877 46.918 122.693 46.87 122.525 46.774C122.357 46.674 122.223 46.54 122.123 46.372C122.027 46.204 121.979 46.02 121.979 45.82C121.979 45.62 122.027 45.436 122.123 45.268C122.223 45.096 122.357 44.962 122.525 44.866C122.693 44.766 122.877 44.716 123.077 44.716C123.277 44.716 123.461 44.766 123.629 44.866C123.801 44.962 123.935 45.096 124.031 45.268C124.131 45.436 124.181 45.62 124.181 45.82C124.181 46.02 124.131 46.204 124.031 46.372C123.935 46.54 123.801 46.674 123.629 46.774C123.461 46.87 123.277 46.918 123.077 46.918ZM125.219 44.806H125.813L123.491 49H122.897L125.219 44.806ZM123.077 46.474C123.261 46.474 123.413 46.412 123.533 46.288C123.657 46.164 123.719 46.012 123.719 45.832C123.719 45.648 123.657 45.494 123.533 45.37C123.413 45.246 123.261 45.184 123.077 45.184C122.893 45.184 122.739 45.246 122.615 45.37C122.495 45.494 122.435 45.648 122.435 45.832C122.435 46.012 122.495 46.164 122.615 46.288C122.739 46.412 122.893 46.474 123.077 46.474ZM125.627 49.09C125.427 49.09 125.243 49.042 125.075 48.946C124.907 48.846 124.773 48.712 124.673 48.544C124.577 48.376 124.529 48.192 124.529 47.992C124.529 47.792 124.577 47.608 124.673 47.44C124.773 47.268 124.907 47.134 125.075 47.038C125.243 46.938 125.427 46.888 125.627 46.888C125.827 46.888 126.011 46.938 126.179 47.038C126.351 47.134 126.485 47.268 126.581 47.44C126.681 47.608 126.731 47.792 126.731 47.992C126.731 48.192 126.681 48.376 126.581 48.544C126.485 48.712 126.351 48.846 126.179 48.946C126.011 49.042 125.827 49.09 125.627 49.09ZM125.621 48.646C125.805 48.646 125.959 48.584 126.083 48.46C126.207 48.336 126.269 48.184 126.269 48.004C126.269 47.82 126.207 47.666 126.083 47.542C125.959 47.418 125.805 47.356 125.621 47.356C125.441 47.356 125.289 47.418 125.165 47.542C125.041 47.666 124.979 47.82 124.979 48.004C124.979 48.184 125.041 48.336 125.165 48.46C125.289 48.584 125.441 48.646 125.621 48.646Z" fill="#9799A5"/>
<path d="M82.4161 63H80.8481V57.408H82.4161V56.584H83.1281V57.408H83.4161C83.9121 57.408 84.2961 57.536 84.5681 57.792C84.8401 58.048 84.9761 58.4213 84.9761 58.912C84.9761 59.1893 84.9095 59.4347 84.7761 59.648C84.6481 59.856 84.4775 60.0107 84.2641 60.112C84.8615 60.288 85.1601 60.7227 85.1601 61.416C85.1601 61.7413 85.0881 62.024 84.9441 62.264C84.8055 62.4987 84.6135 62.68 84.3681 62.808C84.1228 62.936 83.8508 63 83.5521 63H83.1281V63.824H82.4161V63ZM82.4161 59.808V58.072H81.6641V59.808H82.4161ZM83.3121 59.808C83.5735 59.808 83.7788 59.736 83.9281 59.592C84.0775 59.448 84.1521 59.2347 84.1521 58.952C84.1521 58.6267 84.0775 58.4 83.9281 58.272C83.7841 58.1387 83.5601 58.072 83.2561 58.072H83.1281V59.808H83.3121ZM82.4161 62.336V60.48H81.6641V62.336H82.4161ZM83.3681 62.336C83.6828 62.336 83.9228 62.2667 84.0881 62.128C84.2535 61.9893 84.3361 61.752 84.3361 61.416C84.3361 61.08 84.2481 60.84 84.0721 60.696C83.9015 60.552 83.6428 60.48 83.2961 60.48H83.1281V62.336H83.3681ZM87.3874 63.12C87.0941 63.12 86.8328 63.088 86.6034 63.024V62.344C86.8114 62.424 87.0514 62.464 87.3234 62.464C88.4701 62.464 89.0994 61.7787 89.2114 60.408C89.0514 60.6107 88.8408 60.7627 88.5794 60.864C88.3234 60.9653 88.0354 61.016 87.7154 61.016C87.3581 61.016 87.0408 60.9413 86.7634 60.792C86.4861 60.6427 86.2701 60.4293 86.1154 60.152C85.9608 59.8747 85.8834 59.552 85.8834 59.184C85.8834 58.8213 85.9634 58.496 86.1234 58.208C86.2888 57.92 86.5261 57.696 86.8354 57.536C87.1448 57.3707 87.5101 57.288 87.9314 57.288C88.3368 57.288 88.6968 57.3787 89.0114 57.56C89.3314 57.7413 89.5821 58.0133 89.7634 58.376C89.9448 58.7333 90.0354 59.168 90.0354 59.68C90.0354 60.7893 89.8061 61.64 89.3474 62.232C88.8941 62.824 88.2408 63.12 87.3874 63.12ZM87.9314 60.376C88.2834 60.376 88.5768 60.264 88.8114 60.04C89.0514 59.816 89.1714 59.52 89.1714 59.152C89.1714 58.9333 89.1181 58.7307 89.0114 58.544C88.9101 58.3573 88.7661 58.208 88.5794 58.096C88.3928 57.984 88.1768 57.928 87.9314 57.928C87.5581 57.928 87.2568 58.04 87.0274 58.264C86.8034 58.488 86.6914 58.7867 86.6914 59.16C86.6914 59.5333 86.8034 59.8293 87.0274 60.048C87.2568 60.2667 87.5581 60.376 87.9314 60.376ZM93.0864 63.12C92.6064 63.12 92.1904 63.0027 91.8384 62.768C91.4918 62.5333 91.2251 62.1973 91.0384 61.76C90.8518 61.3227 90.7584 60.8053 90.7584 60.208C90.7584 59.6107 90.8491 59.0933 91.0304 58.656C91.2171 58.2133 91.4838 57.8747 91.8304 57.64C92.1824 57.4053 92.6011 57.288 93.0864 57.288C93.5718 57.288 93.9878 57.4053 94.3344 57.64C94.6864 57.8747 94.9531 58.2133 95.1344 58.656C95.3211 59.0933 95.4144 59.6107 95.4144 60.208C95.4144 60.8053 95.3211 61.3227 95.1344 61.76C94.9478 62.1973 94.6784 62.5333 94.3264 62.768C93.9798 63.0027 93.5664 63.12 93.0864 63.12ZM93.0864 62.4C93.5611 62.4 93.9318 62.2053 94.1984 61.816C94.4704 61.4213 94.6064 60.888 94.6064 60.216C94.6064 59.544 94.4731 59.0107 94.2064 58.616C93.9398 58.2213 93.5664 58.024 93.0864 58.024C92.6064 58.024 92.2331 58.2213 91.9664 58.616C91.6998 59.0107 91.5664 59.544 91.5664 60.216C91.5664 60.888 91.6998 61.4213 91.9664 61.816C92.2384 62.2053 92.6118 62.4 93.0864 62.4ZM96.5094 63C96.4028 63 96.3121 62.9653 96.2374 62.896C96.1681 62.8213 96.1334 62.7307 96.1334 62.624C96.1334 62.5173 96.1681 62.4267 96.2374 62.352C96.3121 62.2773 96.4028 62.24 96.5094 62.24C96.6161 62.24 96.7068 62.2773 96.7814 62.352C96.8561 62.4267 96.8934 62.5173 96.8934 62.624C96.8934 62.7307 96.8561 62.8213 96.7814 62.896C96.7068 62.9653 96.6161 63 96.5094 63ZM99.938 63.12C99.458 63.12 99.042 63.0027 98.69 62.768C98.3433 62.5333 98.0767 62.1973 97.89 61.76C97.7033 61.3227 97.61 60.8053 97.61 60.208C97.61 59.6107 97.7007 59.0933 97.882 58.656C98.0687 58.2133 98.3353 57.8747 98.682 57.64C99.034 57.4053 99.4527 57.288 99.938 57.288C100.423 57.288 100.839 57.4053 101.186 57.64C101.538 57.8747 101.805 58.2133 101.986 58.656C102.173 59.0933 102.266 59.6107 102.266 60.208C102.266 60.8053 102.173 61.3227 101.986 61.76C101.799 62.1973 101.53 62.5333 101.178 62.768C100.831 63.0027 100.418 63.12 99.938 63.12ZM99.938 62.4C100.413 62.4 100.783 62.2053 101.05 61.816C101.322 61.4213 101.458 60.888 101.458 60.216C101.458 59.544 101.325 59.0107 101.058 58.616C100.791 58.2213 100.418 58.024 99.938 58.024C99.458 58.024 99.0847 58.2213 98.818 58.616C98.5513 59.0107 98.418 59.544 98.418 60.216C98.418 60.888 98.5513 61.4213 98.818 61.816C99.09 62.2053 99.4633 62.4 99.938 62.4ZM105.313 63.12C104.833 63.12 104.417 63.0027 104.065 62.768C103.718 62.5333 103.452 62.1973 103.265 61.76C103.078 61.3227 102.985 60.8053 102.985 60.208C102.985 59.6107 103.076 59.0933 103.257 58.656C103.444 58.2133 103.71 57.8747 104.057 57.64C104.409 57.4053 104.828 57.288 105.313 57.288C105.798 57.288 106.214 57.4053 106.561 57.64C106.913 57.8747 107.18 58.2133 107.361 58.656C107.548 59.0933 107.641 59.6107 107.641 60.208C107.641 60.8053 107.548 61.3227 107.361 61.76C107.174 62.1973 106.905 62.5333 106.553 62.768C106.206 63.0027 105.793 63.12 105.313 63.12ZM105.313 62.4C105.788 62.4 106.158 62.2053 106.425 61.816C106.697 61.4213 106.833 60.888 106.833 60.216C106.833 59.544 106.7 59.0107 106.433 58.616C106.166 58.2213 105.793 58.024 105.313 58.024C104.833 58.024 104.46 58.2213 104.193 58.616C103.926 59.0107 103.793 59.544 103.793 60.216C103.793 60.888 103.926 61.4213 104.193 61.816C104.465 62.2053 104.838 62.4 105.313 62.4Z" fill="#484B52"/>
<path d="M116.827 59.322H114.601V58.806H117.451V59.256L115.765 63H115.165L116.827 59.322ZM119.676 63.09C119.316 63.09 119.004 63.002 118.74 62.826C118.48 62.65 118.28 62.398 118.14 62.07C118 61.742 117.93 61.354 117.93 60.906C117.93 60.458 117.998 60.07 118.134 59.742C118.274 59.41 118.474 59.156 118.734 58.98C118.998 58.804 119.312 58.716 119.676 58.716C120.04 58.716 120.352 58.804 120.612 58.98C120.876 59.156 121.076 59.41 121.212 59.742C121.352 60.07 121.422 60.458 121.422 60.906C121.422 61.354 121.352 61.742 121.212 62.07C121.072 62.398 120.87 62.65 120.606 62.826C120.346 63.002 120.036 63.09 119.676 63.09ZM119.676 62.55C120.032 62.55 120.31 62.404 120.51 62.112C120.714 61.816 120.816 61.416 120.816 60.912C120.816 60.408 120.716 60.008 120.516 59.712C120.316 59.416 120.036 59.268 119.676 59.268C119.316 59.268 119.036 59.416 118.836 59.712C118.636 60.008 118.536 60.408 118.536 60.912C118.536 61.416 118.636 61.816 118.836 62.112C119.04 62.404 119.32 62.55 119.676 62.55ZM123.077 60.918C122.877 60.918 122.693 60.87 122.525 60.774C122.357 60.674 122.223 60.54 122.123 60.372C122.027 60.204 121.979 60.02 121.979 59.82C121.979 59.62 122.027 59.436 122.123 59.268C122.223 59.096 122.357 58.962 122.525 58.866C122.693 58.766 122.877 58.716 123.077 58.716C123.277 58.716 123.461 58.766 123.629 58.866C123.801 58.962 123.935 59.096 124.031 59.268C124.131 59.436 124.181 59.62 124.181 59.82C124.181 60.02 124.131 60.204 124.031 60.372C123.935 60.54 123.801 60.674 123.629 60.774C123.461 60.87 123.277 60.918 123.077 60.918ZM125.219 58.806H125.813L123.491 63H122.897L125.219 58.806ZM123.077 60.474C123.261 60.474 123.413 60.412 123.533 60.288C123.657 60.164 123.719 60.012 123.719 59.832C123.719 59.648 123.657 59.494 123.533 59.37C123.413 59.246 123.261 59.184 123.077 59.184C122.893 59.184 122.739 59.246 122.615 59.37C122.495 59.494 122.435 59.648 122.435 59.832C122.435 60.012 122.495 60.164 122.615 60.288C122.739 60.412 122.893 60.474 123.077 60.474ZM125.627 63.09C125.427 63.09 125.243 63.042 125.075 62.946C124.907 62.846 124.773 62.712 124.673 62.544C124.577 62.376 124.529 62.192 124.529 61.992C124.529 61.792 124.577 61.608 124.673 61.44C124.773 61.268 124.907 61.134 125.075 61.038C125.243 60.938 125.427 60.888 125.627 60.888C125.827 60.888 126.011 60.938 126.179 61.038C126.351 61.134 126.485 61.268 126.581 61.44C126.681 61.608 126.731 61.792 126.731 61.992C126.731 62.192 126.681 62.376 126.581 62.544C126.485 62.712 126.351 62.846 126.179 62.946C126.011 63.042 125.827 63.09 125.627 63.09ZM125.621 62.646C125.805 62.646 125.959 62.584 126.083 62.46C126.207 62.336 126.269 62.184 126.269 62.004C126.269 61.82 126.207 61.666 126.083 61.542C125.959 61.418 125.805 61.356 125.621 61.356C125.441 61.356 125.289 61.418 125.165 61.542C125.041 61.666 124.979 61.82 124.979 62.004C124.979 62.184 125.041 62.336 125.165 62.46C125.289 62.584 125.441 62.646 125.621 62.646Z" fill="#9799A5"/>
<path d="M113.348 31.105C113.063 31.105 112.79 31.0817 112.529 31.035C112.272 30.993 112.048 30.9277 111.857 30.839V30.251C112.291 30.447 112.758 30.545 113.257 30.545C113.686 30.545 114.004 30.468 114.209 30.314C114.419 30.1553 114.524 29.9313 114.524 29.642C114.524 29.3433 114.417 29.131 114.202 29.005C113.987 28.8743 113.661 28.809 113.222 28.809H112.648V28.235H113.208C113.558 28.235 113.84 28.165 114.055 28.025C114.27 27.8803 114.377 27.6703 114.377 27.395C114.377 27.1243 114.288 26.919 114.111 26.779C113.934 26.639 113.677 26.569 113.341 26.569C113.08 26.569 112.844 26.5993 112.634 26.66C112.424 26.7207 112.207 26.821 111.983 26.961V26.373C112.394 26.1257 112.874 26.002 113.425 26.002C113.971 26.002 114.386 26.1233 114.671 26.366C114.956 26.6087 115.098 26.9447 115.098 27.374C115.098 27.6353 115.028 27.864 114.888 28.06C114.748 28.256 114.538 28.4077 114.258 28.515C114.575 28.5897 114.818 28.725 114.986 28.921C115.159 29.117 115.245 29.3643 115.245 29.663C115.245 30.1063 115.093 30.4587 114.79 30.72C114.487 30.9767 114.006 31.105 113.348 31.105ZM117.914 31.105C117.494 31.105 117.13 31.0023 116.822 30.797C116.518 30.5917 116.285 30.2977 116.122 29.915C115.958 29.5323 115.877 29.0797 115.877 28.557C115.877 28.0343 115.956 27.5817 116.115 27.199C116.278 26.8117 116.511 26.5153 116.815 26.31C117.123 26.1047 117.489 26.002 117.914 26.002C118.338 26.002 118.702 26.1047 119.006 26.31C119.314 26.5153 119.547 26.8117 119.706 27.199C119.869 27.5817 119.951 28.0343 119.951 28.557C119.951 29.0797 119.869 29.5323 119.706 29.915C119.542 30.2977 119.307 30.5917 118.999 30.797C118.695 31.0023 118.334 31.105 117.914 31.105ZM117.914 30.475C118.329 30.475 118.653 30.3047 118.887 29.964C119.125 29.6187 119.244 29.152 119.244 28.564C119.244 27.976 119.127 27.5093 118.894 27.164C118.66 26.8187 118.334 26.646 117.914 26.646C117.494 26.646 117.167 26.8187 116.934 27.164C116.7 27.5093 116.584 27.976 116.584 28.564C116.584 29.152 116.7 29.6187 116.934 29.964C117.172 30.3047 117.498 30.475 117.914 30.475ZM121.882 28.571C121.648 28.571 121.434 28.515 121.238 28.403C121.042 28.2863 120.885 28.13 120.769 27.934C120.657 27.738 120.601 27.5233 120.601 27.29C120.601 27.0567 120.657 26.842 120.769 26.646C120.885 26.4453 121.042 26.289 121.238 26.177C121.434 26.0603 121.648 26.002 121.882 26.002C122.115 26.002 122.33 26.0603 122.526 26.177C122.726 26.289 122.883 26.4453 122.995 26.646C123.111 26.842 123.17 27.0567 123.17 27.29C123.17 27.5233 123.111 27.738 122.995 27.934C122.883 28.13 122.726 28.2863 122.526 28.403C122.33 28.515 122.115 28.571 121.882 28.571ZM124.381 26.107H125.074L122.365 31H121.672L124.381 26.107ZM121.882 28.053C122.096 28.053 122.274 27.9807 122.414 27.836C122.558 27.6913 122.631 27.514 122.631 27.304C122.631 27.0893 122.558 26.9097 122.414 26.765C122.274 26.6203 122.096 26.548 121.882 26.548C121.667 26.548 121.487 26.6203 121.343 26.765C121.203 26.9097 121.133 27.0893 121.133 27.304C121.133 27.514 121.203 27.6913 121.343 27.836C121.487 27.9807 121.667 28.053 121.882 28.053ZM124.857 31.105C124.623 31.105 124.409 31.049 124.213 30.937C124.017 30.8203 123.86 30.664 123.744 30.468C123.632 30.272 123.576 30.0573 123.576 29.824C123.576 29.5907 123.632 29.376 123.744 29.18C123.86 28.9793 124.017 28.823 124.213 28.711C124.409 28.5943 124.623 28.536 124.857 28.536C125.09 28.536 125.305 28.5943 125.501 28.711C125.701 28.823 125.858 28.9793 125.97 29.18C126.086 29.376 126.145 29.5907 126.145 29.824C126.145 30.0573 126.086 30.272 125.97 30.468C125.858 30.664 125.701 30.8203 125.501 30.937C125.305 31.049 125.09 31.105 124.857 31.105ZM124.85 30.587C125.064 30.587 125.244 30.5147 125.389 30.37C125.533 30.2253 125.606 30.048 125.606 29.838C125.606 29.6233 125.533 29.4437 125.389 29.299C125.244 29.1543 125.064 29.082 124.85 29.082C124.64 29.082 124.462 29.1543 124.318 29.299C124.173 29.4437 124.101 29.6233 124.101 29.838C124.101 30.048 124.173 30.2253 124.318 30.37C124.462 30.5147 124.64 30.587 124.85 30.587Z" fill="#9799A5"/>
<path d="M14.6259 44.107H15.3399L17.0829 47.922L18.8259 44.107H19.5399V49H18.8469V45.521L17.2579 49H16.9079L15.3119 45.521V49H14.6259V44.107ZM22.2981 49.105C21.6775 49.105 21.1898 48.951 20.8351 48.643C20.4851 48.3303 20.3101 47.8917 20.3101 47.327C20.3101 46.7763 20.4665 46.34 20.7791 46.018C21.0965 45.696 21.5468 45.535 22.1301 45.535C22.5175 45.535 22.8465 45.6097 23.1171 45.759C23.3878 45.9037 23.5908 46.1067 23.7261 46.368C23.8661 46.6247 23.9361 46.9187 23.9361 47.25V47.6H20.9821C21.0055 47.9173 21.1385 48.1553 21.3811 48.314C21.6285 48.468 21.9621 48.545 22.3821 48.545C22.5968 48.545 22.8138 48.5263 23.0331 48.489C23.2525 48.447 23.4461 48.3933 23.6141 48.328V48.895C23.4648 48.9557 23.2665 49.0047 23.0191 49.042C22.7765 49.084 22.5361 49.105 22.2981 49.105ZM23.2711 47.103C23.2618 46.7857 23.1568 46.5407 22.9561 46.368C22.7601 46.1907 22.4801 46.102 22.1161 46.102C21.7615 46.102 21.4861 46.193 21.2901 46.375C21.0941 46.557 20.9915 46.7997 20.9821 47.103H23.2711ZM24.7089 45.64H25.3809V46.123C25.5396 45.927 25.7192 45.78 25.9199 45.682C26.1206 45.584 26.3282 45.535 26.5429 45.535C26.8136 45.535 27.0282 45.5817 27.1869 45.675C27.3456 45.7637 27.4622 45.9013 27.5369 46.088C27.6862 45.906 27.8682 45.7683 28.0829 45.675C28.3022 45.5817 28.5216 45.535 28.7409 45.535C29.1516 45.535 29.4479 45.64 29.6299 45.85C29.8119 46.0553 29.9029 46.361 29.9029 46.767V49H29.2169V46.858C29.2169 46.5827 29.1656 46.389 29.0629 46.277C28.9602 46.1603 28.7852 46.102 28.5379 46.102C28.1832 46.102 27.8939 46.256 27.6699 46.564C27.6792 46.634 27.6839 46.7483 27.6839 46.907V49H26.9979V46.858C26.9979 46.5827 26.9512 46.389 26.8579 46.277C26.7646 46.1603 26.5966 46.102 26.3539 46.102C25.9992 46.102 25.6819 46.3027 25.4019 46.704V49H24.7089V45.64ZM32.8652 49.105C32.5619 49.105 32.2982 49.0583 32.0742 48.965C31.8549 48.867 31.6519 48.7153 31.4652 48.51V49H30.7792V43.827H31.4862V46.088C31.6402 45.906 31.8386 45.7683 32.0812 45.675C32.3239 45.5817 32.5852 45.535 32.8652 45.535C33.2012 45.535 33.5022 45.612 33.7682 45.766C34.0389 45.9153 34.2489 46.1253 34.3982 46.396C34.5522 46.6667 34.6292 46.977 34.6292 47.327C34.6292 47.6817 34.5522 47.9943 34.3982 48.265C34.2489 48.531 34.0389 48.7387 33.7682 48.888C33.5022 49.0327 33.2012 49.105 32.8652 49.105ZM32.7042 48.545C32.9329 48.545 33.1382 48.496 33.3202 48.398C33.5069 48.2953 33.6516 48.1507 33.7542 47.964C33.8616 47.7773 33.9152 47.565 33.9152 47.327C33.9152 47.089 33.8616 46.8767 33.7542 46.69C33.6516 46.5033 33.5069 46.3587 33.3202 46.256C33.1382 46.1533 32.9329 46.102 32.7042 46.102C32.4196 46.102 32.1652 46.179 31.9412 46.333C31.7172 46.487 31.5656 46.6923 31.4862 46.949V47.705C31.5749 47.9617 31.7266 48.167 31.9412 48.321C32.1606 48.4703 32.4149 48.545 32.7042 48.545ZM37.2483 49.105C36.6276 49.105 36.14 48.951 35.7853 48.643C35.4353 48.3303 35.2603 47.8917 35.2603 47.327C35.2603 46.7763 35.4166 46.34 35.7293 46.018C36.0466 45.696 36.497 45.535 37.0803 45.535C37.4676 45.535 37.7966 45.6097 38.0673 45.759C38.338 45.9037 38.541 46.1067 38.6763 46.368C38.8163 46.6247 38.8863 46.9187 38.8863 47.25V47.6H35.9323C35.9556 47.9173 36.0886 48.1553 36.3313 48.314C36.5786 48.468 36.9123 48.545 37.3323 48.545C37.547 48.545 37.764 48.5263 37.9833 48.489C38.2026 48.447 38.3963 48.3933 38.5643 48.328V48.895C38.415 48.9557 38.2166 49.0047 37.9693 49.042C37.7266 49.084 37.4863 49.105 37.2483 49.105ZM38.2213 47.103C38.212 46.7857 38.107 46.5407 37.9063 46.368C37.7103 46.1907 37.4303 46.102 37.0663 46.102C36.7116 46.102 36.4363 46.193 36.2403 46.375C36.0443 46.557 35.9416 46.7997 35.9323 47.103H38.2213ZM39.6591 45.64H40.3451V46.242C40.4851 46.0367 40.6811 45.885 40.9331 45.787C41.1898 45.689 41.4861 45.64 41.8221 45.64V46.193C41.4628 46.193 41.1548 46.2513 40.8981 46.368C40.6414 46.4847 40.4641 46.669 40.3661 46.921V49H39.6591V45.64Z" fill="#484B52"/>
<path d="M28.2408 58.107H28.9968L30.5368 62.027L32.0768 58.107H32.8328L30.8798 63H30.1938L28.2408 58.107ZM33.6034 58.107H34.3244V63H33.6034V58.107ZM35.2372 58.107H37.1202C37.6476 58.107 38.0629 58.24 38.3662 58.506C38.6742 58.7673 38.8282 59.1407 38.8282 59.626C38.8282 60.1207 38.6766 60.4963 38.3732 60.753C38.0699 61.005 37.6522 61.131 37.1202 61.131H35.9512V63H35.2372V58.107ZM37.0432 60.536C37.3699 60.536 37.6289 60.4683 37.8202 60.333C38.0116 60.1977 38.1072 59.962 38.1072 59.626C38.1072 59.29 38.0116 59.0543 37.8202 58.919C37.6289 58.779 37.3699 58.709 37.0432 58.709H35.9512V60.536H37.0432Z" fill="#484B52"/>
<path d="M18.39 75.806H18.972L21.108 78.968V75.806H21.726V80H21.138L19.002 76.838V80H18.39V75.806ZM24.0873 80.09C23.5553 80.09 23.1373 79.958 22.8333 79.694C22.5333 79.426 22.3833 79.05 22.3833 78.566C22.3833 78.094 22.5173 77.72 22.7853 77.444C23.0573 77.168 23.4433 77.03 23.9433 77.03C24.2753 77.03 24.5573 77.094 24.7893 77.222C25.0213 77.346 25.1953 77.52 25.3113 77.744C25.4313 77.964 25.4913 78.216 25.4913 78.5V78.8H22.9593C22.9793 79.072 23.0933 79.276 23.3013 79.412C23.5133 79.544 23.7993 79.61 24.1593 79.61C24.3433 79.61 24.5293 79.594 24.7173 79.562C24.9053 79.526 25.0713 79.48 25.2153 79.424V79.91C25.0873 79.962 24.9173 80.004 24.7053 80.036C24.4973 80.072 24.2913 80.09 24.0873 80.09ZM24.9213 78.374C24.9133 78.102 24.8233 77.892 24.6513 77.744C24.4833 77.592 24.2433 77.516 23.9313 77.516C23.6273 77.516 23.3913 77.594 23.2233 77.75C23.0553 77.906 22.9673 78.114 22.9593 78.374H24.9213ZM27.1857 80.09C26.8377 80.09 26.5577 80.002 26.3457 79.826C26.1377 79.646 26.0337 79.404 26.0337 79.1C26.0337 78.78 26.1337 78.534 26.3337 78.362C26.5377 78.186 26.8257 78.098 27.1977 78.098C27.5937 78.098 27.9297 78.178 28.2057 78.338V78.188C28.2057 77.96 28.1357 77.792 27.9957 77.684C27.8597 77.572 27.6437 77.516 27.3477 77.516C27.1717 77.516 26.9997 77.534 26.8317 77.57C26.6677 77.602 26.5197 77.648 26.3877 77.708V77.216C26.5077 77.16 26.6637 77.116 26.8557 77.084C27.0477 77.048 27.2337 77.03 27.4137 77.03C27.8897 77.03 28.2417 77.136 28.4697 77.348C28.7017 77.556 28.8177 77.846 28.8177 78.218V80H28.2477V79.676C28.1237 79.812 27.9757 79.916 27.8037 79.988C27.6357 80.056 27.4297 80.09 27.1857 80.09ZM27.3357 79.628C27.5277 79.628 27.7017 79.59 27.8577 79.514C28.0137 79.438 28.1297 79.332 28.2057 79.196V78.806C27.9457 78.638 27.6557 78.554 27.3357 78.554C27.1037 78.554 26.9297 78.6 26.8137 78.692C26.7017 78.78 26.6457 78.916 26.6457 79.1C26.6457 79.452 26.8757 79.628 27.3357 79.628ZM29.5697 77.12H30.1577V77.636C30.2777 77.46 30.4457 77.33 30.6617 77.246C30.8817 77.162 31.1357 77.12 31.4237 77.12V77.594C31.1157 77.594 30.8517 77.644 30.6317 77.744C30.4117 77.844 30.2597 78.002 30.1757 78.218V80H29.5697V77.12ZM35.7709 80.09C35.2389 80.09 34.8209 79.958 34.5169 79.694C34.2169 79.426 34.0669 79.05 34.0669 78.566C34.0669 78.094 34.2009 77.72 34.4689 77.444C34.7409 77.168 35.1269 77.03 35.6269 77.03C35.9589 77.03 36.2409 77.094 36.4729 77.222C36.7049 77.346 36.8789 77.52 36.9949 77.744C37.1149 77.964 37.1749 78.216 37.1749 78.5V78.8H34.6429C34.6629 79.072 34.7769 79.276 34.9849 79.412C35.1969 79.544 35.4829 79.61 35.8429 79.61C36.0269 79.61 36.2129 79.594 36.4009 79.562C36.5889 79.526 36.7549 79.48 36.8989 79.424V79.91C36.7709 79.962 36.6009 80.004 36.3889 80.036C36.1809 80.072 35.9749 80.09 35.7709 80.09ZM36.6049 78.374C36.5969 78.102 36.5069 77.892 36.3349 77.744C36.1669 77.592 35.9269 77.516 35.6149 77.516C35.3109 77.516 35.0749 77.594 34.9069 77.75C34.7389 77.906 34.6509 78.114 34.6429 78.374H36.6049ZM38.8361 78.494L37.7081 77.12H38.3981L39.1781 78.074L39.9641 77.12H40.6541L39.5261 78.494L40.7621 80H40.0781L39.1781 78.914L38.2841 80H37.6001L38.8361 78.494ZM41.4232 77.12H42.0112V77.546C42.3072 77.202 42.7072 77.03 43.2112 77.03C43.4992 77.03 43.7572 77.094 43.9852 77.222C44.2172 77.35 44.3972 77.53 44.5252 77.762C44.6572 77.99 44.7232 78.256 44.7232 78.56C44.7232 78.86 44.6572 79.126 44.5252 79.358C44.3972 79.59 44.2192 79.77 43.9912 79.898C43.7632 80.026 43.5032 80.09 43.2112 80.09C42.9712 80.09 42.7472 80.05 42.5392 79.97C42.3312 79.89 42.1612 79.772 42.0292 79.616V81.314H41.4232V77.12ZM43.0732 79.61C43.2692 79.61 43.4452 79.568 43.6012 79.484C43.7612 79.396 43.8852 79.272 43.9732 79.112C44.0652 78.952 44.1112 78.768 44.1112 78.56C44.1112 78.352 44.0652 78.17 43.9732 78.014C43.8852 77.854 43.7612 77.732 43.6012 77.648C43.4452 77.56 43.2692 77.516 43.0732 77.516C42.8292 77.516 42.6132 77.58 42.4252 77.708C42.2412 77.836 42.1092 78.012 42.0292 78.236V78.884C42.0972 79.104 42.2272 79.28 42.4192 79.412C42.6112 79.544 42.8292 79.61 43.0732 79.61ZM45.7381 76.556C45.6381 76.556 45.5541 76.522 45.4861 76.454C45.4181 76.386 45.3841 76.302 45.3841 76.202C45.3841 76.102 45.4181 76.018 45.4861 75.95C45.5541 75.882 45.6381 75.848 45.7381 75.848C45.8421 75.848 45.9281 75.882 45.9961 75.95C46.0681 76.018 46.1041 76.102 46.1041 76.202C46.1041 76.302 46.0681 76.386 45.9961 76.454C45.9281 76.522 45.8421 76.556 45.7381 76.556ZM45.4321 77.12H46.0501V80H45.4321V77.12ZM46.8841 77.12H47.4721V77.636C47.5921 77.46 47.7601 77.33 47.9761 77.246C48.1961 77.162 48.4501 77.12 48.7381 77.12V77.594C48.4301 77.594 48.1661 77.644 47.9461 77.744C47.7261 77.844 47.5741 78.002 47.4901 78.218V80H46.8841V77.12ZM50.0431 80.09C49.6951 80.09 49.4151 80.002 49.2031 79.826C48.9951 79.646 48.8911 79.404 48.8911 79.1C48.8911 78.78 48.9911 78.534 49.1911 78.362C49.3951 78.186 49.6831 78.098 50.0551 78.098C50.4511 78.098 50.7871 78.178 51.0631 78.338V78.188C51.0631 77.96 50.9931 77.792 50.8531 77.684C50.7171 77.572 50.5011 77.516 50.2051 77.516C50.0291 77.516 49.8571 77.534 49.6891 77.57C49.5251 77.602 49.3771 77.648 49.2451 77.708V77.216C49.3651 77.16 49.5211 77.116 49.7131 77.084C49.9051 77.048 50.0911 77.03 50.2711 77.03C50.7471 77.03 51.0991 77.136 51.3271 77.348C51.5591 77.556 51.6751 77.846 51.6751 78.218V80H51.1051V79.676C50.9811 79.812 50.8331 79.916 50.6611 79.988C50.4931 80.056 50.2871 80.09 50.0431 80.09ZM50.1931 79.628C50.3851 79.628 50.5591 79.59 50.7151 79.514C50.8711 79.438 50.9871 79.332 51.0631 79.196V78.806C50.8031 78.638 50.5131 78.554 50.1931 78.554C49.9611 78.554 49.7871 78.6 49.6711 78.692C49.5591 78.78 49.5031 78.916 49.5031 79.1C49.5031 79.452 49.7331 79.628 50.1931 79.628ZM53.3848 80.09C53.0928 80.09 52.8668 80.006 52.7068 79.838C52.5508 79.67 52.4728 79.432 52.4728 79.124V77.588H52.0348V77.12H52.4728V76.256H53.0848V77.12H53.7928V77.588H53.0848V79.082C53.0848 79.274 53.1208 79.41 53.1928 79.49C53.2688 79.57 53.4048 79.61 53.6008 79.61C53.7168 79.61 53.8328 79.584 53.9488 79.532V80.012C53.7968 80.064 53.6088 80.09 53.3848 80.09ZM54.8729 76.556C54.7729 76.556 54.6889 76.522 54.6209 76.454C54.5529 76.386 54.5189 76.302 54.5189 76.202C54.5189 76.102 54.5529 76.018 54.6209 75.95C54.6889 75.882 54.7729 75.848 54.8729 75.848C54.9769 75.848 55.0629 75.882 55.1309 75.95C55.2029 76.018 55.2389 76.102 55.2389 76.202C55.2389 76.302 55.2029 76.386 55.1309 76.454C55.0629 76.522 54.9769 76.556 54.8729 76.556ZM54.5669 77.12H55.1849V80H54.5669V77.12ZM57.5369 80.09C57.2129 80.09 56.9269 80.03 56.6789 79.91C56.4349 79.786 56.2429 79.61 56.1029 79.382C55.9669 79.15 55.8989 78.878 55.8989 78.566C55.8989 78.258 55.9669 77.988 56.1029 77.756C56.2389 77.524 56.4309 77.346 56.6789 77.222C56.9269 77.094 57.2129 77.03 57.5369 77.03C57.8609 77.03 58.1469 77.094 58.3949 77.222C58.6429 77.346 58.8349 77.524 58.9709 77.756C59.1109 77.988 59.1809 78.258 59.1809 78.566C59.1809 78.878 59.1109 79.15 58.9709 79.382C58.8349 79.61 58.6429 79.786 58.3949 79.91C58.1469 80.03 57.8609 80.09 57.5369 80.09ZM57.5369 79.61C57.8489 79.61 58.0969 79.514 58.2809 79.322C58.4649 79.13 58.5569 78.878 58.5569 78.566C58.5569 78.242 58.4649 77.986 58.2809 77.798C58.0969 77.61 57.8489 77.516 57.5369 77.516C57.2249 77.516 56.9769 77.61 56.7929 77.798C56.6089 77.986 56.5169 78.242 56.5169 78.566C56.5169 78.878 56.6089 79.13 56.7929 79.322C56.9769 79.514 57.2249 79.61 57.5369 79.61ZM59.8392 77.12H60.4272V77.534C60.5632 77.362 60.7292 77.236 60.9252 77.156C61.1252 77.072 61.3332 77.03 61.5492 77.03C61.9332 77.03 62.2192 77.132 62.4072 77.336C62.5952 77.54 62.6892 77.814 62.6892 78.158V80H62.0832V78.218C62.0832 77.75 61.8592 77.516 61.4112 77.516C61.2192 77.516 61.0392 77.562 60.8712 77.654C60.7072 77.742 60.5652 77.878 60.4452 78.062V80H59.8392V77.12Z" fill="#4D4D4D"/>
<path d="M67.27 79.598L68.176 78.728C68.256 78.648 68.368 78.544 68.512 78.416C68.74 78.208 68.914 78.04 69.034 77.912C69.154 77.784 69.252 77.648 69.328 77.504C69.404 77.356 69.442 77.198 69.442 77.03C69.442 76.782 69.37 76.594 69.226 76.466C69.082 76.334 68.872 76.268 68.596 76.268C68.408 76.268 68.214 76.302 68.014 76.37C67.818 76.438 67.634 76.538 67.462 76.67V76.082C67.798 75.838 68.208 75.716 68.692 75.716C69.124 75.716 69.46 75.832 69.7 76.064C69.94 76.292 70.06 76.604 70.06 77C70.06 77.192 70.018 77.376 69.934 77.552C69.854 77.728 69.74 77.902 69.592 78.074C69.444 78.242 69.244 78.448 68.992 78.692L68.176 79.49H70.216V80H67.27V79.598ZM74.489 80.09C74.201 80.09 73.941 80.028 73.709 79.904C73.481 79.776 73.301 79.598 73.169 79.37C73.041 79.138 72.977 78.87 72.977 78.566C72.977 78.266 73.041 78 73.169 77.768C73.301 77.536 73.481 77.356 73.709 77.228C73.941 77.096 74.201 77.03 74.489 77.03C75.009 77.03 75.403 77.188 75.671 77.504V75.566H76.277V80H75.689V79.58C75.529 79.756 75.353 79.886 75.161 79.97C74.973 80.05 74.749 80.09 74.489 80.09ZM74.627 79.61C74.875 79.61 75.091 79.546 75.275 79.418C75.463 79.286 75.595 79.11 75.671 78.89V78.242C75.603 78.022 75.473 77.846 75.281 77.714C75.093 77.582 74.875 77.516 74.627 77.516C74.431 77.516 74.253 77.56 74.093 77.648C73.937 77.736 73.813 77.86 73.721 78.02C73.633 78.18 73.589 78.362 73.589 78.566C73.589 78.77 73.633 78.952 73.721 79.112C73.813 79.272 73.937 79.396 74.093 79.484C74.253 79.568 74.431 79.61 74.627 79.61ZM78.0021 80.09C77.6541 80.09 77.3741 80.002 77.1621 79.826C76.9541 79.646 76.8501 79.404 76.8501 79.1C76.8501 78.78 76.9501 78.534 77.1501 78.362C77.3541 78.186 77.6421 78.098 78.0141 78.098C78.4101 78.098 78.7461 78.178 79.0221 78.338V78.188C79.0221 77.96 78.9521 77.792 78.8121 77.684C78.6761 77.572 78.4601 77.516 78.1641 77.516C77.9881 77.516 77.8161 77.534 77.6481 77.57C77.4841 77.602 77.3361 77.648 77.2041 77.708V77.216C77.3241 77.16 77.4801 77.116 77.6721 77.084C77.8641 77.048 78.0501 77.03 78.2301 77.03C78.7061 77.03 79.0581 77.136 79.2861 77.348C79.5181 77.556 79.6341 77.846 79.6341 78.218V80H79.0641V79.676C78.9401 79.812 78.7921 79.916 78.6201 79.988C78.4521 80.056 78.2461 80.09 78.0021 80.09ZM78.1521 79.628C78.3441 79.628 78.5181 79.59 78.6741 79.514C78.8301 79.438 78.9461 79.332 79.0221 79.196V78.806C78.7621 78.638 78.4721 78.554 78.1521 78.554C77.9201 78.554 77.7461 78.6 77.6301 78.692C77.5181 78.78 77.4621 78.916 77.4621 79.1C77.4621 79.452 77.6921 79.628 78.1521 79.628ZM80.7286 81.188C80.5126 81.188 80.3326 81.166 80.1886 81.122V80.648C80.2926 80.688 80.4206 80.708 80.5726 80.708C80.7126 80.708 80.8226 80.672 80.9026 80.6C80.9826 80.532 81.0546 80.42 81.1186 80.264L81.2566 79.928L79.9966 77.12H80.6206L81.5806 79.334L82.4746 77.12H83.0986L81.8026 80.324C81.6826 80.624 81.5386 80.842 81.3706 80.978C81.2066 81.118 80.9926 81.188 80.7286 81.188ZM84.4305 80.09C84.2305 80.09 84.0185 80.064 83.7945 80.012C83.5705 79.964 83.3945 79.898 83.2665 79.814V79.298C83.4225 79.39 83.6025 79.466 83.8065 79.526C84.0105 79.582 84.2085 79.61 84.4005 79.61C84.6165 79.61 84.7745 79.584 84.8745 79.532C84.9745 79.48 85.0245 79.396 85.0245 79.28C85.0245 79.192 85.0005 79.122 84.9525 79.07C84.9085 79.014 84.8305 78.964 84.7185 78.92C84.6105 78.876 84.4465 78.824 84.2265 78.764C83.9905 78.696 83.8025 78.628 83.6625 78.56C83.5265 78.488 83.4225 78.398 83.3505 78.29C83.2825 78.182 83.2485 78.042 83.2485 77.87C83.2485 77.594 83.3565 77.386 83.5725 77.246C83.7925 77.102 84.0865 77.03 84.4545 77.03C84.6465 77.03 84.8345 77.048 85.0185 77.084C85.2025 77.12 85.3505 77.17 85.4625 77.234V77.738C85.3465 77.67 85.2025 77.616 85.0305 77.576C84.8625 77.536 84.6905 77.516 84.5145 77.516C84.3025 77.516 84.1405 77.542 84.0285 77.594C83.9165 77.646 83.8605 77.738 83.8605 77.87C83.8605 77.954 83.8845 78.022 83.9325 78.074C83.9805 78.126 84.0565 78.172 84.1605 78.212C84.2685 78.248 84.4385 78.296 84.6705 78.356C85.0345 78.456 85.2865 78.574 85.4265 78.71C85.5705 78.846 85.6425 79.034 85.6425 79.274C85.6425 79.522 85.5405 79.72 85.3365 79.868C85.1325 80.016 84.8305 80.09 84.4305 80.09Z" fill="#F05050"/>
<defs>
<filter id="filter0_d_7427_137934" x="0" y="0" width="141" height="102" filterUnits="userSpaceOnUse" color-interpolation-filters="sRGB">
<feFlood flood-opacity="0" result="BackgroundImageFix"/>
<feColorMatrix in="SourceAlpha" type="matrix" values="0 0 0 0 0 0 0 0 0 0 0 0 0 0 0 0 0 0 127 0" result="hardAlpha"/>
<feOffset/>
<feGaussianBlur stdDeviation="2"/>
<feColorMatrix type="matrix" values="0 0 0 0 0 0 0 0 0 0 0 0 0 0 0 0 0 0 0.1 0"/>
<feBlend mode="normal" in2="BackgroundImageFix" result="effect1_dropShadow_7427_137934"/>
<feBlend mode="normal" in="SourceGraphic" in2="effect1_dropShadow_7427_137934" result="shape"/>
</filter>
</defs>
</svg>
