<svg width="143" height="106" viewBox="0 0 143 106" fill="none" xmlns="http://www.w3.org/2000/svg">
<g filter="url(#filter0_d_210_8389)">
<rect x="4" y="4.09766" width="133" height="94" rx="4" fill="white"/>
</g>
<path d="M75.52 56.6033H76.344V62.1953H75.52V56.6033ZM77.3872 58.3553H78.1712V58.9073C78.3525 58.678 78.5739 58.51 78.8352 58.4033C79.1019 58.2913 79.3792 58.2353 79.6672 58.2353C80.1792 58.2353 80.5605 58.3713 80.8112 58.6433C81.0619 58.9153 81.1872 59.2806 81.1872 59.7393V62.1953H80.3792V59.8193C80.3792 59.1953 80.0805 58.8833 79.4832 58.8833C79.2272 58.8833 78.9872 58.9446 78.7632 59.0673C78.5445 59.1846 78.3552 59.366 78.1952 59.6113V62.1953H77.3872V58.3553ZM81.6647 58.3553H82.5207L83.6487 61.1153L84.7767 58.3553H85.6327L84.0007 62.1953H83.2967L81.6647 58.3553ZM88.3039 62.3153C87.5945 62.3153 87.0372 62.1393 86.6319 61.7873C86.2319 61.43 86.0319 60.9286 86.0319 60.2833C86.0319 59.654 86.2105 59.1553 86.5679 58.7873C86.9305 58.4193 87.4452 58.2353 88.1119 58.2353C88.5545 58.2353 88.9305 58.3206 89.2399 58.4913C89.5492 58.6566 89.7812 58.8886 89.9359 59.1873C90.0959 59.4806 90.1759 59.8166 90.1759 60.1953V60.5953H86.7999C86.8265 60.958 86.9785 61.23 87.2559 61.4113C87.5385 61.5873 87.9199 61.6753 88.3999 61.6753C88.6452 61.6753 88.8932 61.654 89.1439 61.6113C89.3945 61.5633 89.6159 61.502 89.8079 61.4273V62.0753C89.6372 62.1446 89.4105 62.2006 89.1279 62.2433C88.8505 62.2913 88.5759 62.3153 88.3039 62.3153ZM89.4159 60.0273C89.4052 59.6646 89.2852 59.3846 89.0559 59.1873C88.8319 58.9846 88.5119 58.8833 88.0959 58.8833C87.6905 58.8833 87.3759 58.9873 87.1519 59.1953C86.9279 59.4033 86.8105 59.6806 86.7999 60.0273H89.4159ZM91.0591 58.3553H91.8431V58.9073C92.0244 58.678 92.2457 58.51 92.5071 58.4033C92.7737 58.2913 93.0511 58.2353 93.3391 58.2353C93.8511 58.2353 94.2324 58.3713 94.4831 58.6433C94.7337 58.9153 94.8591 59.2806 94.8591 59.7393V62.1953H94.0511V59.8193C94.0511 59.1953 93.7524 58.8833 93.1551 58.8833C92.8991 58.8833 92.6591 58.9446 92.4351 59.0673C92.2164 59.1846 92.0271 59.366 91.8671 59.6113V62.1953H91.0591V58.3553ZM97.3359 62.3153C96.9466 62.3153 96.6453 62.2033 96.4319 61.9793C96.2239 61.7553 96.1199 61.438 96.1199 61.0273V58.9793H95.5359V58.3553H96.1199V57.2033H96.9359V58.3553H97.8799V58.9793H96.9359V60.9713C96.9359 61.2273 96.9839 61.4086 97.0799 61.5153C97.1813 61.622 97.3626 61.6753 97.6239 61.6753C97.7786 61.6753 97.9333 61.6406 98.0879 61.5713V62.2113C97.8853 62.2806 97.6346 62.3153 97.3359 62.3153ZM100.833 62.3153C100.401 62.3153 100.02 62.2353 99.6891 62.0753C99.3637 61.91 99.1077 61.6753 98.9211 61.3713C98.7397 61.062 98.6491 60.6993 98.6491 60.2833C98.6491 59.8726 98.7397 59.5126 98.9211 59.2033C99.1024 58.894 99.3584 58.6566 99.6891 58.4913C100.02 58.3206 100.401 58.2353 100.833 58.2353C101.265 58.2353 101.646 58.3206 101.977 58.4913C102.308 58.6566 102.564 58.894 102.745 59.2033C102.932 59.5126 103.025 59.8726 103.025 60.2833C103.025 60.6993 102.932 61.062 102.745 61.3713C102.564 61.6753 102.308 61.91 101.977 62.0753C101.646 62.2353 101.265 62.3153 100.833 62.3153ZM100.833 61.6753C101.249 61.6753 101.58 61.5473 101.825 61.2913C102.07 61.0353 102.193 60.6993 102.193 60.2833C102.193 59.8513 102.07 59.51 101.825 59.2593C101.58 59.0086 101.249 58.8833 100.833 58.8833C100.417 58.8833 100.086 59.0086 99.8411 59.2593C99.5957 59.51 99.4731 59.8513 99.4731 60.2833C99.4731 60.6993 99.5957 61.0353 99.8411 61.2913C100.086 61.5473 100.417 61.6753 100.833 61.6753ZM103.903 58.3553H104.687V59.0433C104.847 58.8086 105.071 58.6353 105.359 58.5233C105.652 58.4113 105.991 58.3553 106.375 58.3553V58.9873C105.964 58.9873 105.612 59.054 105.319 59.1873C105.025 59.3206 104.823 59.5313 104.711 59.8193V62.1953H103.903V58.3553ZM107.797 63.7793C107.509 63.7793 107.269 63.75 107.077 63.6913V63.0593C107.216 63.1126 107.386 63.1393 107.589 63.1393C107.776 63.1393 107.922 63.0913 108.029 62.9953C108.136 62.9046 108.232 62.7553 108.317 62.5473L108.501 62.0993L106.821 58.3553H107.653L108.933 61.3073L110.125 58.3553H110.957L109.229 62.6273C109.069 63.0273 108.877 63.318 108.653 63.4993C108.434 63.686 108.149 63.7793 107.797 63.7793ZM115.685 57.4833L114.477 58.3553V57.5793L115.797 56.6033H116.501V62.1953H115.685V57.4833ZM118.943 62.3153C118.65 62.3153 118.365 62.2833 118.087 62.2193C117.81 62.1606 117.575 62.078 117.383 61.9713V61.2433C117.602 61.3766 117.85 61.4806 118.127 61.5553C118.405 61.6246 118.669 61.6593 118.919 61.6593C119.405 61.6593 119.773 61.558 120.023 61.3553C120.274 61.1473 120.399 60.8433 120.399 60.4433C120.399 60.0646 120.282 59.7766 120.047 59.5793C119.818 59.3766 119.474 59.2753 119.015 59.2753C118.823 59.2753 118.621 59.294 118.407 59.3313C118.199 59.3686 118.013 59.4193 117.847 59.4833L117.487 59.2753L117.695 56.6033H120.823V57.2913H118.439L118.319 58.7313C118.65 58.662 118.986 58.6273 119.327 58.6273C119.919 58.6273 120.383 58.7926 120.719 59.1233C121.055 59.454 121.223 59.894 121.223 60.4433C121.223 61.046 121.034 61.51 120.655 61.8353C120.277 62.1553 119.706 62.3153 118.943 62.3153Z" fill="#9799A5"/>
<rect x="14" y="36.1953" width="113" height="16" rx="8" fill="#C4C4C4"/>
<rect x="14" y="36.1953" width="98" height="16" rx="8" fill="#484B52"/>
<path d="M51.59 48.3453C51.19 48.3453 50.7933 48.3086 50.4 48.2353C50.0133 48.1686 49.6967 48.0753 49.45 47.9553V47.0353C50.09 47.3353 50.78 47.4853 51.52 47.4853C52.56 47.4853 53.08 47.1353 53.08 46.4353C53.08 46.1953 53.0233 46.002 52.91 45.8553C52.7967 45.7086 52.6333 45.582 52.42 45.4753C52.2067 45.362 51.86 45.2086 51.38 45.0153C50.72 44.7486 50.2433 44.4553 49.95 44.1353C49.6567 43.8153 49.51 43.412 49.51 42.9253C49.51 42.5586 49.61 42.2353 49.81 41.9553C50.01 41.6686 50.29 41.4486 50.65 41.2953C51.01 41.1353 51.4233 41.0553 51.89 41.0553C52.27 41.0553 52.6133 41.0853 52.92 41.1453C53.2267 41.2053 53.5267 41.302 53.82 41.4353V42.3153C53.24 42.0553 52.6533 41.9253 52.06 41.9253C51.58 41.9253 51.2133 42.012 50.96 42.1853C50.7067 42.3586 50.58 42.6053 50.58 42.9253C50.58 43.1453 50.6333 43.332 50.74 43.4853C50.8533 43.632 51.0167 43.7653 51.23 43.8853C51.45 43.9986 51.7733 44.142 52.2 44.3153C52.6733 44.5086 53.0467 44.692 53.32 44.8653C53.5933 45.0386 53.8 45.252 53.94 45.5053C54.0867 45.752 54.16 46.062 54.16 46.4353C54.16 47.042 53.9433 47.512 53.51 47.8453C53.0767 48.1786 52.4367 48.3453 51.59 48.3453ZM57.639 48.3453C57.099 48.3453 56.6223 48.2453 56.209 48.0453C55.8023 47.8386 55.4823 47.5453 55.249 47.1653C55.0223 46.7786 54.909 46.3253 54.909 45.8053C54.909 45.292 55.0223 44.842 55.249 44.4553C55.4757 44.0686 55.7957 43.772 56.209 43.5653C56.6223 43.352 57.099 43.2453 57.639 43.2453C58.179 43.2453 58.6557 43.352 59.069 43.5653C59.4823 43.772 59.8023 44.0686 60.029 44.4553C60.2623 44.842 60.379 45.292 60.379 45.8053C60.379 46.3253 60.2623 46.7786 60.029 47.1653C59.8023 47.5453 59.4823 47.8386 59.069 48.0453C58.6557 48.2453 58.179 48.3453 57.639 48.3453ZM57.639 47.5453C58.159 47.5453 58.5723 47.3853 58.879 47.0653C59.1857 46.7453 59.339 46.3253 59.339 45.8053C59.339 45.2653 59.1857 44.8386 58.879 44.5253C58.5723 44.212 58.159 44.0553 57.639 44.0553C57.119 44.0553 56.7057 44.212 56.399 44.5253C56.0923 44.8386 55.939 45.2653 55.939 45.8053C55.939 46.3253 56.0923 46.7453 56.399 47.0653C56.7057 47.3853 57.119 47.5453 57.639 47.5453ZM61.4762 40.8053H62.4862V48.1953H61.4762V40.8053ZM66.1106 48.3453C65.6306 48.3453 65.1973 48.242 64.8106 48.0353C64.4306 47.822 64.1306 47.5253 63.9106 47.1453C63.6973 46.7586 63.5906 46.312 63.5906 45.8053C63.5906 45.3053 63.6973 44.862 63.9106 44.4753C64.1306 44.0886 64.4306 43.7886 64.8106 43.5753C65.1973 43.3553 65.6306 43.2453 66.1106 43.2453C66.9773 43.2453 67.634 43.5086 68.0806 44.0353V40.8053H69.0906V48.1953H68.1106V47.4953C67.844 47.7886 67.5506 48.0053 67.2306 48.1453C66.9173 48.2786 66.544 48.3453 66.1106 48.3453ZM66.3406 47.5453C66.754 47.5453 67.114 47.4386 67.4206 47.2253C67.734 47.0053 67.954 46.712 68.0806 46.3453V45.2653C67.9673 44.8986 67.7506 44.6053 67.4306 44.3853C67.1173 44.1653 66.754 44.0553 66.3406 44.0553C66.014 44.0553 65.7173 44.1286 65.4506 44.2753C65.1906 44.422 64.984 44.6286 64.8306 44.8953C64.684 45.162 64.6106 45.4653 64.6106 45.8053C64.6106 46.1453 64.684 46.4486 64.8306 46.7153C64.984 46.982 65.1906 47.1886 65.4506 47.3353C65.7173 47.4753 66.014 47.5453 66.3406 47.5453ZM75.4034 42.3053L73.8934 43.3953V42.4253L75.5434 41.2053H76.4234V48.1953H75.4034V42.3053ZM79.4062 48.3453C79.0395 48.3453 78.7128 48.3053 78.4262 48.2253V47.3753C78.6862 47.4753 78.9862 47.5253 79.3262 47.5253C80.7595 47.5253 81.5462 46.6686 81.6862 44.9553C81.4862 45.2086 81.2228 45.3986 80.8962 45.5253C80.5762 45.652 80.2162 45.7153 79.8162 45.7153C79.3695 45.7153 78.9728 45.622 78.6262 45.4353C78.2795 45.2486 78.0095 44.982 77.8162 44.6353C77.6228 44.2886 77.5262 43.8853 77.5262 43.4253C77.5262 42.972 77.6262 42.5653 77.8262 42.2053C78.0328 41.8453 78.3295 41.5653 78.7162 41.3653C79.1028 41.1586 79.5595 41.0553 80.0862 41.0553C80.5928 41.0553 81.0428 41.1686 81.4362 41.3953C81.8362 41.622 82.1495 41.962 82.3762 42.4153C82.6028 42.862 82.7162 43.4053 82.7162 44.0453C82.7162 45.432 82.4295 46.4953 81.8562 47.2353C81.2895 47.9753 80.4728 48.3453 79.4062 48.3453ZM80.0862 44.9153C80.5262 44.9153 80.8928 44.7753 81.1862 44.4953C81.4862 44.2153 81.6362 43.8453 81.6362 43.3853C81.6362 43.112 81.5695 42.8586 81.4362 42.6253C81.3095 42.392 81.1295 42.2053 80.8962 42.0653C80.6628 41.9253 80.3928 41.8553 80.0862 41.8553C79.6195 41.8553 79.2428 41.9953 78.9562 42.2753C78.6762 42.5553 78.5362 42.9286 78.5362 43.3953C78.5362 43.862 78.6762 44.232 78.9562 44.5053C79.2428 44.7786 79.6195 44.9153 80.0862 44.9153ZM83.6199 47.5253L85.1299 46.0753C85.2633 45.942 85.4499 45.7686 85.6899 45.5553C86.0699 45.2086 86.3599 44.9286 86.5599 44.7153C86.7599 44.502 86.9233 44.2753 87.0499 44.0353C87.1766 43.7886 87.2399 43.5253 87.2399 43.2453C87.2399 42.832 87.1199 42.5186 86.8799 42.3053C86.6399 42.0853 86.2899 41.9753 85.8299 41.9753C85.5166 41.9753 85.1933 42.032 84.8599 42.1453C84.5333 42.2586 84.2266 42.4253 83.9399 42.6453V41.6653C84.4999 41.2586 85.1833 41.0553 85.9899 41.0553C86.7099 41.0553 87.2699 41.2486 87.6699 41.6353C88.0699 42.0153 88.2699 42.5353 88.2699 43.1953C88.2699 43.5153 88.1999 43.822 88.0599 44.1153C87.9266 44.4086 87.7366 44.6986 87.4899 44.9853C87.2433 45.2653 86.9099 45.6086 86.4899 46.0153L85.1299 47.3453H88.5299V48.1953H83.6199V47.5253Z" fill="white"/>
<path d="M8 5H133C134.657 5 136 6.34315 136 8V94C136 95.6569 134.657 97 133 97H8C6.34315 97 5 95.6569 5 94V8C5 6.34315 6.34315 5 8 5Z" fill="#2EC639" fill-opacity="0.2" stroke="#2EC639" stroke-width="2"/>
<g filter="url(#filter1_d_210_8389)">
<rect x="107" y="69" width="22" height="22" rx="11" fill="white"/>
</g>
<path d="M112.867 79.9707L117.079 83.6667L123.133 77.0667" stroke="#2EC639" stroke-width="2" stroke-linecap="round" stroke-linejoin="round"/>
<defs>
<filter id="filter0_d_210_8389" x="0" y="0.0976562" width="141" height="102" filterUnits="userSpaceOnUse" color-interpolation-filters="sRGB">
<feFlood flood-opacity="0" result="BackgroundImageFix"/>
<feColorMatrix in="SourceAlpha" type="matrix" values="0 0 0 0 0 0 0 0 0 0 0 0 0 0 0 0 0 0 127 0" result="hardAlpha"/>
<feOffset/>
<feGaussianBlur stdDeviation="2"/>
<feColorMatrix type="matrix" values="0 0 0 0 0 0 0 0 0 0 0 0 0 0 0 0 0 0 0.1 0"/>
<feBlend mode="normal" in2="BackgroundImageFix" result="effect1_dropShadow_210_8389"/>
<feBlend mode="normal" in="SourceGraphic" in2="effect1_dropShadow_210_8389" result="shape"/>
</filter>
<filter id="filter1_d_210_8389" x="97" y="60" width="46" height="46" filterUnits="userSpaceOnUse" color-interpolation-filters="sRGB">
<feFlood flood-opacity="0" result="BackgroundImageFix"/>
<feColorMatrix in="SourceAlpha" type="matrix" values="0 0 0 0 0 0 0 0 0 0 0 0 0 0 0 0 0 0 127 0" result="hardAlpha"/>
<feOffset dx="2" dy="3"/>
<feGaussianBlur stdDeviation="6"/>
<feColorMatrix type="matrix" values="0 0 0 0 0.180392 0 0 0 0 0.776471 0 0 0 0 0.223529 0 0 0 0.35 0"/>
<feBlend mode="normal" in2="BackgroundImageFix" result="effect1_dropShadow_210_8389"/>
<feBlend mode="normal" in="SourceGraphic" in2="effect1_dropShadow_210_8389" result="shape"/>
</filter>
</defs>
</svg>