<svg width="141" height="102" viewBox="0 0 141 102" fill="none" xmlns="http://www.w3.org/2000/svg">
<g filter="url(#filter0_d_7427_137934)">
<rect x="4" y="4" width="133" height="94" rx="4" fill="white"/>
</g>
<path d="M102.544 56.392C102.16 55.9227 101.867 55.3893 101.664 54.792C101.461 54.1947 101.36 53.544 101.36 52.84C101.36 52.1413 101.461 51.4933 101.664 50.896C101.867 50.2933 102.16 49.7573 102.544 49.288H103.4C102.995 49.8053 102.691 50.3547 102.488 50.936C102.285 51.5173 102.184 52.152 102.184 52.84C102.184 53.528 102.285 54.1627 102.488 54.744C102.691 55.3253 102.995 55.8747 103.4 56.392H102.544ZM104.001 54.464L105.209 53.304C105.315 53.1973 105.465 53.0587 105.657 52.888C105.961 52.6107 106.193 52.3867 106.353 52.216C106.513 52.0453 106.643 51.864 106.745 51.672C106.846 51.4747 106.897 51.264 106.897 51.04C106.897 50.7093 106.801 50.4587 106.609 50.288C106.417 50.112 106.137 50.024 105.769 50.024C105.518 50.024 105.259 50.0693 104.993 50.16C104.731 50.2507 104.486 50.384 104.257 50.56V49.776C104.705 49.4507 105.251 49.288 105.897 49.288C106.473 49.288 106.921 49.4427 107.241 49.752C107.561 50.056 107.721 50.472 107.721 51C107.721 51.256 107.665 51.5013 107.553 51.736C107.446 51.9707 107.294 52.2027 107.097 52.432C106.899 52.656 106.633 52.9307 106.297 53.256L105.209 54.32H107.929V55H104.001V54.464ZM110.977 55.12C110.497 55.12 110.081 55.0027 109.729 54.768C109.382 54.5333 109.116 54.1973 108.929 53.76C108.742 53.3227 108.649 52.8053 108.649 52.208C108.649 51.6107 108.74 51.0933 108.921 50.656C109.108 50.2133 109.374 49.8747 109.721 49.64C110.073 49.4053 110.492 49.288 110.977 49.288C111.462 49.288 111.878 49.4053 112.225 49.64C112.577 49.8747 112.844 50.2133 113.025 50.656C113.212 51.0933 113.305 51.6107 113.305 52.208C113.305 52.8053 113.212 53.3227 113.025 53.76C112.838 54.1973 112.569 54.5333 112.217 54.768C111.87 55.0027 111.457 55.12 110.977 55.12ZM110.977 54.4C111.452 54.4 111.822 54.2053 112.089 53.816C112.361 53.4213 112.497 52.888 112.497 52.216C112.497 51.544 112.364 51.0107 112.097 50.616C111.83 50.2213 111.457 50.024 110.977 50.024C110.497 50.024 110.124 50.2213 109.857 50.616C109.59 51.0107 109.457 51.544 109.457 52.216C109.457 52.888 109.59 53.4213 109.857 53.816C110.129 54.2053 110.502 54.4 110.977 54.4ZM116.584 53.624H113.864V53.104L116.576 49.408H117.408V52.984H118.272V53.624H117.408V55H116.584V53.624ZM116.68 52.984V50.384L114.784 52.984H116.68ZM118.709 56.392C119.114 55.8747 119.418 55.3253 119.621 54.744C119.823 54.1627 119.925 53.528 119.925 52.84C119.925 52.152 119.823 51.5173 119.621 50.936C119.418 50.3547 119.114 49.8053 118.709 49.288H119.565C119.949 49.7573 120.242 50.2933 120.445 50.896C120.647 51.4933 120.749 52.1413 120.749 52.84C120.749 53.544 120.647 54.1947 120.445 54.792C120.242 55.3893 119.949 55.9227 119.565 56.392H118.709Z" fill="#484B52"/>
<path d="M19.3573 58C19.193 58 19.0298 57.9465 18.8905 57.8414C18.6311 57.6452 18.5099 57.308 18.5805 56.9825L19.5455 52.5469L16.2728 49.552C16.0323 49.3329 15.9404 48.9859 16.0391 48.6683C16.1379 48.3514 16.4066 48.127 16.7248 48.0963L21.0549 47.6861L22.7668 43.5055C22.8931 43.1984 23.1805 43 23.4999 43C23.8194 43 24.1068 43.1984 24.2331 43.5048L25.945 47.6861L30.2744 48.0963C30.5933 48.1263 30.862 48.3514 30.9608 48.6683C31.0595 48.9853 30.9682 49.3329 30.7276 49.552L27.455 52.5463L28.42 56.9818C28.4907 57.308 28.3694 57.6452 28.1101 57.8408C27.8513 58.0364 27.5063 58.0515 27.2338 57.8806L23.4999 55.5522L19.7661 57.8819C19.6399 57.9601 19.4992 58 19.3573 58Z" fill="#F2C938"/>
<path d="M35.3573 58C35.193 58 35.0298 57.9465 34.8905 57.8414C34.6311 57.6452 34.5099 57.308 34.5805 56.9825L35.5455 52.5469L32.2728 49.552C32.0323 49.3329 31.9404 48.9859 32.0391 48.6683C32.1379 48.3514 32.4066 48.127 32.7248 48.0963L37.0549 47.6861L38.7668 43.5055C38.8931 43.1984 39.1805 43 39.4999 43C39.8194 43 40.1068 43.1984 40.2331 43.5048L41.945 47.6861L46.2744 48.0963C46.5933 48.1263 46.862 48.3514 46.9608 48.6683C47.0595 48.9853 46.9682 49.3329 46.7276 49.552L43.455 52.5463L44.42 56.9818C44.4907 57.308 44.3694 57.6452 44.1101 57.8408C43.8513 58.0364 43.5063 58.0515 43.2338 57.8806L39.4999 55.5522L35.7661 57.8819C35.6399 57.9601 35.4992 58 35.3573 58Z" fill="#F2C938"/>
<path d="M51.3573 58C51.193 58 51.0298 57.9465 50.8905 57.8414C50.6311 57.6452 50.5099 57.308 50.5805 56.9825L51.5455 52.5469L48.2728 49.552C48.0323 49.3329 47.9404 48.9859 48.0391 48.6683C48.1379 48.3514 48.4066 48.127 48.7248 48.0963L53.0549 47.6861L54.7668 43.5055C54.8931 43.1984 55.1805 43 55.4999 43C55.8194 43 56.1068 43.1984 56.2331 43.5048L57.945 47.6861L62.2744 48.0963C62.5933 48.1263 62.862 48.3514 62.9608 48.6683C63.0595 48.9853 62.9682 49.3329 62.7276 49.552L59.455 52.5463L60.42 56.9818C60.4907 57.308 60.3694 57.6452 60.1101 57.8408C59.8513 58.0364 59.5063 58.0515 59.2338 57.8806L55.4999 55.5522L51.7661 57.8819C51.6399 57.9601 51.4992 58 51.3573 58Z" fill="#F2C938"/>
<path d="M67.3573 58C67.193 58 67.0298 57.9465 66.8905 57.8414C66.6311 57.6452 66.5099 57.308 66.5805 56.9825L67.5455 52.5469L64.2728 49.552C64.0323 49.3329 63.9404 48.9859 64.0391 48.6683C64.1379 48.3514 64.4066 48.127 64.7248 48.0963L69.0549 47.6861L70.7668 43.5055C70.8931 43.1984 71.1805 43 71.4999 43C71.8194 43 72.1068 43.1984 72.2331 43.5048L73.945 47.6861L78.2744 48.0963C78.5933 48.1263 78.862 48.3514 78.9608 48.6683C79.0595 48.9853 78.9682 49.3329 78.7276 49.552L75.455 52.5463L76.42 56.9818C76.4907 57.308 76.3694 57.6452 76.1101 57.8408C75.8513 58.0364 75.5063 58.0515 75.2338 57.8806L71.4999 55.5522L67.7661 57.8819C67.6399 57.9601 67.4992 58 67.3573 58Z" fill="#F2C938"/>
<path d="M92.42 56.9818C92.4907 57.308 92.3694 57.6452 92.1101 57.8408C91.8513 58.0364 91.5063 58.0515 91.2338 57.8806L91.455 52.5463L92.42 56.9818ZM92.42 56.9818L91.9314 57.0881M92.42 56.9818L91.9314 57.0878M91.9314 57.0881C91.9623 57.231 91.9066 57.368 91.809 57.4416L91.8086 57.442C91.7146 57.513 91.5952 57.517 91.4994 57.457L91.4984 57.4563L87.7645 55.128L87.4999 54.9629L87.2353 55.128L83.5027 57.4569C83.5025 57.457 83.5023 57.4571 83.5021 57.4573C83.4536 57.4872 83.4042 57.5 83.3573 57.5C83.3028 57.5 83.2451 57.4826 83.1918 57.4424C83.0934 57.3677 83.0383 57.2303 83.0691 57.0886L84.034 52.6532L84.0952 52.3722L83.883 52.178L80.6104 49.1832L80.6095 49.1824C80.5163 49.0975 80.4739 48.954 80.5166 48.8168L80.0391 48.6683L80.5165 48.8171C80.5585 48.6823 80.665 48.6045 80.7725 48.594C80.7726 48.594 80.7727 48.594 80.7728 48.594L85.102 48.1839L85.403 48.1553L85.5176 47.8756L87.2293 43.6956C87.2293 43.6954 87.2294 43.6953 87.2294 43.6952C87.2828 43.5658 87.394 43.5 87.4999 43.5C87.6062 43.5 87.7174 43.5661 87.7706 43.6949C87.7707 43.695 87.7707 43.6951 87.7708 43.6952L89.4823 47.8755L89.5969 48.1553L89.8979 48.1839L94.2273 48.5941L94.2276 48.5941C94.3344 48.6041 94.4412 48.6816 94.4834 48.8171C94.5261 48.9541 94.4837 49.0979 94.3909 49.1824L94.3901 49.1831L91.1175 52.1774L90.9053 52.3715L90.9664 52.6526L91.9314 57.0878M91.9314 57.0881L91.9314 57.0878M91.9314 57.0881L91.9314 57.0878" fill="#D6DBE3" stroke="#D6DBE3"/>
<defs>
<filter id="filter0_d_7427_137934" x="0" y="0" width="141" height="102" filterUnits="userSpaceOnUse" color-interpolation-filters="sRGB">
<feFlood flood-opacity="0" result="BackgroundImageFix"/>
<feColorMatrix in="SourceAlpha" type="matrix" values="0 0 0 0 0 0 0 0 0 0 0 0 0 0 0 0 0 0 127 0" result="hardAlpha"/>
<feOffset/>
<feGaussianBlur stdDeviation="2"/>
<feColorMatrix type="matrix" values="0 0 0 0 0 0 0 0 0 0 0 0 0 0 0 0 0 0 0.1 0"/>
<feBlend mode="normal" in2="BackgroundImageFix" result="effect1_dropShadow_7427_137934"/>
<feBlend mode="normal" in="SourceGraphic" in2="effect1_dropShadow_7427_137934" result="shape"/>
</filter>
</defs>
</svg>
