<svg width="141" height="102" viewBox="0 0 141 102" fill="none" xmlns="http://www.w3.org/2000/svg">
<g filter="url(#filter0_d_7427_137934)">
<rect x="4" y="4" width="133" height="94" rx="4" fill="white"/>
</g>
<path d="M17.132 36H14.78V27.612H17.132V26.376H18.2V27.612H18.632C19.376 27.612 19.952 27.804 20.36 28.188C20.768 28.572 20.972 29.132 20.972 29.868C20.972 30.284 20.872 30.652 20.672 30.972C20.48 31.284 20.224 31.516 19.904 31.668C20.8 31.932 21.248 32.584 21.248 33.624C21.248 34.112 21.14 34.536 20.924 34.896C20.716 35.248 20.428 35.52 20.06 35.712C19.692 35.904 19.284 36 18.836 36H18.2V37.236H17.132V36ZM17.132 31.212V28.608H16.004V31.212H17.132ZM18.476 31.212C18.868 31.212 19.176 31.104 19.4 30.888C19.624 30.672 19.736 30.352 19.736 29.928C19.736 29.44 19.624 29.1 19.4 28.908C19.184 28.708 18.848 28.608 18.392 28.608H18.2V31.212H18.476ZM17.132 35.004V32.22H16.004V35.004H17.132ZM18.56 35.004C19.032 35.004 19.392 34.9 19.64 34.692C19.888 34.484 20.012 34.128 20.012 33.624C20.012 33.12 19.88 32.76 19.616 32.544C19.36 32.328 18.972 32.22 18.452 32.22H18.2V35.004H18.56ZM22.333 35.196L24.145 33.456C24.305 33.296 24.529 33.088 24.817 32.832C25.273 32.416 25.621 32.08 25.861 31.824C26.101 31.568 26.297 31.296 26.449 31.008C26.601 30.712 26.677 30.396 26.677 30.06C26.677 29.564 26.533 29.188 26.245 28.932C25.957 28.668 25.537 28.536 24.985 28.536C24.609 28.536 24.221 28.604 23.821 28.74C23.429 28.876 23.061 29.076 22.717 29.34V28.164C23.389 27.676 24.209 27.432 25.177 27.432C26.041 27.432 26.713 27.664 27.193 28.128C27.673 28.584 27.913 29.208 27.913 30C27.913 30.384 27.829 30.752 27.661 31.104C27.501 31.456 27.273 31.804 26.977 32.148C26.681 32.484 26.281 32.896 25.777 33.384L24.145 34.98H28.225V36H22.333V35.196ZM32.3776 36.18C31.4336 36.18 30.6856 35.968 30.1336 35.544C29.5816 35.112 29.3056 34.5 29.3056 33.708C29.3056 33.172 29.4456 32.724 29.7256 32.364C30.0056 31.996 30.3776 31.748 30.8416 31.62C30.4576 31.46 30.1536 31.216 29.9296 30.888C29.7056 30.552 29.5936 30.164 29.5936 29.724C29.5936 29.02 29.8456 28.464 30.3496 28.056C30.8536 27.64 31.5296 27.432 32.3776 27.432C33.2176 27.432 33.8896 27.64 34.3936 28.056C34.8976 28.464 35.1496 29.02 35.1496 29.724C35.1496 30.164 35.0376 30.552 34.8136 30.888C34.5896 31.216 34.2856 31.46 33.9016 31.62C34.3656 31.748 34.7376 31.996 35.0176 32.364C35.3056 32.724 35.4496 33.172 35.4496 33.708C35.4496 34.5 35.1736 35.112 34.6216 35.544C34.0696 35.968 33.3216 36.18 32.3776 36.18ZM32.3776 31.248C32.8496 31.248 33.2336 31.12 33.5296 30.864C33.8256 30.6 33.9736 30.256 33.9736 29.832C33.9736 29.4 33.8256 29.048 33.5296 28.776C33.2416 28.504 32.8576 28.368 32.3776 28.368C31.8976 28.368 31.5096 28.504 31.2136 28.776C30.9256 29.048 30.7816 29.4 30.7816 29.832C30.7816 30.256 30.9296 30.6 31.2256 30.864C31.5216 31.12 31.9056 31.248 32.3776 31.248ZM32.3776 35.292C32.9536 35.292 33.4056 35.144 33.7336 34.848C34.0616 34.552 34.2256 34.144 34.2256 33.624C34.2256 33.128 34.0536 32.736 33.7096 32.448C33.3736 32.16 32.9296 32.016 32.3776 32.016C31.8256 32.016 31.3776 32.16 31.0336 32.448C30.6896 32.736 30.5176 33.128 30.5176 33.624C30.5176 34.144 30.6816 34.552 31.0096 34.848C31.3456 35.144 31.8016 35.292 32.3776 35.292ZM40.0164 36.18C39.2964 36.18 38.6724 36.004 38.1444 35.652C37.6244 35.3 37.2244 34.796 36.9444 34.14C36.6644 33.484 36.5244 32.708 36.5244 31.812C36.5244 30.916 36.6604 30.14 36.9324 29.484C37.2124 28.82 37.6124 28.312 38.1324 27.96C38.6604 27.608 39.2884 27.432 40.0164 27.432C40.7444 27.432 41.3684 27.608 41.8884 27.96C42.4164 28.312 42.8164 28.82 43.0884 29.484C43.3684 30.14 43.5084 30.916 43.5084 31.812C43.5084 32.708 43.3684 33.484 43.0884 34.14C42.8084 34.796 42.4044 35.3 41.8764 35.652C41.3564 36.004 40.7364 36.18 40.0164 36.18ZM40.0164 35.1C40.7284 35.1 41.2844 34.808 41.6844 34.224C42.0924 33.632 42.2964 32.832 42.2964 31.824C42.2964 30.816 42.0964 30.016 41.6964 29.424C41.2964 28.832 40.7364 28.536 40.0164 28.536C39.2964 28.536 38.7364 28.832 38.3364 29.424C37.9364 30.016 37.7364 30.816 37.7364 31.824C37.7364 32.832 37.9364 33.632 38.3364 34.224C38.7444 34.808 39.3044 35.1 40.0164 35.1ZM45.1509 36C44.9909 36 44.8549 35.948 44.7429 35.844C44.6389 35.732 44.5869 35.596 44.5869 35.436C44.5869 35.276 44.6389 35.14 44.7429 35.028C44.8549 34.916 44.9909 34.86 45.1509 34.86C45.3109 34.86 45.4469 34.916 45.5589 35.028C45.6709 35.14 45.7269 35.276 45.7269 35.436C45.7269 35.596 45.6709 35.732 45.5589 35.844C45.4469 35.948 45.3109 36 45.1509 36ZM50.2937 36.18C49.5737 36.18 48.9497 36.004 48.4217 35.652C47.9017 35.3 47.5017 34.796 47.2217 34.14C46.9417 33.484 46.8017 32.708 46.8017 31.812C46.8017 30.916 46.9377 30.14 47.2097 29.484C47.4897 28.82 47.8897 28.312 48.4097 27.96C48.9377 27.608 49.5657 27.432 50.2937 27.432C51.0217 27.432 51.6457 27.608 52.1657 27.96C52.6937 28.312 53.0937 28.82 53.3657 29.484C53.6457 30.14 53.7857 30.916 53.7857 31.812C53.7857 32.708 53.6457 33.484 53.3657 34.14C53.0857 34.796 52.6817 35.3 52.1537 35.652C51.6337 36.004 51.0137 36.18 50.2937 36.18ZM50.2937 35.1C51.0057 35.1 51.5617 34.808 51.9617 34.224C52.3697 33.632 52.5737 32.832 52.5737 31.824C52.5737 30.816 52.3737 30.016 51.9737 29.424C51.5737 28.832 51.0137 28.536 50.2937 28.536C49.5737 28.536 49.0137 28.832 48.6137 29.424C48.2137 30.016 48.0137 30.816 48.0137 31.824C48.0137 32.832 48.2137 33.632 48.6137 34.224C49.0217 34.808 49.5817 35.1 50.2937 35.1ZM58.3562 36.18C57.6362 36.18 57.0122 36.004 56.4842 35.652C55.9642 35.3 55.5642 34.796 55.2842 34.14C55.0042 33.484 54.8642 32.708 54.8642 31.812C54.8642 30.916 55.0002 30.14 55.2722 29.484C55.5522 28.82 55.9522 28.312 56.4722 27.96C57.0002 27.608 57.6282 27.432 58.3562 27.432C59.0842 27.432 59.7082 27.608 60.2282 27.96C60.7562 28.312 61.1562 28.82 61.4282 29.484C61.7082 30.14 61.8482 30.916 61.8482 31.812C61.8482 32.708 61.7082 33.484 61.4282 34.14C61.1482 34.796 60.7442 35.3 60.2162 35.652C59.6962 36.004 59.0762 36.18 58.3562 36.18ZM58.3562 35.1C59.0682 35.1 59.6242 34.808 60.0242 34.224C60.4322 33.632 60.6362 32.832 60.6362 31.824C60.6362 30.816 60.4362 30.016 60.0362 29.424C59.6362 28.832 59.0762 28.536 58.3562 28.536C57.6362 28.536 57.0762 28.832 56.6762 29.424C56.2762 30.016 56.0762 30.816 56.0762 31.824C56.0762 32.832 56.2762 33.632 56.6762 34.224C57.0842 34.808 57.6442 35.1 58.3562 35.1Z" fill="#484B52"/>
<path d="M78.088 59H76.52V53.408H78.088V52.584H78.8V53.408H79.088C79.584 53.408 79.968 53.536 80.24 53.792C80.512 54.048 80.648 54.4213 80.648 54.912C80.648 55.1893 80.5813 55.4347 80.448 55.648C80.32 55.856 80.1493 56.0107 79.936 56.112C80.5333 56.288 80.832 56.7227 80.832 57.416C80.832 57.7413 80.76 58.024 80.616 58.264C80.4773 58.4987 80.2853 58.68 80.04 58.808C79.7947 58.936 79.5227 59 79.224 59H78.8V59.824H78.088V59ZM78.088 55.808V54.072H77.336V55.808H78.088ZM78.984 55.808C79.2453 55.808 79.4507 55.736 79.6 55.592C79.7493 55.448 79.824 55.2347 79.824 54.952C79.824 54.6267 79.7493 54.4 79.6 54.272C79.456 54.1387 79.232 54.072 78.928 54.072H78.8V55.808H78.984ZM78.088 58.336V56.48H77.336V58.336H78.088ZM79.04 58.336C79.3547 58.336 79.5947 58.2667 79.76 58.128C79.9253 57.9893 80.008 57.752 80.008 57.416C80.008 57.08 79.92 56.84 79.744 56.696C79.5733 56.552 79.3147 56.48 78.968 56.48H78.8V58.336H79.04ZM82.7633 54.288L81.5553 55.16V54.384L82.8753 53.408H83.5793V59H82.7633V54.288ZM86.5096 59.12C85.8802 59.12 85.3816 58.9787 85.0136 58.696C84.6456 58.408 84.4616 58 84.4616 57.472C84.4616 57.1147 84.5549 56.816 84.7416 56.576C84.9282 56.3307 85.1762 56.1653 85.4856 56.08C85.2296 55.9733 85.0269 55.8107 84.8776 55.592C84.7282 55.368 84.6536 55.1093 84.6536 54.816C84.6536 54.3467 84.8216 53.976 85.1576 53.704C85.4936 53.4267 85.9442 53.288 86.5096 53.288C87.0696 53.288 87.5176 53.4267 87.8536 53.704C88.1896 53.976 88.3576 54.3467 88.3576 54.816C88.3576 55.1093 88.2829 55.368 88.1336 55.592C87.9842 55.8107 87.7816 55.9733 87.5256 56.08C87.8349 56.1653 88.0829 56.3307 88.2696 56.576C88.4616 56.816 88.5576 57.1147 88.5576 57.472C88.5576 58 88.3736 58.408 88.0056 58.696C87.6376 58.9787 87.1389 59.12 86.5096 59.12ZM86.5096 55.832C86.8242 55.832 87.0802 55.7467 87.2776 55.576C87.4749 55.4 87.5736 55.1707 87.5736 54.888C87.5736 54.6 87.4749 54.3653 87.2776 54.184C87.0856 54.0027 86.8296 53.912 86.5096 53.912C86.1896 53.912 85.9309 54.0027 85.7336 54.184C85.5416 54.3653 85.4456 54.6 85.4456 54.888C85.4456 55.1707 85.5442 55.4 85.7416 55.576C85.9389 55.7467 86.1949 55.832 86.5096 55.832ZM86.5096 58.528C86.8936 58.528 87.1949 58.4293 87.4136 58.232C87.6322 58.0347 87.7416 57.7627 87.7416 57.416C87.7416 57.0853 87.6269 56.824 87.3976 56.632C87.1736 56.44 86.8776 56.344 86.5096 56.344C86.1416 56.344 85.8429 56.44 85.6136 56.632C85.3842 56.824 85.2696 57.0853 85.2696 57.416C85.2696 57.7627 85.3789 58.0347 85.5976 58.232C85.8216 58.4293 86.1256 58.528 86.5096 58.528ZM91.6021 59.12C91.1221 59.12 90.7061 59.0027 90.3541 58.768C90.0074 58.5333 89.7407 58.1973 89.5541 57.76C89.3674 57.3227 89.2741 56.8053 89.2741 56.208C89.2741 55.6107 89.3647 55.0933 89.5461 54.656C89.7327 54.2133 89.9994 53.8747 90.3461 53.64C90.6981 53.4053 91.1167 53.288 91.6021 53.288C92.0874 53.288 92.5034 53.4053 92.8501 53.64C93.2021 53.8747 93.4687 54.2133 93.6501 54.656C93.8367 55.0933 93.9301 55.6107 93.9301 56.208C93.9301 56.8053 93.8367 57.3227 93.6501 57.76C93.4634 58.1973 93.1941 58.5333 92.8421 58.768C92.4954 59.0027 92.0821 59.12 91.6021 59.12ZM91.6021 58.4C92.0767 58.4 92.4474 58.2053 92.7141 57.816C92.9861 57.4213 93.1221 56.888 93.1221 56.216C93.1221 55.544 92.9887 55.0107 92.7221 54.616C92.4554 54.2213 92.0821 54.024 91.6021 54.024C91.1221 54.024 90.7487 54.2213 90.4821 54.616C90.2154 55.0107 90.0821 55.544 90.0821 56.216C90.0821 56.888 90.2154 57.4213 90.4821 57.816C90.7541 58.2053 91.1274 58.4 91.6021 58.4ZM95.0251 59C94.9184 59 94.8277 58.9653 94.7531 58.896C94.6837 58.8213 94.6491 58.7307 94.6491 58.624C94.6491 58.5173 94.6837 58.4267 94.7531 58.352C94.8277 58.2773 94.9184 58.24 95.0251 58.24C95.1317 58.24 95.2224 58.2773 95.2971 58.352C95.3717 58.4267 95.4091 58.5173 95.4091 58.624C95.4091 58.7307 95.3717 58.8213 95.2971 58.896C95.2224 58.9653 95.1317 59 95.0251 59ZM98.4536 59.12C97.9736 59.12 97.5576 59.0027 97.2056 58.768C96.859 58.5333 96.5923 58.1973 96.4056 57.76C96.219 57.3227 96.1256 56.8053 96.1256 56.208C96.1256 55.6107 96.2163 55.0933 96.3976 54.656C96.5843 54.2133 96.851 53.8747 97.1976 53.64C97.5496 53.4053 97.9683 53.288 98.4536 53.288C98.939 53.288 99.355 53.4053 99.7016 53.64C100.054 53.8747 100.32 54.2133 100.502 54.656C100.688 55.0933 100.782 55.6107 100.782 56.208C100.782 56.8053 100.688 57.3227 100.502 57.76C100.315 58.1973 100.046 58.5333 99.6936 58.768C99.347 59.0027 98.9336 59.12 98.4536 59.12ZM98.4536 58.4C98.9283 58.4 99.299 58.2053 99.5656 57.816C99.8376 57.4213 99.9736 56.888 99.9736 56.216C99.9736 55.544 99.8403 55.0107 99.5736 54.616C99.307 54.2213 98.9336 54.024 98.4536 54.024C97.9736 54.024 97.6003 54.2213 97.3336 54.616C97.067 55.0107 96.9336 55.544 96.9336 56.216C96.9336 56.888 97.067 57.4213 97.3336 57.816C97.6056 58.2053 97.979 58.4 98.4536 58.4ZM103.829 59.12C103.349 59.12 102.933 59.0027 102.581 58.768C102.234 58.5333 101.967 58.1973 101.781 57.76C101.594 57.3227 101.501 56.8053 101.501 56.208C101.501 55.6107 101.591 55.0933 101.773 54.656C101.959 54.2133 102.226 53.8747 102.573 53.64C102.925 53.4053 103.343 53.288 103.829 53.288C104.314 53.288 104.73 53.4053 105.077 53.64C105.429 53.8747 105.695 54.2133 105.877 54.656C106.063 55.0933 106.157 55.6107 106.157 56.208C106.157 56.8053 106.063 57.3227 105.877 57.76C105.69 58.1973 105.421 58.5333 105.069 58.768C104.722 59.0027 104.309 59.12 103.829 59.12ZM103.829 58.4C104.303 58.4 104.674 58.2053 104.941 57.816C105.213 57.4213 105.349 56.888 105.349 56.216C105.349 55.544 105.215 55.0107 104.949 54.616C104.682 54.2213 104.309 54.024 103.829 54.024C103.349 54.024 102.975 54.2213 102.709 54.616C102.442 55.0107 102.309 55.544 102.309 56.216C102.309 56.888 102.442 57.4213 102.709 57.816C102.981 58.2053 103.354 58.4 103.829 58.4Z" fill="#484B52"/>
<path d="M16.088 22H14.52V16.408H16.088V15.584H16.8V16.408H17.088C17.584 16.408 17.968 16.536 18.24 16.792C18.512 17.048 18.648 17.4213 18.648 17.912C18.648 18.1893 18.5813 18.4347 18.448 18.648C18.32 18.856 18.1493 19.0107 17.936 19.112C18.5333 19.288 18.832 19.7227 18.832 20.416C18.832 20.7413 18.76 21.024 18.616 21.264C18.4773 21.4987 18.2853 21.68 18.04 21.808C17.7947 21.936 17.5227 22 17.224 22H16.8V22.824H16.088V22ZM16.088 18.808V17.072H15.336V18.808H16.088ZM16.984 18.808C17.2453 18.808 17.4507 18.736 17.6 18.592C17.7493 18.448 17.824 18.2347 17.824 17.952C17.824 17.6267 17.7493 17.4 17.6 17.272C17.456 17.1387 17.232 17.072 16.928 17.072H16.8V18.808H16.984ZM16.088 21.336V19.48H15.336V21.336H16.088ZM17.04 21.336C17.3547 21.336 17.5947 21.2667 17.76 21.128C17.9253 20.9893 18.008 20.752 18.008 20.416C18.008 20.08 17.92 19.84 17.744 19.696C17.5733 19.552 17.3147 19.48 16.968 19.48H16.8V21.336H17.04ZM22.1153 20.624H19.3953V20.104L22.1073 16.408H22.9393V19.984H23.8033V20.624H22.9393V22H22.1153V20.624ZM22.2113 19.984V17.384L20.3153 19.984H22.2113ZM26.688 22.12C26.208 22.12 25.792 22.0027 25.44 21.768C25.0933 21.5333 24.8267 21.1973 24.64 20.76C24.4533 20.3227 24.36 19.8053 24.36 19.208C24.36 18.6107 24.4507 18.0933 24.632 17.656C24.8187 17.2133 25.0853 16.8747 25.432 16.64C25.784 16.4053 26.2027 16.288 26.688 16.288C27.1733 16.288 27.5893 16.4053 27.936 16.64C28.288 16.8747 28.5547 17.2133 28.736 17.656C28.9227 18.0933 29.016 18.6107 29.016 19.208C29.016 19.8053 28.9227 20.3227 28.736 20.76C28.5493 21.1973 28.28 21.5333 27.928 21.768C27.5813 22.0027 27.168 22.12 26.688 22.12ZM26.688 21.4C27.1627 21.4 27.5333 21.2053 27.8 20.816C28.072 20.4213 28.208 19.888 28.208 19.216C28.208 18.544 28.0747 18.0107 27.808 17.616C27.5413 17.2213 27.168 17.024 26.688 17.024C26.208 17.024 25.8347 17.2213 25.568 17.616C25.3013 18.0107 25.168 18.544 25.168 19.216C25.168 19.888 25.3013 20.4213 25.568 20.816C25.84 21.2053 26.2133 21.4 26.688 21.4ZM32.063 22.12C31.583 22.12 31.167 22.0027 30.815 21.768C30.4683 21.5333 30.2017 21.1973 30.015 20.76C29.8283 20.3227 29.735 19.8053 29.735 19.208C29.735 18.6107 29.8257 18.0933 30.007 17.656C30.1937 17.2133 30.4603 16.8747 30.807 16.64C31.159 16.4053 31.5777 16.288 32.063 16.288C32.5483 16.288 32.9643 16.4053 33.311 16.64C33.663 16.8747 33.9297 17.2133 34.111 17.656C34.2977 18.0933 34.391 18.6107 34.391 19.208C34.391 19.8053 34.2977 20.3227 34.111 20.76C33.9243 21.1973 33.655 21.5333 33.303 21.768C32.9563 22.0027 32.543 22.12 32.063 22.12ZM32.063 21.4C32.5377 21.4 32.9083 21.2053 33.175 20.816C33.447 20.4213 33.583 19.888 33.583 19.216C33.583 18.544 33.4497 18.0107 33.183 17.616C32.9163 17.2213 32.543 17.024 32.063 17.024C31.583 17.024 31.2097 17.2213 30.943 17.616C30.6763 18.0107 30.543 18.544 30.543 19.216C30.543 19.888 30.6763 20.4213 30.943 20.816C31.215 21.2053 31.5883 21.4 32.063 21.4ZM35.486 22C35.3793 22 35.2887 21.9653 35.214 21.896C35.1447 21.8213 35.11 21.7307 35.11 21.624C35.11 21.5173 35.1447 21.4267 35.214 21.352C35.2887 21.2773 35.3793 21.24 35.486 21.24C35.5927 21.24 35.6833 21.2773 35.758 21.352C35.8327 21.4267 35.87 21.5173 35.87 21.624C35.87 21.7307 35.8327 21.8213 35.758 21.896C35.6833 21.9653 35.5927 22 35.486 22ZM38.9146 22.12C38.4346 22.12 38.0186 22.0027 37.6666 21.768C37.3199 21.5333 37.0532 21.1973 36.8666 20.76C36.6799 20.3227 36.5866 19.8053 36.5866 19.208C36.5866 18.6107 36.6772 18.0933 36.8586 17.656C37.0452 17.2133 37.3119 16.8747 37.6586 16.64C38.0106 16.4053 38.4292 16.288 38.9146 16.288C39.3999 16.288 39.8159 16.4053 40.1626 16.64C40.5146 16.8747 40.7812 17.2133 40.9626 17.656C41.1492 18.0933 41.2426 18.6107 41.2426 19.208C41.2426 19.8053 41.1492 20.3227 40.9626 20.76C40.7759 21.1973 40.5066 21.5333 40.1546 21.768C39.8079 22.0027 39.3946 22.12 38.9146 22.12ZM38.9146 21.4C39.3892 21.4 39.7599 21.2053 40.0266 20.816C40.2986 20.4213 40.4346 19.888 40.4346 19.216C40.4346 18.544 40.3012 18.0107 40.0346 17.616C39.7679 17.2213 39.3946 17.024 38.9146 17.024C38.4346 17.024 38.0612 17.2213 37.7946 17.616C37.5279 18.0107 37.3946 18.544 37.3946 19.216C37.3946 19.888 37.5279 20.4213 37.7946 20.816C38.0666 21.2053 38.4399 21.4 38.9146 21.4ZM44.2896 22.12C43.8096 22.12 43.3936 22.0027 43.0416 21.768C42.6949 21.5333 42.4282 21.1973 42.2416 20.76C42.0549 20.3227 41.9616 19.8053 41.9616 19.208C41.9616 18.6107 42.0522 18.0933 42.2336 17.656C42.4202 17.2133 42.6869 16.8747 43.0336 16.64C43.3856 16.4053 43.8042 16.288 44.2896 16.288C44.7749 16.288 45.1909 16.4053 45.5376 16.64C45.8896 16.8747 46.1562 17.2133 46.3376 17.656C46.5242 18.0933 46.6176 18.6107 46.6176 19.208C46.6176 19.8053 46.5242 20.3227 46.3376 20.76C46.1509 21.1973 45.8816 21.5333 45.5296 21.768C45.1829 22.0027 44.7696 22.12 44.2896 22.12ZM44.2896 21.4C44.7642 21.4 45.1349 21.2053 45.4016 20.816C45.6736 20.4213 45.8096 19.888 45.8096 19.216C45.8096 18.544 45.6762 18.0107 45.4096 17.616C45.1429 17.2213 44.7696 17.024 44.2896 17.024C43.8096 17.024 43.4362 17.2213 43.1696 17.616C42.9029 18.0107 42.7696 18.544 42.7696 19.216C42.7696 19.888 42.9029 20.4213 43.1696 20.816C43.4416 21.2053 43.8149 21.4 44.2896 21.4Z" fill="#9799A5"/>
<path d="M14 19.432H46.9776V19.832H14V19.432Z" fill="#9799A5"/>
<path d="M81.4161 73H79.8481V67.408H81.4161V66.584H82.1281V67.408H82.4161C82.9121 67.408 83.2961 67.536 83.5681 67.792C83.8401 68.048 83.9761 68.4213 83.9761 68.912C83.9761 69.1893 83.9095 69.4347 83.7761 69.648C83.6481 69.856 83.4775 70.0107 83.2641 70.112C83.8615 70.288 84.1601 70.7227 84.1601 71.416C84.1601 71.7413 84.0881 72.024 83.9441 72.264C83.8055 72.4987 83.6135 72.68 83.3681 72.808C83.1228 72.936 82.8508 73 82.5521 73H82.1281V73.824H81.4161V73ZM81.4161 69.808V68.072H80.6641V69.808H81.4161ZM82.3121 69.808C82.5735 69.808 82.7788 69.736 82.9281 69.592C83.0775 69.448 83.1521 69.2347 83.1521 68.952C83.1521 68.6267 83.0775 68.4 82.9281 68.272C82.7841 68.1387 82.5601 68.072 82.2561 68.072H82.1281V69.808H82.3121ZM81.4161 72.336V70.48H80.6641V72.336H81.4161ZM82.3681 72.336C82.6828 72.336 82.9228 72.2667 83.0881 72.128C83.2535 71.9893 83.3361 71.752 83.3361 71.416C83.3361 71.08 83.2481 70.84 83.0721 70.696C82.9015 70.552 82.6428 70.48 82.2961 70.48H82.1281V72.336H82.3681ZM86.3874 73.12C86.0941 73.12 85.8328 73.088 85.6034 73.024V72.344C85.8114 72.424 86.0514 72.464 86.3234 72.464C87.4701 72.464 88.0994 71.7787 88.2114 70.408C88.0514 70.6107 87.8408 70.7627 87.5794 70.864C87.3234 70.9653 87.0354 71.016 86.7154 71.016C86.3581 71.016 86.0408 70.9413 85.7634 70.792C85.4861 70.6427 85.2701 70.4293 85.1154 70.152C84.9608 69.8747 84.8834 69.552 84.8834 69.184C84.8834 68.8213 84.9634 68.496 85.1234 68.208C85.2888 67.92 85.5261 67.696 85.8354 67.536C86.1448 67.3707 86.5101 67.288 86.9314 67.288C87.3368 67.288 87.6968 67.3787 88.0114 67.56C88.3314 67.7413 88.5821 68.0133 88.7634 68.376C88.9448 68.7333 89.0354 69.168 89.0354 69.68C89.0354 70.7893 88.8061 71.64 88.3474 72.232C87.8941 72.824 87.2408 73.12 86.3874 73.12ZM86.9314 70.376C87.2834 70.376 87.5768 70.264 87.8114 70.04C88.0514 69.816 88.1714 69.52 88.1714 69.152C88.1714 68.9333 88.1181 68.7307 88.0114 68.544C87.9101 68.3573 87.7661 68.208 87.5794 68.096C87.3928 67.984 87.1768 67.928 86.9314 67.928C86.5581 67.928 86.2568 68.04 86.0274 68.264C85.8034 68.488 85.6914 68.7867 85.6914 69.16C85.6914 69.5333 85.8034 69.8293 86.0274 70.048C86.2568 70.2667 86.5581 70.376 86.9314 70.376ZM92.0864 73.12C91.6064 73.12 91.1904 73.0027 90.8384 72.768C90.4918 72.5333 90.2251 72.1973 90.0384 71.76C89.8518 71.3227 89.7584 70.8053 89.7584 70.208C89.7584 69.6107 89.8491 69.0933 90.0304 68.656C90.2171 68.2133 90.4838 67.8747 90.8304 67.64C91.1824 67.4053 91.6011 67.288 92.0864 67.288C92.5718 67.288 92.9878 67.4053 93.3344 67.64C93.6864 67.8747 93.9531 68.2133 94.1344 68.656C94.3211 69.0933 94.4144 69.6107 94.4144 70.208C94.4144 70.8053 94.3211 71.3227 94.1344 71.76C93.9478 72.1973 93.6784 72.5333 93.3264 72.768C92.9798 73.0027 92.5664 73.12 92.0864 73.12ZM92.0864 72.4C92.5611 72.4 92.9318 72.2053 93.1984 71.816C93.4704 71.4213 93.6064 70.888 93.6064 70.216C93.6064 69.544 93.4731 69.0107 93.2064 68.616C92.9398 68.2213 92.5664 68.024 92.0864 68.024C91.6064 68.024 91.2331 68.2213 90.9664 68.616C90.6998 69.0107 90.5664 69.544 90.5664 70.216C90.5664 70.888 90.6998 71.4213 90.9664 71.816C91.2384 72.2053 91.6118 72.4 92.0864 72.4ZM95.5094 73C95.4028 73 95.3121 72.9653 95.2374 72.896C95.1681 72.8213 95.1334 72.7307 95.1334 72.624C95.1334 72.5173 95.1681 72.4267 95.2374 72.352C95.3121 72.2773 95.4028 72.24 95.5094 72.24C95.6161 72.24 95.7068 72.2773 95.7814 72.352C95.8561 72.4267 95.8934 72.5173 95.8934 72.624C95.8934 72.7307 95.8561 72.8213 95.7814 72.896C95.7068 72.9653 95.6161 73 95.5094 73ZM98.938 73.12C98.458 73.12 98.042 73.0027 97.69 72.768C97.3433 72.5333 97.0767 72.1973 96.89 71.76C96.7033 71.3227 96.61 70.8053 96.61 70.208C96.61 69.6107 96.7007 69.0933 96.882 68.656C97.0687 68.2133 97.3353 67.8747 97.682 67.64C98.034 67.4053 98.4527 67.288 98.938 67.288C99.4233 67.288 99.8393 67.4053 100.186 67.64C100.538 67.8747 100.805 68.2133 100.986 68.656C101.173 69.0933 101.266 69.6107 101.266 70.208C101.266 70.8053 101.173 71.3227 100.986 71.76C100.799 72.1973 100.53 72.5333 100.178 72.768C99.8313 73.0027 99.418 73.12 98.938 73.12ZM98.938 72.4C99.4127 72.4 99.7833 72.2053 100.05 71.816C100.322 71.4213 100.458 70.888 100.458 70.216C100.458 69.544 100.325 69.0107 100.058 68.616C99.7913 68.2213 99.418 68.024 98.938 68.024C98.458 68.024 98.0847 68.2213 97.818 68.616C97.5513 69.0107 97.418 69.544 97.418 70.216C97.418 70.888 97.5513 71.4213 97.818 71.816C98.09 72.2053 98.4633 72.4 98.938 72.4ZM104.313 73.12C103.833 73.12 103.417 73.0027 103.065 72.768C102.718 72.5333 102.452 72.1973 102.265 71.76C102.078 71.3227 101.985 70.8053 101.985 70.208C101.985 69.6107 102.076 69.0933 102.257 68.656C102.444 68.2133 102.71 67.8747 103.057 67.64C103.409 67.4053 103.828 67.288 104.313 67.288C104.798 67.288 105.214 67.4053 105.561 67.64C105.913 67.8747 106.18 68.2133 106.361 68.656C106.548 69.0933 106.641 69.6107 106.641 70.208C106.641 70.8053 106.548 71.3227 106.361 71.76C106.174 72.1973 105.905 72.5333 105.553 72.768C105.206 73.0027 104.793 73.12 104.313 73.12ZM104.313 72.4C104.788 72.4 105.158 72.2053 105.425 71.816C105.697 71.4213 105.833 70.888 105.833 70.216C105.833 69.544 105.7 69.0107 105.433 68.616C105.166 68.2213 104.793 68.024 104.313 68.024C103.833 68.024 103.46 68.2213 103.193 68.616C102.926 69.0107 102.793 69.544 102.793 70.216C102.793 70.888 102.926 71.4213 103.193 71.816C103.465 72.2053 103.838 72.4 104.313 72.4Z" fill="#484B52"/>
<path d="M101.811 36.18C101.323 36.18 100.855 36.14 100.407 36.06C99.9668 35.988 99.5828 35.876 99.2548 35.724V34.716C99.9988 35.052 100.799 35.22 101.655 35.22C102.391 35.22 102.935 35.088 103.287 34.824C103.647 34.552 103.827 34.168 103.827 33.672C103.827 33.16 103.643 32.796 103.275 32.58C102.907 32.356 102.347 32.244 101.595 32.244H100.611V31.26H101.571C102.171 31.26 102.655 31.14 103.023 30.9C103.391 30.652 103.575 30.292 103.575 29.82C103.575 29.356 103.423 29.004 103.119 28.764C102.815 28.524 102.375 28.404 101.799 28.404C101.351 28.404 100.947 28.456 100.587 28.56C100.227 28.664 99.8548 28.836 99.4708 29.076V28.068C100.175 27.644 100.999 27.432 101.943 27.432C102.879 27.432 103.591 27.64 104.079 28.056C104.567 28.472 104.811 29.048 104.811 29.784C104.811 30.232 104.691 30.624 104.451 30.96C104.211 31.296 103.851 31.556 103.371 31.74C103.915 31.868 104.331 32.1 104.619 32.436C104.915 32.772 105.063 33.196 105.063 33.708C105.063 34.468 104.803 35.072 104.283 35.52C103.763 35.96 102.939 36.18 101.811 36.18ZM109.637 36.18C108.917 36.18 108.293 36.004 107.765 35.652C107.245 35.3 106.845 34.796 106.565 34.14C106.285 33.484 106.145 32.708 106.145 31.812C106.145 30.916 106.281 30.14 106.553 29.484C106.833 28.82 107.233 28.312 107.753 27.96C108.281 27.608 108.909 27.432 109.637 27.432C110.365 27.432 110.989 27.608 111.509 27.96C112.037 28.312 112.437 28.82 112.709 29.484C112.989 30.14 113.129 30.916 113.129 31.812C113.129 32.708 112.989 33.484 112.709 34.14C112.429 34.796 112.025 35.3 111.497 35.652C110.977 36.004 110.357 36.18 109.637 36.18ZM109.637 35.1C110.349 35.1 110.905 34.808 111.305 34.224C111.713 33.632 111.917 32.832 111.917 31.824C111.917 30.816 111.717 30.016 111.317 29.424C110.917 28.832 110.357 28.536 109.637 28.536C108.917 28.536 108.357 28.832 107.957 29.424C107.557 30.016 107.357 30.816 107.357 31.824C107.357 32.832 107.557 33.632 107.957 34.224C108.365 34.808 108.925 35.1 109.637 35.1ZM116.44 31.836C116.04 31.836 115.672 31.74 115.336 31.548C115 31.348 114.732 31.08 114.532 30.744C114.34 30.408 114.244 30.04 114.244 29.64C114.244 29.24 114.34 28.872 114.532 28.536C114.732 28.192 115 27.924 115.336 27.732C115.672 27.532 116.04 27.432 116.44 27.432C116.84 27.432 117.208 27.532 117.544 27.732C117.888 27.924 118.156 28.192 118.348 28.536C118.548 28.872 118.648 29.24 118.648 29.64C118.648 30.04 118.548 30.408 118.348 30.744C118.156 31.08 117.888 31.348 117.544 31.548C117.208 31.74 116.84 31.836 116.44 31.836ZM120.724 27.612H121.912L117.268 36H116.08L120.724 27.612ZM116.44 30.948C116.808 30.948 117.112 30.824 117.352 30.576C117.6 30.328 117.724 30.024 117.724 29.664C117.724 29.296 117.6 28.988 117.352 28.74C117.112 28.492 116.808 28.368 116.44 28.368C116.072 28.368 115.764 28.492 115.516 28.74C115.276 28.988 115.156 29.296 115.156 29.664C115.156 30.024 115.276 30.328 115.516 30.576C115.764 30.824 116.072 30.948 116.44 30.948ZM121.54 36.18C121.14 36.18 120.772 36.084 120.436 35.892C120.1 35.692 119.832 35.424 119.632 35.088C119.44 34.752 119.344 34.384 119.344 33.984C119.344 33.584 119.44 33.216 119.632 32.88C119.832 32.536 120.1 32.268 120.436 32.076C120.772 31.876 121.14 31.776 121.54 31.776C121.94 31.776 122.308 31.876 122.644 32.076C122.988 32.268 123.256 32.536 123.448 32.88C123.648 33.216 123.748 33.584 123.748 33.984C123.748 34.384 123.648 34.752 123.448 35.088C123.256 35.424 122.988 35.692 122.644 35.892C122.308 36.084 121.94 36.18 121.54 36.18ZM121.528 35.292C121.896 35.292 122.204 35.168 122.452 34.92C122.7 34.672 122.824 34.368 122.824 34.008C122.824 33.64 122.7 33.332 122.452 33.084C122.204 32.836 121.896 32.712 121.528 32.712C121.168 32.712 120.864 32.836 120.616 33.084C120.368 33.332 120.244 33.64 120.244 34.008C120.244 34.368 120.368 34.672 120.616 34.92C120.864 35.168 121.168 35.292 121.528 35.292Z" fill="#9799A5"/>
<path d="M49.566 58H48.39V53.806H49.566V53.188H50.1V53.806H50.316C50.688 53.806 50.976 53.902 51.18 54.094C51.384 54.286 51.486 54.566 51.486 54.934C51.486 55.142 51.436 55.326 51.336 55.486C51.24 55.642 51.112 55.758 50.952 55.834C51.4 55.966 51.624 56.292 51.624 56.812C51.624 57.056 51.57 57.268 51.462 57.448C51.358 57.624 51.214 57.76 51.03 57.856C50.846 57.952 50.642 58 50.418 58H50.1V58.618H49.566V58ZM49.566 55.606V54.304H49.002V55.606H49.566ZM50.238 55.606C50.434 55.606 50.588 55.552 50.7 55.444C50.812 55.336 50.868 55.176 50.868 54.964C50.868 54.72 50.812 54.55 50.7 54.454C50.592 54.354 50.424 54.304 50.196 54.304H50.1V55.606H50.238ZM49.566 57.502V56.11H49.002V57.502H49.566ZM50.28 57.502C50.516 57.502 50.696 57.45 50.82 57.346C50.944 57.242 51.006 57.064 51.006 56.812C51.006 56.56 50.94 56.38 50.808 56.272C50.68 56.164 50.486 56.11 50.226 56.11H50.1V57.502H50.28ZM53.4445 58.09C53.2005 58.09 52.9665 58.07 52.7425 58.03C52.5225 57.994 52.3305 57.938 52.1665 57.862V57.358C52.5385 57.526 52.9385 57.61 53.3665 57.61C53.7345 57.61 54.0065 57.544 54.1825 57.412C54.3625 57.276 54.4525 57.084 54.4525 56.836C54.4525 56.58 54.3605 56.398 54.1765 56.29C53.9925 56.178 53.7125 56.122 53.3365 56.122H52.8445V55.63H53.3245C53.6245 55.63 53.8665 55.57 54.0505 55.45C54.2345 55.326 54.3265 55.146 54.3265 54.91C54.3265 54.678 54.2505 54.502 54.0985 54.382C53.9465 54.262 53.7265 54.202 53.4385 54.202C53.2145 54.202 53.0125 54.228 52.8325 54.28C52.6525 54.332 52.4665 54.418 52.2745 54.538V54.034C52.6265 53.822 53.0385 53.716 53.5105 53.716C53.9785 53.716 54.3345 53.82 54.5785 54.028C54.8225 54.236 54.9445 54.524 54.9445 54.892C54.9445 55.116 54.8845 55.312 54.7645 55.48C54.6445 55.648 54.4645 55.778 54.2245 55.87C54.4965 55.934 54.7045 56.05 54.8485 56.218C54.9965 56.386 55.0705 56.598 55.0705 56.854C55.0705 57.234 54.9405 57.536 54.6805 57.76C54.4205 57.98 54.0085 58.09 53.4445 58.09ZM57.1898 58.09C56.8898 58.09 56.6198 58.022 56.3798 57.886C56.1438 57.746 55.9558 57.542 55.8158 57.274C55.6798 57.002 55.6118 56.676 55.6118 56.296C55.6118 55.464 55.7818 54.826 56.1218 54.382C56.4658 53.938 56.9578 53.716 57.5978 53.716C57.8178 53.716 58.0138 53.74 58.1858 53.788V54.304C58.0458 54.244 57.8658 54.214 57.6458 54.214C56.7898 54.214 56.3198 54.728 56.2358 55.756C56.3558 55.604 56.5138 55.49 56.7098 55.414C56.9098 55.334 57.1278 55.294 57.3638 55.294C57.6358 55.294 57.8738 55.35 58.0778 55.462C58.2818 55.574 58.4398 55.734 58.5518 55.942C58.6678 56.15 58.7258 56.392 58.7258 56.668C58.7258 56.94 58.6638 57.184 58.5398 57.4C58.4198 57.616 58.2438 57.786 58.0118 57.91C57.7798 58.03 57.5058 58.09 57.1898 58.09ZM57.1898 57.616C57.4698 57.616 57.6938 57.532 57.8618 57.364C58.0338 57.192 58.1198 56.966 58.1198 56.686C58.1198 56.406 58.0338 56.184 57.8618 56.02C57.6938 55.856 57.4698 55.774 57.1898 55.774C57.0178 55.774 56.8598 55.812 56.7158 55.888C56.5758 55.964 56.4638 56.072 56.3798 56.212C56.2998 56.352 56.2598 56.514 56.2598 56.698C56.2598 56.862 56.2978 57.014 56.3738 57.154C56.4538 57.294 56.5638 57.406 56.7038 57.49C56.8438 57.574 57.0058 57.616 57.1898 57.616ZM61.014 58.09C60.654 58.09 60.342 58.002 60.078 57.826C59.818 57.65 59.618 57.398 59.478 57.07C59.338 56.742 59.268 56.354 59.268 55.906C59.268 55.458 59.336 55.07 59.472 54.742C59.612 54.41 59.812 54.156 60.072 53.98C60.336 53.804 60.65 53.716 61.014 53.716C61.378 53.716 61.69 53.804 61.95 53.98C62.214 54.156 62.414 54.41 62.55 54.742C62.69 55.07 62.76 55.458 62.76 55.906C62.76 56.354 62.69 56.742 62.55 57.07C62.41 57.398 62.208 57.65 61.944 57.826C61.684 58.002 61.374 58.09 61.014 58.09ZM61.014 57.55C61.37 57.55 61.648 57.404 61.848 57.112C62.052 56.816 62.154 56.416 62.154 55.912C62.154 55.408 62.054 55.008 61.854 54.712C61.654 54.416 61.374 54.268 61.014 54.268C60.654 54.268 60.374 54.416 60.174 54.712C59.974 55.008 59.874 55.408 59.874 55.912C59.874 56.416 59.974 56.816 60.174 57.112C60.378 57.404 60.658 57.55 61.014 57.55ZM63.5813 58C63.5013 58 63.4333 57.974 63.3773 57.922C63.3253 57.866 63.2993 57.798 63.2993 57.718C63.2993 57.638 63.3253 57.57 63.3773 57.514C63.4333 57.458 63.5013 57.43 63.5813 57.43C63.6613 57.43 63.7293 57.458 63.7853 57.514C63.8413 57.57 63.8693 57.638 63.8693 57.718C63.8693 57.798 63.8413 57.866 63.7853 57.922C63.7293 57.974 63.6613 58 63.5813 58ZM66.1527 58.09C65.7927 58.09 65.4807 58.002 65.2167 57.826C64.9567 57.65 64.7567 57.398 64.6167 57.07C64.4767 56.742 64.4067 56.354 64.4067 55.906C64.4067 55.458 64.4747 55.07 64.6107 54.742C64.7507 54.41 64.9507 54.156 65.2107 53.98C65.4747 53.804 65.7887 53.716 66.1527 53.716C66.5167 53.716 66.8287 53.804 67.0887 53.98C67.3527 54.156 67.5527 54.41 67.6887 54.742C67.8287 55.07 67.8987 55.458 67.8987 55.906C67.8987 56.354 67.8287 56.742 67.6887 57.07C67.5487 57.398 67.3467 57.65 67.0827 57.826C66.8227 58.002 66.5127 58.09 66.1527 58.09ZM66.1527 57.55C66.5087 57.55 66.7867 57.404 66.9867 57.112C67.1907 56.816 67.2927 56.416 67.2927 55.912C67.2927 55.408 67.1927 55.008 66.9927 54.712C66.7927 54.416 66.5127 54.268 66.1527 54.268C65.7927 54.268 65.5127 54.416 65.3127 54.712C65.1127 55.008 65.0127 55.408 65.0127 55.912C65.0127 56.416 65.1127 56.816 65.3127 57.112C65.5167 57.404 65.7967 57.55 66.1527 57.55ZM70.184 58.09C69.824 58.09 69.512 58.002 69.248 57.826C68.988 57.65 68.788 57.398 68.648 57.07C68.508 56.742 68.438 56.354 68.438 55.906C68.438 55.458 68.506 55.07 68.642 54.742C68.782 54.41 68.982 54.156 69.242 53.98C69.506 53.804 69.82 53.716 70.184 53.716C70.548 53.716 70.86 53.804 71.12 53.98C71.384 54.156 71.584 54.41 71.72 54.742C71.86 55.07 71.93 55.458 71.93 55.906C71.93 56.354 71.86 56.742 71.72 57.07C71.58 57.398 71.378 57.65 71.114 57.826C70.854 58.002 70.544 58.09 70.184 58.09ZM70.184 57.55C70.54 57.55 70.818 57.404 71.018 57.112C71.222 56.816 71.324 56.416 71.324 55.912C71.324 55.408 71.224 55.008 71.024 54.712C70.824 54.416 70.544 54.268 70.184 54.268C69.824 54.268 69.544 54.416 69.344 54.712C69.144 55.008 69.044 55.408 69.044 55.912C69.044 56.416 69.144 56.816 69.344 57.112C69.548 57.404 69.828 57.55 70.184 57.55Z" fill="#9799A5"/>
<path d="M48 56.074H72.2V56.374H48V56.074Z" fill="#9799A5"/>
<path d="M49.566 73H48.39V68.806H49.566V68.188H50.1V68.806H50.316C50.688 68.806 50.976 68.902 51.18 69.094C51.384 69.286 51.486 69.566 51.486 69.934C51.486 70.142 51.436 70.326 51.336 70.486C51.24 70.642 51.112 70.758 50.952 70.834C51.4 70.966 51.624 71.292 51.624 71.812C51.624 72.056 51.57 72.268 51.462 72.448C51.358 72.624 51.214 72.76 51.03 72.856C50.846 72.952 50.642 73 50.418 73H50.1V73.618H49.566V73ZM49.566 70.606V69.304H49.002V70.606H49.566ZM50.238 70.606C50.434 70.606 50.588 70.552 50.7 70.444C50.812 70.336 50.868 70.176 50.868 69.964C50.868 69.72 50.812 69.55 50.7 69.454C50.592 69.354 50.424 69.304 50.196 69.304H50.1V70.606H50.238ZM49.566 72.502V71.11H49.002V72.502H49.566ZM50.28 72.502C50.516 72.502 50.696 72.45 50.82 72.346C50.944 72.242 51.006 72.064 51.006 71.812C51.006 71.56 50.94 71.38 50.808 71.272C50.68 71.164 50.486 71.11 50.226 71.11H50.1V72.502H50.28ZM53.4445 73.09C53.2005 73.09 52.9665 73.07 52.7425 73.03C52.5225 72.994 52.3305 72.938 52.1665 72.862V72.358C52.5385 72.526 52.9385 72.61 53.3665 72.61C53.7345 72.61 54.0065 72.544 54.1825 72.412C54.3625 72.276 54.4525 72.084 54.4525 71.836C54.4525 71.58 54.3605 71.398 54.1765 71.29C53.9925 71.178 53.7125 71.122 53.3365 71.122H52.8445V70.63H53.3245C53.6245 70.63 53.8665 70.57 54.0505 70.45C54.2345 70.326 54.3265 70.146 54.3265 69.91C54.3265 69.678 54.2505 69.502 54.0985 69.382C53.9465 69.262 53.7265 69.202 53.4385 69.202C53.2145 69.202 53.0125 69.228 52.8325 69.28C52.6525 69.332 52.4665 69.418 52.2745 69.538V69.034C52.6265 68.822 53.0385 68.716 53.5105 68.716C53.9785 68.716 54.3345 68.82 54.5785 69.028C54.8225 69.236 54.9445 69.524 54.9445 69.892C54.9445 70.116 54.8845 70.312 54.7645 70.48C54.6445 70.648 54.4645 70.778 54.2245 70.87C54.4965 70.934 54.7045 71.05 54.8485 71.218C54.9965 71.386 55.0705 71.598 55.0705 71.854C55.0705 72.234 54.9405 72.536 54.6805 72.76C54.4205 72.98 54.0085 73.09 53.4445 73.09ZM57.3578 73.09C56.9978 73.09 56.6858 73.002 56.4218 72.826C56.1618 72.65 55.9618 72.398 55.8218 72.07C55.6818 71.742 55.6118 71.354 55.6118 70.906C55.6118 70.458 55.6798 70.07 55.8158 69.742C55.9558 69.41 56.1558 69.156 56.4158 68.98C56.6798 68.804 56.9938 68.716 57.3578 68.716C57.7218 68.716 58.0338 68.804 58.2938 68.98C58.5578 69.156 58.7578 69.41 58.8938 69.742C59.0338 70.07 59.1038 70.458 59.1038 70.906C59.1038 71.354 59.0338 71.742 58.8938 72.07C58.7538 72.398 58.5518 72.65 58.2878 72.826C58.0278 73.002 57.7178 73.09 57.3578 73.09ZM57.3578 72.55C57.7138 72.55 57.9918 72.404 58.1918 72.112C58.3958 71.816 58.4978 71.416 58.4978 70.912C58.4978 70.408 58.3978 70.008 58.1978 69.712C57.9978 69.416 57.7178 69.268 57.3578 69.268C56.9978 69.268 56.7178 69.416 56.5178 69.712C56.3178 70.008 56.2178 70.408 56.2178 70.912C56.2178 71.416 56.3178 71.816 56.5178 72.112C56.7218 72.404 57.0018 72.55 57.3578 72.55ZM61.389 73.09C61.029 73.09 60.717 73.002 60.453 72.826C60.193 72.65 59.993 72.398 59.853 72.07C59.713 71.742 59.643 71.354 59.643 70.906C59.643 70.458 59.711 70.07 59.847 69.742C59.987 69.41 60.187 69.156 60.447 68.98C60.711 68.804 61.025 68.716 61.389 68.716C61.753 68.716 62.065 68.804 62.325 68.98C62.589 69.156 62.789 69.41 62.925 69.742C63.065 70.07 63.135 70.458 63.135 70.906C63.135 71.354 63.065 71.742 62.925 72.07C62.785 72.398 62.583 72.65 62.319 72.826C62.059 73.002 61.749 73.09 61.389 73.09ZM61.389 72.55C61.745 72.55 62.023 72.404 62.223 72.112C62.427 71.816 62.529 71.416 62.529 70.912C62.529 70.408 62.429 70.008 62.229 69.712C62.029 69.416 61.749 69.268 61.389 69.268C61.029 69.268 60.749 69.416 60.549 69.712C60.349 70.008 60.249 70.408 60.249 70.912C60.249 71.416 60.349 71.816 60.549 72.112C60.753 72.404 61.033 72.55 61.389 72.55ZM63.9563 73C63.8763 73 63.8083 72.974 63.7523 72.922C63.7003 72.866 63.6743 72.798 63.6743 72.718C63.6743 72.638 63.7003 72.57 63.7523 72.514C63.8083 72.458 63.8763 72.43 63.9563 72.43C64.0363 72.43 64.1043 72.458 64.1603 72.514C64.2163 72.57 64.2443 72.638 64.2443 72.718C64.2443 72.798 64.2163 72.866 64.1603 72.922C64.1043 72.974 64.0363 73 63.9563 73ZM66.5277 73.09C66.1677 73.09 65.8557 73.002 65.5917 72.826C65.3317 72.65 65.1317 72.398 64.9917 72.07C64.8517 71.742 64.7817 71.354 64.7817 70.906C64.7817 70.458 64.8497 70.07 64.9857 69.742C65.1257 69.41 65.3257 69.156 65.5857 68.98C65.8497 68.804 66.1637 68.716 66.5277 68.716C66.8917 68.716 67.2037 68.804 67.4637 68.98C67.7277 69.156 67.9277 69.41 68.0637 69.742C68.2037 70.07 68.2737 70.458 68.2737 70.906C68.2737 71.354 68.2037 71.742 68.0637 72.07C67.9237 72.398 67.7217 72.65 67.4577 72.826C67.1977 73.002 66.8877 73.09 66.5277 73.09ZM66.5277 72.55C66.8837 72.55 67.1617 72.404 67.3617 72.112C67.5657 71.816 67.6677 71.416 67.6677 70.912C67.6677 70.408 67.5677 70.008 67.3677 69.712C67.1677 69.416 66.8877 69.268 66.5277 69.268C66.1677 69.268 65.8877 69.416 65.6877 69.712C65.4877 70.008 65.3877 70.408 65.3877 70.912C65.3877 71.416 65.4877 71.816 65.6877 72.112C65.8917 72.404 66.1717 72.55 66.5277 72.55ZM70.559 73.09C70.199 73.09 69.887 73.002 69.623 72.826C69.363 72.65 69.163 72.398 69.023 72.07C68.883 71.742 68.813 71.354 68.813 70.906C68.813 70.458 68.881 70.07 69.017 69.742C69.157 69.41 69.357 69.156 69.617 68.98C69.881 68.804 70.195 68.716 70.559 68.716C70.923 68.716 71.235 68.804 71.495 68.98C71.759 69.156 71.959 69.41 72.095 69.742C72.235 70.07 72.305 70.458 72.305 70.906C72.305 71.354 72.235 71.742 72.095 72.07C71.955 72.398 71.753 72.65 71.489 72.826C71.229 73.002 70.919 73.09 70.559 73.09ZM70.559 72.55C70.915 72.55 71.193 72.404 71.393 72.112C71.597 71.816 71.699 71.416 71.699 70.912C71.699 70.408 71.599 70.008 71.399 69.712C71.199 69.416 70.919 69.268 70.559 69.268C70.199 69.268 69.919 69.416 69.719 69.712C69.519 70.008 69.419 70.408 69.419 70.912C69.419 71.416 69.519 71.816 69.719 72.112C69.923 72.404 70.203 72.55 70.559 72.55Z" fill="#9799A5"/>
<path d="M48 71.074H72.575V71.374H48V71.074Z" fill="#9799A5"/>
<path d="M14.6259 53.107H15.3399L17.0829 56.922L18.8259 53.107H19.5399V58H18.8469V54.521L17.2579 58H16.9079L15.3119 54.521V58H14.6259V53.107ZM22.2981 58.105C21.6775 58.105 21.1898 57.951 20.8351 57.643C20.4851 57.3303 20.3101 56.8917 20.3101 56.327C20.3101 55.7763 20.4665 55.34 20.7791 55.018C21.0965 54.696 21.5468 54.535 22.1301 54.535C22.5175 54.535 22.8465 54.6097 23.1171 54.759C23.3878 54.9037 23.5908 55.1067 23.7261 55.368C23.8661 55.6247 23.9361 55.9187 23.9361 56.25V56.6H20.9821C21.0055 56.9173 21.1385 57.1553 21.3811 57.314C21.6285 57.468 21.9621 57.545 22.3821 57.545C22.5968 57.545 22.8138 57.5263 23.0331 57.489C23.2525 57.447 23.4461 57.3933 23.6141 57.328V57.895C23.4648 57.9557 23.2665 58.0047 23.0191 58.042C22.7765 58.084 22.5361 58.105 22.2981 58.105ZM23.2711 56.103C23.2618 55.7857 23.1568 55.5407 22.9561 55.368C22.7601 55.1907 22.4801 55.102 22.1161 55.102C21.7615 55.102 21.4861 55.193 21.2901 55.375C21.0941 55.557 20.9915 55.7997 20.9821 56.103H23.2711ZM24.7089 54.64H25.3809V55.123C25.5396 54.927 25.7192 54.78 25.9199 54.682C26.1206 54.584 26.3282 54.535 26.5429 54.535C26.8136 54.535 27.0282 54.5817 27.1869 54.675C27.3456 54.7637 27.4622 54.9013 27.5369 55.088C27.6862 54.906 27.8682 54.7683 28.0829 54.675C28.3022 54.5817 28.5216 54.535 28.7409 54.535C29.1516 54.535 29.4479 54.64 29.6299 54.85C29.8119 55.0553 29.9029 55.361 29.9029 55.767V58H29.2169V55.858C29.2169 55.5827 29.1656 55.389 29.0629 55.277C28.9602 55.1603 28.7852 55.102 28.5379 55.102C28.1832 55.102 27.8939 55.256 27.6699 55.564C27.6792 55.634 27.6839 55.7483 27.6839 55.907V58H26.9979V55.858C26.9979 55.5827 26.9512 55.389 26.8579 55.277C26.7646 55.1603 26.5966 55.102 26.3539 55.102C25.9992 55.102 25.6819 55.3027 25.4019 55.704V58H24.7089V54.64ZM32.8652 58.105C32.5619 58.105 32.2982 58.0583 32.0742 57.965C31.8549 57.867 31.6519 57.7153 31.4652 57.51V58H30.7792V52.827H31.4862V55.088C31.6402 54.906 31.8386 54.7683 32.0812 54.675C32.3239 54.5817 32.5852 54.535 32.8652 54.535C33.2012 54.535 33.5022 54.612 33.7682 54.766C34.0389 54.9153 34.2489 55.1253 34.3982 55.396C34.5522 55.6667 34.6292 55.977 34.6292 56.327C34.6292 56.6817 34.5522 56.9943 34.3982 57.265C34.2489 57.531 34.0389 57.7387 33.7682 57.888C33.5022 58.0327 33.2012 58.105 32.8652 58.105ZM32.7042 57.545C32.9329 57.545 33.1382 57.496 33.3202 57.398C33.5069 57.2953 33.6516 57.1507 33.7542 56.964C33.8616 56.7773 33.9152 56.565 33.9152 56.327C33.9152 56.089 33.8616 55.8767 33.7542 55.69C33.6516 55.5033 33.5069 55.3587 33.3202 55.256C33.1382 55.1533 32.9329 55.102 32.7042 55.102C32.4196 55.102 32.1652 55.179 31.9412 55.333C31.7172 55.487 31.5656 55.6923 31.4862 55.949V56.705C31.5749 56.9617 31.7266 57.167 31.9412 57.321C32.1606 57.4703 32.4149 57.545 32.7042 57.545ZM37.2483 58.105C36.6276 58.105 36.14 57.951 35.7853 57.643C35.4353 57.3303 35.2603 56.8917 35.2603 56.327C35.2603 55.7763 35.4166 55.34 35.7293 55.018C36.0466 54.696 36.497 54.535 37.0803 54.535C37.4676 54.535 37.7966 54.6097 38.0673 54.759C38.338 54.9037 38.541 55.1067 38.6763 55.368C38.8163 55.6247 38.8863 55.9187 38.8863 56.25V56.6H35.9323C35.9556 56.9173 36.0886 57.1553 36.3313 57.314C36.5786 57.468 36.9123 57.545 37.3323 57.545C37.547 57.545 37.764 57.5263 37.9833 57.489C38.2026 57.447 38.3963 57.3933 38.5643 57.328V57.895C38.415 57.9557 38.2166 58.0047 37.9693 58.042C37.7266 58.084 37.4863 58.105 37.2483 58.105ZM38.2213 56.103C38.212 55.7857 38.107 55.5407 37.9063 55.368C37.7103 55.1907 37.4303 55.102 37.0663 55.102C36.7116 55.102 36.4363 55.193 36.2403 55.375C36.0443 55.557 35.9416 55.7997 35.9323 56.103H38.2213ZM39.6591 54.64H40.3451V55.242C40.4851 55.0367 40.6811 54.885 40.9331 54.787C41.1898 54.689 41.4861 54.64 41.8221 54.64V55.193C41.4628 55.193 41.1548 55.2513 40.8981 55.368C40.6414 55.4847 40.4641 55.669 40.3661 55.921V58H39.6591V54.64Z" fill="#484B52"/>
<path d="M28.2408 68.107H28.9968L30.5368 72.027L32.0768 68.107H32.8328L30.8798 73H30.1938L28.2408 68.107ZM33.6034 68.107H34.3244V73H33.6034V68.107ZM35.2372 68.107H37.1202C37.6476 68.107 38.0629 68.24 38.3662 68.506C38.6742 68.7673 38.8282 69.1407 38.8282 69.626C38.8282 70.1207 38.6766 70.4963 38.3732 70.753C38.0699 71.005 37.6522 71.131 37.1202 71.131H35.9512V73H35.2372V68.107ZM37.0432 70.536C37.3699 70.536 37.6289 70.4683 37.8202 70.333C38.0116 70.1977 38.1072 69.962 38.1072 69.626C38.1072 69.29 38.0116 69.0543 37.8202 68.919C37.6289 68.779 37.3699 68.709 37.0432 68.709H35.9512V70.536H37.0432Z" fill="#484B52"/>
<path d="M114.827 68.322H112.601V67.806H115.451V68.256L113.765 72H113.165L114.827 68.322ZM117.676 72.09C117.316 72.09 117.004 72.002 116.74 71.826C116.48 71.65 116.28 71.398 116.14 71.07C116 70.742 115.93 70.354 115.93 69.906C115.93 69.458 115.998 69.07 116.134 68.742C116.274 68.41 116.474 68.156 116.734 67.98C116.998 67.804 117.312 67.716 117.676 67.716C118.04 67.716 118.352 67.804 118.612 67.98C118.876 68.156 119.076 68.41 119.212 68.742C119.352 69.07 119.422 69.458 119.422 69.906C119.422 70.354 119.352 70.742 119.212 71.07C119.072 71.398 118.87 71.65 118.606 71.826C118.346 72.002 118.036 72.09 117.676 72.09ZM117.676 71.55C118.032 71.55 118.31 71.404 118.51 71.112C118.714 70.816 118.816 70.416 118.816 69.912C118.816 69.408 118.716 69.008 118.516 68.712C118.316 68.416 118.036 68.268 117.676 68.268C117.316 68.268 117.036 68.416 116.836 68.712C116.636 69.008 116.536 69.408 116.536 69.912C116.536 70.416 116.636 70.816 116.836 71.112C117.04 71.404 117.32 71.55 117.676 71.55ZM121.077 69.918C120.877 69.918 120.693 69.87 120.525 69.774C120.357 69.674 120.223 69.54 120.123 69.372C120.027 69.204 119.979 69.02 119.979 68.82C119.979 68.62 120.027 68.436 120.123 68.268C120.223 68.096 120.357 67.962 120.525 67.866C120.693 67.766 120.877 67.716 121.077 67.716C121.277 67.716 121.461 67.766 121.629 67.866C121.801 67.962 121.935 68.096 122.031 68.268C122.131 68.436 122.181 68.62 122.181 68.82C122.181 69.02 122.131 69.204 122.031 69.372C121.935 69.54 121.801 69.674 121.629 69.774C121.461 69.87 121.277 69.918 121.077 69.918ZM123.219 67.806H123.813L121.491 72H120.897L123.219 67.806ZM121.077 69.474C121.261 69.474 121.413 69.412 121.533 69.288C121.657 69.164 121.719 69.012 121.719 68.832C121.719 68.648 121.657 68.494 121.533 68.37C121.413 68.246 121.261 68.184 121.077 68.184C120.893 68.184 120.739 68.246 120.615 68.37C120.495 68.494 120.435 68.648 120.435 68.832C120.435 69.012 120.495 69.164 120.615 69.288C120.739 69.412 120.893 69.474 121.077 69.474ZM123.627 72.09C123.427 72.09 123.243 72.042 123.075 71.946C122.907 71.846 122.773 71.712 122.673 71.544C122.577 71.376 122.529 71.192 122.529 70.992C122.529 70.792 122.577 70.608 122.673 70.44C122.773 70.268 122.907 70.134 123.075 70.038C123.243 69.938 123.427 69.888 123.627 69.888C123.827 69.888 124.011 69.938 124.179 70.038C124.351 70.134 124.485 70.268 124.581 70.44C124.681 70.608 124.731 70.792 124.731 70.992C124.731 71.192 124.681 71.376 124.581 71.544C124.485 71.712 124.351 71.846 124.179 71.946C124.011 72.042 123.827 72.09 123.627 72.09ZM123.621 71.646C123.805 71.646 123.959 71.584 124.083 71.46C124.207 71.336 124.269 71.184 124.269 71.004C124.269 70.82 124.207 70.666 124.083 70.542C123.959 70.418 123.805 70.356 123.621 70.356C123.441 70.356 123.289 70.418 123.165 70.542C123.041 70.666 122.979 70.82 122.979 71.004C122.979 71.184 123.041 71.336 123.165 71.46C123.289 71.584 123.441 71.646 123.621 71.646Z" fill="#E0E0E7"/>
<path d="M14.39 81.806H14.972L17.108 84.968V81.806H17.726V86H17.138L15.002 82.838V86H14.39V81.806ZM20.0873 86.09C19.5553 86.09 19.1373 85.958 18.8333 85.694C18.5333 85.426 18.3833 85.05 18.3833 84.566C18.3833 84.094 18.5173 83.72 18.7853 83.444C19.0573 83.168 19.4433 83.03 19.9433 83.03C20.2753 83.03 20.5573 83.094 20.7893 83.222C21.0213 83.346 21.1953 83.52 21.3113 83.744C21.4313 83.964 21.4913 84.216 21.4913 84.5V84.8H18.9593C18.9793 85.072 19.0933 85.276 19.3013 85.412C19.5133 85.544 19.7993 85.61 20.1593 85.61C20.3433 85.61 20.5293 85.594 20.7173 85.562C20.9053 85.526 21.0713 85.48 21.2153 85.424V85.91C21.0873 85.962 20.9173 86.004 20.7053 86.036C20.4973 86.072 20.2913 86.09 20.0873 86.09ZM20.9213 84.374C20.9133 84.102 20.8233 83.892 20.6513 83.744C20.4833 83.592 20.2433 83.516 19.9313 83.516C19.6273 83.516 19.3913 83.594 19.2233 83.75C19.0553 83.906 18.9673 84.114 18.9593 84.374H20.9213ZM23.1857 86.09C22.8377 86.09 22.5577 86.002 22.3457 85.826C22.1377 85.646 22.0337 85.404 22.0337 85.1C22.0337 84.78 22.1337 84.534 22.3337 84.362C22.5377 84.186 22.8257 84.098 23.1977 84.098C23.5937 84.098 23.9297 84.178 24.2057 84.338V84.188C24.2057 83.96 24.1357 83.792 23.9957 83.684C23.8597 83.572 23.6437 83.516 23.3477 83.516C23.1717 83.516 22.9997 83.534 22.8317 83.57C22.6677 83.602 22.5197 83.648 22.3877 83.708V83.216C22.5077 83.16 22.6637 83.116 22.8557 83.084C23.0477 83.048 23.2337 83.03 23.4137 83.03C23.8897 83.03 24.2417 83.136 24.4697 83.348C24.7017 83.556 24.8177 83.846 24.8177 84.218V86H24.2477V85.676C24.1237 85.812 23.9757 85.916 23.8037 85.988C23.6357 86.056 23.4297 86.09 23.1857 86.09ZM23.3357 85.628C23.5277 85.628 23.7017 85.59 23.8577 85.514C24.0137 85.438 24.1297 85.332 24.2057 85.196V84.806C23.9457 84.638 23.6557 84.554 23.3357 84.554C23.1037 84.554 22.9297 84.6 22.8137 84.692C22.7017 84.78 22.6457 84.916 22.6457 85.1C22.6457 85.452 22.8757 85.628 23.3357 85.628ZM25.5697 83.12H26.1577V83.636C26.2777 83.46 26.4457 83.33 26.6617 83.246C26.8817 83.162 27.1357 83.12 27.4237 83.12V83.594C27.1157 83.594 26.8517 83.644 26.6317 83.744C26.4117 83.844 26.2597 84.002 26.1757 84.218V86H25.5697V83.12ZM31.7709 86.09C31.2389 86.09 30.8209 85.958 30.5169 85.694C30.2169 85.426 30.0669 85.05 30.0669 84.566C30.0669 84.094 30.2009 83.72 30.4689 83.444C30.7409 83.168 31.1269 83.03 31.6269 83.03C31.9589 83.03 32.2409 83.094 32.4729 83.222C32.7049 83.346 32.8789 83.52 32.9949 83.744C33.1149 83.964 33.1749 84.216 33.1749 84.5V84.8H30.6429C30.6629 85.072 30.7769 85.276 30.9849 85.412C31.1969 85.544 31.4829 85.61 31.8429 85.61C32.0269 85.61 32.2129 85.594 32.4009 85.562C32.5889 85.526 32.7549 85.48 32.8989 85.424V85.91C32.7709 85.962 32.6009 86.004 32.3889 86.036C32.1809 86.072 31.9749 86.09 31.7709 86.09ZM32.6049 84.374C32.5969 84.102 32.5069 83.892 32.3349 83.744C32.1669 83.592 31.9269 83.516 31.6149 83.516C31.3109 83.516 31.0749 83.594 30.9069 83.75C30.7389 83.906 30.6509 84.114 30.6429 84.374H32.6049ZM34.8361 84.494L33.7081 83.12H34.3981L35.1781 84.074L35.9641 83.12H36.6541L35.5261 84.494L36.7621 86H36.0781L35.1781 84.914L34.2841 86H33.6001L34.8361 84.494ZM37.4232 83.12H38.0112V83.546C38.3072 83.202 38.7072 83.03 39.2112 83.03C39.4992 83.03 39.7572 83.094 39.9852 83.222C40.2172 83.35 40.3972 83.53 40.5252 83.762C40.6572 83.99 40.7232 84.256 40.7232 84.56C40.7232 84.86 40.6572 85.126 40.5252 85.358C40.3972 85.59 40.2192 85.77 39.9912 85.898C39.7632 86.026 39.5032 86.09 39.2112 86.09C38.9712 86.09 38.7472 86.05 38.5392 85.97C38.3312 85.89 38.1612 85.772 38.0292 85.616V87.314H37.4232V83.12ZM39.0732 85.61C39.2692 85.61 39.4452 85.568 39.6012 85.484C39.7612 85.396 39.8852 85.272 39.9732 85.112C40.0652 84.952 40.1112 84.768 40.1112 84.56C40.1112 84.352 40.0652 84.17 39.9732 84.014C39.8852 83.854 39.7612 83.732 39.6012 83.648C39.4452 83.56 39.2692 83.516 39.0732 83.516C38.8292 83.516 38.6132 83.58 38.4252 83.708C38.2412 83.836 38.1092 84.012 38.0292 84.236V84.884C38.0972 85.104 38.2272 85.28 38.4192 85.412C38.6112 85.544 38.8292 85.61 39.0732 85.61ZM41.7381 82.556C41.6381 82.556 41.5541 82.522 41.4861 82.454C41.4181 82.386 41.3841 82.302 41.3841 82.202C41.3841 82.102 41.4181 82.018 41.4861 81.95C41.5541 81.882 41.6381 81.848 41.7381 81.848C41.8421 81.848 41.9281 81.882 41.9961 81.95C42.0681 82.018 42.1041 82.102 42.1041 82.202C42.1041 82.302 42.0681 82.386 41.9961 82.454C41.9281 82.522 41.8421 82.556 41.7381 82.556ZM41.4321 83.12H42.0501V86H41.4321V83.12ZM42.8841 83.12H43.4721V83.636C43.5921 83.46 43.7601 83.33 43.9761 83.246C44.1961 83.162 44.4501 83.12 44.7381 83.12V83.594C44.4301 83.594 44.1661 83.644 43.9461 83.744C43.7261 83.844 43.5741 84.002 43.4901 84.218V86H42.8841V83.12ZM46.0431 86.09C45.6951 86.09 45.4151 86.002 45.2031 85.826C44.9951 85.646 44.8911 85.404 44.8911 85.1C44.8911 84.78 44.9911 84.534 45.1911 84.362C45.3951 84.186 45.6831 84.098 46.0551 84.098C46.4511 84.098 46.7871 84.178 47.0631 84.338V84.188C47.0631 83.96 46.9931 83.792 46.8531 83.684C46.7171 83.572 46.5011 83.516 46.2051 83.516C46.0291 83.516 45.8571 83.534 45.6891 83.57C45.5251 83.602 45.3771 83.648 45.2451 83.708V83.216C45.3651 83.16 45.5211 83.116 45.7131 83.084C45.9051 83.048 46.0911 83.03 46.2711 83.03C46.7471 83.03 47.0991 83.136 47.3271 83.348C47.5591 83.556 47.6751 83.846 47.6751 84.218V86H47.1051V85.676C46.9811 85.812 46.8331 85.916 46.6611 85.988C46.4931 86.056 46.2871 86.09 46.0431 86.09ZM46.1931 85.628C46.3851 85.628 46.5591 85.59 46.7151 85.514C46.8711 85.438 46.9871 85.332 47.0631 85.196V84.806C46.8031 84.638 46.5131 84.554 46.1931 84.554C45.9611 84.554 45.7871 84.6 45.6711 84.692C45.5591 84.78 45.5031 84.916 45.5031 85.1C45.5031 85.452 45.7331 85.628 46.1931 85.628ZM49.3848 86.09C49.0928 86.09 48.8668 86.006 48.7068 85.838C48.5508 85.67 48.4728 85.432 48.4728 85.124V83.588H48.0348V83.12H48.4728V82.256H49.0848V83.12H49.7928V83.588H49.0848V85.082C49.0848 85.274 49.1208 85.41 49.1928 85.49C49.2688 85.57 49.4048 85.61 49.6008 85.61C49.7168 85.61 49.8328 85.584 49.9488 85.532V86.012C49.7968 86.064 49.6088 86.09 49.3848 86.09ZM50.8729 82.556C50.7729 82.556 50.6889 82.522 50.6209 82.454C50.5529 82.386 50.5189 82.302 50.5189 82.202C50.5189 82.102 50.5529 82.018 50.6209 81.95C50.6889 81.882 50.7729 81.848 50.8729 81.848C50.9769 81.848 51.0629 81.882 51.1309 81.95C51.2029 82.018 51.2389 82.102 51.2389 82.202C51.2389 82.302 51.2029 82.386 51.1309 82.454C51.0629 82.522 50.9769 82.556 50.8729 82.556ZM50.5669 83.12H51.1849V86H50.5669V83.12ZM53.5369 86.09C53.2129 86.09 52.9269 86.03 52.6789 85.91C52.4349 85.786 52.2429 85.61 52.1029 85.382C51.9669 85.15 51.8989 84.878 51.8989 84.566C51.8989 84.258 51.9669 83.988 52.1029 83.756C52.2389 83.524 52.4309 83.346 52.6789 83.222C52.9269 83.094 53.2129 83.03 53.5369 83.03C53.8609 83.03 54.1469 83.094 54.3949 83.222C54.6429 83.346 54.8349 83.524 54.9709 83.756C55.1109 83.988 55.1809 84.258 55.1809 84.566C55.1809 84.878 55.1109 85.15 54.9709 85.382C54.8349 85.61 54.6429 85.786 54.3949 85.91C54.1469 86.03 53.8609 86.09 53.5369 86.09ZM53.5369 85.61C53.8489 85.61 54.0969 85.514 54.2809 85.322C54.4649 85.13 54.5569 84.878 54.5569 84.566C54.5569 84.242 54.4649 83.986 54.2809 83.798C54.0969 83.61 53.8489 83.516 53.5369 83.516C53.2249 83.516 52.9769 83.61 52.7929 83.798C52.6089 83.986 52.5169 84.242 52.5169 84.566C52.5169 84.878 52.6089 85.13 52.7929 85.322C52.9769 85.514 53.2249 85.61 53.5369 85.61ZM55.8392 83.12H56.4272V83.534C56.5632 83.362 56.7292 83.236 56.9252 83.156C57.1252 83.072 57.3332 83.03 57.5492 83.03C57.9332 83.03 58.2192 83.132 58.4072 83.336C58.5952 83.54 58.6892 83.814 58.6892 84.158V86H58.0832V84.218C58.0832 83.75 57.8592 83.516 57.4112 83.516C57.2192 83.516 57.0392 83.562 56.8712 83.654C56.7072 83.742 56.5652 83.878 56.4452 84.062V86H55.8392V83.12Z" fill="#9799A5"/>
<path d="M63.27 85.598L64.176 84.728C64.256 84.648 64.368 84.544 64.512 84.416C64.74 84.208 64.914 84.04 65.034 83.912C65.154 83.784 65.252 83.648 65.328 83.504C65.404 83.356 65.442 83.198 65.442 83.03C65.442 82.782 65.37 82.594 65.226 82.466C65.082 82.334 64.872 82.268 64.596 82.268C64.408 82.268 64.214 82.302 64.014 82.37C63.818 82.438 63.634 82.538 63.462 82.67V82.082C63.798 81.838 64.208 81.716 64.692 81.716C65.124 81.716 65.46 81.832 65.7 82.064C65.94 82.292 66.06 82.604 66.06 83C66.06 83.192 66.018 83.376 65.934 83.552C65.854 83.728 65.74 83.902 65.592 84.074C65.444 84.242 65.244 84.448 64.992 84.692L64.176 85.49H66.216V86H63.27V85.598ZM70.489 86.09C70.201 86.09 69.941 86.028 69.709 85.904C69.481 85.776 69.301 85.598 69.169 85.37C69.041 85.138 68.977 84.87 68.977 84.566C68.977 84.266 69.041 84 69.169 83.768C69.301 83.536 69.481 83.356 69.709 83.228C69.941 83.096 70.201 83.03 70.489 83.03C71.009 83.03 71.403 83.188 71.671 83.504V81.566H72.277V86H71.689V85.58C71.529 85.756 71.353 85.886 71.161 85.97C70.973 86.05 70.749 86.09 70.489 86.09ZM70.627 85.61C70.875 85.61 71.091 85.546 71.275 85.418C71.463 85.286 71.595 85.11 71.671 84.89V84.242C71.603 84.022 71.473 83.846 71.281 83.714C71.093 83.582 70.875 83.516 70.627 83.516C70.431 83.516 70.253 83.56 70.093 83.648C69.937 83.736 69.813 83.86 69.721 84.02C69.633 84.18 69.589 84.362 69.589 84.566C69.589 84.77 69.633 84.952 69.721 85.112C69.813 85.272 69.937 85.396 70.093 85.484C70.253 85.568 70.431 85.61 70.627 85.61ZM74.0021 86.09C73.6541 86.09 73.3741 86.002 73.1621 85.826C72.9541 85.646 72.8501 85.404 72.8501 85.1C72.8501 84.78 72.9501 84.534 73.1501 84.362C73.3541 84.186 73.6421 84.098 74.0141 84.098C74.4101 84.098 74.7461 84.178 75.0221 84.338V84.188C75.0221 83.96 74.9521 83.792 74.8121 83.684C74.6761 83.572 74.4601 83.516 74.1641 83.516C73.9881 83.516 73.8161 83.534 73.6481 83.57C73.4841 83.602 73.3361 83.648 73.2041 83.708V83.216C73.3241 83.16 73.4801 83.116 73.6721 83.084C73.8641 83.048 74.0501 83.03 74.2301 83.03C74.7061 83.03 75.0581 83.136 75.2861 83.348C75.5181 83.556 75.6341 83.846 75.6341 84.218V86H75.0641V85.676C74.9401 85.812 74.7921 85.916 74.6201 85.988C74.4521 86.056 74.2461 86.09 74.0021 86.09ZM74.1521 85.628C74.3441 85.628 74.5181 85.59 74.6741 85.514C74.8301 85.438 74.9461 85.332 75.0221 85.196V84.806C74.7621 84.638 74.4721 84.554 74.1521 84.554C73.9201 84.554 73.7461 84.6 73.6301 84.692C73.5181 84.78 73.4621 84.916 73.4621 85.1C73.4621 85.452 73.6921 85.628 74.1521 85.628ZM76.7286 87.188C76.5126 87.188 76.3326 87.166 76.1886 87.122V86.648C76.2926 86.688 76.4206 86.708 76.5726 86.708C76.7126 86.708 76.8226 86.672 76.9026 86.6C76.9826 86.532 77.0546 86.42 77.1186 86.264L77.2566 85.928L75.9966 83.12H76.6206L77.5806 85.334L78.4746 83.12H79.0986L77.8026 86.324C77.6826 86.624 77.5386 86.842 77.3706 86.978C77.2066 87.118 76.9926 87.188 76.7286 87.188ZM80.4305 86.09C80.2305 86.09 80.0185 86.064 79.7945 86.012C79.5705 85.964 79.3945 85.898 79.2665 85.814V85.298C79.4225 85.39 79.6025 85.466 79.8065 85.526C80.0105 85.582 80.2085 85.61 80.4005 85.61C80.6165 85.61 80.7745 85.584 80.8745 85.532C80.9745 85.48 81.0245 85.396 81.0245 85.28C81.0245 85.192 81.0005 85.122 80.9525 85.07C80.9085 85.014 80.8305 84.964 80.7185 84.92C80.6105 84.876 80.4465 84.824 80.2265 84.764C79.9905 84.696 79.8025 84.628 79.6625 84.56C79.5265 84.488 79.4225 84.398 79.3505 84.29C79.2825 84.182 79.2485 84.042 79.2485 83.87C79.2485 83.594 79.3565 83.386 79.5725 83.246C79.7925 83.102 80.0865 83.03 80.4545 83.03C80.6465 83.03 80.8345 83.048 81.0185 83.084C81.2025 83.12 81.3505 83.17 81.4625 83.234V83.738C81.3465 83.67 81.2025 83.616 81.0305 83.576C80.8625 83.536 80.6905 83.516 80.5145 83.516C80.3025 83.516 80.1405 83.542 80.0285 83.594C79.9165 83.646 79.8605 83.738 79.8605 83.87C79.8605 83.954 79.8845 84.022 79.9325 84.074C79.9805 84.126 80.0565 84.172 80.1605 84.212C80.2685 84.248 80.4385 84.296 80.6705 84.356C81.0345 84.456 81.2865 84.574 81.4265 84.71C81.5705 84.846 81.6425 85.034 81.6425 85.274C81.6425 85.522 81.5405 85.72 81.3365 85.868C81.1325 86.016 80.8305 86.09 80.4305 86.09Z" fill="#F05050"/>
<defs>
<filter id="filter0_d_7427_137934" x="0" y="0" width="141" height="102" filterUnits="userSpaceOnUse" color-interpolation-filters="sRGB">
<feFlood flood-opacity="0" result="BackgroundImageFix"/>
<feColorMatrix in="SourceAlpha" type="matrix" values="0 0 0 0 0 0 0 0 0 0 0 0 0 0 0 0 0 0 127 0" result="hardAlpha"/>
<feOffset/>
<feGaussianBlur stdDeviation="2"/>
<feColorMatrix type="matrix" values="0 0 0 0 0 0 0 0 0 0 0 0 0 0 0 0 0 0 0.1 0"/>
<feBlend mode="normal" in2="BackgroundImageFix" result="effect1_dropShadow_7427_137934"/>
<feBlend mode="normal" in="SourceGraphic" in2="effect1_dropShadow_7427_137934" result="shape"/>
</filter>
</defs>
</svg>
