<svg width="86" height="62" viewBox="0 0 86 62" fill="none" xmlns="http://www.w3.org/2000/svg">
<rect width="86" height="62" rx="4" fill="#F8F8FB"/>
<path fill-rule="evenodd" clip-rule="evenodd" d="M45.7856 16.2412C45.6044 15.983 45.2511 15.9226 44.9964 16.1063C44.7418 16.29 44.6822 16.6482 44.8633 16.9064L51.4839 26.3437H34.8549L41.5186 16.9237C41.7008 16.6662 41.6426 16.3078 41.3886 16.1231C41.1347 15.9384 40.7811 15.9974 40.599 16.2549L33.4621 26.3437H27.2646C25.792 26.3437 24.7115 27.7469 25.0687 29.1955L29.0298 45.2615C29.2817 46.2832 30.1871 47 31.2257 47H54.334C55.3507 47 56.2427 46.3125 56.5149 45.3191L60.9161 29.2531C61.3167 27.7907 60.2321 26.3437 58.7352 26.3437H52.8727L45.7856 16.2412ZM40.9341 38.4804L39.4266 39.8713V41.2621H46.6517V39.2654H43.107L44.3158 38.1499C45.031 37.4889 45.5471 36.8968 45.864 36.3735C46.1899 35.841 46.3529 35.2213 46.3529 34.5144C46.3529 33.9268 46.2171 33.399 45.9455 32.9308C45.6738 32.4625 45.28 32.0953 44.7639 31.8291C44.2478 31.5628 43.6367 31.4297 42.9305 31.4297C42.3148 31.4297 41.7354 31.5124 41.1921 31.6776C40.6489 31.8337 40.1736 32.054 39.7661 32.3386V34.6659C40.1464 34.3721 40.5584 34.1426 41.002 33.9773C41.4547 33.8121 41.9119 33.7295 42.3737 33.7295C43.3243 33.7295 43.7997 34.1564 43.7997 35.0102C43.7997 35.2948 43.7046 35.5839 43.5145 35.8777C43.3334 36.1715 43.098 36.4607 42.8083 36.7453C42.5276 37.0299 42.1202 37.4109 41.586 37.8883L40.9341 38.4804Z" fill="#606367"/>
<rect x="37" y="32" width="2" height="9" rx="1" fill="#C4C4C4"/>
<rect x="42" y="32" width="2" height="9" rx="1" fill="#C4C4C4"/>
<rect x="47" y="32" width="2" height="9" rx="1" fill="#C4C4C4"/>
</svg>
