<svg width="141" height="102" viewBox="0 0 141 102" fill="none" xmlns="http://www.w3.org/2000/svg">
<g filter="url(#filter0_d_7427_137934)">
<rect x="4" y="4" width="133" height="94" rx="4" fill="white"/>
<rect x="4.5" y="4.5" width="132" height="93" rx="3.5" stroke="#74D179"/>
</g>
<path d="M17.132 42H14.78V33.612H17.132V32.376H18.2V33.612H18.632C19.376 33.612 19.952 33.804 20.36 34.188C20.768 34.572 20.972 35.132 20.972 35.868C20.972 36.284 20.872 36.652 20.672 36.972C20.48 37.284 20.224 37.516 19.904 37.668C20.8 37.932 21.248 38.584 21.248 39.624C21.248 40.112 21.14 40.536 20.924 40.896C20.716 41.248 20.428 41.52 20.06 41.712C19.692 41.904 19.284 42 18.836 42H18.2V43.236H17.132V42ZM17.132 37.212V34.608H16.004V37.212H17.132ZM18.476 37.212C18.868 37.212 19.176 37.104 19.4 36.888C19.624 36.672 19.736 36.352 19.736 35.928C19.736 35.44 19.624 35.1 19.4 34.908C19.184 34.708 18.848 34.608 18.392 34.608H18.2V37.212H18.476ZM17.132 41.004V38.22H16.004V41.004H17.132ZM18.56 41.004C19.032 41.004 19.392 40.9 19.64 40.692C19.888 40.484 20.012 40.128 20.012 39.624C20.012 39.12 19.88 38.76 19.616 38.544C19.36 38.328 18.972 38.22 18.452 38.22H18.2V41.004H18.56ZM22.333 41.196L24.145 39.456C24.305 39.296 24.529 39.088 24.817 38.832C25.273 38.416 25.621 38.08 25.861 37.824C26.101 37.568 26.297 37.296 26.449 37.008C26.601 36.712 26.677 36.396 26.677 36.06C26.677 35.564 26.533 35.188 26.245 34.932C25.957 34.668 25.537 34.536 24.985 34.536C24.609 34.536 24.221 34.604 23.821 34.74C23.429 34.876 23.061 35.076 22.717 35.34V34.164C23.389 33.676 24.209 33.432 25.177 33.432C26.041 33.432 26.713 33.664 27.193 34.128C27.673 34.584 27.913 35.208 27.913 36C27.913 36.384 27.829 36.752 27.661 37.104C27.501 37.456 27.273 37.804 26.977 38.148C26.681 38.484 26.281 38.896 25.777 39.384L24.145 40.98H28.225V42H22.333V41.196ZM32.3776 42.18C31.4336 42.18 30.6856 41.968 30.1336 41.544C29.5816 41.112 29.3056 40.5 29.3056 39.708C29.3056 39.172 29.4456 38.724 29.7256 38.364C30.0056 37.996 30.3776 37.748 30.8416 37.62C30.4576 37.46 30.1536 37.216 29.9296 36.888C29.7056 36.552 29.5936 36.164 29.5936 35.724C29.5936 35.02 29.8456 34.464 30.3496 34.056C30.8536 33.64 31.5296 33.432 32.3776 33.432C33.2176 33.432 33.8896 33.64 34.3936 34.056C34.8976 34.464 35.1496 35.02 35.1496 35.724C35.1496 36.164 35.0376 36.552 34.8136 36.888C34.5896 37.216 34.2856 37.46 33.9016 37.62C34.3656 37.748 34.7376 37.996 35.0176 38.364C35.3056 38.724 35.4496 39.172 35.4496 39.708C35.4496 40.5 35.1736 41.112 34.6216 41.544C34.0696 41.968 33.3216 42.18 32.3776 42.18ZM32.3776 37.248C32.8496 37.248 33.2336 37.12 33.5296 36.864C33.8256 36.6 33.9736 36.256 33.9736 35.832C33.9736 35.4 33.8256 35.048 33.5296 34.776C33.2416 34.504 32.8576 34.368 32.3776 34.368C31.8976 34.368 31.5096 34.504 31.2136 34.776C30.9256 35.048 30.7816 35.4 30.7816 35.832C30.7816 36.256 30.9296 36.6 31.2256 36.864C31.5216 37.12 31.9056 37.248 32.3776 37.248ZM32.3776 41.292C32.9536 41.292 33.4056 41.144 33.7336 40.848C34.0616 40.552 34.2256 40.144 34.2256 39.624C34.2256 39.128 34.0536 38.736 33.7096 38.448C33.3736 38.16 32.9296 38.016 32.3776 38.016C31.8256 38.016 31.3776 38.16 31.0336 38.448C30.6896 38.736 30.5176 39.128 30.5176 39.624C30.5176 40.144 30.6816 40.552 31.0096 40.848C31.3456 41.144 31.8016 41.292 32.3776 41.292ZM40.0164 42.18C39.2964 42.18 38.6724 42.004 38.1444 41.652C37.6244 41.3 37.2244 40.796 36.9444 40.14C36.6644 39.484 36.5244 38.708 36.5244 37.812C36.5244 36.916 36.6604 36.14 36.9324 35.484C37.2124 34.82 37.6124 34.312 38.1324 33.96C38.6604 33.608 39.2884 33.432 40.0164 33.432C40.7444 33.432 41.3684 33.608 41.8884 33.96C42.4164 34.312 42.8164 34.82 43.0884 35.484C43.3684 36.14 43.5084 36.916 43.5084 37.812C43.5084 38.708 43.3684 39.484 43.0884 40.14C42.8084 40.796 42.4044 41.3 41.8764 41.652C41.3564 42.004 40.7364 42.18 40.0164 42.18ZM40.0164 41.1C40.7284 41.1 41.2844 40.808 41.6844 40.224C42.0924 39.632 42.2964 38.832 42.2964 37.824C42.2964 36.816 42.0964 36.016 41.6964 35.424C41.2964 34.832 40.7364 34.536 40.0164 34.536C39.2964 34.536 38.7364 34.832 38.3364 35.424C37.9364 36.016 37.7364 36.816 37.7364 37.824C37.7364 38.832 37.9364 39.632 38.3364 40.224C38.7444 40.808 39.3044 41.1 40.0164 41.1ZM45.1509 42C44.9909 42 44.8549 41.948 44.7429 41.844C44.6389 41.732 44.5869 41.596 44.5869 41.436C44.5869 41.276 44.6389 41.14 44.7429 41.028C44.8549 40.916 44.9909 40.86 45.1509 40.86C45.3109 40.86 45.4469 40.916 45.5589 41.028C45.6709 41.14 45.7269 41.276 45.7269 41.436C45.7269 41.596 45.6709 41.732 45.5589 41.844C45.4469 41.948 45.3109 42 45.1509 42ZM50.2937 42.18C49.5737 42.18 48.9497 42.004 48.4217 41.652C47.9017 41.3 47.5017 40.796 47.2217 40.14C46.9417 39.484 46.8017 38.708 46.8017 37.812C46.8017 36.916 46.9377 36.14 47.2097 35.484C47.4897 34.82 47.8897 34.312 48.4097 33.96C48.9377 33.608 49.5657 33.432 50.2937 33.432C51.0217 33.432 51.6457 33.608 52.1657 33.96C52.6937 34.312 53.0937 34.82 53.3657 35.484C53.6457 36.14 53.7857 36.916 53.7857 37.812C53.7857 38.708 53.6457 39.484 53.3657 40.14C53.0857 40.796 52.6817 41.3 52.1537 41.652C51.6337 42.004 51.0137 42.18 50.2937 42.18ZM50.2937 41.1C51.0057 41.1 51.5617 40.808 51.9617 40.224C52.3697 39.632 52.5737 38.832 52.5737 37.824C52.5737 36.816 52.3737 36.016 51.9737 35.424C51.5737 34.832 51.0137 34.536 50.2937 34.536C49.5737 34.536 49.0137 34.832 48.6137 35.424C48.2137 36.016 48.0137 36.816 48.0137 37.824C48.0137 38.832 48.2137 39.632 48.6137 40.224C49.0217 40.808 49.5817 41.1 50.2937 41.1ZM58.3562 42.18C57.6362 42.18 57.0122 42.004 56.4842 41.652C55.9642 41.3 55.5642 40.796 55.2842 40.14C55.0042 39.484 54.8642 38.708 54.8642 37.812C54.8642 36.916 55.0002 36.14 55.2722 35.484C55.5522 34.82 55.9522 34.312 56.4722 33.96C57.0002 33.608 57.6282 33.432 58.3562 33.432C59.0842 33.432 59.7082 33.608 60.2282 33.96C60.7562 34.312 61.1562 34.82 61.4282 35.484C61.7082 36.14 61.8482 36.916 61.8482 37.812C61.8482 38.708 61.7082 39.484 61.4282 40.14C61.1482 40.796 60.7442 41.3 60.2162 41.652C59.6962 42.004 59.0762 42.18 58.3562 42.18ZM58.3562 41.1C59.0682 41.1 59.6242 40.808 60.0242 40.224C60.4322 39.632 60.6362 38.832 60.6362 37.824C60.6362 36.816 60.4362 36.016 60.0362 35.424C59.6362 34.832 59.0762 34.536 58.3562 34.536C57.6362 34.536 57.0762 34.832 56.6762 35.424C56.2762 36.016 56.0762 36.816 56.0762 37.824C56.0762 38.832 56.2762 39.632 56.6762 40.224C57.0842 40.808 57.6442 41.1 58.3562 41.1Z" fill="#484B52"/>
<path d="M50.088 60H48.52V54.408H50.088V53.584H50.8V54.408H51.088C51.584 54.408 51.968 54.536 52.24 54.792C52.512 55.048 52.648 55.4213 52.648 55.912C52.648 56.1893 52.5813 56.4347 52.448 56.648C52.32 56.856 52.1493 57.0107 51.936 57.112C52.5333 57.288 52.832 57.7227 52.832 58.416C52.832 58.7413 52.76 59.024 52.616 59.264C52.4773 59.4987 52.2853 59.68 52.04 59.808C51.7947 59.936 51.5227 60 51.224 60H50.8V60.824H50.088V60ZM50.088 56.808V55.072H49.336V56.808H50.088ZM50.984 56.808C51.2453 56.808 51.4507 56.736 51.6 56.592C51.7493 56.448 51.824 56.2347 51.824 55.952C51.824 55.6267 51.7493 55.4 51.6 55.272C51.456 55.1387 51.232 55.072 50.928 55.072H50.8V56.808H50.984ZM50.088 59.336V57.48H49.336V59.336H50.088ZM51.04 59.336C51.3547 59.336 51.5947 59.2667 51.76 59.128C51.9253 58.9893 52.008 58.752 52.008 58.416C52.008 58.08 51.92 57.84 51.744 57.696C51.5733 57.552 51.3147 57.48 50.968 57.48H50.8V59.336H51.04ZM54.7633 55.288L53.5553 56.16V55.384L54.8753 54.408H55.5793V60H54.7633V55.288ZM58.5096 60.12C57.8802 60.12 57.3816 59.9787 57.0136 59.696C56.6456 59.408 56.4616 59 56.4616 58.472C56.4616 58.1147 56.5549 57.816 56.7416 57.576C56.9282 57.3307 57.1762 57.1653 57.4856 57.08C57.2296 56.9733 57.0269 56.8107 56.8776 56.592C56.7282 56.368 56.6536 56.1093 56.6536 55.816C56.6536 55.3467 56.8216 54.976 57.1576 54.704C57.4936 54.4267 57.9442 54.288 58.5096 54.288C59.0696 54.288 59.5176 54.4267 59.8536 54.704C60.1896 54.976 60.3576 55.3467 60.3576 55.816C60.3576 56.1093 60.2829 56.368 60.1336 56.592C59.9842 56.8107 59.7816 56.9733 59.5256 57.08C59.8349 57.1653 60.0829 57.3307 60.2696 57.576C60.4616 57.816 60.5576 58.1147 60.5576 58.472C60.5576 59 60.3736 59.408 60.0056 59.696C59.6376 59.9787 59.1389 60.12 58.5096 60.12ZM58.5096 56.832C58.8242 56.832 59.0802 56.7467 59.2776 56.576C59.4749 56.4 59.5736 56.1707 59.5736 55.888C59.5736 55.6 59.4749 55.3653 59.2776 55.184C59.0856 55.0027 58.8296 54.912 58.5096 54.912C58.1896 54.912 57.9309 55.0027 57.7336 55.184C57.5416 55.3653 57.4456 55.6 57.4456 55.888C57.4456 56.1707 57.5442 56.4 57.7416 56.576C57.9389 56.7467 58.1949 56.832 58.5096 56.832ZM58.5096 59.528C58.8936 59.528 59.1949 59.4293 59.4136 59.232C59.6322 59.0347 59.7416 58.7627 59.7416 58.416C59.7416 58.0853 59.6269 57.824 59.3976 57.632C59.1736 57.44 58.8776 57.344 58.5096 57.344C58.1416 57.344 57.8429 57.44 57.6136 57.632C57.3842 57.824 57.2696 58.0853 57.2696 58.416C57.2696 58.7627 57.3789 59.0347 57.5976 59.232C57.8216 59.4293 58.1256 59.528 58.5096 59.528ZM63.6021 60.12C63.1221 60.12 62.7061 60.0027 62.3541 59.768C62.0074 59.5333 61.7407 59.1973 61.5541 58.76C61.3674 58.3227 61.2741 57.8053 61.2741 57.208C61.2741 56.6107 61.3647 56.0933 61.5461 55.656C61.7327 55.2133 61.9994 54.8747 62.3461 54.64C62.6981 54.4053 63.1167 54.288 63.6021 54.288C64.0874 54.288 64.5034 54.4053 64.8501 54.64C65.2021 54.8747 65.4687 55.2133 65.6501 55.656C65.8367 56.0933 65.9301 56.6107 65.9301 57.208C65.9301 57.8053 65.8367 58.3227 65.6501 58.76C65.4634 59.1973 65.1941 59.5333 64.8421 59.768C64.4954 60.0027 64.0821 60.12 63.6021 60.12ZM63.6021 59.4C64.0767 59.4 64.4474 59.2053 64.7141 58.816C64.9861 58.4213 65.1221 57.888 65.1221 57.216C65.1221 56.544 64.9887 56.0107 64.7221 55.616C64.4554 55.2213 64.0821 55.024 63.6021 55.024C63.1221 55.024 62.7487 55.2213 62.4821 55.616C62.2154 56.0107 62.0821 56.544 62.0821 57.216C62.0821 57.888 62.2154 58.4213 62.4821 58.816C62.7541 59.2053 63.1274 59.4 63.6021 59.4ZM67.0251 60C66.9184 60 66.8277 59.9653 66.7531 59.896C66.6837 59.8213 66.6491 59.7307 66.6491 59.624C66.6491 59.5173 66.6837 59.4267 66.7531 59.352C66.8277 59.2773 66.9184 59.24 67.0251 59.24C67.1317 59.24 67.2224 59.2773 67.2971 59.352C67.3717 59.4267 67.4091 59.5173 67.4091 59.624C67.4091 59.7307 67.3717 59.8213 67.2971 59.896C67.2224 59.9653 67.1317 60 67.0251 60ZM70.4536 60.12C69.9736 60.12 69.5576 60.0027 69.2056 59.768C68.859 59.5333 68.5923 59.1973 68.4056 58.76C68.219 58.3227 68.1256 57.8053 68.1256 57.208C68.1256 56.6107 68.2163 56.0933 68.3976 55.656C68.5843 55.2133 68.851 54.8747 69.1976 54.64C69.5496 54.4053 69.9683 54.288 70.4536 54.288C70.939 54.288 71.355 54.4053 71.7016 54.64C72.0536 54.8747 72.3203 55.2133 72.5016 55.656C72.6883 56.0933 72.7816 56.6107 72.7816 57.208C72.7816 57.8053 72.6883 58.3227 72.5016 58.76C72.315 59.1973 72.0456 59.5333 71.6936 59.768C71.347 60.0027 70.9336 60.12 70.4536 60.12ZM70.4536 59.4C70.9283 59.4 71.299 59.2053 71.5656 58.816C71.8376 58.4213 71.9736 57.888 71.9736 57.216C71.9736 56.544 71.8403 56.0107 71.5736 55.616C71.307 55.2213 70.9336 55.024 70.4536 55.024C69.9736 55.024 69.6003 55.2213 69.3336 55.616C69.067 56.0107 68.9336 56.544 68.9336 57.216C68.9336 57.888 69.067 58.4213 69.3336 58.816C69.6056 59.2053 69.979 59.4 70.4536 59.4ZM75.8286 60.12C75.3486 60.12 74.9326 60.0027 74.5806 59.768C74.234 59.5333 73.9673 59.1973 73.7806 58.76C73.594 58.3227 73.5006 57.8053 73.5006 57.208C73.5006 56.6107 73.5913 56.0933 73.7726 55.656C73.9593 55.2133 74.226 54.8747 74.5726 54.64C74.9246 54.4053 75.3433 54.288 75.8286 54.288C76.314 54.288 76.73 54.4053 77.0766 54.64C77.4286 54.8747 77.6953 55.2133 77.8766 55.656C78.0633 56.0933 78.1566 56.6107 78.1566 57.208C78.1566 57.8053 78.0633 58.3227 77.8766 58.76C77.69 59.1973 77.4206 59.5333 77.0686 59.768C76.722 60.0027 76.3086 60.12 75.8286 60.12ZM75.8286 59.4C76.3033 59.4 76.674 59.2053 76.9406 58.816C77.2126 58.4213 77.3486 57.888 77.3486 57.216C77.3486 56.544 77.2153 56.0107 76.9486 55.616C76.682 55.2213 76.3086 55.024 75.8286 55.024C75.3486 55.024 74.9753 55.2213 74.7086 55.616C74.442 56.0107 74.3086 56.544 74.3086 57.216C74.3086 57.888 74.442 58.4213 74.7086 58.816C74.9806 59.2053 75.354 59.4 75.8286 59.4Z" fill="#484B52"/>
<path d="M82.566 59H81.39V54.806H82.566V54.188H83.1V54.806H83.316C83.688 54.806 83.976 54.902 84.18 55.094C84.384 55.286 84.486 55.566 84.486 55.934C84.486 56.142 84.436 56.326 84.336 56.486C84.24 56.642 84.112 56.758 83.952 56.834C84.4 56.966 84.624 57.292 84.624 57.812C84.624 58.056 84.57 58.268 84.462 58.448C84.358 58.624 84.214 58.76 84.03 58.856C83.846 58.952 83.642 59 83.418 59H83.1V59.618H82.566V59ZM82.566 56.606V55.304H82.002V56.606H82.566ZM83.238 56.606C83.434 56.606 83.588 56.552 83.7 56.444C83.812 56.336 83.868 56.176 83.868 55.964C83.868 55.72 83.812 55.55 83.7 55.454C83.592 55.354 83.424 55.304 83.196 55.304H83.1V56.606H83.238ZM82.566 58.502V57.11H82.002V58.502H82.566ZM83.28 58.502C83.516 58.502 83.696 58.45 83.82 58.346C83.944 58.242 84.006 58.064 84.006 57.812C84.006 57.56 83.94 57.38 83.808 57.272C83.68 57.164 83.486 57.11 83.226 57.11H83.1V58.502H83.28ZM86.4445 59.09C86.2005 59.09 85.9665 59.07 85.7425 59.03C85.5225 58.994 85.3305 58.938 85.1665 58.862V58.358C85.5385 58.526 85.9385 58.61 86.3665 58.61C86.7345 58.61 87.0065 58.544 87.1825 58.412C87.3625 58.276 87.4525 58.084 87.4525 57.836C87.4525 57.58 87.3605 57.398 87.1765 57.29C86.9925 57.178 86.7125 57.122 86.3365 57.122H85.8445V56.63H86.3245C86.6245 56.63 86.8665 56.57 87.0505 56.45C87.2345 56.326 87.3265 56.146 87.3265 55.91C87.3265 55.678 87.2505 55.502 87.0985 55.382C86.9465 55.262 86.7265 55.202 86.4385 55.202C86.2145 55.202 86.0125 55.228 85.8325 55.28C85.6525 55.332 85.4665 55.418 85.2745 55.538V55.034C85.6265 54.822 86.0385 54.716 86.5105 54.716C86.9785 54.716 87.3345 54.82 87.5785 55.028C87.8225 55.236 87.9445 55.524 87.9445 55.892C87.9445 56.116 87.8845 56.312 87.7645 56.48C87.6445 56.648 87.4645 56.778 87.2245 56.87C87.4965 56.934 87.7045 57.05 87.8485 57.218C87.9965 57.386 88.0705 57.598 88.0705 57.854C88.0705 58.234 87.9405 58.536 87.6805 58.76C87.4205 58.98 87.0085 59.09 86.4445 59.09ZM90.1898 59.09C89.8898 59.09 89.6198 59.022 89.3798 58.886C89.1438 58.746 88.9558 58.542 88.8158 58.274C88.6798 58.002 88.6118 57.676 88.6118 57.296C88.6118 56.464 88.7818 55.826 89.1218 55.382C89.4658 54.938 89.9578 54.716 90.5978 54.716C90.8178 54.716 91.0138 54.74 91.1858 54.788V55.304C91.0458 55.244 90.8658 55.214 90.6458 55.214C89.7898 55.214 89.3198 55.728 89.2358 56.756C89.3558 56.604 89.5138 56.49 89.7098 56.414C89.9098 56.334 90.1278 56.294 90.3638 56.294C90.6358 56.294 90.8738 56.35 91.0778 56.462C91.2818 56.574 91.4398 56.734 91.5518 56.942C91.6678 57.15 91.7258 57.392 91.7258 57.668C91.7258 57.94 91.6638 58.184 91.5398 58.4C91.4198 58.616 91.2438 58.786 91.0118 58.91C90.7798 59.03 90.5058 59.09 90.1898 59.09ZM90.1898 58.616C90.4698 58.616 90.6938 58.532 90.8618 58.364C91.0338 58.192 91.1198 57.966 91.1198 57.686C91.1198 57.406 91.0338 57.184 90.8618 57.02C90.6938 56.856 90.4698 56.774 90.1898 56.774C90.0178 56.774 89.8598 56.812 89.7158 56.888C89.5758 56.964 89.4638 57.072 89.3798 57.212C89.2998 57.352 89.2598 57.514 89.2598 57.698C89.2598 57.862 89.2978 58.014 89.3738 58.154C89.4538 58.294 89.5638 58.406 89.7038 58.49C89.8438 58.574 90.0058 58.616 90.1898 58.616ZM94.014 59.09C93.654 59.09 93.342 59.002 93.078 58.826C92.818 58.65 92.618 58.398 92.478 58.07C92.338 57.742 92.268 57.354 92.268 56.906C92.268 56.458 92.336 56.07 92.472 55.742C92.612 55.41 92.812 55.156 93.072 54.98C93.336 54.804 93.65 54.716 94.014 54.716C94.378 54.716 94.69 54.804 94.95 54.98C95.214 55.156 95.414 55.41 95.55 55.742C95.69 56.07 95.76 56.458 95.76 56.906C95.76 57.354 95.69 57.742 95.55 58.07C95.41 58.398 95.208 58.65 94.944 58.826C94.684 59.002 94.374 59.09 94.014 59.09ZM94.014 58.55C94.37 58.55 94.648 58.404 94.848 58.112C95.052 57.816 95.154 57.416 95.154 56.912C95.154 56.408 95.054 56.008 94.854 55.712C94.654 55.416 94.374 55.268 94.014 55.268C93.654 55.268 93.374 55.416 93.174 55.712C92.974 56.008 92.874 56.408 92.874 56.912C92.874 57.416 92.974 57.816 93.174 58.112C93.378 58.404 93.658 58.55 94.014 58.55ZM96.5813 59C96.5013 59 96.4333 58.974 96.3773 58.922C96.3253 58.866 96.2993 58.798 96.2993 58.718C96.2993 58.638 96.3253 58.57 96.3773 58.514C96.4333 58.458 96.5013 58.43 96.5813 58.43C96.6613 58.43 96.7293 58.458 96.7853 58.514C96.8413 58.57 96.8693 58.638 96.8693 58.718C96.8693 58.798 96.8413 58.866 96.7853 58.922C96.7293 58.974 96.6613 59 96.5813 59ZM99.1527 59.09C98.7927 59.09 98.4807 59.002 98.2167 58.826C97.9567 58.65 97.7567 58.398 97.6167 58.07C97.4767 57.742 97.4067 57.354 97.4067 56.906C97.4067 56.458 97.4747 56.07 97.6107 55.742C97.7507 55.41 97.9507 55.156 98.2107 54.98C98.4747 54.804 98.7887 54.716 99.1527 54.716C99.5167 54.716 99.8287 54.804 100.089 54.98C100.353 55.156 100.553 55.41 100.689 55.742C100.829 56.07 100.899 56.458 100.899 56.906C100.899 57.354 100.829 57.742 100.689 58.07C100.549 58.398 100.347 58.65 100.083 58.826C99.8227 59.002 99.5127 59.09 99.1527 59.09ZM99.1527 58.55C99.5087 58.55 99.7867 58.404 99.9867 58.112C100.191 57.816 100.293 57.416 100.293 56.912C100.293 56.408 100.193 56.008 99.9927 55.712C99.7927 55.416 99.5127 55.268 99.1527 55.268C98.7927 55.268 98.5127 55.416 98.3127 55.712C98.1127 56.008 98.0127 56.408 98.0127 56.912C98.0127 57.416 98.1127 57.816 98.3127 58.112C98.5167 58.404 98.7967 58.55 99.1527 58.55ZM103.184 59.09C102.824 59.09 102.512 59.002 102.248 58.826C101.988 58.65 101.788 58.398 101.648 58.07C101.508 57.742 101.438 57.354 101.438 56.906C101.438 56.458 101.506 56.07 101.642 55.742C101.782 55.41 101.982 55.156 102.242 54.98C102.506 54.804 102.82 54.716 103.184 54.716C103.548 54.716 103.86 54.804 104.12 54.98C104.384 55.156 104.584 55.41 104.72 55.742C104.86 56.07 104.93 56.458 104.93 56.906C104.93 57.354 104.86 57.742 104.72 58.07C104.58 58.398 104.378 58.65 104.114 58.826C103.854 59.002 103.544 59.09 103.184 59.09ZM103.184 58.55C103.54 58.55 103.818 58.404 104.018 58.112C104.222 57.816 104.324 57.416 104.324 56.912C104.324 56.408 104.224 56.008 104.024 55.712C103.824 55.416 103.544 55.268 103.184 55.268C102.824 55.268 102.544 55.416 102.344 55.712C102.144 56.008 102.044 56.408 102.044 56.912C102.044 57.416 102.144 57.816 102.344 58.112C102.548 58.404 102.828 58.55 103.184 58.55Z" fill="#9799A5"/>
<path d="M81 57.074H105.2V57.374H81V57.074Z" fill="#9799A5"/>
<path d="M53.4161 72H51.8481V66.408H53.4161V65.584H54.1281V66.408H54.4161C54.9121 66.408 55.2961 66.536 55.5681 66.792C55.8401 67.048 55.9761 67.4213 55.9761 67.912C55.9761 68.1893 55.9095 68.4347 55.7761 68.648C55.6481 68.856 55.4775 69.0107 55.2641 69.112C55.8615 69.288 56.1601 69.7227 56.1601 70.416C56.1601 70.7413 56.0881 71.024 55.9441 71.264C55.8055 71.4987 55.6135 71.68 55.3681 71.808C55.1228 71.936 54.8508 72 54.5521 72H54.1281V72.824H53.4161V72ZM53.4161 68.808V67.072H52.6641V68.808H53.4161ZM54.3121 68.808C54.5735 68.808 54.7788 68.736 54.9281 68.592C55.0775 68.448 55.1521 68.2347 55.1521 67.952C55.1521 67.6267 55.0775 67.4 54.9281 67.272C54.7841 67.1387 54.5601 67.072 54.2561 67.072H54.1281V68.808H54.3121ZM53.4161 71.336V69.48H52.6641V71.336H53.4161ZM54.3681 71.336C54.6828 71.336 54.9228 71.2667 55.0881 71.128C55.2535 70.9893 55.3361 70.752 55.3361 70.416C55.3361 70.08 55.2481 69.84 55.0721 69.696C54.9015 69.552 54.6428 69.48 54.2961 69.48H54.1281V71.336H54.3681ZM58.3874 72.12C58.0941 72.12 57.8328 72.088 57.6034 72.024V71.344C57.8114 71.424 58.0514 71.464 58.3234 71.464C59.4701 71.464 60.0994 70.7787 60.2114 69.408C60.0514 69.6107 59.8408 69.7627 59.5794 69.864C59.3234 69.9653 59.0354 70.016 58.7154 70.016C58.3581 70.016 58.0408 69.9413 57.7634 69.792C57.4861 69.6427 57.2701 69.4293 57.1154 69.152C56.9608 68.8747 56.8834 68.552 56.8834 68.184C56.8834 67.8213 56.9634 67.496 57.1234 67.208C57.2888 66.92 57.5261 66.696 57.8354 66.536C58.1448 66.3707 58.5101 66.288 58.9314 66.288C59.3368 66.288 59.6968 66.3787 60.0114 66.56C60.3314 66.7413 60.5821 67.0133 60.7634 67.376C60.9448 67.7333 61.0354 68.168 61.0354 68.68C61.0354 69.7893 60.8061 70.64 60.3474 71.232C59.8941 71.824 59.2408 72.12 58.3874 72.12ZM58.9314 69.376C59.2834 69.376 59.5768 69.264 59.8114 69.04C60.0514 68.816 60.1714 68.52 60.1714 68.152C60.1714 67.9333 60.1181 67.7307 60.0114 67.544C59.9101 67.3573 59.7661 67.208 59.5794 67.096C59.3928 66.984 59.1768 66.928 58.9314 66.928C58.5581 66.928 58.2568 67.04 58.0274 67.264C57.8034 67.488 57.6914 67.7867 57.6914 68.16C57.6914 68.5333 57.8034 68.8293 58.0274 69.048C58.2568 69.2667 58.5581 69.376 58.9314 69.376ZM64.0864 72.12C63.6064 72.12 63.1904 72.0027 62.8384 71.768C62.4918 71.5333 62.2251 71.1973 62.0384 70.76C61.8518 70.3227 61.7584 69.8053 61.7584 69.208C61.7584 68.6107 61.8491 68.0933 62.0304 67.656C62.2171 67.2133 62.4838 66.8747 62.8304 66.64C63.1824 66.4053 63.6011 66.288 64.0864 66.288C64.5718 66.288 64.9878 66.4053 65.3344 66.64C65.6864 66.8747 65.9531 67.2133 66.1344 67.656C66.3211 68.0933 66.4144 68.6107 66.4144 69.208C66.4144 69.8053 66.3211 70.3227 66.1344 70.76C65.9478 71.1973 65.6784 71.5333 65.3264 71.768C64.9798 72.0027 64.5664 72.12 64.0864 72.12ZM64.0864 71.4C64.5611 71.4 64.9318 71.2053 65.1984 70.816C65.4704 70.4213 65.6064 69.888 65.6064 69.216C65.6064 68.544 65.4731 68.0107 65.2064 67.616C64.9398 67.2213 64.5664 67.024 64.0864 67.024C63.6064 67.024 63.2331 67.2213 62.9664 67.616C62.6998 68.0107 62.5664 68.544 62.5664 69.216C62.5664 69.888 62.6998 70.4213 62.9664 70.816C63.2384 71.2053 63.6118 71.4 64.0864 71.4ZM67.5094 72C67.4028 72 67.3121 71.9653 67.2374 71.896C67.1681 71.8213 67.1334 71.7307 67.1334 71.624C67.1334 71.5173 67.1681 71.4267 67.2374 71.352C67.3121 71.2773 67.4028 71.24 67.5094 71.24C67.6161 71.24 67.7068 71.2773 67.7814 71.352C67.8561 71.4267 67.8934 71.5173 67.8934 71.624C67.8934 71.7307 67.8561 71.8213 67.7814 71.896C67.7068 71.9653 67.6161 72 67.5094 72ZM70.938 72.12C70.458 72.12 70.042 72.0027 69.69 71.768C69.3433 71.5333 69.0767 71.1973 68.89 70.76C68.7033 70.3227 68.61 69.8053 68.61 69.208C68.61 68.6107 68.7007 68.0933 68.882 67.656C69.0687 67.2133 69.3353 66.8747 69.682 66.64C70.034 66.4053 70.4527 66.288 70.938 66.288C71.4233 66.288 71.8393 66.4053 72.186 66.64C72.538 66.8747 72.8047 67.2133 72.986 67.656C73.1727 68.0933 73.266 68.6107 73.266 69.208C73.266 69.8053 73.1727 70.3227 72.986 70.76C72.7993 71.1973 72.53 71.5333 72.178 71.768C71.8313 72.0027 71.418 72.12 70.938 72.12ZM70.938 71.4C71.4127 71.4 71.7833 71.2053 72.05 70.816C72.322 70.4213 72.458 69.888 72.458 69.216C72.458 68.544 72.3247 68.0107 72.058 67.616C71.7913 67.2213 71.418 67.024 70.938 67.024C70.458 67.024 70.0847 67.2213 69.818 67.616C69.5513 68.0107 69.418 68.544 69.418 69.216C69.418 69.888 69.5513 70.4213 69.818 70.816C70.09 71.2053 70.4633 71.4 70.938 71.4ZM76.313 72.12C75.833 72.12 75.417 72.0027 75.065 71.768C74.7183 71.5333 74.4517 71.1973 74.265 70.76C74.0783 70.3227 73.985 69.8053 73.985 69.208C73.985 68.6107 74.0757 68.0933 74.257 67.656C74.4437 67.2133 74.7103 66.8747 75.057 66.64C75.409 66.4053 75.8277 66.288 76.313 66.288C76.7983 66.288 77.2143 66.4053 77.561 66.64C77.913 66.8747 78.1797 67.2133 78.361 67.656C78.5477 68.0933 78.641 68.6107 78.641 69.208C78.641 69.8053 78.5477 70.3227 78.361 70.76C78.1743 71.1973 77.905 71.5333 77.553 71.768C77.2063 72.0027 76.793 72.12 76.313 72.12ZM76.313 71.4C76.7877 71.4 77.1583 71.2053 77.425 70.816C77.697 70.4213 77.833 69.888 77.833 69.216C77.833 68.544 77.6997 68.0107 77.433 67.616C77.1663 67.2213 76.793 67.024 76.313 67.024C75.833 67.024 75.4597 67.2213 75.193 67.616C74.9263 68.0107 74.793 68.544 74.793 69.216C74.793 69.888 74.9263 70.4213 75.193 70.816C75.465 71.2053 75.8383 71.4 76.313 71.4Z" fill="#484B52"/>
<path d="M82.566 72H81.39V67.806H82.566V67.188H83.1V67.806H83.316C83.688 67.806 83.976 67.902 84.18 68.094C84.384 68.286 84.486 68.566 84.486 68.934C84.486 69.142 84.436 69.326 84.336 69.486C84.24 69.642 84.112 69.758 83.952 69.834C84.4 69.966 84.624 70.292 84.624 70.812C84.624 71.056 84.57 71.268 84.462 71.448C84.358 71.624 84.214 71.76 84.03 71.856C83.846 71.952 83.642 72 83.418 72H83.1V72.618H82.566V72ZM82.566 69.606V68.304H82.002V69.606H82.566ZM83.238 69.606C83.434 69.606 83.588 69.552 83.7 69.444C83.812 69.336 83.868 69.176 83.868 68.964C83.868 68.72 83.812 68.55 83.7 68.454C83.592 68.354 83.424 68.304 83.196 68.304H83.1V69.606H83.238ZM82.566 71.502V70.11H82.002V71.502H82.566ZM83.28 71.502C83.516 71.502 83.696 71.45 83.82 71.346C83.944 71.242 84.006 71.064 84.006 70.812C84.006 70.56 83.94 70.38 83.808 70.272C83.68 70.164 83.486 70.11 83.226 70.11H83.1V71.502H83.28ZM86.4445 72.09C86.2005 72.09 85.9665 72.07 85.7425 72.03C85.5225 71.994 85.3305 71.938 85.1665 71.862V71.358C85.5385 71.526 85.9385 71.61 86.3665 71.61C86.7345 71.61 87.0065 71.544 87.1825 71.412C87.3625 71.276 87.4525 71.084 87.4525 70.836C87.4525 70.58 87.3605 70.398 87.1765 70.29C86.9925 70.178 86.7125 70.122 86.3365 70.122H85.8445V69.63H86.3245C86.6245 69.63 86.8665 69.57 87.0505 69.45C87.2345 69.326 87.3265 69.146 87.3265 68.91C87.3265 68.678 87.2505 68.502 87.0985 68.382C86.9465 68.262 86.7265 68.202 86.4385 68.202C86.2145 68.202 86.0125 68.228 85.8325 68.28C85.6525 68.332 85.4665 68.418 85.2745 68.538V68.034C85.6265 67.822 86.0385 67.716 86.5105 67.716C86.9785 67.716 87.3345 67.82 87.5785 68.028C87.8225 68.236 87.9445 68.524 87.9445 68.892C87.9445 69.116 87.8845 69.312 87.7645 69.48C87.6445 69.648 87.4645 69.778 87.2245 69.87C87.4965 69.934 87.7045 70.05 87.8485 70.218C87.9965 70.386 88.0705 70.598 88.0705 70.854C88.0705 71.234 87.9405 71.536 87.6805 71.76C87.4205 71.98 87.0085 72.09 86.4445 72.09ZM90.3578 72.09C89.9978 72.09 89.6858 72.002 89.4218 71.826C89.1618 71.65 88.9618 71.398 88.8218 71.07C88.6818 70.742 88.6118 70.354 88.6118 69.906C88.6118 69.458 88.6798 69.07 88.8158 68.742C88.9558 68.41 89.1558 68.156 89.4158 67.98C89.6798 67.804 89.9938 67.716 90.3578 67.716C90.7218 67.716 91.0338 67.804 91.2938 67.98C91.5578 68.156 91.7578 68.41 91.8938 68.742C92.0338 69.07 92.1038 69.458 92.1038 69.906C92.1038 70.354 92.0338 70.742 91.8938 71.07C91.7538 71.398 91.5518 71.65 91.2878 71.826C91.0278 72.002 90.7178 72.09 90.3578 72.09ZM90.3578 71.55C90.7138 71.55 90.9918 71.404 91.1918 71.112C91.3958 70.816 91.4978 70.416 91.4978 69.912C91.4978 69.408 91.3978 69.008 91.1978 68.712C90.9978 68.416 90.7178 68.268 90.3578 68.268C89.9978 68.268 89.7178 68.416 89.5178 68.712C89.3178 69.008 89.2178 69.408 89.2178 69.912C89.2178 70.416 89.3178 70.816 89.5178 71.112C89.7218 71.404 90.0018 71.55 90.3578 71.55ZM94.389 72.09C94.029 72.09 93.717 72.002 93.453 71.826C93.193 71.65 92.993 71.398 92.853 71.07C92.713 70.742 92.643 70.354 92.643 69.906C92.643 69.458 92.711 69.07 92.847 68.742C92.987 68.41 93.187 68.156 93.447 67.98C93.711 67.804 94.025 67.716 94.389 67.716C94.753 67.716 95.065 67.804 95.325 67.98C95.589 68.156 95.789 68.41 95.925 68.742C96.065 69.07 96.135 69.458 96.135 69.906C96.135 70.354 96.065 70.742 95.925 71.07C95.785 71.398 95.583 71.65 95.319 71.826C95.059 72.002 94.749 72.09 94.389 72.09ZM94.389 71.55C94.745 71.55 95.023 71.404 95.223 71.112C95.427 70.816 95.529 70.416 95.529 69.912C95.529 69.408 95.429 69.008 95.229 68.712C95.029 68.416 94.749 68.268 94.389 68.268C94.029 68.268 93.749 68.416 93.549 68.712C93.349 69.008 93.249 69.408 93.249 69.912C93.249 70.416 93.349 70.816 93.549 71.112C93.753 71.404 94.033 71.55 94.389 71.55ZM96.9563 72C96.8763 72 96.8083 71.974 96.7523 71.922C96.7003 71.866 96.6743 71.798 96.6743 71.718C96.6743 71.638 96.7003 71.57 96.7523 71.514C96.8083 71.458 96.8763 71.43 96.9563 71.43C97.0363 71.43 97.1043 71.458 97.1603 71.514C97.2163 71.57 97.2443 71.638 97.2443 71.718C97.2443 71.798 97.2163 71.866 97.1603 71.922C97.1043 71.974 97.0363 72 96.9563 72ZM99.5277 72.09C99.1677 72.09 98.8557 72.002 98.5917 71.826C98.3317 71.65 98.1317 71.398 97.9917 71.07C97.8517 70.742 97.7817 70.354 97.7817 69.906C97.7817 69.458 97.8497 69.07 97.9857 68.742C98.1257 68.41 98.3257 68.156 98.5857 67.98C98.8497 67.804 99.1637 67.716 99.5277 67.716C99.8917 67.716 100.204 67.804 100.464 67.98C100.728 68.156 100.928 68.41 101.064 68.742C101.204 69.07 101.274 69.458 101.274 69.906C101.274 70.354 101.204 70.742 101.064 71.07C100.924 71.398 100.722 71.65 100.458 71.826C100.198 72.002 99.8877 72.09 99.5277 72.09ZM99.5277 71.55C99.8837 71.55 100.162 71.404 100.362 71.112C100.566 70.816 100.668 70.416 100.668 69.912C100.668 69.408 100.568 69.008 100.368 68.712C100.168 68.416 99.8877 68.268 99.5277 68.268C99.1677 68.268 98.8877 68.416 98.6877 68.712C98.4877 69.008 98.3877 69.408 98.3877 69.912C98.3877 70.416 98.4877 70.816 98.6877 71.112C98.8917 71.404 99.1717 71.55 99.5277 71.55ZM103.559 72.09C103.199 72.09 102.887 72.002 102.623 71.826C102.363 71.65 102.163 71.398 102.023 71.07C101.883 70.742 101.813 70.354 101.813 69.906C101.813 69.458 101.881 69.07 102.017 68.742C102.157 68.41 102.357 68.156 102.617 67.98C102.881 67.804 103.195 67.716 103.559 67.716C103.923 67.716 104.235 67.804 104.495 67.98C104.759 68.156 104.959 68.41 105.095 68.742C105.235 69.07 105.305 69.458 105.305 69.906C105.305 70.354 105.235 70.742 105.095 71.07C104.955 71.398 104.753 71.65 104.489 71.826C104.229 72.002 103.919 72.09 103.559 72.09ZM103.559 71.55C103.915 71.55 104.193 71.404 104.393 71.112C104.597 70.816 104.699 70.416 104.699 69.912C104.699 69.408 104.599 69.008 104.399 68.712C104.199 68.416 103.919 68.268 103.559 68.268C103.199 68.268 102.919 68.416 102.719 68.712C102.519 69.008 102.419 69.408 102.419 69.912C102.419 70.416 102.519 70.816 102.719 71.112C102.923 71.404 103.203 71.55 103.559 71.55Z" fill="#9799A5"/>
<path d="M81 70.074H105.575V70.374H81V70.074Z" fill="#9799A5"/>
<path d="M13.39 81.806H13.972L16.108 84.968V81.806H16.726V86H16.138L14.002 82.838V86H13.39V81.806ZM19.0873 86.09C18.5553 86.09 18.1373 85.958 17.8333 85.694C17.5333 85.426 17.3833 85.05 17.3833 84.566C17.3833 84.094 17.5173 83.72 17.7853 83.444C18.0573 83.168 18.4433 83.03 18.9433 83.03C19.2753 83.03 19.5573 83.094 19.7893 83.222C20.0213 83.346 20.1953 83.52 20.3113 83.744C20.4313 83.964 20.4913 84.216 20.4913 84.5V84.8H17.9593C17.9793 85.072 18.0933 85.276 18.3013 85.412C18.5133 85.544 18.7993 85.61 19.1593 85.61C19.3433 85.61 19.5293 85.594 19.7173 85.562C19.9053 85.526 20.0713 85.48 20.2153 85.424V85.91C20.0873 85.962 19.9173 86.004 19.7053 86.036C19.4973 86.072 19.2913 86.09 19.0873 86.09ZM19.9213 84.374C19.9133 84.102 19.8233 83.892 19.6513 83.744C19.4833 83.592 19.2433 83.516 18.9313 83.516C18.6273 83.516 18.3913 83.594 18.2233 83.75C18.0553 83.906 17.9673 84.114 17.9593 84.374H19.9213ZM22.1857 86.09C21.8377 86.09 21.5577 86.002 21.3457 85.826C21.1377 85.646 21.0337 85.404 21.0337 85.1C21.0337 84.78 21.1337 84.534 21.3337 84.362C21.5377 84.186 21.8257 84.098 22.1977 84.098C22.5937 84.098 22.9297 84.178 23.2057 84.338V84.188C23.2057 83.96 23.1357 83.792 22.9957 83.684C22.8597 83.572 22.6437 83.516 22.3477 83.516C22.1717 83.516 21.9997 83.534 21.8317 83.57C21.6677 83.602 21.5197 83.648 21.3877 83.708V83.216C21.5077 83.16 21.6637 83.116 21.8557 83.084C22.0477 83.048 22.2337 83.03 22.4137 83.03C22.8897 83.03 23.2417 83.136 23.4697 83.348C23.7017 83.556 23.8177 83.846 23.8177 84.218V86H23.2477V85.676C23.1237 85.812 22.9757 85.916 22.8037 85.988C22.6357 86.056 22.4297 86.09 22.1857 86.09ZM22.3357 85.628C22.5277 85.628 22.7017 85.59 22.8577 85.514C23.0137 85.438 23.1297 85.332 23.2057 85.196V84.806C22.9457 84.638 22.6557 84.554 22.3357 84.554C22.1037 84.554 21.9297 84.6 21.8137 84.692C21.7017 84.78 21.6457 84.916 21.6457 85.1C21.6457 85.452 21.8757 85.628 22.3357 85.628ZM24.5697 83.12H25.1577V83.636C25.2777 83.46 25.4457 83.33 25.6617 83.246C25.8817 83.162 26.1357 83.12 26.4237 83.12V83.594C26.1157 83.594 25.8517 83.644 25.6317 83.744C25.4117 83.844 25.2597 84.002 25.1757 84.218V86H24.5697V83.12ZM30.7709 86.09C30.2389 86.09 29.8209 85.958 29.5169 85.694C29.2169 85.426 29.0669 85.05 29.0669 84.566C29.0669 84.094 29.2009 83.72 29.4689 83.444C29.7409 83.168 30.1269 83.03 30.6269 83.03C30.9589 83.03 31.2409 83.094 31.4729 83.222C31.7049 83.346 31.8789 83.52 31.9949 83.744C32.1149 83.964 32.1749 84.216 32.1749 84.5V84.8H29.6429C29.6629 85.072 29.7769 85.276 29.9849 85.412C30.1969 85.544 30.4829 85.61 30.8429 85.61C31.0269 85.61 31.2129 85.594 31.4009 85.562C31.5889 85.526 31.7549 85.48 31.8989 85.424V85.91C31.7709 85.962 31.6009 86.004 31.3889 86.036C31.1809 86.072 30.9749 86.09 30.7709 86.09ZM31.6049 84.374C31.5969 84.102 31.5069 83.892 31.3349 83.744C31.1669 83.592 30.9269 83.516 30.6149 83.516C30.3109 83.516 30.0749 83.594 29.9069 83.75C29.7389 83.906 29.6509 84.114 29.6429 84.374H31.6049ZM33.8361 84.494L32.7081 83.12H33.3981L34.1781 84.074L34.9641 83.12H35.6541L34.5261 84.494L35.7621 86H35.0781L34.1781 84.914L33.2841 86H32.6001L33.8361 84.494ZM36.4232 83.12H37.0112V83.546C37.3072 83.202 37.7072 83.03 38.2112 83.03C38.4992 83.03 38.7572 83.094 38.9852 83.222C39.2172 83.35 39.3972 83.53 39.5252 83.762C39.6572 83.99 39.7232 84.256 39.7232 84.56C39.7232 84.86 39.6572 85.126 39.5252 85.358C39.3972 85.59 39.2192 85.77 38.9912 85.898C38.7632 86.026 38.5032 86.09 38.2112 86.09C37.9712 86.09 37.7472 86.05 37.5392 85.97C37.3312 85.89 37.1612 85.772 37.0292 85.616V87.314H36.4232V83.12ZM38.0732 85.61C38.2692 85.61 38.4452 85.568 38.6012 85.484C38.7612 85.396 38.8852 85.272 38.9732 85.112C39.0652 84.952 39.1112 84.768 39.1112 84.56C39.1112 84.352 39.0652 84.17 38.9732 84.014C38.8852 83.854 38.7612 83.732 38.6012 83.648C38.4452 83.56 38.2692 83.516 38.0732 83.516C37.8292 83.516 37.6132 83.58 37.4252 83.708C37.2412 83.836 37.1092 84.012 37.0292 84.236V84.884C37.0972 85.104 37.2272 85.28 37.4192 85.412C37.6112 85.544 37.8292 85.61 38.0732 85.61ZM40.7381 82.556C40.6381 82.556 40.5541 82.522 40.4861 82.454C40.4181 82.386 40.3841 82.302 40.3841 82.202C40.3841 82.102 40.4181 82.018 40.4861 81.95C40.5541 81.882 40.6381 81.848 40.7381 81.848C40.8421 81.848 40.9281 81.882 40.9961 81.95C41.0681 82.018 41.1041 82.102 41.1041 82.202C41.1041 82.302 41.0681 82.386 40.9961 82.454C40.9281 82.522 40.8421 82.556 40.7381 82.556ZM40.4321 83.12H41.0501V86H40.4321V83.12ZM41.8841 83.12H42.4721V83.636C42.5921 83.46 42.7601 83.33 42.9761 83.246C43.1961 83.162 43.4501 83.12 43.7381 83.12V83.594C43.4301 83.594 43.1661 83.644 42.9461 83.744C42.7261 83.844 42.5741 84.002 42.4901 84.218V86H41.8841V83.12ZM45.0431 86.09C44.6951 86.09 44.4151 86.002 44.2031 85.826C43.9951 85.646 43.8911 85.404 43.8911 85.1C43.8911 84.78 43.9911 84.534 44.1911 84.362C44.3951 84.186 44.6831 84.098 45.0551 84.098C45.4511 84.098 45.7871 84.178 46.0631 84.338V84.188C46.0631 83.96 45.9931 83.792 45.8531 83.684C45.7171 83.572 45.5011 83.516 45.2051 83.516C45.0291 83.516 44.8571 83.534 44.6891 83.57C44.5251 83.602 44.3771 83.648 44.2451 83.708V83.216C44.3651 83.16 44.5211 83.116 44.7131 83.084C44.9051 83.048 45.0911 83.03 45.2711 83.03C45.7471 83.03 46.0991 83.136 46.3271 83.348C46.5591 83.556 46.6751 83.846 46.6751 84.218V86H46.1051V85.676C45.9811 85.812 45.8331 85.916 45.6611 85.988C45.4931 86.056 45.2871 86.09 45.0431 86.09ZM45.1931 85.628C45.3851 85.628 45.5591 85.59 45.7151 85.514C45.8711 85.438 45.9871 85.332 46.0631 85.196V84.806C45.8031 84.638 45.5131 84.554 45.1931 84.554C44.9611 84.554 44.7871 84.6 44.6711 84.692C44.5591 84.78 44.5031 84.916 44.5031 85.1C44.5031 85.452 44.7331 85.628 45.1931 85.628ZM48.3848 86.09C48.0928 86.09 47.8668 86.006 47.7068 85.838C47.5508 85.67 47.4728 85.432 47.4728 85.124V83.588H47.0348V83.12H47.4728V82.256H48.0848V83.12H48.7928V83.588H48.0848V85.082C48.0848 85.274 48.1208 85.41 48.1928 85.49C48.2688 85.57 48.4048 85.61 48.6008 85.61C48.7168 85.61 48.8328 85.584 48.9488 85.532V86.012C48.7968 86.064 48.6088 86.09 48.3848 86.09ZM49.8729 82.556C49.7729 82.556 49.6889 82.522 49.6209 82.454C49.5529 82.386 49.5189 82.302 49.5189 82.202C49.5189 82.102 49.5529 82.018 49.6209 81.95C49.6889 81.882 49.7729 81.848 49.8729 81.848C49.9769 81.848 50.0629 81.882 50.1309 81.95C50.2029 82.018 50.2389 82.102 50.2389 82.202C50.2389 82.302 50.2029 82.386 50.1309 82.454C50.0629 82.522 49.9769 82.556 49.8729 82.556ZM49.5669 83.12H50.1849V86H49.5669V83.12ZM52.5369 86.09C52.2129 86.09 51.9269 86.03 51.6789 85.91C51.4349 85.786 51.2429 85.61 51.1029 85.382C50.9669 85.15 50.8989 84.878 50.8989 84.566C50.8989 84.258 50.9669 83.988 51.1029 83.756C51.2389 83.524 51.4309 83.346 51.6789 83.222C51.9269 83.094 52.2129 83.03 52.5369 83.03C52.8609 83.03 53.1469 83.094 53.3949 83.222C53.6429 83.346 53.8349 83.524 53.9709 83.756C54.1109 83.988 54.1809 84.258 54.1809 84.566C54.1809 84.878 54.1109 85.15 53.9709 85.382C53.8349 85.61 53.6429 85.786 53.3949 85.91C53.1469 86.03 52.8609 86.09 52.5369 86.09ZM52.5369 85.61C52.8489 85.61 53.0969 85.514 53.2809 85.322C53.4649 85.13 53.5569 84.878 53.5569 84.566C53.5569 84.242 53.4649 83.986 53.2809 83.798C53.0969 83.61 52.8489 83.516 52.5369 83.516C52.2249 83.516 51.9769 83.61 51.7929 83.798C51.6089 83.986 51.5169 84.242 51.5169 84.566C51.5169 84.878 51.6089 85.13 51.7929 85.322C51.9769 85.514 52.2249 85.61 52.5369 85.61ZM54.8392 83.12H55.4272V83.534C55.5632 83.362 55.7292 83.236 55.9252 83.156C56.1252 83.072 56.3332 83.03 56.5492 83.03C56.9332 83.03 57.2192 83.132 57.4072 83.336C57.5952 83.54 57.6892 83.814 57.6892 84.158V86H57.0832V84.218C57.0832 83.75 56.8592 83.516 56.4112 83.516C56.2192 83.516 56.0392 83.562 55.8712 83.654C55.7072 83.742 55.5652 83.878 55.4452 84.062V86H54.8392V83.12Z" fill="#9799A5"/>
<path d="M62.27 85.598L63.176 84.728C63.256 84.648 63.368 84.544 63.512 84.416C63.74 84.208 63.914 84.04 64.034 83.912C64.154 83.784 64.252 83.648 64.328 83.504C64.404 83.356 64.442 83.198 64.442 83.03C64.442 82.782 64.37 82.594 64.226 82.466C64.082 82.334 63.872 82.268 63.596 82.268C63.408 82.268 63.214 82.302 63.014 82.37C62.818 82.438 62.634 82.538 62.462 82.67V82.082C62.798 81.838 63.208 81.716 63.692 81.716C64.124 81.716 64.46 81.832 64.7 82.064C64.94 82.292 65.06 82.604 65.06 83C65.06 83.192 65.018 83.376 64.934 83.552C64.854 83.728 64.74 83.902 64.592 84.074C64.444 84.242 64.244 84.448 63.992 84.692L63.176 85.49H65.216V86H62.27V85.598ZM69.489 86.09C69.201 86.09 68.941 86.028 68.709 85.904C68.481 85.776 68.301 85.598 68.169 85.37C68.041 85.138 67.977 84.87 67.977 84.566C67.977 84.266 68.041 84 68.169 83.768C68.301 83.536 68.481 83.356 68.709 83.228C68.941 83.096 69.201 83.03 69.489 83.03C70.009 83.03 70.403 83.188 70.671 83.504V81.566H71.277V86H70.689V85.58C70.529 85.756 70.353 85.886 70.161 85.97C69.973 86.05 69.749 86.09 69.489 86.09ZM69.627 85.61C69.875 85.61 70.091 85.546 70.275 85.418C70.463 85.286 70.595 85.11 70.671 84.89V84.242C70.603 84.022 70.473 83.846 70.281 83.714C70.093 83.582 69.875 83.516 69.627 83.516C69.431 83.516 69.253 83.56 69.093 83.648C68.937 83.736 68.813 83.86 68.721 84.02C68.633 84.18 68.589 84.362 68.589 84.566C68.589 84.77 68.633 84.952 68.721 85.112C68.813 85.272 68.937 85.396 69.093 85.484C69.253 85.568 69.431 85.61 69.627 85.61ZM73.0021 86.09C72.6541 86.09 72.3741 86.002 72.1621 85.826C71.9541 85.646 71.8501 85.404 71.8501 85.1C71.8501 84.78 71.9501 84.534 72.1501 84.362C72.3541 84.186 72.6421 84.098 73.0141 84.098C73.4101 84.098 73.7461 84.178 74.0221 84.338V84.188C74.0221 83.96 73.9521 83.792 73.8121 83.684C73.6761 83.572 73.4601 83.516 73.1641 83.516C72.9881 83.516 72.8161 83.534 72.6481 83.57C72.4841 83.602 72.3361 83.648 72.2041 83.708V83.216C72.3241 83.16 72.4801 83.116 72.6721 83.084C72.8641 83.048 73.0501 83.03 73.2301 83.03C73.7061 83.03 74.0581 83.136 74.2861 83.348C74.5181 83.556 74.6341 83.846 74.6341 84.218V86H74.0641V85.676C73.9401 85.812 73.7921 85.916 73.6201 85.988C73.4521 86.056 73.2461 86.09 73.0021 86.09ZM73.1521 85.628C73.3441 85.628 73.5181 85.59 73.6741 85.514C73.8301 85.438 73.9461 85.332 74.0221 85.196V84.806C73.7621 84.638 73.4721 84.554 73.1521 84.554C72.9201 84.554 72.7461 84.6 72.6301 84.692C72.5181 84.78 72.4621 84.916 72.4621 85.1C72.4621 85.452 72.6921 85.628 73.1521 85.628ZM75.7286 87.188C75.5126 87.188 75.3326 87.166 75.1886 87.122V86.648C75.2926 86.688 75.4206 86.708 75.5726 86.708C75.7126 86.708 75.8226 86.672 75.9026 86.6C75.9826 86.532 76.0546 86.42 76.1186 86.264L76.2566 85.928L74.9966 83.12H75.6206L76.5806 85.334L77.4746 83.12H78.0986L76.8026 86.324C76.6826 86.624 76.5386 86.842 76.3706 86.978C76.2066 87.118 75.9926 87.188 75.7286 87.188ZM79.4305 86.09C79.2305 86.09 79.0185 86.064 78.7945 86.012C78.5705 85.964 78.3945 85.898 78.2665 85.814V85.298C78.4225 85.39 78.6025 85.466 78.8065 85.526C79.0105 85.582 79.2085 85.61 79.4005 85.61C79.6165 85.61 79.7745 85.584 79.8745 85.532C79.9745 85.48 80.0245 85.396 80.0245 85.28C80.0245 85.192 80.0005 85.122 79.9525 85.07C79.9085 85.014 79.8305 84.964 79.7185 84.92C79.6105 84.876 79.4465 84.824 79.2265 84.764C78.9905 84.696 78.8025 84.628 78.6625 84.56C78.5265 84.488 78.4225 84.398 78.3505 84.29C78.2825 84.182 78.2485 84.042 78.2485 83.87C78.2485 83.594 78.3565 83.386 78.5725 83.246C78.7925 83.102 79.0865 83.03 79.4545 83.03C79.6465 83.03 79.8345 83.048 80.0185 83.084C80.2025 83.12 80.3505 83.17 80.4625 83.234V83.738C80.3465 83.67 80.2025 83.616 80.0305 83.576C79.8625 83.536 79.6905 83.516 79.5145 83.516C79.3025 83.516 79.1405 83.542 79.0285 83.594C78.9165 83.646 78.8605 83.738 78.8605 83.87C78.8605 83.954 78.8845 84.022 78.9325 84.074C78.9805 84.126 79.0565 84.172 79.1605 84.212C79.2685 84.248 79.4385 84.296 79.6705 84.356C80.0345 84.456 80.2865 84.574 80.4265 84.71C80.5705 84.846 80.6425 85.034 80.6425 85.274C80.6425 85.522 80.5405 85.72 80.3365 85.868C80.1325 86.016 79.8305 86.09 79.4305 86.09Z" fill="#F05050"/>
<path d="M15.6259 54.107H16.3399L18.0829 57.922L19.8259 54.107H20.5399V59H19.8469V55.521L18.2579 59H17.9079L16.3119 55.521V59H15.6259V54.107ZM23.2981 59.105C22.6775 59.105 22.1898 58.951 21.8351 58.643C21.4851 58.3303 21.3101 57.8917 21.3101 57.327C21.3101 56.7763 21.4665 56.34 21.7791 56.018C22.0965 55.696 22.5468 55.535 23.1301 55.535C23.5175 55.535 23.8465 55.6097 24.1171 55.759C24.3878 55.9037 24.5908 56.1067 24.7261 56.368C24.8661 56.6247 24.9361 56.9187 24.9361 57.25V57.6H21.9821C22.0055 57.9173 22.1385 58.1553 22.3811 58.314C22.6285 58.468 22.9621 58.545 23.3821 58.545C23.5968 58.545 23.8138 58.5263 24.0331 58.489C24.2525 58.447 24.4461 58.3933 24.6141 58.328V58.895C24.4648 58.9557 24.2665 59.0047 24.0191 59.042C23.7765 59.084 23.5361 59.105 23.2981 59.105ZM24.2711 57.103C24.2618 56.7857 24.1568 56.5407 23.9561 56.368C23.7601 56.1907 23.4801 56.102 23.1161 56.102C22.7615 56.102 22.4861 56.193 22.2901 56.375C22.0941 56.557 21.9915 56.7997 21.9821 57.103H24.2711ZM25.7089 55.64H26.3809V56.123C26.5396 55.927 26.7192 55.78 26.9199 55.682C27.1206 55.584 27.3282 55.535 27.5429 55.535C27.8136 55.535 28.0282 55.5817 28.1869 55.675C28.3456 55.7637 28.4622 55.9013 28.5369 56.088C28.6862 55.906 28.8682 55.7683 29.0829 55.675C29.3022 55.5817 29.5216 55.535 29.7409 55.535C30.1516 55.535 30.4479 55.64 30.6299 55.85C30.8119 56.0553 30.9029 56.361 30.9029 56.767V59H30.2169V56.858C30.2169 56.5827 30.1656 56.389 30.0629 56.277C29.9602 56.1603 29.7852 56.102 29.5379 56.102C29.1832 56.102 28.8939 56.256 28.6699 56.564C28.6792 56.634 28.6839 56.7483 28.6839 56.907V59H27.9979V56.858C27.9979 56.5827 27.9512 56.389 27.8579 56.277C27.7646 56.1603 27.5966 56.102 27.3539 56.102C26.9992 56.102 26.6819 56.3027 26.4019 56.704V59H25.7089V55.64ZM33.8652 59.105C33.5619 59.105 33.2982 59.0583 33.0742 58.965C32.8549 58.867 32.6519 58.7153 32.4652 58.51V59H31.7792V53.827H32.4862V56.088C32.6402 55.906 32.8386 55.7683 33.0812 55.675C33.3239 55.5817 33.5852 55.535 33.8652 55.535C34.2012 55.535 34.5022 55.612 34.7682 55.766C35.0389 55.9153 35.2489 56.1253 35.3982 56.396C35.5522 56.6667 35.6292 56.977 35.6292 57.327C35.6292 57.6817 35.5522 57.9943 35.3982 58.265C35.2489 58.531 35.0389 58.7387 34.7682 58.888C34.5022 59.0327 34.2012 59.105 33.8652 59.105ZM33.7042 58.545C33.9329 58.545 34.1382 58.496 34.3202 58.398C34.5069 58.2953 34.6516 58.1507 34.7542 57.964C34.8616 57.7773 34.9152 57.565 34.9152 57.327C34.9152 57.089 34.8616 56.8767 34.7542 56.69C34.6516 56.5033 34.5069 56.3587 34.3202 56.256C34.1382 56.1533 33.9329 56.102 33.7042 56.102C33.4196 56.102 33.1652 56.179 32.9412 56.333C32.7172 56.487 32.5656 56.6923 32.4862 56.949V57.705C32.5749 57.9617 32.7266 58.167 32.9412 58.321C33.1606 58.4703 33.4149 58.545 33.7042 58.545ZM38.2483 59.105C37.6276 59.105 37.14 58.951 36.7853 58.643C36.4353 58.3303 36.2603 57.8917 36.2603 57.327C36.2603 56.7763 36.4166 56.34 36.7293 56.018C37.0466 55.696 37.497 55.535 38.0803 55.535C38.4676 55.535 38.7966 55.6097 39.0673 55.759C39.338 55.9037 39.541 56.1067 39.6763 56.368C39.8163 56.6247 39.8863 56.9187 39.8863 57.25V57.6H36.9323C36.9556 57.9173 37.0886 58.1553 37.3313 58.314C37.5786 58.468 37.9123 58.545 38.3323 58.545C38.547 58.545 38.764 58.5263 38.9833 58.489C39.2026 58.447 39.3963 58.3933 39.5643 58.328V58.895C39.415 58.9557 39.2166 59.0047 38.9693 59.042C38.7266 59.084 38.4863 59.105 38.2483 59.105ZM39.2213 57.103C39.212 56.7857 39.107 56.5407 38.9063 56.368C38.7103 56.1907 38.4303 56.102 38.0663 56.102C37.7116 56.102 37.4363 56.193 37.2403 56.375C37.0443 56.557 36.9416 56.7997 36.9323 57.103H39.2213ZM40.6591 55.64H41.3451V56.242C41.4851 56.0367 41.6811 55.885 41.9331 55.787C42.1898 55.689 42.4861 55.64 42.8221 55.64V56.193C42.4628 56.193 42.1548 56.2513 41.8981 56.368C41.6414 56.4847 41.4641 56.669 41.3661 56.921V59H40.6591V55.64Z" fill="#484B52"/>
<path d="M30.2408 67.107H30.9968L32.5368 71.027L34.0768 67.107H34.8328L32.8798 72H32.1938L30.2408 67.107ZM35.6034 67.107H36.3244V72H35.6034V67.107ZM37.2372 67.107H39.1202C39.6476 67.107 40.0629 67.24 40.3662 67.506C40.6742 67.7673 40.8282 68.1407 40.8282 68.626C40.8282 69.1207 40.6766 69.4963 40.3732 69.753C40.0699 70.005 39.6522 70.131 39.1202 70.131H37.9512V72H37.2372V67.107ZM39.0432 69.536C39.3699 69.536 39.6289 69.4683 39.8202 69.333C40.0116 69.1977 40.1072 68.962 40.1072 68.626C40.1072 68.29 40.0116 68.0543 39.8202 67.919C39.6289 67.779 39.3699 67.709 39.0432 67.709H37.9512V69.536H39.0432Z" fill="#484B52"/>
<rect x="13" y="13" width="22" height="14" rx="1" fill="#E0E0E7"/>
<path d="M18.348 23.105C18.0633 23.105 17.7903 23.0817 17.529 23.035C17.2723 22.993 17.0483 22.9277 16.857 22.839V22.251C17.291 22.447 17.7577 22.545 18.257 22.545C18.6863 22.545 19.0037 22.468 19.209 22.314C19.419 22.1553 19.524 21.9313 19.524 21.642C19.524 21.3433 19.4167 21.131 19.202 21.005C18.9873 20.8743 18.6607 20.809 18.222 20.809H17.648V20.235H18.208C18.558 20.235 18.8403 20.165 19.055 20.025C19.2697 19.8803 19.377 19.6703 19.377 19.395C19.377 19.1243 19.2883 18.919 19.111 18.779C18.9337 18.639 18.677 18.569 18.341 18.569C18.0797 18.569 17.844 18.5993 17.634 18.66C17.424 18.7207 17.207 18.821 16.983 18.961V18.373C17.3937 18.1257 17.8743 18.002 18.425 18.002C18.971 18.002 19.3863 18.1233 19.671 18.366C19.9557 18.6087 20.098 18.9447 20.098 19.374C20.098 19.6353 20.028 19.864 19.888 20.06C19.748 20.256 19.538 20.4077 19.258 20.515C19.5753 20.5897 19.818 20.725 19.986 20.921C20.1587 21.117 20.245 21.3643 20.245 21.663C20.245 22.1063 20.0933 22.4587 19.79 22.72C19.4867 22.9767 19.006 23.105 18.348 23.105ZM22.9135 23.105C22.4935 23.105 22.1295 23.0023 21.8215 22.797C21.5182 22.5917 21.2849 22.2977 21.1215 21.915C20.9582 21.5323 20.8765 21.0797 20.8765 20.557C20.8765 20.0343 20.9559 19.5817 21.1145 19.199C21.2779 18.8117 21.5112 18.5153 21.8145 18.31C22.1225 18.1047 22.4889 18.002 22.9135 18.002C23.3382 18.002 23.7022 18.1047 24.0055 18.31C24.3135 18.5153 24.5469 18.8117 24.7055 19.199C24.8689 19.5817 24.9505 20.0343 24.9505 20.557C24.9505 21.0797 24.8689 21.5323 24.7055 21.915C24.5422 22.2977 24.3065 22.5917 23.9985 22.797C23.6952 23.0023 23.3335 23.105 22.9135 23.105ZM22.9135 22.475C23.3289 22.475 23.6532 22.3047 23.8865 21.964C24.1245 21.6187 24.2435 21.152 24.2435 20.564C24.2435 19.976 24.1269 19.5093 23.8935 19.164C23.6602 18.8187 23.3335 18.646 22.9135 18.646C22.4935 18.646 22.1669 18.8187 21.9335 19.164C21.7002 19.5093 21.5835 19.976 21.5835 20.564C21.5835 21.152 21.7002 21.6187 21.9335 21.964C22.1715 22.3047 22.4982 22.475 22.9135 22.475ZM26.8816 20.571C26.6483 20.571 26.4336 20.515 26.2376 20.403C26.0416 20.2863 25.8853 20.13 25.7686 19.934C25.6566 19.738 25.6006 19.5233 25.6006 19.29C25.6006 19.0567 25.6566 18.842 25.7686 18.646C25.8853 18.4453 26.0416 18.289 26.2376 18.177C26.4336 18.0603 26.6483 18.002 26.8816 18.002C27.115 18.002 27.3296 18.0603 27.5256 18.177C27.7263 18.289 27.8826 18.4453 27.9946 18.646C28.1113 18.842 28.1696 19.0567 28.1696 19.29C28.1696 19.5233 28.1113 19.738 27.9946 19.934C27.8826 20.13 27.7263 20.2863 27.5256 20.403C27.3296 20.515 27.115 20.571 26.8816 20.571ZM29.3806 18.107H30.0736L27.3646 23H26.6716L29.3806 18.107ZM26.8816 20.053C27.0963 20.053 27.2736 19.9807 27.4136 19.836C27.5583 19.6913 27.6306 19.514 27.6306 19.304C27.6306 19.0893 27.5583 18.9097 27.4136 18.765C27.2736 18.6203 27.0963 18.548 26.8816 18.548C26.667 18.548 26.4873 18.6203 26.3426 18.765C26.2026 18.9097 26.1326 19.0893 26.1326 19.304C26.1326 19.514 26.2026 19.6913 26.3426 19.836C26.4873 19.9807 26.667 20.053 26.8816 20.053ZM29.8566 23.105C29.6233 23.105 29.4086 23.049 29.2126 22.937C29.0166 22.8203 28.8603 22.664 28.7436 22.468C28.6316 22.272 28.5756 22.0573 28.5756 21.824C28.5756 21.5907 28.6316 21.376 28.7436 21.18C28.8603 20.9793 29.0166 20.823 29.2126 20.711C29.4086 20.5943 29.6233 20.536 29.8566 20.536C30.09 20.536 30.3046 20.5943 30.5006 20.711C30.7013 20.823 30.8576 20.9793 30.9696 21.18C31.0863 21.376 31.1446 21.5907 31.1446 21.824C31.1446 22.0573 31.0863 22.272 30.9696 22.468C30.8576 22.664 30.7013 22.8203 30.5006 22.937C30.3046 23.049 30.09 23.105 29.8566 23.105ZM29.8496 22.587C30.0643 22.587 30.244 22.5147 30.3886 22.37C30.5333 22.2253 30.6056 22.048 30.6056 21.838C30.6056 21.6233 30.5333 21.4437 30.3886 21.299C30.244 21.1543 30.0643 21.082 29.8496 21.082C29.6396 21.082 29.4623 21.1543 29.3176 21.299C29.173 21.4437 29.1006 21.6233 29.1006 21.838C29.1006 22.048 29.173 22.2253 29.3176 22.37C29.4623 22.5147 29.6396 22.587 29.8496 22.587Z" fill="#9799A5"/>
<rect x="37" y="13" width="22" height="14" rx="1" fill="#71747D"/>
<path d="M42.2357 23.105C41.979 23.105 41.7293 23.077 41.4867 23.021C41.244 22.9697 41.0387 22.8973 40.8707 22.804V22.167C41.062 22.2837 41.279 22.3747 41.5217 22.44C41.7643 22.5007 41.9953 22.531 42.2147 22.531C42.6393 22.531 42.9613 22.4423 43.1807 22.265C43.4 22.083 43.5097 21.817 43.5097 21.467C43.5097 21.1357 43.407 20.8837 43.2017 20.711C43.001 20.5337 42.7 20.445 42.2987 20.445C42.1307 20.445 41.9533 20.4613 41.7667 20.494C41.5847 20.5267 41.4213 20.571 41.2767 20.627L40.9617 20.445L41.1437 18.107H43.8807V18.709H41.7947L41.6897 19.969C41.979 19.9083 42.273 19.878 42.5717 19.878C43.0897 19.878 43.4957 20.0227 43.7897 20.312C44.0837 20.6013 44.2307 20.9863 44.2307 21.467C44.2307 21.9943 44.065 22.4003 43.7337 22.685C43.4023 22.965 42.903 23.105 42.2357 23.105ZM46.8999 23.105C46.4799 23.105 46.1159 23.0023 45.8079 22.797C45.5045 22.5917 45.2712 22.2977 45.1079 21.915C44.9445 21.5323 44.8629 21.0797 44.8629 20.557C44.8629 20.0343 44.9422 19.5817 45.1009 19.199C45.2642 18.8117 45.4975 18.5153 45.8009 18.31C46.1089 18.1047 46.4752 18.002 46.8999 18.002C47.3245 18.002 47.6885 18.1047 47.9919 18.31C48.2999 18.5153 48.5332 18.8117 48.6919 19.199C48.8552 19.5817 48.9369 20.0343 48.9369 20.557C48.9369 21.0797 48.8552 21.5323 48.6919 21.915C48.5285 22.2977 48.2929 22.5917 47.9849 22.797C47.6815 23.0023 47.3199 23.105 46.8999 23.105ZM46.8999 22.475C47.3152 22.475 47.6395 22.3047 47.8729 21.964C48.1109 21.6187 48.2299 21.152 48.2299 20.564C48.2299 19.976 48.1132 19.5093 47.8799 19.164C47.6465 18.8187 47.3199 18.646 46.8999 18.646C46.4799 18.646 46.1532 18.8187 45.9199 19.164C45.6865 19.5093 45.5699 19.976 45.5699 20.564C45.5699 21.152 45.6865 21.6187 45.9199 21.964C46.1579 22.3047 46.4845 22.475 46.8999 22.475ZM50.868 20.571C50.6346 20.571 50.42 20.515 50.224 20.403C50.028 20.2863 49.8716 20.13 49.755 19.934C49.643 19.738 49.587 19.5233 49.587 19.29C49.587 19.0567 49.643 18.842 49.755 18.646C49.8716 18.4453 50.028 18.289 50.224 18.177C50.42 18.0603 50.6346 18.002 50.868 18.002C51.1013 18.002 51.316 18.0603 51.512 18.177C51.7126 18.289 51.869 18.4453 51.981 18.646C52.0976 18.842 52.156 19.0567 52.156 19.29C52.156 19.5233 52.0976 19.738 51.981 19.934C51.869 20.13 51.7126 20.2863 51.512 20.403C51.316 20.515 51.1013 20.571 50.868 20.571ZM53.367 18.107H54.06L51.351 23H50.658L53.367 18.107ZM50.868 20.053C51.0826 20.053 51.26 19.9807 51.4 19.836C51.5446 19.6913 51.617 19.514 51.617 19.304C51.617 19.0893 51.5446 18.9097 51.4 18.765C51.26 18.6203 51.0826 18.548 50.868 18.548C50.6533 18.548 50.4736 18.6203 50.329 18.765C50.189 18.9097 50.119 19.0893 50.119 19.304C50.119 19.514 50.189 19.6913 50.329 19.836C50.4736 19.9807 50.6533 20.053 50.868 20.053ZM53.843 23.105C53.6096 23.105 53.395 23.049 53.199 22.937C53.003 22.8203 52.8466 22.664 52.73 22.468C52.618 22.272 52.562 22.0573 52.562 21.824C52.562 21.5907 52.618 21.376 52.73 21.18C52.8466 20.9793 53.003 20.823 53.199 20.711C53.395 20.5943 53.6096 20.536 53.843 20.536C54.0763 20.536 54.291 20.5943 54.487 20.711C54.6876 20.823 54.844 20.9793 54.956 21.18C55.0726 21.376 55.131 21.5907 55.131 21.824C55.131 22.0573 55.0726 22.272 54.956 22.468C54.844 22.664 54.6876 22.8203 54.487 22.937C54.291 23.049 54.0763 23.105 53.843 23.105ZM53.836 22.587C54.0506 22.587 54.2303 22.5147 54.375 22.37C54.5196 22.2253 54.592 22.048 54.592 21.838C54.592 21.6233 54.5196 21.4437 54.375 21.299C54.2303 21.1543 54.0506 21.082 53.836 21.082C53.626 21.082 53.4486 21.1543 53.304 21.299C53.1593 21.4437 53.087 21.6233 53.087 21.838C53.087 22.048 53.1593 22.2253 53.304 22.37C53.4486 22.5147 53.626 22.587 53.836 22.587Z" fill="#E0E0E7"/>
<rect x="61" y="13" width="22" height="14" rx="1" fill="#484B52"/>
<path d="M67.4865 18.709H64.8895V18.107H68.2145V18.632L66.2475 23H65.5475L67.4865 18.709ZM70.811 23.105C70.391 23.105 70.027 23.0023 69.719 22.797C69.4157 22.5917 69.1823 22.2977 69.019 21.915C68.8557 21.5323 68.774 21.0797 68.774 20.557C68.774 20.0343 68.8533 19.5817 69.012 19.199C69.1753 18.8117 69.4087 18.5153 69.712 18.31C70.02 18.1047 70.3863 18.002 70.811 18.002C71.2357 18.002 71.5997 18.1047 71.903 18.31C72.211 18.5153 72.4443 18.8117 72.603 19.199C72.7663 19.5817 72.848 20.0343 72.848 20.557C72.848 21.0797 72.7663 21.5323 72.603 21.915C72.4397 22.2977 72.204 22.5917 71.896 22.797C71.5927 23.0023 71.231 23.105 70.811 23.105ZM70.811 22.475C71.2263 22.475 71.5507 22.3047 71.784 21.964C72.022 21.6187 72.141 21.152 72.141 20.564C72.141 19.976 72.0243 19.5093 71.791 19.164C71.5577 18.8187 71.231 18.646 70.811 18.646C70.391 18.646 70.0643 18.8187 69.831 19.164C69.5977 19.5093 69.481 19.976 69.481 20.564C69.481 21.152 69.5977 21.6187 69.831 21.964C70.069 22.3047 70.3957 22.475 70.811 22.475ZM74.7791 20.571C74.5458 20.571 74.3311 20.515 74.1351 20.403C73.9391 20.2863 73.7828 20.13 73.6661 19.934C73.5541 19.738 73.4981 19.5233 73.4981 19.29C73.4981 19.0567 73.5541 18.842 73.6661 18.646C73.7828 18.4453 73.9391 18.289 74.1351 18.177C74.3311 18.0603 74.5458 18.002 74.7791 18.002C75.0124 18.002 75.2271 18.0603 75.4231 18.177C75.6238 18.289 75.7801 18.4453 75.8921 18.646C76.0088 18.842 76.0671 19.0567 76.0671 19.29C76.0671 19.5233 76.0088 19.738 75.8921 19.934C75.7801 20.13 75.6238 20.2863 75.4231 20.403C75.2271 20.515 75.0124 20.571 74.7791 20.571ZM77.2781 18.107H77.9711L75.2621 23H74.5691L77.2781 18.107ZM74.7791 20.053C74.9938 20.053 75.1711 19.9807 75.3111 19.836C75.4558 19.6913 75.5281 19.514 75.5281 19.304C75.5281 19.0893 75.4558 18.9097 75.3111 18.765C75.1711 18.6203 74.9938 18.548 74.7791 18.548C74.5644 18.548 74.3848 18.6203 74.2401 18.765C74.1001 18.9097 74.0301 19.0893 74.0301 19.304C74.0301 19.514 74.1001 19.6913 74.2401 19.836C74.3848 19.9807 74.5644 20.053 74.7791 20.053ZM77.7541 23.105C77.5208 23.105 77.3061 23.049 77.1101 22.937C76.9141 22.8203 76.7578 22.664 76.6411 22.468C76.5291 22.272 76.4731 22.0573 76.4731 21.824C76.4731 21.5907 76.5291 21.376 76.6411 21.18C76.7578 20.9793 76.9141 20.823 77.1101 20.711C77.3061 20.5943 77.5208 20.536 77.7541 20.536C77.9874 20.536 78.2021 20.5943 78.3981 20.711C78.5988 20.823 78.7551 20.9793 78.8671 21.18C78.9838 21.376 79.0421 21.5907 79.0421 21.824C79.0421 22.0573 78.9838 22.272 78.8671 22.468C78.7551 22.664 78.5988 22.8203 78.3981 22.937C78.2021 23.049 77.9874 23.105 77.7541 23.105ZM77.7471 22.587C77.9618 22.587 78.1414 22.5147 78.2861 22.37C78.4308 22.2253 78.5031 22.048 78.5031 21.838C78.5031 21.6233 78.4308 21.4437 78.2861 21.299C78.1414 21.1543 77.9618 21.082 77.7471 21.082C77.5371 21.082 77.3598 21.1543 77.2151 21.299C77.0704 21.4437 76.9981 21.6233 76.9981 21.838C76.9981 22.048 77.0704 22.2253 77.2151 22.37C77.3598 22.5147 77.5371 22.587 77.7471 22.587Z" fill="white"/>
<defs>
<filter id="filter0_d_7427_137934" x="0" y="0" width="141" height="102" filterUnits="userSpaceOnUse" color-interpolation-filters="sRGB">
<feFlood flood-opacity="0" result="BackgroundImageFix"/>
<feColorMatrix in="SourceAlpha" type="matrix" values="0 0 0 0 0 0 0 0 0 0 0 0 0 0 0 0 0 0 127 0" result="hardAlpha"/>
<feOffset/>
<feGaussianBlur stdDeviation="2"/>
<feColorMatrix type="matrix" values="0 0 0 0 0 0 0 0 0 0 0 0 0 0 0 0 0 0 0.1 0"/>
<feBlend mode="normal" in2="BackgroundImageFix" result="effect1_dropShadow_7427_137934"/>
<feBlend mode="normal" in="SourceGraphic" in2="effect1_dropShadow_7427_137934" result="shape"/>
</filter>
</defs>
</svg>
