<svg width="93" height="70" viewBox="0 0 93 70" fill="none" xmlns="http://www.w3.org/2000/svg">
<rect width="86" height="62" rx="4" fill="#F8F8FB"/>
<rect x="5" y="16" width="77" height="30" rx="4" fill="#606367"/>
<path d="M19.78 26.612H25.312V27.644H21.004V30.32H24.22V31.292H21.004V35H19.78V26.612ZM27.2581 35.18C26.5621 35.18 26.0021 35.004 25.5781 34.652C25.1621 34.292 24.9541 33.808 24.9541 33.2C24.9541 32.56 25.1541 32.068 25.5541 31.724C25.9621 31.372 26.5381 31.196 27.2821 31.196C28.0741 31.196 28.7461 31.356 29.2981 31.676V31.376C29.2981 30.92 29.1581 30.584 28.8781 30.368C28.6061 30.144 28.1741 30.032 27.5821 30.032C27.2301 30.032 26.8861 30.068 26.5501 30.14C26.2221 30.204 25.9261 30.296 25.6621 30.416V29.432C25.9021 29.32 26.2141 29.232 26.5981 29.168C26.9821 29.096 27.3541 29.06 27.7141 29.06C28.6661 29.06 29.3701 29.272 29.8261 29.696C30.2901 30.112 30.5221 30.692 30.5221 31.436V35H29.3821V34.352C29.1341 34.624 28.8381 34.832 28.4941 34.976C28.1581 35.112 27.7461 35.18 27.2581 35.18ZM27.5581 34.256C27.9421 34.256 28.2901 34.18 28.6021 34.028C28.9141 33.876 29.1461 33.664 29.2981 33.392V32.612C28.7781 32.276 28.1981 32.108 27.5581 32.108C27.0941 32.108 26.7461 32.2 26.5141 32.384C26.2901 32.56 26.1781 32.832 26.1781 33.2C26.1781 33.904 26.6381 34.256 27.5581 34.256ZM31.247 29.24H32.531L34.223 33.38L35.915 29.24H37.199L34.751 35H33.695L31.247 29.24ZM40.7691 35.18C40.1211 35.18 39.5491 35.06 39.0531 34.82C38.5651 34.572 38.1811 34.22 37.9011 33.764C37.6291 33.3 37.4931 32.756 37.4931 32.132C37.4931 31.516 37.6291 30.976 37.9011 30.512C38.1731 30.048 38.5571 29.692 39.0531 29.444C39.5491 29.188 40.1211 29.06 40.7691 29.06C41.4171 29.06 41.9891 29.188 42.4851 29.444C42.9811 29.692 43.3651 30.048 43.6371 30.512C43.9171 30.976 44.0571 31.516 44.0571 32.132C44.0571 32.756 43.9171 33.3 43.6371 33.764C43.3651 34.22 42.9811 34.572 42.4851 34.82C41.9891 35.06 41.4171 35.18 40.7691 35.18ZM40.7691 34.22C41.3931 34.22 41.8891 34.028 42.2571 33.644C42.6251 33.26 42.8091 32.756 42.8091 32.132C42.8091 31.484 42.6251 30.972 42.2571 30.596C41.8891 30.22 41.3931 30.032 40.7691 30.032C40.1451 30.032 39.6491 30.22 39.2811 30.596C38.9131 30.972 38.7291 31.484 38.7291 32.132C38.7291 32.756 38.9131 33.26 39.2811 33.644C39.6491 34.028 40.1451 34.22 40.7691 34.22ZM45.3738 29.24H46.5498V30.272C46.7898 29.92 47.1258 29.66 47.5578 29.492C47.9978 29.324 48.5058 29.24 49.0818 29.24V30.188C48.4658 30.188 47.9378 30.288 47.4978 30.488C47.0578 30.688 46.7538 31.004 46.5858 31.436V35H45.3738V29.24ZM50.8747 28.112C50.6747 28.112 50.5067 28.044 50.3707 27.908C50.2347 27.772 50.1667 27.604 50.1667 27.404C50.1667 27.204 50.2347 27.036 50.3707 26.9C50.5067 26.764 50.6747 26.696 50.8747 26.696C51.0827 26.696 51.2547 26.764 51.3907 26.9C51.5347 27.036 51.6067 27.204 51.6067 27.404C51.6067 27.604 51.5347 27.772 51.3907 27.908C51.2547 28.044 51.0827 28.112 50.8747 28.112ZM50.2627 29.24H51.4987V35H50.2627V29.24ZM55.3867 35.18C54.8027 35.18 54.3507 35.012 54.0307 34.676C53.7187 34.34 53.5627 33.864 53.5627 33.248V30.176H52.6867V29.24H53.5627V27.512H54.7867V29.24H56.2027V30.176H54.7867V33.164C54.7867 33.548 54.8587 33.82 55.0027 33.98C55.1547 34.14 55.4267 34.22 55.8187 34.22C56.0507 34.22 56.2827 34.168 56.5147 34.064V35.024C56.2107 35.128 55.8347 35.18 55.3867 35.18ZM60.823 35.18C59.759 35.18 58.923 34.916 58.315 34.388C57.715 33.852 57.415 33.1 57.415 32.132C57.415 31.188 57.683 30.44 58.219 29.888C58.763 29.336 59.535 29.06 60.535 29.06C61.199 29.06 61.763 29.188 62.227 29.444C62.691 29.692 63.039 30.04 63.271 30.488C63.511 30.928 63.631 31.432 63.631 32V32.6H58.567C58.607 33.144 58.835 33.552 59.251 33.824C59.675 34.088 60.247 34.22 60.967 34.22C61.335 34.22 61.707 34.188 62.083 34.124C62.459 34.052 62.791 33.96 63.079 33.848V34.82C62.823 34.924 62.483 35.008 62.059 35.072C61.643 35.144 61.231 35.18 60.823 35.18ZM62.491 31.748C62.475 31.204 62.295 30.784 61.951 30.488C61.615 30.184 61.135 30.032 60.511 30.032C59.903 30.032 59.431 30.188 59.095 30.5C58.759 30.812 58.583 31.228 58.567 31.748H62.491Z" fill="white"/>
<path d="M1 4C1 2.34315 2.34315 1 4 1H82C83.6569 1 85 2.34315 85 4V58C85 59.6569 83.6569 61 82 61H4C2.34315 61 1 59.6569 1 58V4Z" fill="#2EC639" fill-opacity="0.2" stroke="#2EC639" stroke-width="2"/>
<g filter="url(#filter0_d_211_10677)">
<rect x="57" y="33" width="22" height="22" rx="11" fill="white"/>
</g>
<path d="M62.8667 43.9707L67.0787 47.6667L73.1334 41.0667" stroke="#2EC639" stroke-width="2" stroke-linecap="round" stroke-linejoin="round"/>
<defs>
<filter id="filter0_d_211_10677" x="47" y="24" width="46" height="46" filterUnits="userSpaceOnUse" color-interpolation-filters="sRGB">
<feFlood flood-opacity="0" result="BackgroundImageFix"/>
<feColorMatrix in="SourceAlpha" type="matrix" values="0 0 0 0 0 0 0 0 0 0 0 0 0 0 0 0 0 0 127 0" result="hardAlpha"/>
<feOffset dx="2" dy="3"/>
<feGaussianBlur stdDeviation="6"/>
<feColorMatrix type="matrix" values="0 0 0 0 0.180392 0 0 0 0 0.776471 0 0 0 0 0.223529 0 0 0 0.35 0"/>
<feBlend mode="normal" in2="BackgroundImageFix" result="effect1_dropShadow_211_10677"/>
<feBlend mode="normal" in="SourceGraphic" in2="effect1_dropShadow_211_10677" result="shape"/>
</filter>
</defs>
</svg>
