<svg width="86" height="62" viewBox="0 0 86 62" fill="none" xmlns="http://www.w3.org/2000/svg">
<rect width="86" height="62" rx="4" fill="#F8F8FB"/>
<path fill-rule="evenodd" clip-rule="evenodd" d="M38.1126 20.7213H49.158C49.1944 20.4177 49.2134 20.1058 49.2134 19.7869C49.2134 16.02 46.5718 13.2459 43.6353 13.2459C40.6988 13.2459 38.0572 16.02 38.0572 19.7869C38.0572 20.1058 38.0762 20.4177 38.1126 20.7213ZM36.8662 20.7213C36.8342 20.4149 36.8177 20.1031 36.8177 19.7869C36.8177 15.4863 39.87 12 43.6353 12C47.4006 12 50.453 15.4863 50.453 19.7869C50.453 20.1031 50.4364 20.4149 50.4044 20.7213H53.2351C54.5531 20.7213 55.6407 21.7579 55.7107 23.0808L56.9964 47.3758C57.0719 48.802 55.9417 50 54.5208 50H32.4792C31.0583 50 29.9281 48.802 30.0036 47.3758L31.2893 23.0808C31.3593 21.7579 32.4469 20.7213 33.7649 20.7213H36.8662ZM39.5431 39.1457L41.1942 37.6357L41.9082 36.9928C42.4932 36.4745 42.9395 36.0609 43.2469 35.7519C43.5642 35.4429 43.8221 35.1289 44.0204 34.81C44.2286 34.491 44.3328 34.177 44.3328 33.8681C44.3328 32.9411 43.8121 32.4776 42.7709 32.4776C42.2652 32.4776 41.7644 32.5673 41.2685 32.7468C40.7826 32.9262 40.3314 33.1753 39.9149 33.4943V30.9676C40.3612 30.6586 40.8818 30.4194 41.4768 30.25C42.0718 30.0706 42.7064 29.9809 43.3808 29.9809C44.1543 29.9809 44.8236 30.1254 45.3889 30.4144C45.9541 30.7035 46.3855 31.1022 46.683 31.6105C46.9805 32.1188 47.1292 32.6919 47.1292 33.3298C47.1292 34.0973 46.9507 34.7701 46.5937 35.3482C46.2467 35.9163 45.6814 36.5592 44.898 37.2769L43.5741 38.4879H47.4565V40.6557H39.5431V39.1457Z" fill="#606367"/>
<rect x="37" y="27" width="12" height="16" fill="#606367"/>
</svg>
