<svg width="86" height="62" viewBox="0 0 86 62" fill="none" xmlns="http://www.w3.org/2000/svg">
<rect width="86" height="62" rx="4" fill="#F8F8FB"/>
<rect x="28" y="16" width="30" height="30" rx="4" fill="#606367"/>
<path fill-rule="evenodd" clip-rule="evenodd" d="M36.6352 25C36.2844 25 36 25.2821 36 25.63C36 25.9779 36.2844 26.26 36.6352 26.26H38.4763L38.7741 27.3673C38.7816 27.3955 38.791 27.4227 38.8021 27.4489L39.426 33.1752C39.4725 33.6018 39.8355 33.925 40.2681 33.925H48.0904C48.4939 33.925 48.8414 33.6427 48.9208 33.2503L49.9832 28.0003C50.0884 27.4803 49.6874 26.995 49.1528 26.995H39.9888L39.62 25.6236C39.5212 25.2559 39.1854 25 38.8017 25H36.6352ZM42.1405 37.6C42.959 37.6 43.6226 36.9419 43.6226 36.13C43.6226 35.3181 42.959 34.66 42.1405 34.66C41.3219 34.66 40.6583 35.3181 40.6583 36.13C40.6583 36.9419 41.3219 37.6 42.1405 37.6ZM48.2809 36.13C48.2809 36.9419 47.6173 37.6 46.7987 37.6C45.9801 37.6 45.3166 36.9419 45.3166 36.13C45.3166 35.3181 45.9801 34.66 46.7987 34.66C47.6173 34.66 48.2809 35.3181 48.2809 36.13ZM42.906 31.631L43.4701 31.1219L43.714 30.9052C43.9139 30.7305 44.0664 30.591 44.1714 30.4869C44.2798 30.3827 44.3679 30.2769 44.4356 30.1694C44.5068 30.0618 44.5424 29.956 44.5424 29.8518C44.5424 29.5394 44.3645 29.3831 44.0088 29.3831C43.836 29.3831 43.6649 29.4134 43.4955 29.4738C43.3295 29.5343 43.1754 29.6183 43.0331 29.7258V28.8741C43.1855 28.7699 43.3634 28.6893 43.5667 28.6322C43.7699 28.5717 43.9867 28.5414 44.2171 28.5414C44.4814 28.5414 44.7101 28.5902 44.9032 28.6876C45.0963 28.785 45.2436 28.9194 45.3453 29.0908C45.4469 29.2622 45.4977 29.4554 45.4977 29.6704C45.4977 29.9291 45.4367 30.1559 45.3148 30.3508C45.1962 30.5423 45.0031 30.759 44.7355 31.001L44.2832 31.4092H45.6095V32.14H42.906V31.631Z" fill="white"/>
<rect x="41.5996" y="27.7998" width="4.9" height="4.9" fill="white"/>
<rect width="86" height="62" rx="4" fill="#F8F8FB"/>
<rect x="28" y="16" width="30" height="30" rx="4" fill="#606367"/>
<path fill-rule="evenodd" clip-rule="evenodd" d="M36.6352 25C36.2844 25 36 25.2821 36 25.63C36 25.9779 36.2844 26.26 36.6352 26.26H38.4763L38.7741 27.3673C38.7816 27.3955 38.791 27.4227 38.8021 27.4489L39.426 33.1752C39.4725 33.6018 39.8355 33.925 40.2681 33.925H48.0904C48.4939 33.925 48.8414 33.6427 48.9208 33.2503L49.9832 28.0003C50.0884 27.4803 49.6874 26.995 49.1528 26.995H39.9888L39.62 25.6236C39.5212 25.2559 39.1854 25 38.8017 25H36.6352ZM42.1405 37.6C42.959 37.6 43.6226 36.9419 43.6226 36.13C43.6226 35.3181 42.959 34.66 42.1405 34.66C41.3219 34.66 40.6583 35.3181 40.6583 36.13C40.6583 36.9419 41.3219 37.6 42.1405 37.6ZM48.2809 36.13C48.2809 36.9419 47.6173 37.6 46.7987 37.6C45.9801 37.6 45.3166 36.9419 45.3166 36.13C45.3166 35.3181 45.9801 34.66 46.7987 34.66C47.6173 34.66 48.2809 35.3181 48.2809 36.13ZM42.906 31.631L43.4701 31.1219L43.714 30.9052C43.9139 30.7305 44.0664 30.591 44.1714 30.4869C44.2798 30.3827 44.3679 30.2769 44.4356 30.1694C44.5068 30.0618 44.5424 29.956 44.5424 29.8518C44.5424 29.5394 44.3645 29.3831 44.0088 29.3831C43.836 29.3831 43.6649 29.4134 43.4955 29.4738C43.3295 29.5343 43.1754 29.6183 43.0331 29.7258V28.8741C43.1855 28.7699 43.3634 28.6893 43.5667 28.6322C43.7699 28.5717 43.9867 28.5414 44.2171 28.5414C44.4814 28.5414 44.7101 28.5902 44.9032 28.6876C45.0963 28.785 45.2436 28.9194 45.3453 29.0908C45.4469 29.2622 45.4977 29.4554 45.4977 29.6704C45.4977 29.9291 45.4367 30.1559 45.3148 30.3508C45.1962 30.5423 45.0031 30.759 44.7355 31.001L44.2832 31.4092H45.6095V32.14H42.906V31.631Z" fill="white"/>
<rect x="41.5996" y="27.7998" width="4.9" height="4.9" fill="white"/>
</svg>
