<svg width="143" height="106" viewBox="0 0 143 106" fill="none" xmlns="http://www.w3.org/2000/svg">
<g filter="url(#filter0_d_210_8391)">
<rect x="4" y="4.19531" width="133" height="94" rx="4" fill="white"/>
</g>
<path d="M46.4497 53.6033H47.2737V59.1953H46.4497V53.6033ZM48.3169 55.3553H49.1009V55.9073C49.2822 55.678 49.5035 55.51 49.7649 55.4033C50.0315 55.2913 50.3089 55.2353 50.5969 55.2353C51.1089 55.2353 51.4902 55.3713 51.7409 55.6433C51.9915 55.9153 52.1169 56.2806 52.1169 56.7393V59.1953H51.3089V56.8193C51.3089 56.1953 51.0102 55.8833 50.4129 55.8833C50.1569 55.8833 49.9169 55.9446 49.6929 56.0673C49.4742 56.1846 49.2849 56.366 49.1249 56.6113V59.1953H48.3169V55.3553ZM52.5944 55.3553H53.4504L54.5784 58.1153L55.7064 55.3553H56.5624L54.9304 59.1953H54.2264L52.5944 55.3553ZM59.2336 59.3153C58.5242 59.3153 57.9669 59.1393 57.5616 58.7873C57.1616 58.43 56.9616 57.9286 56.9616 57.2833C56.9616 56.654 57.1402 56.1553 57.4976 55.7873C57.8602 55.4193 58.3749 55.2353 59.0416 55.2353C59.4842 55.2353 59.8602 55.3206 60.1696 55.4913C60.4789 55.6566 60.7109 55.8886 60.8656 56.1873C61.0256 56.4806 61.1056 56.8166 61.1056 57.1953V57.5953H57.7296C57.7562 57.958 57.9082 58.23 58.1856 58.4113C58.4682 58.5873 58.8496 58.6753 59.3296 58.6753C59.5749 58.6753 59.8229 58.654 60.0736 58.6113C60.3242 58.5633 60.5456 58.502 60.7376 58.4273V59.0753C60.5669 59.1446 60.3402 59.2006 60.0576 59.2433C59.7802 59.2913 59.5056 59.3153 59.2336 59.3153ZM60.3456 57.0273C60.3349 56.6646 60.2149 56.3846 59.9856 56.1873C59.7616 55.9846 59.4416 55.8833 59.0256 55.8833C58.6202 55.8833 58.3056 55.9873 58.0816 56.1953C57.8576 56.4033 57.7402 56.6806 57.7296 57.0273H60.3456ZM61.9888 55.3553H62.7728V55.9073C62.9541 55.678 63.1754 55.51 63.4368 55.4033C63.7034 55.2913 63.9808 55.2353 64.2688 55.2353C64.7808 55.2353 65.1621 55.3713 65.4128 55.6433C65.6634 55.9153 65.7888 56.2806 65.7888 56.7393V59.1953H64.9808V56.8193C64.9808 56.1953 64.6821 55.8833 64.0848 55.8833C63.8288 55.8833 63.5888 55.9446 63.3648 56.0673C63.1461 56.1846 62.9568 56.366 62.7968 56.6113V59.1953H61.9888V55.3553ZM68.2656 59.3153C67.8763 59.3153 67.575 59.2033 67.3616 58.9793C67.1536 58.7553 67.0496 58.438 67.0496 58.0273V55.9793H66.4656V55.3553H67.0496V54.2033H67.8656V55.3553H68.8096V55.9793H67.8656V57.9713C67.8656 58.2273 67.9136 58.4086 68.0096 58.5153C68.111 58.622 68.2923 58.6753 68.5536 58.6753C68.7083 58.6753 68.863 58.6406 69.0176 58.5713V59.2113C68.815 59.2806 68.5643 59.3153 68.2656 59.3153ZM71.7628 59.3153C71.3308 59.3153 70.9494 59.2353 70.6188 59.0753C70.2934 58.91 70.0374 58.6753 69.8508 58.3713C69.6694 58.062 69.5788 57.6993 69.5788 57.2833C69.5788 56.8726 69.6694 56.5126 69.8508 56.2033C70.0321 55.894 70.2881 55.6566 70.6188 55.4913C70.9494 55.3206 71.3308 55.2353 71.7628 55.2353C72.1948 55.2353 72.5761 55.3206 72.9068 55.4913C73.2374 55.6566 73.4934 55.894 73.6748 56.2033C73.8614 56.5126 73.9548 56.8726 73.9548 57.2833C73.9548 57.6993 73.8614 58.062 73.6748 58.3713C73.4934 58.6753 73.2374 58.91 72.9068 59.0753C72.5761 59.2353 72.1948 59.3153 71.7628 59.3153ZM71.7628 58.6753C72.1788 58.6753 72.5094 58.5473 72.7548 58.2913C73.0001 58.0353 73.1228 57.6993 73.1228 57.2833C73.1228 56.8513 73.0001 56.51 72.7548 56.2593C72.5094 56.0086 72.1788 55.8833 71.7628 55.8833C71.3468 55.8833 71.0161 56.0086 70.7708 56.2593C70.5254 56.51 70.4028 56.8513 70.4028 57.2833C70.4028 57.6993 70.5254 58.0353 70.7708 58.2913C71.0161 58.5473 71.3468 58.6753 71.7628 58.6753ZM74.8325 55.3553H75.6165V56.0433C75.7765 55.8086 76.0005 55.6353 76.2885 55.5233C76.5818 55.4113 76.9205 55.3553 77.3045 55.3553V55.9873C76.8938 55.9873 76.5418 56.054 76.2485 56.1873C75.9552 56.3206 75.7525 56.5313 75.6405 56.8193V59.1953H74.8325V55.3553ZM78.7266 60.7793C78.4386 60.7793 78.1986 60.75 78.0066 60.6913V60.0593C78.1453 60.1126 78.316 60.1393 78.5186 60.1393C78.7053 60.1393 78.852 60.0913 78.9586 59.9953C79.0653 59.9046 79.1613 59.7553 79.2466 59.5473L79.4306 59.0993L77.7506 55.3553H78.5826L79.8626 58.3073L81.0546 55.3553H81.8866L80.1586 59.6273C79.9986 60.0273 79.8066 60.318 79.5826 60.4993C79.364 60.686 79.0786 60.7793 78.7266 60.7793ZM85.4069 58.6593L86.6149 57.4993C86.7215 57.3926 86.8709 57.254 87.0629 57.0833C87.3669 56.806 87.5989 56.582 87.7589 56.4113C87.9189 56.2406 88.0495 56.0593 88.1509 55.8673C88.2522 55.67 88.3029 55.4593 88.3029 55.2353C88.3029 54.9046 88.2069 54.654 88.0149 54.4833C87.8229 54.3073 87.5429 54.2193 87.1749 54.2193C86.9242 54.2193 86.6655 54.2646 86.3989 54.3553C86.1375 54.446 85.8922 54.5793 85.6629 54.7553V53.9713C86.1109 53.646 86.6575 53.4833 87.3029 53.4833C87.8789 53.4833 88.3269 53.638 88.6469 53.9473C88.9669 54.2513 89.1269 54.6673 89.1269 55.1953C89.1269 55.4513 89.0709 55.6966 88.9589 55.9313C88.8522 56.166 88.7002 56.398 88.5029 56.6273C88.3055 56.8513 88.0389 57.126 87.7029 57.4513L86.6149 58.5153H89.3349V59.1953H85.4069V58.6593ZM92.3833 59.3153C91.9033 59.3153 91.4873 59.198 91.1353 58.9633C90.7886 58.7286 90.522 58.3926 90.3353 57.9553C90.1486 57.518 90.0553 57.0006 90.0553 56.4033C90.0553 55.806 90.146 55.2886 90.3273 54.8513C90.514 54.4086 90.7806 54.07 91.1273 53.8353C91.4793 53.6006 91.898 53.4833 92.3833 53.4833C92.8686 53.4833 93.2846 53.6006 93.6313 53.8353C93.9833 54.07 94.25 54.4086 94.4313 54.8513C94.618 55.2886 94.7113 55.806 94.7113 56.4033C94.7113 57.0006 94.618 57.518 94.4313 57.9553C94.2446 58.3926 93.9753 58.7286 93.6233 58.9633C93.2766 59.198 92.8633 59.3153 92.3833 59.3153ZM92.3833 58.5953C92.858 58.5953 93.2286 58.4006 93.4953 58.0113C93.7673 57.6166 93.9033 57.0833 93.9033 56.4113C93.9033 55.7393 93.77 55.206 93.5033 54.8113C93.2366 54.4166 92.8633 54.2193 92.3833 54.2193C91.9033 54.2193 91.53 54.4166 91.2633 54.8113C90.9966 55.206 90.8633 55.7393 90.8633 56.4113C90.8633 57.0833 90.9966 57.6166 91.2633 58.0113C91.5353 58.4006 91.9086 58.5953 92.3833 58.5953Z" fill="#9799A5"/>
<path d="M53.2255 48.3453C52.8121 48.3453 52.4021 48.3053 51.9955 48.2253C51.5955 48.152 51.2655 48.052 51.0055 47.9253V46.8353C51.3388 46.9953 51.6888 47.1153 52.0555 47.1953C52.4221 47.2753 52.7821 47.3153 53.1355 47.3153C53.5821 47.3153 53.9221 47.232 54.1555 47.0653C54.3888 46.8986 54.5055 46.6686 54.5055 46.3753C54.5055 46.1686 54.4521 45.9986 54.3455 45.8653C54.2388 45.7253 54.0821 45.6053 53.8755 45.5053C53.6688 45.3986 53.3521 45.262 52.9255 45.0953C52.2721 44.8286 51.7988 44.532 51.5055 44.2053C51.2121 43.8786 51.0655 43.472 51.0655 42.9853C51.0655 42.6053 51.1688 42.2686 51.3755 41.9753C51.5821 41.682 51.8721 41.4553 52.2455 41.2953C52.6188 41.1353 53.0488 41.0553 53.5355 41.0553C53.9355 41.0553 54.2888 41.0886 54.5955 41.1553C54.9088 41.2153 55.2155 41.312 55.5155 41.4453V42.5053C54.9355 42.2253 54.3488 42.0853 53.7555 42.0853C53.3288 42.0853 52.9988 42.1653 52.7655 42.3253C52.5321 42.4786 52.4155 42.6986 52.4155 42.9853C52.4155 43.192 52.4688 43.362 52.5755 43.4953C52.6821 43.622 52.8221 43.732 52.9955 43.8253C53.1755 43.912 53.4955 44.052 53.9555 44.2453C54.4221 44.4386 54.7888 44.6286 55.0555 44.8153C55.3288 45.002 55.5321 45.222 55.6655 45.4753C55.8055 45.722 55.8755 46.0253 55.8755 46.3853C55.8755 47.0053 55.6521 47.4886 55.2055 47.8353C54.7588 48.1753 54.0988 48.3453 53.2255 48.3453ZM59.3428 48.3453C58.7828 48.3453 58.2895 48.2453 57.8628 48.0453C57.4428 47.8386 57.1161 47.5453 56.8828 47.1653C56.6495 46.7786 56.5328 46.322 56.5328 45.7953C56.5328 45.282 56.6461 44.8353 56.8728 44.4553C57.1061 44.0686 57.4361 43.772 57.8628 43.5653C58.2895 43.352 58.7828 43.2453 59.3428 43.2453C59.9028 43.2453 60.3928 43.352 60.8128 43.5653C61.2395 43.772 61.5695 44.0686 61.8028 44.4553C62.0361 44.8353 62.1528 45.282 62.1528 45.7953C62.1528 46.322 62.0361 46.7786 61.8028 47.1653C61.5695 47.5453 61.2395 47.8386 60.8128 48.0453C60.3928 48.2453 59.9028 48.3453 59.3428 48.3453ZM59.3428 47.3553C59.8028 47.3553 60.1695 47.212 60.4428 46.9253C60.7161 46.632 60.8528 46.2553 60.8528 45.7953C60.8528 45.3086 60.7161 44.9286 60.4428 44.6553C60.1761 44.3753 59.8095 44.2353 59.3428 44.2353C58.8761 44.2353 58.5061 44.3753 58.2328 44.6553C57.9661 44.9286 57.8328 45.3086 57.8328 45.7953C57.8328 46.2553 57.9695 46.632 58.2428 46.9253C58.5161 47.212 58.8828 47.3553 59.3428 47.3553ZM63.1488 40.8053H64.4088V48.1953H63.1488V40.8053ZM67.9398 48.3453C67.4531 48.3453 67.0164 48.242 66.6298 48.0353C66.2498 47.822 65.9498 47.5253 65.7298 47.1453C65.5164 46.7586 65.4098 46.312 65.4098 45.8053C65.4098 45.3053 65.5164 44.862 65.7298 44.4753C65.9498 44.0886 66.2498 43.7886 66.6298 43.5753C67.0164 43.3553 67.4531 43.2453 67.9398 43.2453C68.7264 43.2453 69.3464 43.452 69.7998 43.8653V40.8053H71.0598V48.1953H69.8398V47.6353C69.5664 47.8886 69.2831 48.072 68.9898 48.1853C68.6964 48.292 68.3464 48.3453 67.9398 48.3453ZM68.2498 47.3553C68.6098 47.3553 68.9298 47.2586 69.2098 47.0653C69.4898 46.872 69.6864 46.612 69.7998 46.2853V45.3153C69.6931 44.9886 69.4964 44.7286 69.2098 44.5353C68.9298 44.3353 68.6098 44.2353 68.2498 44.2353C67.7964 44.2353 67.4231 44.382 67.1298 44.6753C66.8364 44.9686 66.6898 45.3453 66.6898 45.8053C66.6898 46.2653 66.8364 46.6386 67.1298 46.9253C67.4231 47.212 67.7964 47.3553 68.2498 47.3553ZM75.6637 47.3753L77.0437 46.1053L77.7037 45.5153C78.0703 45.1953 78.347 44.9386 78.5337 44.7453C78.727 44.552 78.8837 44.3453 79.0037 44.1253C79.1237 43.8986 79.1837 43.6553 79.1837 43.3953C79.1837 43.0153 79.0703 42.7253 78.8437 42.5253C78.6237 42.3186 78.307 42.2153 77.8937 42.2153C77.5737 42.2153 77.2403 42.2753 76.8937 42.3953C76.5537 42.5086 76.2437 42.672 75.9637 42.8853V41.6753C76.5437 41.262 77.257 41.0553 78.1037 41.0553C78.8503 41.0553 79.4303 41.2553 79.8437 41.6553C80.257 42.0553 80.4637 42.602 80.4637 43.2953C80.4637 43.622 80.4003 43.9286 80.2737 44.2153C80.147 44.4953 79.967 44.7686 79.7337 45.0353C79.5003 45.302 79.1837 45.6186 78.7837 45.9853L77.5337 47.1453H80.7137V48.1953H75.6637V47.3753ZM84.5233 48.3453C83.9099 48.3453 83.3766 48.1986 82.9233 47.9053C82.4699 47.612 82.1199 47.192 81.8733 46.6453C81.6333 46.0986 81.5133 45.452 81.5133 44.7053C81.5133 43.9586 81.6333 43.312 81.8733 42.7653C82.1133 42.212 82.4566 41.7886 82.9033 41.4953C83.3566 41.202 83.8966 41.0553 84.5233 41.0553C85.1433 41.0553 85.6799 41.202 86.1333 41.4953C86.5866 41.7886 86.9333 42.212 87.1733 42.7653C87.4133 43.312 87.5333 43.9586 87.5333 44.7053C87.5333 45.452 87.4133 46.0986 87.1733 46.6453C86.9333 47.192 86.5866 47.612 86.1333 47.9053C85.6799 48.1986 85.1433 48.3453 84.5233 48.3453ZM84.5233 47.2053C85.0766 47.2053 85.5033 46.9853 85.8033 46.5453C86.1099 46.0986 86.2633 45.4886 86.2633 44.7153C86.2633 43.942 86.1133 43.332 85.8133 42.8853C85.5133 42.4386 85.0866 42.2153 84.5333 42.2153C83.9799 42.2153 83.5499 42.4386 83.2433 42.8853C82.9433 43.332 82.7933 43.942 82.7933 44.7153C82.7933 45.4886 82.9433 46.0986 83.2433 46.5453C83.5499 46.9853 83.9766 47.2053 84.5233 47.2053Z" fill="#484B52"/>
<path d="M8 5H133C134.657 5 136 6.34315 136 8V94C136 95.6569 134.657 97 133 97H8C6.34315 97 5 95.6569 5 94V8C5 6.34315 6.34315 5 8 5Z" fill="#2EC639" fill-opacity="0.2" stroke="#2EC639" stroke-width="2"/>
<g filter="url(#filter1_d_210_8391)">
<rect x="107" y="69" width="22" height="22" rx="11" fill="white"/>
</g>
<path d="M112.867 79.9707L117.079 83.6667L123.133 77.0667" stroke="#2EC639" stroke-width="2" stroke-linecap="round" stroke-linejoin="round"/>
<defs>
<filter id="filter0_d_210_8391" x="0" y="0.195312" width="141" height="102" filterUnits="userSpaceOnUse" color-interpolation-filters="sRGB">
<feFlood flood-opacity="0" result="BackgroundImageFix"/>
<feColorMatrix in="SourceAlpha" type="matrix" values="0 0 0 0 0 0 0 0 0 0 0 0 0 0 0 0 0 0 127 0" result="hardAlpha"/>
<feOffset/>
<feGaussianBlur stdDeviation="2"/>
<feColorMatrix type="matrix" values="0 0 0 0 0 0 0 0 0 0 0 0 0 0 0 0 0 0 0.1 0"/>
<feBlend mode="normal" in2="BackgroundImageFix" result="effect1_dropShadow_210_8391"/>
<feBlend mode="normal" in="SourceGraphic" in2="effect1_dropShadow_210_8391" result="shape"/>
</filter>
<filter id="filter1_d_210_8391" x="97" y="60" width="46" height="46" filterUnits="userSpaceOnUse" color-interpolation-filters="sRGB">
<feFlood flood-opacity="0" result="BackgroundImageFix"/>
<feColorMatrix in="SourceAlpha" type="matrix" values="0 0 0 0 0 0 0 0 0 0 0 0 0 0 0 0 0 0 127 0" result="hardAlpha"/>
<feOffset dx="2" dy="3"/>
<feGaussianBlur stdDeviation="6"/>
<feColorMatrix type="matrix" values="0 0 0 0 0.180392 0 0 0 0 0.776471 0 0 0 0 0.223529 0 0 0 0.35 0"/>
<feBlend mode="normal" in2="BackgroundImageFix" result="effect1_dropShadow_210_8391"/>
<feBlend mode="normal" in="SourceGraphic" in2="effect1_dropShadow_210_8391" result="shape"/>
</filter>
</defs>
</svg>