<svg width="141" height="103" viewBox="0 0 141 103" fill="none" xmlns="http://www.w3.org/2000/svg">
<g filter="url(#filter0_d_210_8388)">
<rect x="4" y="4.09766" width="133" height="94" rx="4" fill="white"/>
</g>
<path d="M46.4497 53.5057H47.2737V59.0977H46.4497V53.5057ZM48.3169 55.2577H49.1009V55.8097C49.2822 55.5803 49.5035 55.4123 49.7649 55.3057C50.0315 55.1937 50.3089 55.1377 50.5969 55.1377C51.1089 55.1377 51.4902 55.2737 51.7409 55.5457C51.9915 55.8177 52.1169 56.183 52.1169 56.6417V59.0977H51.3089V56.7217C51.3089 56.0977 51.0102 55.7857 50.4129 55.7857C50.1569 55.7857 49.9169 55.847 49.6929 55.9697C49.4742 56.087 49.2849 56.2683 49.1249 56.5137V59.0977H48.3169V55.2577ZM52.5944 55.2577H53.4504L54.5784 58.0177L55.7064 55.2577H56.5624L54.9304 59.0977H54.2264L52.5944 55.2577ZM59.2336 59.2177C58.5242 59.2177 57.9669 59.0417 57.5616 58.6897C57.1616 58.3323 56.9616 57.831 56.9616 57.1857C56.9616 56.5563 57.1402 56.0577 57.4976 55.6897C57.8602 55.3217 58.3749 55.1377 59.0416 55.1377C59.4842 55.1377 59.8602 55.223 60.1696 55.3937C60.4789 55.559 60.7109 55.791 60.8656 56.0897C61.0256 56.383 61.1056 56.719 61.1056 57.0977V57.4977H57.7296C57.7562 57.8603 57.9082 58.1323 58.1856 58.3137C58.4682 58.4897 58.8496 58.5777 59.3296 58.5777C59.5749 58.5777 59.8229 58.5563 60.0736 58.5137C60.3242 58.4657 60.5456 58.4043 60.7376 58.3297V58.9777C60.5669 59.047 60.3402 59.103 60.0576 59.1457C59.7802 59.1937 59.5056 59.2177 59.2336 59.2177ZM60.3456 56.9297C60.3349 56.567 60.2149 56.287 59.9856 56.0897C59.7616 55.887 59.4416 55.7857 59.0256 55.7857C58.6202 55.7857 58.3056 55.8897 58.0816 56.0977C57.8576 56.3057 57.7402 56.583 57.7296 56.9297H60.3456ZM61.9888 55.2577H62.7728V55.8097C62.9541 55.5803 63.1754 55.4123 63.4368 55.3057C63.7034 55.1937 63.9808 55.1377 64.2688 55.1377C64.7808 55.1377 65.1621 55.2737 65.4128 55.5457C65.6634 55.8177 65.7888 56.183 65.7888 56.6417V59.0977H64.9808V56.7217C64.9808 56.0977 64.6821 55.7857 64.0848 55.7857C63.8288 55.7857 63.5888 55.847 63.3648 55.9697C63.1461 56.087 62.9568 56.2683 62.7968 56.5137V59.0977H61.9888V55.2577ZM68.2656 59.2177C67.8763 59.2177 67.575 59.1057 67.3616 58.8817C67.1536 58.6577 67.0496 58.3403 67.0496 57.9297V55.8817H66.4656V55.2577H67.0496V54.1057H67.8656V55.2577H68.8096V55.8817H67.8656V57.8737C67.8656 58.1297 67.9136 58.311 68.0096 58.4177C68.111 58.5243 68.2923 58.5777 68.5536 58.5777C68.7083 58.5777 68.863 58.543 69.0176 58.4737V59.1137C68.815 59.183 68.5643 59.2177 68.2656 59.2177ZM71.7628 59.2177C71.3308 59.2177 70.9494 59.1377 70.6188 58.9777C70.2934 58.8123 70.0374 58.5777 69.8508 58.2737C69.6694 57.9643 69.5788 57.6017 69.5788 57.1857C69.5788 56.775 69.6694 56.415 69.8508 56.1057C70.0321 55.7963 70.2881 55.559 70.6188 55.3937C70.9494 55.223 71.3308 55.1377 71.7628 55.1377C72.1948 55.1377 72.5761 55.223 72.9068 55.3937C73.2374 55.559 73.4934 55.7963 73.6748 56.1057C73.8614 56.415 73.9548 56.775 73.9548 57.1857C73.9548 57.6017 73.8614 57.9643 73.6748 58.2737C73.4934 58.5777 73.2374 58.8123 72.9068 58.9777C72.5761 59.1377 72.1948 59.2177 71.7628 59.2177ZM71.7628 58.5777C72.1788 58.5777 72.5094 58.4497 72.7548 58.1937C73.0001 57.9377 73.1228 57.6017 73.1228 57.1857C73.1228 56.7537 73.0001 56.4123 72.7548 56.1617C72.5094 55.911 72.1788 55.7857 71.7628 55.7857C71.3468 55.7857 71.0161 55.911 70.7708 56.1617C70.5254 56.4123 70.4028 56.7537 70.4028 57.1857C70.4028 57.6017 70.5254 57.9377 70.7708 58.1937C71.0161 58.4497 71.3468 58.5777 71.7628 58.5777ZM74.8325 55.2577H75.6165V55.9457C75.7765 55.711 76.0005 55.5377 76.2885 55.4257C76.5818 55.3137 76.9205 55.2577 77.3045 55.2577V55.8897C76.8938 55.8897 76.5418 55.9563 76.2485 56.0897C75.9552 56.223 75.7525 56.4337 75.6405 56.7217V59.0977H74.8325V55.2577ZM78.7266 60.6817C78.4386 60.6817 78.1986 60.6523 78.0066 60.5937V59.9617C78.1453 60.015 78.316 60.0417 78.5186 60.0417C78.7053 60.0417 78.852 59.9937 78.9586 59.8977C79.0653 59.807 79.1613 59.6577 79.2466 59.4497L79.4306 59.0017L77.7506 55.2577H78.5826L79.8626 58.2097L81.0546 55.2577H81.8866L80.1586 59.5297C79.9986 59.9297 79.8066 60.2203 79.5826 60.4017C79.364 60.5883 79.0786 60.6817 78.7266 60.6817ZM85.4069 58.5617L86.6149 57.4017C86.7215 57.295 86.8709 57.1563 87.0629 56.9857C87.3669 56.7083 87.5989 56.4843 87.7589 56.3137C87.9189 56.143 88.0495 55.9617 88.1509 55.7697C88.2522 55.5723 88.3029 55.3617 88.3029 55.1377C88.3029 54.807 88.2069 54.5563 88.0149 54.3857C87.8229 54.2097 87.5429 54.1217 87.1749 54.1217C86.9242 54.1217 86.6655 54.167 86.3989 54.2577C86.1375 54.3483 85.8922 54.4817 85.6629 54.6577V53.8737C86.1109 53.5483 86.6575 53.3857 87.3029 53.3857C87.8789 53.3857 88.3269 53.5403 88.6469 53.8497C88.9669 54.1537 89.1269 54.5697 89.1269 55.0977C89.1269 55.3537 89.0709 55.599 88.9589 55.8337C88.8522 56.0683 88.7002 56.3003 88.5029 56.5297C88.3055 56.7537 88.0389 57.0283 87.7029 57.3537L86.6149 58.4177H89.3349V59.0977H85.4069V58.5617ZM92.3833 59.2177C91.9033 59.2177 91.4873 59.1003 91.1353 58.8657C90.7886 58.631 90.522 58.295 90.3353 57.8577C90.1486 57.4203 90.0553 56.903 90.0553 56.3057C90.0553 55.7083 90.146 55.191 90.3273 54.7537C90.514 54.311 90.7806 53.9723 91.1273 53.7377C91.4793 53.503 91.898 53.3857 92.3833 53.3857C92.8686 53.3857 93.2846 53.503 93.6313 53.7377C93.9833 53.9723 94.25 54.311 94.4313 54.7537C94.618 55.191 94.7113 55.7083 94.7113 56.3057C94.7113 56.903 94.618 57.4203 94.4313 57.8577C94.2446 58.295 93.9753 58.631 93.6233 58.8657C93.2766 59.1003 92.8633 59.2177 92.3833 59.2177ZM92.3833 58.4977C92.858 58.4977 93.2286 58.303 93.4953 57.9137C93.7673 57.519 93.9033 56.9857 93.9033 56.3137C93.9033 55.6417 93.77 55.1083 93.5033 54.7137C93.2366 54.319 92.8633 54.1217 92.3833 54.1217C91.9033 54.1217 91.53 54.319 91.2633 54.7137C90.9966 55.1083 90.8633 55.6417 90.8633 56.3137C90.8633 56.9857 90.9966 57.519 91.2633 57.9137C91.5353 58.303 91.9086 58.4977 92.3833 58.4977Z" fill="#9799A5"/>
<path d="M53.2255 48.2477C52.8121 48.2477 52.4021 48.2077 51.9955 48.1277C51.5955 48.0543 51.2655 47.9543 51.0055 47.8277V46.7377C51.3388 46.8977 51.6888 47.0177 52.0555 47.0977C52.4221 47.1777 52.7821 47.2177 53.1355 47.2177C53.5821 47.2177 53.9221 47.1343 54.1555 46.9677C54.3888 46.801 54.5055 46.571 54.5055 46.2777C54.5055 46.071 54.4521 45.901 54.3455 45.7677C54.2388 45.6277 54.0821 45.5077 53.8755 45.4077C53.6688 45.301 53.3521 45.1643 52.9255 44.9977C52.2721 44.731 51.7988 44.4343 51.5055 44.1077C51.2121 43.781 51.0655 43.3743 51.0655 42.8877C51.0655 42.5077 51.1688 42.171 51.3755 41.8777C51.5821 41.5843 51.8721 41.3577 52.2455 41.1977C52.6188 41.0377 53.0488 40.9577 53.5355 40.9577C53.9355 40.9577 54.2888 40.991 54.5955 41.0577C54.9088 41.1177 55.2155 41.2143 55.5155 41.3477V42.4077C54.9355 42.1277 54.3488 41.9877 53.7555 41.9877C53.3288 41.9877 52.9988 42.0677 52.7655 42.2277C52.5321 42.381 52.4155 42.601 52.4155 42.8877C52.4155 43.0943 52.4688 43.2643 52.5755 43.3977C52.6821 43.5243 52.8221 43.6343 52.9955 43.7277C53.1755 43.8143 53.4955 43.9543 53.9555 44.1477C54.4221 44.341 54.7888 44.531 55.0555 44.7177C55.3288 44.9043 55.5321 45.1243 55.6655 45.3777C55.8055 45.6243 55.8755 45.9277 55.8755 46.2877C55.8755 46.9077 55.6521 47.391 55.2055 47.7377C54.7588 48.0777 54.0988 48.2477 53.2255 48.2477ZM59.3428 48.2477C58.7828 48.2477 58.2895 48.1477 57.8628 47.9477C57.4428 47.741 57.1161 47.4477 56.8828 47.0677C56.6495 46.681 56.5328 46.2243 56.5328 45.6977C56.5328 45.1843 56.6461 44.7377 56.8728 44.3577C57.1061 43.971 57.4361 43.6743 57.8628 43.4677C58.2895 43.2543 58.7828 43.1477 59.3428 43.1477C59.9028 43.1477 60.3928 43.2543 60.8128 43.4677C61.2395 43.6743 61.5695 43.971 61.8028 44.3577C62.0361 44.7377 62.1528 45.1843 62.1528 45.6977C62.1528 46.2243 62.0361 46.681 61.8028 47.0677C61.5695 47.4477 61.2395 47.741 60.8128 47.9477C60.3928 48.1477 59.9028 48.2477 59.3428 48.2477ZM59.3428 47.2577C59.8028 47.2577 60.1695 47.1143 60.4428 46.8277C60.7161 46.5343 60.8528 46.1577 60.8528 45.6977C60.8528 45.211 60.7161 44.831 60.4428 44.5577C60.1761 44.2777 59.8095 44.1377 59.3428 44.1377C58.8761 44.1377 58.5061 44.2777 58.2328 44.5577C57.9661 44.831 57.8328 45.211 57.8328 45.6977C57.8328 46.1577 57.9695 46.5343 58.2428 46.8277C58.5161 47.1143 58.8828 47.2577 59.3428 47.2577ZM63.1488 40.7077H64.4088V48.0977H63.1488V40.7077ZM67.9398 48.2477C67.4531 48.2477 67.0164 48.1443 66.6298 47.9377C66.2498 47.7243 65.9498 47.4277 65.7298 47.0477C65.5164 46.661 65.4098 46.2143 65.4098 45.7077C65.4098 45.2077 65.5164 44.7643 65.7298 44.3777C65.9498 43.991 66.2498 43.691 66.6298 43.4777C67.0164 43.2577 67.4531 43.1477 67.9398 43.1477C68.7264 43.1477 69.3464 43.3543 69.7998 43.7677V40.7077H71.0598V48.0977H69.8398V47.5377C69.5664 47.791 69.2831 47.9743 68.9898 48.0877C68.6964 48.1943 68.3464 48.2477 67.9398 48.2477ZM68.2498 47.2577C68.6098 47.2577 68.9298 47.161 69.2098 46.9677C69.4898 46.7743 69.6864 46.5143 69.7998 46.1877V45.2177C69.6931 44.891 69.4964 44.631 69.2098 44.4377C68.9298 44.2377 68.6098 44.1377 68.2498 44.1377C67.7964 44.1377 67.4231 44.2843 67.1298 44.5777C66.8364 44.871 66.6898 45.2477 66.6898 45.7077C66.6898 46.1677 66.8364 46.541 67.1298 46.8277C67.4231 47.1143 67.7964 47.2577 68.2498 47.2577ZM75.6637 47.2777L77.0437 46.0077L77.7037 45.4177C78.0703 45.0977 78.347 44.841 78.5337 44.6477C78.727 44.4543 78.8837 44.2477 79.0037 44.0277C79.1237 43.801 79.1837 43.5577 79.1837 43.2977C79.1837 42.9177 79.0703 42.6277 78.8437 42.4277C78.6237 42.221 78.307 42.1177 77.8937 42.1177C77.5737 42.1177 77.2403 42.1777 76.8937 42.2977C76.5537 42.411 76.2437 42.5743 75.9637 42.7877V41.5777C76.5437 41.1643 77.257 40.9577 78.1037 40.9577C78.8503 40.9577 79.4303 41.1577 79.8437 41.5577C80.257 41.9577 80.4637 42.5043 80.4637 43.1977C80.4637 43.5243 80.4003 43.831 80.2737 44.1177C80.147 44.3977 79.967 44.671 79.7337 44.9377C79.5003 45.2043 79.1837 45.521 78.7837 45.8877L77.5337 47.0477H80.7137V48.0977H75.6637V47.2777ZM84.5233 48.2477C83.9099 48.2477 83.3766 48.101 82.9233 47.8077C82.4699 47.5143 82.1199 47.0943 81.8733 46.5477C81.6333 46.001 81.5133 45.3543 81.5133 44.6077C81.5133 43.861 81.6333 43.2143 81.8733 42.6677C82.1133 42.1143 82.4566 41.691 82.9033 41.3977C83.3566 41.1043 83.8966 40.9577 84.5233 40.9577C85.1433 40.9577 85.6799 41.1043 86.1333 41.3977C86.5866 41.691 86.9333 42.1143 87.1733 42.6677C87.4133 43.2143 87.5333 43.861 87.5333 44.6077C87.5333 45.3543 87.4133 46.001 87.1733 46.5477C86.9333 47.0943 86.5866 47.5143 86.1333 47.8077C85.6799 48.101 85.1433 48.2477 84.5233 48.2477ZM84.5233 47.1077C85.0766 47.1077 85.5033 46.8877 85.8033 46.4477C86.1099 46.001 86.2633 45.391 86.2633 44.6177C86.2633 43.8443 86.1133 43.2343 85.8133 42.7877C85.5133 42.341 85.0866 42.1177 84.5333 42.1177C83.9799 42.1177 83.5499 42.341 83.2433 42.7877C82.9433 43.2343 82.7933 43.8443 82.7933 44.6177C82.7933 45.391 82.9433 46.001 83.2433 46.4477C83.5499 46.8877 83.9766 47.1077 84.5233 47.1077Z" fill="#484B52"/>
<defs>
<filter id="filter0_d_210_8388" x="0" y="0.0976562" width="141" height="102" filterUnits="userSpaceOnUse" color-interpolation-filters="sRGB">
<feFlood flood-opacity="0" result="BackgroundImageFix"/>
<feColorMatrix in="SourceAlpha" type="matrix" values="0 0 0 0 0 0 0 0 0 0 0 0 0 0 0 0 0 0 127 0" result="hardAlpha"/>
<feOffset/>
<feGaussianBlur stdDeviation="2"/>
<feColorMatrix type="matrix" values="0 0 0 0 0 0 0 0 0 0 0 0 0 0 0 0 0 0 0.1 0"/>
<feBlend mode="normal" in2="BackgroundImageFix" result="effect1_dropShadow_210_8388"/>
<feBlend mode="normal" in="SourceGraphic" in2="effect1_dropShadow_210_8388" result="shape"/>
</filter>
</defs>
</svg>