<svg width="141" height="102" viewBox="0 0 141 102" fill="none" xmlns="http://www.w3.org/2000/svg">
<g filter="url(#filter0_d_7427_137934)">
<rect x="4" y="4" width="133" height="94" rx="4" fill="white"/>
<rect x="4" y="4" width="133" height="94" rx="4" fill="white"/>
</g>
<line x1="25" y1="19.5" x2="35" y2="19.5" stroke="#BCBFC8"/>
<path d="M24.52 26.408H26.672C27.2747 26.408 27.7493 26.56 28.096 26.864C28.448 27.1627 28.624 27.5893 28.624 28.144C28.624 28.7093 28.4507 29.1387 28.104 29.432C27.7573 29.72 27.28 29.864 26.672 29.864H25.336V32H24.52V26.408ZM26.584 29.184C26.9573 29.184 27.2533 29.1067 27.472 28.952C27.6907 28.7973 27.8 28.528 27.8 28.144C27.8 27.76 27.6907 27.4907 27.472 27.336C27.2533 27.176 26.9573 27.096 26.584 27.096H25.336V29.184H26.584ZM29.3403 28.16H30.1243V28.848C30.2843 28.6133 30.5083 28.44 30.7963 28.328C31.0896 28.216 31.4283 28.16 31.8123 28.16V28.792C31.4016 28.792 31.0496 28.8587 30.7563 28.992C30.463 29.1253 30.2603 29.336 30.1483 29.624V32H29.3403V28.16ZM34.4424 32.12C34.0104 32.12 33.6291 32.04 33.2984 31.88C32.9731 31.7147 32.7171 31.48 32.5304 31.176C32.3491 30.8667 32.2584 30.504 32.2584 30.088C32.2584 29.6773 32.3491 29.3173 32.5304 29.008C32.7118 28.6987 32.9678 28.4613 33.2984 28.296C33.6291 28.1253 34.0104 28.04 34.4424 28.04C34.8744 28.04 35.2558 28.1253 35.5864 28.296C35.9171 28.4613 36.1731 28.6987 36.3544 29.008C36.5411 29.3173 36.6344 29.6773 36.6344 30.088C36.6344 30.504 36.5411 30.8667 36.3544 31.176C36.1731 31.48 35.9171 31.7147 35.5864 31.88C35.2558 32.04 34.8744 32.12 34.4424 32.12ZM34.4424 31.48C34.8584 31.48 35.1891 31.352 35.4344 31.096C35.6798 30.84 35.8024 30.504 35.8024 30.088C35.8024 29.656 35.6798 29.3147 35.4344 29.064C35.1891 28.8133 34.8584 28.688 34.4424 28.688C34.0264 28.688 33.6958 28.8133 33.4504 29.064C33.2051 29.3147 33.0824 29.656 33.0824 30.088C33.0824 30.504 33.2051 30.84 33.4504 31.096C33.6958 31.352 34.0264 31.48 34.4424 31.48ZM39.251 32.12C38.867 32.12 38.5203 32.0373 38.211 31.872C37.907 31.7013 37.667 31.464 37.491 31.16C37.3203 30.8507 37.235 30.4933 37.235 30.088C37.235 29.688 37.3203 29.3333 37.491 29.024C37.667 28.7147 37.907 28.4747 38.211 28.304C38.5203 28.128 38.867 28.04 39.251 28.04C39.9443 28.04 40.4697 28.2507 40.827 28.672V26.088H41.635V32H40.851V31.44C40.6377 31.6747 40.403 31.848 40.147 31.96C39.8963 32.0667 39.5977 32.12 39.251 32.12ZM39.435 31.48C39.7657 31.48 40.0537 31.3947 40.299 31.224C40.5497 31.048 40.7257 30.8133 40.827 30.52V29.656C40.7363 29.3627 40.563 29.128 40.307 28.952C40.0563 28.776 39.7657 28.688 39.435 28.688C39.1737 28.688 38.9363 28.7467 38.723 28.864C38.515 28.9813 38.3497 29.1467 38.227 29.36C38.1097 29.5733 38.051 29.816 38.051 30.088C38.051 30.36 38.1097 30.6027 38.227 30.816C38.3497 31.0293 38.515 31.1947 38.723 31.312C38.9363 31.424 39.1737 31.48 39.435 31.48ZM44.2043 32.12C43.6869 32.12 43.2949 31.9813 43.0283 31.704C42.7669 31.4267 42.6363 31.056 42.6363 30.592V28.16H43.4443V30.56C43.4443 31.1733 43.7509 31.48 44.3643 31.48C44.9029 31.48 45.3243 31.2373 45.6283 30.752V28.16H46.4363V32H45.6523V31.456C45.4709 31.6853 45.2549 31.8533 45.0043 31.96C44.7589 32.0667 44.4923 32.12 44.2043 32.12ZM49.4971 32.12C49.0705 32.12 48.6918 32.04 48.3611 31.88C48.0305 31.72 47.7718 31.488 47.5851 31.184C47.4038 30.8747 47.3131 30.5093 47.3131 30.088C47.3131 29.6667 47.4038 29.304 47.5851 29C47.7718 28.6907 48.0305 28.4533 48.3611 28.288C48.6971 28.1227 49.0811 28.04 49.5131 28.04C50.0998 28.04 50.5691 28.1547 50.9211 28.384V29.048C50.5745 28.808 50.1318 28.688 49.5931 28.688C49.1558 28.688 48.8011 28.808 48.5291 29.048C48.2625 29.2827 48.1291 29.6293 48.1291 30.088C48.1291 30.5467 48.2625 30.8933 48.5291 31.128C48.7958 31.3627 49.1451 31.48 49.5771 31.48C50.1158 31.48 50.5798 31.352 50.9691 31.096V31.752C50.7825 31.88 50.5691 31.9733 50.3291 32.032C50.0945 32.0907 49.8171 32.12 49.4971 32.12ZM53.3281 32.12C52.9388 32.12 52.6375 32.008 52.4241 31.784C52.2161 31.56 52.1121 31.2427 52.1121 30.832V28.784H51.5281V28.16H52.1121V27.008H52.9281V28.16H53.8721V28.784H52.9281V30.776C52.9281 31.032 52.9761 31.2133 53.0721 31.32C53.1735 31.4267 53.3548 31.48 53.6161 31.48C53.7708 31.48 53.9255 31.4453 54.0801 31.376V32.016C53.8775 32.0853 53.6268 32.12 53.3281 32.12ZM60.6013 32.12C60.0253 32.12 59.5133 32 59.0653 31.76C58.6173 31.52 58.2679 31.1813 58.0173 30.744C57.7666 30.3013 57.6413 29.7893 57.6413 29.208C57.6413 28.6267 57.7666 28.1147 58.0173 27.672C58.2679 27.2293 58.6173 26.888 59.0653 26.648C59.5133 26.408 60.0253 26.288 60.6013 26.288C61.3693 26.288 62.0119 26.4827 62.5293 26.872V27.656C62.0653 27.2453 61.4466 27.04 60.6733 27.04C60.2413 27.04 59.8573 27.128 59.5213 27.304C59.1906 27.48 58.9319 27.7333 58.7453 28.064C58.5586 28.3893 58.4653 28.7707 58.4653 29.208C58.4653 29.6453 58.5586 30.0293 58.7453 30.36C58.9373 30.6907 59.1986 30.944 59.5293 31.12C59.8653 31.296 60.2466 31.384 60.6733 31.384C61.0679 31.384 61.4199 31.3333 61.7293 31.232C62.0439 31.1253 62.3346 30.9573 62.6013 30.728V31.52C62.1213 31.92 61.4546 32.12 60.6013 32.12ZM65.3018 32.12C64.8698 32.12 64.4885 32.04 64.1578 31.88C63.8325 31.7147 63.5765 31.48 63.3898 31.176C63.2085 30.8667 63.1178 30.504 63.1178 30.088C63.1178 29.6773 63.2085 29.3173 63.3898 29.008C63.5711 28.6987 63.8271 28.4613 64.1578 28.296C64.4885 28.1253 64.8698 28.04 65.3018 28.04C65.7338 28.04 66.1151 28.1253 66.4458 28.296C66.7765 28.4613 67.0325 28.6987 67.2138 29.008C67.4005 29.3173 67.4938 29.6773 67.4938 30.088C67.4938 30.504 67.4005 30.8667 67.2138 31.176C67.0325 31.48 66.7765 31.7147 66.4458 31.88C66.1151 32.04 65.7338 32.12 65.3018 32.12ZM65.3018 31.48C65.7178 31.48 66.0485 31.352 66.2938 31.096C66.5391 30.84 66.6618 30.504 66.6618 30.088C66.6618 29.656 66.5391 29.3147 66.2938 29.064C66.0485 28.8133 65.7178 28.688 65.3018 28.688C64.8858 28.688 64.5551 28.8133 64.3098 29.064C64.0645 29.3147 63.9418 29.656 63.9418 30.088C63.9418 30.504 64.0645 30.84 64.3098 31.096C64.5551 31.352 64.8858 31.48 65.3018 31.48ZM70.1104 32.12C69.7264 32.12 69.3797 32.0373 69.0704 31.872C68.7664 31.7013 68.5264 31.464 68.3504 31.16C68.1797 30.8507 68.0944 30.4933 68.0944 30.088C68.0944 29.688 68.1797 29.3333 68.3504 29.024C68.5264 28.7147 68.7664 28.4747 69.0704 28.304C69.3797 28.128 69.7264 28.04 70.1104 28.04C70.8037 28.04 71.329 28.2507 71.6864 28.672V26.088H72.4944V32H71.7104V31.44C71.497 31.6747 71.2624 31.848 71.0064 31.96C70.7557 32.0667 70.457 32.12 70.1104 32.12ZM70.2944 31.48C70.625 31.48 70.913 31.3947 71.1584 31.224C71.409 31.048 71.585 30.8133 71.6864 30.52V29.656C71.5957 29.3627 71.4224 29.128 71.1664 28.952C70.9157 28.776 70.625 28.688 70.2944 28.688C70.033 28.688 69.7957 28.7467 69.5824 28.864C69.3744 28.9813 69.209 29.1467 69.0864 29.36C68.969 29.5733 68.9104 29.816 68.9104 30.088C68.9104 30.36 68.969 30.6027 69.0864 30.816C69.209 31.0293 69.3744 31.1947 69.5824 31.312C69.7957 31.424 70.033 31.48 70.2944 31.48ZM75.6476 32.12C74.9383 32.12 74.381 31.944 73.9756 31.592C73.5756 31.2347 73.3756 30.7333 73.3756 30.088C73.3756 29.4587 73.5543 28.96 73.9116 28.592C74.2743 28.224 74.789 28.04 75.4556 28.04C75.8983 28.04 76.2743 28.1253 76.5836 28.296C76.893 28.4613 77.125 28.6933 77.2796 28.992C77.4396 29.2853 77.5196 29.6213 77.5196 30V30.4H74.1436C74.1703 30.7627 74.3223 31.0347 74.5996 31.216C74.8823 31.392 75.2636 31.48 75.7436 31.48C75.989 31.48 76.237 31.4587 76.4876 31.416C76.7383 31.368 76.9596 31.3067 77.1516 31.232V31.88C76.981 31.9493 76.7543 32.0053 76.4716 32.048C76.1943 32.096 75.9196 32.12 75.6476 32.12ZM76.7596 29.832C76.749 29.4693 76.629 29.1893 76.3996 28.992C76.1756 28.7893 75.8556 28.688 75.4396 28.688C75.0343 28.688 74.7196 28.792 74.4956 29C74.2716 29.208 74.1543 29.4853 74.1436 29.832H76.7596Z" fill="#484B52"/>
<path d="M25.813 42.105C25.533 42.105 25.2553 42.0793 24.98 42.028C24.7093 41.9813 24.4877 41.916 24.315 41.832V41.188C24.763 41.398 25.246 41.503 25.764 41.503C26.492 41.503 26.856 41.258 26.856 40.768C26.856 40.6 26.8163 40.4647 26.737 40.362C26.6577 40.2593 26.5433 40.1707 26.394 40.096C26.2447 40.0167 26.002 39.9093 25.666 39.774C25.204 39.5873 24.8703 39.382 24.665 39.158C24.4597 38.934 24.357 38.6517 24.357 38.311C24.357 38.0543 24.427 37.828 24.567 37.632C24.707 37.4313 24.903 37.2773 25.155 37.17C25.407 37.058 25.6963 37.002 26.023 37.002C26.289 37.002 26.5293 37.023 26.744 37.065C26.9587 37.107 27.1687 37.1747 27.374 37.268V37.884C26.968 37.702 26.5573 37.611 26.142 37.611C25.806 37.611 25.5493 37.6717 25.372 37.793C25.1947 37.9143 25.106 38.087 25.106 38.311C25.106 38.465 25.1433 38.5957 25.218 38.703C25.2973 38.8057 25.4117 38.899 25.561 38.983C25.715 39.0623 25.9413 39.1627 26.24 39.284C26.5713 39.4193 26.8327 39.5477 27.024 39.669C27.2153 39.7903 27.36 39.9397 27.458 40.117C27.5607 40.2897 27.612 40.5067 27.612 40.768C27.612 41.1927 27.4603 41.5217 27.157 41.755C26.8537 41.9883 26.4057 42.105 25.813 42.105ZM28.3788 37.107H29.0928V42H28.3788V37.107ZM29.1278 39.508L31.3608 37.107H32.2288L29.9958 39.508L32.3688 42H31.5008L29.1278 39.508ZM34.8444 42.105C34.177 42.105 33.673 41.9347 33.3324 41.594C32.9917 41.2487 32.8214 40.775 32.8214 40.173V37.107H33.5354V40.201C33.5354 40.6163 33.652 40.9313 33.8854 41.146C34.1187 41.356 34.4384 41.461 34.8444 41.461C35.2457 41.461 35.563 41.356 35.7964 41.146C36.0297 40.9313 36.1464 40.6163 36.1464 40.201V37.107H36.8604V40.173C36.8604 40.7703 36.69 41.2417 36.3494 41.587C36.0087 41.9323 35.507 42.105 34.8444 42.105Z" fill="#9799A5"/>
<line x1="25" y1="55.5" x2="35" y2="55.5" stroke="#BCBFC8"/>
<path d="M24.52 62.408H26.672C27.2747 62.408 27.7493 62.56 28.096 62.864C28.448 63.1627 28.624 63.5893 28.624 64.144C28.624 64.7093 28.4507 65.1387 28.104 65.432C27.7573 65.72 27.28 65.864 26.672 65.864H25.336V68H24.52V62.408ZM26.584 65.184C26.9573 65.184 27.2533 65.1067 27.472 64.952C27.6907 64.7973 27.8 64.528 27.8 64.144C27.8 63.76 27.6907 63.4907 27.472 63.336C27.2533 63.176 26.9573 63.096 26.584 63.096H25.336V65.184H26.584ZM29.3403 62.408H31.1403C31.743 62.408 32.2656 62.52 32.7083 62.744C33.151 62.968 33.4896 63.288 33.7243 63.704C33.9643 64.12 34.0843 64.6107 34.0843 65.176C34.0843 66.104 33.815 66.808 33.2763 67.288C32.743 67.7627 31.9936 68 31.0283 68H29.3403V62.408ZM31.0203 67.32C31.767 67.32 32.327 67.136 32.7003 66.768C33.0736 66.4 33.2603 65.8693 33.2603 65.176C33.2603 64.536 33.0763 64.0293 32.7083 63.656C32.3456 63.2827 31.8256 63.096 31.1483 63.096H30.1563V67.32H31.0203ZM37.1333 68.12C36.6533 68.12 36.2373 68.0027 35.8853 67.768C35.5386 67.5333 35.272 67.1973 35.0853 66.76C34.8986 66.3227 34.8053 65.8053 34.8053 65.208C34.8053 64.6107 34.896 64.0933 35.0773 63.656C35.264 63.2133 35.5306 62.8747 35.8773 62.64C36.2293 62.4053 36.648 62.288 37.1333 62.288C37.6186 62.288 38.0346 62.4053 38.3813 62.64C38.7333 62.8747 39 63.2133 39.1813 63.656C39.368 64.0933 39.4613 64.6107 39.4613 65.208C39.4613 65.8053 39.368 66.3227 39.1813 66.76C38.9946 67.1973 38.7253 67.5333 38.3733 67.768C38.0266 68.0027 37.6133 68.12 37.1333 68.12ZM37.1333 67.4C37.608 67.4 37.9786 67.2053 38.2453 66.816C38.5173 66.4213 38.6533 65.888 38.6533 65.216C38.6533 64.544 38.52 64.0107 38.2533 63.616C37.9866 63.2213 37.6133 63.024 37.1333 63.024C36.6533 63.024 36.28 63.2213 36.0133 63.616C35.7466 64.0107 35.6133 64.544 35.6133 65.216C35.6133 65.888 35.7466 66.4213 36.0133 66.816C36.2853 67.2053 36.6586 67.4 37.1333 67.4ZM42.5083 68.12C42.0283 68.12 41.6123 68.0027 41.2603 67.768C40.9136 67.5333 40.647 67.1973 40.4603 66.76C40.2736 66.3227 40.1803 65.8053 40.1803 65.208C40.1803 64.6107 40.271 64.0933 40.4523 63.656C40.639 63.2133 40.9056 62.8747 41.2523 62.64C41.6043 62.4053 42.023 62.288 42.5083 62.288C42.9936 62.288 43.4096 62.4053 43.7563 62.64C44.1083 62.8747 44.375 63.2133 44.5563 63.656C44.743 64.0933 44.8363 64.6107 44.8363 65.208C44.8363 65.8053 44.743 66.3227 44.5563 66.76C44.3696 67.1973 44.1003 67.5333 43.7483 67.768C43.4016 68.0027 42.9883 68.12 42.5083 68.12ZM42.5083 67.4C42.983 67.4 43.3536 67.2053 43.6203 66.816C43.8923 66.4213 44.0283 65.888 44.0283 65.216C44.0283 64.544 43.895 64.0107 43.6283 63.616C43.3616 63.2213 42.9883 63.024 42.5083 63.024C42.0283 63.024 41.655 63.2213 41.3883 63.616C41.1216 64.0107 40.9883 64.544 40.9883 65.216C40.9883 65.888 41.1216 66.4213 41.3883 66.816C41.6603 67.2053 42.0336 67.4 42.5083 67.4ZM47.8833 68.12C47.4033 68.12 46.9873 68.0027 46.6353 67.768C46.2886 67.5333 46.022 67.1973 45.8353 66.76C45.6486 66.3227 45.5553 65.8053 45.5553 65.208C45.5553 64.6107 45.646 64.0933 45.8273 63.656C46.014 63.2133 46.2806 62.8747 46.6273 62.64C46.9793 62.4053 47.398 62.288 47.8833 62.288C48.3686 62.288 48.7846 62.4053 49.1313 62.64C49.4833 62.8747 49.75 63.2133 49.9313 63.656C50.118 64.0933 50.2113 64.6107 50.2113 65.208C50.2113 65.8053 50.118 66.3227 49.9313 66.76C49.7446 67.1973 49.4753 67.5333 49.1233 67.768C48.7766 68.0027 48.3633 68.12 47.8833 68.12ZM47.8833 67.4C48.358 67.4 48.7286 67.2053 48.9953 66.816C49.2673 66.4213 49.4033 65.888 49.4033 65.216C49.4033 64.544 49.27 64.0107 49.0033 63.616C48.7366 63.2213 48.3633 63.024 47.8833 63.024C47.4033 63.024 47.03 63.2213 46.7633 63.616C46.4966 64.0107 46.3633 64.544 46.3633 65.216C46.3633 65.888 46.4966 66.4213 46.7633 66.816C47.0353 67.2053 47.4086 67.4 47.8833 67.4ZM53.2583 68.12C52.7783 68.12 52.3623 68.0027 52.0103 67.768C51.6636 67.5333 51.397 67.1973 51.2103 66.76C51.0236 66.3227 50.9303 65.8053 50.9303 65.208C50.9303 64.6107 51.021 64.0933 51.2023 63.656C51.389 63.2133 51.6556 62.8747 52.0023 62.64C52.3543 62.4053 52.773 62.288 53.2583 62.288C53.7436 62.288 54.1596 62.4053 54.5063 62.64C54.8583 62.8747 55.125 63.2133 55.3063 63.656C55.493 64.0933 55.5863 64.6107 55.5863 65.208C55.5863 65.8053 55.493 66.3227 55.3063 66.76C55.1196 67.1973 54.8503 67.5333 54.4983 67.768C54.1516 68.0027 53.7383 68.12 53.2583 68.12ZM53.2583 67.4C53.733 67.4 54.1036 67.2053 54.3703 66.816C54.6423 66.4213 54.7783 65.888 54.7783 65.216C54.7783 64.544 54.645 64.0107 54.3783 63.616C54.1116 63.2213 53.7383 63.024 53.2583 63.024C52.7783 63.024 52.405 63.2213 52.1383 63.616C51.8716 64.0107 51.7383 64.544 51.7383 65.216C51.7383 65.888 51.8716 66.4213 52.1383 66.816C52.4103 67.2053 52.7836 67.4 53.2583 67.4ZM58.6333 68.12C58.1533 68.12 57.7373 68.0027 57.3853 67.768C57.0386 67.5333 56.772 67.1973 56.5853 66.76C56.3986 66.3227 56.3053 65.8053 56.3053 65.208C56.3053 64.6107 56.396 64.0933 56.5773 63.656C56.764 63.2133 57.0306 62.8747 57.3773 62.64C57.7293 62.4053 58.148 62.288 58.6333 62.288C59.1186 62.288 59.5346 62.4053 59.8813 62.64C60.2333 62.8747 60.5 63.2133 60.6813 63.656C60.868 64.0933 60.9613 64.6107 60.9613 65.208C60.9613 65.8053 60.868 66.3227 60.6813 66.76C60.4946 67.1973 60.2253 67.5333 59.8733 67.768C59.5266 68.0027 59.1133 68.12 58.6333 68.12ZM58.6333 67.4C59.108 67.4 59.4786 67.2053 59.7453 66.816C60.0173 66.4213 60.1533 65.888 60.1533 65.216C60.1533 64.544 60.02 64.0107 59.7533 63.616C59.4866 63.2213 59.1133 63.024 58.6333 63.024C58.1533 63.024 57.78 63.2213 57.5133 63.616C57.2466 64.0107 57.1133 64.544 57.1133 65.216C57.1133 65.888 57.2466 66.4213 57.5133 66.816C57.7853 67.2053 58.1586 67.4 58.6333 67.4ZM64.0083 68.12C63.5283 68.12 63.1123 68.0027 62.7603 67.768C62.4136 67.5333 62.147 67.1973 61.9603 66.76C61.7736 66.3227 61.6803 65.8053 61.6803 65.208C61.6803 64.6107 61.771 64.0933 61.9523 63.656C62.139 63.2133 62.4056 62.8747 62.7523 62.64C63.1043 62.4053 63.523 62.288 64.0083 62.288C64.4936 62.288 64.9096 62.4053 65.2563 62.64C65.6083 62.8747 65.875 63.2133 66.0563 63.656C66.243 64.0933 66.3363 64.6107 66.3363 65.208C66.3363 65.8053 66.243 66.3227 66.0563 66.76C65.8696 67.1973 65.6003 67.5333 65.2483 67.768C64.9016 68.0027 64.4883 68.12 64.0083 68.12ZM64.0083 67.4C64.483 67.4 64.8536 67.2053 65.1203 66.816C65.3923 66.4213 65.5283 65.888 65.5283 65.216C65.5283 64.544 65.395 64.0107 65.1283 63.616C64.8616 63.2213 64.4883 63.024 64.0083 63.024C63.5283 63.024 63.155 63.2213 62.8883 63.616C62.6216 64.0107 62.4883 64.544 62.4883 65.216C62.4883 65.888 62.6216 66.4213 62.8883 66.816C63.1603 67.2053 63.5336 67.4 64.0083 67.4ZM69.3833 68.12C68.9033 68.12 68.4873 68.0027 68.1353 67.768C67.7886 67.5333 67.522 67.1973 67.3353 66.76C67.1486 66.3227 67.0553 65.8053 67.0553 65.208C67.0553 64.6107 67.146 64.0933 67.3273 63.656C67.514 63.2133 67.7806 62.8747 68.1273 62.64C68.4793 62.4053 68.898 62.288 69.3833 62.288C69.8686 62.288 70.2846 62.4053 70.6313 62.64C70.9833 62.8747 71.25 63.2133 71.4313 63.656C71.618 64.0933 71.7113 64.6107 71.7113 65.208C71.7113 65.8053 71.618 66.3227 71.4313 66.76C71.2446 67.1973 70.9753 67.5333 70.6233 67.768C70.2766 68.0027 69.8633 68.12 69.3833 68.12ZM69.3833 67.4C69.858 67.4 70.2286 67.2053 70.4953 66.816C70.7673 66.4213 70.9033 65.888 70.9033 65.216C70.9033 64.544 70.77 64.0107 70.5033 63.616C70.2366 63.2213 69.8633 63.024 69.3833 63.024C68.9033 63.024 68.53 63.2213 68.2633 63.616C67.9966 64.0107 67.8633 64.544 67.8633 65.216C67.8633 65.888 67.9966 66.4213 68.2633 66.816C68.5353 67.2053 68.9086 67.4 69.3833 67.4ZM73.6383 63.288L72.4303 64.16V63.384L73.7503 62.408H74.4543V68H73.6383V63.288Z" fill="#484B52"/>
<path d="M25.813 78.105C25.533 78.105 25.2553 78.0793 24.98 78.028C24.7093 77.9813 24.4877 77.916 24.315 77.832V77.188C24.763 77.398 25.246 77.503 25.764 77.503C26.492 77.503 26.856 77.258 26.856 76.768C26.856 76.6 26.8163 76.4647 26.737 76.362C26.6577 76.2593 26.5433 76.1707 26.394 76.096C26.2447 76.0167 26.002 75.9093 25.666 75.774C25.204 75.5873 24.8703 75.382 24.665 75.158C24.4597 74.934 24.357 74.6517 24.357 74.311C24.357 74.0543 24.427 73.828 24.567 73.632C24.707 73.4313 24.903 73.2773 25.155 73.17C25.407 73.058 25.6963 73.002 26.023 73.002C26.289 73.002 26.5293 73.023 26.744 73.065C26.9587 73.107 27.1687 73.1747 27.374 73.268V73.884C26.968 73.702 26.5573 73.611 26.142 73.611C25.806 73.611 25.5493 73.6717 25.372 73.793C25.1947 73.9143 25.106 74.087 25.106 74.311C25.106 74.465 25.1433 74.5957 25.218 74.703C25.2973 74.8057 25.4117 74.899 25.561 74.983C25.715 75.0623 25.9413 75.1627 26.24 75.284C26.5713 75.4193 26.8327 75.5477 27.024 75.669C27.2153 75.7903 27.36 75.9397 27.458 76.117C27.5607 76.2897 27.612 76.5067 27.612 76.768C27.612 77.1927 27.4603 77.5217 27.157 77.755C26.8537 77.9883 26.4057 78.105 25.813 78.105ZM28.3788 73.107H29.0928V78H28.3788V73.107ZM29.1278 75.508L31.3608 73.107H32.2288L29.9958 75.508L32.3688 78H31.5008L29.1278 75.508ZM34.8444 78.105C34.177 78.105 33.673 77.9347 33.3324 77.594C32.9917 77.2487 32.8214 76.775 32.8214 76.173V73.107H33.5354V76.201C33.5354 76.6163 33.652 76.9313 33.8854 77.146C34.1187 77.356 34.4384 77.461 34.8444 77.461C35.2457 77.461 35.563 77.356 35.7964 77.146C36.0297 76.9313 36.1464 76.6163 36.1464 76.201V73.107H36.8604V76.173C36.8604 76.7703 36.69 77.2417 36.3494 77.587C36.0087 77.9323 35.507 78.105 34.8444 78.105ZM37.5972 75.627H39.8302V76.208H37.5972V75.627ZM42.4985 78.105C42.0785 78.105 41.7145 78.0023 41.4065 77.797C41.1032 77.5917 40.8698 77.2977 40.7065 76.915C40.5432 76.5323 40.4615 76.0797 40.4615 75.557C40.4615 75.0343 40.5408 74.5817 40.6995 74.199C40.8628 73.8117 41.0962 73.5153 41.3995 73.31C41.7075 73.1047 42.0738 73.002 42.4985 73.002C42.9232 73.002 43.2872 73.1047 43.5905 73.31C43.8985 73.5153 44.1318 73.8117 44.2905 74.199C44.4538 74.5817 44.5355 75.0343 44.5355 75.557C44.5355 76.0797 44.4538 76.5323 44.2905 76.915C44.1272 77.2977 43.8915 77.5917 43.5835 77.797C43.2802 78.0023 42.9185 78.105 42.4985 78.105ZM42.4985 77.475C42.9138 77.475 43.2382 77.3047 43.4715 76.964C43.7095 76.6187 43.8285 76.152 43.8285 75.564C43.8285 74.976 43.7118 74.5093 43.4785 74.164C43.2452 73.8187 42.9185 73.646 42.4985 73.646C42.0785 73.646 41.7518 73.8187 41.5185 74.164C41.2852 74.5093 41.1685 74.976 41.1685 75.564C41.1685 76.152 41.2852 76.6187 41.5185 76.964C41.7565 77.3047 42.0832 77.475 42.4985 77.475ZM47.2016 78.105C46.7816 78.105 46.4176 78.0023 46.1096 77.797C45.8063 77.5917 45.5729 77.2977 45.4096 76.915C45.2463 76.5323 45.1646 76.0797 45.1646 75.557C45.1646 75.0343 45.2439 74.5817 45.4026 74.199C45.5659 73.8117 45.7993 73.5153 46.1026 73.31C46.4106 73.1047 46.7769 73.002 47.2016 73.002C47.6263 73.002 47.9903 73.1047 48.2936 73.31C48.6016 73.5153 48.8349 73.8117 48.9936 74.199C49.1569 74.5817 49.2386 75.0343 49.2386 75.557C49.2386 76.0797 49.1569 76.5323 48.9936 76.915C48.8303 77.2977 48.5946 77.5917 48.2866 77.797C47.9833 78.0023 47.6216 78.105 47.2016 78.105ZM47.2016 77.475C47.6169 77.475 47.9413 77.3047 48.1746 76.964C48.4126 76.6187 48.5316 76.152 48.5316 75.564C48.5316 74.976 48.4149 74.5093 48.1816 74.164C47.9483 73.8187 47.6216 73.646 47.2016 73.646C46.7816 73.646 46.4549 73.8187 46.2216 74.164C45.9883 74.5093 45.8716 74.976 45.8716 75.564C45.8716 76.152 45.9883 76.6187 46.2216 76.964C46.4596 77.3047 46.7863 77.475 47.2016 77.475ZM50.9247 73.877L49.8677 74.64V73.961L51.0227 73.107H51.6387V78H50.9247V73.877Z" fill="#9799A5"/>
<defs>
<filter id="filter0_d_7427_137934" x="0" y="0" width="141" height="102" filterUnits="userSpaceOnUse" color-interpolation-filters="sRGB">
<feFlood flood-opacity="0" result="BackgroundImageFix"/>
<feColorMatrix in="SourceAlpha" type="matrix" values="0 0 0 0 0 0 0 0 0 0 0 0 0 0 0 0 0 0 127 0" result="hardAlpha"/>
<feOffset/>
<feGaussianBlur stdDeviation="2"/>
<feColorMatrix type="matrix" values="0 0 0 0 0 0 0 0 0 0 0 0 0 0 0 0 0 0 0.1 0"/>
<feBlend mode="normal" in2="BackgroundImageFix" result="effect1_dropShadow_7427_137934"/>
<feBlend mode="normal" in="SourceGraphic" in2="effect1_dropShadow_7427_137934" result="shape"/>
</filter>
</defs>
</svg>
