<svg width="141" height="102" viewBox="0 0 141 102" fill="none" xmlns="http://www.w3.org/2000/svg">
<g filter="url(#filter0_d_7427_137934)">
<rect x="4" y="4" width="133" height="94" rx="4" fill="white"/>
<rect x="4.5" y="4.5" width="132" height="93" rx="3.5" stroke="#74D179"/>
</g>
<path d="M18.132 35H15.78V26.612H18.132V25.376H19.2V26.612H19.632C20.376 26.612 20.952 26.804 21.36 27.188C21.768 27.572 21.972 28.132 21.972 28.868C21.972 29.284 21.872 29.652 21.672 29.972C21.48 30.284 21.224 30.516 20.904 30.668C21.8 30.932 22.248 31.584 22.248 32.624C22.248 33.112 22.14 33.536 21.924 33.896C21.716 34.248 21.428 34.52 21.06 34.712C20.692 34.904 20.284 35 19.836 35H19.2V36.236H18.132V35ZM18.132 30.212V27.608H17.004V30.212H18.132ZM19.476 30.212C19.868 30.212 20.176 30.104 20.4 29.888C20.624 29.672 20.736 29.352 20.736 28.928C20.736 28.44 20.624 28.1 20.4 27.908C20.184 27.708 19.848 27.608 19.392 27.608H19.2V30.212H19.476ZM18.132 34.004V31.22H17.004V34.004H18.132ZM19.56 34.004C20.032 34.004 20.392 33.9 20.64 33.692C20.888 33.484 21.012 33.128 21.012 32.624C21.012 32.12 20.88 31.76 20.616 31.544C20.36 31.328 19.972 31.22 19.452 31.22H19.2V34.004H19.56ZM23.333 34.196L25.145 32.456C25.305 32.296 25.529 32.088 25.817 31.832C26.273 31.416 26.621 31.08 26.861 30.824C27.101 30.568 27.297 30.296 27.449 30.008C27.601 29.712 27.677 29.396 27.677 29.06C27.677 28.564 27.533 28.188 27.245 27.932C26.957 27.668 26.537 27.536 25.985 27.536C25.609 27.536 25.221 27.604 24.821 27.74C24.429 27.876 24.061 28.076 23.717 28.34V27.164C24.389 26.676 25.209 26.432 26.177 26.432C27.041 26.432 27.713 26.664 28.193 27.128C28.673 27.584 28.913 28.208 28.913 29C28.913 29.384 28.829 29.752 28.661 30.104C28.501 30.456 28.273 30.804 27.977 31.148C27.681 31.484 27.281 31.896 26.777 32.384L25.145 33.98H29.225V35H23.333V34.196ZM33.3776 35.18C32.4336 35.18 31.6856 34.968 31.1336 34.544C30.5816 34.112 30.3056 33.5 30.3056 32.708C30.3056 32.172 30.4456 31.724 30.7256 31.364C31.0056 30.996 31.3776 30.748 31.8416 30.62C31.4576 30.46 31.1536 30.216 30.9296 29.888C30.7056 29.552 30.5936 29.164 30.5936 28.724C30.5936 28.02 30.8456 27.464 31.3496 27.056C31.8536 26.64 32.5296 26.432 33.3776 26.432C34.2176 26.432 34.8896 26.64 35.3936 27.056C35.8976 27.464 36.1496 28.02 36.1496 28.724C36.1496 29.164 36.0376 29.552 35.8136 29.888C35.5896 30.216 35.2856 30.46 34.9016 30.62C35.3656 30.748 35.7376 30.996 36.0176 31.364C36.3056 31.724 36.4496 32.172 36.4496 32.708C36.4496 33.5 36.1736 34.112 35.6216 34.544C35.0696 34.968 34.3216 35.18 33.3776 35.18ZM33.3776 30.248C33.8496 30.248 34.2336 30.12 34.5296 29.864C34.8256 29.6 34.9736 29.256 34.9736 28.832C34.9736 28.4 34.8256 28.048 34.5296 27.776C34.2416 27.504 33.8576 27.368 33.3776 27.368C32.8976 27.368 32.5096 27.504 32.2136 27.776C31.9256 28.048 31.7816 28.4 31.7816 28.832C31.7816 29.256 31.9296 29.6 32.2256 29.864C32.5216 30.12 32.9056 30.248 33.3776 30.248ZM33.3776 34.292C33.9536 34.292 34.4056 34.144 34.7336 33.848C35.0616 33.552 35.2256 33.144 35.2256 32.624C35.2256 32.128 35.0536 31.736 34.7096 31.448C34.3736 31.16 33.9296 31.016 33.3776 31.016C32.8256 31.016 32.3776 31.16 32.0336 31.448C31.6896 31.736 31.5176 32.128 31.5176 32.624C31.5176 33.144 31.6816 33.552 32.0096 33.848C32.3456 34.144 32.8016 34.292 33.3776 34.292ZM41.0164 35.18C40.2964 35.18 39.6724 35.004 39.1444 34.652C38.6244 34.3 38.2244 33.796 37.9444 33.14C37.6644 32.484 37.5244 31.708 37.5244 30.812C37.5244 29.916 37.6604 29.14 37.9324 28.484C38.2124 27.82 38.6124 27.312 39.1324 26.96C39.6604 26.608 40.2884 26.432 41.0164 26.432C41.7444 26.432 42.3684 26.608 42.8884 26.96C43.4164 27.312 43.8164 27.82 44.0884 28.484C44.3684 29.14 44.5084 29.916 44.5084 30.812C44.5084 31.708 44.3684 32.484 44.0884 33.14C43.8084 33.796 43.4044 34.3 42.8764 34.652C42.3564 35.004 41.7364 35.18 41.0164 35.18ZM41.0164 34.1C41.7284 34.1 42.2844 33.808 42.6844 33.224C43.0924 32.632 43.2964 31.832 43.2964 30.824C43.2964 29.816 43.0964 29.016 42.6964 28.424C42.2964 27.832 41.7364 27.536 41.0164 27.536C40.2964 27.536 39.7364 27.832 39.3364 28.424C38.9364 29.016 38.7364 29.816 38.7364 30.824C38.7364 31.832 38.9364 32.632 39.3364 33.224C39.7444 33.808 40.3044 34.1 41.0164 34.1ZM46.1509 35C45.9909 35 45.8549 34.948 45.7429 34.844C45.6389 34.732 45.5869 34.596 45.5869 34.436C45.5869 34.276 45.6389 34.14 45.7429 34.028C45.8549 33.916 45.9909 33.86 46.1509 33.86C46.3109 33.86 46.4469 33.916 46.5589 34.028C46.6709 34.14 46.7269 34.276 46.7269 34.436C46.7269 34.596 46.6709 34.732 46.5589 34.844C46.4469 34.948 46.3109 35 46.1509 35ZM51.2937 35.18C50.5737 35.18 49.9497 35.004 49.4217 34.652C48.9017 34.3 48.5017 33.796 48.2217 33.14C47.9417 32.484 47.8017 31.708 47.8017 30.812C47.8017 29.916 47.9377 29.14 48.2097 28.484C48.4897 27.82 48.8897 27.312 49.4097 26.96C49.9377 26.608 50.5657 26.432 51.2937 26.432C52.0217 26.432 52.6457 26.608 53.1657 26.96C53.6937 27.312 54.0937 27.82 54.3657 28.484C54.6457 29.14 54.7857 29.916 54.7857 30.812C54.7857 31.708 54.6457 32.484 54.3657 33.14C54.0857 33.796 53.6817 34.3 53.1537 34.652C52.6337 35.004 52.0137 35.18 51.2937 35.18ZM51.2937 34.1C52.0057 34.1 52.5617 33.808 52.9617 33.224C53.3697 32.632 53.5737 31.832 53.5737 30.824C53.5737 29.816 53.3737 29.016 52.9737 28.424C52.5737 27.832 52.0137 27.536 51.2937 27.536C50.5737 27.536 50.0137 27.832 49.6137 28.424C49.2137 29.016 49.0137 29.816 49.0137 30.824C49.0137 31.832 49.2137 32.632 49.6137 33.224C50.0217 33.808 50.5817 34.1 51.2937 34.1ZM59.3562 35.18C58.6362 35.18 58.0122 35.004 57.4842 34.652C56.9642 34.3 56.5642 33.796 56.2842 33.14C56.0042 32.484 55.8642 31.708 55.8642 30.812C55.8642 29.916 56.0002 29.14 56.2722 28.484C56.5522 27.82 56.9522 27.312 57.4722 26.96C58.0002 26.608 58.6282 26.432 59.3562 26.432C60.0842 26.432 60.7082 26.608 61.2282 26.96C61.7562 27.312 62.1562 27.82 62.4282 28.484C62.7082 29.14 62.8482 29.916 62.8482 30.812C62.8482 31.708 62.7082 32.484 62.4282 33.14C62.1482 33.796 61.7442 34.3 61.2162 34.652C60.6962 35.004 60.0762 35.18 59.3562 35.18ZM59.3562 34.1C60.0682 34.1 60.6242 33.808 61.0242 33.224C61.4322 32.632 61.6362 31.832 61.6362 30.824C61.6362 29.816 61.4362 29.016 61.0362 28.424C60.6362 27.832 60.0762 27.536 59.3562 27.536C58.6362 27.536 58.0762 27.832 57.6762 28.424C57.2762 29.016 57.0762 29.816 57.0762 30.824C57.0762 31.832 57.2762 32.632 57.6762 33.224C58.0842 33.808 58.6442 34.1 59.3562 34.1Z" fill="#484B52"/>
<path d="M17.088 75H15.52V69.408H17.088V68.584H17.8V69.408H18.088C18.584 69.408 18.968 69.536 19.24 69.792C19.512 70.048 19.648 70.4213 19.648 70.912C19.648 71.1893 19.5813 71.4347 19.448 71.648C19.32 71.856 19.1493 72.0107 18.936 72.112C19.5333 72.288 19.832 72.7227 19.832 73.416C19.832 73.7413 19.76 74.024 19.616 74.264C19.4773 74.4987 19.2853 74.68 19.04 74.808C18.7947 74.936 18.5227 75 18.224 75H17.8V75.824H17.088V75ZM17.088 71.808V70.072H16.336V71.808H17.088ZM17.984 71.808C18.2453 71.808 18.4507 71.736 18.6 71.592C18.7493 71.448 18.824 71.2347 18.824 70.952C18.824 70.6267 18.7493 70.4 18.6 70.272C18.456 70.1387 18.232 70.072 17.928 70.072H17.8V71.808H17.984ZM17.088 74.336V72.48H16.336V74.336H17.088ZM18.04 74.336C18.3547 74.336 18.5947 74.2667 18.76 74.128C18.9253 73.9893 19.008 73.752 19.008 73.416C19.008 73.08 18.92 72.84 18.744 72.696C18.5733 72.552 18.3147 72.48 17.968 72.48H17.8V74.336H18.04ZM21.7633 70.288L20.5553 71.16V70.384L21.8753 69.408H22.5793V75H21.7633V70.288ZM25.5096 75.12C24.8802 75.12 24.3816 74.9787 24.0136 74.696C23.6456 74.408 23.4616 74 23.4616 73.472C23.4616 73.1147 23.5549 72.816 23.7416 72.576C23.9282 72.3307 24.1762 72.1653 24.4856 72.08C24.2296 71.9733 24.0269 71.8107 23.8776 71.592C23.7282 71.368 23.6536 71.1093 23.6536 70.816C23.6536 70.3467 23.8216 69.976 24.1576 69.704C24.4936 69.4267 24.9442 69.288 25.5096 69.288C26.0696 69.288 26.5176 69.4267 26.8536 69.704C27.1896 69.976 27.3576 70.3467 27.3576 70.816C27.3576 71.1093 27.2829 71.368 27.1336 71.592C26.9842 71.8107 26.7816 71.9733 26.5256 72.08C26.8349 72.1653 27.0829 72.3307 27.2696 72.576C27.4616 72.816 27.5576 73.1147 27.5576 73.472C27.5576 74 27.3736 74.408 27.0056 74.696C26.6376 74.9787 26.1389 75.12 25.5096 75.12ZM25.5096 71.832C25.8242 71.832 26.0802 71.7467 26.2776 71.576C26.4749 71.4 26.5736 71.1707 26.5736 70.888C26.5736 70.6 26.4749 70.3653 26.2776 70.184C26.0856 70.0027 25.8296 69.912 25.5096 69.912C25.1896 69.912 24.9309 70.0027 24.7336 70.184C24.5416 70.3653 24.4456 70.6 24.4456 70.888C24.4456 71.1707 24.5442 71.4 24.7416 71.576C24.9389 71.7467 25.1949 71.832 25.5096 71.832ZM25.5096 74.528C25.8936 74.528 26.1949 74.4293 26.4136 74.232C26.6322 74.0347 26.7416 73.7627 26.7416 73.416C26.7416 73.0853 26.6269 72.824 26.3976 72.632C26.1736 72.44 25.8776 72.344 25.5096 72.344C25.1416 72.344 24.8429 72.44 24.6136 72.632C24.3842 72.824 24.2696 73.0853 24.2696 73.416C24.2696 73.7627 24.3789 74.0347 24.5976 74.232C24.8216 74.4293 25.1256 74.528 25.5096 74.528ZM30.6021 75.12C30.1221 75.12 29.7061 75.0027 29.3541 74.768C29.0074 74.5333 28.7407 74.1973 28.5541 73.76C28.3674 73.3227 28.2741 72.8053 28.2741 72.208C28.2741 71.6107 28.3647 71.0933 28.5461 70.656C28.7327 70.2133 28.9994 69.8747 29.3461 69.64C29.6981 69.4053 30.1167 69.288 30.6021 69.288C31.0874 69.288 31.5034 69.4053 31.8501 69.64C32.2021 69.8747 32.4687 70.2133 32.6501 70.656C32.8367 71.0933 32.9301 71.6107 32.9301 72.208C32.9301 72.8053 32.8367 73.3227 32.6501 73.76C32.4634 74.1973 32.1941 74.5333 31.8421 74.768C31.4954 75.0027 31.0821 75.12 30.6021 75.12ZM30.6021 74.4C31.0767 74.4 31.4474 74.2053 31.7141 73.816C31.9861 73.4213 32.1221 72.888 32.1221 72.216C32.1221 71.544 31.9887 71.0107 31.7221 70.616C31.4554 70.2213 31.0821 70.024 30.6021 70.024C30.1221 70.024 29.7487 70.2213 29.4821 70.616C29.2154 71.0107 29.0821 71.544 29.0821 72.216C29.0821 72.888 29.2154 73.4213 29.4821 73.816C29.7541 74.2053 30.1274 74.4 30.6021 74.4ZM34.0251 75C33.9184 75 33.8277 74.9653 33.7531 74.896C33.6837 74.8213 33.6491 74.7307 33.6491 74.624C33.6491 74.5173 33.6837 74.4267 33.7531 74.352C33.8277 74.2773 33.9184 74.24 34.0251 74.24C34.1317 74.24 34.2224 74.2773 34.2971 74.352C34.3717 74.4267 34.4091 74.5173 34.4091 74.624C34.4091 74.7307 34.3717 74.8213 34.2971 74.896C34.2224 74.9653 34.1317 75 34.0251 75ZM37.4536 75.12C36.9736 75.12 36.5576 75.0027 36.2056 74.768C35.859 74.5333 35.5923 74.1973 35.4056 73.76C35.219 73.3227 35.1256 72.8053 35.1256 72.208C35.1256 71.6107 35.2163 71.0933 35.3976 70.656C35.5843 70.2133 35.851 69.8747 36.1976 69.64C36.5496 69.4053 36.9683 69.288 37.4536 69.288C37.939 69.288 38.355 69.4053 38.7016 69.64C39.0536 69.8747 39.3203 70.2133 39.5016 70.656C39.6883 71.0933 39.7816 71.6107 39.7816 72.208C39.7816 72.8053 39.6883 73.3227 39.5016 73.76C39.315 74.1973 39.0456 74.5333 38.6936 74.768C38.347 75.0027 37.9336 75.12 37.4536 75.12ZM37.4536 74.4C37.9283 74.4 38.299 74.2053 38.5656 73.816C38.8376 73.4213 38.9736 72.888 38.9736 72.216C38.9736 71.544 38.8403 71.0107 38.5736 70.616C38.307 70.2213 37.9336 70.024 37.4536 70.024C36.9736 70.024 36.6003 70.2213 36.3336 70.616C36.067 71.0107 35.9336 71.544 35.9336 72.216C35.9336 72.888 36.067 73.4213 36.3336 73.816C36.6056 74.2053 36.979 74.4 37.4536 74.4ZM42.8286 75.12C42.3486 75.12 41.9326 75.0027 41.5806 74.768C41.234 74.5333 40.9673 74.1973 40.7806 73.76C40.594 73.3227 40.5006 72.8053 40.5006 72.208C40.5006 71.6107 40.5913 71.0933 40.7726 70.656C40.9593 70.2133 41.226 69.8747 41.5726 69.64C41.9246 69.4053 42.3433 69.288 42.8286 69.288C43.314 69.288 43.73 69.4053 44.0766 69.64C44.4286 69.8747 44.6953 70.2133 44.8766 70.656C45.0633 71.0933 45.1566 71.6107 45.1566 72.208C45.1566 72.8053 45.0633 73.3227 44.8766 73.76C44.69 74.1973 44.4206 74.5333 44.0686 74.768C43.722 75.0027 43.3086 75.12 42.8286 75.12ZM42.8286 74.4C43.3033 74.4 43.674 74.2053 43.9406 73.816C44.2126 73.4213 44.3486 72.888 44.3486 72.216C44.3486 71.544 44.2153 71.0107 43.9486 70.616C43.682 70.2213 43.3086 70.024 42.8286 70.024C42.3486 70.024 41.9753 70.2213 41.7086 70.616C41.442 71.0107 41.3086 71.544 41.3086 72.216C41.3086 72.888 41.442 73.4213 41.7086 73.816C41.9806 74.2053 42.354 74.4 42.8286 74.4Z" fill="#484B52"/>
<path d="M17.088 21H15.52V15.408H17.088V14.584H17.8V15.408H18.088C18.584 15.408 18.968 15.536 19.24 15.792C19.512 16.048 19.648 16.4213 19.648 16.912C19.648 17.1893 19.5813 17.4347 19.448 17.648C19.32 17.856 19.1493 18.0107 18.936 18.112C19.5333 18.288 19.832 18.7227 19.832 19.416C19.832 19.7413 19.76 20.024 19.616 20.264C19.4773 20.4987 19.2853 20.68 19.04 20.808C18.7947 20.936 18.5227 21 18.224 21H17.8V21.824H17.088V21ZM17.088 17.808V16.072H16.336V17.808H17.088ZM17.984 17.808C18.2453 17.808 18.4507 17.736 18.6 17.592C18.7493 17.448 18.824 17.2347 18.824 16.952C18.824 16.6267 18.7493 16.4 18.6 16.272C18.456 16.1387 18.232 16.072 17.928 16.072H17.8V17.808H17.984ZM17.088 20.336V18.48H16.336V20.336H17.088ZM18.04 20.336C18.3547 20.336 18.5947 20.2667 18.76 20.128C18.9253 19.9893 19.008 19.752 19.008 19.416C19.008 19.08 18.92 18.84 18.744 18.696C18.5733 18.552 18.3147 18.48 17.968 18.48H17.8V20.336H18.04ZM23.1153 19.624H20.3953V19.104L23.1073 15.408H23.9393V18.984H24.8033V19.624H23.9393V21H23.1153V19.624ZM23.2113 18.984V16.384L21.3153 18.984H23.2113ZM27.688 21.12C27.208 21.12 26.792 21.0027 26.44 20.768C26.0933 20.5333 25.8267 20.1973 25.64 19.76C25.4533 19.3227 25.36 18.8053 25.36 18.208C25.36 17.6107 25.4507 17.0933 25.632 16.656C25.8187 16.2133 26.0853 15.8747 26.432 15.64C26.784 15.4053 27.2027 15.288 27.688 15.288C28.1733 15.288 28.5893 15.4053 28.936 15.64C29.288 15.8747 29.5547 16.2133 29.736 16.656C29.9227 17.0933 30.016 17.6107 30.016 18.208C30.016 18.8053 29.9227 19.3227 29.736 19.76C29.5493 20.1973 29.28 20.5333 28.928 20.768C28.5813 21.0027 28.168 21.12 27.688 21.12ZM27.688 20.4C28.1627 20.4 28.5333 20.2053 28.8 19.816C29.072 19.4213 29.208 18.888 29.208 18.216C29.208 17.544 29.0747 17.0107 28.808 16.616C28.5413 16.2213 28.168 16.024 27.688 16.024C27.208 16.024 26.8347 16.2213 26.568 16.616C26.3013 17.0107 26.168 17.544 26.168 18.216C26.168 18.888 26.3013 19.4213 26.568 19.816C26.84 20.2053 27.2133 20.4 27.688 20.4ZM33.063 21.12C32.583 21.12 32.167 21.0027 31.815 20.768C31.4683 20.5333 31.2017 20.1973 31.015 19.76C30.8283 19.3227 30.735 18.8053 30.735 18.208C30.735 17.6107 30.8257 17.0933 31.007 16.656C31.1937 16.2133 31.4603 15.8747 31.807 15.64C32.159 15.4053 32.5777 15.288 33.063 15.288C33.5483 15.288 33.9643 15.4053 34.311 15.64C34.663 15.8747 34.9297 16.2133 35.111 16.656C35.2977 17.0933 35.391 17.6107 35.391 18.208C35.391 18.8053 35.2977 19.3227 35.111 19.76C34.9243 20.1973 34.655 20.5333 34.303 20.768C33.9563 21.0027 33.543 21.12 33.063 21.12ZM33.063 20.4C33.5377 20.4 33.9083 20.2053 34.175 19.816C34.447 19.4213 34.583 18.888 34.583 18.216C34.583 17.544 34.4497 17.0107 34.183 16.616C33.9163 16.2213 33.543 16.024 33.063 16.024C32.583 16.024 32.2097 16.2213 31.943 16.616C31.6763 17.0107 31.543 17.544 31.543 18.216C31.543 18.888 31.6763 19.4213 31.943 19.816C32.215 20.2053 32.5883 20.4 33.063 20.4ZM36.486 21C36.3793 21 36.2887 20.9653 36.214 20.896C36.1447 20.8213 36.11 20.7307 36.11 20.624C36.11 20.5173 36.1447 20.4267 36.214 20.352C36.2887 20.2773 36.3793 20.24 36.486 20.24C36.5927 20.24 36.6833 20.2773 36.758 20.352C36.8327 20.4267 36.87 20.5173 36.87 20.624C36.87 20.7307 36.8327 20.8213 36.758 20.896C36.6833 20.9653 36.5927 21 36.486 21ZM39.9146 21.12C39.4346 21.12 39.0186 21.0027 38.6666 20.768C38.3199 20.5333 38.0532 20.1973 37.8666 19.76C37.6799 19.3227 37.5866 18.8053 37.5866 18.208C37.5866 17.6107 37.6772 17.0933 37.8586 16.656C38.0452 16.2133 38.3119 15.8747 38.6586 15.64C39.0106 15.4053 39.4292 15.288 39.9146 15.288C40.3999 15.288 40.8159 15.4053 41.1626 15.64C41.5146 15.8747 41.7812 16.2133 41.9626 16.656C42.1492 17.0933 42.2426 17.6107 42.2426 18.208C42.2426 18.8053 42.1492 19.3227 41.9626 19.76C41.7759 20.1973 41.5066 20.5333 41.1546 20.768C40.8079 21.0027 40.3946 21.12 39.9146 21.12ZM39.9146 20.4C40.3892 20.4 40.7599 20.2053 41.0266 19.816C41.2986 19.4213 41.4346 18.888 41.4346 18.216C41.4346 17.544 41.3012 17.0107 41.0346 16.616C40.7679 16.2213 40.3946 16.024 39.9146 16.024C39.4346 16.024 39.0612 16.2213 38.7946 16.616C38.5279 17.0107 38.3946 17.544 38.3946 18.216C38.3946 18.888 38.5279 19.4213 38.7946 19.816C39.0666 20.2053 39.4399 20.4 39.9146 20.4ZM45.2896 21.12C44.8096 21.12 44.3936 21.0027 44.0416 20.768C43.6949 20.5333 43.4282 20.1973 43.2416 19.76C43.0549 19.3227 42.9616 18.8053 42.9616 18.208C42.9616 17.6107 43.0522 17.0933 43.2336 16.656C43.4202 16.2133 43.6869 15.8747 44.0336 15.64C44.3856 15.4053 44.8042 15.288 45.2896 15.288C45.7749 15.288 46.1909 15.4053 46.5376 15.64C46.8896 15.8747 47.1562 16.2133 47.3376 16.656C47.5242 17.0933 47.6176 17.6107 47.6176 18.208C47.6176 18.8053 47.5242 19.3227 47.3376 19.76C47.1509 20.1973 46.8816 20.5333 46.5296 20.768C46.1829 21.0027 45.7696 21.12 45.2896 21.12ZM45.2896 20.4C45.7642 20.4 46.1349 20.2053 46.4016 19.816C46.6736 19.4213 46.8096 18.888 46.8096 18.216C46.8096 17.544 46.6762 17.0107 46.4096 16.616C46.1429 16.2213 45.7696 16.024 45.2896 16.024C44.8096 16.024 44.4362 16.2213 44.1696 16.616C43.9029 17.0107 43.7696 17.544 43.7696 18.216C43.7696 18.888 43.9029 19.4213 44.1696 19.816C44.4416 20.2053 44.8149 20.4 45.2896 20.4Z" fill="#9799A5"/>
<path d="M15 18.432H47.9776V18.832H15V18.432Z" fill="#9799A5"/>
<path d="M77.4161 75H75.8481V69.408H77.4161V68.584H78.1281V69.408H78.4161C78.9121 69.408 79.2961 69.536 79.5681 69.792C79.8401 70.048 79.9761 70.4213 79.9761 70.912C79.9761 71.1893 79.9095 71.4347 79.7761 71.648C79.6481 71.856 79.4775 72.0107 79.2641 72.112C79.8615 72.288 80.1601 72.7227 80.1601 73.416C80.1601 73.7413 80.0881 74.024 79.9441 74.264C79.8055 74.4987 79.6135 74.68 79.3681 74.808C79.1228 74.936 78.8508 75 78.5521 75H78.1281V75.824H77.4161V75ZM77.4161 71.808V70.072H76.6641V71.808H77.4161ZM78.3121 71.808C78.5735 71.808 78.7788 71.736 78.9281 71.592C79.0775 71.448 79.1521 71.2347 79.1521 70.952C79.1521 70.6267 79.0775 70.4 78.9281 70.272C78.7841 70.1387 78.5601 70.072 78.2561 70.072H78.1281V71.808H78.3121ZM77.4161 74.336V72.48H76.6641V74.336H77.4161ZM78.3681 74.336C78.6828 74.336 78.9228 74.2667 79.0881 74.128C79.2535 73.9893 79.3361 73.752 79.3361 73.416C79.3361 73.08 79.2481 72.84 79.0721 72.696C78.9015 72.552 78.6428 72.48 78.2961 72.48H78.1281V74.336H78.3681ZM82.3874 75.12C82.0941 75.12 81.8328 75.088 81.6034 75.024V74.344C81.8114 74.424 82.0514 74.464 82.3234 74.464C83.4701 74.464 84.0994 73.7787 84.2114 72.408C84.0514 72.6107 83.8408 72.7627 83.5794 72.864C83.3234 72.9653 83.0354 73.016 82.7154 73.016C82.3581 73.016 82.0408 72.9413 81.7634 72.792C81.4861 72.6427 81.2701 72.4293 81.1154 72.152C80.9608 71.8747 80.8834 71.552 80.8834 71.184C80.8834 70.8213 80.9634 70.496 81.1234 70.208C81.2888 69.92 81.5261 69.696 81.8354 69.536C82.1448 69.3707 82.5101 69.288 82.9314 69.288C83.3368 69.288 83.6968 69.3787 84.0114 69.56C84.3314 69.7413 84.5821 70.0133 84.7634 70.376C84.9448 70.7333 85.0354 71.168 85.0354 71.68C85.0354 72.7893 84.8061 73.64 84.3474 74.232C83.8941 74.824 83.2408 75.12 82.3874 75.12ZM82.9314 72.376C83.2834 72.376 83.5768 72.264 83.8114 72.04C84.0514 71.816 84.1714 71.52 84.1714 71.152C84.1714 70.9333 84.1181 70.7307 84.0114 70.544C83.9101 70.3573 83.7661 70.208 83.5794 70.096C83.3928 69.984 83.1768 69.928 82.9314 69.928C82.5581 69.928 82.2568 70.04 82.0274 70.264C81.8034 70.488 81.6914 70.7867 81.6914 71.16C81.6914 71.5333 81.8034 71.8293 82.0274 72.048C82.2568 72.2667 82.5581 72.376 82.9314 72.376ZM88.0864 75.12C87.6064 75.12 87.1904 75.0027 86.8384 74.768C86.4918 74.5333 86.2251 74.1973 86.0384 73.76C85.8518 73.3227 85.7584 72.8053 85.7584 72.208C85.7584 71.6107 85.8491 71.0933 86.0304 70.656C86.2171 70.2133 86.4838 69.8747 86.8304 69.64C87.1824 69.4053 87.6011 69.288 88.0864 69.288C88.5718 69.288 88.9878 69.4053 89.3344 69.64C89.6864 69.8747 89.9531 70.2133 90.1344 70.656C90.3211 71.0933 90.4144 71.6107 90.4144 72.208C90.4144 72.8053 90.3211 73.3227 90.1344 73.76C89.9478 74.1973 89.6784 74.5333 89.3264 74.768C88.9798 75.0027 88.5664 75.12 88.0864 75.12ZM88.0864 74.4C88.5611 74.4 88.9318 74.2053 89.1984 73.816C89.4704 73.4213 89.6064 72.888 89.6064 72.216C89.6064 71.544 89.4731 71.0107 89.2064 70.616C88.9398 70.2213 88.5664 70.024 88.0864 70.024C87.6064 70.024 87.2331 70.2213 86.9664 70.616C86.6998 71.0107 86.5664 71.544 86.5664 72.216C86.5664 72.888 86.6998 73.4213 86.9664 73.816C87.2384 74.2053 87.6118 74.4 88.0864 74.4ZM91.5094 75C91.4028 75 91.3121 74.9653 91.2374 74.896C91.1681 74.8213 91.1334 74.7307 91.1334 74.624C91.1334 74.5173 91.1681 74.4267 91.2374 74.352C91.3121 74.2773 91.4028 74.24 91.5094 74.24C91.6161 74.24 91.7068 74.2773 91.7814 74.352C91.8561 74.4267 91.8934 74.5173 91.8934 74.624C91.8934 74.7307 91.8561 74.8213 91.7814 74.896C91.7068 74.9653 91.6161 75 91.5094 75ZM94.938 75.12C94.458 75.12 94.042 75.0027 93.69 74.768C93.3433 74.5333 93.0767 74.1973 92.89 73.76C92.7033 73.3227 92.61 72.8053 92.61 72.208C92.61 71.6107 92.7007 71.0933 92.882 70.656C93.0687 70.2133 93.3353 69.8747 93.682 69.64C94.034 69.4053 94.4527 69.288 94.938 69.288C95.4233 69.288 95.8393 69.4053 96.186 69.64C96.538 69.8747 96.8047 70.2133 96.986 70.656C97.1727 71.0933 97.266 71.6107 97.266 72.208C97.266 72.8053 97.1727 73.3227 96.986 73.76C96.7993 74.1973 96.53 74.5333 96.178 74.768C95.8313 75.0027 95.418 75.12 94.938 75.12ZM94.938 74.4C95.4127 74.4 95.7833 74.2053 96.05 73.816C96.322 73.4213 96.458 72.888 96.458 72.216C96.458 71.544 96.3247 71.0107 96.058 70.616C95.7913 70.2213 95.418 70.024 94.938 70.024C94.458 70.024 94.0847 70.2213 93.818 70.616C93.5513 71.0107 93.418 71.544 93.418 72.216C93.418 72.888 93.5513 73.4213 93.818 73.816C94.09 74.2053 94.4633 74.4 94.938 74.4ZM100.313 75.12C99.833 75.12 99.417 75.0027 99.065 74.768C98.7183 74.5333 98.4517 74.1973 98.265 73.76C98.0783 73.3227 97.985 72.8053 97.985 72.208C97.985 71.6107 98.0757 71.0933 98.257 70.656C98.4437 70.2133 98.7103 69.8747 99.057 69.64C99.409 69.4053 99.8277 69.288 100.313 69.288C100.798 69.288 101.214 69.4053 101.561 69.64C101.913 69.8747 102.18 70.2133 102.361 70.656C102.548 71.0933 102.641 71.6107 102.641 72.208C102.641 72.8053 102.548 73.3227 102.361 73.76C102.174 74.1973 101.905 74.5333 101.553 74.768C101.206 75.0027 100.793 75.12 100.313 75.12ZM100.313 74.4C100.788 74.4 101.158 74.2053 101.425 73.816C101.697 73.4213 101.833 72.888 101.833 72.216C101.833 71.544 101.7 71.0107 101.433 70.616C101.166 70.2213 100.793 70.024 100.313 70.024C99.833 70.024 99.4597 70.2213 99.193 70.616C98.9263 71.0107 98.793 71.544 98.793 72.216C98.793 72.888 98.9263 73.4213 99.193 73.816C99.465 74.2053 99.8383 74.4 100.313 74.4Z" fill="#484B52"/>
<path d="M16.566 63H15.39V58.806H16.566V58.188H17.1V58.806H17.316C17.688 58.806 17.976 58.902 18.18 59.094C18.384 59.286 18.486 59.566 18.486 59.934C18.486 60.142 18.436 60.326 18.336 60.486C18.24 60.642 18.112 60.758 17.952 60.834C18.4 60.966 18.624 61.292 18.624 61.812C18.624 62.056 18.57 62.268 18.462 62.448C18.358 62.624 18.214 62.76 18.03 62.856C17.846 62.952 17.642 63 17.418 63H17.1V63.618H16.566V63ZM16.566 60.606V59.304H16.002V60.606H16.566ZM17.238 60.606C17.434 60.606 17.588 60.552 17.7 60.444C17.812 60.336 17.868 60.176 17.868 59.964C17.868 59.72 17.812 59.55 17.7 59.454C17.592 59.354 17.424 59.304 17.196 59.304H17.1V60.606H17.238ZM16.566 62.502V61.11H16.002V62.502H16.566ZM17.28 62.502C17.516 62.502 17.696 62.45 17.82 62.346C17.944 62.242 18.006 62.064 18.006 61.812C18.006 61.56 17.94 61.38 17.808 61.272C17.68 61.164 17.486 61.11 17.226 61.11H17.1V62.502H17.28ZM20.4445 63.09C20.2005 63.09 19.9665 63.07 19.7425 63.03C19.5225 62.994 19.3305 62.938 19.1665 62.862V62.358C19.5385 62.526 19.9385 62.61 20.3665 62.61C20.7345 62.61 21.0065 62.544 21.1825 62.412C21.3625 62.276 21.4525 62.084 21.4525 61.836C21.4525 61.58 21.3605 61.398 21.1765 61.29C20.9925 61.178 20.7125 61.122 20.3365 61.122H19.8445V60.63H20.3245C20.6245 60.63 20.8665 60.57 21.0505 60.45C21.2345 60.326 21.3265 60.146 21.3265 59.91C21.3265 59.678 21.2505 59.502 21.0985 59.382C20.9465 59.262 20.7265 59.202 20.4385 59.202C20.2145 59.202 20.0125 59.228 19.8325 59.28C19.6525 59.332 19.4665 59.418 19.2745 59.538V59.034C19.6265 58.822 20.0385 58.716 20.5105 58.716C20.9785 58.716 21.3345 58.82 21.5785 59.028C21.8225 59.236 21.9445 59.524 21.9445 59.892C21.9445 60.116 21.8845 60.312 21.7645 60.48C21.6445 60.648 21.4645 60.778 21.2245 60.87C21.4965 60.934 21.7045 61.05 21.8485 61.218C21.9965 61.386 22.0705 61.598 22.0705 61.854C22.0705 62.234 21.9405 62.536 21.6805 62.76C21.4205 62.98 21.0085 63.09 20.4445 63.09ZM24.1898 63.09C23.8898 63.09 23.6198 63.022 23.3798 62.886C23.1438 62.746 22.9558 62.542 22.8158 62.274C22.6798 62.002 22.6118 61.676 22.6118 61.296C22.6118 60.464 22.7818 59.826 23.1218 59.382C23.4658 58.938 23.9578 58.716 24.5978 58.716C24.8178 58.716 25.0138 58.74 25.1858 58.788V59.304C25.0458 59.244 24.8658 59.214 24.6458 59.214C23.7898 59.214 23.3198 59.728 23.2358 60.756C23.3558 60.604 23.5138 60.49 23.7098 60.414C23.9098 60.334 24.1278 60.294 24.3638 60.294C24.6358 60.294 24.8738 60.35 25.0778 60.462C25.2818 60.574 25.4398 60.734 25.5518 60.942C25.6678 61.15 25.7258 61.392 25.7258 61.668C25.7258 61.94 25.6638 62.184 25.5398 62.4C25.4198 62.616 25.2438 62.786 25.0118 62.91C24.7798 63.03 24.5058 63.09 24.1898 63.09ZM24.1898 62.616C24.4698 62.616 24.6938 62.532 24.8618 62.364C25.0338 62.192 25.1198 61.966 25.1198 61.686C25.1198 61.406 25.0338 61.184 24.8618 61.02C24.6938 60.856 24.4698 60.774 24.1898 60.774C24.0178 60.774 23.8598 60.812 23.7158 60.888C23.5758 60.964 23.4638 61.072 23.3798 61.212C23.2998 61.352 23.2598 61.514 23.2598 61.698C23.2598 61.862 23.2978 62.014 23.3738 62.154C23.4538 62.294 23.5638 62.406 23.7038 62.49C23.8438 62.574 24.0058 62.616 24.1898 62.616ZM28.014 63.09C27.654 63.09 27.342 63.002 27.078 62.826C26.818 62.65 26.618 62.398 26.478 62.07C26.338 61.742 26.268 61.354 26.268 60.906C26.268 60.458 26.336 60.07 26.472 59.742C26.612 59.41 26.812 59.156 27.072 58.98C27.336 58.804 27.65 58.716 28.014 58.716C28.378 58.716 28.69 58.804 28.95 58.98C29.214 59.156 29.414 59.41 29.55 59.742C29.69 60.07 29.76 60.458 29.76 60.906C29.76 61.354 29.69 61.742 29.55 62.07C29.41 62.398 29.208 62.65 28.944 62.826C28.684 63.002 28.374 63.09 28.014 63.09ZM28.014 62.55C28.37 62.55 28.648 62.404 28.848 62.112C29.052 61.816 29.154 61.416 29.154 60.912C29.154 60.408 29.054 60.008 28.854 59.712C28.654 59.416 28.374 59.268 28.014 59.268C27.654 59.268 27.374 59.416 27.174 59.712C26.974 60.008 26.874 60.408 26.874 60.912C26.874 61.416 26.974 61.816 27.174 62.112C27.378 62.404 27.658 62.55 28.014 62.55ZM30.5813 63C30.5013 63 30.4333 62.974 30.3773 62.922C30.3253 62.866 30.2993 62.798 30.2993 62.718C30.2993 62.638 30.3253 62.57 30.3773 62.514C30.4333 62.458 30.5013 62.43 30.5813 62.43C30.6613 62.43 30.7293 62.458 30.7853 62.514C30.8413 62.57 30.8693 62.638 30.8693 62.718C30.8693 62.798 30.8413 62.866 30.7853 62.922C30.7293 62.974 30.6613 63 30.5813 63ZM33.1527 63.09C32.7927 63.09 32.4807 63.002 32.2167 62.826C31.9567 62.65 31.7567 62.398 31.6167 62.07C31.4767 61.742 31.4067 61.354 31.4067 60.906C31.4067 60.458 31.4747 60.07 31.6107 59.742C31.7507 59.41 31.9507 59.156 32.2107 58.98C32.4747 58.804 32.7887 58.716 33.1527 58.716C33.5167 58.716 33.8287 58.804 34.0887 58.98C34.3527 59.156 34.5527 59.41 34.6887 59.742C34.8287 60.07 34.8987 60.458 34.8987 60.906C34.8987 61.354 34.8287 61.742 34.6887 62.07C34.5487 62.398 34.3467 62.65 34.0827 62.826C33.8227 63.002 33.5127 63.09 33.1527 63.09ZM33.1527 62.55C33.5087 62.55 33.7867 62.404 33.9867 62.112C34.1907 61.816 34.2927 61.416 34.2927 60.912C34.2927 60.408 34.1927 60.008 33.9927 59.712C33.7927 59.416 33.5127 59.268 33.1527 59.268C32.7927 59.268 32.5127 59.416 32.3127 59.712C32.1127 60.008 32.0127 60.408 32.0127 60.912C32.0127 61.416 32.1127 61.816 32.3127 62.112C32.5167 62.404 32.7967 62.55 33.1527 62.55ZM37.184 63.09C36.824 63.09 36.512 63.002 36.248 62.826C35.988 62.65 35.788 62.398 35.648 62.07C35.508 61.742 35.438 61.354 35.438 60.906C35.438 60.458 35.506 60.07 35.642 59.742C35.782 59.41 35.982 59.156 36.242 58.98C36.506 58.804 36.82 58.716 37.184 58.716C37.548 58.716 37.86 58.804 38.12 58.98C38.384 59.156 38.584 59.41 38.72 59.742C38.86 60.07 38.93 60.458 38.93 60.906C38.93 61.354 38.86 61.742 38.72 62.07C38.58 62.398 38.378 62.65 38.114 62.826C37.854 63.002 37.544 63.09 37.184 63.09ZM37.184 62.55C37.54 62.55 37.818 62.404 38.018 62.112C38.222 61.816 38.324 61.416 38.324 60.912C38.324 60.408 38.224 60.008 38.024 59.712C37.824 59.416 37.544 59.268 37.184 59.268C36.824 59.268 36.544 59.416 36.344 59.712C36.144 60.008 36.044 60.408 36.044 60.912C36.044 61.416 36.144 61.816 36.344 62.112C36.548 62.404 36.828 62.55 37.184 62.55Z" fill="#9799A5"/>
<path d="M15 61.074H39.2V61.374H15V61.074Z" fill="#9799A5"/>
<path d="M76.566 63H75.39V58.806H76.566V58.188H77.1V58.806H77.316C77.688 58.806 77.976 58.902 78.18 59.094C78.384 59.286 78.486 59.566 78.486 59.934C78.486 60.142 78.436 60.326 78.336 60.486C78.24 60.642 78.112 60.758 77.952 60.834C78.4 60.966 78.624 61.292 78.624 61.812C78.624 62.056 78.57 62.268 78.462 62.448C78.358 62.624 78.214 62.76 78.03 62.856C77.846 62.952 77.642 63 77.418 63H77.1V63.618H76.566V63ZM76.566 60.606V59.304H76.002V60.606H76.566ZM77.238 60.606C77.434 60.606 77.588 60.552 77.7 60.444C77.812 60.336 77.868 60.176 77.868 59.964C77.868 59.72 77.812 59.55 77.7 59.454C77.592 59.354 77.424 59.304 77.196 59.304H77.1V60.606H77.238ZM76.566 62.502V61.11H76.002V62.502H76.566ZM77.28 62.502C77.516 62.502 77.696 62.45 77.82 62.346C77.944 62.242 78.006 62.064 78.006 61.812C78.006 61.56 77.94 61.38 77.808 61.272C77.68 61.164 77.486 61.11 77.226 61.11H77.1V62.502H77.28ZM80.4445 63.09C80.2005 63.09 79.9665 63.07 79.7425 63.03C79.5225 62.994 79.3305 62.938 79.1665 62.862V62.358C79.5385 62.526 79.9385 62.61 80.3665 62.61C80.7345 62.61 81.0065 62.544 81.1825 62.412C81.3625 62.276 81.4525 62.084 81.4525 61.836C81.4525 61.58 81.3605 61.398 81.1765 61.29C80.9925 61.178 80.7125 61.122 80.3365 61.122H79.8445V60.63H80.3245C80.6245 60.63 80.8665 60.57 81.0505 60.45C81.2345 60.326 81.3265 60.146 81.3265 59.91C81.3265 59.678 81.2505 59.502 81.0985 59.382C80.9465 59.262 80.7265 59.202 80.4385 59.202C80.2145 59.202 80.0125 59.228 79.8325 59.28C79.6525 59.332 79.4665 59.418 79.2745 59.538V59.034C79.6265 58.822 80.0385 58.716 80.5105 58.716C80.9785 58.716 81.3345 58.82 81.5785 59.028C81.8225 59.236 81.9445 59.524 81.9445 59.892C81.9445 60.116 81.8845 60.312 81.7645 60.48C81.6445 60.648 81.4645 60.778 81.2245 60.87C81.4965 60.934 81.7045 61.05 81.8485 61.218C81.9965 61.386 82.0705 61.598 82.0705 61.854C82.0705 62.234 81.9405 62.536 81.6805 62.76C81.4205 62.98 81.0085 63.09 80.4445 63.09ZM84.3578 63.09C83.9978 63.09 83.6858 63.002 83.4218 62.826C83.1618 62.65 82.9618 62.398 82.8218 62.07C82.6818 61.742 82.6118 61.354 82.6118 60.906C82.6118 60.458 82.6798 60.07 82.8158 59.742C82.9558 59.41 83.1558 59.156 83.4158 58.98C83.6798 58.804 83.9938 58.716 84.3578 58.716C84.7218 58.716 85.0338 58.804 85.2938 58.98C85.5578 59.156 85.7578 59.41 85.8938 59.742C86.0338 60.07 86.1038 60.458 86.1038 60.906C86.1038 61.354 86.0338 61.742 85.8938 62.07C85.7538 62.398 85.5518 62.65 85.2878 62.826C85.0278 63.002 84.7178 63.09 84.3578 63.09ZM84.3578 62.55C84.7138 62.55 84.9918 62.404 85.1918 62.112C85.3958 61.816 85.4978 61.416 85.4978 60.912C85.4978 60.408 85.3978 60.008 85.1978 59.712C84.9978 59.416 84.7178 59.268 84.3578 59.268C83.9978 59.268 83.7178 59.416 83.5178 59.712C83.3178 60.008 83.2178 60.408 83.2178 60.912C83.2178 61.416 83.3178 61.816 83.5178 62.112C83.7218 62.404 84.0018 62.55 84.3578 62.55ZM88.389 63.09C88.029 63.09 87.717 63.002 87.453 62.826C87.193 62.65 86.993 62.398 86.853 62.07C86.713 61.742 86.643 61.354 86.643 60.906C86.643 60.458 86.711 60.07 86.847 59.742C86.987 59.41 87.187 59.156 87.447 58.98C87.711 58.804 88.025 58.716 88.389 58.716C88.753 58.716 89.065 58.804 89.325 58.98C89.589 59.156 89.789 59.41 89.925 59.742C90.065 60.07 90.135 60.458 90.135 60.906C90.135 61.354 90.065 61.742 89.925 62.07C89.785 62.398 89.583 62.65 89.319 62.826C89.059 63.002 88.749 63.09 88.389 63.09ZM88.389 62.55C88.745 62.55 89.023 62.404 89.223 62.112C89.427 61.816 89.529 61.416 89.529 60.912C89.529 60.408 89.429 60.008 89.229 59.712C89.029 59.416 88.749 59.268 88.389 59.268C88.029 59.268 87.749 59.416 87.549 59.712C87.349 60.008 87.249 60.408 87.249 60.912C87.249 61.416 87.349 61.816 87.549 62.112C87.753 62.404 88.033 62.55 88.389 62.55ZM90.9563 63C90.8763 63 90.8083 62.974 90.7523 62.922C90.7003 62.866 90.6743 62.798 90.6743 62.718C90.6743 62.638 90.7003 62.57 90.7523 62.514C90.8083 62.458 90.8763 62.43 90.9563 62.43C91.0363 62.43 91.1043 62.458 91.1603 62.514C91.2163 62.57 91.2443 62.638 91.2443 62.718C91.2443 62.798 91.2163 62.866 91.1603 62.922C91.1043 62.974 91.0363 63 90.9563 63ZM93.5277 63.09C93.1677 63.09 92.8557 63.002 92.5917 62.826C92.3317 62.65 92.1317 62.398 91.9917 62.07C91.8517 61.742 91.7817 61.354 91.7817 60.906C91.7817 60.458 91.8497 60.07 91.9857 59.742C92.1257 59.41 92.3257 59.156 92.5857 58.98C92.8497 58.804 93.1637 58.716 93.5277 58.716C93.8917 58.716 94.2037 58.804 94.4637 58.98C94.7277 59.156 94.9277 59.41 95.0637 59.742C95.2037 60.07 95.2737 60.458 95.2737 60.906C95.2737 61.354 95.2037 61.742 95.0637 62.07C94.9237 62.398 94.7217 62.65 94.4577 62.826C94.1977 63.002 93.8877 63.09 93.5277 63.09ZM93.5277 62.55C93.8837 62.55 94.1617 62.404 94.3617 62.112C94.5657 61.816 94.6677 61.416 94.6677 60.912C94.6677 60.408 94.5677 60.008 94.3677 59.712C94.1677 59.416 93.8877 59.268 93.5277 59.268C93.1677 59.268 92.8877 59.416 92.6877 59.712C92.4877 60.008 92.3877 60.408 92.3877 60.912C92.3877 61.416 92.4877 61.816 92.6877 62.112C92.8917 62.404 93.1717 62.55 93.5277 62.55ZM97.559 63.09C97.199 63.09 96.887 63.002 96.623 62.826C96.363 62.65 96.163 62.398 96.023 62.07C95.883 61.742 95.813 61.354 95.813 60.906C95.813 60.458 95.881 60.07 96.017 59.742C96.157 59.41 96.357 59.156 96.617 58.98C96.881 58.804 97.195 58.716 97.559 58.716C97.923 58.716 98.235 58.804 98.495 58.98C98.759 59.156 98.959 59.41 99.095 59.742C99.235 60.07 99.305 60.458 99.305 60.906C99.305 61.354 99.235 61.742 99.095 62.07C98.955 62.398 98.753 62.65 98.489 62.826C98.229 63.002 97.919 63.09 97.559 63.09ZM97.559 62.55C97.915 62.55 98.193 62.404 98.393 62.112C98.597 61.816 98.699 61.416 98.699 60.912C98.699 60.408 98.599 60.008 98.399 59.712C98.199 59.416 97.919 59.268 97.559 59.268C97.199 59.268 96.919 59.416 96.719 59.712C96.519 60.008 96.419 60.408 96.419 60.912C96.419 61.416 96.519 61.816 96.719 62.112C96.923 62.404 97.203 62.55 97.559 62.55Z" fill="#9799A5"/>
<path d="M75 61.074H99.575V61.374H75V61.074Z" fill="#9799A5"/>
<path d="M15.6259 48.107H16.3399L18.0829 51.922L19.8259 48.107H20.5399V53H19.8469V49.521L18.2579 53H17.9079L16.3119 49.521V53H15.6259V48.107ZM23.2981 53.105C22.6775 53.105 22.1898 52.951 21.8351 52.643C21.4851 52.3303 21.3101 51.8917 21.3101 51.327C21.3101 50.7763 21.4665 50.34 21.7791 50.018C22.0965 49.696 22.5468 49.535 23.1301 49.535C23.5175 49.535 23.8465 49.6097 24.1171 49.759C24.3878 49.9037 24.5908 50.1067 24.7261 50.368C24.8661 50.6247 24.9361 50.9187 24.9361 51.25V51.6H21.9821C22.0055 51.9173 22.1385 52.1553 22.3811 52.314C22.6285 52.468 22.9621 52.545 23.3821 52.545C23.5968 52.545 23.8138 52.5263 24.0331 52.489C24.2525 52.447 24.4461 52.3933 24.6141 52.328V52.895C24.4648 52.9557 24.2665 53.0047 24.0191 53.042C23.7765 53.084 23.5361 53.105 23.2981 53.105ZM24.2711 51.103C24.2618 50.7857 24.1568 50.5407 23.9561 50.368C23.7601 50.1907 23.4801 50.102 23.1161 50.102C22.7615 50.102 22.4861 50.193 22.2901 50.375C22.0941 50.557 21.9915 50.7997 21.9821 51.103H24.2711ZM25.7089 49.64H26.3809V50.123C26.5396 49.927 26.7192 49.78 26.9199 49.682C27.1206 49.584 27.3282 49.535 27.5429 49.535C27.8136 49.535 28.0282 49.5817 28.1869 49.675C28.3456 49.7637 28.4622 49.9013 28.5369 50.088C28.6862 49.906 28.8682 49.7683 29.0829 49.675C29.3022 49.5817 29.5216 49.535 29.7409 49.535C30.1516 49.535 30.4479 49.64 30.6299 49.85C30.8119 50.0553 30.9029 50.361 30.9029 50.767V53H30.2169V50.858C30.2169 50.5827 30.1656 50.389 30.0629 50.277C29.9602 50.1603 29.7852 50.102 29.5379 50.102C29.1832 50.102 28.8939 50.256 28.6699 50.564C28.6792 50.634 28.6839 50.7483 28.6839 50.907V53H27.9979V50.858C27.9979 50.5827 27.9512 50.389 27.8579 50.277C27.7646 50.1603 27.5966 50.102 27.3539 50.102C26.9992 50.102 26.6819 50.3027 26.4019 50.704V53H25.7089V49.64ZM33.8652 53.105C33.5619 53.105 33.2982 53.0583 33.0742 52.965C32.8549 52.867 32.6519 52.7153 32.4652 52.51V53H31.7792V47.827H32.4862V50.088C32.6402 49.906 32.8386 49.7683 33.0812 49.675C33.3239 49.5817 33.5852 49.535 33.8652 49.535C34.2012 49.535 34.5022 49.612 34.7682 49.766C35.0389 49.9153 35.2489 50.1253 35.3982 50.396C35.5522 50.6667 35.6292 50.977 35.6292 51.327C35.6292 51.6817 35.5522 51.9943 35.3982 52.265C35.2489 52.531 35.0389 52.7387 34.7682 52.888C34.5022 53.0327 34.2012 53.105 33.8652 53.105ZM33.7042 52.545C33.9329 52.545 34.1382 52.496 34.3202 52.398C34.5069 52.2953 34.6516 52.1507 34.7542 51.964C34.8616 51.7773 34.9152 51.565 34.9152 51.327C34.9152 51.089 34.8616 50.8767 34.7542 50.69C34.6516 50.5033 34.5069 50.3587 34.3202 50.256C34.1382 50.1533 33.9329 50.102 33.7042 50.102C33.4196 50.102 33.1652 50.179 32.9412 50.333C32.7172 50.487 32.5656 50.6923 32.4862 50.949V51.705C32.5749 51.9617 32.7266 52.167 32.9412 52.321C33.1606 52.4703 33.4149 52.545 33.7042 52.545ZM38.2483 53.105C37.6276 53.105 37.14 52.951 36.7853 52.643C36.4353 52.3303 36.2603 51.8917 36.2603 51.327C36.2603 50.7763 36.4166 50.34 36.7293 50.018C37.0466 49.696 37.497 49.535 38.0803 49.535C38.4676 49.535 38.7966 49.6097 39.0673 49.759C39.338 49.9037 39.541 50.1067 39.6763 50.368C39.8163 50.6247 39.8863 50.9187 39.8863 51.25V51.6H36.9323C36.9556 51.9173 37.0886 52.1553 37.3313 52.314C37.5786 52.468 37.9123 52.545 38.3323 52.545C38.547 52.545 38.764 52.5263 38.9833 52.489C39.2026 52.447 39.3963 52.3933 39.5643 52.328V52.895C39.415 52.9557 39.2166 53.0047 38.9693 53.042C38.7266 53.084 38.4863 53.105 38.2483 53.105ZM39.2213 51.103C39.212 50.7857 39.107 50.5407 38.9063 50.368C38.7103 50.1907 38.4303 50.102 38.0663 50.102C37.7116 50.102 37.4363 50.193 37.2403 50.375C37.0443 50.557 36.9416 50.7997 36.9323 51.103H39.2213ZM40.6591 49.64H41.3451V50.242C41.4851 50.0367 41.6811 49.885 41.9331 49.787C42.1898 49.689 42.4861 49.64 42.8221 49.64V50.193C42.4628 50.193 42.1548 50.2513 41.8981 50.368C41.6414 50.4847 41.4641 50.669 41.3661 50.921V53H40.6591V49.64Z" fill="#484B52"/>
<path d="M75.315 49.107H76.071L77.611 53.027L79.151 49.107H79.907L77.954 54H77.268L75.315 49.107ZM80.6777 49.107H81.3987V54H80.6777V49.107ZM82.3114 49.107H84.1944C84.7218 49.107 85.1371 49.24 85.4404 49.506C85.7484 49.7673 85.9024 50.1407 85.9024 50.626C85.9024 51.1207 85.7508 51.4963 85.4474 51.753C85.1441 52.005 84.7264 52.131 84.1944 52.131H83.0254V54H82.3114V49.107ZM84.1174 51.536C84.4441 51.536 84.7031 51.4683 84.8944 51.333C85.0858 51.1977 85.1814 50.962 85.1814 50.626C85.1814 50.29 85.0858 50.0543 84.8944 49.919C84.7031 49.779 84.4441 49.709 84.1174 49.709H83.0254V51.536H84.1174Z" fill="#484B52"/>
<path d="M114.763 33.09C114.519 33.09 114.285 33.07 114.061 33.03C113.841 32.994 113.649 32.938 113.485 32.862V32.358C113.857 32.526 114.257 32.61 114.685 32.61C115.053 32.61 115.325 32.544 115.501 32.412C115.681 32.276 115.771 32.084 115.771 31.836C115.771 31.58 115.679 31.398 115.495 31.29C115.311 31.178 115.031 31.122 114.655 31.122H114.163V30.63H114.643C114.943 30.63 115.185 30.57 115.369 30.45C115.553 30.326 115.645 30.146 115.645 29.91C115.645 29.678 115.569 29.502 115.417 29.382C115.265 29.262 115.045 29.202 114.757 29.202C114.533 29.202 114.331 29.228 114.151 29.28C113.971 29.332 113.785 29.418 113.593 29.538V29.034C113.945 28.822 114.357 28.716 114.829 28.716C115.297 28.716 115.653 28.82 115.897 29.028C116.141 29.236 116.263 29.524 116.263 29.892C116.263 30.116 116.203 30.312 116.083 30.48C115.963 30.648 115.783 30.778 115.543 30.87C115.815 30.934 116.023 31.05 116.167 31.218C116.315 31.386 116.389 31.598 116.389 31.854C116.389 32.234 116.259 32.536 115.999 32.76C115.739 32.98 115.327 33.09 114.763 33.09ZM118.676 33.09C118.316 33.09 118.004 33.002 117.74 32.826C117.48 32.65 117.28 32.398 117.14 32.07C117 31.742 116.93 31.354 116.93 30.906C116.93 30.458 116.998 30.07 117.134 29.742C117.274 29.41 117.474 29.156 117.734 28.98C117.998 28.804 118.312 28.716 118.676 28.716C119.04 28.716 119.352 28.804 119.612 28.98C119.876 29.156 120.076 29.41 120.212 29.742C120.352 30.07 120.422 30.458 120.422 30.906C120.422 31.354 120.352 31.742 120.212 32.07C120.072 32.398 119.87 32.65 119.606 32.826C119.346 33.002 119.036 33.09 118.676 33.09ZM118.676 32.55C119.032 32.55 119.31 32.404 119.51 32.112C119.714 31.816 119.816 31.416 119.816 30.912C119.816 30.408 119.716 30.008 119.516 29.712C119.316 29.416 119.036 29.268 118.676 29.268C118.316 29.268 118.036 29.416 117.836 29.712C117.636 30.008 117.536 30.408 117.536 30.912C117.536 31.416 117.636 31.816 117.836 32.112C118.04 32.404 118.32 32.55 118.676 32.55ZM122.077 30.918C121.877 30.918 121.693 30.87 121.525 30.774C121.357 30.674 121.223 30.54 121.123 30.372C121.027 30.204 120.979 30.02 120.979 29.82C120.979 29.62 121.027 29.436 121.123 29.268C121.223 29.096 121.357 28.962 121.525 28.866C121.693 28.766 121.877 28.716 122.077 28.716C122.277 28.716 122.461 28.766 122.629 28.866C122.801 28.962 122.935 29.096 123.031 29.268C123.131 29.436 123.181 29.62 123.181 29.82C123.181 30.02 123.131 30.204 123.031 30.372C122.935 30.54 122.801 30.674 122.629 30.774C122.461 30.87 122.277 30.918 122.077 30.918ZM124.219 28.806H124.813L122.491 33H121.897L124.219 28.806ZM122.077 30.474C122.261 30.474 122.413 30.412 122.533 30.288C122.657 30.164 122.719 30.012 122.719 29.832C122.719 29.648 122.657 29.494 122.533 29.37C122.413 29.246 122.261 29.184 122.077 29.184C121.893 29.184 121.739 29.246 121.615 29.37C121.495 29.494 121.435 29.648 121.435 29.832C121.435 30.012 121.495 30.164 121.615 30.288C121.739 30.412 121.893 30.474 122.077 30.474ZM124.627 33.09C124.427 33.09 124.243 33.042 124.075 32.946C123.907 32.846 123.773 32.712 123.673 32.544C123.577 32.376 123.529 32.192 123.529 31.992C123.529 31.792 123.577 31.608 123.673 31.44C123.773 31.268 123.907 31.134 124.075 31.038C124.243 30.938 124.427 30.888 124.627 30.888C124.827 30.888 125.011 30.938 125.179 31.038C125.351 31.134 125.485 31.268 125.581 31.44C125.681 31.608 125.731 31.792 125.731 31.992C125.731 32.192 125.681 32.376 125.581 32.544C125.485 32.712 125.351 32.846 125.179 32.946C125.011 33.042 124.827 33.09 124.627 33.09ZM124.621 32.646C124.805 32.646 124.959 32.584 125.083 32.46C125.207 32.336 125.269 32.184 125.269 32.004C125.269 31.82 125.207 31.666 125.083 31.542C124.959 31.418 124.805 31.356 124.621 31.356C124.441 31.356 124.289 31.418 124.165 31.542C124.041 31.666 123.979 31.82 123.979 32.004C123.979 32.184 124.041 32.336 124.165 32.46C124.289 32.584 124.441 32.646 124.621 32.646Z" fill="#9799A5"/>
<path d="M115.827 49.322H113.601V48.806H116.451V49.256L114.765 53H114.165L115.827 49.322ZM118.676 53.09C118.316 53.09 118.004 53.002 117.74 52.826C117.48 52.65 117.28 52.398 117.14 52.07C117 51.742 116.93 51.354 116.93 50.906C116.93 50.458 116.998 50.07 117.134 49.742C117.274 49.41 117.474 49.156 117.734 48.98C117.998 48.804 118.312 48.716 118.676 48.716C119.04 48.716 119.352 48.804 119.612 48.98C119.876 49.156 120.076 49.41 120.212 49.742C120.352 50.07 120.422 50.458 120.422 50.906C120.422 51.354 120.352 51.742 120.212 52.07C120.072 52.398 119.87 52.65 119.606 52.826C119.346 53.002 119.036 53.09 118.676 53.09ZM118.676 52.55C119.032 52.55 119.31 52.404 119.51 52.112C119.714 51.816 119.816 51.416 119.816 50.912C119.816 50.408 119.716 50.008 119.516 49.712C119.316 49.416 119.036 49.268 118.676 49.268C118.316 49.268 118.036 49.416 117.836 49.712C117.636 50.008 117.536 50.408 117.536 50.912C117.536 51.416 117.636 51.816 117.836 52.112C118.04 52.404 118.32 52.55 118.676 52.55ZM122.077 50.918C121.877 50.918 121.693 50.87 121.525 50.774C121.357 50.674 121.223 50.54 121.123 50.372C121.027 50.204 120.979 50.02 120.979 49.82C120.979 49.62 121.027 49.436 121.123 49.268C121.223 49.096 121.357 48.962 121.525 48.866C121.693 48.766 121.877 48.716 122.077 48.716C122.277 48.716 122.461 48.766 122.629 48.866C122.801 48.962 122.935 49.096 123.031 49.268C123.131 49.436 123.181 49.62 123.181 49.82C123.181 50.02 123.131 50.204 123.031 50.372C122.935 50.54 122.801 50.674 122.629 50.774C122.461 50.87 122.277 50.918 122.077 50.918ZM124.219 48.806H124.813L122.491 53H121.897L124.219 48.806ZM122.077 50.474C122.261 50.474 122.413 50.412 122.533 50.288C122.657 50.164 122.719 50.012 122.719 49.832C122.719 49.648 122.657 49.494 122.533 49.37C122.413 49.246 122.261 49.184 122.077 49.184C121.893 49.184 121.739 49.246 121.615 49.37C121.495 49.494 121.435 49.648 121.435 49.832C121.435 50.012 121.495 50.164 121.615 50.288C121.739 50.412 121.893 50.474 122.077 50.474ZM124.627 53.09C124.427 53.09 124.243 53.042 124.075 52.946C123.907 52.846 123.773 52.712 123.673 52.544C123.577 52.376 123.529 52.192 123.529 51.992C123.529 51.792 123.577 51.608 123.673 51.44C123.773 51.268 123.907 51.134 124.075 51.038C124.243 50.938 124.427 50.888 124.627 50.888C124.827 50.888 125.011 50.938 125.179 51.038C125.351 51.134 125.485 51.268 125.581 51.44C125.681 51.608 125.731 51.792 125.731 51.992C125.731 52.192 125.681 52.376 125.581 52.544C125.485 52.712 125.351 52.846 125.179 52.946C125.011 53.042 124.827 53.09 124.627 53.09ZM124.621 52.646C124.805 52.646 124.959 52.584 125.083 52.46C125.207 52.336 125.269 52.184 125.269 52.004C125.269 51.82 125.207 51.666 125.083 51.542C124.959 51.418 124.805 51.356 124.621 51.356C124.441 51.356 124.289 51.418 124.165 51.542C124.041 51.666 123.979 51.82 123.979 52.004C123.979 52.184 124.041 52.336 124.165 52.46C124.289 52.584 124.441 52.646 124.621 52.646Z" fill="#E0E0E7"/>
<path d="M19.39 83.806H19.972L22.108 86.968V83.806H22.726V88H22.138L20.002 84.838V88H19.39V83.806ZM25.0873 88.09C24.5553 88.09 24.1373 87.958 23.8333 87.694C23.5333 87.426 23.3833 87.05 23.3833 86.566C23.3833 86.094 23.5173 85.72 23.7853 85.444C24.0573 85.168 24.4433 85.03 24.9433 85.03C25.2753 85.03 25.5573 85.094 25.7893 85.222C26.0213 85.346 26.1953 85.52 26.3113 85.744C26.4313 85.964 26.4913 86.216 26.4913 86.5V86.8H23.9593C23.9793 87.072 24.0933 87.276 24.3013 87.412C24.5133 87.544 24.7993 87.61 25.1593 87.61C25.3433 87.61 25.5293 87.594 25.7173 87.562C25.9053 87.526 26.0713 87.48 26.2153 87.424V87.91C26.0873 87.962 25.9173 88.004 25.7053 88.036C25.4973 88.072 25.2913 88.09 25.0873 88.09ZM25.9213 86.374C25.9133 86.102 25.8233 85.892 25.6513 85.744C25.4833 85.592 25.2433 85.516 24.9313 85.516C24.6273 85.516 24.3913 85.594 24.2233 85.75C24.0553 85.906 23.9673 86.114 23.9593 86.374H25.9213ZM28.1857 88.09C27.8377 88.09 27.5577 88.002 27.3457 87.826C27.1377 87.646 27.0337 87.404 27.0337 87.1C27.0337 86.78 27.1337 86.534 27.3337 86.362C27.5377 86.186 27.8257 86.098 28.1977 86.098C28.5937 86.098 28.9297 86.178 29.2057 86.338V86.188C29.2057 85.96 29.1357 85.792 28.9957 85.684C28.8597 85.572 28.6437 85.516 28.3477 85.516C28.1717 85.516 27.9997 85.534 27.8317 85.57C27.6677 85.602 27.5197 85.648 27.3877 85.708V85.216C27.5077 85.16 27.6637 85.116 27.8557 85.084C28.0477 85.048 28.2337 85.03 28.4137 85.03C28.8897 85.03 29.2417 85.136 29.4697 85.348C29.7017 85.556 29.8177 85.846 29.8177 86.218V88H29.2477V87.676C29.1237 87.812 28.9757 87.916 28.8037 87.988C28.6357 88.056 28.4297 88.09 28.1857 88.09ZM28.3357 87.628C28.5277 87.628 28.7017 87.59 28.8577 87.514C29.0137 87.438 29.1297 87.332 29.2057 87.196V86.806C28.9457 86.638 28.6557 86.554 28.3357 86.554C28.1037 86.554 27.9297 86.6 27.8137 86.692C27.7017 86.78 27.6457 86.916 27.6457 87.1C27.6457 87.452 27.8757 87.628 28.3357 87.628ZM30.5697 85.12H31.1577V85.636C31.2777 85.46 31.4457 85.33 31.6617 85.246C31.8817 85.162 32.1357 85.12 32.4237 85.12V85.594C32.1157 85.594 31.8517 85.644 31.6317 85.744C31.4117 85.844 31.2597 86.002 31.1757 86.218V88H30.5697V85.12ZM36.7709 88.09C36.2389 88.09 35.8209 87.958 35.5169 87.694C35.2169 87.426 35.0669 87.05 35.0669 86.566C35.0669 86.094 35.2009 85.72 35.4689 85.444C35.7409 85.168 36.1269 85.03 36.6269 85.03C36.9589 85.03 37.2409 85.094 37.4729 85.222C37.7049 85.346 37.8789 85.52 37.9949 85.744C38.1149 85.964 38.1749 86.216 38.1749 86.5V86.8H35.6429C35.6629 87.072 35.7769 87.276 35.9849 87.412C36.1969 87.544 36.4829 87.61 36.8429 87.61C37.0269 87.61 37.2129 87.594 37.4009 87.562C37.5889 87.526 37.7549 87.48 37.8989 87.424V87.91C37.7709 87.962 37.6009 88.004 37.3889 88.036C37.1809 88.072 36.9749 88.09 36.7709 88.09ZM37.6049 86.374C37.5969 86.102 37.5069 85.892 37.3349 85.744C37.1669 85.592 36.9269 85.516 36.6149 85.516C36.3109 85.516 36.0749 85.594 35.9069 85.75C35.7389 85.906 35.6509 86.114 35.6429 86.374H37.6049ZM39.8361 86.494L38.7081 85.12H39.3981L40.1781 86.074L40.9641 85.12H41.6541L40.5261 86.494L41.7621 88H41.0781L40.1781 86.914L39.2841 88H38.6001L39.8361 86.494ZM42.4232 85.12H43.0112V85.546C43.3072 85.202 43.7072 85.03 44.2112 85.03C44.4992 85.03 44.7572 85.094 44.9852 85.222C45.2172 85.35 45.3972 85.53 45.5252 85.762C45.6572 85.99 45.7232 86.256 45.7232 86.56C45.7232 86.86 45.6572 87.126 45.5252 87.358C45.3972 87.59 45.2192 87.77 44.9912 87.898C44.7632 88.026 44.5032 88.09 44.2112 88.09C43.9712 88.09 43.7472 88.05 43.5392 87.97C43.3312 87.89 43.1612 87.772 43.0292 87.616V89.314H42.4232V85.12ZM44.0732 87.61C44.2692 87.61 44.4452 87.568 44.6012 87.484C44.7612 87.396 44.8852 87.272 44.9732 87.112C45.0652 86.952 45.1112 86.768 45.1112 86.56C45.1112 86.352 45.0652 86.17 44.9732 86.014C44.8852 85.854 44.7612 85.732 44.6012 85.648C44.4452 85.56 44.2692 85.516 44.0732 85.516C43.8292 85.516 43.6132 85.58 43.4252 85.708C43.2412 85.836 43.1092 86.012 43.0292 86.236V86.884C43.0972 87.104 43.2272 87.28 43.4192 87.412C43.6112 87.544 43.8292 87.61 44.0732 87.61ZM46.7381 84.556C46.6381 84.556 46.5541 84.522 46.4861 84.454C46.4181 84.386 46.3841 84.302 46.3841 84.202C46.3841 84.102 46.4181 84.018 46.4861 83.95C46.5541 83.882 46.6381 83.848 46.7381 83.848C46.8421 83.848 46.9281 83.882 46.9961 83.95C47.0681 84.018 47.1041 84.102 47.1041 84.202C47.1041 84.302 47.0681 84.386 46.9961 84.454C46.9281 84.522 46.8421 84.556 46.7381 84.556ZM46.4321 85.12H47.0501V88H46.4321V85.12ZM47.8841 85.12H48.4721V85.636C48.5921 85.46 48.7601 85.33 48.9761 85.246C49.1961 85.162 49.4501 85.12 49.7381 85.12V85.594C49.4301 85.594 49.1661 85.644 48.9461 85.744C48.7261 85.844 48.5741 86.002 48.4901 86.218V88H47.8841V85.12ZM51.0431 88.09C50.6951 88.09 50.4151 88.002 50.2031 87.826C49.9951 87.646 49.8911 87.404 49.8911 87.1C49.8911 86.78 49.9911 86.534 50.1911 86.362C50.3951 86.186 50.6831 86.098 51.0551 86.098C51.4511 86.098 51.7871 86.178 52.0631 86.338V86.188C52.0631 85.96 51.9931 85.792 51.8531 85.684C51.7171 85.572 51.5011 85.516 51.2051 85.516C51.0291 85.516 50.8571 85.534 50.6891 85.57C50.5251 85.602 50.3771 85.648 50.2451 85.708V85.216C50.3651 85.16 50.5211 85.116 50.7131 85.084C50.9051 85.048 51.0911 85.03 51.2711 85.03C51.7471 85.03 52.0991 85.136 52.3271 85.348C52.5591 85.556 52.6751 85.846 52.6751 86.218V88H52.1051V87.676C51.9811 87.812 51.8331 87.916 51.6611 87.988C51.4931 88.056 51.2871 88.09 51.0431 88.09ZM51.1931 87.628C51.3851 87.628 51.5591 87.59 51.7151 87.514C51.8711 87.438 51.9871 87.332 52.0631 87.196V86.806C51.8031 86.638 51.5131 86.554 51.1931 86.554C50.9611 86.554 50.7871 86.6 50.6711 86.692C50.5591 86.78 50.5031 86.916 50.5031 87.1C50.5031 87.452 50.7331 87.628 51.1931 87.628ZM54.3848 88.09C54.0928 88.09 53.8668 88.006 53.7068 87.838C53.5508 87.67 53.4728 87.432 53.4728 87.124V85.588H53.0348V85.12H53.4728V84.256H54.0848V85.12H54.7928V85.588H54.0848V87.082C54.0848 87.274 54.1208 87.41 54.1928 87.49C54.2688 87.57 54.4048 87.61 54.6008 87.61C54.7168 87.61 54.8328 87.584 54.9488 87.532V88.012C54.7968 88.064 54.6088 88.09 54.3848 88.09ZM55.8729 84.556C55.7729 84.556 55.6889 84.522 55.6209 84.454C55.5529 84.386 55.5189 84.302 55.5189 84.202C55.5189 84.102 55.5529 84.018 55.6209 83.95C55.6889 83.882 55.7729 83.848 55.8729 83.848C55.9769 83.848 56.0629 83.882 56.1309 83.95C56.2029 84.018 56.2389 84.102 56.2389 84.202C56.2389 84.302 56.2029 84.386 56.1309 84.454C56.0629 84.522 55.9769 84.556 55.8729 84.556ZM55.5669 85.12H56.1849V88H55.5669V85.12ZM58.5369 88.09C58.2129 88.09 57.9269 88.03 57.6789 87.91C57.4349 87.786 57.2429 87.61 57.1029 87.382C56.9669 87.15 56.8989 86.878 56.8989 86.566C56.8989 86.258 56.9669 85.988 57.1029 85.756C57.2389 85.524 57.4309 85.346 57.6789 85.222C57.9269 85.094 58.2129 85.03 58.5369 85.03C58.8609 85.03 59.1469 85.094 59.3949 85.222C59.6429 85.346 59.8349 85.524 59.9709 85.756C60.1109 85.988 60.1809 86.258 60.1809 86.566C60.1809 86.878 60.1109 87.15 59.9709 87.382C59.8349 87.61 59.6429 87.786 59.3949 87.91C59.1469 88.03 58.8609 88.09 58.5369 88.09ZM58.5369 87.61C58.8489 87.61 59.0969 87.514 59.2809 87.322C59.4649 87.13 59.5569 86.878 59.5569 86.566C59.5569 86.242 59.4649 85.986 59.2809 85.798C59.0969 85.61 58.8489 85.516 58.5369 85.516C58.2249 85.516 57.9769 85.61 57.7929 85.798C57.6089 85.986 57.5169 86.242 57.5169 86.566C57.5169 86.878 57.6089 87.13 57.7929 87.322C57.9769 87.514 58.2249 87.61 58.5369 87.61ZM60.8392 85.12H61.4272V85.534C61.5632 85.362 61.7292 85.236 61.9252 85.156C62.1252 85.072 62.3332 85.03 62.5492 85.03C62.9332 85.03 63.2192 85.132 63.4072 85.336C63.5952 85.54 63.6892 85.814 63.6892 86.158V88H63.0832V86.218C63.0832 85.75 62.8592 85.516 62.4112 85.516C62.2192 85.516 62.0392 85.562 61.8712 85.654C61.7072 85.742 61.5652 85.878 61.4452 86.062V88H60.8392V85.12Z" fill="#4D4D4D"/>
<path d="M68.27 87.598L69.176 86.728C69.256 86.648 69.368 86.544 69.512 86.416C69.74 86.208 69.914 86.04 70.034 85.912C70.154 85.784 70.252 85.648 70.328 85.504C70.404 85.356 70.442 85.198 70.442 85.03C70.442 84.782 70.37 84.594 70.226 84.466C70.082 84.334 69.872 84.268 69.596 84.268C69.408 84.268 69.214 84.302 69.014 84.37C68.818 84.438 68.634 84.538 68.462 84.67V84.082C68.798 83.838 69.208 83.716 69.692 83.716C70.124 83.716 70.46 83.832 70.7 84.064C70.94 84.292 71.06 84.604 71.06 85C71.06 85.192 71.018 85.376 70.934 85.552C70.854 85.728 70.74 85.902 70.592 86.074C70.444 86.242 70.244 86.448 69.992 86.692L69.176 87.49H71.216V88H68.27V87.598ZM75.489 88.09C75.201 88.09 74.941 88.028 74.709 87.904C74.481 87.776 74.301 87.598 74.169 87.37C74.041 87.138 73.977 86.87 73.977 86.566C73.977 86.266 74.041 86 74.169 85.768C74.301 85.536 74.481 85.356 74.709 85.228C74.941 85.096 75.201 85.03 75.489 85.03C76.009 85.03 76.403 85.188 76.671 85.504V83.566H77.277V88H76.689V87.58C76.529 87.756 76.353 87.886 76.161 87.97C75.973 88.05 75.749 88.09 75.489 88.09ZM75.627 87.61C75.875 87.61 76.091 87.546 76.275 87.418C76.463 87.286 76.595 87.11 76.671 86.89V86.242C76.603 86.022 76.473 85.846 76.281 85.714C76.093 85.582 75.875 85.516 75.627 85.516C75.431 85.516 75.253 85.56 75.093 85.648C74.937 85.736 74.813 85.86 74.721 86.02C74.633 86.18 74.589 86.362 74.589 86.566C74.589 86.77 74.633 86.952 74.721 87.112C74.813 87.272 74.937 87.396 75.093 87.484C75.253 87.568 75.431 87.61 75.627 87.61ZM79.0021 88.09C78.6541 88.09 78.3741 88.002 78.1621 87.826C77.9541 87.646 77.8501 87.404 77.8501 87.1C77.8501 86.78 77.9501 86.534 78.1501 86.362C78.3541 86.186 78.6421 86.098 79.0141 86.098C79.4101 86.098 79.7461 86.178 80.0221 86.338V86.188C80.0221 85.96 79.9521 85.792 79.8121 85.684C79.6761 85.572 79.4601 85.516 79.1641 85.516C78.9881 85.516 78.8161 85.534 78.6481 85.57C78.4841 85.602 78.3361 85.648 78.2041 85.708V85.216C78.3241 85.16 78.4801 85.116 78.6721 85.084C78.8641 85.048 79.0501 85.03 79.2301 85.03C79.7061 85.03 80.0581 85.136 80.2861 85.348C80.5181 85.556 80.6341 85.846 80.6341 86.218V88H80.0641V87.676C79.9401 87.812 79.7921 87.916 79.6201 87.988C79.4521 88.056 79.2461 88.09 79.0021 88.09ZM79.1521 87.628C79.3441 87.628 79.5181 87.59 79.6741 87.514C79.8301 87.438 79.9461 87.332 80.0221 87.196V86.806C79.7621 86.638 79.4721 86.554 79.1521 86.554C78.9201 86.554 78.7461 86.6 78.6301 86.692C78.5181 86.78 78.4621 86.916 78.4621 87.1C78.4621 87.452 78.6921 87.628 79.1521 87.628ZM81.7286 89.188C81.5126 89.188 81.3326 89.166 81.1886 89.122V88.648C81.2926 88.688 81.4206 88.708 81.5726 88.708C81.7126 88.708 81.8226 88.672 81.9026 88.6C81.9826 88.532 82.0546 88.42 82.1186 88.264L82.2566 87.928L80.9966 85.12H81.6206L82.5806 87.334L83.4746 85.12H84.0986L82.8026 88.324C82.6826 88.624 82.5386 88.842 82.3706 88.978C82.2066 89.118 81.9926 89.188 81.7286 89.188ZM85.4305 88.09C85.2305 88.09 85.0185 88.064 84.7945 88.012C84.5705 87.964 84.3945 87.898 84.2665 87.814V87.298C84.4225 87.39 84.6025 87.466 84.8065 87.526C85.0105 87.582 85.2085 87.61 85.4005 87.61C85.6165 87.61 85.7745 87.584 85.8745 87.532C85.9745 87.48 86.0245 87.396 86.0245 87.28C86.0245 87.192 86.0005 87.122 85.9525 87.07C85.9085 87.014 85.8305 86.964 85.7185 86.92C85.6105 86.876 85.4465 86.824 85.2265 86.764C84.9905 86.696 84.8025 86.628 84.6625 86.56C84.5265 86.488 84.4225 86.398 84.3505 86.29C84.2825 86.182 84.2485 86.042 84.2485 85.87C84.2485 85.594 84.3565 85.386 84.5725 85.246C84.7925 85.102 85.0865 85.03 85.4545 85.03C85.6465 85.03 85.8345 85.048 86.0185 85.084C86.2025 85.12 86.3505 85.17 86.4625 85.234V85.738C86.3465 85.67 86.2025 85.616 86.0305 85.576C85.8625 85.536 85.6905 85.516 85.5145 85.516C85.3025 85.516 85.1405 85.542 85.0285 85.594C84.9165 85.646 84.8605 85.738 84.8605 85.87C84.8605 85.954 84.8845 86.022 84.9325 86.074C84.9805 86.126 85.0565 86.172 85.1605 86.212C85.2685 86.248 85.4385 86.296 85.6705 86.356C86.0345 86.456 86.2865 86.574 86.4265 86.71C86.5705 86.846 86.6425 87.034 86.6425 87.274C86.6425 87.522 86.5405 87.72 86.3365 87.868C86.1325 88.016 85.8305 88.09 85.4305 88.09Z" fill="#F05050"/>
<defs>
<filter id="filter0_d_7427_137934" x="0" y="0" width="141" height="102" filterUnits="userSpaceOnUse" color-interpolation-filters="sRGB">
<feFlood flood-opacity="0" result="BackgroundImageFix"/>
<feColorMatrix in="SourceAlpha" type="matrix" values="0 0 0 0 0 0 0 0 0 0 0 0 0 0 0 0 0 0 127 0" result="hardAlpha"/>
<feOffset/>
<feGaussianBlur stdDeviation="2"/>
<feColorMatrix type="matrix" values="0 0 0 0 0 0 0 0 0 0 0 0 0 0 0 0 0 0 0.1 0"/>
<feBlend mode="normal" in2="BackgroundImageFix" result="effect1_dropShadow_7427_137934"/>
<feBlend mode="normal" in="SourceGraphic" in2="effect1_dropShadow_7427_137934" result="shape"/>
</filter>
</defs>
</svg>
