<svg width="86" height="62" viewBox="0 0 86 62" fill="none" xmlns="http://www.w3.org/2000/svg">
<rect width="86" height="62" rx="4" fill="#F8F8FB"/>
<rect x="13" y="16" width="60" height="30" rx="4" fill="#606367"/>
<path fill-rule="evenodd" clip-rule="evenodd" d="M23.6352 25C23.2844 25 23 25.2821 23 25.63C23 25.9779 23.2844 26.26 23.6352 26.26H25.4763L25.7741 27.3673C25.7816 27.3955 25.791 27.4227 25.8021 27.4489L26.426 33.1752C26.4725 33.6018 26.8355 33.925 27.2681 33.925H35.0904C35.4939 33.925 35.8414 33.6427 35.9208 33.2503L36.9832 28.0003C37.0884 27.4803 36.6874 26.995 36.1528 26.995H26.9888L26.62 25.6236C26.5212 25.2559 26.1854 25 25.8017 25H23.6352ZM29.1405 37.6C29.959 37.6 30.6226 36.9419 30.6226 36.13C30.6226 35.3181 29.959 34.66 29.1405 34.66C28.3219 34.66 27.6583 35.3181 27.6583 36.13C27.6583 36.9419 28.3219 37.6 29.1405 37.6ZM35.2809 36.13C35.2809 36.9419 34.6173 37.6 33.7987 37.6C32.9801 37.6 32.3166 36.9419 32.3166 36.13C32.3166 35.3181 32.9801 34.66 33.7987 34.66C34.6173 34.66 35.2809 35.3181 35.2809 36.13ZM29.906 31.631L30.4701 31.1219L30.714 30.9052C30.9139 30.7305 31.0664 30.591 31.1714 30.4869C31.2798 30.3827 31.3679 30.2769 31.4356 30.1694C31.5068 30.0618 31.5424 29.956 31.5424 29.8518C31.5424 29.5394 31.3645 29.3831 31.0088 29.3831C30.836 29.3831 30.6649 29.4134 30.4955 29.4738C30.3295 29.5343 30.1754 29.6183 30.0331 29.7258V28.8741C30.1855 28.7699 30.3634 28.6893 30.5667 28.6322C30.7699 28.5717 30.9867 28.5414 31.2171 28.5414C31.4814 28.5414 31.7101 28.5902 31.9032 28.6876C32.0963 28.785 32.2436 28.9194 32.3453 29.0908C32.4469 29.2622 32.4977 29.4554 32.4977 29.6704C32.4977 29.9291 32.4367 30.1559 32.3148 30.3508C32.1962 30.5423 32.0031 30.759 31.7355 31.001L31.2832 31.4092H32.6095V32.14H29.906V31.631Z" fill="white"/>
<rect x="28.5996" y="27.7998" width="4.9" height="4.9" fill="white"/>
<path d="M42.78 26.612H46.632C47.376 26.612 47.952 26.804 48.36 27.188C48.768 27.572 48.972 28.132 48.972 28.868C48.972 29.284 48.872 29.652 48.672 29.972C48.48 30.284 48.224 30.516 47.904 30.668C48.8 30.932 49.248 31.584 49.248 32.624C49.248 33.112 49.14 33.536 48.924 33.896C48.716 34.248 48.428 34.52 48.06 34.712C47.692 34.904 47.284 35 46.836 35H42.78V26.612ZM46.476 30.212C46.868 30.212 47.176 30.104 47.4 29.888C47.624 29.672 47.736 29.352 47.736 28.928C47.736 28.44 47.624 28.1 47.4 27.908C47.184 27.708 46.848 27.608 46.392 27.608H44.004V30.212H46.476ZM46.56 34.004C47.032 34.004 47.392 33.9 47.64 33.692C47.888 33.484 48.012 33.128 48.012 32.624C48.012 32.12 47.88 31.76 47.616 31.544C47.36 31.328 46.972 31.22 46.452 31.22H44.004V34.004H46.56ZM52.865 35.18C52.089 35.18 51.501 34.972 51.101 34.556C50.709 34.14 50.513 33.584 50.513 32.888V29.24H51.725V32.84C51.725 33.76 52.185 34.22 53.105 34.22C53.913 34.22 54.545 33.856 55.001 33.128V29.24H56.213V35H55.037V34.184C54.765 34.528 54.441 34.78 54.065 34.94C53.697 35.1 53.297 35.18 52.865 35.18ZM58.5704 37.376C58.1384 37.376 57.7784 37.332 57.4904 37.244V36.296C57.6984 36.376 57.9544 36.416 58.2584 36.416C58.5384 36.416 58.7584 36.344 58.9184 36.2C59.0784 36.064 59.2224 35.84 59.3504 35.528L59.6264 34.856L57.1064 29.24H58.3544L60.2744 33.668L62.0624 29.24H63.3104L60.7184 35.648C60.4784 36.248 60.1904 36.684 59.8544 36.956C59.5264 37.236 59.0984 37.376 58.5704 37.376Z" fill="white"/>
</svg>
