<svg width="86" height="62" viewBox="0 0 86 62" fill="none" xmlns="http://www.w3.org/2000/svg">
<rect width="86" height="62" rx="4" fill="#F8F8FB"/>
<rect x="5" y="16" width="77" height="30" rx="4" fill="#606367"/>
<path d="M29.7331 26.612H35.2651V27.644H30.9571V30.32H34.1731V31.292H30.9571V35H29.7331V26.612ZM37.2112 35.18C36.5152 35.18 35.9552 35.004 35.5312 34.652C35.1152 34.292 34.9072 33.808 34.9072 33.2C34.9072 32.56 35.1072 32.068 35.5072 31.724C35.9152 31.372 36.4912 31.196 37.2352 31.196C38.0272 31.196 38.6992 31.356 39.2512 31.676V31.376C39.2512 30.92 39.1112 30.584 38.8312 30.368C38.5592 30.144 38.1272 30.032 37.5352 30.032C37.1832 30.032 36.8392 30.068 36.5032 30.14C36.1752 30.204 35.8792 30.296 35.6152 30.416V29.432C35.8552 29.32 36.1672 29.232 36.5512 29.168C36.9352 29.096 37.3072 29.06 37.6672 29.06C38.6192 29.06 39.3232 29.272 39.7792 29.696C40.2432 30.112 40.4752 30.692 40.4752 31.436V35H39.3352V34.352C39.0872 34.624 38.7912 34.832 38.4472 34.976C38.1112 35.112 37.6992 35.18 37.2112 35.18ZM37.5112 34.256C37.8952 34.256 38.2432 34.18 38.5552 34.028C38.8672 33.876 39.0992 33.664 39.2512 33.392V32.612C38.7312 32.276 38.1512 32.108 37.5112 32.108C37.0472 32.108 36.6992 32.2 36.4672 32.384C36.2432 32.56 36.1312 32.832 36.1312 33.2C36.1312 33.904 36.5912 34.256 37.5112 34.256ZM41.2002 29.24H42.4842L44.1762 33.38L45.8682 29.24H47.1522L44.7042 35H43.6482L41.2002 29.24ZM50.7223 35.18C50.0743 35.18 49.5023 35.06 49.0063 34.82C48.5183 34.572 48.1343 34.22 47.8543 33.764C47.5823 33.3 47.4463 32.756 47.4463 32.132C47.4463 31.516 47.5823 30.976 47.8543 30.512C48.1263 30.048 48.5103 29.692 49.0063 29.444C49.5023 29.188 50.0743 29.06 50.7223 29.06C51.3703 29.06 51.9423 29.188 52.4383 29.444C52.9343 29.692 53.3183 30.048 53.5903 30.512C53.8703 30.976 54.0103 31.516 54.0103 32.132C54.0103 32.756 53.8703 33.3 53.5903 33.764C53.3183 34.22 52.9343 34.572 52.4383 34.82C51.9423 35.06 51.3703 35.18 50.7223 35.18ZM50.7223 34.22C51.3463 34.22 51.8423 34.028 52.2103 33.644C52.5783 33.26 52.7623 32.756 52.7623 32.132C52.7623 31.484 52.5783 30.972 52.2103 30.596C51.8423 30.22 51.3463 30.032 50.7223 30.032C50.0983 30.032 49.6023 30.22 49.2343 30.596C48.8663 30.972 48.6823 31.484 48.6823 32.132C48.6823 32.756 48.8663 33.26 49.2343 33.644C49.6023 34.028 50.0983 34.22 50.7223 34.22ZM55.3269 29.24H56.5029V30.272C56.7429 29.92 57.0789 29.66 57.5109 29.492C57.9509 29.324 58.4589 29.24 59.0349 29.24V30.188C58.4189 30.188 57.8909 30.288 57.4509 30.488C57.0109 30.688 56.7069 31.004 56.5389 31.436V35H55.3269V29.24ZM60.8278 28.112C60.6278 28.112 60.4598 28.044 60.3238 27.908C60.1878 27.772 60.1198 27.604 60.1198 27.404C60.1198 27.204 60.1878 27.036 60.3238 26.9C60.4598 26.764 60.6278 26.696 60.8278 26.696C61.0358 26.696 61.2078 26.764 61.3438 26.9C61.4878 27.036 61.5598 27.204 61.5598 27.404C61.5598 27.604 61.4878 27.772 61.3438 27.908C61.2078 28.044 61.0358 28.112 60.8278 28.112ZM60.2158 29.24H61.4518V35H60.2158V29.24ZM65.3398 35.18C64.7558 35.18 64.3038 35.012 63.9838 34.676C63.6718 34.34 63.5158 33.864 63.5158 33.248V30.176H62.6398V29.24H63.5158V27.512H64.7398V29.24H66.1558V30.176H64.7398V33.164C64.7398 33.548 64.8118 33.82 64.9558 33.98C65.1078 34.14 65.3798 34.22 65.7718 34.22C66.0038 34.22 66.2358 34.168 66.4678 34.064V35.024C66.1638 35.128 65.7878 35.18 65.3398 35.18ZM70.7761 35.18C69.7121 35.18 68.8761 34.916 68.2681 34.388C67.6681 33.852 67.3681 33.1 67.3681 32.132C67.3681 31.188 67.6361 30.44 68.1721 29.888C68.7161 29.336 69.4881 29.06 70.4881 29.06C71.1521 29.06 71.7161 29.188 72.1801 29.444C72.6441 29.692 72.9921 30.04 73.2241 30.488C73.4641 30.928 73.5841 31.432 73.5841 32V32.6H68.5201C68.5601 33.144 68.7881 33.552 69.2041 33.824C69.6281 34.088 70.2001 34.22 70.9201 34.22C71.2881 34.22 71.6601 34.188 72.0361 34.124C72.4121 34.052 72.7441 33.96 73.0321 33.848V34.82C72.7761 34.924 72.4361 35.008 72.0121 35.072C71.5961 35.144 71.1841 35.18 70.7761 35.18ZM72.4441 31.748C72.4281 31.204 72.2481 30.784 71.9041 30.488C71.5681 30.184 71.0881 30.032 70.4641 30.032C69.8561 30.032 69.3841 30.188 69.0481 30.5C68.7121 30.812 68.5361 31.228 68.5201 31.748H72.4441Z" fill="white"/>
<path d="M25.6613 27.5104C25.4441 27.0191 25.1309 26.574 24.7392 26.1998C24.3472 25.8245 23.8851 25.5263 23.3779 25.3213C22.852 25.1079 22.288 24.9987 21.7185 25C20.9195 25 20.1401 25.2137 19.4627 25.6173C19.3006 25.7139 19.1467 25.8199 19.0008 25.9355C18.855 25.8199 18.701 25.7139 18.5389 25.6173C17.8616 25.2137 17.0821 25 16.2831 25C15.7078 25 15.1504 25.1076 14.6237 25.3213C14.1148 25.5271 13.6562 25.8231 13.2624 26.1998C12.8702 26.5735 12.5569 27.0188 12.3403 27.5104C12.1151 28.0217 12 28.5646 12 29.1233C12 29.6504 12.1102 30.1996 12.329 30.7584C12.5121 31.2253 12.7746 31.7097 13.1101 32.1988C13.6416 32.9728 14.3725 33.78 15.28 34.5983C16.7839 35.9548 18.2732 36.8919 18.3364 36.9299L18.7204 37.1705C18.8906 37.2765 19.1094 37.2765 19.2795 37.1705L19.6636 36.9299C19.7268 36.8903 21.2145 35.9548 22.72 34.5983C23.6275 33.78 24.3584 32.9728 24.8899 32.1988C25.2254 31.7097 25.4895 31.2253 25.671 30.7584C25.8898 30.1996 26 29.6504 26 29.1233C26.0016 28.5646 25.8865 28.0217 25.6613 27.5104Z" fill="white"/>
</svg>
