<svg width="93" height="70" viewBox="0 0 93 70" fill="none" xmlns="http://www.w3.org/2000/svg">
<rect width="86" height="62" rx="4" fill="#F8F8FB"/>
<rect x="28" y="16" width="30" height="30" rx="4" fill="#606367"/>
<path fill-rule="evenodd" clip-rule="evenodd" d="M36.6352 25C36.2844 25 36 25.2821 36 25.63C36 25.9779 36.2844 26.26 36.6352 26.26H38.4763L38.7741 27.3673C38.7816 27.3955 38.791 27.4227 38.8021 27.4489L39.426 33.1752C39.4725 33.6018 39.8355 33.925 40.2681 33.925H48.0904C48.4939 33.925 48.8414 33.6427 48.9208 33.2503L49.9832 28.0003C50.0884 27.4803 49.6874 26.995 49.1528 26.995H39.9888L39.62 25.6236C39.5212 25.2559 39.1854 25 38.8017 25H36.6352ZM42.1405 37.6C42.959 37.6 43.6226 36.9419 43.6226 36.13C43.6226 35.3181 42.959 34.66 42.1405 34.66C41.3219 34.66 40.6583 35.3181 40.6583 36.13C40.6583 36.9419 41.3219 37.6 42.1405 37.6ZM48.2809 36.13C48.2809 36.9419 47.6173 37.6 46.7987 37.6C45.9801 37.6 45.3166 36.9419 45.3166 36.13C45.3166 35.3181 45.9801 34.66 46.7987 34.66C47.6173 34.66 48.2809 35.3181 48.2809 36.13ZM42.906 31.631L43.4701 31.1219L43.714 30.9052C43.9139 30.7305 44.0664 30.591 44.1714 30.4869C44.2798 30.3827 44.3679 30.2769 44.4356 30.1694C44.5068 30.0618 44.5424 29.956 44.5424 29.8518C44.5424 29.5394 44.3645 29.3831 44.0088 29.3831C43.836 29.3831 43.6649 29.4134 43.4955 29.4738C43.3295 29.5343 43.1754 29.6183 43.0331 29.7258V28.8741C43.1855 28.7699 43.3634 28.6893 43.5667 28.6322C43.7699 28.5717 43.9867 28.5414 44.2171 28.5414C44.4814 28.5414 44.7101 28.5902 44.9032 28.6876C45.0963 28.785 45.2436 28.9194 45.3453 29.0908C45.4469 29.2622 45.4977 29.4554 45.4977 29.6704C45.4977 29.9291 45.4367 30.1559 45.3148 30.3508C45.1962 30.5423 45.0031 30.759 44.7355 31.001L44.2832 31.4092H45.6095V32.14H42.906V31.631Z" fill="white"/>
<rect x="41.5996" y="27.7998" width="4.9" height="4.9" fill="white"/>
<rect width="86" height="62" rx="4" fill="#F8F8FB"/>
<rect x="28" y="16" width="30" height="30" rx="4" fill="#606367"/>
<path d="M49.6613 27.5104C49.4441 27.0191 49.1309 26.574 48.7392 26.1998C48.3472 25.8245 47.8851 25.5263 47.3779 25.3213C46.852 25.1079 46.288 24.9987 45.7185 25C44.9195 25 44.1401 25.2137 43.4627 25.6173C43.3006 25.7139 43.1467 25.8199 43.0008 25.9355C42.855 25.8199 42.701 25.7139 42.5389 25.6173C41.8616 25.2137 41.0821 25 40.2831 25C39.7078 25 39.1504 25.1076 38.6237 25.3213C38.1148 25.5271 37.6562 25.8231 37.2624 26.1998C36.8702 26.5735 36.5569 27.0188 36.3403 27.5104C36.1151 28.0217 36 28.5646 36 29.1233C36 29.6504 36.1102 30.1996 36.329 30.7584C36.5121 31.2253 36.7746 31.7097 37.1101 32.1988C37.6416 32.9728 38.3725 33.78 39.28 34.5983C40.7839 35.9548 42.2732 36.8919 42.3364 36.9299L42.7204 37.1705C42.8906 37.2765 43.1094 37.2765 43.2795 37.1705L43.6636 36.9299C43.7268 36.8903 45.2145 35.9548 46.72 34.5983C47.6275 33.78 48.3584 32.9728 48.8899 32.1988C49.2254 31.7097 49.4895 31.2253 49.671 30.7584C49.8898 30.1996 50 29.6504 50 29.1233C50.0016 28.5646 49.8865 28.0217 49.6613 27.5104Z" fill="white"/>
<path d="M1 4C1 2.34315 2.34315 1 4 1H82C83.6569 1 85 2.34315 85 4V58C85 59.6569 83.6569 61 82 61H4C2.34315 61 1 59.6569 1 58V4Z" fill="#2EC639" fill-opacity="0.2" stroke="#2EC639" stroke-width="2"/>
<g filter="url(#filter0_d_211_10675)">
<rect x="57" y="33" width="22" height="22" rx="11" fill="white"/>
</g>
<path d="M62.8667 43.9707L67.0787 47.6667L73.1334 41.0667" stroke="#2EC639" stroke-width="2" stroke-linecap="round" stroke-linejoin="round"/>
<defs>
<filter id="filter0_d_211_10675" x="47" y="24" width="46" height="46" filterUnits="userSpaceOnUse" color-interpolation-filters="sRGB">
<feFlood flood-opacity="0" result="BackgroundImageFix"/>
<feColorMatrix in="SourceAlpha" type="matrix" values="0 0 0 0 0 0 0 0 0 0 0 0 0 0 0 0 0 0 127 0" result="hardAlpha"/>
<feOffset dx="2" dy="3"/>
<feGaussianBlur stdDeviation="6"/>
<feColorMatrix type="matrix" values="0 0 0 0 0.180392 0 0 0 0 0.776471 0 0 0 0 0.223529 0 0 0 0.35 0"/>
<feBlend mode="normal" in2="BackgroundImageFix" result="effect1_dropShadow_211_10675"/>
<feBlend mode="normal" in="SourceGraphic" in2="effect1_dropShadow_211_10675" result="shape"/>
</filter>
</defs>
</svg>
