<svg width="86" height="62" viewBox="0 0 86 62" fill="none" xmlns="http://www.w3.org/2000/svg">
<rect width="86" height="62" rx="4" fill="#F8F8FB"/>
<rect x="18" y="16" width="51" height="30" rx="4" fill="#606367"/>
<path d="M33.78 26.612H37.632C38.376 26.612 38.952 26.804 39.36 27.188C39.768 27.572 39.972 28.132 39.972 28.868C39.972 29.284 39.872 29.652 39.672 29.972C39.48 30.284 39.224 30.516 38.904 30.668C39.8 30.932 40.248 31.584 40.248 32.624C40.248 33.112 40.14 33.536 39.924 33.896C39.716 34.248 39.428 34.52 39.06 34.712C38.692 34.904 38.284 35 37.836 35H33.78V26.612ZM37.476 30.212C37.868 30.212 38.176 30.104 38.4 29.888C38.624 29.672 38.736 29.352 38.736 28.928C38.736 28.44 38.624 28.1 38.4 27.908C38.184 27.708 37.848 27.608 37.392 27.608H35.004V30.212H37.476ZM37.56 34.004C38.032 34.004 38.392 33.9 38.64 33.692C38.888 33.484 39.012 33.128 39.012 32.624C39.012 32.12 38.88 31.76 38.616 31.544C38.36 31.328 37.972 31.22 37.452 31.22H35.004V34.004H37.56ZM43.865 35.18C43.089 35.18 42.501 34.972 42.101 34.556C41.709 34.14 41.513 33.584 41.513 32.888V29.24H42.725V32.84C42.725 33.76 43.185 34.22 44.105 34.22C44.913 34.22 45.545 33.856 46.001 33.128V29.24H47.213V35H46.037V34.184C45.765 34.528 45.441 34.78 45.065 34.94C44.697 35.1 44.297 35.18 43.865 35.18ZM49.5704 37.376C49.1384 37.376 48.7784 37.332 48.4904 37.244V36.296C48.6984 36.376 48.9544 36.416 49.2584 36.416C49.5384 36.416 49.7584 36.344 49.9184 36.2C50.0784 36.064 50.2224 35.84 50.3504 35.528L50.6264 34.856L48.1064 29.24H49.3544L51.2744 33.668L53.0624 29.24H54.3104L51.7184 35.648C51.4784 36.248 51.1904 36.684 50.8544 36.956C50.5264 37.236 50.0984 37.376 49.5704 37.376Z" fill="white"/>
</svg>
