<svg width="141" height="102" viewBox="0 0 141 102" fill="none" xmlns="http://www.w3.org/2000/svg">
<g filter="url(#filter0_d_210_8385)">
<rect x="4" y="4" width="133" height="94" rx="4" fill="white"/>
</g>
<path d="M75.52 56.5057H76.344V62.0977H75.52V56.5057ZM77.3872 58.2577H78.1712V58.8097C78.3525 58.5803 78.5739 58.4123 78.8352 58.3057C79.1019 58.1937 79.3792 58.1377 79.6672 58.1377C80.1792 58.1377 80.5605 58.2737 80.8112 58.5457C81.0619 58.8177 81.1872 59.183 81.1872 59.6417V62.0977H80.3792V59.7217C80.3792 59.0977 80.0805 58.7857 79.4832 58.7857C79.2272 58.7857 78.9872 58.847 78.7632 58.9697C78.5445 59.087 78.3552 59.2683 78.1952 59.5137V62.0977H77.3872V58.2577ZM81.6647 58.2577H82.5207L83.6487 61.0177L84.7767 58.2577H85.6327L84.0007 62.0977H83.2967L81.6647 58.2577ZM88.3039 62.2177C87.5945 62.2177 87.0372 62.0417 86.6319 61.6897C86.2319 61.3323 86.0319 60.831 86.0319 60.1857C86.0319 59.5563 86.2105 59.0577 86.5679 58.6897C86.9305 58.3217 87.4452 58.1377 88.1119 58.1377C88.5545 58.1377 88.9305 58.223 89.2399 58.3937C89.5492 58.559 89.7812 58.791 89.9359 59.0897C90.0959 59.383 90.1759 59.719 90.1759 60.0977V60.4977H86.7999C86.8265 60.8603 86.9785 61.1323 87.2559 61.3137C87.5385 61.4897 87.9199 61.5777 88.3999 61.5777C88.6452 61.5777 88.8932 61.5563 89.1439 61.5137C89.3945 61.4657 89.6159 61.4043 89.8079 61.3297V61.9777C89.6372 62.047 89.4105 62.103 89.1279 62.1457C88.8505 62.1937 88.5759 62.2177 88.3039 62.2177ZM89.4159 59.9297C89.4052 59.567 89.2852 59.287 89.0559 59.0897C88.8319 58.887 88.5119 58.7857 88.0959 58.7857C87.6905 58.7857 87.3759 58.8897 87.1519 59.0977C86.9279 59.3057 86.8105 59.583 86.7999 59.9297H89.4159ZM91.0591 58.2577H91.8431V58.8097C92.0244 58.5803 92.2457 58.4123 92.5071 58.3057C92.7737 58.1937 93.0511 58.1377 93.3391 58.1377C93.8511 58.1377 94.2324 58.2737 94.4831 58.5457C94.7337 58.8177 94.8591 59.183 94.8591 59.6417V62.0977H94.0511V59.7217C94.0511 59.0977 93.7524 58.7857 93.1551 58.7857C92.8991 58.7857 92.6591 58.847 92.4351 58.9697C92.2164 59.087 92.0271 59.2683 91.8671 59.5137V62.0977H91.0591V58.2577ZM97.3359 62.2177C96.9466 62.2177 96.6453 62.1057 96.4319 61.8817C96.2239 61.6577 96.1199 61.3403 96.1199 60.9297V58.8817H95.5359V58.2577H96.1199V57.1057H96.9359V58.2577H97.8799V58.8817H96.9359V60.8737C96.9359 61.1297 96.9839 61.311 97.0799 61.4177C97.1813 61.5243 97.3626 61.5777 97.6239 61.5777C97.7786 61.5777 97.9333 61.543 98.0879 61.4737V62.1137C97.8853 62.183 97.6346 62.2177 97.3359 62.2177ZM100.833 62.2177C100.401 62.2177 100.02 62.1377 99.6891 61.9777C99.3637 61.8123 99.1077 61.5777 98.9211 61.2737C98.7397 60.9643 98.6491 60.6017 98.6491 60.1857C98.6491 59.775 98.7397 59.415 98.9211 59.1057C99.1024 58.7963 99.3584 58.559 99.6891 58.3937C100.02 58.223 100.401 58.1377 100.833 58.1377C101.265 58.1377 101.646 58.223 101.977 58.3937C102.308 58.559 102.564 58.7963 102.745 59.1057C102.932 59.415 103.025 59.775 103.025 60.1857C103.025 60.6017 102.932 60.9643 102.745 61.2737C102.564 61.5777 102.308 61.8123 101.977 61.9777C101.646 62.1377 101.265 62.2177 100.833 62.2177ZM100.833 61.5777C101.249 61.5777 101.58 61.4497 101.825 61.1937C102.07 60.9377 102.193 60.6017 102.193 60.1857C102.193 59.7537 102.07 59.4123 101.825 59.1617C101.58 58.911 101.249 58.7857 100.833 58.7857C100.417 58.7857 100.086 58.911 99.8411 59.1617C99.5957 59.4123 99.4731 59.7537 99.4731 60.1857C99.4731 60.6017 99.5957 60.9377 99.8411 61.1937C100.086 61.4497 100.417 61.5777 100.833 61.5777ZM103.903 58.2577H104.687V58.9457C104.847 58.711 105.071 58.5377 105.359 58.4257C105.652 58.3137 105.991 58.2577 106.375 58.2577V58.8897C105.964 58.8897 105.612 58.9563 105.319 59.0897C105.025 59.223 104.823 59.4337 104.711 59.7217V62.0977H103.903V58.2577ZM107.797 63.6817C107.509 63.6817 107.269 63.6523 107.077 63.5937V62.9617C107.216 63.015 107.386 63.0417 107.589 63.0417C107.776 63.0417 107.922 62.9937 108.029 62.8977C108.136 62.807 108.232 62.6577 108.317 62.4497L108.501 62.0017L106.821 58.2577H107.653L108.933 61.2097L110.125 58.2577H110.957L109.229 62.5297C109.069 62.9297 108.877 63.2203 108.653 63.4017C108.434 63.5883 108.149 63.6817 107.797 63.6817ZM115.685 57.3857L114.477 58.2577V57.4817L115.797 56.5057H116.501V62.0977H115.685V57.3857ZM118.943 62.2177C118.65 62.2177 118.365 62.1857 118.087 62.1217C117.81 62.063 117.575 61.9803 117.383 61.8737V61.1457C117.602 61.279 117.85 61.383 118.127 61.4577C118.405 61.527 118.669 61.5617 118.919 61.5617C119.405 61.5617 119.773 61.4603 120.023 61.2577C120.274 61.0497 120.399 60.7457 120.399 60.3457C120.399 59.967 120.282 59.679 120.047 59.4817C119.818 59.279 119.474 59.1777 119.015 59.1777C118.823 59.1777 118.621 59.1963 118.407 59.2337C118.199 59.271 118.013 59.3217 117.847 59.3857L117.487 59.1777L117.695 56.5057H120.823V57.1937H118.439L118.319 58.6337C118.65 58.5643 118.986 58.5297 119.327 58.5297C119.919 58.5297 120.383 58.695 120.719 59.0257C121.055 59.3563 121.223 59.7963 121.223 60.3457C121.223 60.9483 121.034 61.4123 120.655 61.7377C120.277 62.0577 119.706 62.2177 118.943 62.2177Z" fill="#9799A5"/>
<rect x="14" y="36.0977" width="113" height="16" rx="8" fill="#C4C4C4"/>
<rect x="14" y="36.0977" width="98" height="16" rx="8" fill="#484B52"/>
<path d="M51.59 48.2477C51.19 48.2477 50.7933 48.211 50.4 48.1377C50.0133 48.071 49.6967 47.9777 49.45 47.8577V46.9377C50.09 47.2377 50.78 47.3877 51.52 47.3877C52.56 47.3877 53.08 47.0377 53.08 46.3377C53.08 46.0977 53.0233 45.9043 52.91 45.7577C52.7967 45.611 52.6333 45.4843 52.42 45.3777C52.2067 45.2643 51.86 45.111 51.38 44.9177C50.72 44.651 50.2433 44.3577 49.95 44.0377C49.6567 43.7177 49.51 43.3143 49.51 42.8277C49.51 42.461 49.61 42.1377 49.81 41.8577C50.01 41.571 50.29 41.351 50.65 41.1977C51.01 41.0377 51.4233 40.9577 51.89 40.9577C52.27 40.9577 52.6133 40.9877 52.92 41.0477C53.2267 41.1077 53.5267 41.2043 53.82 41.3377V42.2177C53.24 41.9577 52.6533 41.8277 52.06 41.8277C51.58 41.8277 51.2133 41.9143 50.96 42.0877C50.7067 42.261 50.58 42.5077 50.58 42.8277C50.58 43.0477 50.6333 43.2343 50.74 43.3877C50.8533 43.5343 51.0167 43.6677 51.23 43.7877C51.45 43.901 51.7733 44.0443 52.2 44.2177C52.6733 44.411 53.0467 44.5943 53.32 44.7677C53.5933 44.941 53.8 45.1543 53.94 45.4077C54.0867 45.6543 54.16 45.9643 54.16 46.3377C54.16 46.9443 53.9433 47.4143 53.51 47.7477C53.0767 48.081 52.4367 48.2477 51.59 48.2477ZM57.639 48.2477C57.099 48.2477 56.6223 48.1477 56.209 47.9477C55.8023 47.741 55.4823 47.4477 55.249 47.0677C55.0223 46.681 54.909 46.2277 54.909 45.7077C54.909 45.1943 55.0223 44.7443 55.249 44.3577C55.4757 43.971 55.7957 43.6743 56.209 43.4677C56.6223 43.2543 57.099 43.1477 57.639 43.1477C58.179 43.1477 58.6557 43.2543 59.069 43.4677C59.4823 43.6743 59.8023 43.971 60.029 44.3577C60.2623 44.7443 60.379 45.1943 60.379 45.7077C60.379 46.2277 60.2623 46.681 60.029 47.0677C59.8023 47.4477 59.4823 47.741 59.069 47.9477C58.6557 48.1477 58.179 48.2477 57.639 48.2477ZM57.639 47.4477C58.159 47.4477 58.5723 47.2877 58.879 46.9677C59.1857 46.6477 59.339 46.2277 59.339 45.7077C59.339 45.1677 59.1857 44.741 58.879 44.4277C58.5723 44.1143 58.159 43.9577 57.639 43.9577C57.119 43.9577 56.7057 44.1143 56.399 44.4277C56.0923 44.741 55.939 45.1677 55.939 45.7077C55.939 46.2277 56.0923 46.6477 56.399 46.9677C56.7057 47.2877 57.119 47.4477 57.639 47.4477ZM61.4762 40.7077H62.4862V48.0977H61.4762V40.7077ZM66.1106 48.2477C65.6306 48.2477 65.1973 48.1443 64.8106 47.9377C64.4306 47.7243 64.1306 47.4277 63.9106 47.0477C63.6973 46.661 63.5906 46.2143 63.5906 45.7077C63.5906 45.2077 63.6973 44.7643 63.9106 44.3777C64.1306 43.991 64.4306 43.691 64.8106 43.4777C65.1973 43.2577 65.6306 43.1477 66.1106 43.1477C66.9773 43.1477 67.634 43.411 68.0806 43.9377V40.7077H69.0906V48.0977H68.1106V47.3977C67.844 47.691 67.5506 47.9077 67.2306 48.0477C66.9173 48.181 66.544 48.2477 66.1106 48.2477ZM66.3406 47.4477C66.754 47.4477 67.114 47.341 67.4206 47.1277C67.734 46.9077 67.954 46.6143 68.0806 46.2477V45.1677C67.9673 44.801 67.7506 44.5077 67.4306 44.2877C67.1173 44.0677 66.754 43.9577 66.3406 43.9577C66.014 43.9577 65.7173 44.031 65.4506 44.1777C65.1906 44.3243 64.984 44.531 64.8306 44.7977C64.684 45.0643 64.6106 45.3677 64.6106 45.7077C64.6106 46.0477 64.684 46.351 64.8306 46.6177C64.984 46.8843 65.1906 47.091 65.4506 47.2377C65.7173 47.3777 66.014 47.4477 66.3406 47.4477ZM75.4034 42.2077L73.8934 43.2977V42.3277L75.5434 41.1077H76.4234V48.0977H75.4034V42.2077ZM79.4062 48.2477C79.0395 48.2477 78.7128 48.2077 78.4262 48.1277V47.2777C78.6862 47.3777 78.9862 47.4277 79.3262 47.4277C80.7595 47.4277 81.5462 46.571 81.6862 44.8577C81.4862 45.111 81.2228 45.301 80.8962 45.4277C80.5762 45.5543 80.2162 45.6177 79.8162 45.6177C79.3695 45.6177 78.9728 45.5243 78.6262 45.3377C78.2795 45.151 78.0095 44.8843 77.8162 44.5377C77.6228 44.191 77.5262 43.7877 77.5262 43.3277C77.5262 42.8743 77.6262 42.4677 77.8262 42.1077C78.0328 41.7477 78.3295 41.4677 78.7162 41.2677C79.1028 41.061 79.5595 40.9577 80.0862 40.9577C80.5928 40.9577 81.0428 41.071 81.4362 41.2977C81.8362 41.5243 82.1495 41.8643 82.3762 42.3177C82.6028 42.7643 82.7162 43.3077 82.7162 43.9477C82.7162 45.3343 82.4295 46.3977 81.8562 47.1377C81.2895 47.8777 80.4728 48.2477 79.4062 48.2477ZM80.0862 44.8177C80.5262 44.8177 80.8928 44.6777 81.1862 44.3977C81.4862 44.1177 81.6362 43.7477 81.6362 43.2877C81.6362 43.0143 81.5695 42.761 81.4362 42.5277C81.3095 42.2943 81.1295 42.1077 80.8962 41.9677C80.6628 41.8277 80.3928 41.7577 80.0862 41.7577C79.6195 41.7577 79.2428 41.8977 78.9562 42.1777C78.6762 42.4577 78.5362 42.831 78.5362 43.2977C78.5362 43.7643 78.6762 44.1343 78.9562 44.4077C79.2428 44.681 79.6195 44.8177 80.0862 44.8177ZM83.6199 47.4277L85.1299 45.9777C85.2633 45.8443 85.4499 45.671 85.6899 45.4577C86.0699 45.111 86.3599 44.831 86.5599 44.6177C86.7599 44.4043 86.9233 44.1777 87.0499 43.9377C87.1766 43.691 87.2399 43.4277 87.2399 43.1477C87.2399 42.7343 87.1199 42.421 86.8799 42.2077C86.6399 41.9877 86.2899 41.8777 85.8299 41.8777C85.5166 41.8777 85.1933 41.9343 84.8599 42.0477C84.5333 42.161 84.2266 42.3277 83.9399 42.5477V41.5677C84.4999 41.161 85.1833 40.9577 85.9899 40.9577C86.7099 40.9577 87.2699 41.151 87.6699 41.5377C88.0699 41.9177 88.2699 42.4377 88.2699 43.0977C88.2699 43.4177 88.1999 43.7243 88.0599 44.0177C87.9266 44.311 87.7366 44.601 87.4899 44.8877C87.2433 45.1677 86.9099 45.511 86.4899 45.9177L85.1299 47.2477H88.5299V48.0977H83.6199V47.4277Z" fill="white"/>
<defs>
<filter id="filter0_d_210_8385" x="0" y="0" width="141" height="102" filterUnits="userSpaceOnUse" color-interpolation-filters="sRGB">
<feFlood flood-opacity="0" result="BackgroundImageFix"/>
<feColorMatrix in="SourceAlpha" type="matrix" values="0 0 0 0 0 0 0 0 0 0 0 0 0 0 0 0 0 0 127 0" result="hardAlpha"/>
<feOffset/>
<feGaussianBlur stdDeviation="2"/>
<feColorMatrix type="matrix" values="0 0 0 0 0 0 0 0 0 0 0 0 0 0 0 0 0 0 0.1 0"/>
<feBlend mode="normal" in2="BackgroundImageFix" result="effect1_dropShadow_210_8385"/>
<feBlend mode="normal" in="SourceGraphic" in2="effect1_dropShadow_210_8385" result="shape"/>
</filter>
</defs>
</svg>