<svg width="18" height="18" viewBox="0 0 18 18" fill="none" xmlns="http://www.w3.org/2000/svg">
<path d="M9.00005 0.359985C9.425 0.359985 9.82451 0.525439 10.125 0.826025L17.1746 7.87463C17.175 7.87503 17.1754 7.87556 17.176 7.87595C17.795 8.49624 17.7947 9.50492 17.175 10.1248C16.8743 10.4255 16.4748 10.591 16.05 10.591H15.7894V15.7782C15.7894 16.8048 14.9542 17.64 13.9273 17.64H11.1693C10.8896 17.64 10.6629 17.4132 10.6629 17.1337V13.0669C10.6629 12.5984 10.2819 12.2174 9.81343 12.2174H8.18666C7.71819 12.2174 7.33702 12.5984 7.33702 13.0669V17.1337C7.33702 17.4132 7.11036 17.64 6.83071 17.64H4.07266C3.04594 17.64 2.21054 16.8048 2.21054 15.7782V10.591H1.92969C1.91321 10.591 1.89686 10.5902 1.88051 10.5886C1.48114 10.5713 1.10774 10.4076 0.824918 10.1247C0.20588 9.50571 0.204825 8.49888 0.821885 7.87833C0.824127 7.87595 0.826632 7.87345 0.829005 7.87107L7.87497 0.826025C8.17558 0.525439 8.57509 0.359985 9.00005 0.359985Z" fill="#2EC639" stroke="#2EC639" stroke-width="0.7"/>
</svg>
