<svg width="50" height="50" viewBox="0 0 50 50" fill="none" xmlns="http://www.w3.org/2000/svg">
<rect width="50" height="50" rx="6" fill="#CCB8B8"/>
<path d="M13.0016 14.7934C13.0016 14.583 13.0852 14.3812 13.234 14.2324C13.3828 14.0836 13.5846 14 13.795 14H14.4901C15.6437 14 16.3071 14.7506 16.6911 15.4996C16.9529 16.0121 17.1418 16.6373 17.2989 17.18H33.6358C33.881 17.1801 34.1229 17.237 34.3424 17.3462C34.5619 17.4555 34.7531 17.6141 34.901 17.8097C35.0489 18.0052 35.1495 18.2324 35.1948 18.4734C35.2402 18.7143 35.2291 18.9625 35.1624 19.1985L32.7884 27.569C32.5996 28.2331 32.1993 28.8175 31.6483 29.2336C31.0974 29.6497 30.4257 29.8748 29.7353 29.8747H21.6755C20.9793 29.8749 20.3023 29.6463 19.7489 29.2239C19.1954 28.8015 18.7963 28.2089 18.6128 27.5373L17.594 23.8003C17.5882 23.7835 17.5829 23.7666 17.5782 23.7495L15.9421 18.2004L15.7834 17.6656C15.6247 17.1165 15.4851 16.631 15.2756 16.2232C15.0233 15.7312 14.7916 15.5884 14.4885 15.5884H13.7934C13.583 15.5884 13.3812 15.5048 13.2324 15.356C13.0836 15.2072 13 15.0054 13 14.795L13.0016 14.7934Z" fill="white"/>
<path d="M21.7338 36.2214C22.3651 36.2214 22.9706 35.9707 23.417 35.5243C23.8634 35.0779 24.1142 34.4725 24.1142 33.8412C24.1142 33.2099 23.8634 32.6045 23.417 32.1581C22.9706 31.7117 22.3651 31.4609 21.7338 31.4609C21.1025 31.4609 20.4971 31.7117 20.0507 32.1581C19.6043 32.6045 19.3535 33.2099 19.3535 33.8412C19.3535 34.4725 19.6043 35.0779 20.0507 35.5243C20.4971 35.9707 21.1025 36.2214 21.7338 36.2214Z" fill="white"/>
<path d="M29.6684 36.2214C30.2997 36.2214 30.9052 35.9707 31.3516 35.5243C31.7979 35.0779 32.0487 34.4725 32.0487 33.8412C32.0487 33.2099 31.7979 32.6045 31.3516 32.1581C30.9052 31.7117 30.2997 31.4609 29.6684 31.4609C29.0371 31.4609 28.4317 31.7117 27.9853 32.1581C27.5389 32.6045 27.2881 33.2099 27.2881 33.8412C27.2881 34.4725 27.5389 35.0779 27.9853 35.5243C28.4317 35.9707 29.0371 36.2214 29.6684 36.2214Z" fill="white"/>
</svg>
