<svg width="71" height="21" viewBox="0 0 71 21" fill="none" xmlns="http://www.w3.org/2000/svg">
<path d="M27.98 5.214H31.004C32.0493 5.214 32.9547 5.41 33.72 5.802C34.4947 6.194 35.0873 6.754 35.498 7.482C35.9087 8.21 36.114 9.06867 36.114 10.058C36.114 11.6913 35.6473 12.9233 34.714 13.754C33.7807 14.5847 32.4693 15 30.78 15H27.98V5.214ZM30.71 14.076C32.1847 14.076 33.272 13.74 33.972 13.068C34.672 12.3867 35.022 11.3833 35.022 10.058C35.022 8.826 34.6813 7.86467 34 7.174C33.3187 6.48333 32.3153 6.138 30.99 6.138H29.072V14.076H30.71ZM41.4084 15.21C40.1857 15.21 39.2291 14.8973 38.5384 14.272C37.8571 13.6467 37.5164 12.774 37.5164 11.654C37.5164 10.5527 37.8244 9.68 38.4404 9.036C39.0564 8.392 39.9337 8.07 41.0724 8.07C41.8377 8.07 42.4864 8.21933 43.0184 8.518C43.5504 8.80733 43.9517 9.20867 44.2224 9.722C44.4931 10.2353 44.6284 10.8187 44.6284 11.472V12.06H38.5244C38.5617 12.8253 38.8417 13.3993 39.3644 13.782C39.8964 14.1647 40.6151 14.356 41.5204 14.356C41.9591 14.356 42.3884 14.3187 42.8084 14.244C43.2377 14.16 43.6204 14.048 43.9564 13.908V14.818C43.6764 14.93 43.2937 15.0233 42.8084 15.098C42.3324 15.1727 41.8657 15.21 41.4084 15.21ZM43.6204 11.29C43.6017 10.562 43.3777 9.988 42.9484 9.568C42.5191 9.148 41.8891 8.938 41.0584 8.938C40.2464 8.938 39.6257 9.15733 39.1964 9.596C38.7671 10.0253 38.5431 10.59 38.5244 11.29H43.6204ZM46.314 4.654H47.392V15H46.314V4.654ZM52.9611 15.21C51.7385 15.21 50.7818 14.8973 50.0911 14.272C49.4098 13.6467 49.0691 12.774 49.0691 11.654C49.0691 10.5527 49.3771 9.68 49.9931 9.036C50.6091 8.392 51.4865 8.07 52.6251 8.07C53.3905 8.07 54.0391 8.21933 54.5711 8.518C55.1031 8.80733 55.5045 9.20867 55.7751 9.722C56.0458 10.2353 56.1811 10.8187 56.1811 11.472V12.06H50.0771C50.1145 12.8253 50.3945 13.3993 50.9171 13.782C51.4491 14.1647 52.1678 14.356 53.0731 14.356C53.5118 14.356 53.9411 14.3187 54.3611 14.244C54.7905 14.16 55.1731 14.048 55.5091 13.908V14.818C55.2291 14.93 54.8465 15.0233 54.3611 15.098C53.8851 15.1727 53.4185 15.21 52.9611 15.21ZM55.1731 11.29C55.1545 10.562 54.9305 9.988 54.5011 9.568C54.0718 9.148 53.4418 8.938 52.6111 8.938C51.7991 8.938 51.1785 9.15733 50.7491 9.596C50.3198 10.0253 50.0958 10.59 50.0771 11.29H55.1731ZM60.3587 15.21C59.7241 15.21 59.2294 15.0233 58.8747 14.65C58.5294 14.2767 58.3567 13.7447 58.3567 13.054V9.12H57.3067V8.28H58.3567V6.264H59.4347V8.28H61.1287V9.12H59.4347V13.082C59.4347 13.5487 59.5281 13.88 59.7147 14.076C59.9014 14.2627 60.2421 14.356 60.7367 14.356C60.9794 14.356 61.2361 14.3 61.5067 14.188V15.07C61.1987 15.1633 60.8161 15.21 60.3587 15.21ZM66.592 15.21C65.3693 15.21 64.4127 14.8973 63.722 14.272C63.0407 13.6467 62.7 12.774 62.7 11.654C62.7 10.5527 63.008 9.68 63.624 9.036C64.24 8.392 65.1173 8.07 66.256 8.07C67.0213 8.07 67.67 8.21933 68.202 8.518C68.734 8.80733 69.1353 9.20867 69.406 9.722C69.6767 10.2353 69.812 10.8187 69.812 11.472V12.06H63.708C63.7453 12.8253 64.0253 13.3993 64.548 13.782C65.08 14.1647 65.7987 14.356 66.704 14.356C67.1427 14.356 67.572 14.3187 67.992 14.244C68.4213 14.16 68.804 14.048 69.14 13.908V14.818C68.86 14.93 68.4773 15.0233 67.992 15.098C67.516 15.1727 67.0493 15.21 66.592 15.21ZM68.804 11.29C68.7853 10.562 68.5613 9.988 68.132 9.568C67.7027 9.148 67.0727 8.938 66.242 8.938C65.43 8.938 64.8093 9.15733 64.38 9.596C63.9507 10.0253 63.7267 10.59 63.708 11.29H68.804Z" fill="#F05050"/>
<path d="M0.870117 8.33203H12.1806V14.9988C12.1806 17.2079 10.3897 18.9988 8.18061 18.9988H4.87012C2.66098 18.9988 0.870117 17.2079 0.870117 14.9988V8.33203Z" fill="#F05050"/>
<path d="M4.35156 11L8.70175 15.4445M4.35156 15.4445L8.70175 11" stroke="white" stroke-width="0.7" stroke-linecap="round" stroke-linejoin="round"/>
<path d="M11.7957 5.11112H9.03501V4.58334C9.03501 3.70887 8.36083 3 7.52917 3H5.52139C4.68973 3 4.01556 3.70887 4.01556 4.58334V5.11112H1.25486C0.561833 5.11112 0 5.70187 0 6.43057V7.48613C0 7.77763 0.224715 8.01391 0.501945 8.01391H12.5486C12.8259 8.01391 13.0506 7.77763 13.0506 7.48613V6.43057C13.0506 5.70187 12.4887 5.11112 11.7957 5.11112ZM5.01945 4.58334C5.01945 4.2924 5.2447 4.05556 5.52139 4.05556H7.52917C7.80587 4.05556 8.03112 4.2924 8.03112 4.58334V5.11112H5.01945V4.58334Z" fill="#F05050"/>
</svg>
