<svg width="50" height="50" viewBox="0 0 50 50" fill="none" xmlns="http://www.w3.org/2000/svg">
<rect width="50" height="50" rx="6" fill="#E5BDB0" fill-opacity="0.5"/>
<path d="M35.6846 19.2621C35.3398 18.4823 34.8426 17.7757 34.2209 17.1818C33.5988 16.5861 32.8652 16.1127 32.0602 15.7874C31.2254 15.4487 30.3301 15.2753 29.4261 15.2774C28.158 15.2774 26.9207 15.6165 25.8455 16.2572C25.5883 16.4105 25.3439 16.5788 25.1124 16.7622C24.8809 16.5788 24.6365 16.4105 24.3793 16.2572C23.304 15.6165 22.0668 15.2774 20.7986 15.2774C19.8854 15.2774 19.0006 15.4482 18.1646 15.7874C17.3569 16.114 16.6289 16.5838 16.0038 17.1818C15.3813 17.775 14.884 18.4818 14.5402 19.2621C14.1826 20.0736 14 20.9354 14 21.8223C14 22.6589 14.1749 23.5307 14.5222 24.4176C14.8129 25.1588 15.2296 25.9276 15.762 26.704C16.6058 27.9325 17.7659 29.2139 19.2064 30.5128C21.5935 32.666 23.9574 34.1533 24.0577 34.2136L24.6674 34.5955C24.9375 34.7639 25.2847 34.7639 25.5548 34.5955L26.1645 34.2136C26.2648 34.1508 28.6262 32.666 31.0158 30.5128C32.4563 29.2139 33.6164 27.9325 34.4602 26.704C34.9926 25.9276 35.4119 25.1588 35.7 24.4176C36.0473 23.5307 36.2222 22.6589 36.2222 21.8223C36.2248 20.9354 36.0421 20.0736 35.6846 19.2621Z" fill="white"/>
</svg>
