<svg width="149" height="64" viewBox="0 0 149 64" fill="none" xmlns="http://www.w3.org/2000/svg">
<g filter="url(#filter0_d_8471_123374)">
<rect x="11" y="10" width="125" height="40" rx="14" fill="#2FC639"/>
</g>
<path fill-rule="evenodd" clip-rule="evenodd" d="M51 25C55.4183 25 59 28.5817 59 33C59 37.4183 55.4183 41 51 41C46.5817 41 43 37.4183 43 33C43 28.5817 46.5817 25 51 25ZM51.2778 27.7116C51.1002 27.6517 50.8998 27.6517 50.7224 27.7116C50.6353 27.7405 50.5562 27.7827 50.4894 27.8358L47.4307 30.2757C47.4247 30.2803 47.4189 30.2849 47.4129 30.2899C47.1363 30.5183 47.1442 30.8824 47.4307 31.103C47.7172 31.3238 48.1739 31.3175 48.4505 31.0889L50.2789 29.6304V36.8693C50.2789 37.1869 50.6017 37.4444 51.0001 37.4444C51.3983 37.4444 51.7211 37.1869 51.7211 36.8693V29.6304L53.5495 31.0889C53.5553 31.0938 53.5612 31.0984 53.5672 31.103C53.8537 31.3237 54.3103 31.3173 54.5871 31.0889C54.8637 30.8604 54.8558 30.4963 54.5693 30.2757L51.5106 27.8358C51.444 27.7827 51.3648 27.7405 51.2778 27.7116Z" fill="white"/>
<path d="M42.6844 20.1683C46.6502 19.3472 50.519 21.6033 52 25.348C51.8168 25.3355 51.632 25.3293 51.4456 25.3293C51.0183 25.3293 50.599 25.3622 50.1899 25.4255C49.1879 23.4604 47.3019 22.0622 45.0746 21.7947C41.4247 21.3561 38.1236 24.074 37.7014 27.8652C37.6548 28.3029 37.2987 28.634 36.8749 28.634C34.5783 28.6199 32.7059 30.5423 32.6923 32.9278C32.6789 35.3131 34.5293 37.2582 36.8258 37.2723H40.9836C41.4429 37.2723 41.8153 37.659 41.8153 38.1361C41.8153 38.6133 41.4429 39 40.9836 39H36.8258C33.867 39.0021 31.3774 36.6985 31.0388 33.6452C30.6709 30.3276 32.9618 27.3285 36.1554 26.9462C36.814 23.5245 39.39 20.8504 42.6844 20.1683Z" fill="white"/>
<path d="M72.956 35.21C71.5747 35.21 70.5293 34.8507 69.82 34.132C69.12 33.404 68.77 32.424 68.77 31.192V25.214H70.548V31.22C70.548 31.9947 70.7627 32.5873 71.192 32.998C71.6307 33.3993 72.2187 33.6 72.956 33.6C73.684 33.6 74.2627 33.3993 74.692 32.998C75.1307 32.5873 75.35 31.9947 75.35 31.22V25.214H77.128V31.192C77.128 32.424 76.778 33.404 76.078 34.132C75.378 34.8507 74.3373 35.21 72.956 35.21ZM78.7384 28.28H80.4464V29.092C80.8104 28.7467 81.2071 28.49 81.6364 28.322C82.0658 28.154 82.5558 28.07 83.1064 28.07C83.7878 28.07 84.3944 28.2193 84.9264 28.518C85.4678 28.8073 85.8878 29.2227 86.1864 29.764C86.4944 30.296 86.6484 30.9167 86.6484 31.626C86.6484 32.326 86.4944 32.9467 86.1864 33.488C85.8878 34.0293 85.4678 34.454 84.9264 34.762C84.3944 35.0607 83.7878 35.21 83.1064 35.21C82.5931 35.21 82.1078 35.14 81.6504 35C81.2024 34.8507 80.8198 34.6313 80.5024 34.342V38.066H78.7384V28.28ZM82.6724 33.824C83.3071 33.824 83.8298 33.6187 84.2404 33.208C84.6511 32.7973 84.8564 32.27 84.8564 31.626C84.8564 30.982 84.6511 30.4593 84.2404 30.058C83.8298 29.6567 83.3071 29.456 82.6724 29.456C82.1684 29.456 81.7204 29.5913 81.3284 29.862C80.9364 30.1327 80.6611 30.4967 80.5024 30.954V32.312C80.6518 32.7693 80.9224 33.138 81.3144 33.418C81.7158 33.6887 82.1684 33.824 82.6724 33.824ZM88.049 24.654H89.813V35H88.049V24.654ZM95.1483 35.21C94.3643 35.21 93.6736 35.07 93.0763 34.79C92.4883 34.5007 92.031 34.09 91.7043 33.558C91.3776 33.0167 91.2143 32.3773 91.2143 31.64C91.2143 30.9213 91.373 30.296 91.6903 29.764C92.017 29.2227 92.479 28.8073 93.0763 28.518C93.6736 28.2193 94.3643 28.07 95.1483 28.07C95.9323 28.07 96.6183 28.2193 97.2063 28.518C97.8036 28.8073 98.2656 29.2227 98.5923 29.764C98.919 30.296 99.0823 30.9213 99.0823 31.64C99.0823 32.3773 98.919 33.0167 98.5923 33.558C98.2656 34.09 97.8036 34.5007 97.2063 34.79C96.6183 35.07 95.9323 35.21 95.1483 35.21ZM95.1483 33.824C95.7923 33.824 96.3056 33.6233 96.6883 33.222C97.071 32.8113 97.2623 32.284 97.2623 31.64C97.2623 30.9587 97.071 30.4267 96.6883 30.044C96.315 29.652 95.8016 29.456 95.1483 29.456C94.495 29.456 93.977 29.652 93.5943 30.044C93.221 30.4267 93.0343 30.9587 93.0343 31.64C93.0343 32.284 93.2256 32.8113 93.6083 33.222C93.991 33.6233 94.5043 33.824 95.1483 33.824ZM102.585 35.21C101.783 35.21 101.125 35 100.611 34.58C100.098 34.1507 99.8413 33.5767 99.8413 32.858C99.8413 32.1113 100.084 31.528 100.569 31.108C101.055 30.688 101.736 30.478 102.613 30.478C103.463 30.478 104.195 30.6507 104.811 30.996V30.814C104.811 30.338 104.662 29.9927 104.363 29.778C104.074 29.5633 103.603 29.456 102.949 29.456C102.539 29.456 102.133 29.498 101.731 29.582C101.33 29.6567 100.975 29.764 100.667 29.904V28.518C100.947 28.3873 101.321 28.28 101.787 28.196C102.263 28.112 102.721 28.07 103.159 28.07C104.326 28.07 105.189 28.322 105.749 28.826C106.309 29.3207 106.589 30.0113 106.589 30.898V35H104.923V34.342C104.634 34.622 104.303 34.8367 103.929 34.986C103.565 35.1353 103.117 35.21 102.585 35.21ZM103.019 33.922C103.411 33.922 103.766 33.8473 104.083 33.698C104.401 33.5393 104.643 33.3247 104.811 33.054V32.312C104.298 31.948 103.71 31.766 103.047 31.766C102.105 31.766 101.633 32.13 101.633 32.858C101.633 33.2127 101.75 33.4787 101.983 33.656C102.226 33.8333 102.571 33.922 103.019 33.922ZM111.463 35.21C110.782 35.21 110.171 35.0653 109.629 34.776C109.097 34.4773 108.677 34.062 108.369 33.53C108.071 32.9887 107.921 32.3633 107.921 31.654C107.921 30.954 108.071 30.3333 108.369 29.792C108.677 29.2507 109.097 28.8307 109.629 28.532C110.171 28.224 110.782 28.07 111.463 28.07C112.565 28.07 113.433 28.3593 114.067 28.938V24.654H115.831V35H114.123V34.216C113.741 34.5707 113.344 34.8273 112.933 34.986C112.523 35.1353 112.033 35.21 111.463 35.21ZM111.897 33.824C112.401 33.824 112.849 33.6887 113.241 33.418C113.633 33.1473 113.909 32.7833 114.067 32.326V30.968C113.918 30.5107 113.643 30.1467 113.241 29.876C112.849 29.596 112.401 29.456 111.897 29.456C111.263 29.456 110.74 29.6613 110.329 30.072C109.919 30.4827 109.713 31.01 109.713 31.654C109.713 32.298 109.919 32.8207 110.329 33.222C110.74 33.6233 111.263 33.824 111.897 33.824Z" fill="white"/>
<defs>
<filter id="filter0_d_8471_123374" x="0" y="0" width="149" height="64" filterUnits="userSpaceOnUse" color-interpolation-filters="sRGB">
<feFlood flood-opacity="0" result="BackgroundImageFix"/>
<feColorMatrix in="SourceAlpha" type="matrix" values="0 0 0 0 0 0 0 0 0 0 0 0 0 0 0 0 0 0 127 0" result="hardAlpha"/>
<feOffset dx="1" dy="2"/>
<feGaussianBlur stdDeviation="6"/>
<feColorMatrix type="matrix" values="0 0 0 0 0.184314 0 0 0 0 0.776471 0 0 0 0 0.223529 0 0 0 0.5 0"/>
<feBlend mode="normal" in2="BackgroundImageFix" result="effect1_dropShadow_8471_123374"/>
<feBlend mode="normal" in="SourceGraphic" in2="effect1_dropShadow_8471_123374" result="shape"/>
</filter>
</defs>
</svg>
