<svg width="278" height="167" viewBox="0 0 278 167" fill="none" xmlns="http://www.w3.org/2000/svg">
<rect x="0.5" y="0.5" width="277" height="166" rx="3.5" stroke="#D6DBE3"/>
<path d="M114.559 97.4036C110.83 97.4036 107.512 95.0108 106.307 91.4487L106.226 91.1803C105.942 90.2369 105.823 89.4437 105.823 88.6499V72.7344L100.171 91.6376C99.4441 94.418 101.101 97.3005 103.88 98.0686L139.904 107.735C140.354 107.852 140.803 107.908 141.246 107.908C143.566 107.908 145.686 106.365 146.281 104.091L148.379 97.4036H114.559Z" fill="#E4E5EE"/>
<path d="M120.996 73.6585C123.513 73.6585 125.56 71.5828 125.56 69.0304C125.56 66.4781 123.513 64.4023 120.996 64.4023C118.479 64.4023 116.432 66.4781 116.432 69.0304C116.432 71.5828 118.479 73.6585 120.996 73.6585Z" fill="#E4E5EE"/>
<path d="M149.863 57H114.948C111.741 57 109.129 59.5965 109.129 62.7854V88.2394C109.129 91.4283 111.741 94.0248 114.948 94.0248H149.863C153.071 94.0248 155.683 91.4283 155.683 88.2394V62.7854C155.683 59.5965 153.071 57 149.863 57ZM114.948 61.6282H149.863C150.506 61.6282 151.027 62.1464 151.027 62.7854V79.2127L143.674 70.6829C142.894 69.7736 141.765 69.2876 140.553 69.2601C139.347 69.2669 138.216 69.7991 137.443 70.7202L128.798 81.0359L125.981 78.2428C124.389 76.6602 121.798 76.6602 120.209 78.2428L113.784 84.6273V62.7854C113.784 62.1464 114.306 61.6282 114.948 61.6282Z" fill="#E4E5EE"/>
<circle cx="155.681" cy="96.7713" r="14.3182" fill="#2EC639"/>
<path fill-rule="evenodd" clip-rule="evenodd" d="M155.68 88.9609C155.921 88.9609 156.153 89.0524 156.323 89.2151C156.494 89.3778 156.589 89.5986 156.589 89.8287V105.449C156.589 105.679 156.494 105.899 156.323 106.062C156.153 106.225 155.921 106.316 155.68 106.316C155.439 106.316 155.208 106.225 155.038 106.062C154.867 105.899 154.771 105.679 154.771 105.449V89.8287C154.771 89.5986 154.867 89.3778 155.038 89.2151C155.208 89.0524 155.439 88.9609 155.68 88.9609V88.9609Z" fill="white"/>
<path fill-rule="evenodd" clip-rule="evenodd" d="M155.038 87.4815C155.123 87.4007 155.223 87.3366 155.334 87.2928C155.444 87.2491 155.562 87.2266 155.682 87.2266C155.802 87.2266 155.92 87.2491 156.03 87.2928C156.141 87.3366 156.241 87.4007 156.326 87.4815L161.779 92.6881C161.95 92.8511 162.046 93.0721 162.046 93.3025C162.046 93.5329 161.95 93.7539 161.779 93.9169C161.608 94.0798 161.377 94.1714 161.136 94.1714C160.894 94.1714 160.663 94.0798 160.492 93.9169L155.682 89.3229L150.872 93.9169C150.701 94.0798 150.47 94.1714 150.228 94.1714C149.987 94.1714 149.756 94.0798 149.585 93.9169C149.414 93.7539 149.318 93.5329 149.318 93.3025C149.318 93.0721 149.414 92.8511 149.585 92.6881L155.038 87.4815Z" fill="white"/>
</svg>
