<?xml version="1.0" encoding="UTF-8"?>
<svg width="74px" height="74px" viewBox="0 0 74 74" version="1.1" xmlns="http://www.w3.org/2000/svg" xmlns:xlink="http://www.w3.org/1999/xlink">
    <!-- Generator: Sketch 61 (89581) - https://sketch.com -->
    <title>icon_service</title>
    <desc>Created with Sketch.</desc>
    <g id="Symbol" stroke="none" stroke-width="1" fill="none" fill-rule="evenodd">
        <g id="Inbox" transform="translate(-1303.000000, -1372.000000)" fill="#74787C" fill-rule="nonzero" stroke="#9799A5">
            <g id="icon_service" transform="translate(1304.000000, 1373.000000)">
                <path d="M65,31 C61.1401208,31 58,34.1446495 58,38.0100955 L58,52.9899045 C58,56.8553505 61.1401208,60 65,60 C68.8598792,60 72,56.8553505 72,52.9899045 L72,38.0100955 C72.0001966,34.1448464 68.8598792,31 65,31 Z M69.9667462,52.9899045 C69.9667462,55.7323177 67.7386603,57.9634201 65.0001966,57.9634201 L65,57.9634201 C62.2615363,57.9634201 60.033647,55.7323177 60.033647,52.9899045 L60.033647,38.0100955 C60.033647,35.2676823 62.2617329,33.036383 65.0001966,33.036383 C67.7386603,33.036383 69.9667462,35.2676823 69.9667462,38.0102923 L69.9667462,52.9899045 Z" id="Shape"></path>
                <path d="M7,31 C3.14012077,31 0,34.1446495 0,38.0100955 L0,52.9899045 C0,56.8553505 3.14012077,60 7,60 C10.8596826,60 14,56.8553505 14,52.9899045 L14,38.0100955 C14.0001966,34.1448464 10.8598792,31 7,31 Z M11.9665496,52.9899045 C11.9665496,55.7323177 9.7384637,57.9634201 7,57.9634201 L6.9998034,57.9634201 C4.2613397,57.9634201 2.03345036,55.7323177 2.03345036,52.9899045 L2.03345036,38.0100955 C2.03345036,35.2676823 4.2615363,33.036383 7,33.036383 C9.7384637,33.036383 11.966353,35.2676823 11.9665496,38.0102923 L11.9665496,52.9899045 Z" id="Shape"></path>
                <path d="M57.2134134,8.64055548 C51.5470328,3.06867294 44.0132972,0 35.9998998,0 C27.9867028,0 20.4531675,3.06867294 14.7867869,8.64055548 C9.12060669,14.2126351 6,21.6207957 6,29.5008326 L6,31 L8.07232327,31 L8.07232327,29.5008326 C8.07232327,14.3576459 20.6006325,2.03783526 36.0001002,2.03783526 C51.3995679,2.03783526 63.9276767,14.3574488 63.9276767,29.5006356 L63.9276767,31 L66,31 L66,29.5008326 C66,21.6207957 62.879794,14.2126351 57.2134134,8.64055548 Z" id="Path"></path>
                <path d="M35.5,61 C32.4672108,61 30,63.4672548 30,66.4999018 C30,69.5327452 32.4674072,72 35.5,72 C38.5327892,72 41,69.5327452 41,66.5000982 C41.0001964,63.4672548 38.5327892,61 35.5,61 Z M35.5,69.9680853 C33.5877594,69.9680853 32.0318784,68.412373 32.0318784,66.4999018 C32.0318784,64.587627 33.587563,63.0317183 35.5,63.0317183 C37.4122406,63.0317183 38.9681216,64.5874306 38.9681216,66.4999018 C38.9681216,68.412373 37.412437,69.9680853 35.5,69.9680853 Z" id="Shape"></path>
                <path d="M14.521795,65.8459064 C10.9476619,65.8459064 8.03988262,62.7748183 8.03988262,59 L6,59 C6,63.9627667 9.82280788,68 14.521795,68 L31,68 L31,65.8459064 L14.521795,65.8459064 Z" id="Path"></path>
            </g>
        </g>
    </g>
</svg>