<?xml version="1.0" encoding="UTF-8"?>
<svg width="58px" height="58px" viewBox="0 0 58 58" version="1.1" xmlns="http://www.w3.org/2000/svg" xmlns:xlink="http://www.w3.org/1999/xlink">
    <!-- Generator: Sketch 61 (89581) - https://sketch.com -->
    <title>icon_report</title>
    <desc>Created with Sketch.</desc>
    <g id="Symbol" stroke="none" stroke-width="1" fill="none" fill-rule="evenodd">
        <g id="Inbox" transform="translate(-419.000000, -1379.000000)" fill-rule="nonzero" stroke="#74787C" stroke-width="3">
            <g id="Dark_Active" transform="translate(164.000000, 1351.000000)">
                <g id="icon_report" transform="translate(257.000000, 30.000000)">
                    <path d="M50.8444444,31.8492702 C50.8444444,31.7742985 50.8103664,31.7061424 50.800143,31.6345785 C50.7865118,31.5187131 50.7694727,31.4096634 50.7319869,31.3006136 C50.694501,31.1949717 50.643384,31.102961 50.5888591,31.0075424 C50.537742,30.9155317 50.4832172,30.8269288 50.4150611,30.7451415 C50.3434972,30.6599464 50.2583021,30.5951981 50.1731069,30.527042 C50.0879118,30.4622937 50.0061245,30.3975454 49.910706,30.3498362 C49.8084718,30.2987191 49.7028299,30.2680489 49.5903724,30.2373786 C49.5188085,30.2169318 49.457468,30.1760381 49.3824963,30.1658147 C49.3416026,30.1589991 49.300709,30.1760381 49.2598153,30.1726303 C49.2155139,30.1658147 49.1814358,30.1453679 49.1405422,30.1453679 L23.8546321,30.1453679 L23.8546321,4.85945785 C23.8546321,4.81856419 23.8341853,4.78107834 23.8307775,4.74018469 C23.8273697,4.69929103 23.8444087,4.66180518 23.8375931,4.62091153 C23.8273697,4.54593983 23.786476,4.48800715 23.7660292,4.41644325 C23.735359,4.3039857 23.7046887,4.19493595 23.6501638,4.09270182 C23.6024546,3.99728329 23.5411141,3.91549598 23.4763658,3.83370867 C23.4048019,3.74169794 23.3366458,3.65991063 23.2514507,3.58493893 C23.1730712,3.51678284 23.0912839,3.46907358 23.002681,3.41795651 C22.9004468,3.35661603 22.8016205,3.30209115 22.6891629,3.2646053 C22.5903366,3.23052726 22.4846947,3.21689604 22.3790527,3.20326482 C22.3006732,3.1896336 22.2325171,3.15555556 22.1507298,3.15555556 C22.1098362,3.15555556 22.0723503,3.17600238 22.0314567,3.17941019 C21.990563,3.18281799 21.9530772,3.16577897 21.9121835,3.17259458 C9.41917188,4.93783735 0,15.7985106 0,28.4414656 C0,42.5361454 11.4638546,54 25.5585344,54 C38.2014894,54 49.0621626,44.5808281 50.8274054,32.0878165 C50.834221,32.0469228 50.817182,32.009437 50.8205898,31.9685433 C50.8239976,31.9276497 50.8444444,31.8901638 50.8444444,31.8492702 Z" id="Shape"></path>
                    <path d="M32.18215,21.8258935 L32.175,0.442014496 C43.568525,1.31409648 52.684775,10.4316421 53.557075,21.8187453 L32.18215,21.8258935 Z" id="Shape"></path>
                </g>
            </g>
        </g>
    </g>
</svg>