<?xml version="1.0" encoding="UTF-8"?>
<svg width="62px" height="62px" viewBox="0 0 62 62" version="1.1" xmlns="http://www.w3.org/2000/svg" xmlns:xlink="http://www.w3.org/1999/xlink">
    <!-- Generator: Sketch 61 (89581) - https://sketch.com -->
    <title>icon_dark_menu_setting</title>
    <desc>Created with Sketch.</desc>
    <g id="Symbol" stroke="none" stroke-width="1" fill="none" fill-rule="evenodd">
        <g id="Inbox" transform="translate(-527.000000, -1375.000000)" fill-rule="nonzero" stroke="#74787C" stroke-width="3">
            <g id="Dark_Active" transform="translate(164.000000, 1351.000000)">
                <g id="icon_dark_menu_setting" transform="translate(394.000000, 55.000000) scale(-1, 1) translate(-394.000000, -55.000000) translate(365.000000, 26.000000)">
                    <path d="M53.789823,21.5929107 L50.9613416,21.1132354 C50.7095571,20.4123077 50.4250274,19.7246552 50.1104076,19.0560303 L51.7759902,16.7257996 C53.2251886,14.6898346 52.9924319,11.9401093 51.228171,10.1931 L47.8293028,6.79377744 C46.8686279,5.83309942 45.5951033,5.30386347 44.243698,5.30386347 C43.1794775,5.30386347 42.1617198,5.63175967 41.3076883,6.24639893 L38.9686156,7.91242978 C38.2451225,7.57037354 37.5110094,7.26814267 36.7720289,7.00706485 L36.3043029,4.23565674 C35.8927747,1.78108213 33.7873438,0 31.2978198,0 L26.4957734,0 C24.0066921,0 21.9012612,1.78108213 21.490618,4.23078916 L20.9989968,7.11061093 C20.3047091,7.3641662 19.6201563,7.65223691 18.9497637,7.97393799 L16.6531712,6.31985468 C15.7920598,5.69990537 14.7703196,5.37245175 13.6981339,5.37245175 C12.3334535,5.37245175 11.0594864,5.90257266 10.1094317,6.86546329 L6.70259836,10.2612457 C4.94320502,12.0206451 4.71266069,14.768158 6.15477915,16.7939453 L7.84735457,19.1719666 C7.53538962,19.8432465 7.25484255,20.5339966 7.00704067,21.2389068 L4.23519965,21.7066346 C1.78107598,22.1186065 0,24.2240448 0,26.7131348 L0,31.5151978 C0,34.0042877 1.78107598,36.109726 4.23077456,36.520813 L7.1105864,37.0119934 C7.3641408,37.7067261 7.6526531,38.3917236 7.97391048,39.061676 L6.32602798,41.3538514 C4.87682946,43.3898163 5.10958628,46.1399842 6.87384719,47.8865509 L10.2727154,51.2858734 C11.2333901,52.2465516 12.5069149,52.7757873 13.8583202,52.7757873 C14.9225407,52.7757873 15.9402984,52.4478912 16.7938874,51.8336944 L19.1719005,50.1411133 C19.7967151,50.4313965 20.44454,50.6973419 21.1096226,50.9367371 L21.5808886,53.7647857 C21.9928593,56.2189179 24.0982903,58 26.5873716,58 L31.4004806,58 C33.889562,58 35.9954355,56.2189179 36.4065211,53.7678833 L36.8861948,50.9389496 C37.5871201,50.6871642 38.2747703,50.4026337 38.9433929,50.0880127 L41.266093,51.748291 C42.1272045,52.3682403 43.1489448,52.6961365 44.2211304,52.6961365 C45.5720932,52.6961365 46.8456178,52.1669006 47.8062926,51.2062226 L51.2051608,47.8069 C52.9649968,46.0475006 53.1950985,43.2999878 51.75298,41.2742004 L50.0856274,38.9329071 C50.4086548,38.2487945 50.6940694,37.5615845 50.9396588,36.8783569 L53.7641578,36.4075317 C56.2182814,35.9955597 57.9996825,33.8901215 57.9996825,31.4010314 L57.9996825,26.6087036 C58.0272352,24.1169586 56.2589916,22.0088653 53.789823,21.5929107 Z" id="Shape"></path>
                    <path d="M29,18.3157895 C23.108675,18.3157895 18.3157895,23.108675 18.3157895,29 C18.3157895,34.891325 23.108675,39.6842105 29,39.6842105 C34.891325,39.6842105 39.6842105,34.891325 39.6842105,29 C39.6842105,23.108675 34.891325,18.3157895 29,18.3157895 Z" id="Shape"></path>
                </g>
            </g>
        </g>
    </g>
</svg>