<?xml version="1.0" encoding="UTF-8"?>
<svg width="60px" height="60px" viewBox="0 0 60 60" version="1.1" xmlns="http://www.w3.org/2000/svg" xmlns:xlink="http://www.w3.org/1999/xlink">
    <!-- Generator: Sketch 61 (89581) - https://sketch.com -->
    <title>icon_noti_comment</title>
    <desc>Created with Sketch.</desc>
    <g id="icon_noti_comment" stroke="none" stroke-width="1" fill="none" fill-rule="evenodd">
        <circle id="Oval" stroke="#F3F4FA" fill="#F3F4FA" cx="30" cy="30" r="29.5"></circle>
        <g id="notifications" transform="translate(16.000000, 13.000000)" fill="#788397" fill-rule="nonzero">
            <path d="M17.5526316,31.1918605 C17.1036381,32.5504578 15.911479,33.53125 14.4999391,33.53125 C13.0883992,33.53125 11.89624,32.5504578 11.4473684,31.1918605 L11.4473684,31.1918605 Z M14.5000502,0 C15.0344345,0 15.4667209,0.441013659 15.4667209,0.986174048 L15.4667209,0.986174048 L15.4667209,2.02231188 C20.8780133,2.52294899 25.1334282,7.17180143 25.1334282,12.8207067 L25.1334282,12.8207067 L25.1334282,22.2090126 C25.1334282,24.5321065 26.4399543,26.6932066 28.4630115,27.7170201 C28.8652116,27.9202061 29.0764672,28.3796509 28.9745866,28.8255499 C28.8727061,29.2714489 28.4827793,29.5864428 28.0334404,29.5864428 L28.0334404,29.5864428 L0.966551459,29.5864428 C0.517212494,29.5864428 0.127285764,29.2714489 0.0254051865,28.8255499 C-0.0764753909,28.3796509 0.134888792,27.9202061 0.537088982,27.7170201 C2.56014616,26.6932066 3.86667225,24.5319954 3.86667225,22.2090126 L3.86667225,22.2090126 L3.86667225,12.8207067 C3.86667225,7.17180143 8.1219785,2.52283796 13.5333795,2.02231188 L13.5333795,2.02231188 L13.5333795,0.986174048 C13.5333795,0.44112469 13.965666,0 14.5000502,0 Z" id="Shape"></path>
        </g>
    </g>
</svg>