<?xml version="1.0" encoding="UTF-8"?>
<svg width="58px" height="53px" viewBox="0 0 58 53" version="1.1" xmlns="http://www.w3.org/2000/svg" xmlns:xlink="http://www.w3.org/1999/xlink">
    <!-- Generator: Sketch 61 (89581) - https://sketch.com -->
    <title>icon_dashboard</title>
    <desc>Created with Sketch.</desc>
    <g id="Symbol" stroke="none" stroke-width="1" fill="none" fill-rule="evenodd">
        <g id="Inbox" transform="translate(-204.000000, -1378.000000)" fill="#74787C" fill-rule="nonzero">
            <g id="Dark_Active" transform="translate(164.000000, 1351.000000)">
                <g id="icon_dashboard" transform="translate(40.000000, 27.000000)">
                    <path d="M22.3538951,16.8636364 L4.22899567,16.8636364 C1.89700793,16.8636364 0,15.2089613 0,13.1744867 L0,3.68876362 C0,1.65467511 1.89700793,0 4.22899567,0 L22.3538951,0 C24.6863254,0 26.5833333,1.65467511 26.5833333,3.68876362 L26.5833333,13.1744867 C26.5833333,15.2089613 24.6863254,16.8636364 22.3538951,16.8636364 Z M4.22899567,3.16190769 C3.89579137,3.16190769 3.62497988,3.39812443 3.62497988,3.68876362 L3.62497988,13.1744867 C3.62497988,13.4655119 3.89579137,13.7017287 4.22899567,13.7017287 L22.3538951,13.7017287 C22.687542,13.7017287 22.9583535,13.4655119 22.9583535,13.1744867 L22.9583535,3.68876362 C22.9583535,3.39812443 22.687542,3.16190769 22.3538951,3.16190769 L4.22899567,3.16190769 Z" id="Shape"></path>
                    <path d="M22.3538951,53 L4.22899567,53 C1.89700793,53 0,51.3790885 0,49.3865055 L0,27.7047818 C0,25.7118206 1.89700793,24.0909091 4.22899567,24.0909091 L22.3538951,24.0909091 C24.6863254,24.0909091 26.5833333,25.7118206 26.5833333,27.7047818 L26.5833333,49.3865055 C26.5833333,51.3790885 24.6863254,53 22.3538951,53 Z M4.22899567,27.1882982 C3.89579137,27.1882982 3.62497988,27.4196949 3.62497988,27.7047818 L3.62497988,49.3865055 C3.62497988,49.6712142 3.89579137,49.9026109 4.22899567,49.9026109 L22.3538951,49.9026109 C22.687542,49.9026109 22.9583535,49.6712142 22.9583535,49.3865055 L22.9583535,27.7047818 C22.9583535,27.4196949 22.687542,27.1882982 22.3538951,27.1882982 L4.22899567,27.1882982 Z" id="Shape"></path>
                    <path d="M53.7710043,53 L35.6461049,53 C33.3136746,53 31.4166667,51.3453249 31.4166667,49.3112364 L31.4166667,39.8255133 C31.4166667,37.7910387 33.3136746,36.1363636 35.6461049,36.1363636 L53.7710043,36.1363636 C56.1029921,36.1363636 58,37.7910387 58,39.8255133 L58,49.3112364 C58,51.3453249 56.1029921,53 53.7710043,53 L53.7710043,53 Z M35.6461049,39.2982713 C35.312458,39.2982713 35.0416465,39.5344881 35.0416465,39.8255133 L35.0416465,49.3112364 C35.0416465,49.6018756 35.312458,49.8380923 35.6461049,49.8380923 L53.7710043,49.8380923 C54.1042086,49.8380923 54.3750201,49.6018756 54.3750201,49.3112364 L54.3750201,39.8255133 C54.3750201,39.5344881 54.1042086,39.2982713 53.7710043,39.2982713 L35.6461049,39.2982713 Z" id="Shape"></path>
                    <path d="M53.7710043,28.9090909 L35.6461049,28.9090909 C33.3136746,28.9090909 31.4166667,27.2881794 31.4166667,25.2952182 L31.4166667,3.61349455 C31.4166667,1.62091153 33.3136746,0 35.6461049,0 L53.7710043,0 C56.1029921,0 58,1.62091153 58,3.61349455 L58,25.2952182 C58,27.2881794 56.1029921,28.9090909 53.7710043,28.9090909 L53.7710043,28.9090909 Z M35.6461049,3.09738909 C35.312458,3.09738909 35.0416465,3.32878583 35.0416465,3.61349455 L35.0416465,25.2952182 C35.0416465,25.5803051 35.312458,25.8117018 35.6461049,25.8117018 L53.7710043,25.8117018 C54.1042086,25.8117018 54.3750201,25.5803051 54.3750201,25.2952182 L54.3750201,3.61349455 C54.3750201,3.32878583 54.1042086,3.09738909 53.7710043,3.09738909 L35.6461049,3.09738909 Z" id="Shape"></path>
                </g>
            </g>
        </g>
    </g>
</svg>