<?xml version="1.0" encoding="UTF-8"?>
<svg width="67px" height="71px" viewBox="0 0 67 71" version="1.1" xmlns="http://www.w3.org/2000/svg" xmlns:xlink="http://www.w3.org/1999/xlink">
    <!-- Generator: Sketch 61 (89581) - https://sketch.com -->
    <title>icon_Leads</title>
    <desc>Created with Sketch.</desc>
    <g id="Plusmar-Inbox" stroke="none" stroke-width="1" fill="none" fill-rule="evenodd">
        <g id="Menu" transform="translate(-492.000000, -163.000000)">
            <g id="icon_Leads" transform="translate(494.000000, 165.000000)">
                <path d="M32.3,36 C34.959275,36 37.5563826,36.4288942 40.01613,37.2547992 C35.1736715,40.5921704 32,46.1754598 32,52.5 C32,56.3996907 33.2066029,60.0175641 35.2668398,63.0006514 L1.9,63 C0.850693333,63 0,62.1446604 0,61.0896226 C0,54.4457123 2.56563333,48.1677028 7.22430667,43.4116274 C11.9059067,38.6321179 18.11232,36 24.7,36 L24.7,36 Z M27.5,28 C20.0561,28 14,21.7196 14,14 C14,6.2804 20.0561,-7.10542736e-14 27.5,-7.10542736e-14 C34.9439,-7.10542736e-14 41,6.2804 41,14 C41,21.7196 34.9439,28 27.5,28 Z" id="Shape" stroke="#74787C" stroke-width="3" fill-rule="nonzero"></path>
                <circle id="Oval" stroke="#9799A5" stroke-width="3" cx="47.5" cy="51.5" r="16"></circle>
                <path d="M53.6904138,54.0131422 L47.6191723,54.0131422 L47.6191723,44.4934289 C47.6191723,43.6686309 47.0328506,43 46.3095862,43 C45.5863217,43 45,43.6686309 45,44.4934289 L45,55.4767025 C45.0070339,56.3118092 45.5970992,56.9879573 46.3293609,57 L53.6904138,57 C54.4136783,57 55,56.3313691 55,55.5065711 C55,54.6817731 54.4136783,54.0131422 53.6904138,54.0131422 L53.6904138,54.0131422 Z" id="Path" fill="#9799A5" fill-rule="nonzero"></path>
            </g>
        </g>
    </g>
</svg>