<?xml version="1.0" encoding="UTF-8"?>
<svg width="62px" height="60px" viewBox="0 0 62 60" version="1.1" xmlns="http://www.w3.org/2000/svg" xmlns:xlink="http://www.w3.org/1999/xlink">
    <!-- Generator: Sketch 61 (89581) - https://sketch.com -->
    <title>icon_dark_menu_SalePage</title>
    <desc>Created with Sketch.</desc>
    <g id="Symbol" stroke="none" stroke-width="1" fill="none" fill-rule="evenodd">
        <g id="Inbox" transform="translate(-314.000000, -1374.000000)" fill-rule="nonzero" stroke="#74787C" stroke-width="3">
            <g id="Dark_Active" transform="translate(164.000000, 1351.000000)">
                <g id="icon_dark_menu_SalePage" transform="translate(151.000000, 24.000000)">
                    <g id="shopping-cart" transform="translate(0.222222, 0.600000)">
                        <path d="M21.7780291,43.4 C17.9117311,43.4 14.7777778,46.3100995 14.7777778,49.9002334 C14.7777778,53.4899006 17.9117311,56.4 21.7780291,56.4 C25.6438246,56.4 28.7777778,53.4899006 28.7777778,49.9002334 C28.7737567,46.3119664 25.6423167,43.4037339 21.7780291,43.4 L21.7780291,43.4 Z" id="Shape"></path>
                        <path d="M57.52007,12.0341083 L12.6830883,12.0341083 L11.7689286,7.02790418 C11.205453,3.94615533 8.73627916,1.53549117 5.58508172,0.99056846 L2.2706945,0.419442943 C1.57974253,0.29910383 0.920535661,0.749890234 0.797523387,1.42534203 C0.675007099,2.10127916 1.13531109,2.7461609 1.82626306,2.86650002 L5.15305068,3.43762553 C7.2521956,3.80155437 8.89550066,5.40914902 9.26751365,7.46267775 L13.7624218,32.2695184 C14.2931603,35.2377214 16.9294918,37.4028549 20.0097588,37.3999719 L46.6756453,37.3999719 C49.4771506,37.4081926 51.9512845,35.6142664 52.7583046,32.9900973 L58.726384,13.6363654 C58.8369957,13.2588499 58.7670573,12.8522202 58.5359133,12.5309924 C58.2943529,12.2199546 57.9188679,12.0365346 57.52007,12.0341083 Z" id="Shape"></path>
                        <path d="M44.7780291,43.4 C40.9117311,43.4 37.7777778,46.3100995 37.7777778,49.9002334 C37.7777778,53.4899006 40.9117311,56.4 44.7780291,56.4 C48.6438246,56.4 51.7777778,53.4899006 51.7777778,49.9002334 C51.7737567,46.3119664 48.6423167,43.4037339 44.7780291,43.4 L44.7780291,43.4 Z" id="Shape"></path>
                    </g>
                </g>
            </g>
        </g>
    </g>
</svg>