<?xml version="1.0" encoding="UTF-8"?>
<svg width="62px" height="63px" viewBox="0 0 62 63" version="1.1" xmlns="http://www.w3.org/2000/svg" xmlns:xlink="http://www.w3.org/1999/xlink">
    <!-- Generator: Sketch 61 (89581) - https://sketch.com -->
    <title>icon_NewSales</title>
    <desc>Created with Sketch.</desc>
    <g id="Symbol" stroke="none" stroke-width="1" fill="none" fill-rule="evenodd">
        <g id="Inbox" transform="translate(-1113.000000, -1373.000000)" fill-rule="nonzero">
            <g id="Dark_Active" transform="translate(164.000000, 1351.000000)">
                <g id="icon_NewSales" transform="translate(951.000000, 24.000000)">
                    <path d="M39.2597857,18.3969489 L18.7402143,18.3969489 C17.5258968,18.3969489 16.5417381,19.3773369 16.5417381,20.5870018 C16.5417381,21.7966667 17.5258968,22.7770547 18.7402143,22.7770547 L39.2597857,22.7770547 C40.4741032,22.7770547 41.4582619,21.7966667 41.4582619,20.5870018 C41.4582619,19.3773369 40.4741032,18.3969489 39.2597857,18.3969489 Z" id="Path" fill="#9799A5"></path>
                    <path d="M39.2597857,27.1573898 L18.7402143,27.1573898 C17.5258968,27.1573898 16.5417381,28.1377778 16.5417381,29.3474427 C16.5417381,30.5571076 17.5258968,31.5374956 18.7402143,31.5374956 L39.2597857,31.5374956 C40.4741032,31.5374956 41.4582619,30.5571076 41.4582619,29.3474427 C41.4582619,28.1377778 40.4741032,27.1573898 39.2597857,27.1573898 Z" id="Path" fill="#9799A5"></path>
                    <path d="M39.2597857,35.917716 L18.7402143,35.917716 C17.5258968,35.917716 16.5417381,36.8981041 16.5417381,38.107769 C16.5417381,39.3174339 17.5258968,40.2978219 18.7402143,40.2978219 L39.2597857,40.2978219 C40.4741032,40.2978219 41.4582619,39.3174339 41.4582619,38.107769 C41.4582619,36.8981041 40.4741032,35.917716 39.2597857,35.917716 Z" id="Path" fill="#9799A5"></path>
                    <path d="M29,0 C13.0387222,0 0.0527063492,12.936261 0.0527063492,28.8363845 C0.0527063492,32.4493298 0.71959127,35.9842063 2.03794048,39.3496473 C3.06249206,41.9347443 4.4197381,44.3094797 6.08102381,46.4281129 L2.13472222,55.6455026 C1.81813889,56.3843474 1.93321825,57.2355379 2.43369841,57.8647884 C2.85511905,58.3948765 3.49265873,58.6948854 4.15655159,58.6948854 C4.28187302,58.6948854 4.40869048,58.6846825 4.53470238,58.6619841 L19.4854683,56.0630159 C22.4798333,57.1317901 25.6773135,57.672769 29,57.672769 C44.9613929,57.672769 57.9472937,44.7365079 57.9472937,28.8363845 C57.9472937,12.936261 44.9613929,0 29,0 Z" id="Shape" stroke="#74787C" stroke-width="3"></path>
                </g>
            </g>
        </g>
    </g>
</svg>