<?xml version="1.0" encoding="UTF-8"?>
<svg width="60px" height="60px" viewBox="0 0 60 60" version="1.1" xmlns="http://www.w3.org/2000/svg" xmlns:xlink="http://www.w3.org/1999/xlink">
    <!-- Generator: Sketch 61 (89581) - https://sketch.com -->
    <title>icon_noti_inbox</title>
    <desc>Created with Sketch.</desc>
    <g id="icon_noti_inbox" stroke="none" stroke-width="1" fill="none" fill-rule="evenodd">
        <g id="Group-6" opacity="0.536342076">
            <circle id="Oval" cx="30" cy="30" r="30"></circle>
        </g>
        <circle id="Oval" stroke="#F3F4FA" fill="#F3F4FA" cx="30" cy="30" r="29.5"></circle>
        <g id="icon_btn-comment" transform="translate(14.000000, 14.000000)" fill="#788397" fill-rule="nonzero">
            <path d="M16,0 C24.8223199,0 32,7.24865972 32,16.1580799 C32,25.0675 24.8223199,32.3161597 16,32.3161597 C14.1634558,32.3161597 12.3961168,32.0130295 10.7410452,31.4141562 L10.7410452,31.4141562 L2.47732784,32.8704531 C2.40767745,32.8831719 2.3375818,32.8888889 2.26831305,32.8888889 C1.90136041,32.8888889 1.54897393,32.720783 1.31604265,32.4237552 C1.0394129,32.0711632 0.975805233,31.5942101 1.15078993,31.1802083 L1.15078993,31.1802083 L3.33202408,26.0153681 C2.41378378,24.8282205 1.66359495,23.4975694 1.09729588,22.0490451 C0.368606436,20.1632656 0,18.1825451 0,16.1580799 C0,7.24865972 7.17774368,0 16,0 Z M7.40688914,9.94315245 L6.0952381,9.94315245 L6.0952381,22.3994094 L9.08417741,22.3994094 L9.08417741,15.1904865 C9.08417741,13.8441806 10.2150161,12.7527839 11.6099762,12.7527839 C13.0049364,12.7527839 14.1357751,13.8441806 14.1357751,15.1904865 L14.1357751,22.3994094 L17.1247144,22.3994094 L17.1247144,15.1904865 C17.1247144,13.8441806 18.255553,12.7527839 19.6505132,12.7527839 C21.0454734,12.7527839 22.176312,13.8441806 22.176312,15.1904865 L22.176312,22.3994094 L23.5564475,22.3994094 C24.4660205,22.3325031 25.1678893,21.5993985 25.1652661,20.7190078 L25.1652661,14.3323614 C25.1660655,12.4894077 23.9712333,10.8431904 22.176312,10.2142572 C20.0405177,9.46606866 17.660458,10.3561742 16.604697,12.2979552 C15.9368919,11.0699965 14.7062724,10.2195621 13.2866372,10.0049702 C11.8670019,9.79037838 10.4258997,10.2369557 9.40106302,11.209055 C9.39750081,11.2130742 9.39361991,11.2168197 9.38945549,11.2202577 L9.37088344,11.2325806 C9.33832763,11.2528036 9.30048784,11.2636819 9.26177264,11.2639481 C9.18311022,11.2647386 9.11129963,11.220874 9.07837365,11.1519213 C8.85894758,10.4369534 8.17950498,9.94560028 7.40688914,9.94315245 Z" id="Combined-Shape"></path>
        </g>
    </g>
</svg>