<?xml version="1.0" encoding="UTF-8"?>
<svg width="62px" height="59px" viewBox="0 0 62 59" version="1.1" xmlns="http://www.w3.org/2000/svg" xmlns:xlink="http://www.w3.org/1999/xlink">
    <!-- Generator: Sketch 61 (89581) - https://sketch.com -->
    <title>icon_dark_menu_AdsOptimize</title>
    <desc>Created with Sketch.</desc>
    <g id="Symbol" stroke="none" stroke-width="1" fill="none" fill-rule="evenodd">
        <g id="Inbox" transform="translate(-1217.000000, -1376.000000)" fill-rule="nonzero" stroke="#74787C" stroke-width="3">
            <g id="Dark_Active" transform="translate(164.000000, 1351.000000)">
                <g id="icon_dark_menu_AdsOptimize" transform="translate(1055.000000, 27.000000)">
                    <path d="M12.9816567,54.871026 C12.3462033,54.871026 11.7151751,54.6755132 11.1766329,54.2914701 C10.1734486,53.5744442 9.70482387,52.3420151 9.97785636,51.1527908 L13.7091534,34.9431185 L1.05495874,23.998764 C0.124789525,23.1979469 -0.230550937,21.9297319 0.151340614,20.7693109 C0.533232051,19.6110719 1.5722602,18.7910526 2.80245537,18.6788946 L19.5455001,17.1798175 L26.1651007,1.90232245 C26.6531962,0.779869301 27.764797,0.0549880404 28.9998599,0.0549880404 C30.2349226,0.0549880404 31.3465234,0.779869301 31.8346189,1.89970391 L38.4542195,17.1798175 L55.1946091,18.6788946 C56.4274594,18.7884342 57.4664876,19.6110719 57.8483791,20.7693109 C58.2302706,21.9275498 57.8771426,23.1979469 56.9469734,23.998764 L44.2927788,34.9409365 L48.0240758,51.1501724 C48.2975509,52.3420151 47.8284837,53.5744442 46.8257418,54.289288 C45.8252126,55.0041318 44.4910261,55.0591198 43.4373949,54.4346134 L28.9998599,45.9258774 L14.5623247,54.439414 C14.0742292,54.7252642 13.5303768,54.871026 12.9816567,54.871026 Z" id="Shape"></path>
                </g>
            </g>
        </g>
    </g>
</svg>