<svg width="25" height="25" viewBox="0 0 25 25" fill="none" xmlns="http://www.w3.org/2000/svg">
<path d="M12.4999 24.3421C19.0402 24.3421 24.342 19.0402 24.342 12.5C24.342 5.95979 19.0402 0.657898 12.4999 0.657898C5.95973 0.657898 0.657837 5.95979 0.657837 12.5C0.657837 19.0402 5.95973 24.3421 12.4999 24.3421Z" fill="#003399"/>
<path d="M19.9342 14.7237C19.931 15.2398 19.8848 15.7547 19.7961 16.2631C19.7321 16.5864 19.6118 16.8959 19.4408 17.1776C19.3026 17.4104 19.1441 17.6306 18.9671 17.8355C18.5137 18.3383 18.0112 18.7945 17.4671 19.1973L16.8092 19.7105C16.3816 20.0526 15.9342 20.3684 15.4935 20.6644C14.6842 21.2368 13.875 21.796 13.0592 22.3618C12.8882 22.4802 12.7106 22.5921 12.5329 22.7039L12.4145 22.7763C12.364 22.8071 12.3059 22.8234 12.2467 22.8234C12.1876 22.8234 12.1295 22.8071 12.079 22.7763C12.0153 22.7429 11.9538 22.7056 11.8948 22.6645C11.4606 22.375 11.0264 22.0855 10.579 21.7894C9.78293 21.2302 8.9803 20.6776 8.19083 20.1052C7.66451 19.7237 7.15135 19.3223 6.64477 18.9144C6.41366 18.7306 6.19396 18.5329 5.98688 18.3223C5.75252 18.086 5.53281 17.8355 5.32899 17.5723C4.97051 17.1305 4.74264 16.5973 4.67109 16.0329C4.58825 15.4071 4.56622 14.7747 4.6053 14.1447C4.65347 13.3695 4.85471 12.6115 5.19741 11.9144C5.48093 11.3305 5.81325 10.7715 6.19083 10.2434C6.59214 9.67761 6.98688 9.10524 7.40135 8.55261C8.18425 7.48682 8.96714 6.42761 9.76977 5.37497C10.4277 4.51971 11.0856 3.67761 11.7435 2.8355C11.8224 2.73024 11.9079 2.62497 12 2.51971L12.1119 2.39471C12.1297 2.37151 12.1526 2.35272 12.1788 2.33979C12.2051 2.32686 12.2339 2.32013 12.2632 2.32013C12.2924 2.32013 12.3213 2.32686 12.3475 2.33979C12.3738 2.35272 12.3967 2.37151 12.4145 2.39471L12.5329 2.52629C12.8158 2.87497 13.0987 3.18419 13.3685 3.57234C14.0987 4.51313 14.8356 5.45392 15.5527 6.40787C16.5 7.66664 17.4255 8.93857 18.329 10.2237C18.7496 10.8139 19.1152 11.4416 19.4211 12.0987C19.7108 12.7191 19.8804 13.3888 19.9211 14.0723C19.9145 14.296 19.9211 14.546 19.9342 14.7237ZM7.7303 11.2368C7.71899 11.5774 7.79605 11.9151 7.95398 12.2171C8.08674 12.4825 8.25253 12.7301 8.44741 12.9539L11.8356 16.9013C11.8902 16.9691 11.952 17.0309 12.0198 17.0855C12.0799 17.1352 12.1555 17.1625 12.2336 17.1625C12.3116 17.1625 12.3873 17.1352 12.4474 17.0855L12.5264 17.0131C12.5736 16.9681 12.6176 16.9197 12.6579 16.8684C13.2106 16.2105 13.7632 15.5855 14.3092 14.9408C14.8553 14.296 15.454 13.625 16.0198 12.9342C16.1228 12.8207 16.2174 12.6997 16.3027 12.5723C16.5564 12.2211 16.7088 11.8069 16.7435 11.375C16.7773 10.9937 16.6898 10.6115 16.4935 10.2829C16.4145 10.1579 16.3356 10.0329 16.25 9.91445C15.8027 9.29603 15.3553 8.68419 14.9014 8.07234C14.4474 7.4605 14.0264 6.88155 13.5856 6.29603L12.6382 5.0855C12.5822 5.01074 12.5207 4.94036 12.454 4.87497C12.4257 4.8449 12.3915 4.82094 12.3536 4.80456C12.3157 4.78819 12.2749 4.77974 12.2336 4.77974C12.1923 4.77974 12.1514 4.78819 12.1135 4.80456C12.0756 4.82094 12.0415 4.8449 12.0132 4.87497C11.9581 4.92342 11.9095 4.97869 11.8685 5.03945C11.6119 5.36182 11.3487 5.69734 11.1053 6.01971L8.55267 9.51971C8.3882 9.74998 8.22372 9.97366 8.06583 10.1776C7.83094 10.4792 7.71191 10.855 7.7303 11.2368ZM13.2698 19.2237C13.2698 19.4868 13.2698 19.671 13.2698 19.8816C13.2749 19.96 13.2904 20.0374 13.3158 20.1118C13.3367 20.1684 13.3779 20.2153 13.4314 20.2432C13.4849 20.2712 13.5469 20.2783 13.6053 20.2631C13.6582 20.2503 13.7091 20.2304 13.7566 20.2039C13.8249 20.1639 13.8908 20.12 13.954 20.0723C14.3619 19.7894 14.7698 19.5066 15.1711 19.2171L17.0329 17.8618C17.2324 17.7122 17.4096 17.535 17.5592 17.3355L17.7566 17.0658C18.175 16.4498 18.4038 15.7248 18.4145 14.9802C18.4255 14.311 18.3277 13.6445 18.125 13.0066C18.1106 12.95 18.0861 12.8965 18.0527 12.8487C18.0335 12.8091 18.0051 12.7748 17.9697 12.7488C17.9343 12.7228 17.8931 12.7058 17.8497 12.6993C17.8062 12.6928 17.7618 12.6971 17.7204 12.7116C17.679 12.7262 17.6417 12.7506 17.6119 12.7829C17.5665 12.8278 17.5247 12.8762 17.4869 12.9276L17.1448 13.4144C16.7961 13.8947 16.4869 14.3816 16.1053 14.8487C15.6185 15.5066 15.0856 16.1118 14.5527 16.7171L13.6514 17.7302C13.3945 18.0152 13.2435 18.38 13.2237 18.7631C13.2764 18.9342 13.2764 19.1184 13.2698 19.2237ZM11.1842 19.3026C11.1842 19.1973 11.1842 19.0394 11.1842 18.8881C11.1834 18.4459 11.0194 18.0196 10.7237 17.6908C10.3685 17.3026 10.0264 16.9013 9.67767 16.5066C8.95052 15.69 8.26963 14.8334 7.6382 13.9408C7.40793 13.6118 7.17767 13.2829 6.94083 12.9605C6.89085 12.883 6.83116 12.8123 6.7632 12.75C6.73544 12.7238 6.70219 12.7042 6.66588 12.6925C6.62957 12.6808 6.59111 12.6773 6.5533 12.6824C6.51549 12.6874 6.47928 12.7008 6.4473 12.7216C6.41533 12.7424 6.38839 12.7701 6.36846 12.8026C6.34252 12.8338 6.32246 12.8695 6.30925 12.9079C6.28369 12.9627 6.26385 13.02 6.25004 13.0789C6.12495 13.5197 6.04125 13.9713 6.00004 14.4276C5.94662 14.9627 6.0031 15.5031 6.16601 16.0156C6.32891 16.528 6.59482 17.0018 6.94741 17.4079C7.07377 17.566 7.21967 17.7075 7.38162 17.8289L7.96714 18.2631C8.52635 18.6644 9.08556 19.0658 9.65135 19.4605L10.5329 20.1184C10.6022 20.1689 10.6773 20.2108 10.7566 20.2434C10.7923 20.2615 10.8318 20.2709 10.8718 20.271C10.9118 20.2711 10.9513 20.2618 10.9871 20.2439C11.0229 20.226 11.0541 20.2 11.078 20.1679C11.1019 20.1358 11.1181 20.0986 11.125 20.0592C11.135 19.9872 11.135 19.9141 11.125 19.8421C11.1842 19.6644 11.1842 19.5066 11.1842 19.3026Z" fill="white"/>
</svg>
