<svg width="24" height="25" viewBox="0 0 24 25" fill="none" xmlns="http://www.w3.org/2000/svg">
<path d="M12.0968 24.3421C18.4261 24.3421 23.5569 19.0402 23.5569 12.5C23.5569 5.95979 18.4261 0.657898 12.0968 0.657898C5.76758 0.657898 0.636719 5.95979 0.636719 12.5C0.636719 19.0402 5.76758 24.3421 12.0968 24.3421Z" fill="#37C5E3"/>
<path d="M15.6113 17.5198C15.6113 17.5198 15.7131 17.3487 15.7704 17.5855C15.8212 18.4117 15.5586 19.2258 15.0383 19.8553C14.5965 20.2932 14.0594 20.615 13.4722 20.7936C12.885 20.9723 12.2648 21.0024 11.6639 20.8816C11.6639 20.8816 14.0387 20.7237 14.6435 18.4211L14.7136 18.1645C15.0674 18.0382 15.3789 17.8099 15.6113 17.5066V17.5198ZM21.0102 10.454C21.0191 10.4239 21.0191 10.3919 21.0102 10.3619C21.0102 10.3619 20.972 10.2237 20.8829 9.98686C20.863 9.95503 20.85 9.91912 20.8447 9.8816C20.8477 9.86862 20.8477 9.8551 20.8447 9.84212C20.604 9.32083 20.269 8.85189 19.8579 8.46055C19.8579 8.46055 20.4118 8.46055 19.8069 7.80265C18.96 6.93543 17.9591 6.24519 16.8591 5.76976C15.8086 5.26318 14.6435 5.46055 14.7327 6.57897C14.8027 7.36186 14.0578 7.67107 13.4593 7.60528C12.7653 7.51976 12.3324 6.94739 12.4597 6.51318C12.5704 6.04263 12.8446 5.63052 13.2301 5.35528C13.4898 5.11992 13.8109 4.96889 14.1533 4.92107C14.4398 4.86844 14.8345 4.76318 14.9428 5.09212C15.1401 4.98686 15.4967 4.32897 14.3379 4.32897C14.2825 4.22564 14.1981 4.14207 14.0958 4.08923C13.9935 4.03639 13.8782 4.01676 13.7649 4.03291C13.5886 3.8778 13.3837 3.76124 13.1626 3.69026C12.9415 3.61929 12.7088 3.59538 12.4785 3.61997C12.2482 3.64457 12.0251 3.71717 11.8227 3.83337C11.6203 3.94958 11.4428 4.10698 11.301 4.29607C11.301 4.29607 10.798 4.48686 10.7662 4.29607C10.8681 4.3816 11.0654 4.12502 10.8171 4.01976C10.6898 3.96712 10.5497 4.10528 10.5306 4.21055C10.5252 4.25065 10.5281 4.29147 10.5389 4.33037C10.5498 4.36928 10.5684 4.40539 10.5936 4.43639C10.6188 4.46739 10.65 4.49259 10.6852 4.51035C10.7204 4.5281 10.7589 4.53803 10.798 4.53949C10.8636 4.54658 10.9298 4.54658 10.9954 4.53949L10.9063 4.64476C10.5115 4.79607 10.155 4.64476 10.0849 4.41449C10.1051 4.42509 10.1273 4.43092 10.15 4.43155C10.1726 4.43219 10.1951 4.42762 10.2158 4.41818C10.2365 4.40873 10.255 4.39465 10.2698 4.37695C10.2846 4.35924 10.2954 4.33836 10.3014 4.31581C10.308 4.28479 10.3078 4.25267 10.3011 4.22171C10.2943 4.19075 10.281 4.1617 10.2622 4.13661C10.2434 4.11152 10.2195 4.091 10.1921 4.07649C10.1648 4.06198 10.1347 4.05385 10.104 4.05265C9.88758 4.05265 9.79844 4.26318 9.83664 4.46712C9.85952 4.55489 9.89893 4.63713 9.95262 4.70913C10.0063 4.78112 10.0732 4.84146 10.1495 4.88669C10.2258 4.93192 10.31 4.96114 10.3972 4.97269C10.4845 4.98423 10.5731 4.97787 10.658 4.95397L10.5879 5.05923C10.3045 5.407 10.0469 5.77648 9.81754 6.16449C9.46101 6.7566 8.01576 7.41449 8.26406 5.99344C8.3341 5.53949 7.56372 5.0066 6.19488 5.90791C5.26318 6.50888 4.48044 7.32672 3.90922 8.29607C3.90922 8.29607 3.62272 8.75002 4.10023 8.76318C4.10023 8.76318 3.11975 9.21712 3.06882 11.3948V11.8421C3.05763 12.0613 3.05763 12.2809 3.06882 12.5C3.06882 12.5 3.17705 13.8158 3.41262 14.0263C3.48265 14.079 3.57179 14.0987 3.69912 13.9737C3.90138 14.9081 4.20687 15.8153 4.60956 16.6777C5.18257 17.6382 6.09301 19.079 5.73011 19.4079C5.3672 19.7369 4.87697 19.079 4.947 19.3355C4.98108 19.448 5.04009 19.5506 5.11934 19.6353C5.19859 19.72 5.29588 19.7844 5.40347 19.8234C5.51107 19.8624 5.62598 19.8748 5.73906 19.8598C5.85214 19.8448 5.96026 19.8027 6.05481 19.7369C6.91432 19.079 5.66007 17.5 5.2717 15.5066C6.09301 15.1579 6.05481 13.9145 6.05481 13.9145C6.41547 13.8828 6.75692 13.733 7.02946 13.4869C7.30201 13.2407 7.49141 12.9111 7.57009 12.5461C7.95592 12.6571 8.36575 12.6399 8.74164 12.4971C9.11753 12.3542 9.44045 12.0929 9.66474 11.75C9.82758 12.1866 10.1001 12.5704 10.4542 12.8619C10.4166 13.05 10.3276 13.223 10.1979 13.3606C10.0682 13.4981 9.90305 13.5944 9.72204 13.6382C9.17103 13.4437 8.57314 13.4437 8.02213 13.6382C7.21992 13.954 7.54462 14.7829 8.13036 14.579C8.08333 14.5619 8.04344 14.5285 8.01744 14.4846C7.99145 14.4406 7.98093 14.3888 7.98766 14.3377C7.9944 14.2867 8.01798 14.2396 8.05442 14.2044C8.09085 14.1693 8.13792 14.1482 8.18766 14.1448C8.2556 14.1969 8.33388 14.2329 8.41686 14.25C8.8226 14.315 9.23707 14.2904 9.63291 14.1776C9.63291 14.1776 9.70294 14.1776 9.74114 14.125C9.78974 14.0987 9.83298 14.063 9.86848 14.0198C9.91721 14.0177 9.96497 14.0343 10.0025 14.0664C10.0401 14.0985 10.0649 14.1439 10.072 14.1938C10.0791 14.2436 10.0681 14.2944 10.0411 14.3364C10.0141 14.3784 9.97302 14.4085 9.92578 14.4211C10.0086 14.4475 10.0973 14.4464 10.1795 14.4179C10.2617 14.3895 10.3332 14.3351 10.3838 14.2624C10.4345 14.1897 10.4617 14.1024 10.4618 14.0128C10.4619 13.9233 10.4347 13.8359 10.3842 13.7632L10.6389 13.5921C10.7396 13.498 10.8294 13.392 10.9063 13.2763C11.3311 13.5418 11.7993 13.7246 12.2878 13.8158C12.0176 14.2394 11.612 14.5514 11.1418 14.6974C10.6079 14.5265 10.0326 14.5568 9.51831 14.7829C9.42027 14.8348 9.33944 14.9157 9.28614 15.0154C9.23284 15.115 9.20949 15.2287 9.21907 15.3421C9.23015 15.4154 9.25593 15.4856 9.29475 15.548C9.33358 15.6104 9.38459 15.6638 9.44453 15.7046C9.50446 15.7455 9.572 15.773 9.64281 15.7854C9.71362 15.7977 9.78615 15.7946 9.85574 15.7763C9.70931 15.704 9.39097 15.3553 9.79844 15.204C9.86619 15.3038 9.96901 15.3722 10.0849 15.3948C10.5492 15.4754 11.026 15.4184 11.4602 15.2303C11.4898 15.234 11.5197 15.234 11.5493 15.2303C11.5617 15.2348 11.5751 15.2348 11.5875 15.2303C11.6302 15.206 11.6671 15.1723 11.6957 15.1316C11.8931 15.0921 12.1605 15.1842 12.0523 15.5461C12.2815 15.5132 12.6571 15.1119 12.1032 14.7829C12.3129 14.6774 12.5114 14.5495 12.6953 14.4013L13.09 14.0198C13.4722 14.0835 13.8188 14.2891 14.0649 14.5979C14.311 14.9067 14.4397 15.2976 14.4271 15.6974C14.3996 16.0806 14.2645 16.4472 14.0383 16.7523C13.8121 17.0573 13.5047 17.2874 13.1537 17.4145H13.2237H13.1346C13.017 17.4367 12.8976 17.4478 12.7781 17.4474C12.0968 17.4474 12.5107 16.6711 12.5107 16.6711C12.4542 16.6618 12.3963 16.6679 12.3428 16.6887C12.2892 16.7094 12.2418 16.7442 12.2051 16.7895C12.1487 16.8753 12.1101 16.9721 12.0914 17.0739C12.0728 17.1758 12.0747 17.2805 12.0968 17.3816C12.065 17.3816 12.0268 17.3816 12.0077 17.3487C11.422 17.1053 11.4538 16.6908 11.4538 16.6908C11.2946 16.7566 11.1864 16.9474 11.2437 17.2763C11.3328 17.7105 11.8804 17.9342 12.3642 17.9342C12.5926 18.1353 12.8662 18.2739 13.1599 18.3371C13.4536 18.4003 13.758 18.3862 14.045 18.2961C14.045 18.2961 13.593 20.4605 10.6962 20.3948C10.6962 20.3948 9.82391 20.079 9.86211 19.3684C9.86032 19.1085 9.9254 18.8527 10.0507 18.6273C10.176 18.4019 10.357 18.2149 10.5752 18.0855C10.3243 18.0615 10.0732 18.1303 9.86681 18.2797C9.66041 18.4291 9.51208 18.6494 9.44827 18.9013C9.38182 19.1236 9.36795 19.3591 9.40784 19.5881C9.44772 19.817 9.54019 20.0327 9.67748 20.2171C8.58877 19.9408 7.76746 19.1448 8.11126 18.0329C8.17459 17.8457 8.27671 17.6751 8.4105 17.5329C8.7023 17.3185 9.03969 17.1797 9.39424 17.1282C9.7488 17.0767 10.1101 17.1139 10.4478 17.2369C10.3685 17.0332 10.2294 16.8602 10.0502 16.7423C9.87093 16.6243 9.66048 16.5672 9.44827 16.579C9.21217 16.5593 8.97465 16.5888 8.74978 16.6657C8.52491 16.7426 8.31727 16.8654 8.13915 17.0267C7.96104 17.1881 7.81608 17.3847 7.71286 17.605C7.60964 17.8253 7.55027 18.0648 7.53826 18.3092C7.44912 19.5921 8.28953 20.5263 10.3778 20.8224H10.4096C11.3378 21.3656 12.4355 21.5098 13.4657 21.2237C13.9613 21.1261 14.4319 20.9235 14.848 20.6287C15.2641 20.3339 15.6166 19.9533 15.8834 19.5108C16.1501 19.0683 16.3253 18.5735 16.3979 18.0576C16.4705 17.5417 16.439 17.0159 16.3052 16.5132C16.3052 16.5132 17.1456 13.8421 15.3757 12.3355C15.7257 12.5877 16.1276 12.7522 16.5497 12.8161C16.9718 12.8801 17.4025 12.8417 17.8078 12.704C17.7186 15.125 18.7692 15.4408 18.7692 15.4408H18.8074C18.8074 15.4408 16.8209 19.579 17.986 20.1184C18.0826 20.173 18.1891 20.2065 18.2987 20.2168C18.4084 20.227 18.5189 20.2139 18.6235 20.1781C18.728 20.1423 18.8242 20.0846 18.9063 20.0087C18.9883 19.9328 19.0543 19.8403 19.1002 19.7369C19.2976 19.3421 18.6673 20.1184 18.3108 19.7895C17.9542 19.4605 18.419 18.3882 18.9474 17.329C19.5251 16.3401 19.9544 15.2665 20.2208 14.1448C20.2578 14.162 20.2979 14.1709 20.3386 14.1709C20.3792 14.1709 20.4193 14.162 20.4563 14.1448C20.7365 14.079 20.9211 12.9342 20.9529 12.7434C21.1389 11.99 21.1585 11.2031 21.0102 10.4408" fill="white"/>
</svg>
