<svg width="25" height="25" viewBox="0 0 25 25" fill="none" xmlns="http://www.w3.org/2000/svg">
<path d="M13.4868 24.2961C13.3947 24.2961 13.3026 24.2961 13.2105 24.2961C13.1184 24.2961 12.9276 24.2961 12.7829 24.2961C12.4868 24.2961 12.1842 24.2961 11.8816 24.2961C11.6842 24.2961 11.4868 24.2961 11.2961 24.25C11.1053 24.204 10.8092 24.1974 10.5724 24.1579C10.0969 24.0823 9.62667 23.9769 9.16447 23.8421C8.69345 23.706 8.23192 23.539 7.7829 23.3421C7.50658 23.2171 7.23026 23.079 6.95395 22.9408L6.86184 22.8882C6.8389 22.877 6.81901 22.8604 6.80386 22.8399C6.78872 22.8193 6.77879 22.7954 6.77491 22.7702C6.77103 22.745 6.77332 22.7192 6.78158 22.6951C6.78985 22.6709 6.80384 22.6491 6.82237 22.6316C6.87594 22.5671 6.93305 22.5056 6.99342 22.4474C7.40903 22.0097 7.79373 21.5436 8.14474 21.0526C8.70376 20.2696 9.20929 19.4498 9.6579 18.5987C10.2376 17.5162 10.7475 16.3977 11.1842 15.25C11.4803 14.4474 11.75 13.625 11.9671 12.7895C12.0855 12.3355 12.1908 11.875 12.2697 11.4079C12.3158 11.1447 12.3487 10.875 12.3882 10.6053C12.3882 10.5132 12.3882 10.4211 12.4211 10.329C12.4144 10.3031 12.4144 10.2759 12.4211 10.25C12.4263 10.2366 12.4343 10.2244 12.4445 10.2143C12.4547 10.2041 12.4669 10.1961 12.4803 10.1908C12.4803 10.1908 12.5329 10.1908 12.5395 10.2368C12.5536 10.2866 12.5646 10.3371 12.5724 10.3882C12.6184 10.6908 12.6513 11 12.6974 11.3026C12.8212 12.0247 12.9881 12.7387 13.1974 13.4408C13.487 14.4119 13.8274 15.3672 14.2171 16.3026C14.7319 17.5406 15.3412 18.7371 16.0395 19.8816C16.4578 20.5728 16.9262 21.2324 17.4408 21.8553C17.6458 22.1029 17.8655 22.338 18.0987 22.5592C18.1328 22.5912 18.1637 22.6264 18.1908 22.6645C18.2069 22.681 18.219 22.701 18.2262 22.7229C18.2334 22.7448 18.2355 22.7681 18.2324 22.791C18.2292 22.8138 18.2208 22.8356 18.2079 22.8548C18.195 22.8739 18.1779 22.8898 18.1579 22.9013L18.0658 22.954C17.5992 23.2065 17.1156 23.4264 16.6184 23.6118C16.2171 23.7566 15.8158 23.8816 15.4013 23.9868C15.0414 24.0788 14.6769 24.1512 14.3092 24.204L13.8158 24.2763L13.4868 24.3421V24.2961Z" fill="#FFC423"/>
<path d="M12.9473 0.657898L13.7499 0.723687C15.2425 0.893409 16.6905 1.33961 18.0197 2.03948L18.0986 2.08553C18.1357 2.10537 18.1668 2.13472 18.1888 2.17056C18.2107 2.2064 18.2228 2.24745 18.2236 2.28948C18.2236 2.4079 18.2236 2.52632 18.2236 2.64474C18.2236 2.76316 18.2236 2.82237 18.2236 2.91448C18.2236 3.26974 18.1644 3.63158 18.1249 3.99342C18.0855 4.35527 18.046 4.65132 17.9934 4.96711C17.921 5.42764 17.8486 5.88158 17.7631 6.34211C17.5687 7.38163 17.2938 8.40445 16.9407 9.40132C16.7268 10.0175 16.4466 10.6087 16.1052 11.1645C15.9309 11.4569 15.721 11.7265 15.4802 11.9671C15.3972 12.0491 15.3094 12.126 15.217 12.1974C15.0723 12.3026 14.9736 12.2763 14.9013 12.1118C14.7631 11.7961 14.6315 11.454 14.5065 11.1513C14.2486 10.4466 14.029 9.72845 13.8486 9C13.6841 8.34211 13.5328 7.68421 13.4078 7.07237C13.2828 6.46053 13.1578 5.92106 13.0789 5.38816C13.0131 5.0329 12.9605 4.67106 12.9078 4.30921C12.8552 3.94737 12.8289 3.69737 12.796 3.38816C12.7631 3.07895 12.7302 2.875 12.7039 2.61842C12.6776 2.36185 12.6578 2.09211 12.6315 1.83553C12.6052 1.57895 12.592 1.42763 12.5789 1.21711C12.5723 1.10317 12.5723 0.988944 12.5789 0.875003C12.573 0.849164 12.573 0.822334 12.5788 0.79648C12.5846 0.770626 12.5961 0.746403 12.6125 0.725585C12.6289 0.704768 12.6498 0.687885 12.6736 0.676173C12.6973 0.664461 12.7234 0.658216 12.7499 0.657898C12.8157 0.657898 12.8815 0.657898 12.9473 0.657898Z" fill="#FFC423"/>
<path d="M12.0527 0.657898H12.2369C12.375 0.657898 12.4343 0.723687 12.4343 0.855266C12.4343 0.986845 12.4343 1.1579 12.4343 1.30921C12.4343 1.46053 12.4343 1.6579 12.3882 1.83553C12.3421 2.01316 12.3882 2.19737 12.3421 2.375C12.2961 2.55263 12.2829 2.90132 12.25 3.16448C12.2171 3.42763 12.1908 3.65132 12.1645 3.89474C12.1382 4.13816 12.0987 4.39474 12.0593 4.65132C12.0198 4.9079 11.9737 5.20395 11.9277 5.48027C11.8553 5.91448 11.7829 6.35527 11.6974 6.79606C11.4673 8.02911 11.1597 9.24644 10.7764 10.4408C10.6065 10.9706 10.4088 11.491 10.1843 12C10.1713 12.0466 10.1514 12.091 10.125 12.1316C10.1164 12.1547 10.1022 12.1754 10.0837 12.1918C10.0653 12.2083 10.043 12.2199 10.019 12.2257C9.99501 12.2316 9.96993 12.2314 9.94598 12.2254C9.92203 12.2193 9.89993 12.2074 9.88162 12.1908C9.77276 12.1125 9.66944 12.0268 9.57241 11.9342C9.28715 11.6481 9.04154 11.3251 8.84215 10.9737C8.55135 10.4537 8.30486 9.91008 8.1053 9.34869C7.85076 8.65746 7.6355 7.95238 7.46057 7.23685C7.31583 6.61842 7.19083 5.99342 7.09872 5.36185C7.03294 4.95395 6.97373 4.53948 6.92109 4.125C6.92109 3.83553 6.86188 3.54606 6.82899 3.25658L6.76978 2.59869C6.76978 2.48027 6.76978 2.36185 6.76978 2.24342C6.76652 2.20645 6.77413 2.16933 6.79166 2.13661C6.80918 2.10389 6.83588 2.07699 6.86846 2.05921L7.1053 1.97369C7.96939 1.53451 8.88413 1.20308 9.82899 0.986845C10.2068 0.89921 10.5889 0.831137 10.9737 0.782898L11.7698 0.657898H12.0527Z" fill="#FFC423"/>
<path d="M0.618408 12.5658C0.618408 12.3816 0.618408 12.1908 0.651303 12.0066C0.684198 11.8224 0.651303 11.7105 0.684198 11.5658C0.717092 11.421 0.749987 11.0789 0.776303 10.8355C0.828934 10.4605 0.907882 10.0987 0.993408 9.73026C1.16355 9.0256 1.39922 8.33839 1.69736 7.67763C2.34867 6.21509 3.28591 4.89759 4.45393 3.80263C4.98449 3.3148 5.55686 2.87451 6.16446 2.48684L6.38157 2.35526L6.45393 2.32236C6.47066 2.31514 6.48876 2.31167 6.50697 2.31218C6.52519 2.3127 6.54306 2.31718 6.55936 2.32533C6.57565 2.33348 6.58997 2.34509 6.60131 2.35935C6.61264 2.37361 6.62072 2.39018 6.62499 2.40789C6.63124 2.43605 6.63124 2.46525 6.62499 2.49341V3.07236C6.62499 3.17105 6.62499 3.26973 6.62499 3.36841C6.62499 3.4671 6.62499 3.58552 6.62499 3.69736C6.62499 3.8092 6.62499 3.89473 6.62499 3.99341C6.62499 4.28289 6.57235 4.57236 6.53946 4.86184C6.50657 5.15131 6.46709 5.42105 6.42104 5.70394C6.34209 6.2171 6.23025 6.72368 6.10525 7.23026C5.88181 7.97487 5.60025 8.70079 5.26314 9.40131C4.93969 10.1366 4.53592 10.8338 4.0592 11.4803C3.4468 12.3107 2.6668 13.0033 1.76972 13.5132C1.51972 13.6579 1.25657 13.7829 0.993408 13.921L0.868408 13.9671C0.850177 13.9719 0.831118 13.9728 0.812522 13.9696C0.793926 13.9665 0.776229 13.9593 0.76063 13.9487C0.745031 13.9381 0.731895 13.9243 0.722113 13.9082C0.712331 13.892 0.706131 13.874 0.703935 13.8553C0.700241 13.8181 0.700241 13.7806 0.703935 13.7434C0.657882 13.4408 0.657882 13.1579 0.657882 12.8355C0.657882 12.75 0.657882 12.6579 0.657882 12.5658H0.618408Z" fill="#FFC423"/>
<path d="M18.3618 2.73684V2.49341C18.3586 2.465 18.3586 2.4363 18.3618 2.40789C18.3661 2.39018 18.3742 2.37361 18.3855 2.35935C18.3968 2.34509 18.4112 2.33348 18.4275 2.32533C18.4437 2.31718 18.4616 2.3127 18.4798 2.31218C18.498 2.31167 18.5161 2.31514 18.5329 2.32236L18.6381 2.37499C19.0207 2.59778 19.3878 2.84615 19.7368 3.11841C20.2309 3.50127 20.6929 3.92372 21.1184 4.38157C21.3835 4.66036 21.6318 4.95475 21.8618 5.26315C22.14 5.63117 22.3992 6.01325 22.6381 6.40789C22.8421 6.76315 23.0395 7.11841 23.2105 7.49341C23.5591 8.23548 23.8303 9.01151 24.0197 9.8092C24.136 10.2854 24.2195 10.769 24.2697 11.2566L24.3421 12.0197C24.3466 12.0951 24.3576 12.1699 24.375 12.2434C24.3846 12.3638 24.3846 12.4848 24.375 12.6053C24.3716 12.7485 24.3584 12.8914 24.3355 13.0329C24.3355 13.1316 24.3355 13.2368 24.3355 13.3355L24.296 13.796C24.299 13.8135 24.299 13.8313 24.296 13.8487C24.296 13.9474 24.2105 13.9803 24.1118 13.9605H24.0329C23.4318 13.6898 22.8643 13.3498 22.3421 12.9474C21.7839 12.512 21.2919 11.9979 20.8816 11.421C20.482 10.878 20.1382 10.2961 19.8552 9.6842C19.4859 8.89605 19.1929 8.07431 18.9802 7.23026C18.8618 6.76315 18.7566 6.28947 18.6842 5.81578C18.6118 5.3421 18.5395 5.00657 18.4934 4.60526C18.4473 4.20394 18.421 3.94736 18.421 3.59868C18.421 3.55262 18.421 3.49999 18.421 3.44736C18.421 3.39473 18.421 3.17105 18.421 3.03289V2.73684H18.3618Z" fill="#FFC423"/>
<path d="M1.38153 16.579C1.37962 16.5524 1.38544 16.5258 1.39828 16.5025C1.41112 16.4791 1.43044 16.46 1.4539 16.4474C1.497 16.4162 1.54332 16.3897 1.59206 16.3684C2.22267 16.0627 2.81457 15.6828 3.35522 15.2368C3.75038 14.9152 4.11992 14.5632 4.46048 14.1842C4.99437 13.5976 5.45802 12.9506 5.84206 12.2566C6.12432 11.7588 6.34522 11.2286 6.49995 10.6776C6.53943 10.5197 6.56574 10.3618 6.60522 10.2039C6.61135 10.1645 6.62473 10.1266 6.64469 10.0921C6.65059 10.0826 6.65882 10.0747 6.66861 10.0693C6.6784 10.0638 6.68941 10.061 6.70061 10.061C6.71181 10.061 6.72283 10.0638 6.73261 10.0693C6.7424 10.0747 6.75063 10.0826 6.75653 10.0921C6.77541 10.1248 6.78874 10.1603 6.79601 10.1974C6.84864 10.4145 6.88811 10.6316 6.94732 10.8553C7.12979 11.5077 7.37205 12.142 7.67101 12.75C7.90507 13.2429 8.18248 13.7141 8.49995 14.1579L8.78285 14.5263C8.80749 14.545 8.82812 14.5684 8.84351 14.5953C8.8589 14.6221 8.86873 14.6517 8.87241 14.6824C8.87609 14.7131 8.87356 14.7442 8.86495 14.7739C8.85635 14.8036 8.84185 14.8313 8.82232 14.8553C8.59864 15.2434 8.38153 15.6382 8.16443 16.0197C7.82208 16.5828 7.44412 17.1233 7.03285 17.6382C6.63102 18.1324 6.19107 18.5943 5.71706 19.0197C5.18467 19.5477 4.59045 20.0093 3.94732 20.3947L3.88153 20.4276C3.86227 20.4432 3.84008 20.4547 3.81627 20.4615C3.79246 20.4683 3.76753 20.4702 3.74297 20.4671C3.7184 20.464 3.69471 20.456 3.6733 20.4436C3.6519 20.4312 3.63322 20.4146 3.61838 20.3947C3.53876 20.3138 3.46406 20.2281 3.39469 20.1382C2.89371 19.5241 2.45308 18.8631 2.0789 18.1645C1.8291 17.7168 1.60932 17.2531 1.42101 16.7763L1.38153 16.6447C1.37494 16.6233 1.37494 16.6004 1.38153 16.579Z" fill="#FFC423"/>
<path d="M23.6118 16.5921C23.6118 16.6447 23.6118 16.6973 23.5592 16.75C23.4539 17 23.3552 17.25 23.2434 17.4934C22.8048 18.4419 22.2405 19.327 21.5657 20.125L21.4078 20.3158C21.392 20.3415 21.3709 20.3637 21.3459 20.3808C21.321 20.3979 21.2928 20.4096 21.263 20.4152C21.2333 20.4208 21.2027 20.4201 21.1733 20.4132C21.1438 20.4062 21.1162 20.3932 21.092 20.375C20.842 20.2302 20.592 20.0789 20.3552 19.921C19.9451 19.6432 19.5579 19.333 19.1973 18.9934C18.5975 18.4332 18.0533 17.8163 17.5723 17.1513C17.0591 16.4392 16.5932 15.6942 16.1776 14.921L16.1315 14.8158C16.1063 14.7802 16.0928 14.7377 16.0928 14.6941C16.0928 14.6504 16.1063 14.6079 16.1315 14.5723C16.1767 14.5249 16.2185 14.4744 16.2565 14.421C16.5284 14.0829 16.7705 13.7219 16.9802 13.3421C17.3553 12.6744 17.6638 11.9715 17.9013 11.2434C18.0121 10.9099 18.1 10.5692 18.1644 10.2237C18.1715 10.1803 18.1848 10.1382 18.2039 10.0987C18.2368 10.0329 18.296 10.0329 18.3289 10.0987C18.3458 10.1368 18.359 10.1764 18.3684 10.2171C18.5037 10.9326 18.7595 11.62 19.1249 12.25C19.4601 12.8592 19.8569 13.4323 20.3092 13.9605C21.0508 14.8308 21.942 15.5616 22.9407 16.1184C23.0789 16.1973 23.2236 16.2697 23.3684 16.3421C23.4209 16.3666 23.4715 16.3952 23.5197 16.4276C23.55 16.4423 23.5752 16.4659 23.5916 16.4953C23.6081 16.5248 23.6151 16.5585 23.6118 16.5921Z" fill="#FFC423"/>
</svg>
