<svg width="23" height="23" viewBox="0 0 23 23" fill="none" xmlns="http://www.w3.org/2000/svg">
<path d="M11.5 22.5724C17.6151 22.5724 22.5724 17.6151 22.5724 11.5C22.5724 5.38488 17.6151 0.427612 11.5 0.427612C5.38488 0.427612 0.427612 5.38488 0.427612 11.5C0.427612 17.6151 5.38488 22.5724 11.5 22.5724Z" fill="#552387"/>
<path d="M4.10531 16.3092C5.32241 16.875 6.5461 17.4605 7.7632 18.0395C7.82817 18.0725 7.90122 18.0862 7.97373 18.079H10.7632C10.9211 18.079 10.9474 18.0263 10.9474 17.8816C10.9474 17.0592 10.9474 16.2434 10.9474 15.4211C10.9474 15.3684 10.9474 15.3421 10.9474 15.2632C10.8874 15.2927 10.8259 15.319 10.7632 15.3421C9.93761 15.7667 9.01178 15.9577 8.08557 15.8948C7.71877 15.8588 7.37304 15.7067 7.09873 15.4605C6.87768 15.2371 6.70514 14.9704 6.59194 14.6772C6.47873 14.384 6.42729 14.0706 6.44083 13.7566C6.43671 13.2214 6.47632 12.6867 6.55925 12.1579C6.62189 11.5387 6.78638 10.934 7.0461 10.3684C7.76381 8.84591 8.7691 7.47648 10.0066 6.33554C10.4243 5.96748 10.8637 5.62476 11.3224 5.30923C11.3673 5.26808 11.426 5.24525 11.4869 5.24525C11.5478 5.24525 11.6065 5.26808 11.6514 5.30923C12.0066 5.57238 12.3816 5.80923 12.7106 6.08554C13.56 6.83763 14.3095 7.6955 14.9408 8.63817C15.6244 9.5523 16.1045 10.6021 16.3487 11.7171C16.539 12.5454 16.5791 13.401 16.4671 14.2434C16.4284 14.7136 16.207 15.1498 15.8503 15.4586C15.4936 15.7673 15.0301 15.9239 14.5593 15.8948C14.0559 15.8999 13.556 15.8107 13.0856 15.6316C12.7369 15.5132 12.3948 15.3684 12.0527 15.2369V17.8026C12.0527 17.9737 12.1053 18.0132 12.2764 18.0132C13.1777 18.0132 14.0658 18.0132 14.9671 18.0132C15.087 18.0066 15.2048 17.9799 15.3158 17.9342L18.8421 16.2566C19.079 16.1382 19.079 16.1513 19.0132 15.8816C18.3553 13.2895 17.6974 10.7171 17.0395 8.12501C17.0113 8.02965 16.9618 7.94192 16.8948 7.86844C16.625 7.60528 16.3487 7.35528 16.0856 7.10528L14.5198 5.67765C13.8158 5.01975 13.125 4.42107 12.4211 3.76975C12.1579 3.51975 11.8619 3.26975 11.5987 3.00659C11.5848 2.98624 11.5662 2.96959 11.5444 2.95808C11.5226 2.94657 11.4984 2.94055 11.4737 2.94055C11.4491 2.94055 11.4248 2.94657 11.403 2.95808C11.3813 2.96959 11.3626 2.98624 11.3487 3.00659C11.2237 3.12502 11.0921 3.23028 10.9737 3.33554C10.4277 3.83554 9.8882 4.34212 9.34215 4.82896C8.7961 5.3158 8.21057 5.90133 7.60531 6.42765L6.32899 7.55265C6.13894 7.69027 5.99272 7.8799 5.90794 8.0987C5.25004 10.6952 4.59434 13.2851 3.94083 15.8684C3.91452 16.1513 3.94083 16.2434 4.10531 16.3092Z" fill="#FFA800"/>
</svg>
