<svg width="19" height="9" viewBox="0 0 19 9" fill="none" xmlns="http://www.w3.org/2000/svg">
<path d="M7.2105 0.269714C7.02759 0.269733 6.84878 0.323822 6.69653 0.425181C6.54428 0.526541 6.42539 0.670648 6.35481 0.839385C6.28423 1.00812 6.26511 1.19396 6.29984 1.37353C6.33458 1.55311 6.42163 1.71841 6.55005 1.84865C6.67847 1.97889 6.84253 2.06826 7.02159 2.10552C7.20066 2.14279 7.38675 2.12628 7.55646 2.05809C7.72618 1.98989 7.87195 1.87304 7.97544 1.72223C8.07893 1.57143 8.13554 1.39339 8.13813 1.2105C8.13815 0.963254 8.04084 0.725933 7.86725 0.549874C7.69365 0.373816 7.45772 0.273172 7.2105 0.269714ZM11.7763 0.269714C11.5934 0.269733 11.4146 0.323822 11.2623 0.425181C11.1101 0.526541 10.9912 0.670648 10.9206 0.839385C10.85 1.00812 10.8309 1.19396 10.8656 1.37353C10.9004 1.55311 10.9874 1.71841 11.1158 1.84865C11.2443 1.97889 11.4083 2.06826 11.5874 2.10552C11.7665 2.14279 11.9525 2.12628 12.1223 2.05809C12.292 1.98989 12.4377 1.87304 12.5412 1.72223C12.6447 1.57143 12.7013 1.39339 12.7039 1.2105C12.7039 0.964481 12.6062 0.728534 12.4322 0.554569C12.2583 0.380605 12.0223 0.282873 11.7763 0.282873V0.269714ZM6.30918 2.90129V8.7434H7.5855V4.63814L8.97366 8.73024H9.97366L11.375 4.62498V8.73024H12.6908V2.88814H10.8158L9.49997 6.90129L8.18418 2.88814L6.30918 2.90129Z" fill="#0F6DB6"/>
<path d="M0.618408 3.97365V2.88812H5.44736V3.97365H3.67104V8.71707H2.35525V3.97365H0.618408Z" fill="#C7303A"/>
<path d="M16.3157 2.88812C16.5673 2.89139 16.8182 2.9156 17.0657 2.96049C17.268 3.0017 17.4602 3.08216 17.6315 3.19733C17.7861 3.31279 17.9102 3.46405 17.9934 3.63812C18.085 3.8588 18.1277 4.09673 18.1184 4.33549C18.1255 4.59299 18.0569 4.8469 17.921 5.06576C17.7835 5.27618 17.5865 5.44104 17.3552 5.53944C17.6719 5.61689 17.9485 5.80913 18.1315 6.07891C18.3058 6.36342 18.3928 6.69283 18.3815 7.02628C18.3844 7.28976 18.3282 7.55054 18.2171 7.78944C18.1086 7.99575 17.9558 8.17549 17.7697 8.31576C17.5714 8.45867 17.3484 8.56352 17.1118 8.62497C16.8671 8.68955 16.6148 8.72053 16.3618 8.71707H13.6644V2.88812H16.3157ZM16.1579 5.26312C16.3535 5.27348 16.5466 5.21531 16.7039 5.09865C16.7748 5.03155 16.8299 4.94951 16.8652 4.85848C16.9005 4.76744 16.915 4.6697 16.9079 4.57233C16.9111 4.45699 16.8887 4.34237 16.8421 4.23681C16.7963 4.1502 16.7282 4.07749 16.6447 4.02628C16.5616 3.9733 16.4667 3.94166 16.3684 3.93418C16.2644 3.91313 16.1587 3.90212 16.0526 3.90128H14.8684V5.26312H16.1579ZM16.2302 7.73023C16.3476 7.73088 16.4646 7.71763 16.5789 7.69076C16.6826 7.66815 16.7809 7.62571 16.8684 7.56576C16.9568 7.50514 17.0291 7.42384 17.0789 7.32891C17.1319 7.2114 17.1545 7.08245 17.1447 6.95391C17.16 6.83217 17.1452 6.70852 17.1017 6.59382C17.0581 6.47912 16.987 6.37686 16.8947 6.29602C16.704 6.15847 16.4715 6.09106 16.2368 6.10523H14.9013V7.71049H16.2171" fill="#C7303A"/>
</svg>
