<svg width="293" height="153" viewBox="0 0 293 153" fill="none" xmlns="http://www.w3.org/2000/svg">
<path d="M60.65 102.95H61.65V101.95H60.65V102.95ZM60.65 128H59.65V129H60.65V128ZM70.7 128V129H71.7V128H70.7ZM70.7 102.95V101.95H69.7V102.95H70.7ZM78.65 102.95V103.95H79.65V102.95H78.65ZM78.65 93.95H79.65V92.95H78.65V93.95ZM70.7 93.95H69.7V94.95H70.7V93.95ZM70.7 43.1H71.7V42.1H70.7V43.1ZM60.65 43.1V42.1H59.65V43.1H60.65ZM60.65 93.95V94.95H61.65V93.95H60.65ZM33.5 93.95L32.519 93.7561L32.2829 94.95H33.5V93.95ZM46.4 28.7L47.381 28.8939L47.5623 27.9768L46.6595 27.7342L46.4 28.7ZM36.35 26L36.6095 25.0342L35.5717 24.7555L35.3681 25.8105L36.35 26ZM21.5 102.95L20.5181 102.761L20.2886 103.95H21.5V102.95ZM59.65 102.95V128H61.65V102.95H59.65ZM60.65 129H70.7V127H60.65V129ZM71.7 128V102.95H69.7V128H71.7ZM70.7 103.95H78.65V101.95H70.7V103.95ZM79.65 102.95V93.95H77.65V102.95H79.65ZM78.65 92.95H70.7V94.95H78.65V92.95ZM71.7 93.95V43.1H69.7V93.95H71.7ZM70.7 42.1H60.65V44.1H70.7V42.1ZM59.65 43.1V93.95H61.65V43.1H59.65ZM60.65 92.95H33.5V94.95H60.65V92.95ZM34.481 94.1439L47.381 28.8939L45.419 28.506L32.519 93.7561L34.481 94.1439ZM46.6595 27.7342L36.6095 25.0342L36.0905 26.9658L46.1405 29.6657L46.6595 27.7342ZM35.3681 25.8105L20.5181 102.761L22.4819 103.139L37.3319 26.1895L35.3681 25.8105ZM21.5 103.95H60.65V101.95H21.5V103.95ZM139.941 25.6C132.503 25.6 126.896 27.3853 122.706 30.5272C118.519 33.6659 115.844 38.0846 114.131 43.1748C110.728 53.2873 111.041 66.3528 111.041 78.05H113.041C113.041 66.1972 112.754 53.5377 116.027 43.8127C117.651 38.9841 120.133 34.9559 123.905 32.1274C127.674 29.3022 132.83 27.6 139.941 27.6V25.6ZM111.041 78.05C111.041 86.5818 110.355 99.6056 113.557 110.452C115.166 115.901 117.779 120.892 122.023 124.52C126.283 128.161 132.094 130.35 139.941 130.35V128.35C132.489 128.35 127.162 126.282 123.322 123C119.467 119.704 117.016 115.105 115.475 109.886C112.378 99.3944 113.041 86.7682 113.041 78.05H111.041ZM139.941 130.35C147.798 130.35 153.612 128.081 157.87 124.343C162.11 120.62 164.719 115.519 166.327 109.998C169.528 99.0045 168.841 85.9851 168.841 78.05H166.841C166.841 86.1648 167.505 98.7955 164.406 109.439C162.864 114.737 160.41 119.451 156.55 122.84C152.709 126.213 147.385 128.35 139.941 128.35V130.35ZM168.841 78.05C168.841 72.5344 169.826 59.4722 166.784 47.8529C165.257 42.0232 162.696 36.4536 158.409 32.3359C154.098 28.1949 148.123 25.6 139.941 25.6V27.6C147.66 27.6 153.122 30.03 157.024 33.7782C160.95 37.5495 163.376 42.7331 164.849 48.3596C167.806 59.6528 166.841 72.3156 166.841 78.05H168.841ZM139.941 37.05C142.572 37.05 144.822 37.2583 146.759 38.0893C148.657 38.9035 150.337 40.3532 151.753 43.0079C154.64 48.424 156.341 58.6862 156.341 78.05H158.341C158.341 58.7138 156.668 47.976 153.518 42.0671C151.914 39.0593 149.911 37.2653 147.547 36.2513C145.223 35.2542 142.636 35.05 139.941 35.05V37.05ZM156.341 78.05C156.341 96.6682 154.866 106.903 152.078 112.478C150.71 115.213 149.048 116.778 147.109 117.687C145.135 118.611 142.779 118.9 139.941 118.9V120.9C142.878 120.9 145.585 120.608 147.957 119.498C150.363 118.372 152.329 116.449 153.867 113.372C156.892 107.322 158.341 96.6319 158.341 78.05H156.341ZM139.941 118.9C137.412 118.9 135.214 118.737 133.294 117.96C131.417 117.201 129.729 115.822 128.291 113.228C126.837 110.603 125.642 106.734 124.815 101.026C123.991 95.3255 123.541 87.8497 123.541 78.05H121.541C121.541 87.9003 121.992 95.4808 122.836 101.312C123.679 107.135 124.921 111.272 126.542 114.197C128.179 117.153 130.203 118.867 132.545 119.815C134.844 120.744 137.371 120.9 139.941 120.9V118.9ZM123.541 78.05C123.541 67.9912 123.175 57.6631 125.124 49.8097C126.093 45.9061 127.611 42.7312 129.936 40.5338C132.237 38.3591 135.427 37.05 139.941 37.05V35.05C135.006 35.05 131.296 36.4972 128.562 39.0802C125.853 41.6406 124.202 45.2252 123.183 49.3278C121.158 57.4869 121.541 68.1588 121.541 78.05H123.541ZM240.533 102.95H241.533V101.95H240.533V102.95ZM240.533 128H239.533V129H240.533V128ZM250.583 128V129H251.583V128H250.583ZM250.583 102.95V101.95H249.583V102.95H250.583ZM258.533 102.95V103.95H259.533V102.95H258.533ZM258.533 93.95H259.533V92.95H258.533V93.95ZM250.583 93.95H249.583V94.95H250.583V93.95ZM250.583 43.1H251.583V42.1H250.583V43.1ZM240.533 43.1V42.1H239.533V43.1H240.533ZM240.533 93.95V94.95H241.533V93.95H240.533ZM213.383 93.95L212.402 93.7561L212.166 94.95H213.383V93.95ZM226.283 28.7L227.264 28.8939L227.445 27.9768L226.542 27.7342L226.283 28.7ZM216.233 26L216.492 25.0342L215.455 24.7555L215.251 25.8105L216.233 26ZM201.383 102.95L200.401 102.761L200.171 103.95H201.383V102.95ZM239.533 102.95V128H241.533V102.95H239.533ZM240.533 129H250.583V127H240.533V129ZM251.583 128V102.95H249.583V128H251.583ZM250.583 103.95H258.533V101.95H250.583V103.95ZM259.533 102.95V93.95H257.533V102.95H259.533ZM258.533 92.95H250.583V94.95H258.533V92.95ZM251.583 93.95V43.1H249.583V93.95H251.583ZM250.583 42.1H240.533V44.1H250.583V42.1ZM239.533 43.1V93.95H241.533V43.1H239.533ZM240.533 92.95H213.383V94.95H240.533V92.95ZM214.364 94.1439L227.264 28.8939L225.302 28.506L212.402 93.7561L214.364 94.1439ZM226.542 27.7342L216.492 25.0342L215.973 26.9658L226.023 29.6657L226.542 27.7342ZM215.251 25.8105L200.401 102.761L202.365 103.139L217.215 26.1895L215.251 25.8105ZM201.383 103.95H240.533V101.95H201.383V103.95Z" fill="#9799A5"/>
<path d="M55.65 106.95V132H65.7V106.95H73.65V97.95H65.7V47.1H55.65V97.95H28.5L41.4 32.7L31.35 30L16.5 106.95H55.65ZM134.941 30.6C105.841 30.6 107.041 58.5 107.041 82.05C107.041 99.3 104.341 133.35 134.941 133.35C165.541 133.35 162.841 98.1 162.841 82.05C162.841 70.8 166.741 30.6 134.941 30.6ZM134.941 40.05C145.591 40.05 152.341 43.35 152.341 82.05C152.341 119.25 146.491 123.9 134.941 123.9C124.741 123.9 117.541 121.35 117.541 82.05C117.541 62.1 116.041 40.05 134.941 40.05ZM235.533 106.95V132H245.583V106.95H253.533V97.95H245.583V47.1H235.533V97.95H208.383L221.283 32.7L211.233 30L196.383 106.95H235.533Z" fill="#484B52" fill-opacity="0.8"/>
<path d="M276.773 29.1668C276.773 30.6312 277.96 31.8184 279.424 31.8184L290.03 31.8184C291.495 31.8184 292.682 30.6312 292.682 29.1668C292.682 27.7025 291.495 26.5153 290.03 26.5153L279.424 26.5153C277.96 26.5153 276.773 27.7025 276.773 29.1668Z" fill="#71747D"/>
<path d="M239.652 31.8184L244.955 31.8184C246.419 31.8184 247.606 30.6312 247.606 29.1668C247.606 27.7025 246.419 26.5153 244.955 26.5153L239.652 26.5153C238.187 26.5153 237 27.7025 237 29.1668C237 30.6312 238.187 31.8184 239.652 31.8184Z" fill="#71747D"/>
<path d="M263.515 42.4244C262.051 42.4244 260.864 43.6115 260.864 45.0759L260.864 55.682C260.864 57.1463 262.051 58.3335 263.515 58.3335C264.979 58.3335 266.167 57.1463 266.167 55.682L266.167 45.0759C266.167 43.6115 264.979 42.4244 263.515 42.4244Z" fill="#71747D"/>
<path d="M263.515 15.9092C264.979 15.9092 266.167 14.722 266.167 13.2577L266.167 2.65158C266.167 1.18723 264.979 5.6163e-05 263.515 5.6035e-05C262.051 5.5907e-05 260.863 1.18723 260.863 2.65158L260.863 13.2577C260.863 14.722 262.051 15.9092 263.515 15.9092Z" fill="#71747D"/>
<path d="M280.389 49.7908C281.425 50.8263 283.104 50.8261 284.139 49.7908C285.175 48.7553 285.175 47.0765 284.139 46.041L276.64 38.5411C276.122 38.0234 275.443 37.7644 274.765 37.7644C274.086 37.7644 273.407 38.0234 272.89 38.5409C271.854 39.5765 271.854 41.2552 272.89 42.2907L280.389 49.7908Z" fill="#71747D"/>
<path d="M250.457 19.8588C251.492 20.8941 253.171 20.8941 254.207 19.8588C255.242 18.8232 255.242 17.1445 254.207 16.109L246.707 8.60941C246.189 8.09166 245.511 7.83287 244.832 7.83287C244.153 7.83287 243.475 8.09183 242.957 8.60941C241.922 9.64492 241.922 11.3237 242.957 12.3592L250.457 19.8588Z" fill="#71747D"/>
<path d="M276.639 19.7922L284.139 12.2927C285.175 11.2571 285.175 9.57838 284.139 8.54287C283.621 8.02512 282.943 7.76633 282.264 7.76633C281.585 7.76633 280.907 8.02512 280.389 8.54287L272.89 16.0424C271.854 17.0779 271.854 18.7567 272.89 19.7922C273.925 20.8277 275.604 20.8277 276.639 19.7922Z" fill="#71747D"/>
</svg>
