<?xml version="1.0" encoding="UTF-8"?>
<svg width="251px" height="40px" viewBox="0 0 251 40" version="1.1" xmlns="http://www.w3.org/2000/svg" xmlns:xlink="http://www.w3.org/1999/xlink">
    <!-- Generator: Sketch 61 (89581) - https://sketch.com -->
    <title>btn_Signin-Line</title>
    <desc>Created with Sketch.</desc>
    <g id="AUTODIGI" stroke="none" stroke-width="1" fill="none" fill-rule="evenodd">
        <g id="btn_google_signin" transform="translate(-34.000000, -67.000000)">
            <g id="btn_Signin-Line" transform="translate(34.000000, 67.000000)">
                <path d="M7.32851466,0 L129.815251,0 C133.862327,0 137.142857,3.28363636 137.142857,7.33545455 L137.142857,32.6654545 C137.142857,36.7163636 133.862327,40 129.815251,40 L7.32851466,40 C3.2805298,40 0,36.7163636 0,32.6654545 L0,7.33545455 C0,3.28363636 3.2805298,0 7.32851466,0 Z" id="Path" fill="#00C300"></path>
                <polygon id="Path" fill="#00B300" points="39.047619 0 40 0 40 40 39.047619 40"></polygon>
                <path d="M32.0734204,25.6647528 L32.0734204,25.6647528 C28.9766649,29.1643289 22.0516442,33.4275475 20.4766494,34.0792612 C18.9007368,34.7309749 19.1338654,33.6640419 19.1981134,33.2984684 C19.2357444,33.080027 19.4082963,32.0573239 19.4082963,32.0573239 C19.4578591,31.6872372 19.5092575,31.1131515 19.3605692,30.747578 C19.1944421,30.3440932 18.5400299,30.1337756 18.0600053,30.0317761 C10.966104,29.1110726 5.71428571,24.2421755 5.71428571,18.4282033 C5.71428571,11.9426591 12.3373407,6.66666667 20.4766494,6.66666667 C28.6159581,6.66666667 35.2380952,11.9426591 35.2380952,18.4282033 C35.2380952,21.0233236 34.2128801,23.3611886 32.0734204,25.6647528 Z M14.6979972,20.7660682 L12.5383453,20.7660682 L12.5383453,15.7671895 C12.5383453,15.3483596 12.1914059,15.0071577 11.7646153,15.0071577 C11.3387426,15.0071577 10.9908854,15.3483596 10.9908854,15.7671895 L10.9908854,21.5261 C10.9908854,21.9458325 11.3387426,22.2870344 11.7646153,22.2870344 L14.6979972,22.2870344 C15.1247878,22.2870344 15.4717272,21.9458325 15.4717272,21.5261 C15.4717272,21.1072701 15.1247878,20.7660682 14.6979972,20.7660682 Z M17.7314225,15.7671895 C17.7314225,15.3483596 17.3844831,15.0071577 16.9576925,15.0071577 C16.530902,15.0071577 16.1839626,15.3483596 16.1839626,15.7671895 L16.1839626,21.5261 C16.1839626,21.9458325 16.530902,22.2870344 16.9576925,22.2870344 C17.3844831,22.2870344 17.7314225,21.9458325 17.7314225,21.5261 L17.7314225,15.7671895 Z M24.7922819,15.7671895 C24.7922819,15.3483596 24.4453425,15.0071577 24.018552,15.0071577 C23.5917614,15.0071577 23.2439042,15.3483596 23.2439042,15.7671895 L23.2439042,19.3299512 L20.237096,15.311351 C20.092079,15.1199891 19.860786,15.0071577 19.619397,15.0071577 C19.5358745,15.0071577 19.4532699,15.0197948 19.3734188,15.0459717 C19.0576856,15.1497765 18.8447492,15.4395273 18.8447492,15.7671895 L18.8447492,21.5261 C18.8447492,21.9458325 19.1916886,22.2870344 19.6184792,22.2870344 C20.0461875,22.2870344 20.3922091,21.9458325 20.3922091,21.5261 L20.3922091,17.9633383 L23.3980995,21.9819385 C23.5440343,22.1733004 23.7753273,22.2870344 24.0167163,22.2870344 C24.1002388,22.2870344 24.1828434,22.2734946 24.2626945,22.2473178 C24.5793456,22.1444156 24.7922819,21.8546648 24.7922819,21.5261 L24.7922819,15.7671895 Z M29.5374585,19.4066765 C29.9651669,19.4066765 30.3121063,19.0654746 30.3121063,18.6466447 C30.3121063,18.2278149 29.9651669,17.886613 29.5374585,17.886613 L27.3796423,17.886613 L27.3796423,16.5272213 L29.5374585,16.5272213 C29.9651669,16.5272213 30.3121063,16.1860194 30.3121063,15.7671895 C30.3121063,15.3483596 29.9651669,15.0071577 29.5374585,15.0071577 L26.6049945,15.0071577 C26.1782039,15.0071577 25.8312645,15.3483596 25.8312645,15.7671895 C25.8312645,15.7680921 25.8312645,15.7680921 25.8312645,15.7698974 L25.8312645,18.6457421 C25.8312645,18.6457421 25.8312645,18.6466447 25.8312645,18.6466447 C25.8312645,18.6475474 25.8312645,18.6475474 25.8312645,18.64845 L25.8312645,21.5261 C25.8312645,21.9458325 26.1782039,22.2870344 26.6049945,22.2870344 L29.5374585,22.2870344 C29.9642491,22.2870344 30.3121063,21.9458325 30.3121063,21.5261 C30.3121063,21.1072701 29.9642491,20.7660682 29.5374585,20.7660682 L27.3796423,20.7660682 L27.3796423,19.4066765 L29.5374585,19.4066765 Z" id="Shape" fill="#FFFFFF"></path>
                <g id="Group" transform="translate(82.000000, 0.000000)">
                    <path d="M43.1071325,0 L161.893748,0 C165.81857,0 169,3.28363636 169,7.33545455 L169,32.6654545 C169,36.7163636 165.81857,40 161.893748,40 L43.1071325,40 C39.1814305,40 36,36.7163636 36,32.6654545 L36,7.33545455 C36,3.28363636 39.1814305,0 43.1071325,0 Z" id="Path" fill="#00C300"></path>
                    <text id="Log-in-with-Line" fill="#FFFFFF" font-family="Helvetica-Bold, Helvetica" font-size="16" font-weight="bold">
                        <tspan x="0" y="26">Log in with Line</tspan>
                    </text>
                </g>
                <g id="Group" transform="translate(69.523810, 13.333333)"></g>
            </g>
        </g>
    </g>
</svg>