<svg width="120" height="20" viewBox="0 0 120 20" fill="none" xmlns="http://www.w3.org/2000/svg">
<path d="M28.4225 0.00122093C23.0616 4.62185e-05 18.3326 4.57026 18.4678 9.83766C18.3637 16.0519 23.6408 19.7716 28.2709 19.7828C33.7464 19.7963 38.3034 15.3441 38.3087 9.93047C38.3145 4.53737 33.6873 0.00239564 28.4225 0.00122093ZM28.2627 15.6895C25.5972 15.6959 22.6492 13.3835 22.7153 9.87467C22.7147 6.62894 25.2164 4.08687 28.3874 4.11154C31.6157 4.1362 34.039 6.61543 34.0395 9.89287C34.0401 13.1956 31.5542 15.6813 28.2627 15.6895Z" fill="#484B52"/>
<path fill-rule="evenodd" clip-rule="evenodd" d="M11.1191 0.0164737C12.1593 0.0123622 13.1989 0.00648851 14.2392 0.0053138C16.3097 0.00355173 18.4041 0.00766279 20.4746 0.00120188C20.7262 0.000614524 20.8064 0.0211729 20.6525 0.286658C20.1909 1.08135 19.7234 1.88661 19.287 2.69599C19.1957 2.86515 19.0939 2.9233 18.9073 2.92212C17.8261 2.91449 16.7449 2.928 15.6638 2.91155C15.3923 2.90744 15.3285 2.98145 15.3291 3.24987C15.3373 8.63592 15.3332 14.022 15.342 19.408C15.3426 19.6976 15.2835 19.788 14.9798 19.7827C13.8074 19.7628 12.6338 19.7616 11.4613 19.7833C11.1477 19.7892 11.105 19.6829 11.1056 19.4039C11.1138 13.9668 11.1115 8.5296 11.1115 3.09187C11.1115 3.04077 11.1097 2.98967 11.1085 2.93857C11.036 2.85634 11.0272 2.75355 11.0266 2.65135C11.0214 1.86723 11.0196 1.08311 11.0278 0.298992C11.0284 0.197379 11.0366 0.0934173 11.1191 0.0164737Z" fill="#484B52"/>
<path fill-rule="evenodd" clip-rule="evenodd" d="M0.00703302 9.86512C0.00703302 6.70045 0.0117133 3.53578 1.22313e-05 0.37111C-0.00115787 0.0697971 0.0813347 -9.81935e-05 0.372691 0.00401329C1.55567 0.021634 2.73923 0.0181098 3.92279 0.00577529C4.1533 0.00342587 4.20946 0.0650972 4.20888 0.294753C4.20244 6.69575 4.20244 13.0968 4.20888 19.4978C4.20888 19.728 4.15213 19.7885 3.9222 19.7861C2.7287 19.7738 1.53519 19.772 0.341683 19.7873C0.075484 19.7908 -0.000572696 19.7268 0.000597409 19.4514C0.0105433 16.2556 0.00703302 13.0603 0.00703302 9.86512Z" fill="#484B52"/>
<path d="M52.3428 0.861036C50.996 0.268395 49.5644 0.0569465 48.1117 0.0311029C46.0318 -0.00531312 43.9502 0.0146558 41.8698 0.000559283C41.6744 -0.000615427 41.6071 0.102173 41.531 0.242551C40.946 1.31917 40.358 2.27421 39.7659 3.34672C39.6787 3.50472 39.6407 3.69561 39.6413 3.87534C39.6454 6.45618 39.6472 9.12395 39.6472 11.7048C39.6472 14.2956 39.6507 16.8864 39.6413 19.4773C39.6407 19.7193 39.7033 19.7833 39.9444 19.7809C41.1478 19.768 42.3519 19.7657 43.5553 19.7821C43.8414 19.7862 43.9321 19.7269 43.9303 19.4197C43.9157 17.1977 43.9268 14.9752 43.9175 12.7532C43.9163 12.4907 43.9584 12.3826 44.2574 12.3926C45.0115 12.4173 45.7668 12.4102 46.5215 12.3985C47.7969 12.3785 49.0665 12.2933 50.3091 11.9756C51.6635 11.6296 52.9144 11.0775 53.8943 10.0443C55.1142 8.75744 55.5179 7.18098 55.4529 5.44476C55.3693 3.26038 54.3296 1.73502 52.3428 0.861036ZM49.5404 8.04028C49.2596 8.08551 48.9735 8.1137 48.6891 8.11546C47.1896 8.12251 45.6902 8.11488 44.1913 8.12369C43.9812 8.12486 43.9145 8.07435 43.9169 7.85468C43.9286 6.76924 43.9274 5.68381 43.9175 4.59838C43.9157 4.39045 43.9841 4.34464 44.1778 4.34699C45.0039 4.35639 45.83 4.3511 46.8211 4.3511C47.6132 4.38517 48.5733 4.28532 49.5275 4.42217C50.4566 4.55491 51.037 5.04594 51.154 5.796C51.3505 7.05587 50.7936 7.83706 49.5404 8.04028Z" fill="#484B52"/>
<path fill-rule="evenodd" clip-rule="evenodd" d="M109.899 19.7716C108.328 19.7716 106.757 19.7663 105.187 19.7769C104.943 19.7786 104.855 19.7316 104.858 19.465C104.872 18.1957 104.872 16.9258 104.858 15.656C104.855 15.3917 104.938 15.3406 105.184 15.3412C108.173 15.3494 111.161 15.3476 114.15 15.3459C115.023 15.3453 115.613 14.9324 115.819 14.1894C116.107 13.1527 115.337 12.1083 114.268 12.1001C113.289 12.0925 112.308 12.0708 111.331 12.1037C108.615 12.1959 106.363 10.2834 105.673 7.78013C104.876 4.89386 106.253 1.74329 108.872 0.511015C109.583 0.17681 110.331 0.00530334 111.118 0.00589069C113.934 0.00765276 116.748 0.0105892 119.564 1.67821e-05C119.849 -0.00115793 119.947 0.0587518 119.943 0.364764C119.926 1.61407 119.927 2.86338 119.943 4.11268C119.946 4.39167 119.861 4.45041 119.598 4.44923C116.803 4.43984 114.009 4.44218 111.214 4.44395C110.453 4.44453 109.868 4.86626 109.641 5.56873C109.41 6.2812 109.656 7.04358 110.255 7.47764C110.53 7.67675 110.837 7.75076 111.174 7.75311C112.285 7.76192 113.398 7.70729 114.508 7.77895C117.057 7.94341 118.737 9.31959 119.613 11.659C120.716 14.6052 119.382 17.9149 116.639 19.2406C115.912 19.5918 115.144 19.7698 114.336 19.771C112.856 19.7727 111.377 19.7716 109.899 19.7716Z" fill="#2FC639"/>
<path fill-rule="evenodd" clip-rule="evenodd" d="M86.9384 6.76401C86.9384 4.62369 86.9449 2.48278 86.9308 0.342452C86.9291 0.0522982 87.0204 -0.000564341 87.2836 0.00237244C88.4602 0.0158816 89.6367 0.0164702 90.8132 0.0017863C91.0812 -0.00173783 91.1614 0.059347 91.1608 0.34304C91.1502 4.15968 91.1532 7.97631 91.1543 11.7924C91.1543 12.348 91.214 12.8978 91.324 13.4434C91.6042 14.8384 92.4204 15.7036 93.8169 15.9779C94.8741 16.1852 95.9371 16.187 96.9844 15.9132C98.3236 15.5638 99.1011 14.6105 99.3041 13.1368C99.3679 12.6752 99.3837 12.2117 99.3837 11.7483C99.3872 7.95223 99.3895 4.15556 99.3784 0.359486C99.3772 0.0599343 99.4603 -0.00350105 99.7452 0.000610442C100.942 0.0176437 102.139 0.0129454 103.335 0.00296037C103.55 0.0011983 103.6 0.065221 103.6 0.273732C103.591 4.41341 103.6 8.55309 103.58 12.6922C103.574 13.9239 103.325 15.1186 102.764 16.2269C102.006 17.7211 100.79 18.6908 99.2128 19.1654C96.4625 19.9924 93.6935 20.0089 90.9835 19.0256C88.5321 18.1364 87.2403 16.2892 86.9806 13.6972C86.9425 13.3142 86.9373 12.9318 86.9373 12.5483C86.939 10.6206 86.9384 8.6923 86.9384 6.76401Z" fill="#2FC639"/>
<path fill-rule="evenodd" clip-rule="evenodd" d="M74.1352 9.85406C74.1352 6.67881 74.1381 3.50416 74.1293 0.328913C74.1287 0.0775247 74.1861 0.000580626 74.4447 0.0035174C75.6481 0.0176139 76.8522 0.0223123 78.0556 0.00116748C78.3686 -0.00411872 78.4107 0.0998428 78.4102 0.378837C78.4014 5.22334 78.4037 10.0679 78.4043 14.9124C78.4043 15.3124 78.4043 15.3124 78.8156 15.3124C81.0189 15.3124 83.2228 15.3165 85.4261 15.3065C85.6759 15.3053 85.7502 15.3605 85.7473 15.6219C85.7327 16.8917 85.7356 18.1616 85.7456 19.4315C85.7473 19.6564 85.711 19.7445 85.4536 19.7439C81.7812 19.7345 78.1089 19.734 74.4359 19.7445C74.1592 19.7451 74.1293 19.6453 74.1299 19.4097C74.1375 16.2245 74.1352 13.0393 74.1352 9.85406Z" fill="#2FC639"/>
<path fill-rule="evenodd" clip-rule="evenodd" d="M11.1189 0.0209027C11.1154 0.994738 11.1119 1.96857 11.1084 2.94241C10.1097 2.93653 9.11104 2.9289 8.11236 2.92537C7.33775 2.92244 6.52862 2.91833 5.75402 2.92831C5.50537 2.93183 5.47729 2.87075 5.59664 2.65813C6.06117 1.83701 6.52628 1.01823 6.98555 0.187711C7.04932 0.0696529 7.11836 0.00445613 7.26637 0.00563084C8.55056 0.0150285 9.83475 0.0167912 11.1189 0.0209027Z" fill="#2FC639"/>
<path d="M72.8314 5.4583C72.7536 3.28039 71.7262 1.74034 69.7353 0.86342C68.2809 0.222615 66.7351 0.0352492 65.1695 0.0141044C63.2319 -0.0123266 61.2936 0.0123416 59.3553 0.00235657C59.1219 0.00118186 58.9914 0.0657911 58.8785 0.277826C58.3168 1.33272 57.7406 2.25193 57.1613 3.29801C57.0584 3.4842 57.0186 3.66922 57.0186 3.88067C57.0233 6.44095 57.0215 9.12927 57.0215 11.6896C57.0215 14.2804 57.0256 16.8712 57.0151 19.462C57.0139 19.7228 57.087 19.781 57.3369 19.778C58.5508 19.7645 59.7648 19.7628 60.9782 19.7792C61.2509 19.7827 61.3141 19.7111 61.3129 19.4415C61.3012 17.1989 61.3123 14.9558 61.2988 12.7133C61.2971 12.432 61.3796 12.3768 61.6399 12.382C62.476 12.3985 63.3126 12.3956 64.1492 12.3867C65.3544 12.3732 66.5503 12.2622 67.7215 11.9621C69.0555 11.6202 70.2847 11.0681 71.2553 10.0555C72.485 8.77157 72.8928 7.19217 72.8314 5.4583ZM67.6818 7.79363C67.1061 8.0738 66.4853 8.11256 65.8617 8.11843C65.2392 8.12489 64.6173 8.11961 63.9948 8.11961C63.1891 8.11961 62.3829 8.11491 61.5773 8.12313C61.3813 8.1249 61.2842 8.09259 61.2866 7.86C61.2977 6.76399 61.2942 5.66799 61.2883 4.57257C61.2871 4.404 61.331 4.34174 61.5095 4.34233C63.1008 4.34996 64.6921 4.34056 66.2835 4.35525C66.7621 4.35936 67.2365 4.4363 67.6783 4.65069C68.3429 4.97373 68.5634 5.54288 68.564 6.23714C68.5646 6.92434 68.33 7.47822 67.6818 7.79363Z" fill="#2FC639"/>
</svg>
