<svg width="122" height="20" viewBox="0 0 122 20" fill="none" xmlns="http://www.w3.org/2000/svg">
<path fill-rule="evenodd" clip-rule="evenodd" d="M11.2508 0.0165932C11.2508 0.0165932 17.5617 0.00327454 20.7173 0.00120197C20.9718 0.000610022 21.0529 0.0213292 20.8972 0.28889C20.4302 1.0898 19.9571 1.90136 19.5155 2.71706C19.4232 2.88755 19.3202 2.94615 19.1313 2.94497C18.0373 2.93727 16.9433 2.95089 15.8493 2.93431C15.5747 2.93017 15.5101 3.00475 15.5107 3.27527C15.519 8.70345 15.5149 14.1316 15.5237 19.5598C15.5243 19.8516 15.4645 19.9428 15.1573 19.9375L11.5971 19.938C11.2798 19.944 11.2366 19.8368 11.2371 19.5556C11.2383 13.0427 11.225 6.52954 11.2508 0.0165932Z" fill="#484B52"/>
<path fill-rule="evenodd" clip-rule="evenodd" d="M1.23763e-05 0.371847C-0.0011716 0.0681768 0.082299 -0.00226527 0.377109 0.00187838L3.9693 0.00365416C4.20254 0.00128636 4.25937 0.0634401 4.25878 0.294893V19.6481C4.25878 19.8802 4.20136 19.9411 3.9687 19.9388L0.345734 19.9399C0.0763789 19.9435 -0.000579486 19.879 0.000604492 19.6013L1.23763e-05 0.371847Z" fill="#484B52"/>
<path d="M28.7594 0.00122093C23.335 3.70326e-05 18.5499 4.60599 18.6867 9.9146C18.5813 16.1774 23.9211 19.9262 28.6061 19.9375C34.1465 19.9511 38.7575 15.4641 38.7628 10.0081C38.7687 4.57285 34.0867 0.00240483 28.7594 0.00122093ZM28.5978 15.8122C25.9007 15.8187 22.9176 13.4882 22.9845 9.95189C22.9839 6.68078 25.5153 4.11882 28.7239 4.14368C31.9905 4.16855 34.4425 6.66716 34.4431 9.97024C34.4437 13.2988 31.9283 15.8039 28.5978 15.8122Z" fill="#484B52"/>
<path d="M52.9635 0.867797C51.6008 0.27052 50.1522 0.0574182 48.6823 0.0313724C46.5778 -0.00532846 44.4715 0.0147967 42.3663 0.000589879C42.1686 -0.00059402 42.1005 0.102999 42.0236 0.244475C41.4316 1.32952 40.8366 2.29203 40.2376 3.37293C40.1493 3.53216 40.1109 3.72454 40.1115 3.90568C40.1156 6.50671 40.1174 9.19534 40.1174 11.7964C40.1174 14.4075 40.1209 17.0185 40.1115 19.6296C40.1109 19.8735 40.1742 19.938 40.4181 19.9357C41.6358 19.9226 42.8541 19.9203 44.0719 19.9369C44.3613 19.941 44.4531 19.8812 44.4513 19.5716C44.4365 17.3323 44.4478 15.0923 44.4383 12.853C44.4371 12.5884 44.4797 12.4795 44.7822 12.4895C45.5453 12.5144 46.3096 12.5073 47.0732 12.4955C48.3638 12.4753 49.6484 12.3895 50.9058 12.0693C52.2762 11.7206 53.5419 11.1642 54.5335 10.1229C55.7678 8.82597 56.1763 7.23717 56.1105 5.48737C56.0259 3.28591 54.9739 1.74862 52.9635 0.867797ZM50.1279 8.1032C49.8438 8.14878 49.5543 8.17719 49.2666 8.17896C47.7493 8.18607 46.232 8.17837 44.7154 8.18725C44.5028 8.18844 44.4353 8.13753 44.4377 7.91614C44.4496 6.82222 44.4484 5.72829 44.4383 4.63437C44.4365 4.42482 44.5058 4.37865 44.7017 4.38102C45.5376 4.39049 46.3735 4.38516 47.3763 4.38516C48.1779 4.41949 49.1493 4.31886 50.1149 4.45679C51.055 4.59057 51.6422 5.08544 51.7606 5.84136C51.9595 7.11109 51.3959 7.89838 50.1279 8.1032Z" fill="#484B52"/>
<path fill-rule="evenodd" clip-rule="evenodd" d="M111.201 19.9262C109.612 19.9262 108.023 19.9209 106.434 19.9316C106.187 19.9333 106.098 19.886 106.101 19.6172C106.116 18.338 106.116 17.0582 106.101 15.7784C106.098 15.5121 106.182 15.4606 106.431 15.4612C109.455 15.4694 112.479 15.4677 115.503 15.4659C116.387 15.4653 116.983 15.0492 117.192 14.3003C117.484 13.2555 116.704 12.2031 115.622 12.1948C114.632 12.1871 113.64 12.1652 112.651 12.1983C109.903 12.2913 107.624 10.3639 106.926 7.84098C106.119 4.93214 107.513 1.75692 110.163 0.515012C110.882 0.178193 111.639 0.00534482 112.436 0.00593677C115.284 0.00771262 118.133 0.010672 120.981 1.69134e-05C121.27 -0.00116699 121.37 0.0592114 121.365 0.367617C121.348 1.62669 121.349 2.88577 121.365 4.14485C121.368 4.42603 121.282 4.48522 121.016 4.48404C118.188 4.47456 115.361 4.47693 112.533 4.47871C111.763 4.4793 111.17 4.90432 110.94 5.61229C110.707 6.33033 110.956 7.09868 111.562 7.53613C111.84 7.7368 112.151 7.81139 112.492 7.81375C113.616 7.82263 114.742 7.76758 115.865 7.8398C118.444 8.00554 120.145 9.39248 121.031 11.7502C122.147 14.7194 120.797 18.0551 118.022 19.3911C117.287 19.7451 116.509 19.9244 115.692 19.9256C114.194 19.9274 112.697 19.9262 111.201 19.9262Z" fill="#2FC639"/>
<path fill-rule="evenodd" clip-rule="evenodd" d="M87.9689 6.81691C87.9689 4.65985 87.9754 2.50219 87.9612 0.345127C87.9594 0.0527039 88.0518 -0.000572097 88.3182 0.00238765C89.5087 0.0160025 90.6992 0.0165957 91.8896 0.00179693C92.1608 -0.00175477 92.2419 0.0598079 92.2413 0.34572C92.2306 4.19221 92.2336 8.0387 92.2348 11.8846C92.2348 12.4446 92.2952 12.9986 92.4065 13.5486C92.69 14.9544 93.5158 15.8264 94.9289 16.1028C95.9986 16.3118 97.0743 16.3136 98.1339 16.0377C99.489 15.6855 100.276 14.7248 100.481 13.2396C100.546 12.7743 100.562 12.3072 100.562 11.8402C100.565 8.01443 100.568 4.18806 100.556 0.362294C100.555 0.0603997 100.639 -0.00353177 100.928 0.000611875C102.138 0.0177784 103.349 0.0130433 104.56 0.00298018C104.777 0.00120433 104.828 0.0657278 104.828 0.27587C104.819 4.44793 104.828 8.61999 104.807 12.7915C104.802 14.0328 104.55 15.2368 103.982 16.3538C103.216 17.8597 101.985 18.837 100.389 19.3153C97.6059 20.1488 94.804 20.1654 92.0619 19.1745C89.5815 18.2782 88.2744 16.4166 88.0115 13.8043C87.973 13.4183 87.9677 13.033 87.9677 12.6464C87.9695 10.7037 87.9689 8.76028 87.9689 6.81691Z" fill="#2FC639"/>
<path fill-rule="evenodd" clip-rule="evenodd" d="M75.0139 9.93116C75.0139 6.73108 75.0168 3.53159 75.0079 0.331508C75.0073 0.0781539 75.0654 0.000608047 75.327 0.00356779C76.5447 0.0177746 77.7631 0.0225097 78.9808 0.00119949C79.2975 -0.00412806 79.3401 0.100647 79.3395 0.381823C79.3306 5.26422 79.333 10.1466 79.3336 15.029C79.3336 15.4321 79.3336 15.4321 79.7498 15.4321C81.9792 15.4321 84.2092 15.4363 86.4387 15.4262C86.6914 15.425 86.7666 15.4807 86.7637 15.7441C86.7489 17.0239 86.7518 18.3037 86.7619 19.5835C86.7637 19.8102 86.727 19.899 86.4665 19.8984C82.7506 19.8889 79.0346 19.8883 75.3181 19.899C75.0381 19.8996 75.0079 19.799 75.0085 19.5616C75.0162 16.3514 75.0139 13.1413 75.0139 9.93116Z" fill="#2FC639"/>
<path fill-rule="evenodd" clip-rule="evenodd" d="M11.2507 0.0210222C11.2471 1.00247 11.2436 1.98392 11.24 2.96537C9.43439 2.95479 7.62778 2.92798 5.82215 2.95116C5.57056 2.95471 5.54214 2.89315 5.66291 2.67887C6.13294 1.85132 6.60358 1.02615 7.06829 0.189135C7.13281 0.0701536 7.20267 0.00444706 7.35244 0.00563096C8.65185 0.0151021 9.95127 0.0168785 11.2507 0.0210222Z" fill="#2FC639"/>
<path d="M73.6949 5.50098C73.6162 3.30603 72.5766 1.75394 70.5621 0.870162C69.0904 0.224345 67.5264 0.0355139 65.9422 0.0142037C63.9815 -0.012434 62.0203 0.0124272 60.059 0.00236402C59.8228 0.00118012 59.6908 0.0662947 59.5765 0.279988C59.0082 1.34313 58.4251 2.26953 57.839 3.32379C57.7349 3.51144 57.6946 3.69791 57.6946 3.91101C57.6993 6.49131 57.6976 9.20067 57.6976 11.781C57.6976 14.3921 57.7017 17.0031 57.6911 19.6142C57.6899 19.8771 57.7639 19.9357 58.0166 19.9327C59.245 19.9191 60.4734 19.9173 61.7012 19.9339C61.9771 19.9374 62.041 19.8652 62.0398 19.5935C62.028 17.3335 62.0392 15.0728 62.0256 12.8127C62.0238 12.5292 62.1073 12.4736 62.3707 12.4789C63.2167 12.4955 64.0632 12.4925 64.9098 12.4836C66.1293 12.47 67.3393 12.3581 68.5245 12.0556C69.8742 11.7111 71.118 11.1547 72.1001 10.1342C73.3444 8.84017 73.757 7.24842 73.6949 5.50098ZM68.4842 7.85457C67.9017 8.13693 67.2736 8.176 66.6425 8.18192C66.0126 8.18843 65.3834 8.1831 64.7535 8.1831C63.9383 8.1831 63.1226 8.17837 62.3074 8.18666C62.1091 8.18843 62.0108 8.15588 62.0132 7.92146C62.0244 6.81689 62.0209 5.71231 62.0149 4.60832C62.0138 4.43843 62.0582 4.37569 62.2387 4.37628C63.8489 4.38397 65.4591 4.3745 67.0693 4.3893C67.5536 4.39344 68.0337 4.47099 68.4806 4.68705C69.1531 5.01262 69.3763 5.58622 69.3769 6.28591C69.3775 6.97849 69.1401 7.5367 68.4842 7.85457Z" fill="#2FC639"/>
</svg>
