<svg width="112" height="112" viewBox="0 0 112 112" fill="none" xmlns="http://www.w3.org/2000/svg">
<circle cx="56" cy="56" r="55.5" fill="white" stroke="#E5F1FE"/>
<path d="M56.3383 29C48.6917 29 42.4706 35.3749 42.4706 43.2107C42.4706 51.0465 48.6917 57.4215 56.3383 57.4215C63.9849 57.4215 70.2059 51.0465 70.2059 43.2107C70.2059 35.3749 63.9849 29 56.3383 29ZM56.3383 54.2635C50.3909 54.2635 45.5523 49.3053 45.5523 43.2107C45.5523 37.1162 50.3909 32.1579 56.3383 32.1579C62.2857 32.1579 67.1242 37.1162 67.1242 43.2107C67.1242 49.3053 62.2857 54.2635 56.3383 54.2635Z" fill="#E4E5EF"/>
<path d="M73.1699 66.0391C69.3917 62.1447 64.3831 60 59.0667 60H52.9333C47.617 60 42.6083 62.1447 38.8301 66.0391C35.0705 69.9144 33 75.0298 33 80.4434C33 81.3031 33.6865 82 34.5333 82H77.4667C78.3135 82 79 81.3031 79 80.4434C79 75.0298 76.9295 69.9144 73.1699 66.0391ZM36.1341 78.8868C36.9023 70.0571 44.1433 63.1132 52.9333 63.1132H59.0667C67.8567 63.1132 75.0977 70.0571 75.8659 78.8868H36.1341Z" fill="#E4E5EF"/>
<circle cx="77" cy="71" r="11" fill="#54B1FF"/>
<path fill-rule="evenodd" clip-rule="evenodd" d="M80.394 70.7955C80.8334 71.1302 81.4608 71.0453 81.7955 70.606C82.1301 70.1666 82.0453 69.5392 81.606 69.2045L76.9958 65.6928L72.3933 69.205C71.9543 69.5401 71.87 70.1676 72.205 70.6067C72.5401 71.0457 73.1676 71.13 73.6066 70.795L76 68.9686V77C76 77.5523 76.4477 78 77 78C77.5523 78 78 77.5523 78 77V68.9719L80.394 70.7955Z" fill="white"/>
</svg>
