<svg width="40" height="40" viewBox="0 0 40 40" fill="none" xmlns="http://www.w3.org/2000/svg">
<circle cx="20" cy="20" r="19.5" fill="#DDDFEA" stroke="#DDDFEA"/>
<path d="M20.1208 10.3571C17.3899 10.3571 15.1681 12.6339 15.1681 15.4324C15.1681 18.2309 17.3899 20.5076 20.1208 20.5076C22.8518 20.5076 25.0736 18.2309 25.0736 15.4324C25.0736 12.6339 22.8518 10.3571 20.1208 10.3571ZM20.1208 19.3798C17.9968 19.3798 16.2687 17.609 16.2687 15.4324C16.2687 13.2558 17.9968 11.485 20.1208 11.485C22.2449 11.485 23.9729 13.2558 23.9729 15.4324C23.9729 17.609 22.2449 19.3798 20.1208 19.3798Z" fill="white"/>
<path d="M26.1321 23.5854C24.7828 22.1945 22.994 21.4286 21.0953 21.4286H18.9048C17.0061 21.4286 15.2173 22.1945 13.868 23.5854C12.5252 24.9695 11.7858 26.7964 11.7858 28.7298C11.7858 29.0368 12.031 29.2857 12.3334 29.2857H27.6667C27.9692 29.2857 28.2143 29.0368 28.2143 28.7298C28.2143 26.7964 27.4749 24.9695 26.1321 23.5854ZM12.9051 28.1739C13.1795 25.0204 15.7655 22.5404 18.9048 22.5404H21.0953C24.2346 22.5404 26.8206 25.0204 27.095 28.1739H12.9051Z" fill="white"/>
</svg>
