<svg width="119" height="28" viewBox="0 0 119 28" fill="none" xmlns="http://www.w3.org/2000/svg">
<path fill-rule="evenodd" clip-rule="evenodd" d="M22.5889 5.2506C24.8582 0.920929 29.9738 -1.06377 34.5645 0.60449C38.4225 2.00685 40.9906 5.67748 40.9889 9.78679V24.0273C40.9945 25.9904 39.4859 27.625 37.5309 27.7742H34.5645V11.7002C34.5645 8.69828 32.1339 6.26474 29.1356 6.26474C26.1372 6.26474 23.7066 8.69828 23.7066 11.7002V27.7742H17.2822V11.7002C17.2822 8.69828 14.8516 6.26474 11.8533 6.26474C8.85501 6.26474 6.42439 8.69828 6.42439 11.7002V27.7742H0V0H2.81924C4.4799 0.00545692 5.94029 1.10105 6.41191 2.69524C6.48268 2.84898 6.63704 2.94679 6.80611 2.94503C6.88933 2.94444 6.97066 2.92018 7.04063 2.87509L7.08055 2.84761C7.08951 2.83994 7.09784 2.8316 7.1055 2.82263C9.30827 0.655106 12.4058 -0.340647 15.4571 0.137836C18.5085 0.61632 21.1535 2.51257 22.5889 5.2506ZM54.6803 0.505733C60.4912 -1.10495 66.6777 1.21724 69.9923 6.25325V6.25075C72.0207 9.33036 72.7406 13.09 71.9934 16.7008C71.2462 20.3116 69.0932 23.4771 66.0091 25.4993C63.748 26.9873 61.0995 27.7784 58.3926 27.7742C53.7136 27.7742 49.3488 25.4195 46.7803 21.5096C45.3966 19.4101 44.6132 16.9725 44.5148 14.4601V13.3152C44.7623 7.29187 48.8695 2.11641 54.6803 0.505733ZM51.3517 16.8018C52.5318 19.648 55.3107 21.5031 58.3926 21.5021V21.5046C60.4133 21.504 62.3509 20.7008 63.7793 19.2719C65.2077 17.843 66.0097 15.9053 66.0091 13.8852C66.0091 10.8042 64.1525 8.02663 61.3051 6.84782C58.4578 5.66901 55.1806 6.32113 53.0017 8.50008C50.8229 10.679 50.1717 13.9556 51.3517 16.8018ZM89.4578 6.26474V0.14238H89.4704C87.6265 -0.23752 85.7104 0.277592 84.3134 1.52872C84.2832 1.56134 84.2503 1.59142 84.215 1.61864C84.0102 1.79543 83.7478 1.89301 83.4761 1.89341C82.8141 1.8784 82.2894 1.3352 82.3035 0.67943V0H75.8074V24.0423C75.811 26.0121 77.3537 27.6429 79.3379 27.7742H82.2909V11.7002C82.2909 8.69828 84.7477 6.26474 87.7783 6.26474H89.4578ZM118.855 15.8844C119.76 9.6516 116.359 3.58979 110.569 1.11649C104.778 -1.35681 98.049 0.377817 94.1747 5.34242C93.9431 5.63741 93.7249 5.94072 93.5199 6.25238C92.6242 7.61454 91.9738 9.12309 91.5982 10.7097L91.5979 10.7109C91.5655 10.8555 91.5331 11.0001 91.5057 11.1447C91.1944 12.6965 91.1496 14.2901 91.3733 15.8569C91.3721 15.8644 91.3721 15.872 91.3733 15.8794C92.0226 20.3558 94.8103 24.2354 98.8448 26.2778C102.879 28.3201 107.655 28.2692 111.645 26.1415C112.025 25.9415 112.395 25.719 112.75 25.484C114.109 24.5861 115.3 23.4565 116.268 22.1467C116.423 21.9392 116.568 21.7292 116.711 21.5142C117.28 20.6476 117.751 19.7203 118.115 18.7493H112.343C111.858 18.7719 111.383 18.8882 110.943 19.0918C110.634 19.2393 110.347 19.4277 110.088 19.6518C108.107 21.3601 105.387 21.9312 102.886 21.1644C100.385 20.3976 98.4526 18.4001 97.7683 15.8744L118.855 15.8844ZM98.0132 11.1497C99.1467 8.21275 101.97 6.27601 105.117 6.27601C108.264 6.27601 111.087 8.21275 112.22 11.1497H98.0132Z" fill="#374151"/>
</svg>
