<svg width="119" height="28" viewBox="0 0 119 28" fill="none" xmlns="http://www.w3.org/2000/svg">
<path d="M89.4578 0.14238V6.26474H87.7783C84.7477 6.26474 82.2909 8.69828 82.2909 11.7002V27.7742H79.3379C77.3537 27.6429 75.811 26.0121 75.8074 24.0423V0H82.3035V0.67943C82.2894 1.3352 82.8141 1.8784 83.4761 1.89341C83.7478 1.89301 84.0102 1.79544 84.215 1.61864C84.2503 1.59142 84.2832 1.56134 84.3134 1.52872C85.7104 0.277592 87.6265 -0.23752 89.4704 0.14238H89.4578Z" fill="white"/>
<path d="M69.9923 6.25325C66.6777 1.21724 60.4912 -1.10495 54.6803 0.505733C48.8695 2.11641 44.7623 7.29187 44.5148 13.3152V14.4601C44.6132 16.9725 45.3966 19.4101 46.7803 21.5096C49.3488 25.4195 53.7136 27.7742 58.3926 27.7742C61.0995 27.7784 63.748 26.9873 66.0091 25.4993C69.0932 23.4771 71.2462 20.3116 71.9934 16.7008C72.7406 13.09 72.0207 9.33037 69.9923 6.25075V6.25325ZM58.3926 21.5021C55.3107 21.5031 52.5318 19.648 51.3517 16.8018C50.1717 13.9556 50.8229 10.679 53.0017 8.50008C55.1806 6.32113 58.4578 5.66901 61.3052 6.84782C64.1525 8.02663 66.0091 10.8042 66.0091 13.8852C66.0097 15.9053 65.2077 17.843 63.7793 19.2719C62.3509 20.7008 60.4133 21.504 58.3926 21.5046V21.5021Z" fill="white"/>
<path d="M118.855 15.8844C119.76 9.6516 116.359 3.58979 110.569 1.11649C104.778 -1.35681 98.049 0.377817 94.1747 5.34242C93.9431 5.63741 93.7248 5.94072 93.5199 6.25238C92.6242 7.61454 91.9738 9.12309 91.5982 10.7097C91.5657 10.8547 91.5332 10.9997 91.5057 11.1447C91.1944 12.6965 91.1496 14.2901 91.3733 15.8569C91.3721 15.8644 91.3721 15.872 91.3733 15.8794C92.0226 20.3558 94.8103 24.2354 98.8448 26.2778C102.879 28.3201 107.655 28.2692 111.645 26.1415C112.025 25.9415 112.395 25.719 112.75 25.484C114.109 24.5861 115.3 23.4565 116.268 22.1467C116.423 21.9392 116.568 21.7292 116.711 21.5142C117.28 20.6476 117.751 19.7203 118.115 18.7493H112.343C111.858 18.7719 111.383 18.8882 110.943 19.0918C110.634 19.2393 110.347 19.4277 110.088 19.6518C108.107 21.3601 105.387 21.9312 102.886 21.1644C100.385 20.3976 98.4526 18.4001 97.7683 15.8744L118.855 15.8844ZM98.0132 11.1497C99.1467 8.21276 101.97 6.27601 105.117 6.27601C108.264 6.27601 111.087 8.21276 112.22 11.1497H98.0132Z" fill="white"/>
<path d="M34.5645 0.604491C29.9738 -1.06377 24.8582 0.92093 22.5889 5.25059C21.1535 2.51257 18.5085 0.61632 15.4571 0.137836C12.4058 -0.340648 9.30828 0.655106 7.1055 2.82263C7.09785 2.83159 7.0895 2.83994 7.08055 2.84761L7.04064 2.87509C6.97066 2.92018 6.88933 2.94443 6.80611 2.94503C6.63704 2.94679 6.48269 2.84898 6.41192 2.69524C5.94029 1.10105 4.4799 0.00545785 2.81925 0H0V27.7742H6.42439V11.7002C6.42439 8.69828 8.855 6.26474 11.8533 6.26474C14.8516 6.26474 17.2822 8.69828 17.2822 11.7002V27.7742H23.7066V11.7002C23.7066 8.69828 26.1372 6.26474 29.1356 6.26474C32.1339 6.26474 34.5645 8.69828 34.5645 11.7002V27.7742H37.5309C39.486 27.625 40.9945 25.9904 40.9889 24.0273V9.78679C40.9906 5.67748 38.4225 2.00685 34.5645 0.604491Z" fill="white"/>
</svg>
