<svg width="26" height="26" viewBox="0 0 26 26" fill="none" xmlns="http://www.w3.org/2000/svg">
<path d="M13 26C20.1797 26 26 20.1797 26 13C26 5.8203 20.1797 0 13 0C5.8203 0 0 5.8203 0 13C0 20.1797 5.8203 26 13 26Z" fill="url(#paint0_linear)"/>
<path fill-rule="evenodd" clip-rule="evenodd" d="M13.1461 6.13483C10.5688 6.13483 8.47192 8.23171 8.47192 10.809C8.47192 11.5827 8.66536 12.3498 9.0331 13.0302L12.8905 20.0067C12.9418 20.0997 13.0397 20.1573 13.1461 20.1573C13.2525 20.1573 13.3503 20.0997 13.4017 20.0067L17.2605 13.0279C17.6268 12.3498 17.8202 11.5827 17.8202 10.809C17.8202 8.23171 15.7234 6.13483 13.1461 6.13483ZM13.1461 13.1461C11.8574 13.1461 10.809 12.0976 10.809 10.809C10.809 9.52035 11.8574 8.47192 13.1461 8.47192C14.4347 8.47192 15.4831 9.52035 15.4831 10.809C15.4831 12.0976 14.4347 13.1461 13.1461 13.1461Z" fill="white" stroke="white"/>
<defs>
<linearGradient id="paint0_linear" x1="26" y1="13" x2="0" y2="13" gradientUnits="userSpaceOnUse">
<stop stop-color="#60E9FF"/>
<stop offset="1" stop-color="#53B1FF"/>
</linearGradient>
</defs>
</svg>
