<svg width="26" height="26" viewBox="0 0 26 26" fill="none" xmlns="http://www.w3.org/2000/svg">
<path d="M13 26C20.1797 26 26 20.1797 26 13C26 5.8203 20.1797 0 13 0C5.8203 0 0 5.8203 0 13C0 20.1797 5.8203 26 13 26Z" fill="url(#paint0_linear)"/>
<path d="M19.3 8C19.6866 8 20 8.292 20 8.65217V17.3478C20 17.708 19.6866 18 19.3 18H6.7C6.31339 18 6 17.708 6 17.3478V8.65217C6 8.29198 6.31341 8 6.7 8H19.3ZM10.2628 13.5039L6.99608 16.7648C6.93696 16.8212 6.91525 16.903 6.93937 16.9786C6.96348 17.0542 7.02963 17.1116 7.11221 17.1288C7.19481 17.146 7.28089 17.1202 7.33722 17.0613L10.6039 13.8004C10.663 13.744 10.6847 13.6622 10.6606 13.5866C10.6365 13.5111 10.5704 13.4536 10.4878 13.4364C10.4052 13.4192 10.3191 13.4451 10.2628 13.5039ZM15.5122 13.4364C15.4296 13.4536 15.3635 13.5111 15.3394 13.5866C15.3153 13.6622 15.337 13.744 15.3961 13.8004L18.6628 17.0613C18.7514 17.1458 18.8962 17.149 18.9889 17.0684C19.0816 16.9878 19.0883 16.853 19.0039 16.7648L15.7372 13.5039C15.6809 13.4451 15.5948 13.4192 15.5122 13.4364ZM7.08691 8.88263C7.00857 8.90917 6.95137 8.97266 6.93688 9.04916C6.92239 9.12566 6.95279 9.20354 7.01664 9.25347L12.3996 13.4663C12.7466 13.7384 13.2534 13.7384 13.6004 13.4663L18.9834 9.2535C19.0308 9.21643 19.0604 9.16334 19.0658 9.10589C19.0712 9.04845 19.0519 8.99136 19.012 8.94721C18.9723 8.90301 18.9153 8.87539 18.8536 8.87037C18.792 8.86535 18.7307 8.88337 18.6833 8.92046L13.3003 13.1335C13.1267 13.2694 12.8733 13.2694 12.6997 13.1335L7.31671 8.92043C7.25286 8.8705 7.16525 8.85608 7.08691 8.88263Z" fill="white"/>
<defs>
<linearGradient id="paint0_linear" x1="26" y1="13" x2="0" y2="13" gradientUnits="userSpaceOnUse">
<stop stop-color="#60E9FF"/>
<stop offset="1" stop-color="#53B1FF"/>
</linearGradient>
</defs>
</svg>
