<svg width="25" height="25" viewBox="0 0 25 25" fill="none" xmlns="http://www.w3.org/2000/svg">
<path d="M12.5 25C19.4036 25 25 19.4036 25 12.5C25 5.59644 19.4036 0 12.5 0C5.59644 0 0 5.59644 0 12.5C0 19.4036 5.59644 25 12.5 25Z" fill="#0075FB"/>
<path d="M14.9196 7.76604H16.2371V5.51217C16.0098 5.48146 15.2281 5.41235 14.3177 5.41235C10.1493 5.41235 11.2834 10.0488 11.1174 10.7281H9.02063V13.2477H11.1168V19.5876H13.6869V13.2483H15.6983L16.0176 10.7287H13.6863C13.7994 9.06071 13.2287 7.76604 14.9196 7.76604Z" fill="white"/>
</svg>
