<svg width="25" height="25" viewBox="0 0 25 25" fill="none" xmlns="http://www.w3.org/2000/svg">
<path d="M12.5 25C19.4036 25 25 19.4036 25 12.5C25 5.59644 19.4036 0 12.5 0C5.59644 0 0 5.59644 0 12.5C0 19.4036 5.59644 25 12.5 25Z" fill="#F2F2F2"/>
<g clip-path="url(#clip0)">
<path d="M8.3892 12.5C8.3892 11.7333 8.60045 11.015 8.96747 10.4V7.79114H6.35864C5.32322 9.13587 4.76196 10.7747 4.76196 12.5C4.76196 14.2253 5.32322 15.8642 6.35864 17.2089H8.96747V14.6001C8.60045 13.9851 8.3892 13.2668 8.3892 12.5V12.5Z" fill="#FBBD00"/>
<path d="M12.5 16.6108L10.6864 18.4244L12.5 20.2381C14.2253 20.2381 15.8642 19.6768 17.2089 18.6414V16.0353H14.6029C13.9825 16.4037 13.2612 16.6108 12.5 16.6108V16.6108Z" fill="#0F9D58"/>
<path d="M8.96747 14.6001L6.35864 17.2089C6.56364 17.4752 6.78687 17.7301 7.02841 17.9717C8.48994 19.4332 10.4331 20.2381 12.5001 20.2381V16.6109C11.0001 16.6109 9.68542 15.8032 8.96747 14.6001Z" fill="#31AA52"/>
<path d="M20.2381 12.5C20.2381 12.0293 20.1955 11.5576 20.1114 11.0982L20.0433 10.7264H12.5V14.3537H16.1711C15.8146 15.0628 15.2665 15.6414 14.6028 16.0354L17.2089 18.6415C17.4751 18.4365 17.7301 18.2133 17.9716 17.9717C19.4332 16.5102 20.2381 14.567 20.2381 12.5V12.5Z" fill="#3C79E6"/>
<path d="M15.4069 9.59316L15.7274 9.91375L18.2923 7.34893L17.9717 7.02835C16.5102 5.56681 14.567 4.7619 12.5 4.7619L10.6864 6.57552L12.5 8.38913C13.598 8.38913 14.6304 8.81672 15.4069 9.59316Z" fill="#CF2D48"/>
<path d="M12.5001 8.38913V4.7619C10.4332 4.7619 8.48997 5.56681 7.02841 7.02832C6.78687 7.26986 6.56364 7.52482 6.35864 7.79109L8.96747 10.3999C9.68545 9.1968 11.0001 8.38913 12.5001 8.38913V8.38913Z" fill="#EB4132"/>
</g>
<defs>
<clipPath id="clip0">
<rect width="15.4762" height="15.4762" fill="white" transform="translate(4.76196 4.7619)"/>
</clipPath>
</defs>
</svg>
