 <svg width="25" height="25" viewBox="0 0 25 25" fill="none" xmlns="http://www.w3.org/2000/svg">
<circle cx="12.5" cy="12.5" r="12.5" fill="url(#paint0_linear)"/>
<path d="M12.5002 5.00723C9.4282 5.00723 6.51104 4.73417 5.3968 7.59154C4.93655 8.77168 5.00339 10.3044 5.00339 12.4989C5.00339 14.4247 4.94162 16.2347 5.3968 17.4055C6.5085 20.2646 9.44935 19.9907 12.4985 19.9907C15.4402 19.9907 18.4733 20.2967 19.601 17.4055C20.0621 16.2135 19.9944 14.7037 19.9944 12.4989C19.9944 9.57226 20.156 7.68284 18.7355 6.2643C17.2973 4.82716 15.3522 5.00723 12.4968 5.00723H12.5002ZM11.8284 6.35729C18.2364 6.34715 19.052 5.63534 18.6019 15.5237C18.442 19.021 15.7769 18.6372 12.501 18.6372C6.52796 18.6372 6.35621 18.4664 6.35621 12.4956C6.35621 6.45536 6.83 6.36068 11.8284 6.3556V6.35729ZM16.502 7.60084C16.0053 7.60084 15.6026 8.00324 15.6026 8.49947C15.6026 8.99571 16.0053 9.39811 16.502 9.39811C16.9986 9.39811 17.4013 8.99571 17.4013 8.49947C17.4013 8.00324 16.9986 7.60084 16.502 7.60084ZM12.5002 8.65164C10.3741 8.65164 8.65068 10.3745 8.65068 12.4989C8.65068 14.6234 10.3741 16.3454 12.5002 16.3454C14.6263 16.3454 16.3488 14.6234 16.3488 12.4989C16.3488 10.3745 14.6263 8.65164 12.5002 8.65164ZM12.5002 10.0017C15.804 10.0017 15.8082 14.9962 12.5002 14.9962C9.19723 14.9962 9.19215 10.0017 12.5002 10.0017Z" fill="white"/>
<defs>
<linearGradient id="paint0_linear" x1="19" y1="3.5" x2="5.5" y2="23.5" gradientUnits="userSpaceOnUse">
<stop stop-color="#A047BB"/>
<stop offset="0.104167" stop-color="#C938A9"/>
<stop offset="0.34375" stop-color="#E24577"/>
<stop offset="0.682292" stop-color="#FF7544"/>
<stop offset="1" stop-color="#FFD353"/>
</linearGradient>
</defs>
</svg>
