<svg width="25" height="25" viewBox="0 0 25 25" fill="none" xmlns="http://www.w3.org/2000/svg">
<circle cx="12.5" cy="12.5" r="12.5" fill="url(#paint0_linear)"/>
<path d="M12.3912 21.0937C12.2523 21.0947 12.1156 21.0591 11.9947 20.9906C10.9597 20.3918 3.2946 15.5858 3.00513 15.439C2.78483 15.3362 2.6344 15.1256 2.60859 14.8839V8.1427C2.60289 7.89107 2.72728 7.65427 2.93771 7.51618L2.99323 7.48445C3.73476 7.02447 6.21709 5.50968 6.60966 5.29159C6.69975 5.23813 6.80235 5.2094 6.90707 5.20831C7.00526 5.20942 7.10176 5.23389 7.18863 5.27969C7.18863 5.27969 10.6623 7.54393 11.1937 7.74617C11.5665 7.91746 11.973 8.00283 12.3833 7.99599C12.8482 8.0057 13.3075 7.89361 13.7157 7.67083C14.2351 7.39721 17.5542 5.29159 17.5899 5.29159C17.6735 5.24104 17.7697 5.21495 17.8674 5.21624C17.9723 5.21676 18.075 5.24552 18.1648 5.29952C18.6169 5.54934 21.694 7.4329 21.8249 7.51618C22.0413 7.64675 22.1725 7.88204 22.1699 8.13478V14.876C22.1456 15.1183 21.9947 15.3296 21.7734 15.4311C21.4839 15.5897 13.8426 20.3958 12.7878 20.9827C12.6677 21.054 12.5309 21.0922 12.3912 21.0937Z" fill="url(#paint1_linear)"/>
<path d="M12.3518 21.0937L12.3915 21.0937C12.5304 21.0947 12.6671 21.0591 12.788 20.9906C13.823 20.3918 21.4841 15.5858 21.7736 15.4391C21.9949 15.3375 22.1459 15.1262 22.1701 14.8839V8.14272C22.1714 8.0286 22.1456 7.91581 22.0948 7.8136L12.3518 13.1629V21.0937Z" fill="url(#paint2_linear)"/>
<path d="M12.318 20.9987L12.2788 20.9987C12.1413 20.9996 12.006 20.9644 11.8865 20.8967C10.8625 20.3043 3.28298 15.5494 2.99658 15.4043C2.77759 15.3038 2.62829 15.0948 2.60428 14.855V8.18566C2.60301 8.07276 2.62855 7.96117 2.67882 7.86005L12.318 13.1524V20.9987Z" fill="url(#paint3_linear)"/>
<path d="M6.77087 9.34552H7.76958V14.151H9.49116V15.0996H6.77505L6.77087 9.34552Z" fill="white"/>
<path d="M11.8041 10.7872C12.3332 10.7806 12.8348 11.0217 13.1602 11.439V10.8728H14.0919V15.1079H13.1602V14.5417C12.8348 14.959 12.3332 15.2002 11.8041 15.1936C10.6425 15.1936 9.76074 14.2012 9.76074 12.9893C9.76074 11.7775 10.6425 10.7872 11.8041 10.7872V10.7872ZM11.9734 11.6354C11.2192 11.6354 10.7197 12.2288 10.7197 12.9893C10.7197 13.7499 11.2274 14.3453 11.9734 14.3453C12.7193 14.3453 13.227 13.7519 13.227 12.9893C13.227 12.2267 12.7276 11.6354 11.9734 11.6354" fill="white"/>
<path d="M14.817 14.3725L17.038 11.719H14.8504V10.8729H18.2414V11.6188L16.0288 14.2618H18.2916V15.108H14.817V14.3725" fill="white"/>
<defs>
<linearGradient id="paint0_linear" x1="12.5" y1="0" x2="12.5" y2="25" gradientUnits="userSpaceOnUse">
<stop stop-color="#1700C6"/>
<stop offset="1" stop-color="#130C75"/>
</linearGradient>
<linearGradient id="paint1_linear" x1="2.59652" y1="5.35347" x2="21.9782" y2="5.20335" gradientUnits="userSpaceOnUse">
<stop offset="1e-07" stop-color="#FF9200"/>
<stop offset="0.337553" stop-color="#F36D00"/>
<stop offset="0.56729" stop-color="#F83C72"/>
<stop offset="0.78" stop-color="#FC1CBE"/>
<stop offset="0.93" stop-color="#FE08ED"/>
<stop offset="1" stop-color="#FF00FF"/>
</linearGradient>
<linearGradient id="paint2_linear" x1="8.04162" y1="19.436" x2="27.8022" y2="8.49475" gradientUnits="userSpaceOnUse">
<stop stop-color="#EE0A3F"/>
<stop offset="1" stop-color="#EE0A3F" stop-opacity="0"/>
</linearGradient>
<linearGradient id="paint3_linear" x1="9.9647" y1="16.5847" x2="0.415986" y2="8.89264" gradientUnits="userSpaceOnUse">
<stop stop-color="#ED6600"/>
<stop offset="1" stop-color="#F98200"/>
</linearGradient>
</defs>
</svg>
