<?xml version="1.0" encoding="UTF-8"?>
<svg width="338px" height="338px" viewBox="0 0 338 338" version="1.1" xmlns="http://www.w3.org/2000/svg" xmlns:xlink="http://www.w3.org/1999/xlink">
    <!-- Generator: Sketch 61 (89581) - https://sketch.com -->
    <title>Artboard</title>
    <desc>Created with Sketch.</desc>
    <defs>
        <linearGradient x1="0.2561607%" y1="50.1970128%" x2="99.3445952%" y2="49.5706684%" id="linearGradient-1">
            <stop stop-color="#FFB900" offset="0%"></stop>
            <stop stop-color="#F38000" offset="34%"></stop>
            <stop stop-color="#F83C72" offset="57%"></stop>
            <stop stop-color="#FC1CBE" offset="78%"></stop>
            <stop stop-color="#FE08ED" offset="93%"></stop>
            <stop stop-color="#FF00FF" offset="100%"></stop>
        </linearGradient>
        <linearGradient x1="-0.89408826%" y1="88.3181497%" x2="108.970327%" y2="5.93247983%" id="linearGradient-2">
            <stop stop-color="#EE0A3F" offset="0%"></stop>
            <stop stop-color="#EE0A3F" stop-opacity="0" offset="100%"></stop>
        </linearGradient>
        <linearGradient x1="65.2642783%" y1="64.4646433%" x2="11.6947118%" y2="5.92390627%" id="linearGradient-3">
            <stop stop-color="#ED6600" offset="0%"></stop>
            <stop stop-color="#F98200" offset="100%"></stop>
        </linearGradient>
    </defs>
    <g id="Artboard" stroke="none" stroke-width="1" fill="none" fill-rule="evenodd">
        <g id="g942" transform="translate(13.000000, 42.000000)" fill-rule="nonzero">
            <g id="g71" fill="url(#linearGradient-1)">
                <path d="M155.800851,252.792714 C153.589689,252.801035 151.415068,252.228959 149.494468,251.133607 C133.014894,241.627443 10.9946809,165.146787 6.3893617,162.807574 C2.87917401,161.175023 0.482433273,157.821974 0.0720216457,153.973311 L0.0720216457,46.7013115 C-0.0107558989,42.7034108 1.96736815,38.9427917 5.3106383,36.7472131 L6.19851064,36.2412131 C17.9980851,28.9000656 57.5208511,4.79455738 63.7691489,1.32721311 C65.200371,0.47394514 66.8325932,0.015931562 68.4989362,1.04434494e-15 C70.0759761,0.00889023658 71.6274919,0.398773135 73.0212766,1.13642623 C73.0212766,1.13642623 128.326596,37.1702623 136.782128,40.3887541 C142.717643,43.1113374 149.188222,44.4690785 155.717872,44.3620984 C163.118845,44.5208179 170.432,42.7360471 176.927234,39.1859672 C185.158723,34.8393443 237.991277,1.32721311 238.56383,1.32721311 C239.894715,0.523510187 241.423524,0.106963534 242.978298,0.12442623 C244.648374,0.132422294 246.285319,0.590956769 247.716383,1.45163934 C254.910638,5.42498361 303.892979,35.4034098 305.975745,36.730623 C309.423531,38.8030558 311.514094,42.5471257 311.469653,46.5685902 L311.469653,153.848885 C311.085421,157.704265 308.684943,161.066962 305.162553,162.683148 C300.548936,165.171672 178.910426,241.685508 162.115532,251.02577 C160.204697,252.164276 158.025264,252.774083 155.800851,252.792714" id="path69"></path>
            </g>
            <g id="g79" transform="translate(155.000000, 41.000000)" fill="url(#linearGradient-2)">
                <path d="M0,211.792264 L0.631322751,211.792264 C2.84759977,211.801267 5.02743258,211.227908 6.95285714,210.129412 C23.4503175,200.576941 145.536508,123.924392 150.155132,121.579922 C153.681345,119.960103 156.084428,116.589849 156.469047,112.725804 L156.469047,5.23764706 C156.4882,3.42175343 156.078296,1.62694542 155.272169,5.90725725e-15 L0,85.2988235 L0,211.792264" id="path77"></path>
            </g>
            <g id="g970" transform="translate(0.000000, 41.000000)" fill="url(#linearGradient-3)">
                <path d="M154.46123,209.941923 L153.839572,209.941923 C151.649697,209.946355 149.497183,209.373836 147.598128,208.281818 C131.318984,198.885771 10.7754011,123.169565 6.24144385,120.853755 C2.75733059,119.258543 0.380996538,115.930801 -0.000517795731,112.113439 L-0.000517795731,5.90988142 C-0.0170875155,4.11142817 0.388968726,2.33421775 1.18529412,0.722134387 L154.46123,84.9960474 L154.46123,209.941923" id="path968"></path>
            </g>
        </g>
    </g>
</svg>