<svg width="25" height="26" viewBox="0 0 25 26" fill="none" xmlns="http://www.w3.org/2000/svg">
<path d="M12.5 25.3609C19.4036 25.3609 25 19.7645 25 12.8609C25 5.95734 19.4036 0.360901 12.5 0.360901C5.59644 0.360901 0 5.95734 0 12.8609C0 19.7645 5.59644 25.3609 12.5 25.3609Z" fill="#00B900"/>
<path d="M12.4999 6.28436C8.25416 6.28436 4.79785 9.09832 4.79785 12.5566C4.79785 15.654 7.53851 18.2491 11.2387 18.7424C11.4897 18.7955 11.8311 18.9088 11.9178 19.1225C11.9948 19.3164 11.9685 19.6158 11.9422 19.818L11.8369 20.4744C11.808 20.6683 11.6829 21.2378 12.5102 20.8897C13.3388 20.5429 16.9492 18.2638 18.5666 16.3987C19.6731 15.1831 20.202 13.9373 20.202 12.5566C20.202 9.09832 16.7457 6.28436 12.4999 6.28436ZM9.48521 14.613H7.95378C7.73235 14.613 7.54942 14.4294 7.54942 14.208V11.1362C7.54942 10.9142 7.73235 10.7305 7.95378 10.7305C8.17714 10.7305 8.35814 10.9142 8.35814 11.1362V13.8023H9.48521C9.70857 13.8023 9.88893 13.9847 9.88893 14.208C9.88893 14.4294 9.70793 14.613 9.48521 14.613ZM11.068 14.208C11.068 14.4294 10.887 14.613 10.663 14.613C10.4416 14.613 10.2606 14.4294 10.2606 14.208V11.1362C10.2606 10.9142 10.4416 10.7305 10.6649 10.7305C10.887 10.7305 11.068 10.9142 11.068 11.1362V14.208ZM14.7528 14.208C14.7528 14.382 14.6411 14.5362 14.4755 14.5919C14.4344 14.6053 14.3902 14.6117 14.3478 14.6117C14.2124 14.6117 14.0968 14.5535 14.0205 14.4505L12.4524 12.3147V14.2073C12.4524 14.4287 12.2734 14.6124 12.0474 14.6124C11.8254 14.6124 11.6456 14.4287 11.6456 14.2073V11.1362C11.6456 10.9621 11.7567 10.8079 11.9216 10.7529C11.9602 10.7382 12.0089 10.7318 12.0462 10.7318C12.1713 10.7318 12.2868 10.799 12.3639 10.8956L13.9441 13.0397V11.1362C13.9441 10.9142 14.1251 10.7305 14.3484 10.7305C14.5699 10.7305 14.7528 10.9142 14.7528 11.1362V14.208ZM17.2271 12.2661C17.4511 12.2661 17.6315 12.4497 17.6315 12.6724C17.6315 12.8944 17.4511 13.078 17.2271 13.078H16.1007V13.8023H17.2271C17.4511 13.8023 17.6315 13.9847 17.6315 14.208C17.6315 14.4294 17.4511 14.613 17.2271 14.613H15.6957C15.4742 14.613 15.2932 14.4294 15.2932 14.208V11.1362C15.2932 10.9142 15.4742 10.7305 15.6976 10.7305H17.229C17.4511 10.7305 17.6315 10.9142 17.6315 11.1362C17.6315 11.3607 17.4511 11.5418 17.2271 11.5418H16.1007V12.2661H17.2271Z" fill="white"/>
</svg>
