<svg width="26" height="26" viewBox="0 0 26 26" fill="none" xmlns="http://www.w3.org/2000/svg">
<path d="M13 26C20.1797 26 26 20.1797 26 13C26 5.8203 20.1797 0 13 0C5.8203 0 0 5.8203 0 13C0 20.1797 5.8203 26 13 26Z" fill="url(#paint0_linear)"/>
<path d="M18.6851 16.2575L16.2563 14.6377C15.948 14.4338 15.5349 14.5009 15.307 14.7919L14.5995 15.7016C14.5086 15.8215 14.3433 15.8563 14.2118 15.7832L14.0772 15.709C13.6311 15.4658 13.0759 15.163 11.9575 14.0441C10.8391 12.9252 10.5357 12.3697 10.2925 11.9243L10.2188 11.7897C10.1447 11.6582 10.1788 11.4922 10.2987 11.4005L11.2078 10.6932C11.4986 10.4653 11.5658 10.0522 11.3622 9.74389L9.74241 7.31488C9.53368 7.00089 9.11491 6.90663 8.79178 7.10089L7.77613 7.71104C7.457 7.89866 7.22287 8.20253 7.12283 8.55896C6.7571 9.89165 7.03224 12.1917 10.4201 15.5802C13.1152 18.2752 15.1215 19 16.5005 19C16.8178 19.0013 17.1339 18.96 17.4403 18.8771C17.7968 18.7772 18.1007 18.543 18.2882 18.2238L18.8989 17.2087C19.0934 16.8855 18.9992 16.4664 18.6851 16.2575Z" fill="white"/>
<defs>
<linearGradient id="paint0_linear" x1="26" y1="13" x2="0" y2="13" gradientUnits="userSpaceOnUse">
<stop stop-color="#60E9FF"/>
<stop offset="1" stop-color="#53B1FF"/>
</linearGradient>
</defs>
</svg>
