<svg width="26" height="26" viewBox="0 0 26 26" fill="none" xmlns="http://www.w3.org/2000/svg">
<path d="M12.6526 25.3609C19.5561 25.3609 25.1526 19.7645 25.1526 12.8609C25.1526 5.95734 19.5561 0.360901 12.6526 0.360901C5.74903 0.360901 0.152588 5.95734 0.152588 12.8609C0.152588 19.7645 5.74903 25.3609 12.6526 25.3609Z" fill="#EA501F"/>
<path d="M5.68726 7.86383H9.2013C9.30864 6.67011 9.63998 5.5981 10.116 4.76952C10.746 3.6741 11.642 3 12.6547 3C13.6674 3 14.5587 3.67878 15.1934 4.76952C15.6694 5.59342 16.0007 6.67011 16.1081 7.86383H19.6174C20.0328 7.86383 20.4061 8.20556 20.3735 8.62219L19.6688 18.4856C19.5801 19.7215 18.8054 20.4283 17.6807 20.4283H7.62862C6.37793 20.4283 5.71526 19.5529 5.64059 18.4856L4.93125 8.62687C4.90325 8.21024 5.27192 7.86383 5.68726 7.86383ZM10.0786 7.86383H15.2214C15.1187 6.82927 14.834 5.91174 14.428 5.20955C13.9614 4.39033 13.3267 3.88008 12.6547 3.88008C11.978 3.88008 11.348 4.39033 10.872 5.21423C10.466 5.91174 10.186 6.83395 10.0786 7.86383Z" fill="white"/>
<path d="M10.0989 16.9688C9.93557 16.8565 9.89357 16.6365 10.0056 16.4726C10.1176 16.3088 10.3369 16.2667 10.5002 16.379C10.6029 16.4492 10.7102 16.5194 10.8269 16.5897C11.6483 17.0906 12.4043 17.3387 13.0343 17.3387C13.6036 17.3387 14.0656 17.1233 14.3596 16.688C14.3783 16.6552 14.397 16.6365 14.4016 16.6224C14.4856 16.4867 14.5463 16.3416 14.5883 16.2011C14.6723 15.9109 14.6583 15.6113 14.5416 15.3398C14.4156 15.0542 14.173 14.778 13.795 14.5486C13.543 14.3941 13.2303 14.2584 12.8523 14.1554C11.8909 13.8839 11.1816 13.5 10.7989 12.9851C10.3789 12.4187 10.3462 11.7352 10.7942 10.9066C11.0929 10.3589 11.7043 10.0172 12.4789 9.95632C13.1463 9.90482 13.949 10.064 14.7656 10.4806C14.943 10.5696 15.013 10.7849 14.9196 10.9628C14.8263 11.1407 14.6163 11.2109 14.439 11.1173C13.7436 10.7615 13.0809 10.6257 12.5303 10.6679C12.0029 10.71 11.6016 10.916 11.4243 11.2437C11.1256 11.7914 11.1303 12.222 11.3729 12.5497C11.6529 12.9289 12.2363 13.2238 13.0483 13.4532C13.4869 13.5796 13.8603 13.7388 14.1683 13.926C14.677 14.235 15.0176 14.6235 15.1996 15.0448C15.3863 15.4802 15.4096 15.939 15.2836 16.3884C15.2276 16.5897 15.139 16.791 15.0176 16.9876C14.9896 17.0297 14.971 17.0625 14.957 17.0859C14.523 17.7272 13.8556 18.0455 13.0436 18.0502C12.2829 18.0502 11.3963 17.7693 10.4629 17.1982C10.3462 17.1327 10.2249 17.0578 10.0989 16.9688Z" fill="#EA501F"/>
</svg>
