<?xml version="1.0" encoding="UTF-8"?>
<svg width="338px" height="338px" viewBox="0 0 338 338" version="1.1" xmlns="http://www.w3.org/2000/svg" xmlns:xlink="http://www.w3.org/1999/xlink">
    <!-- Generator: Sketch 61 (89581) - https://sketch.com -->
    <title>Shopee-white</title>
    <desc>Created with Sketch.</desc>
    <g id="Shopee-white" stroke="none" stroke-width="1" fill="none" fill-rule="evenodd">
        <path d="M299,99.0299865 C299,95.9446496 296.518554,93.4449554 293.454291,93.4449554 L233.33823,93.4449554 C231.86867,54.2533203 203.854078,23 169.507151,23 C135.160224,23 107.145632,54.2533203 105.676073,93.4449554 L45.4813491,93.4449554 C42.4599923,93.5020912 40.025029,95.9803595 40.025029,99.0299865 C40.025029,99.1763972 40.0357557,99.3228079 40.0464824,99.4656475 L40,99.4656475 L48.5777928,288.381827 C48.5777928,288.910334 48.5992462,289.43527 48.6457286,289.974489 C48.6457286,290.095903 48.6564554,290.210175 48.6671821,290.331589 L48.6886355,290.735111 L48.7100889,290.745824 C50.0115964,303.897786 59.5690955,314.485777 72.5484152,314.978574 L72.5805953,315 L264.47787,315 L264.488597,314.989287 C277.703904,314.632188 288.416312,303.897786 289.539041,290.5887 L289.549768,290.577987 L289.560495,290.399437 C289.571221,290.26374 289.581948,290.131613 289.581948,289.985202 C289.603402,289.649529 289.628431,289.313856 289.628431,288.985325 L299,99.3192369 L298.989273,99.3192369 C299,99.2192491 299,99.1299743 299,99.0299865 Z M169.5,40 C194.583969,40 215.042679,63.5405911 216,93 L123,93 C123.957321,63.5405911 144.401689,40 169.5,40 Z M216.675129,241.766065 C214.988633,255.769821 206.520575,266.9978 193.4022,272.610006 C186.094052,275.746134 176.295299,277.437288 168.531726,276.902113 C156.420268,276.441862 145.045317,273.484126 134.566985,268.08599 C130.813287,266.159359 125.237889,262.306096 120.946931,258.699014 C119.861739,257.792784 119.730093,257.207659 120.445252,256.176554 C120.836633,255.594997 121.551793,254.542485 123.138664,252.209121 C125.430021,248.837516 125.707546,248.423647 125.977954,248.020482 C126.703788,246.900181 127.899278,246.800282 129.073421,247.727919 C129.197951,247.817115 129.197951,247.817115 129.297575,247.895607 C129.48615,248.041889 129.48615,248.041889 129.945133,248.398672 C130.404116,248.755456 130.670966,248.969526 130.784823,249.048018 C142.092171,257.931929 155.263916,263.051774 168.56019,263.56911 C187.06183,263.312226 200.368779,254.974194 202.749086,242.169231 C205.374896,228.076279 194.334398,215.895688 172.751523,209.106096 C165.991309,206.99037 148.930662,200.132989 145.781825,198.28485 C131.012535,189.590034 124.095768,178.208638 125.077778,164.137094 C126.586373,144.642439 144.629031,130.09994 167.446534,130 C177.647342,129.989337 187.826802,132.105064 197.600649,136.240185 C201.062591,137.706566 207.24285,141.081738 209.377655,142.669425 C210.605167,143.575656 210.85067,144.631735 210.149742,145.773443 C209.747688,146.433492 209.10013,147.4753 207.737413,149.662384 L207.716065,149.683791 C205.915713,152.552331 205.862343,152.641527 205.449614,153.31228 C204.734455,154.411173 203.884091,154.511073 202.59965,153.694038 C192.131991,146.647562 180.532886,143.093998 167.773871,142.837114 C151.89804,143.151083 139.996505,152.630823 139.217301,165.546389 C139.00382,177.209644 147.731613,185.711797 166.567706,192.212394 C204.798499,204.535699 219.432585,218.978298 216.675129,241.766065 Z" id="Shape" fill="#FFFFFF"></path>
    </g>
</svg>