<svg width="25" height="25" viewBox="0 0 25 25" fill="none" xmlns="http://www.w3.org/2000/svg">
<path d="M12.5 25C19.4036 25 25 19.4036 25 12.5C25 5.59644 19.4036 0 12.5 0C5.59644 0 0 5.59644 0 12.5C0 19.4036 5.59644 25 12.5 25Z" fill="#1DA1F2"/>
<path d="M18.5819 9.9285C18.5819 9.79332 18.5792 9.65872 18.5733 9.52482C19.172 9.08397 19.6925 8.53384 20.1031 7.90764C19.5536 8.1564 18.9622 8.32375 18.3419 8.39936C18.9751 8.01263 19.4613 7.40106 19.6905 6.67197C19.0979 7.02966 18.4417 7.28957 17.743 7.42998C17.1834 6.82294 16.3865 6.4433 15.5043 6.4433C13.8107 6.4433 12.4372 7.84191 12.4372 9.56593C12.4372 9.81109 12.4641 10.0494 12.5167 10.2781C9.9677 10.1474 7.70739 8.90477 6.19489 7.01503C5.93156 7.47655 5.77964 8.01274 5.77964 8.58482C5.77964 9.66824 6.32114 10.6248 7.14445 11.1844C6.64127 11.1686 6.16866 11.0279 5.75547 10.7938C5.75501 10.8069 5.75501 10.8197 5.75501 10.8337C5.75501 12.3462 6.81212 13.609 8.21559 13.8952C7.95784 13.9666 7.68664 14.0051 7.40688 14.0051C7.20957 14.0051 7.01729 13.9853 6.83037 13.9487C7.22086 15.1896 8.35313 16.0926 9.69547 16.1179C8.64578 16.9557 7.32339 17.4547 5.88628 17.4547C5.63902 17.4547 5.39473 17.4403 5.15466 17.4115C6.51194 18.2974 8.12378 18.8144 9.85594 18.8144C15.4971 18.8144 18.5819 14.0552 18.5819 9.9285Z" fill="white"/>
</svg>
