<svg width="25" height="25" viewBox="0 0 25 25" fill="none" xmlns="http://www.w3.org/2000/svg">
<path d="M12.5 25C19.4036 25 25 19.4036 25 12.5C25 5.59644 19.4036 0 12.5 0C5.59644 0 0 5.59644 0 12.5C0 19.4036 5.59644 25 12.5 25Z" fill="#E53935"/>
<path d="M5.24291 16.2813C5.55841 17.3999 6.5236 17.6046 6.58798 17.6439C8.17645 18.0764 17.0801 18.0777 18.6924 17.6439C19.7966 17.3246 19.9995 16.3456 20.0374 16.2813C20.4579 14.0452 20.4856 11.1301 20.0181 8.59285L20.0374 8.71901C19.7219 7.60035 18.7568 7.39566 18.6924 7.3564C17.1252 6.93095 8.19834 6.91486 6.58798 7.3564C5.48372 7.6763 5.2809 8.65464 5.24291 8.71901C4.79283 11.069 4.7703 13.7652 5.24291 16.2813ZM11.0932 14.8504V10.1563L15.1278 12.5069L11.0932 14.8504Z" fill="white"/>
</svg>
