<svg width="24" height="24" viewBox="0 0 24 24" fill="none" xmlns="http://www.w3.org/2000/svg">
<path d="M12 0C5.385 0 0 4.41936 0 9.8506C0 14.7151 4.27 18.7908 10.035 19.5655C10.426 19.649 10.958 19.8268 11.093 20.1624C11.213 20.4669 11.172 20.9372 11.131 21.2547L10.967 22.2857C10.922 22.5902 10.727 23.4845 12.016 22.9378C13.307 22.3932 18.932 18.8139 21.452 15.8848C23.176 13.9755 24 12.0191 24 9.8506C24 4.41936 18.615 0 12 0ZM7.303 13.0802H4.917C4.572 13.0802 4.287 12.7918 4.287 12.4441V7.61982C4.287 7.27114 4.572 6.98274 4.917 6.98274C5.265 6.98274 5.547 7.27114 5.547 7.61982V11.8071H7.303C7.651 11.8071 7.932 12.0934 7.932 12.4441C7.932 12.7918 7.65 13.0802 7.303 13.0802ZM9.769 12.4441C9.769 12.7918 9.487 13.0802 9.138 13.0802C8.793 13.0802 8.511 12.7918 8.511 12.4441V7.61982C8.511 7.27114 8.793 6.98274 9.141 6.98274C9.487 6.98274 9.769 7.27114 9.769 7.61982V12.4441ZM15.51 12.4441C15.51 12.7175 15.336 12.9596 15.078 13.047C15.014 13.0681 14.945 13.0782 14.879 13.0782C14.668 13.0782 14.488 12.9868 14.369 12.825L11.926 9.47077V12.4431C11.926 12.7908 11.647 13.0792 11.295 13.0792C10.949 13.0792 10.669 12.7908 10.669 12.4431V7.61982C10.669 7.3465 10.842 7.10433 11.099 7.01791C11.159 6.9948 11.235 6.98475 11.293 6.98475C11.488 6.98475 11.668 7.09026 11.788 7.242L14.25 10.6093V7.61982C14.25 7.27114 14.532 6.98274 14.88 6.98274C15.225 6.98274 15.51 7.27114 15.51 7.61982V12.4441ZM19.365 9.3944C19.714 9.3944 19.995 9.68279 19.995 10.0325C19.995 10.3812 19.714 10.6696 19.365 10.6696H17.61V11.8071H19.365C19.714 11.8071 19.995 12.0934 19.995 12.4441C19.995 12.7918 19.714 13.0802 19.365 13.0802H16.979C16.634 13.0802 16.352 12.7918 16.352 12.4441V7.61982C16.352 7.27114 16.634 6.98274 16.982 6.98274H19.368C19.714 6.98274 19.995 7.27114 19.995 7.61982C19.995 7.97253 19.714 8.2569 19.365 8.2569H17.61V9.3944H19.365Z" fill="#B2B9C7"/>
</svg>
