<svg width="21" height="21" viewBox="0 0 21 21" fill="none" xmlns="http://www.w3.org/2000/svg">
<path d="M20.4489 16.2007L16.1985 13.3659C15.6591 13.0091 14.936 13.1265 14.5373 13.6358L13.2991 15.2278C13.14 15.4376 12.8508 15.4985 12.6206 15.3706L12.3851 15.2407C11.6043 14.8151 10.6329 14.2853 8.67564 12.3272C6.71838 10.3691 6.18751 9.39689 5.76195 8.61754L5.63281 8.38201C5.50318 8.15184 5.56289 7.86135 5.77278 7.70096L7.36362 6.46312C7.87263 6.06428 7.99021 5.3414 7.63379 4.8018L4.79921 0.551043C4.43394 0.00156087 3.7011 -0.16339 3.13562 0.17656L1.35822 1.24431C0.799755 1.57266 0.390029 2.10442 0.214959 2.72818C-0.425077 5.06038 0.0564161 9.08541 5.98525 15.0153C10.7015 19.7315 14.2125 20.9999 16.6258 20.9999C17.1812 21.0022 17.7344 20.93 18.2706 20.785C18.8944 20.6101 19.4262 20.2003 19.7543 19.6416L20.8231 17.8652C21.1635 17.2995 20.9986 16.5662 20.4489 16.2007Z" fill="white"/>
</svg>
