<svg width="28" height="23" viewBox="0 0 28 23" fill="none" xmlns="http://www.w3.org/2000/svg">
<path d="M3.5 17.5L4.45454 14.875H5.72727L7 16.0417L3.5 17.5Z" fill="white" stroke="white"/>
<path d="M24.917 21.8152L21.1337 20.1084L21.312 18.3675L23.2312 16.8049L24.917 21.8152Z" fill="white" stroke="white"/>
<path fill-rule="evenodd" clip-rule="evenodd" d="M20.0127 7.0666C19.6199 7.02268 19.2194 7.00003 18.8127 7.00003C13.7385 7.00003 9.62516 10.5258 9.62516 14.875C9.62516 15.4758 9.70366 16.0609 9.85235 16.6232C4.392 16.5308 0 12.8453 0 8.31249C0 3.72163 4.50513 0 10.0625 0C15.1073 0 19.285 3.06676 20.0127 7.0666ZM14.8749 5.25001C14.8749 6.21651 14.0914 7.00001 13.1249 7.00001C12.1584 7.00001 11.3749 6.21651 11.3749 5.25001C11.3749 4.28352 12.1584 3.50001 13.1249 3.50001C14.0914 3.50001 14.8749 4.28352 14.8749 5.25001ZM6.12514 7.00001C7.09163 7.00001 7.87514 6.21651 7.87514 5.25001C7.87514 4.28352 7.09163 3.50001 6.12514 3.50001C5.15864 3.50001 4.37514 4.28352 4.37514 5.25001C4.37514 6.21651 5.15864 7.00001 6.12514 7.00001Z" fill="white"/>
<path fill-rule="evenodd" clip-rule="evenodd" d="M28 14.875C28 18.741 24.0825 21.875 19.25 21.875C14.4175 21.875 10.5 18.741 10.5 14.875C10.5 11.009 14.4175 7.875 19.25 7.875C24.0825 7.875 28 11.009 28 14.875ZM23.6251 12.6875C23.6251 13.4124 23.0375 14 22.3126 14C21.5877 14 21.0001 13.4124 21.0001 12.6875C21.0001 11.9626 21.5877 11.375 22.3126 11.375C23.0375 11.375 23.6251 11.9626 23.6251 12.6875ZM16.1874 14C16.9123 14 17.4999 13.4124 17.4999 12.6875C17.4999 11.9626 16.9123 11.375 16.1874 11.375C15.4626 11.375 14.8749 11.9626 14.8749 12.6875C14.8749 13.4124 15.4626 14 16.1874 14Z" fill="white"/>
</svg>
