<svg width="26" height="25" viewBox="0 0 26 25" fill="none" xmlns="http://www.w3.org/2000/svg">
<path d="M24.1136 12.578C24.1136 18.9467 18.9507 24.1082 12.5812 24.1082C6.21401 24.1082 1.04968 18.9467 1.04968 12.578C1.04968 6.2108 6.21401 1.04938 12.5812 1.04938C18.9507 1.04938 24.1136 6.2108 24.1136 12.578Z" fill="white"/>
<path fill-rule="evenodd" clip-rule="evenodd" d="M18.3898 18.5428L18.3952 18.5455C18.942 18.8234 19.5065 19.1084 20.4185 19.1084C20.5057 19.1084 20.5929 19.1055 20.6743 19.0997C20.5884 19.2097 20.4954 19.3189 20.4007 19.4229C19.4267 19.4215 18.8307 19.1194 18.2565 18.8285L18.2522 18.8263L18.2447 18.8225C17.7205 18.5586 17.2229 18.308 16.454 18.308C15.7803 18.308 15.2403 18.5539 14.6718 18.8128L14.6551 18.8203C14.0151 19.1179 13.3555 19.4215 12.4465 19.4215C11.6372 19.4215 11.02 19.1357 10.4261 18.8592C9.82205 18.5785 9.24897 18.3138 8.47052 18.3138C7.80138 18.3138 7.26403 18.5529 6.69478 18.8062L6.66632 18.8189L6.64911 18.8266C6.0446 19.0978 5.41748 19.3792 4.58599 19.406C4.49297 19.3012 4.40576 19.1958 4.32129 19.0908C4.34116 19.0908 4.36157 19.0912 4.38264 19.0916L4.38266 19.0916C4.40517 19.092 4.42845 19.0925 4.45267 19.0925C5.2919 19.0925 5.92591 18.8073 6.53736 18.5308L6.58061 18.5116C7.14984 18.2587 7.73819 17.9972 8.47052 17.9972C9.31179 17.9972 9.94059 18.2878 10.5472 18.568L10.5602 18.574L10.5633 18.5755C11.1525 18.8485 11.7102 19.107 12.4465 19.107C13.2836 19.107 13.9155 18.816 14.5226 18.5353L14.5322 18.5309C15.1089 18.2661 15.7076 17.9913 16.454 17.9913C17.2986 17.9913 17.8534 18.2717 18.3898 18.5428ZM14.5223 19.1309C15.1019 18.8648 15.7039 18.5885 16.4538 18.5885C17.2989 18.5885 17.8539 18.8691 18.3907 19.1406L18.3949 19.1427C18.8844 19.3905 19.3932 19.6463 20.1549 19.6967C20.0619 19.7943 19.9687 19.8912 19.8726 19.9871C19.1938 19.8999 18.7144 19.6581 18.2519 19.4233L18.2427 19.4187C17.7191 19.1551 17.2226 18.9051 16.4538 18.9051C15.7734 18.9051 15.2295 19.1528 14.6556 19.419L14.6382 19.427C14.0036 19.7177 13.3469 20.0187 12.4463 20.0187C11.6375 20.0187 11.0204 19.7327 10.4257 19.4564L10.4221 19.4547C9.81939 19.1745 9.24785 18.9088 8.47018 18.9088C7.79338 18.9088 7.25055 19.153 6.67326 19.4128L6.66598 19.4161L6.65557 19.4208C6.17817 19.6355 5.68976 19.8551 5.09586 19.9526C5.00284 19.8581 4.91257 19.7643 4.82536 19.6697C5.47921 19.6027 6.01104 19.3649 6.52737 19.1341L6.53767 19.1295L6.55145 19.1233C7.13004 18.8634 7.72601 18.5957 8.47018 18.5957C9.31811 18.5957 9.94939 18.8861 10.5607 19.1712L10.5662 19.1738C11.1543 19.4448 11.7109 19.7013 12.4463 19.7013C13.2841 19.7013 13.9152 19.4116 14.5223 19.1309ZM16.4538 19.1855C15.7039 19.1855 15.102 19.4618 14.5223 19.7294L14.5197 19.7306C13.9134 20.0096 13.2829 20.2997 12.4463 20.2997C11.7086 20.2997 11.1509 20.0418 10.5607 19.7668L10.5534 19.7634C9.94437 19.4822 9.31475 19.1915 8.47019 19.1915C7.72011 19.1915 7.12059 19.4618 6.53768 19.7251C6.15966 19.8974 5.77164 20.0687 5.33187 20.1788L5.40716 20.2478L5.40718 20.2478C5.47376 20.3089 5.53947 20.3692 5.60834 20.4295C5.98797 20.3151 6.32957 20.1634 6.666 20.0117L6.68091 20.005C7.25536 19.7479 7.79638 19.5058 8.47019 19.5058C9.24427 19.5058 9.8141 19.7692 10.4137 20.0464L10.4258 20.052L10.4294 20.0537C11.023 20.328 11.6392 20.6128 12.4463 20.6128C13.3552 20.6128 14.0156 20.3093 14.6556 20.0146C15.2295 19.7507 15.7734 19.5008 16.4538 19.5008C17.223 19.5008 17.7195 19.7509 18.2434 20.0146L18.2519 20.0189C18.5869 20.1892 18.9248 20.3599 19.3405 20.4756C19.4372 20.3921 19.5318 20.3078 19.6249 20.2206C19.1411 20.115 18.7627 19.9245 18.3949 19.7383L18.3839 19.7328C17.8492 19.464 17.2954 19.1855 16.4538 19.1855ZM14.5223 20.3265C15.102 20.0589 15.7039 19.7825 16.4538 19.7825C17.3011 19.7825 17.8568 20.0633 18.3949 20.3352L18.4536 20.3645L18.4536 20.3645C18.6615 20.4684 18.8755 20.5753 19.114 20.6644C19.0179 20.7421 18.922 20.8161 18.8229 20.8895C18.6317 20.8074 18.4532 20.7174 18.2765 20.6284L18.2519 20.6161C17.7249 20.3477 17.2271 20.0963 16.4538 20.0963C15.7734 20.0963 15.2295 20.347 14.6556 20.6117L14.6375 20.62C14.0031 20.9105 13.3466 21.2112 12.4463 21.2112C11.6375 21.2112 11.0204 20.9254 10.4258 20.649C9.82172 20.3668 9.24945 20.1021 8.47019 20.1021C7.79463 20.1021 7.25254 20.3447 6.67642 20.6025L6.66599 20.6072C6.49012 20.6901 6.30699 20.7707 6.12064 20.8447C6.02327 20.7721 5.92784 20.696 5.83337 20.6175C6.05784 20.537 6.27242 20.4402 6.48446 20.3446L6.48447 20.3446L6.53767 20.3206L6.5523 20.314C7.13063 20.0544 7.72638 19.787 8.47019 19.787C9.31726 19.787 9.94812 20.0796 10.5588 20.3629L10.5607 20.3638C11.1508 20.6373 11.7086 20.8938 12.4463 20.8938C13.2841 20.8938 13.9152 20.6058 14.5223 20.3265ZM16.4538 20.3795C15.7039 20.3795 15.102 20.6531 14.5223 20.9205L14.52 20.9216C13.9136 21.2021 13.283 21.4937 12.4463 21.4937C11.7141 21.4937 11.1592 21.2367 10.5739 20.9655L10.5607 20.9594C9.9494 20.6756 9.31813 20.384 8.47019 20.384C7.72324 20.384 7.12559 20.6523 6.54496 20.9129L6.53768 20.9162C6.47175 20.9476 6.40437 20.9777 6.33682 21.0063C6.43451 21.0782 6.53494 21.1501 6.63456 21.2189C6.64393 21.2158 6.65111 21.212 6.65783 21.2084L6.666 21.2042L6.66938 21.2027C7.24813 20.9431 7.79188 20.6992 8.47019 20.6992C9.24945 20.6992 9.82173 20.9639 10.4258 21.2445C11.0204 21.5224 11.6375 21.8054 12.4463 21.8054C13.3464 21.8054 14.0029 21.5062 14.6372 21.2171L14.6556 21.2087C15.2295 20.9426 15.7734 20.6934 16.4538 20.6934C17.2271 20.6934 17.7249 20.944 18.2519 21.2129C18.2634 21.2182 18.2743 21.2236 18.2853 21.229L18.2853 21.229C18.2976 21.2351 18.3102 21.2413 18.3238 21.2474C18.4197 21.1815 18.518 21.1125 18.617 21.0422C18.5429 21.0063 18.4682 20.9682 18.3949 20.9308L18.3893 20.928C17.8529 20.6584 17.2982 20.3795 16.4538 20.3795ZM12.4464 22.0875C13.2842 22.0875 13.9153 21.7986 14.5224 21.5178C15.1022 21.2502 15.7032 20.9739 16.4537 20.9739C17.1539 20.9739 17.6547 21.1667 18.1075 21.3859L18.1042 21.388C17.999 21.4532 17.8917 21.5199 17.7835 21.5823C17.4061 21.4144 16.9964 21.2892 16.4537 21.2892C15.7736 21.2892 15.2297 21.5391 14.6557 21.8029L14.6513 21.805C14.0127 22.099 13.3533 22.4026 12.4464 22.4026C11.6371 22.4026 11.0205 22.1189 10.426 21.8397C9.82197 21.5595 9.24954 21.2942 8.47028 21.2942C8.00182 21.2942 7.59575 21.4115 7.19757 21.5707C7.08554 21.5046 6.97688 21.4378 6.86565 21.3675C7.34943 21.1601 7.86189 20.9798 8.47028 20.9798C9.31773 20.9798 9.94965 21.2715 10.5609 21.5552C11.1503 21.83 11.7089 22.0875 12.4464 22.0875Z" fill="#99877D"/>
<path d="M12.5007 23.0067C6.70077 23.0067 1.99619 18.302 1.99619 12.4993C1.99619 6.69787 6.70077 1.99458 12.5007 1.99458C18.302 1.99458 23.0069 6.69787 23.0069 12.4993C23.0069 18.302 18.302 23.0067 12.5007 23.0067ZM12.5007 0C5.59539 0 0 5.59539 0 12.4993C0 19.4032 5.59539 25 12.5007 25C19.4046 25 25.0029 19.4032 25.0029 12.4993C25.0029 5.59539 19.4046 0 12.5007 0Z" fill="#ED1C2E"/>
<path fill-rule="evenodd" clip-rule="evenodd" d="M15.8604 11.067L15.8604 11.067C16.5426 10.6233 17.1317 10.2402 17.3125 10.0925C17.794 9.70462 18.3507 9.10575 18.3507 8.35873V4.10052C18.3507 4.69795 18.017 5.15899 17.5838 5.72272C17.2595 6.14365 16.1823 6.81174 15.1668 7.44154L15.1668 7.44155C14.6349 7.77145 14.1199 8.09085 13.7389 8.35873C12.6327 9.13573 12.2455 9.91499 12.2455 10.8732V18.6456H12.7441V14.5838C12.7441 14.0758 12.783 13.4168 13.1422 12.9688C13.3656 12.6895 14.7388 11.7964 15.8604 11.067ZM18.3466 9.39953C18.2696 9.78884 17.8716 10.2001 17.6552 10.373C17.4751 10.5179 16.9235 10.8769 16.2799 11.2958L16.2799 11.2958C15.1742 12.0155 13.7971 12.9118 13.5665 13.2019C13.2005 13.6563 13.1389 14.3279 13.1389 14.8447L13.1381 18.6454H13.6417V17.6566C13.639 17.3156 13.8324 16.7932 14.2305 16.3789C14.668 15.9217 15.4807 15.3892 16.274 14.8694L16.274 14.8694C16.6928 14.5949 17.1061 14.3241 17.456 14.0698C18.302 13.4496 18.3568 12.6081 18.3568 11.8795V9.27927L18.3466 9.39953ZM7.27481 5.78283C7.51677 6.11056 9.58986 7.78998 10.608 8.56618C11.6262 9.3448 11.849 9.81309 11.849 11.0416V18.6456H11.3542V14.8301C11.3542 13.7503 10.9701 12.9975 10.5479 12.5797C10.1301 12.1581 8.74386 11.1106 7.75713 10.3929C6.7683 9.67462 6.4978 8.65501 6.4978 8.08837V4.13646C6.4978 4.75737 6.90003 5.28694 7.16275 5.63284C7.20431 5.68755 7.24237 5.73767 7.27481 5.78283Z" fill="#00A94F"/>
</svg>
