<svg width="25" height="25" viewBox="0 0 25 25" fill="none" xmlns="http://www.w3.org/2000/svg">
<path d="M12.5 25C19.4036 25 25 19.4036 25 12.5C25 5.59644 19.4036 0 12.5 0C5.59644 0 0 5.59644 0 12.5C0 19.4036 5.59644 25 12.5 25Z" fill="#37C5E3"/>
<path d="M16.2481 17.6819C16.2481 17.6819 16.3556 17.5013 16.4161 17.7513C16.4697 18.6234 16.1925 19.4827 15.6433 20.1472C15.177 20.6094 14.6101 20.9491 13.9902 21.1377C13.3703 21.3262 12.7157 21.358 12.0814 21.2305C12.0814 21.2305 14.5882 21.0638 15.2266 18.6333L15.3005 18.3624C15.6741 18.2292 16.0029 17.9882 16.2481 17.668V17.6819ZM21.947 10.2236C21.9564 10.1919 21.9564 10.158 21.947 10.1263C21.947 10.1263 21.9067 9.9805 21.8126 9.7305C21.7916 9.6969 21.7778 9.659 21.7723 9.61939C21.7754 9.60569 21.7754 9.59142 21.7723 9.57772C21.5182 9.02747 21.1646 8.53248 20.7306 8.11939C20.7306 8.11939 21.3153 8.11939 20.6769 7.42495C19.7829 6.50955 18.7264 5.78096 17.5653 5.27911C16.4564 4.74439 15.2266 4.95272 15.3207 6.13328C15.3946 6.95967 14.6083 7.28606 13.9766 7.21661C13.2441 7.12634 12.7871 6.52217 12.9215 6.06384C13.0383 5.56714 13.3277 5.13215 13.7347 4.84161C14.0088 4.59318 14.3478 4.43376 14.7091 4.38328C15.0115 4.32772 15.4282 4.21661 15.5425 4.56384C15.7508 4.45272 16.1271 3.75828 14.904 3.75828C14.8455 3.64922 14.7564 3.561 14.6484 3.50523C14.5405 3.44945 14.4187 3.42873 14.2992 3.44578C14.1131 3.28205 13.8968 3.15901 13.6634 3.08409C13.4301 3.00917 13.1844 2.98394 12.9413 3.0099C12.6982 3.03586 12.4627 3.11249 12.2491 3.23515C12.0354 3.35782 11.8481 3.52397 11.6984 3.72356C11.6984 3.72356 11.1675 3.92495 11.1339 3.72356C11.2414 3.81384 11.4497 3.543 11.1876 3.43189C11.0532 3.37634 10.9054 3.52217 10.8852 3.63328C10.8795 3.67561 10.8825 3.7187 10.894 3.75977C10.9054 3.80083 10.9251 3.83895 10.9517 3.87168C10.9783 3.9044 11.0112 3.93099 11.0484 3.94974C11.0856 3.96848 11.1261 3.97896 11.1675 3.9805C11.2367 3.98799 11.3065 3.98799 11.3758 3.9805L11.2817 4.09161C10.865 4.25134 10.4887 4.09161 10.4148 3.84856C10.4361 3.85974 10.4595 3.86589 10.4834 3.86657C10.5073 3.86724 10.5311 3.86242 10.5529 3.85245C10.5748 3.84248 10.5942 3.82761 10.6099 3.80892C10.6255 3.79024 10.6369 3.76819 10.6433 3.74439C10.6502 3.71165 10.65 3.67775 10.6429 3.64507C10.6357 3.61238 10.6217 3.58172 10.6019 3.55524C10.582 3.52875 10.5568 3.50709 10.5279 3.49178C10.4991 3.47647 10.4673 3.46788 10.4349 3.46661C10.2064 3.46661 10.1124 3.68884 10.1527 3.90411C10.1768 3.99675 10.2184 4.08356 10.2751 4.15956C10.3318 4.23556 10.4024 4.29925 10.4829 4.34699C10.5635 4.39473 10.6523 4.42558 10.7444 4.43776C10.8365 4.44995 10.93 4.44323 11.0196 4.418L10.9457 4.52911C10.6465 4.8962 10.3746 5.28621 10.1325 5.69578C9.75617 6.32078 8.23063 7.01522 8.49273 5.51522C8.56665 5.03606 7.75348 4.47356 6.30859 5.42495C5.32513 6.0593 4.49891 6.92257 3.89595 7.94578C3.89595 7.94578 3.59354 8.42495 4.09757 8.43884C4.09757 8.43884 3.06262 8.918 3.00886 11.2166V11.6888C2.99705 11.9202 2.99705 12.152 3.00886 12.3833C3.00886 12.3833 3.12311 13.7722 3.37176 13.9944C3.44569 14.0499 3.53977 14.0708 3.67418 13.9388C3.88768 14.9251 4.21013 15.8828 4.6352 16.793C5.24004 17.8069 6.20106 19.3277 5.818 19.6749C5.43493 20.0222 4.91746 19.3277 4.99138 19.5986C5.02736 19.7172 5.08965 19.8256 5.1733 19.915C5.25695 20.0044 5.35965 20.0724 5.47322 20.1135C5.58679 20.1546 5.70808 20.1678 5.82744 20.152C5.94681 20.1361 6.06094 20.0917 6.16074 20.0222C7.068 19.3277 5.74407 17.6611 5.33413 15.5569C6.20106 15.1888 6.16074 13.8763 6.16074 13.8763C6.54143 13.8429 6.90186 13.6848 7.18954 13.425C7.47723 13.1652 7.67715 12.8173 7.7602 12.4319C8.16747 12.5491 8.60007 12.531 8.99684 12.3802C9.39361 12.2294 9.73447 11.9535 9.97122 11.5916C10.1431 12.0524 10.4308 12.4575 10.8046 12.7652C10.7648 12.9638 10.6709 13.1464 10.534 13.2916C10.3971 13.4368 10.2228 13.5385 10.0317 13.5847C9.45009 13.3794 8.81897 13.3794 8.23735 13.5847C7.39058 13.918 7.73332 14.793 8.3516 14.5777C8.30195 14.5597 8.25985 14.5245 8.23241 14.4781C8.20497 14.4317 8.19386 14.377 8.20097 14.3231C8.20808 14.2692 8.23297 14.2195 8.27143 14.1824C8.3099 14.1453 8.35958 14.123 8.41208 14.1194C8.4838 14.1744 8.56642 14.2124 8.65402 14.2305C9.0823 14.2991 9.5198 14.2731 9.93762 14.1541C9.93762 14.1541 10.0115 14.1541 10.0519 14.0986C10.1032 14.0708 10.1488 14.0331 10.1863 13.9874C10.2377 13.9852 10.2881 14.0028 10.3278 14.0367C10.3675 14.0706 10.3936 14.1185 10.4011 14.1711C10.4086 14.2237 10.397 14.2774 10.3685 14.3217C10.34 14.366 10.2966 14.3978 10.2468 14.4111C10.3342 14.439 10.4279 14.4378 10.5146 14.4078C10.6014 14.3777 10.6768 14.3203 10.7302 14.2435C10.7837 14.1668 10.8125 14.0747 10.8126 13.9801C10.8126 13.8856 10.784 13.7934 10.7306 13.7166L10.9994 13.5361C11.1058 13.4367 11.2005 13.3249 11.2817 13.2027C11.7301 13.4829 12.2244 13.6759 12.74 13.7722C12.4548 14.2193 12.0267 14.5486 11.5304 14.7027C10.9668 14.5224 10.3596 14.5543 9.81665 14.793C9.71317 14.8478 9.62785 14.9332 9.57159 15.0384C9.51532 15.1435 9.49068 15.2636 9.50079 15.3833C9.51249 15.4607 9.5397 15.5347 9.58068 15.6006C9.62166 15.6665 9.67551 15.7228 9.73877 15.7659C9.80204 15.8091 9.87333 15.8381 9.94807 15.8511C10.0228 15.8642 10.0994 15.8609 10.1728 15.8416C10.0183 15.7652 9.68225 15.3972 10.1124 15.2374C10.1839 15.3428 10.2924 15.4151 10.4148 15.4388C10.9048 15.524 11.4081 15.4638 11.8664 15.2652C11.8976 15.2691 11.9292 15.2691 11.9605 15.2652C11.9735 15.27 11.9877 15.27 12.0008 15.2652C12.0458 15.2396 12.0848 15.204 12.115 15.1611C12.3234 15.1194 12.6056 15.2166 12.4914 15.5986C12.7333 15.5638 13.1298 15.1402 12.5451 14.793C12.7665 14.6816 12.976 14.5466 13.1701 14.3902L13.5868 13.9874C13.9902 14.0548 14.3561 14.2717 14.6158 14.5977C14.8756 14.9236 15.0115 15.3363 14.9981 15.7583C14.9691 16.1628 14.8265 16.5498 14.5878 16.8718C14.349 17.1937 14.0245 17.4367 13.654 17.5708H13.7279H13.6339C13.5097 17.5943 13.3837 17.6059 13.2575 17.6055C12.5384 17.6055 12.9753 16.7861 12.9753 16.7861C12.9156 16.7763 12.8546 16.7827 12.798 16.8046C12.7415 16.8265 12.6914 16.8632 12.6527 16.9111C12.5932 17.0016 12.5524 17.1038 12.5327 17.2113C12.5131 17.3188 12.515 17.4294 12.5384 17.5361C12.5048 17.5361 12.4645 17.5361 12.4443 17.5013C11.8261 17.2444 11.8597 16.8069 11.8597 16.8069C11.6917 16.8763 11.5774 17.0777 11.6379 17.4249C11.732 17.8833 12.3099 18.1194 12.8207 18.1194C13.0617 18.3317 13.3505 18.4779 13.6605 18.5447C13.9706 18.6114 14.2919 18.5965 14.5949 18.5013C14.5949 18.5013 14.1177 20.7861 11.0599 20.7166C11.0599 20.7166 10.1392 20.3833 10.1796 19.6333C10.1777 19.3589 10.2464 19.0889 10.3786 18.851C10.5109 18.613 10.7019 18.4157 10.9322 18.2791C10.6674 18.2537 10.4024 18.3263 10.1845 18.484C9.96665 18.6418 9.81008 18.8743 9.74273 19.1402C9.67259 19.3748 9.65795 19.6234 9.70005 19.8651C9.74215 20.1068 9.83975 20.3345 9.98466 20.5291C8.83547 20.2374 7.96854 19.3972 8.33144 18.2236C8.39828 18.026 8.50608 17.8458 8.6473 17.6958C8.95532 17.4695 9.31144 17.323 9.6857 17.2686C10.0599 17.2142 10.4414 17.2535 10.7978 17.3833C10.714 17.1683 10.5673 16.9857 10.3781 16.8612C10.1889 16.7367 9.96672 16.6764 9.74273 16.6888C9.49351 16.6681 9.24279 16.6992 9.00543 16.7804C8.76807 16.8615 8.54889 16.9911 8.36088 17.1614C8.17287 17.3318 8.01986 17.5393 7.9109 17.7719C7.80195 18.0044 7.73928 18.2572 7.7266 18.5152C7.63251 19.8694 8.51961 20.8555 10.7239 21.168H10.7575C11.7372 21.7414 12.8959 21.8936 13.9833 21.5916C14.5064 21.4886 15.0033 21.2747 15.4425 20.9636C15.8817 20.6524 16.2538 20.2506 16.5353 19.7835C16.8169 19.3164 17.0018 18.7942 17.0785 18.2496C17.1551 17.7051 17.1218 17.15 16.9806 16.6194C16.9806 16.6194 17.8677 13.7999 15.9994 12.2097C16.3689 12.4758 16.7931 12.6495 17.2387 12.717C17.6842 12.7844 18.1389 12.7439 18.5667 12.5986C18.4726 15.1541 19.5814 15.4874 19.5814 15.4874H19.6218C19.6218 15.4874 17.525 19.8555 18.7548 20.4249C18.8568 20.4826 18.9691 20.5179 19.0849 20.5288C19.2006 20.5396 19.3173 20.5257 19.4276 20.4879C19.538 20.4501 19.6396 20.3893 19.7262 20.3091C19.8127 20.229 19.8824 20.1313 19.9309 20.0222C20.1392 19.6055 19.4739 20.4249 19.0976 20.0777C18.7212 19.7305 19.2118 18.5986 19.7696 17.4805C20.3794 16.4367 20.8325 15.3035 21.1137 14.1194C21.1528 14.1376 21.1952 14.147 21.238 14.147C21.2809 14.147 21.3233 14.1376 21.3624 14.1194C21.6581 14.0499 21.8529 12.8416 21.8865 12.6402C22.0828 11.845 22.1035 11.0143 21.947 10.2097" fill="white"/>
</svg>
