<svg width="25" height="25" viewBox="0 0 25 25" fill="none" xmlns="http://www.w3.org/2000/svg">
<path d="M12.5 25C19.4036 25 25 19.4036 25 12.5C25 5.59644 19.4036 0 12.5 0C5.59644 0 0 5.59644 0 12.5C0 19.4036 5.59644 25 12.5 25Z" fill="white"/>
<path d="M9.9153 7.7243C9.70881 7.72432 9.50694 7.78539 9.33506 7.89982C9.16318 8.01425 9.02896 8.17693 8.94928 8.36743C8.8696 8.55792 8.84801 8.76772 8.88723 8.97045C8.92645 9.17317 9.02472 9.35978 9.1697 9.50682C9.31467 9.65385 9.49988 9.75474 9.70204 9.79681C9.90419 9.83888 10.1143 9.82025 10.3059 9.74326C10.4975 9.66627 10.662 9.53436 10.7789 9.36411C10.8957 9.19385 10.9596 8.99286 10.9625 8.7864C10.9626 8.50727 10.8527 8.23935 10.6567 8.04059C10.4607 7.84183 10.1944 7.72821 9.9153 7.7243ZM15.0698 7.7243C14.8633 7.72432 14.6614 7.78539 14.4895 7.89982C14.3177 8.01425 14.1834 8.17693 14.1038 8.36743C14.0241 8.55792 14.0025 8.76772 14.0417 8.97045C14.0809 9.17317 14.1792 9.35978 14.3242 9.50682C14.4692 9.65385 14.6544 9.75474 14.8565 9.79681C15.0587 9.83888 15.2688 9.82025 15.4604 9.74326C15.652 9.66627 15.8165 9.53436 15.9334 9.36411C16.0502 9.19385 16.1141 8.99286 16.117 8.7864C16.117 8.50865 16.0067 8.24228 15.8103 8.04589C15.6139 7.84949 15.3475 7.73916 15.0698 7.73916V7.7243ZM8.89777 10.6952V17.2906H10.3386V12.656L11.9058 17.2757H13.0347L14.6167 12.6411V17.2757H16.1022V10.6803H13.9854L12.5 15.2109L11.0145 10.6803L8.89777 10.6952Z" fill="#0F6DB6"/>
<path d="M2.47327 11.9058V10.6803H7.92484V11.9058H5.91949V17.2608H4.43405V11.9058H2.47327Z" fill="#C7303A"/>
<path d="M20.1946 10.6803C20.4786 10.684 20.7618 10.7113 21.0413 10.762C21.2696 10.8085 21.4866 10.8994 21.68 11.0294C21.8545 11.1597 21.9947 11.3305 22.0885 11.527C22.192 11.7761 22.2401 12.0447 22.2296 12.3143C22.2377 12.605 22.1602 12.8916 22.0068 13.1387C21.8515 13.3763 21.6292 13.5624 21.3681 13.6735C21.7256 13.7609 22.0379 13.9779 22.2445 14.2825C22.4413 14.6037 22.5394 14.9756 22.5267 15.352C22.53 15.6495 22.4665 15.9439 22.3411 16.2136C22.2186 16.4465 22.0461 16.6494 21.836 16.8078C21.6122 16.9691 21.3603 17.0875 21.0933 17.1568C20.8171 17.2297 20.5322 17.2647 20.2466 17.2608H17.2014V10.6803H20.1946ZM20.0163 13.3615C20.2372 13.3732 20.4552 13.3075 20.6328 13.1758C20.7129 13.1001 20.775 13.0075 20.8149 12.9047C20.8547 12.8019 20.8711 12.6916 20.863 12.5817C20.8667 12.4515 20.8414 12.3221 20.7888 12.2029C20.7371 12.1051 20.6602 12.023 20.5659 11.9652C20.4721 11.9054 20.365 11.8697 20.254 11.8612C20.1366 11.8375 20.0172 11.825 19.8975 11.8241H18.5606V13.3615H20.0163ZM20.098 16.1467C20.2305 16.1475 20.3627 16.1325 20.4917 16.1022C20.6087 16.0766 20.7197 16.0287 20.8185 15.961C20.9183 15.8926 20.9999 15.8008 21.0561 15.6937C21.116 15.561 21.1415 15.4154 21.1304 15.2703C21.1477 15.1329 21.131 14.9933 21.0818 14.8638C21.0326 14.7343 20.9524 14.6189 20.8482 14.5276C20.6328 14.3723 20.3705 14.2962 20.1055 14.3122H18.5977V16.1244H20.0832" fill="#C7303A"/>
</svg>
