<svg width="187" height="43" viewBox="0 0 187 43" fill="none" xmlns="http://www.w3.org/2000/svg">
<g filter="url(#filter0_dd)">
<path d="M184.532 1H2.46825C1.65736 1 1 1.89543 1 3V39C1 40.1046 1.65736 41 2.46825 41H184.532C185.343 41 186 40.1046 186 39V3C186 1.89543 185.343 1 184.532 1Z" fill="black"/>
</g>
<path d="M184.532 1H2.46825C1.65736 1 1 1.89543 1 3V39C1 40.1046 1.65736 41 2.46825 41H184.532C185.343 41 186 40.1046 186 39V3C186 1.89543 185.343 1 184.532 1Z" fill="#4285F4"/>
<path d="M56.708 23.4365C56.708 22.999 56.5531 22.6618 56.2432 22.4248C55.9378 22.1878 55.3841 21.9486 54.582 21.707C53.7799 21.4655 53.1419 21.1966 52.668 20.9004C51.7611 20.3307 51.3076 19.5879 51.3076 18.6719C51.3076 17.8698 51.6335 17.209 52.2852 16.6895C52.9414 16.1699 53.7913 15.9102 54.835 15.9102C55.5277 15.9102 56.1452 16.0378 56.6875 16.293C57.2298 16.5482 57.6559 16.9128 57.9658 17.3867C58.2757 17.8561 58.4307 18.3779 58.4307 18.9521H56.708C56.708 18.4326 56.5439 18.027 56.2158 17.7354C55.8923 17.4391 55.4274 17.291 54.8213 17.291C54.2562 17.291 53.8164 17.4118 53.502 17.6533C53.1921 17.8949 53.0371 18.2321 53.0371 18.665C53.0371 19.0296 53.2057 19.335 53.543 19.5811C53.8802 19.8226 54.4362 20.0596 55.2109 20.292C55.9857 20.5199 56.6077 20.7819 57.0771 21.0781C57.5465 21.3698 57.8906 21.707 58.1094 22.0898C58.3281 22.4681 58.4375 22.9124 58.4375 23.4229C58.4375 24.2523 58.1185 24.9131 57.4805 25.4053C56.847 25.8929 55.9857 26.1367 54.8965 26.1367C54.1764 26.1367 53.5133 26.0046 52.9072 25.7402C52.3057 25.4714 51.8363 25.1022 51.499 24.6328C51.1663 24.1634 51 23.6165 51 22.9922H52.7295C52.7295 23.5573 52.9163 23.9948 53.29 24.3047C53.6637 24.6146 54.1992 24.7695 54.8965 24.7695C55.498 24.7695 55.9492 24.6488 56.25 24.4072C56.5553 24.1611 56.708 23.8376 56.708 23.4365Z" fill="white"/>
<path d="M61.5615 26H59.9004V18.6035H61.5615V26ZM59.7979 16.6826C59.7979 16.4274 59.8776 16.2155 60.0371 16.0469C60.2012 15.8783 60.4336 15.7939 60.7344 15.7939C61.0352 15.7939 61.2676 15.8783 61.4316 16.0469C61.5957 16.2155 61.6777 16.4274 61.6777 16.6826C61.6777 16.9333 61.5957 17.1429 61.4316 17.3115C61.2676 17.4756 61.0352 17.5576 60.7344 17.5576C60.4336 17.5576 60.2012 17.4756 60.0371 17.3115C59.8776 17.1429 59.7979 16.9333 59.7979 16.6826Z" fill="white"/>
<path d="M63.0859 22.2471C63.0859 21.0986 63.3548 20.1826 63.8926 19.499C64.4349 18.8109 65.1527 18.4668 66.0459 18.4668C66.889 18.4668 67.5521 18.7607 68.0352 19.3486L68.1104 18.6035H69.6074V25.7744C69.6074 26.7451 69.3044 27.5107 68.6982 28.0713C68.0967 28.6318 67.2832 28.9121 66.2578 28.9121C65.7155 28.9121 65.1846 28.7982 64.665 28.5703C64.1501 28.347 63.7581 28.0531 63.4893 27.6885L64.2754 26.6904C64.7858 27.2965 65.4147 27.5996 66.1621 27.5996C66.7135 27.5996 67.1488 27.4492 67.4678 27.1484C67.7868 26.8522 67.9463 26.4147 67.9463 25.8359V25.3369C67.4678 25.8701 66.8298 26.1367 66.0322 26.1367C65.1663 26.1367 64.4577 25.7926 63.9062 25.1045C63.3594 24.4163 63.0859 23.4639 63.0859 22.2471ZM64.7402 22.3906C64.7402 23.1335 64.8906 23.7191 65.1914 24.1475C65.4967 24.5713 65.9183 24.7832 66.4561 24.7832C67.126 24.7832 67.6227 24.4961 67.9463 23.9219V20.668C67.6318 20.1074 67.1396 19.8271 66.4697 19.8271C65.9229 19.8271 65.4967 20.0436 65.1914 20.4766C64.8906 20.9095 64.7402 21.5475 64.7402 22.3906Z" fill="white"/>
<path d="M72.8613 18.6035L72.9092 19.458C73.4561 18.7972 74.1738 18.4668 75.0625 18.4668C76.6029 18.4668 77.3867 19.3486 77.4141 21.1123V26H75.7529V21.208C75.7529 20.7386 75.6504 20.3923 75.4453 20.1689C75.2448 19.9411 74.9144 19.8271 74.4541 19.8271C73.7842 19.8271 73.2852 20.1302 72.957 20.7363V26H71.2959V18.6035H72.8613Z" fill="white"/>
<path d="M84.3662 26H82.7051V18.6035H84.3662V26ZM82.6025 16.6826C82.6025 16.4274 82.6823 16.2155 82.8418 16.0469C83.0059 15.8783 83.2383 15.7939 83.5391 15.7939C83.8398 15.7939 84.0723 15.8783 84.2363 16.0469C84.4004 16.2155 84.4824 16.4274 84.4824 16.6826C84.4824 16.9333 84.4004 17.1429 84.2363 17.3115C84.0723 17.4756 83.8398 17.5576 83.5391 17.5576C83.2383 17.5576 83.0059 17.4756 82.8418 17.3115C82.6823 17.1429 82.6025 16.9333 82.6025 16.6826Z" fill="white"/>
<path d="M87.7227 18.6035L87.7705 19.458C88.3174 18.7972 89.0352 18.4668 89.9238 18.4668C91.4642 18.4668 92.248 19.3486 92.2754 21.1123V26H90.6143V21.208C90.6143 20.7386 90.5117 20.3923 90.3066 20.1689C90.1061 19.9411 89.7757 19.8271 89.3154 19.8271C88.6455 19.8271 88.1465 20.1302 87.8184 20.7363V26H86.1572V18.6035H87.7227Z" fill="white"/>
<path d="M103.958 23.71L105.134 18.6035H106.754L104.737 26H103.37L101.784 20.9209L100.226 26H98.8584L96.835 18.6035H98.4551L99.6514 23.6553L101.169 18.6035H102.42L103.958 23.71Z" fill="white"/>
<path d="M109.632 26H107.971V18.6035H109.632V26ZM107.868 16.6826C107.868 16.4274 107.948 16.2155 108.107 16.0469C108.271 15.8783 108.504 15.7939 108.805 15.7939C109.105 15.7939 109.338 15.8783 109.502 16.0469C109.666 16.2155 109.748 16.4274 109.748 16.6826C109.748 16.9333 109.666 17.1429 109.502 17.3115C109.338 17.4756 109.105 17.5576 108.805 17.5576C108.504 17.5576 108.271 17.4756 108.107 17.3115C107.948 17.1429 107.868 16.9333 107.868 16.6826Z" fill="white"/>
<path d="M113.528 16.8057V18.6035H114.834V19.834H113.528V23.9629C113.528 24.2454 113.583 24.4505 113.692 24.5781C113.806 24.7012 114.007 24.7627 114.294 24.7627C114.485 24.7627 114.679 24.7399 114.875 24.6943V25.9795C114.497 26.0843 114.132 26.1367 113.781 26.1367C112.505 26.1367 111.867 25.4326 111.867 24.0244V19.834H110.65V18.6035H111.867V16.8057H113.528Z" fill="white"/>
<path d="M117.746 19.4102C118.288 18.7812 118.974 18.4668 119.804 18.4668C121.381 18.4668 122.18 19.3669 122.203 21.167V26H120.542V21.2285C120.542 20.7181 120.43 20.3581 120.207 20.1484C119.988 19.9342 119.665 19.8271 119.236 19.8271C118.571 19.8271 118.074 20.1234 117.746 20.7158V26H116.085V15.5H117.746V19.4102Z" fill="white"/>
<path d="M135.164 24.708C134.804 25.1774 134.305 25.5329 133.667 25.7744C133.029 26.016 132.304 26.1367 131.493 26.1367C130.659 26.1367 129.921 25.9476 129.278 25.5693C128.636 25.1911 128.139 24.651 127.788 23.9492C127.442 23.2428 127.262 22.4202 127.248 21.4814V20.7021C127.248 19.1982 127.608 18.0247 128.328 17.1816C129.048 16.334 130.053 15.9102 131.343 15.9102C132.45 15.9102 133.33 16.1836 133.981 16.7305C134.633 17.2773 135.025 18.0658 135.157 19.0957H133.462C133.271 17.8971 132.576 17.2979 131.377 17.2979C130.602 17.2979 130.012 17.5781 129.606 18.1387C129.205 18.6947 128.998 19.5127 128.984 20.5928V21.3584C128.984 22.4339 129.21 23.2702 129.661 23.8672C130.117 24.4596 130.748 24.7559 131.555 24.7559C132.439 24.7559 133.068 24.5553 133.441 24.1543V22.2061H131.391V20.8936H135.164V24.708Z" fill="white"/>
<path d="M136.593 22.2334C136.593 21.5088 136.736 20.8571 137.023 20.2783C137.311 19.695 137.714 19.2484 138.233 18.9385C138.753 18.624 139.35 18.4668 140.024 18.4668C141.022 18.4668 141.831 18.7881 142.451 19.4307C143.076 20.0732 143.413 20.9255 143.463 21.9873L143.47 22.377C143.47 23.1061 143.328 23.7578 143.046 24.332C142.768 24.9062 142.367 25.3506 141.843 25.665C141.323 25.9795 140.722 26.1367 140.038 26.1367C138.994 26.1367 138.158 25.7904 137.529 25.0977C136.905 24.4004 136.593 23.473 136.593 22.3154V22.2334ZM138.254 22.377C138.254 23.138 138.411 23.735 138.726 24.168C139.04 24.5964 139.478 24.8105 140.038 24.8105C140.599 24.8105 141.034 24.5918 141.344 24.1543C141.658 23.7168 141.815 23.0765 141.815 22.2334C141.815 21.486 141.654 20.8936 141.33 20.4561C141.011 20.0186 140.576 19.7998 140.024 19.7998C139.482 19.7998 139.051 20.0163 138.732 20.4492C138.413 20.8776 138.254 21.5202 138.254 22.377Z" fill="white"/>
<path d="M144.563 22.2334C144.563 21.5088 144.707 20.8571 144.994 20.2783C145.281 19.695 145.685 19.2484 146.204 18.9385C146.724 18.624 147.321 18.4668 147.995 18.4668C148.993 18.4668 149.802 18.7881 150.422 19.4307C151.046 20.0732 151.383 20.9255 151.434 21.9873L151.44 22.377C151.44 23.1061 151.299 23.7578 151.017 24.332C150.739 24.9062 150.338 25.3506 149.813 25.665C149.294 25.9795 148.692 26.1367 148.009 26.1367C146.965 26.1367 146.129 25.7904 145.5 25.0977C144.876 24.4004 144.563 23.473 144.563 22.3154V22.2334ZM146.225 22.377C146.225 23.138 146.382 23.735 146.696 24.168C147.011 24.5964 147.448 24.8105 148.009 24.8105C148.569 24.8105 149.005 24.5918 149.314 24.1543C149.629 23.7168 149.786 23.0765 149.786 22.2334C149.786 21.486 149.624 20.8936 149.301 20.4561C148.982 20.0186 148.547 19.7998 147.995 19.7998C147.453 19.7998 147.022 20.0163 146.703 20.4492C146.384 20.8776 146.225 21.5202 146.225 22.377Z" fill="white"/>
<path d="M152.555 22.2471C152.555 21.0986 152.824 20.1826 153.361 19.499C153.904 18.8109 154.621 18.4668 155.515 18.4668C156.358 18.4668 157.021 18.7607 157.504 19.3486L157.579 18.6035H159.076V25.7744C159.076 26.7451 158.773 27.5107 158.167 28.0713C157.565 28.6318 156.752 28.9121 155.727 28.9121C155.184 28.9121 154.653 28.7982 154.134 28.5703C153.619 28.347 153.227 28.0531 152.958 27.6885L153.744 26.6904C154.255 27.2965 154.883 27.5996 155.631 27.5996C156.182 27.5996 156.618 27.4492 156.937 27.1484C157.256 26.8522 157.415 26.4147 157.415 25.8359V25.3369C156.937 25.8701 156.299 26.1367 155.501 26.1367C154.635 26.1367 153.926 25.7926 153.375 25.1045C152.828 24.4163 152.555 23.4639 152.555 22.2471ZM154.209 22.3906C154.209 23.1335 154.359 23.7191 154.66 24.1475C154.965 24.5713 155.387 24.7832 155.925 24.7832C156.595 24.7832 157.091 24.4961 157.415 23.9219V20.668C157.101 20.1074 156.608 19.8271 155.938 19.8271C155.392 19.8271 154.965 20.0436 154.66 20.4766C154.359 20.9095 154.209 21.5475 154.209 22.3906Z" fill="white"/>
<path d="M162.556 26H160.895V15.5H162.556V26Z" fill="white"/>
<path d="M167.628 26.1367C166.575 26.1367 165.721 25.8063 165.064 25.1455C164.413 24.4801 164.087 23.596 164.087 22.4932V22.2881C164.087 21.5498 164.228 20.8913 164.511 20.3125C164.798 19.7292 165.199 19.2757 165.714 18.9521C166.229 18.6286 166.803 18.4668 167.437 18.4668C168.444 18.4668 169.221 18.7881 169.768 19.4307C170.319 20.0732 170.595 20.9824 170.595 22.1582V22.8281H165.762C165.812 23.4388 166.015 23.9219 166.37 24.2773C166.73 24.6328 167.181 24.8105 167.724 24.8105C168.485 24.8105 169.104 24.5029 169.583 23.8877L170.479 24.7422C170.182 25.1842 169.786 25.5283 169.289 25.7744C168.797 26.016 168.243 26.1367 167.628 26.1367ZM167.43 19.7998C166.974 19.7998 166.605 19.9593 166.322 20.2783C166.044 20.5973 165.867 21.0417 165.789 21.6113H168.954V21.4883C168.918 20.9323 168.77 20.513 168.51 20.2305C168.25 19.9434 167.89 19.7998 167.43 19.7998Z" fill="white"/>
<path d="M39 2H3C2.44772 2 2 2.44772 2 3V39C2 39.5523 2.44772 40 3 40H39C39.5523 40 40 39.5523 40 39V3C40 2.44772 39.5523 2 39 2Z" fill="white"/>
<path fill-rule="evenodd" clip-rule="evenodd" d="M29.64 21.2046C29.64 20.5664 29.5827 19.9527 29.4764 19.3636H21V22.845H25.8436C25.635 23.97 25.0009 24.9232 24.0477 25.5614V27.8196H26.9564C28.6582 26.2527 29.64 23.9455 29.64 21.2046Z" fill="#4285F4"/>
<path fill-rule="evenodd" clip-rule="evenodd" d="M21 30C23.43 30 25.4673 29.1941 26.9564 27.8196L24.0477 25.5614C23.2418 26.1014 22.2109 26.4205 21 26.4205C18.6559 26.4205 16.6718 24.8373 15.9641 22.71H12.9573V25.0418C14.4382 27.9832 17.4818 30 21 30Z" fill="#34A853"/>
<path fill-rule="evenodd" clip-rule="evenodd" d="M15.9641 22.71C15.7841 22.17 15.6818 21.5932 15.6818 21C15.6818 20.4068 15.7841 19.83 15.9641 19.29V16.9582H12.9573C12.3477 18.1732 12 19.5477 12 21C12 22.4523 12.3477 23.8268 12.9573 25.0418L15.9641 22.71Z" fill="#FBBC05"/>
<path fill-rule="evenodd" clip-rule="evenodd" d="M21 15.5795C22.3214 15.5795 23.5077 16.0336 24.4405 16.9255L27.0218 14.3441C25.4632 12.8918 23.4259 12 21 12C17.4818 12 14.4382 14.0168 12.9573 16.9582L15.9641 19.29C16.6718 17.1627 18.6559 15.5795 21 15.5795Z" fill="#EA4335"/>
<defs>
<filter id="filter0_dd" x="0" y="0" width="187" height="43" filterUnits="userSpaceOnUse" color-interpolation-filters="sRGB">
<feFlood flood-opacity="0" result="BackgroundImageFix"/>
<feColorMatrix in="SourceAlpha" type="matrix" values="0 0 0 0 0 0 0 0 0 0 0 0 0 0 0 0 0 0 127 0"/>
<feOffset dy="1"/>
<feGaussianBlur stdDeviation="0.5"/>
<feColorMatrix type="matrix" values="0 0 0 0 0 0 0 0 0 0 0 0 0 0 0 0 0 0 0.24 0"/>
<feBlend mode="normal" in2="BackgroundImageFix" result="effect1_dropShadow"/>
<feColorMatrix in="SourceAlpha" type="matrix" values="0 0 0 0 0 0 0 0 0 0 0 0 0 0 0 0 0 0 127 0"/>
<feOffset/>
<feGaussianBlur stdDeviation="0.5"/>
<feColorMatrix type="matrix" values="0 0 0 0 0 0 0 0 0 0 0 0 0 0 0 0 0 0 0.12 0"/>
<feBlend mode="normal" in2="effect1_dropShadow" result="effect2_dropShadow"/>
<feBlend mode="normal" in="SourceGraphic" in2="effect2_dropShadow" result="shape"/>
</filter>
</defs>
</svg>
