<svg width="122" height="20" viewBox="0 0 122 20" fill="none" xmlns="http://www.w3.org/2000/svg">
<path fill-rule="evenodd" clip-rule="evenodd" d="M11.3043 0.0166395C11.3043 0.0166395 17.6453 0.0032808 20.8158 0.00120201C21.0716 0.000608279 21.1531 0.0213897 20.9966 0.289754C20.5273 1.09307 20.0521 1.90707 19.6084 2.72522C19.5156 2.89622 19.4121 2.955 19.2223 2.95381C18.1231 2.94609 17.0239 2.95975 15.9247 2.94312C15.6488 2.93897 15.5839 3.01378 15.5845 3.28511C15.5928 8.72959 15.5887 14.1741 15.5976 19.6185C15.5982 19.9113 15.5381 20.0027 15.2294 19.9973L11.6523 19.9979C11.3335 20.0039 11.29 19.8964 11.2906 19.6144C11.2918 13.0818 11.2785 6.54915 11.3043 0.0166395Z" fill="white"/>
<path fill-rule="evenodd" clip-rule="evenodd" d="M1.24352e-05 0.372959C-0.00117717 0.0683765 0.0826902 -0.00227721 0.378902 0.00187889L3.98817 0.00366C4.22252 0.00128509 4.27962 0.0636256 4.27903 0.295773V19.7071C4.27903 19.9399 4.22133 20.001 3.98757 19.9987L0.347378 19.9998C0.0767421 20.0034 -0.000582241 19.9387 0.000607366 19.6602L1.24352e-05 0.372959Z" fill="white"/>
<path d="M28.8962 0.00122093C23.446 3.34769e-05 18.6382 4.61983 18.7756 9.94438C18.6697 16.226 24.0348 19.9861 28.7421 19.9974C34.3089 20.011 38.9418 15.5106 38.9471 10.0382C38.9531 4.58658 34.2488 0.00240839 28.8962 0.00122093ZM28.7338 15.8597C26.0239 15.8662 23.0266 13.5287 23.0939 9.98178C23.0933 6.70084 25.6366 4.13119 28.8605 4.15613C32.1426 4.18106 34.6063 6.68719 34.6069 10.0002C34.6075 13.3387 32.0801 15.8514 28.7338 15.8597Z" fill="white"/>
<path d="M53.2153 0.870402C51.8461 0.271331 50.3906 0.0575889 48.9137 0.0314649C46.7992 -0.00534621 44.6829 0.0148394 42.5677 0.000589909C42.3691 -0.000597546 42.3007 0.103306 42.2233 0.245207C41.6285 1.33351 41.0308 2.29891 40.4288 3.38306C40.3402 3.54277 40.3015 3.73573 40.3021 3.91741C40.3063 6.52625 40.3081 9.22296 40.3081 11.8318C40.3081 14.4507 40.3116 17.0697 40.3021 19.6886C40.3015 19.9332 40.3652 19.9979 40.6102 19.9956C41.8337 19.9825 43.0579 19.9801 44.2814 19.9967C44.5722 20.0009 44.6644 19.9409 44.6626 19.6304C44.6478 17.3843 44.6591 15.1377 44.6495 12.8916C44.6484 12.6262 44.6912 12.517 44.9951 12.5271C45.7618 12.552 46.5297 12.5449 47.297 12.533C48.5937 12.5128 49.8844 12.4267 51.1478 12.1055C52.5247 11.7558 53.7964 11.1977 54.7927 10.1533C56.0329 8.85248 56.4433 7.25891 56.3773 5.50385C56.2922 3.29578 55.2353 1.75387 53.2153 0.870402ZM50.3662 8.12754C50.0807 8.17325 49.7898 8.20175 49.5008 8.20353C47.9763 8.21066 46.4518 8.20294 44.9279 8.21185C44.7144 8.21303 44.6466 8.16197 44.649 7.93992C44.6609 6.84271 44.6597 5.7455 44.6495 4.64829C44.6478 4.43811 44.7174 4.3918 44.9142 4.39418C45.7541 4.40368 46.594 4.39833 47.6016 4.39833C48.4069 4.43277 49.383 4.33183 50.3531 4.47017C51.2977 4.60435 51.8877 5.10071 52.0067 5.8589C52.2065 7.13245 51.6403 7.92211 50.3662 8.12754Z" fill="white"/>
<path fill-rule="evenodd" clip-rule="evenodd" d="M111.73 19.9861C110.133 19.9861 108.537 19.9807 106.94 19.9914C106.692 19.9932 106.602 19.9457 106.605 19.6762C106.62 18.3931 106.62 17.1095 106.605 15.8258C106.602 15.5587 106.687 15.507 106.937 15.5076C109.975 15.5159 113.014 15.5141 116.052 15.5123C116.94 15.5118 117.54 15.0944 117.75 14.3433C118.042 13.2954 117.259 12.2397 116.172 12.2314C115.177 12.2237 114.18 12.2017 113.186 12.235C110.425 12.3282 108.136 10.395 107.434 7.86454C106.624 4.94696 108.024 1.7622 110.687 0.516559C111.41 0.178728 112.17 0.00536088 112.97 0.00595461C115.833 0.00773579 118.694 0.0107041 121.556 1.69642e-05C121.847 -0.00117049 121.947 0.0593892 121.942 0.368722C121.924 1.63158 121.926 2.89444 121.942 4.1573C121.945 4.43932 121.859 4.49869 121.591 4.49751C118.75 4.48801 115.909 4.49038 113.068 4.49216C112.294 4.49275 111.699 4.91905 111.468 5.62915C111.233 6.34934 111.483 7.12 112.092 7.55877C112.372 7.76004 112.684 7.83485 113.027 7.83723C114.156 7.84613 115.288 7.79092 116.416 7.86335C119.008 8.02959 120.716 9.4207 121.606 11.7855C122.727 14.7637 121.371 18.1093 118.583 19.4494C117.844 19.8044 117.063 19.9843 116.242 19.9855C114.737 19.9873 113.233 19.9861 111.73 19.9861Z" fill="#2FC639"/>
<path fill-rule="evenodd" clip-rule="evenodd" d="M88.3872 6.83739C88.3872 4.67384 88.3937 2.50971 88.3794 0.346163C88.3776 0.0528609 88.4704 -0.000575099 88.7381 0.00239354C89.9342 0.0160493 91.1304 0.0166442 92.3265 0.00180104C92.599 -0.00176132 92.6804 0.0599862 92.6798 0.346757C92.6691 4.2048 92.6721 8.06285 92.6733 11.9203C92.6733 12.482 92.734 13.0377 92.8458 13.5893C93.1307 14.9994 93.9605 15.8739 95.3803 16.1512C96.4551 16.3608 97.5358 16.3626 98.6005 16.0859C99.962 15.7326 100.753 14.769 100.959 13.2793C101.024 12.8127 101.04 12.3442 101.04 11.8758C101.043 8.0385 101.046 4.20064 101.034 0.363381C101.033 0.0605799 101.118 -0.00354367 101.407 0.000612429C102.624 0.0178305 103.841 0.0130812 105.057 0.00298785C105.275 0.00120666 105.327 0.065924 105.326 0.276697C105.317 4.46129 105.326 8.64588 105.306 12.8299C105.3 14.0749 105.047 15.2826 104.476 16.4029C103.706 17.9134 102.47 18.8936 100.866 19.3734C98.07 20.2093 95.2548 20.226 92.4996 19.2321C90.0074 18.3331 88.6941 16.4659 88.43 13.8458C88.3913 13.4586 88.386 13.0721 88.386 12.6844C88.3877 10.7358 88.3872 8.7866 88.3872 6.83739Z" fill="#2FC639"/>
<path fill-rule="evenodd" clip-rule="evenodd" d="M75.3705 9.96099C75.3705 6.75129 75.3734 3.54219 75.3645 0.332501C75.3639 0.0783857 75.4222 0.000606848 75.6851 0.00357549C76.9086 0.017825 78.1327 0.0225743 79.3562 0.00120007C79.6745 -0.00414348 79.7173 0.100946 79.7167 0.382967C79.7078 5.28003 79.7101 10.1771 79.7107 15.0742C79.7107 15.4785 79.7107 15.4785 80.1289 15.4785C82.3689 15.4785 84.6095 15.4827 86.8496 15.4726C87.1036 15.4714 87.1791 15.5272 87.1761 15.7914C87.1613 17.075 87.1642 18.3587 87.1743 19.6423C87.1761 19.8697 87.1392 19.9588 86.8775 19.9582C83.1439 19.9487 79.4104 19.9481 75.6762 19.9588C75.3948 19.9594 75.3645 19.8584 75.3651 19.6203C75.3728 16.4006 75.3705 13.1808 75.3705 9.96099Z" fill="#2FC639"/>
<path fill-rule="evenodd" clip-rule="evenodd" d="M11.3042 0.021099C11.3006 1.0055 11.2971 1.98989 11.2935 2.97429C9.47926 2.96368 7.66406 2.93679 5.84985 2.96004C5.59706 2.9636 5.5685 2.90186 5.68984 2.68693C6.16212 1.8569 6.63499 1.02925 7.10191 0.189717C7.16674 0.070378 7.23693 0.00447407 7.38741 0.00566152C8.69301 0.0151611 9.9986 0.0169429 11.3042 0.021099Z" fill="#2FC639"/>
<path d="M74.0453 5.5175C73.9662 3.31596 72.9217 1.75921 70.8976 0.872772C69.4189 0.225015 67.8474 0.0356164 66.2557 0.0142422C64.2857 -0.0124756 62.3151 0.0124603 60.3446 0.0023669C60.1072 0.00117945 59.9746 0.0664896 59.8598 0.280825C59.2888 1.34716 58.7029 2.27634 58.114 3.33377C58.0094 3.52198 57.9689 3.70901 57.9689 3.92275C57.9737 6.51081 57.9719 9.2283 57.9719 11.8164C57.9719 14.4353 57.9761 17.0542 57.9653 19.6732C57.9642 19.9368 58.0385 19.9956 58.2925 19.9926C59.5267 19.9789 60.7609 19.9771 61.9945 19.9938C62.2717 19.9973 62.336 19.9249 62.3348 19.6524C62.3229 17.3855 62.3342 15.1181 62.3205 12.8512C62.3187 12.5668 62.4026 12.511 62.6673 12.5164C63.5172 12.533 64.3678 12.53 65.2184 12.5211C66.4437 12.5075 67.6595 12.3952 68.8502 12.0918C70.2064 11.7463 71.4561 11.1882 72.4429 10.1646C73.6931 8.86672 74.1077 7.27019 74.0453 5.5175ZM68.8098 7.87816C68.2245 8.16137 67.5934 8.20056 66.9594 8.20649C66.3265 8.21303 65.6942 8.20768 65.0614 8.20768C64.2423 8.20768 63.4227 8.20293 62.6036 8.21125C62.4044 8.21303 62.3056 8.18037 62.308 7.94526C62.3193 6.83736 62.3157 5.72946 62.3098 4.62216C62.3086 4.45176 62.3532 4.38883 62.5346 4.38942C64.1525 4.39714 65.7704 4.38764 67.3882 4.40248C67.8748 4.40664 68.3572 4.48442 68.8062 4.70113C69.4819 5.02768 69.7062 5.603 69.7068 6.30479C69.7074 6.99945 69.4688 7.55933 68.8098 7.87816Z" fill="#2FC639"/>
</svg>
