<svg width="183" height="183" viewBox="0 0 183 183" fill="none" xmlns="http://www.w3.org/2000/svg">
<path d="M0 0H183V183H0V0Z" fill="#E2E8F0"/>
<path d="M78.6469 89.8731C75.151 89.8731 72.0414 87.6303 70.9122 84.2913L70.8358 84.0397C70.5695 83.1555 70.458 82.4119 70.458 81.6679V66.7496L65.1603 84.4684C64.479 87.0746 66.0316 89.7765 68.6366 90.4965L102.404 99.5574C102.825 99.6668 103.247 99.7193 103.662 99.7193C105.836 99.7193 107.824 98.273 108.381 96.1416L110.348 89.8731H78.6469Z" fill="#BCBFC8"/>
<path d="M84.6795 67.6172C87.039 67.6172 88.9574 65.6716 88.9574 63.2791C88.9574 60.8866 87.039 58.941 84.6795 58.941C82.3201 58.941 80.4012 60.8866 80.4012 63.2791C80.4012 65.6716 82.3201 67.6172 84.6795 67.6172Z" fill="#BCBFC8"/>
<path d="M111.738 52H79.0107C76.0044 52 73.5562 54.4338 73.5562 57.4229V81.2821C73.5562 84.2711 76.0044 86.7049 79.0107 86.7049H111.738C114.745 86.7049 117.193 84.2711 117.193 81.2821V57.4229C117.193 54.4338 114.745 52 111.738 52ZM79.0107 56.3382H111.738C112.341 56.3382 112.829 56.8239 112.829 57.4229V72.8209L105.937 64.8256C105.206 63.9733 104.148 63.5177 103.011 63.4919C101.881 63.4983 100.82 63.9971 100.096 64.8606L91.9926 74.5299L89.3526 71.9118C87.8605 70.4284 85.4319 70.4284 83.9417 71.9118L77.92 77.8963V57.4229C77.92 56.8239 78.4086 56.3382 79.0107 56.3382Z" fill="#BCBFC8"/>
<path d="M50.7089 113.418H52.8689L58.7549 122.184V113.418H61.0409V126H58.8809L52.9949 117.216V126H50.7089V113.418ZM67.905 126.27C66.897 126.27 66.009 126.09 65.241 125.73C64.485 125.358 63.897 124.83 63.477 124.146C63.057 123.45 62.847 122.628 62.847 121.68C62.847 120.756 63.051 119.952 63.459 119.268C63.879 118.572 64.473 118.038 65.241 117.666C66.009 117.282 66.897 117.09 67.905 117.09C68.913 117.09 69.795 117.282 70.551 117.666C71.319 118.038 71.913 118.572 72.333 119.268C72.753 119.952 72.963 120.756 72.963 121.68C72.963 122.628 72.753 123.45 72.333 124.146C71.913 124.83 71.319 125.358 70.551 125.73C69.795 126.09 68.913 126.27 67.905 126.27ZM67.905 124.488C68.733 124.488 69.393 124.23 69.885 123.714C70.377 123.186 70.623 122.508 70.623 121.68C70.623 120.804 70.377 120.12 69.885 119.628C69.405 119.124 68.745 118.872 67.905 118.872C67.065 118.872 66.399 119.124 65.907 119.628C65.427 120.12 65.187 120.804 65.187 121.68C65.187 122.508 65.433 123.186 65.925 123.714C66.417 124.23 67.077 124.488 67.905 124.488ZM81.2421 113.418H83.5281V126H81.2421V113.418ZM85.6894 117.36H87.8134V118.494C88.1974 118.038 88.6474 117.69 89.1634 117.45C89.6794 117.21 90.2014 117.09 90.7294 117.09C91.4014 117.09 91.9414 117.204 92.3494 117.432C92.7574 117.648 93.0634 117.978 93.2674 118.422C93.6514 117.99 94.1134 117.66 94.6534 117.432C95.2054 117.204 95.7514 117.09 96.2914 117.09C97.3714 117.09 98.1454 117.36 98.6134 117.9C99.0814 118.44 99.3154 119.232 99.3154 120.276V126H97.1374V120.582C97.1374 119.97 97.0114 119.532 96.7594 119.268C96.5194 119.004 96.1294 118.872 95.5894 118.872C95.2054 118.872 94.8514 118.95 94.5274 119.106C94.2154 119.25 93.9274 119.502 93.6634 119.862C93.6874 120.246 93.6994 120.558 93.6994 120.798V126H91.5034V120.546C91.5034 119.922 91.4014 119.49 91.1974 119.25C90.9934 118.998 90.6214 118.872 90.0814 118.872C89.2654 118.872 88.5334 119.334 87.8854 120.258V126H85.6894V117.36ZM104.291 126.27C103.259 126.27 102.413 126 101.753 125.46C101.093 124.908 100.763 124.17 100.763 123.246C100.763 122.286 101.075 121.536 101.699 120.996C102.323 120.456 103.199 120.186 104.327 120.186C105.419 120.186 106.361 120.408 107.153 120.852V120.618C107.153 120.006 106.961 119.562 106.577 119.286C106.205 119.01 105.599 118.872 104.759 118.872C104.231 118.872 103.709 118.926 103.193 119.034C102.677 119.13 102.221 119.268 101.825 119.448V117.666C102.185 117.498 102.665 117.36 103.265 117.252C103.877 117.144 104.465 117.09 105.029 117.09C106.529 117.09 107.639 117.414 108.359 118.062C109.079 118.698 109.439 119.586 109.439 120.726V126H107.297V125.154C106.925 125.514 106.499 125.79 106.019 125.982C105.551 126.174 104.975 126.27 104.291 126.27ZM104.849 124.614C105.353 124.614 105.809 124.518 106.217 124.326C106.625 124.122 106.937 123.846 107.153 123.498V122.544C106.493 122.076 105.737 121.842 104.885 121.842C103.673 121.842 103.067 122.31 103.067 123.246C103.067 123.702 103.217 124.044 103.517 124.272C103.829 124.5 104.273 124.614 104.849 124.614ZM116.084 130.14C115.508 130.14 114.932 130.086 114.356 129.978C113.78 129.87 113.3 129.726 112.916 129.546V127.746C113.852 128.154 114.908 128.358 116.084 128.358C117.14 128.358 117.896 128.136 118.352 127.692C118.82 127.248 119.054 126.588 119.054 125.712V125.154C118.646 125.526 118.16 125.808 117.596 126C117.032 126.18 116.426 126.27 115.778 126.27C114.902 126.27 114.11 126.078 113.402 125.694C112.694 125.298 112.142 124.752 111.746 124.056C111.35 123.36 111.152 122.562 111.152 121.662C111.152 120.75 111.344 119.952 111.728 119.268C112.124 118.572 112.664 118.038 113.348 117.666C114.044 117.282 114.83 117.09 115.706 117.09C116.438 117.09 117.068 117.192 117.596 117.396C118.124 117.588 118.634 117.912 119.126 118.368V117.36H121.322V125.478C121.322 126.966 120.89 128.112 120.026 128.916C119.174 129.732 117.86 130.14 116.084 130.14ZM116.264 124.488C116.912 124.488 117.488 124.314 117.992 123.966C118.508 123.606 118.862 123.132 119.054 122.544V120.798C118.85 120.21 118.496 119.742 117.992 119.394C117.488 119.046 116.912 118.872 116.264 118.872C115.448 118.872 114.776 119.13 114.248 119.646C113.72 120.162 113.456 120.834 113.456 121.662C113.456 122.49 113.72 123.168 114.248 123.696C114.776 124.224 115.448 124.488 116.264 124.488ZM128.342 126.27C126.734 126.27 125.462 125.868 124.526 125.064C123.59 124.26 123.122 123.138 123.122 121.698C123.122 120.282 123.536 119.16 124.364 118.332C125.192 117.504 126.374 117.09 127.91 117.09C128.918 117.09 129.776 117.282 130.484 117.666C131.204 118.05 131.744 118.578 132.104 119.25C132.464 119.91 132.644 120.666 132.644 121.518V122.562H125.282C125.438 123.846 126.554 124.488 128.63 124.488C129.182 124.488 129.746 124.44 130.322 124.344C130.898 124.248 131.402 124.116 131.834 123.948V125.694C131.426 125.862 130.898 126 130.25 126.108C129.614 126.216 128.978 126.27 128.342 126.27ZM130.502 121.014C130.478 120.33 130.232 119.802 129.764 119.43C129.308 119.058 128.678 118.872 127.874 118.872C127.082 118.872 126.458 119.064 126.002 119.448C125.546 119.832 125.306 120.354 125.282 121.014H130.502Z" fill="#BCBFC8"/>
</svg>
