<svg width="183" height="120" viewBox="0 0 183 120" fill="none" xmlns="http://www.w3.org/2000/svg">
<path d="M0 0H183V120H0V0Z" fill="#E2E8F0"/>
<path d="M84.3594 59.0406C82.4172 59.0406 80.6896 57.7946 80.0623 55.9396L80.0199 55.7999C79.8719 55.3086 79.81 54.8955 79.81 54.4822V46.1942L76.8668 56.038C76.4883 57.4859 77.3509 58.987 78.7981 59.3869L97.5576 64.4208C97.7918 64.4816 98.0259 64.5107 98.2565 64.5107C99.4647 64.5107 100.569 63.7072 100.878 62.5231L101.971 59.0406H84.3594Z" fill="#BCBFC8"/>
<path d="M87.7109 46.6762C89.0217 46.6762 90.0875 45.5953 90.0875 44.2662C90.0875 42.937 89.0217 41.8561 87.7109 41.8561C86.4 41.8561 85.334 42.937 85.334 44.2662C85.334 45.5953 86.4 46.6762 87.7109 46.6762Z" fill="#BCBFC8"/>
<path d="M102.743 38H84.5615C82.8913 38 81.5312 39.3521 81.5312 41.0127V54.2678C81.5312 55.9284 82.8913 57.2805 84.5615 57.2805H102.743C104.414 57.2805 105.774 55.9284 105.774 54.2678V41.0127C105.774 39.3521 104.414 38 102.743 38ZM84.5615 40.4101H102.743C103.078 40.4101 103.35 40.68 103.35 41.0127V49.5672L99.5205 45.1253C99.1143 44.6518 98.5264 44.3987 97.895 44.3844C97.2671 44.3879 96.678 44.6651 96.2756 45.1448L91.7736 50.5166L90.307 49.0621C89.478 48.238 88.1288 48.238 87.301 49.0621L83.9556 52.3868V41.0127C83.9556 40.68 84.227 40.4101 84.5615 40.4101Z" fill="#BCBFC8"/>
<path d="M71.1045 71.709H72.1845L75.1275 76.092V71.709H76.2705V78H75.1905L72.2475 73.608V78H71.1045V71.709ZM79.7025 78.135C79.1985 78.135 78.7545 78.045 78.3705 77.865C77.9925 77.679 77.6985 77.415 77.4885 77.073C77.2785 76.725 77.1735 76.314 77.1735 75.84C77.1735 75.378 77.2755 74.976 77.4795 74.634C77.6895 74.286 77.9865 74.019 78.3705 73.833C78.7545 73.641 79.1985 73.545 79.7025 73.545C80.2065 73.545 80.6475 73.641 81.0255 73.833C81.4095 74.019 81.7065 74.286 81.9165 74.634C82.1265 74.976 82.2315 75.378 82.2315 75.84C82.2315 76.314 82.1265 76.725 81.9165 77.073C81.7065 77.415 81.4095 77.679 81.0255 77.865C80.6475 78.045 80.2065 78.135 79.7025 78.135ZM79.7025 77.244C80.1165 77.244 80.4465 77.115 80.6925 76.857C80.9385 76.593 81.0615 76.254 81.0615 75.84C81.0615 75.402 80.9385 75.06 80.6925 74.814C80.4525 74.562 80.1225 74.436 79.7025 74.436C79.2825 74.436 78.9495 74.562 78.7035 74.814C78.4635 75.06 78.3435 75.402 78.3435 75.84C78.3435 76.254 78.4665 76.593 78.7125 76.857C78.9585 77.115 79.2885 77.244 79.7025 77.244ZM86.3711 71.709H87.5141V78H86.3711V71.709ZM88.5947 73.68H89.6567V74.247C89.8487 74.019 90.0737 73.845 90.3317 73.725C90.5897 73.605 90.8507 73.545 91.1147 73.545C91.4507 73.545 91.7207 73.602 91.9247 73.716C92.1287 73.824 92.2817 73.989 92.3837 74.211C92.5757 73.995 92.8067 73.83 93.0767 73.716C93.3527 73.602 93.6257 73.545 93.8957 73.545C94.4357 73.545 94.8227 73.68 95.0567 73.95C95.2907 74.22 95.4077 74.616 95.4077 75.138V78H94.3187V75.291C94.3187 74.985 94.2557 74.766 94.1297 74.634C94.0097 74.502 93.8147 74.436 93.5447 74.436C93.3527 74.436 93.1757 74.475 93.0137 74.553C92.8577 74.625 92.7137 74.751 92.5817 74.931C92.5937 75.123 92.5997 75.279 92.5997 75.399V78H91.5017V75.273C91.5017 74.961 91.4507 74.745 91.3487 74.625C91.2467 74.499 91.0607 74.436 90.7907 74.436C90.3827 74.436 90.0167 74.667 89.6927 75.129V78H88.5947V73.68ZM97.8955 78.135C97.3795 78.135 96.9565 78 96.6265 77.73C96.2965 77.454 96.1315 77.085 96.1315 76.623C96.1315 76.143 96.2875 75.768 96.5995 75.498C96.9115 75.228 97.3495 75.093 97.9135 75.093C98.4595 75.093 98.9305 75.204 99.3265 75.426V75.309C99.3265 75.003 99.2305 74.781 99.0385 74.643C98.8525 74.505 98.5495 74.436 98.1295 74.436C97.8655 74.436 97.6045 74.463 97.3465 74.517C97.0885 74.565 96.8605 74.634 96.6625 74.724V73.833C96.8425 73.749 97.0825 73.68 97.3825 73.626C97.6885 73.572 97.9825 73.545 98.2645 73.545C99.0145 73.545 99.5695 73.707 99.9295 74.031C100.289 74.349 100.469 74.793 100.469 75.363V78H99.3985V77.577C99.2125 77.757 98.9995 77.895 98.7595 77.991C98.5255 78.087 98.2375 78.135 97.8955 78.135ZM98.1745 77.307C98.4265 77.307 98.6545 77.259 98.8585 77.163C99.0625 77.061 99.2185 76.923 99.3265 76.749V76.272C98.9965 76.038 98.6185 75.921 98.1925 75.921C97.5865 75.921 97.2835 76.155 97.2835 76.623C97.2835 76.851 97.3585 77.022 97.5085 77.136C97.6645 77.25 97.8865 77.307 98.1745 77.307ZM103.792 80.07C103.504 80.07 103.216 80.043 102.928 79.989C102.64 79.935 102.4 79.863 102.208 79.773V78.873C102.676 79.077 103.204 79.179 103.792 79.179C104.32 79.179 104.698 79.068 104.926 78.846C105.16 78.624 105.277 78.294 105.277 77.856V77.577C105.073 77.763 104.83 77.904 104.548 78C104.266 78.09 103.963 78.135 103.639 78.135C103.201 78.135 102.805 78.039 102.451 77.847C102.097 77.649 101.821 77.376 101.623 77.028C101.425 76.68 101.326 76.281 101.326 75.831C101.326 75.375 101.422 74.976 101.614 74.634C101.812 74.286 102.082 74.019 102.424 73.833C102.772 73.641 103.165 73.545 103.603 73.545C103.969 73.545 104.284 73.596 104.548 73.698C104.812 73.794 105.067 73.956 105.313 74.184V73.68H106.411V77.739C106.411 78.483 106.195 79.056 105.763 79.458C105.337 79.866 104.68 80.07 103.792 80.07ZM103.882 77.244C104.206 77.244 104.494 77.157 104.746 76.983C105.004 76.803 105.181 76.566 105.277 76.272V75.399C105.175 75.105 104.998 74.871 104.746 74.697C104.494 74.523 104.206 74.436 103.882 74.436C103.474 74.436 103.138 74.565 102.874 74.823C102.61 75.081 102.478 75.417 102.478 75.831C102.478 76.245 102.61 76.584 102.874 76.848C103.138 77.112 103.474 77.244 103.882 77.244ZM109.921 78.135C109.117 78.135 108.481 77.934 108.013 77.532C107.545 77.13 107.311 76.569 107.311 75.849C107.311 75.141 107.518 74.58 107.932 74.166C108.346 73.752 108.937 73.545 109.705 73.545C110.209 73.545 110.638 73.641 110.992 73.833C111.352 74.025 111.622 74.289 111.802 74.625C111.982 74.955 112.072 75.333 112.072 75.759V76.281H108.391C108.469 76.923 109.027 77.244 110.065 77.244C110.341 77.244 110.623 77.22 110.911 77.172C111.199 77.124 111.451 77.058 111.667 76.974V77.847C111.463 77.931 111.199 78 110.875 78.054C110.557 78.108 110.239 78.135 109.921 78.135ZM111.001 75.507C110.989 75.165 110.866 74.901 110.632 74.715C110.404 74.529 110.089 74.436 109.687 74.436C109.291 74.436 108.979 74.532 108.751 74.724C108.523 74.916 108.403 75.177 108.391 75.507H111.001Z" fill="#BCBFC8"/>
</svg>
