<?xml version="1.0" encoding="UTF-8"?>
<svg width="70px" height="70px" viewBox="0 0 70 70" version="1.1" xmlns="http://www.w3.org/2000/svg" xmlns:xlink="http://www.w3.org/1999/xlink">
    <!-- Generator: Sketch 61 (89581) - https://sketch.com -->
    <title>Group 15</title>
    <desc>Created with Sketch.</desc>
    <g id="More-commerce" stroke="none" stroke-width="1" fill="none" fill-rule="evenodd">
        <g id="Menu" transform="translate(-80.000000, -449.000000)" stroke="#74787C">
            <g id="Group-15" transform="translate(79.000000, 448.000000)">
                <path d="M28.4097351,68.0236023 C27.8332795,67.7992877 27.2835593,67.4818642 26.7831521,67.0703373 L27.0470449,69.8980575 C27.5452916,69.3022343 28.0002581,68.67596 28.4097351,68.0236023 Z M4.28711035,45.0459174 C3.68637481,45.4649148 3.11082632,45.9239949 2.5642328,46.4211764 L1.00040892,47.8436306 L2.6803831,49.4966287 L4.0831045,48.0710156 L5.46833175,46.628398 C4.97646592,46.1560996 4.58255384,45.62015 4.28711035,45.0459174 Z" id="Combined-Shape" stroke-width="4"></path>
                <path d="M32.75,11.6782842 L29.7399464,14.4375 L37.25,21.3217158 L40.2600536,18.5625 L32.75,11.6782842 Z" id="Rectangle" fill="#74787C" transform="translate(35.000000, 16.500000) rotate(1.000000) translate(-35.000000, -16.500000) "></path>
                <path d="M54.75,32.7071068 L51.7071068,35.75 L59.25,43.2928932 L62.2928932,40.25 L54.75,32.7071068 Z" id="Rectangle" fill="#74787C"></path>
                <path d="M43.75,21.7071068 L40.7071068,24.75 L48.25,32.2928932 L51.2928932,29.25 L43.75,21.7071068 Z" id="Rectangle" fill="#74787C"></path>
            </g>
        </g>
    </g>
</svg>