<?xml version="1.0" encoding="UTF-8"?>
<svg width="55px" height="64px" viewBox="0 0 55 64" version="1.1" xmlns="http://www.w3.org/2000/svg" xmlns:xlink="http://www.w3.org/1999/xlink">
    <!-- Generator: Sketch 61 (89581) - https://sketch.com -->
    <title>icon_bill</title>
    <desc>Created with Sketch.</desc>
    <g id="Plusmar-Inbox" stroke="none" stroke-width="1" fill="none" fill-rule="evenodd">
        <g id="Menu" transform="translate(-400.000000, -181.000000)" fill-rule="nonzero">
            <g id="icon_bill" transform="translate(400.000000, 181.000000)">
                <g id="icon_btn_viewCustomer_info" fill="#BCC4D6">
                    <path d="M33.1608879,0 C33.3468368,0 33.5327857,0.0620232392 33.6567516,0.124046478 C33.7187346,0.124046478 33.7187346,0.186069717 33.7807176,0.186069717 C33.8220396,0.227418544 33.8909095,0.26876737 33.9505968,0.310116196 L34.0286494,0.372139435 L44.6897199,12.3426246 C44.7517029,12.4046478 44.7517029,12.4666711 44.8136859,12.5286943 C44.8756689,12.5907175 44.8756689,12.6527408 44.9376518,12.6527408 C44.9376518,12.7354384 44.9651998,12.845702 44.9835651,12.9467769 L44.9996348,13.0869035 L44.9998646,29.6017659 C44.2654332,28.9545245 43.4780547,28.3658098 42.6450475,27.8429301 L42.644282,14.265345 L33.1608879,14.265345 C32.5216885,14.265345 32.0459208,13.7747315 31.9889467,13.2023491 L31.9832115,13.0869035 L31.9832115,2.29485985 L7.00407539,2.29485985 C4.53336541,2.29485985 2.47276651,4.22949676 2.3601952,6.7308455 L2.35535279,6.94660279 L2.35535279,49.9907308 C2.35535279,52.463046 4.28873356,54.5249837 6.7884582,54.6376281 L7.00407539,54.6424737 L19.003747,54.6429819 C19.7058046,55.4972405 20.484661,56.2861533 21.3297799,56.9991987 L7.00407539,56.9993568 C3.2411927,56.9993568 0.132009733,53.9665981 0.00409363786,50.23016 L0,49.9907308 L0,7.00862602 C0,3.24329855 3.03078958,0.132095501 6.76480158,0.00409629755 L7.00407539,0 L33.1608879,0 Z M34.3385643,4.21758026 L34.3385643,11.9704852 L41.2186737,11.9704852 L34.3385643,4.21758026 Z" id="Combined-Shape"></path>
                </g>
                <g id="icon_dark_menu_SalePage" transform="translate(18.000000, 28.000000)" stroke="#BCC4D6" stroke-width="2">
                    <g id="shopping-cart">
                        <path d="M13.2921074,26.6491228 C10.9323324,26.6491228 9.01954023,28.436026 9.01954023,30.6404942 C9.01954023,32.8446758 10.9323324,34.6315789 13.2921074,34.6315789 C15.6515757,34.6315789 17.5643678,32.8446758 17.5643678,30.6404942 C17.5619136,28.4371724 15.6506553,26.6514155 13.2921074,26.6491228 L13.2921074,26.6491228 Z" id="Shape"></path>
                        <path d="M35.1070772,7.38936474 L7.74105731,7.38936474 L7.18310469,4.31537976 C6.83919029,2.42307784 5.3321428,0.942845454 3.40882574,0.608243791 L1.38590665,0.257552684 C0.964187683,0.183660246 0.561844179,0.460458916 0.486764274,0.875210018 C0.411987091,1.29025913 0.692931252,1.68623915 1.11465022,1.76013159 L3.14513783,2.1108227 C4.42634008,2.33428777 5.42932282,3.32140729 5.65637902,4.58234599 L8.39982293,19.8146166 C8.72375643,21.6371974 10.3328277,22.9666653 12.2128528,22.964895 L28.4882387,22.964895 C30.1981229,22.9699428 31.7081978,21.8684092 32.2007583,20.2570773 L35.8433447,8.37320684 C35.910856,8.14139907 35.8681695,7.89171418 35.7270919,7.694469 C35.5796568,7.50348091 35.3504814,7.39085457 35.1070772,7.38936474 Z" id="Shape"></path>
                        <path d="M27.3300385,26.6491228 C24.9702634,26.6491228 23.0574713,28.436026 23.0574713,30.6404942 C23.0574713,32.8446758 24.9702634,34.6315789 27.3300385,34.6315789 C29.6895067,34.6315789 31.6022989,32.8446758 31.6022989,30.6404942 C31.5998446,28.4371724 29.6885864,26.6514155 27.3300385,26.6491228 L27.3300385,26.6491228 Z" id="Shape"></path>
                    </g>
                </g>
            </g>
        </g>
    </g>
</svg>
