<svg width="46" height="46" viewBox="0 0 46 46" fill="none" xmlns="http://www.w3.org/2000/svg">
<path fill-rule="evenodd" clip-rule="evenodd" d="M23.3041 34.2004C29.7444 34.2004 34.9652 28.9796 34.9652 22.5394C34.9652 16.0991 29.7444 10.8783 23.3041 10.8783C16.8639 10.8783 11.6431 16.0991 11.6431 22.5394C11.6431 28.9796 16.8639 34.2004 23.3041 34.2004ZM23.3041 36.1769C30.8359 36.1769 36.9417 30.0712 36.9417 22.5394C36.9417 15.0076 30.8359 8.90186 23.3041 8.90186C15.7723 8.90186 9.66663 15.0076 9.66663 22.5394C9.66663 30.0712 15.7723 36.1769 23.3041 36.1769Z" fill="url(#paint0_linear)"/>
<path d="M24.6707 8.35121C21.043 11.9789 21.043 17.8606 24.6707 21.4883L37.8078 8.35121C34.1801 4.72351 28.2984 4.72351 24.6707 8.35121Z" fill="#F8E73C"/>
<path d="M8.69441 24.7726C5.06671 28.4003 5.06671 34.282 8.69441 37.9097L21.8315 24.7726C18.2038 21.1449 12.3221 21.1449 8.69441 24.7726Z" fill="#F8E73C"/>
<path d="M37.8077 21.4883C41.4354 17.8606 41.4354 11.9789 37.8077 8.3512L24.6707 21.4883C28.2984 25.116 34.18 25.116 37.8077 21.4883Z" fill="#F5BF3E"/>
<path d="M21.8314 37.9097C25.4591 34.282 25.4591 28.4003 21.8314 24.7726L8.69434 37.9097C12.322 41.5374 18.2037 41.5374 21.8314 37.9097Z" fill="#F5BF3E"/>
<path d="M16.0103 33.545C16.0103 33.2604 15.9401 33.037 15.7995 32.8749C15.659 32.7128 15.4122 32.5596 15.0591 32.4155C14.7061 32.2714 14.38 32.1255 14.081 31.9778C13.7819 31.8301 13.5243 31.6589 13.3081 31.4644C13.092 31.2698 12.9262 31.0446 12.8109 30.7888C12.6956 30.533 12.638 30.2232 12.638 29.8593C12.638 29.2504 12.8434 28.7496 13.2541 28.3569C13.6648 27.9605 14.2125 27.7299 14.897 27.6651V26.5248H15.7563V27.6867C16.4156 27.784 16.9327 28.056 17.3074 28.5028C17.6857 28.9459 17.8748 29.5098 17.8748 30.1943H16.0481C16.0481 29.8196 15.9761 29.5314 15.832 29.3296C15.6879 29.1279 15.4825 29.027 15.2159 29.027C14.9781 29.027 14.7925 29.1027 14.6592 29.254C14.5295 29.4017 14.4647 29.6071 14.4647 29.8701C14.4647 30.1367 14.5403 30.3493 14.6916 30.5078C14.843 30.6627 15.0862 30.8122 15.4212 30.9564C15.7563 31.0969 16.0716 31.2446 16.367 31.3995C16.666 31.5508 16.9236 31.7238 17.1398 31.9183C17.356 32.1129 17.5253 32.3399 17.6478 32.5993C17.7703 32.8587 17.8316 33.1703 17.8316 33.5342C17.8316 34.1503 17.6352 34.6529 17.2425 35.042C16.8534 35.4312 16.322 35.6581 15.6482 35.723V36.8093H14.7889V35.7176C14.0035 35.6347 13.4 35.3663 12.9785 34.9123C12.5605 34.4548 12.3516 33.8531 12.3516 33.1073H14.1728C14.1728 33.518 14.2629 33.8315 14.443 34.0476C14.6268 34.2602 14.8862 34.3665 15.2213 34.3665C15.4663 34.3665 15.659 34.2944 15.7995 34.1503C15.9401 34.0026 16.0103 33.8008 16.0103 33.545Z" fill="white"/>
<path d="M32.2046 16.5427C32.2046 16.258 32.1343 16.0347 31.9938 15.8725C31.8533 15.7104 31.6065 15.5573 31.2534 15.4132C30.9003 15.269 30.5743 15.1231 30.2752 14.9754C29.9762 14.8277 29.7186 14.6565 29.5024 14.462C29.2862 14.2674 29.1205 14.0422 29.0052 13.7864C28.8899 13.5306 28.8322 13.2208 28.8322 12.8569C28.8322 12.248 29.0376 11.7472 29.4483 11.3545C29.8591 10.9582 30.4067 10.7276 31.0913 10.6627V9.5224H31.9506V10.6843C32.6099 10.7816 33.1269 11.0536 33.5016 11.5004C33.8799 11.9436 34.0691 12.5074 34.0691 13.192H32.2424C32.2424 12.8173 32.1703 12.529 32.0262 12.3273C31.8821 12.1255 31.6767 12.0246 31.4101 12.0246C31.1723 12.0246 30.9868 12.1003 30.8535 12.2516C30.7238 12.3993 30.6589 12.6047 30.6589 12.8677C30.6589 13.1343 30.7346 13.3469 30.8859 13.5054C31.0372 13.6603 31.2804 13.8099 31.6155 13.954C31.9506 14.0945 32.2658 14.2422 32.5613 14.3971C32.8603 14.5485 33.1179 14.7214 33.3341 14.9159C33.5503 15.1105 33.7196 15.3375 33.8421 15.5969C33.9646 15.8563 34.0258 16.168 34.0258 16.5319C34.0258 17.1479 33.8295 17.6506 33.4368 18.0397C33.0476 18.4288 32.5162 18.6558 31.8425 18.7206V19.8069H30.9832V18.7152C30.1978 18.6323 29.5943 18.3639 29.1727 17.91C28.7548 17.4524 28.5458 16.8507 28.5458 16.1049H30.3671C30.3671 16.5156 30.4572 16.8291 30.6373 17.0453C30.8211 17.2578 31.0805 17.3641 31.4155 17.3641C31.6605 17.3641 31.8533 17.2921 31.9938 17.1479C32.1343 17.0002 32.2046 16.7985 32.2046 16.5427Z" fill="white"/>
<defs>
<linearGradient id="paint0_linear" x1="9.56607" y1="22.5378" x2="37.2781" y2="22.5378" gradientUnits="userSpaceOnUse">
<stop stop-color="#5FE5FF"/>
<stop offset="1" stop-color="#52B3FF"/>
</linearGradient>
</defs>
</svg>
