<svg width="45" height="45" viewBox="0 0 45 45" fill="none" xmlns="http://www.w3.org/2000/svg">
<path d="M18.5664 14.1177C18.5664 11.3563 20.805 9.11768 23.5664 9.11768H28.8604V23.8724H23.5664C20.805 23.8724 18.5664 21.6339 18.5664 18.8724V14.1177Z" fill="#C4DE54"/>
<path d="M38.8113 14.1177C38.8113 11.3563 36.5727 9.11768 33.8113 9.11768H28.5173V23.8724H33.8113C36.5727 23.8724 38.8113 21.6339 38.8113 18.8724V14.1177Z" fill="#98BC31"/>
<rect x="20.6252" y="11.5195" width="8.23522" height="9.95089" fill="#98BC31"/>
<rect width="8.23522" height="9.95089" transform="matrix(-1 0 0 1 36.7526 11.5195)" fill="#679713"/>
<path d="M26.2868 16.495C26.2868 17.7268 27.2854 18.7254 28.5172 18.7254V20.7842C26.1484 20.7842 24.228 18.8638 24.228 16.495C24.228 14.1261 26.1484 12.2058 28.5172 12.2058V14.2646C27.2854 14.2646 26.2868 15.2632 26.2868 16.495Z" fill="#C3DD54"/>
<path d="M30.7476 16.495C30.7476 17.7268 29.749 18.7254 28.5172 18.7254V20.7842C30.8861 20.7842 32.8064 18.8638 32.8064 16.495C32.8064 14.1261 30.8861 12.2058 28.5172 12.2058V14.2646C29.749 14.2646 30.7476 15.2632 30.7476 16.495Z" fill="#98BC31"/>
<path d="M11.3606 23.0391C11.3606 20.2777 13.5992 18.0391 16.3606 18.0391H20.6252V34.8527H16.3606C13.5992 34.8527 11.3606 32.6141 11.3606 29.8527V23.0391Z" fill="#C4A27B"/>
<path d="M29.8898 23.0391C29.8898 20.2777 27.6512 18.0391 24.8898 18.0391H20.6251V34.8527H24.8898C27.6512 34.8527 29.8898 32.6141 29.8898 29.8527V23.0391Z" fill="#9B7C5D"/>
<path d="M17.1937 18.0391H20.6251V25.2449C18.73 25.2449 17.1937 23.7087 17.1937 21.8136V18.0391Z" fill="#9B7C5D"/>
<path d="M24.0565 18.0391H20.6252V25.2449C22.5203 25.2449 24.0565 23.7087 24.0565 21.8136V18.0391Z" fill="#7B6047"/>
<path d="M14.7793 40H5V33.8236C5.22876 33.652 5.96078 33.1373 7.05881 32.451C9.11761 31.0785 10.6617 30.9069 12.2058 30.9069H15.6372C16.495 30.9069 17.5244 31.5932 17.5244 32.7942C17.5244 33.9951 16.8381 34.853 15.9803 34.853H12.7205C11.6911 34.853 11.1764 35.1961 11.1764 36.0539C11.1764 36.7402 11.8627 37.0833 12.549 37.0833H15.1225C16.7695 37.0833 18.0963 35.5964 18.5538 34.853H23.3577C22.557 35.6536 20.6469 37.4951 19.4116 38.4559C17.8675 39.6568 16.495 40 14.7793 40Z" fill="#F7BBAC"/>
<path d="M35.3798 5H39.4974C40.1837 5 40.3552 5.34313 40.3552 5.68627V12.2058C40.3552 12.8921 39.8405 13.0637 39.4974 13.0637H36.7523C36.4664 13.4068 35.7229 14.3676 35.0367 15.4656C32.9096 17.8585 29.2821 15.6907 31.2622 12.7205C32.3602 11.0735 33.5497 9.63231 34.0073 9.11761H25.9436C30.2328 5.17157 34.522 5 35.3798 5Z" fill="#F5A58E"/>
</svg>
