<?xml version="1.0" encoding="UTF-8"?>
<svg width="80px" height="80px" viewBox="0 0 80 80" version="1.1" xmlns="http://www.w3.org/2000/svg" xmlns:xlink="http://www.w3.org/1999/xlink">
    <!-- Generator: Sketch 61 (89581) - https://sketch.com -->
    <title>icon_COD</title>
    <desc>Created with Sketch.</desc>
    <g id="icon_COD" stroke="none" stroke-width="1" fill="none" fill-rule="evenodd">
        <g id="delivery" transform="translate(13.000000, 24.000000)" fill="#9AA6B2" fill-rule="nonzero">
            <path d="M47.5644531,0 L13.015625,0 C12.2228203,0 11.5800781,0.641750982 11.5800781,1.43333304 L11.5800781,20.1605937 C9.6590293,20.4893048 7.88756445,21.4676023 6.58963867,22.9333287 L5.83789062,22.9333287 L5.83789062,21.5 C5.83789062,20.7084136 5.19514844,20.0666626 4.40234375,20.0666626 L1.43554688,20.0666626 C0.642742187,20.0666626 0,20.7084136 0,21.5 C0,22.2915777 0.642742188,22.9333287 1.43554688,22.9333287 L2.96679688,22.9333287 L2.96679688,40.1333253 L1.43554688,40.1333253 C0.642742187,40.1333253 0,40.7750762 0,41.5666583 C0,42.3582404 0.642742188,43 1.43554688,43 L4.40234375,43 C5.19514844,43 5.83789062,42.3582404 5.83789062,41.5666583 L5.83789062,40.1333253 L7.0499707,40.1333253 C16.2052187,43.0264602 15.859252,43 16.2695312,43 L35.984375,43 C38.9542344,43 41.0346289,40.0551608 40.0441016,37.2666592 L47.5644531,37.2666592 C48.3572578,37.2666592 49,36.6249082 49,35.8333261 L49,1.43333304 C49,0.641750982 48.3572578,0 47.5644531,0 Z M37.6161616,38.5950332 C37.6161616,39.3887435 36.9702435,40.0344787 36.1763085,40.0344787 L16.6264634,40.0344787 C7.44384842,37.1290059 7.79085301,37.1555876 7.37924702,37.1555876 L5.93939394,37.1555876 L5.93939394,25.6400233 L7.37924702,25.6400233 C7.83654435,25.6400233 8.26667646,25.4228589 8.53804077,25.0549366 C10.8184801,21.9637753 15.4570148,21.9612803 17.7391819,25.0549366 C18.0106422,25.4228589 18.4407743,25.6400233 18.8980716,25.6400233 L26.097337,25.6400233 C26.891272,25.6400233 27.5371901,26.2857585 27.5371901,27.0794688 C27.5371901,27.8731791 26.891272,28.5189144 26.097337,28.5189144 L17.4582185,28.5189144 C16.6630357,28.5189144 16.0183655,29.1634021 16.0183655,29.9583599 C16.0183655,33.9269113 19.2479559,37.1555876 23.2176309,37.1555876 L36.1763085,37.1555876 C36.9702435,37.1555876 37.6161616,37.8013229 37.6161616,38.5950332 Z M46.030303,34.5976977 C45.1600054,34.5976977 24.1489298,34.5976977 22.9665538,34.5976977 C21.0950406,34.5976977 19.498474,33.3957707 18.9059941,31.7220449 L25.8375599,31.7220449 C28.2121691,31.7220449 30.1440691,29.7870181 30.1440691,27.4085657 C30.1440691,25.0301133 28.2121691,23.0950865 25.8375599,23.0950865 L19.3438225,23.0950865 C18.046032,21.6247652 16.2745256,20.6434008 14.3535354,20.3136593 L14.3535354,2.96551694 L24.4020568,2.96551694 L24.4020568,11.5924753 C24.4020568,12.3865389 25.0447794,13.0303017 25.8375599,13.0303017 L34.4505783,13.0303017 C35.2433588,13.0303017 35.8860814,12.3865389 35.8860814,11.5924753 L35.8860814,2.96551694 L46.030303,2.96551694 L46.030303,34.5976977 Z" id="Shape"></path>
        </g>
        <circle id="Oval" stroke="#FFFFFF" stroke-width="2" fill="#53B1FF" cx="56.5" cy="24.5" r="13.5"></circle>
        <g id="$-2" transform="translate(51.000000, 10.000000)" fill="#FFFFFF" font-family="Prompt-SemiBold, Prompt" font-size="20" font-weight="500">
            <text id="$">
                <tspan x="0" y="22">$</tspan>
            </text>
        </g>
    </g>
</svg>