<svg width="45" height="45" viewBox="0 0 45 45" fill="none" xmlns="http://www.w3.org/2000/svg">
<path d="M21.9594 24.8519C20.8234 24.8519 19.9563 24.1312 19.9563 22.8488C19.9563 21.5664 20.8663 20.8274 22.0176 20.8274C23.1688 20.8274 24.0113 21.5607 24.0113 22.8305C24.0113 24.1004 23.083 24.8519 21.9591 24.8519H21.9594ZM21.9777 21.7769C21.4587 21.7769 21.1961 22.1926 21.1961 22.8397C21.1961 23.4868 21.4647 23.8872 21.9841 23.8872C22.5035 23.8872 22.7657 23.4841 22.7657 22.8305C22.7657 22.177 22.4971 21.7739 21.9777 21.7739V21.7769ZM29.2023 22.5095C29.2023 22.0577 29.007 21.8989 28.6893 21.8989C28.4629 21.905 28.2433 21.9902 28.0787 22.1432V24.7327H26.8267V22.5092C26.8267 22.0574 26.6253 21.8986 26.3077 21.8986C26.0836 21.8981 25.8669 21.9784 25.6971 22.1247V24.7323H24.4451L24.4512 20.9092H25.7032V21.3978C26.0391 21.0497 26.4118 20.8359 26.9062 20.8419C27.3792 20.8419 27.7857 21.0683 27.9689 21.5198C28.3169 21.1042 28.7569 20.848 29.2759 20.848C30.015 20.848 30.4546 21.3427 30.4485 22.1551L30.4424 24.7445H29.1908L29.2023 22.5095ZM31.713 20.4304C31.2548 20.4304 30.9739 20.1921 30.9739 19.7647C30.9739 19.3186 31.2612 19.0929 31.713 19.0929C32.1648 19.0929 32.452 19.3193 32.452 19.7707C32.452 20.1982 32.1773 20.4304 31.713 20.4304ZM31.0899 20.919H32.3418L32.3357 24.7421H31.0838L31.0899 20.919ZM34.3507 24.8699C33.8317 24.8699 33.1477 24.7539 32.7507 24.534L32.995 23.6301C33.421 23.8555 33.8936 23.9788 34.3754 23.9903C34.7173 23.9903 34.8883 23.8865 34.8883 23.6848C34.8883 23.4651 34.6744 23.3915 34.247 23.2938C33.3674 23.1168 32.8119 22.7991 32.8119 22.0604C32.8119 21.3518 33.4285 20.8507 34.4791 20.8507C34.9799 20.8507 35.6395 20.9974 36.0119 21.1805L35.7618 22.0726C35.3344 21.853 34.8214 21.7306 34.4609 21.7306C34.1554 21.7306 33.9966 21.832 33.9966 22.0111C33.9966 22.2125 34.2287 22.2983 34.644 22.3835C35.5294 22.5788 36.0633 22.8721 36.0609 23.6294C36.067 24.3072 35.4685 24.8695 34.351 24.8695L34.3507 24.8699ZM38.5226 23.9575C38.9382 23.9575 39.3775 23.8108 39.756 23.5912L39.8776 24.5563C39.4992 24.7516 38.9653 24.8617 38.4057 24.8617C37.1294 24.8617 36.2988 24.1531 36.2988 22.8829C36.2988 21.6495 37.1476 20.8429 38.3448 20.8487C39.4137 20.8487 39.9999 21.49 39.9999 22.4369C39.9999 22.6383 39.9756 22.9377 39.9205 23.1026L37.5264 23.1391V23.1573C37.5629 23.6763 37.9049 23.9575 38.5219 23.9575H38.5226ZM38.8402 22.443C38.8402 21.9912 38.6571 21.7222 38.2658 21.7165C37.8383 21.7165 37.5758 22.0888 37.5325 22.5166L38.8395 22.5105L38.8402 22.443Z" fill="#2E374D"/>
<path d="M15.8406 17.8582C13.363 15.3806 9.33576 15.3806 6.85818 17.8582C4.38061 20.3358 4.38061 24.363 6.85818 26.8406C9.33576 29.3182 13.363 29.3182 15.8406 26.8406C18.3182 24.363 18.3182 20.3358 15.8406 17.8582ZM14.8498 22.4886L11.4893 25.8491C11.4082 25.9302 11.2821 25.9302 11.201 25.8491L7.8405 22.4886C7.7594 22.4075 7.7594 22.2815 7.8405 22.2004L11.201 18.8398C11.2821 18.7587 11.4082 18.7587 11.4893 18.8398L14.8498 22.2004C14.9309 22.2815 14.9309 22.4075 14.8498 22.4886Z" fill="#2176FF"/>
<path d="M17.7018 22.3355C17.7018 20.6507 17.0351 19.029 15.846 17.8396C14.837 16.8306 13.2062 16.8214 12.1972 17.8305L11.2061 18.8124C11.2427 18.778 11.291 18.7587 11.3412 18.7584C11.3957 18.7602 11.4473 18.7828 11.4855 18.8216L15.8277 23.1732C16.0675 23.4127 16.2578 23.697 16.3875 24.0101C16.5173 24.3231 16.5842 24.6587 16.5842 24.9976C16.5842 25.3365 16.5173 25.672 16.3875 25.9851C16.2578 26.2981 16.0675 26.5825 15.8277 26.822C17.026 25.6325 17.7018 24.02 17.7018 22.3355ZM6.84903 26.8095C7.85804 27.8185 9.48881 27.8185 10.5069 26.8186L11.4889 25.8184C11.4169 25.8995 11.2818 25.8995 11.2007 25.8275L7.84925 22.4761C7.80431 22.4399 7.78607 22.3771 7.78607 22.323C7.78607 22.2689 7.80397 22.2149 7.84013 22.1787L6.86694 23.1519C5.85793 24.1609 5.84881 25.7917 6.84903 26.8098V26.8095Z" fill="#1A53F0"/>
</svg>
