<svg width="45" height="45" viewBox="0 0 45 45" fill="none" xmlns="http://www.w3.org/2000/svg">
<path d="M28.9309 33.1532C28.782 34.1405 28.0357 34.1405 27.3139 34.1405H26.9031L27.1912 32.2971C27.2086 32.1857 27.3037 32.1037 27.4154 32.1037H27.6036C28.095 32.1037 28.5592 32.1037 28.7984 32.3864C28.9416 32.5557 28.985 32.8066 28.9309 33.1532ZM28.6167 30.5773H25.8943C25.7081 30.5773 25.5497 30.7141 25.5207 30.8999L24.4198 37.9527C24.3981 38.0918 24.5046 38.2177 24.6439 38.2177H26.0407C26.171 38.2177 26.282 38.1219 26.3023 37.9919L26.6145 35.9924C26.6435 35.8066 26.8019 35.6698 26.9881 35.6698H27.8496C29.6427 35.6698 30.6776 34.793 30.9481 33.0552C31.0699 32.2952 30.953 31.698 30.6008 31.2799C30.2136 30.8203 29.5274 30.5773 28.6167 30.5773Z" fill="#459ADB"/>
<path d="M9.5139 33.1532C9.3651 34.1405 8.61876 34.1405 7.89691 34.1405H7.4862L7.7743 32.2971C7.79169 32.1857 7.88679 32.1037 7.99843 32.1037H8.18669C8.67809 32.1037 9.14225 32.1037 9.3815 32.3864C9.52466 32.5557 9.56799 32.8066 9.5139 33.1532ZM9.19976 30.5773H6.47729C6.29115 30.5773 6.13267 30.7141 6.10367 30.8999L5.00283 37.9527C4.98109 38.0918 5.08755 38.2177 5.227 38.2177H6.52683C6.71297 38.2177 6.87145 38.0809 6.90045 37.895L7.19755 35.9924C7.2265 35.8066 7.38497 35.6698 7.57112 35.6698H8.43262C10.2258 35.6698 11.2607 34.793 11.5312 33.0552C11.6529 32.2952 11.5361 31.698 11.1839 31.2799C10.7967 30.8203 10.1105 30.5773 9.19976 30.5773Z" fill="#253B7D"/>
<path d="M15.52 35.6852C15.394 36.4377 14.8028 36.9429 14.0486 36.9429C13.6705 36.9429 13.3678 36.82 13.1732 36.5873C12.9804 36.3567 12.9078 36.0282 12.969 35.6623C13.0863 34.9165 13.6871 34.395 14.4298 34.395C14.8 34.395 15.1006 34.519 15.2989 34.7538C15.4987 34.9903 15.5771 35.3211 15.52 35.6852ZM17.3367 33.1216H16.0331C15.9214 33.1216 15.8263 33.2037 15.809 33.3152L15.7516 33.6835L15.6605 33.55C15.3781 33.1359 14.749 32.9977 14.1207 32.9977C12.6806 32.9977 11.4502 34.1004 11.2108 35.6468C11.0862 36.4184 11.2631 37.1557 11.6961 37.6703C12.0939 38.1431 12.6616 38.34 13.3379 38.34C14.4988 38.34 15.1426 37.5865 15.1426 37.5865L15.0844 37.9526C15.0626 38.0917 15.1691 38.2177 15.3086 38.2177H16.4825C16.6686 38.2177 16.8271 38.081 16.8561 37.8952L17.5609 33.3865C17.5826 33.2474 17.4761 33.1216 17.3367 33.1216Z" fill="#253B7D"/>
<path d="M34.9369 35.6852C34.8111 36.4377 34.2198 36.9429 33.4656 36.9429C33.0875 36.9429 32.7849 36.82 32.5902 36.5873C32.3974 36.3567 32.3248 36.0282 32.386 35.6623C32.5034 34.9165 33.1042 34.395 33.8469 34.395C34.2171 34.395 34.5176 34.519 34.716 34.7538C34.9157 34.9903 34.9941 35.3211 34.9369 35.6852ZM36.7537 33.1216H35.4501C35.3385 33.1216 35.2434 33.2037 35.226 33.3152L35.1686 33.6835L35.0776 33.55C34.7952 33.1359 34.166 32.9977 33.5377 32.9977C32.0975 32.9977 30.8673 34.1004 30.6278 35.6468C30.5032 36.4184 30.6801 37.1557 31.1131 37.6703C31.5109 38.1431 32.0786 38.34 32.7549 38.34C33.9157 38.34 34.5597 37.5865 34.5597 37.5865L34.5014 37.9526C34.4796 38.0917 34.5861 38.2177 34.7256 38.2177H35.8996C36.0856 38.2177 36.2441 38.081 36.2732 37.8952L36.9778 33.3865C36.9996 33.2474 36.8931 33.1216 36.7537 33.1216Z" fill="#459ADB"/>
<path d="M24.2797 33.1216H22.9694C22.8441 33.1216 22.7269 33.1845 22.6565 33.2892L20.8491 35.9786L20.0831 33.3942C20.0352 33.2326 19.8878 33.1216 19.7208 33.1216H18.4327C18.2772 33.1216 18.1678 33.2762 18.2178 33.425L19.6607 37.7035L18.3036 39.6381C18.1971 39.7899 18.3046 40 18.4887 40H19.7978C19.9218 40 20.0381 39.9386 20.1086 39.8355L24.4663 33.4816C24.5705 33.3295 24.4628 33.1216 24.2797 33.1216Z" fill="#253B7D"/>
<path d="M38.2902 30.771L37.1728 37.9528C37.1512 38.0919 37.2577 38.2177 37.3971 38.2177H38.5207C38.7069 38.2177 38.8653 38.0809 38.8943 37.895L39.9961 30.8424C40.0178 30.7032 39.9113 30.5773 39.7718 30.5773H38.5144C38.4026 30.5773 38.3075 30.6594 38.2902 30.771Z" fill="#459ADB"/>
<path d="M30.9877 10.798C31.2632 9.02277 30.9858 7.81481 30.0354 6.7207C28.989 5.51606 27.0987 4.99999 24.6802 4.99999H17.6598C17.1655 4.99999 16.7447 5.36338 16.6676 5.85671L13.7443 24.5856C13.6866 24.9551 13.9693 25.2892 14.3396 25.2892H18.6736L18.3745 27.2058C18.324 27.529 18.5713 27.8214 18.8953 27.8214H22.5484C22.9808 27.8214 23.3489 27.5035 23.4163 27.072L23.4521 26.8844L24.1403 22.4754L24.1847 22.2317C24.252 21.8002 24.6201 21.4824 25.0525 21.4824H25.5991C29.1381 21.4824 31.9092 20.0296 32.719 15.8284C33.0573 14.073 32.8824 12.6075 31.9876 11.5774C31.717 11.2658 31.3804 11.0082 30.9877 10.798Z" fill="#459ADB"/>
<path d="M30.9877 10.798C31.2632 9.02276 30.9858 7.8148 30.0354 6.72069C28.989 5.51605 27.0987 4.99998 24.6802 4.99998H17.6598C17.1655 4.99998 16.7447 5.36336 16.6676 5.85669L13.7443 24.5855C13.6866 24.9551 13.9693 25.2892 14.3396 25.2892H18.6736L19.7623 18.3144L19.7286 18.533C19.8056 18.0398 20.2229 17.6764 20.7171 17.6764H22.777C26.8225 17.6764 29.9902 16.0159 30.9158 11.2134C30.9433 11.0712 30.9667 10.9335 30.9877 10.798Z" fill="#232D62"/>
<path d="M20.9319 10.8215C20.9782 10.5249 21.1666 10.282 21.4204 10.159C21.5358 10.1032 21.6646 10.0722 21.7998 10.0722H27.3028C27.9548 10.0722 28.5626 10.1152 29.1184 10.2057C29.2772 10.2316 29.4318 10.2613 29.5819 10.2949C29.732 10.3286 29.8777 10.3662 30.0188 10.4079C30.0894 10.4286 30.1587 10.4505 30.227 10.4734C30.4998 10.565 30.7538 10.6729 30.9877 10.798C31.2632 9.02276 30.9858 7.8148 30.0354 6.72069C28.989 5.51605 27.0987 4.99998 24.6802 4.99998H17.6598C17.1655 4.99998 16.7447 5.36336 16.6676 5.85669L13.7443 24.5855C13.6866 24.9551 13.9693 25.2892 14.3396 25.2892H18.6736L19.7623 18.3144L20.9319 10.8215Z" fill="#253B7D"/>
</svg>
