<svg width="32" height="32" viewBox="0 0 32 32" fill="none" xmlns="http://www.w3.org/2000/svg">
<rect width="32" height="32" rx="8" fill="white"/>
<path fill-rule="evenodd" clip-rule="evenodd" d="M10.8779 11.8574H22.9203C23.4502 11.8574 23.8798 12.3009 23.8798 12.8479C23.8798 12.9393 23.8675 13.0303 23.8433 13.1183L22.6886 17.3197C22.5813 17.7102 22.2541 17.9936 21.8629 18.0347L12.3171 19.0384L10.8779 11.8574Z" fill="#2EC639"/>
<path fill-rule="evenodd" clip-rule="evenodd" d="M10.7314 11.7334H22.9211C23.5172 11.7334 24.0005 12.2323 24.0005 12.8477C24.0005 12.9505 23.9867 13.0529 23.9595 13.1518L22.8048 17.3533C22.6841 17.7926 22.3159 18.1114 21.8758 18.1577L12.2223 19.1727L10.7314 11.7334ZM11.026 11.981L12.4134 18.9037L21.8515 17.9113C22.1938 17.8753 22.4802 17.6274 22.5741 17.2857L23.7288 13.0842C23.7499 13.0073 23.7606 12.9277 23.7606 12.8477C23.7606 12.369 23.3848 11.981 22.9211 11.981H11.026Z" fill="#2EC639"/>
<path fill-rule="evenodd" clip-rule="evenodd" d="M8 10.3714C8 10.1663 8.16108 10 8.35978 10H11.1875L12.6266 19.781H21.4318C21.6305 19.781 21.7916 19.9472 21.7916 20.1524C21.7916 20.3575 21.6305 20.5238 21.4318 20.5238H12.0081L10.569 10.7429H8.35978C8.16108 10.7429 8 10.5766 8 10.3714Z" fill="#2EC639"/>
<path d="M13.996 22.8762C14.7245 22.8762 15.3152 22.2664 15.3152 21.5142C15.3152 20.7621 14.7245 20.1523 13.996 20.1523C13.2674 20.1523 12.6768 20.7621 12.6768 21.5142C12.6768 22.2664 13.2674 22.8762 13.996 22.8762Z" fill="#2EC639"/>
<path fill-rule="evenodd" clip-rule="evenodd" d="M13.9967 20.2759C13.3344 20.2759 12.7975 20.8303 12.7975 21.514C12.7975 22.1978 13.3344 22.7521 13.9967 22.7521C14.6591 22.7521 15.196 22.1978 15.196 21.514C15.196 20.8303 14.6591 20.2759 13.9967 20.2759ZM12.5576 21.514C12.5576 20.6935 13.2019 20.0283 13.9967 20.0283C14.7915 20.0283 15.4359 20.6935 15.4359 21.514C15.4359 22.3346 14.7915 22.9997 13.9967 22.9997C13.2019 22.9997 12.5576 22.3346 12.5576 21.514Z" fill="#2EC639"/>
<path d="M19.7528 22.8762C20.4814 22.8762 21.072 22.2664 21.072 21.5142C21.072 20.7621 20.4814 20.1523 19.7528 20.1523C19.0242 20.1523 18.4336 20.7621 18.4336 21.5142C18.4336 22.2664 19.0242 22.8762 19.7528 22.8762Z" fill="#2EC639"/>
<path fill-rule="evenodd" clip-rule="evenodd" d="M19.7526 20.2759C19.0903 20.2759 18.5533 20.8303 18.5533 21.514C18.5533 22.1978 19.0903 22.7521 19.7526 22.7521C20.4149 22.7521 20.9519 22.1978 20.9519 21.514C20.9519 20.8303 20.4149 20.2759 19.7526 20.2759ZM18.3135 21.514C18.3135 20.6935 18.9578 20.0283 19.7526 20.0283C20.5474 20.0283 21.1917 20.6935 21.1917 21.514C21.1917 22.3346 20.5474 22.9997 19.7526 22.9997C18.9578 22.9997 18.3135 22.3346 18.3135 21.514Z" fill="#2EC639"/>
</svg>
