<svg width="16" height="13" viewBox="0 0 16 13" fill="none" xmlns="http://www.w3.org/2000/svg">
<path fill-rule="evenodd" clip-rule="evenodd" d="M2.87793 1.85742H14.9203C15.4502 1.85742 15.8798 2.30087 15.8798 2.8479C15.8798 2.93932 15.8675 3.0303 15.8433 3.11825L14.6886 7.3197C14.5813 7.71021 14.2541 7.99359 13.8629 8.03472L4.31706 9.03838L2.87793 1.85742Z" fill="#2EC639"/>
<path fill-rule="evenodd" clip-rule="evenodd" d="M2.73145 1.7334H14.9211C15.5172 1.7334 16.0005 2.23228 16.0005 2.84768C16.0005 2.95053 15.9867 3.05289 15.9595 3.15183L14.8048 7.35328C14.6841 7.79261 14.3159 8.11141 13.8758 8.15768L4.22234 9.17265L2.73145 1.7334ZM3.026 1.98102L4.41336 8.90367L13.8515 7.91134C14.1938 7.87535 14.4802 7.62739 14.5741 7.28569L15.7288 3.08424C15.7499 3.00729 15.7606 2.92768 15.7606 2.84768C15.7606 2.36904 15.3848 1.98102 14.9211 1.98102H3.026Z" fill="#2EC639"/>
<path fill-rule="evenodd" clip-rule="evenodd" d="M0 0.371429C0 0.166294 0.16108 0 0.359782 0H3.18751L4.62664 9.78095H13.4318C13.6305 9.78095 13.7916 9.94725 13.7916 10.1524C13.7916 10.3575 13.6305 10.5238 13.4318 10.5238H4.00812L2.56899 0.742857H0.359782C0.16108 0.742857 0 0.576563 0 0.371429Z" fill="#2EC639"/>
<path d="M5.99596 12.8762C6.72453 12.8762 7.31516 12.2664 7.31516 11.5142C7.31516 10.7621 6.72453 10.1523 5.99596 10.1523C5.26738 10.1523 4.67676 10.7621 4.67676 11.5142C4.67676 12.2664 5.26738 12.8762 5.99596 12.8762Z" fill="#2EC639"/>
<path fill-rule="evenodd" clip-rule="evenodd" d="M5.99674 10.2759C5.3344 10.2759 4.79747 10.8303 4.79747 11.514C4.79747 12.1978 5.3344 12.7521 5.99674 12.7521C6.65908 12.7521 7.19601 12.1978 7.19601 11.514C7.19601 10.8303 6.65908 10.2759 5.99674 10.2759ZM4.55762 11.514C4.55762 10.6935 5.20194 10.0283 5.99674 10.0283C6.79155 10.0283 7.43587 10.6935 7.43587 11.514C7.43587 12.3346 6.79155 12.9997 5.99674 12.9997C5.20194 12.9997 4.55762 12.3346 4.55762 11.514Z" fill="#2EC639"/>
<path d="M11.7528 12.8762C12.4814 12.8762 13.072 12.2664 13.072 11.5142C13.072 10.7621 12.4814 10.1523 11.7528 10.1523C11.0242 10.1523 10.4336 10.7621 10.4336 11.5142C10.4336 12.2664 11.0242 12.8762 11.7528 12.8762Z" fill="#2EC639"/>
<path fill-rule="evenodd" clip-rule="evenodd" d="M11.7526 10.2759C11.0903 10.2759 10.5533 10.8303 10.5533 11.514C10.5533 12.1978 11.0903 12.7521 11.7526 12.7521C12.4149 12.7521 12.9519 12.1978 12.9519 11.514C12.9519 10.8303 12.4149 10.2759 11.7526 10.2759ZM10.3135 11.514C10.3135 10.6935 10.9578 10.0283 11.7526 10.0283C12.5474 10.0283 13.1917 10.6935 13.1917 11.514C13.1917 12.3346 12.5474 12.9997 11.7526 12.9997C10.9578 12.9997 10.3135 12.3346 10.3135 11.514Z" fill="#2EC639"/>
</svg>
