<svg width="22" height="22" viewBox="0 0 22 22" fill="none" xmlns="http://www.w3.org/2000/svg">
<path d="M21.9136 19.9227L20.4033 15.5273C21.1297 14.0589 21.5139 12.4221 21.5165 10.7753C21.5209 7.93926 20.4236 5.25767 18.4266 3.22452C16.4294 1.19102 13.7679 0.0464222 10.9326 0.00143399C9.44715 -0.0224137 8.00572 0.251297 6.64619 0.814058C5.33491 1.35684 4.15898 2.14312 3.1511 3.15104C2.14318 4.15892 1.3569 5.33484 0.814113 6.64612C0.251265 8.00565 -0.0221461 9.44781 0.00140081 10.9325C0.0463032 13.7678 1.19095 16.4293 3.22441 18.4265C5.25357 20.4196 7.92829 21.5165 10.7582 21.5165C10.7637 21.5165 10.7696 21.5165 10.7751 21.5165C12.4221 21.5139 14.0588 21.1298 15.5272 20.4033L19.9226 21.9136C20.0917 21.9717 20.2649 22 20.4363 22C20.8434 22 21.2394 21.84 21.5397 21.5397C21.9665 21.113 22.1097 20.4934 21.9136 19.9227ZM10.6523 16.8911C10.2867 16.8911 10.016 16.5923 10.0002 16.239C9.98439 15.8868 10.3112 15.5868 10.6523 15.5868C11.018 15.5868 11.2887 15.8856 11.3045 16.239C11.3203 16.5911 10.9935 16.8911 10.6523 16.8911ZM11.3045 11.9097V13.9833C11.3045 14.3435 11.0125 14.6355 10.6523 14.6355C10.2922 14.6355 10.0002 14.3435 10.0002 13.9833V11.3233C10.0002 10.9632 10.2922 10.6712 10.6523 10.6712C11.7223 10.6712 12.5928 9.80066 12.5928 8.73074C12.5928 7.66082 11.7223 6.79032 10.6523 6.79032C9.58242 6.79032 8.71191 7.66082 8.71191 8.73074C8.71191 9.09091 8.4199 9.38292 8.05973 9.38292C7.69957 9.38292 7.40755 9.09091 7.40755 8.73074C7.40755 6.94161 8.86316 5.48596 10.6523 5.48596C12.4415 5.48596 13.8971 6.94157 13.8971 8.73074C13.8971 10.2966 12.7822 11.607 11.3045 11.9097Z" fill="#2FC639"/>
</svg>
