<svg width="22" height="22" viewBox="0 0 22 22" fill="none" xmlns="http://www.w3.org/2000/svg">
<path d="M21.9136 19.9229L20.4033 15.5274C21.1297 14.059 21.5139 12.4223 21.5165 10.7754C21.5209 7.93931 20.4236 5.25766 18.4266 3.22454C16.4294 1.19103 13.7679 0.0464226 10.9326 0.001434C9.44714 -0.0224138 8.0057 0.251299 6.64617 0.814064C5.33488 1.35689 4.15895 2.14318 3.15107 3.15106C2.14314 4.15894 1.35685 5.33488 0.814069 6.64616C0.251304 8.0057 -0.0221081 9.44787 0.00139592 10.9326C0.0462985 13.7679 1.19095 16.4294 3.22446 18.4267C5.25363 20.4197 7.92836 21.5167 10.7583 21.5166C10.7638 21.5166 10.7697 21.5166 10.7752 21.5166C12.4221 21.514 14.0589 21.1299 15.5273 20.4034L19.9228 21.9137C20.0918 21.9718 20.2651 22.0001 20.4364 22.0001C20.8435 22.0001 21.2395 21.8402 21.5398 21.5399C21.9664 21.1132 22.1097 20.4936 21.9136 19.9229ZM20.6175 20.6176C20.5742 20.6608 20.4815 20.7265 20.3466 20.6802L15.689 19.0798C15.6201 19.0561 15.5485 19.0444 15.4771 19.0444C15.3718 19.0444 15.267 19.0698 15.1721 19.1201C13.826 19.8322 12.3049 20.2099 10.7732 20.2122C5.63622 20.2205 1.38693 16.0481 1.30555 10.912C1.2646 8.32784 2.24756 5.89919 4.07335 4.07339C5.89915 2.24764 8.32707 1.26485 10.9119 1.30572C16.048 1.38714 20.2201 5.63433 20.2121 10.7733C20.2097 12.3051 19.832 13.8262 19.1199 15.1722C19.0356 15.3315 19.0211 15.5187 19.0796 15.6891L20.6801 20.3467C20.7264 20.4816 20.6608 20.5744 20.6175 20.6176Z" fill="#484B52"/>
<path d="M10.6523 5.48596C8.86309 5.48596 7.40747 6.94158 7.40747 8.73077C7.40747 9.09093 7.69949 9.38295 8.05965 9.38295C8.41982 9.38295 8.71184 9.09093 8.71184 8.73077C8.71184 7.66084 9.58235 6.79033 10.6523 6.79033C11.7222 6.79033 12.5927 7.66084 12.5927 8.73077C12.5927 9.80069 11.7222 10.6712 10.6523 10.6712C10.2921 10.6712 10.0001 10.9632 10.0001 11.3234V13.9834C10.0001 14.3435 10.2921 14.6356 10.6523 14.6356C11.0124 14.6356 11.3045 14.3436 11.3045 13.9833V11.9097C12.7821 11.607 13.8971 10.2966 13.8971 8.73077C13.8971 6.94158 12.4415 5.48596 10.6523 5.48596Z" fill="#484B52"/>
</svg>
