<svg width="22" height="22" viewBox="0 0 22 22" fill="none" xmlns="http://www.w3.org/2000/svg">
<path d="M18.3025 7.67016L18.3025 7.67012C18.599 7.37351 19.0799 7.37349 19.3765 7.67014L21.301 9.5945C22.0997 10.3932 22.0997 11.6928 21.301 12.4914L19.3765 14.4158C19.2282 14.5641 19.034 14.6383 18.8394 14.6383C18.645 14.6383 18.4509 14.5642 18.3025 14.4158L18.3025 14.4158C18.0059 14.1193 18.0059 13.6385 18.3025 13.342L18.3025 13.342L19.6714 11.9731L19.8421 11.8023H19.6007H9.28166C8.86219 11.8023 8.52224 11.4624 8.52224 11.043C8.52224 10.6235 8.86219 10.2836 9.28166 10.2836H19.6007H19.8421L19.6714 10.1129L18.3025 8.74393L18.3025 8.74391C18.0059 8.44744 18.0059 7.96662 18.3025 7.67016ZM15.4124 16.8438V18.5625C15.4124 20.4028 13.9151 21.9 12.0747 21.9H3.43765C1.5973 21.9 0.1 20.4028 0.1 18.5625V3.4375C0.1 1.59724 1.5973 0.1 3.43765 0.1H12.0747C13.9151 0.1 15.4124 1.59724 15.4124 3.4375V5.15625C15.4124 5.57569 15.0725 5.91563 14.653 5.91563C14.2335 5.91563 13.8936 5.57569 13.8936 5.15625V3.4375C13.8936 2.43461 13.0777 1.61875 12.0747 1.61875H3.43765C2.43472 1.61875 1.61883 2.43461 1.61883 3.4375V18.5625C1.61883 19.5654 2.43472 20.3813 3.43765 20.3813H12.0747C13.0777 20.3813 13.8936 19.5654 13.8936 18.5625V16.8438C13.8936 16.4243 14.2335 16.0844 14.653 16.0844C15.0725 16.0844 15.4124 16.4243 15.4124 16.8438Z" fill="#484B52" stroke="white" stroke-width="0.2"/>
</svg>
