<svg width="20" height="22" viewBox="0 0 20 22" fill="none" xmlns="http://www.w3.org/2000/svg">
<path d="M9.62448 22C10.3538 22 11.0532 21.7103 11.5689 21.1946C12.0846 20.6789 12.3743 19.9794 12.3743 19.2501H6.87463C6.87463 19.9794 7.16435 20.6789 7.68005 21.1946C8.19574 21.7103 8.89518 22 9.62448 22Z" fill="#484B52"/>
<path fill-rule="evenodd" clip-rule="evenodd" d="M9.62447 2.63831L8.52866 2.85967C7.28567 3.11293 6.16837 3.78789 5.36585 4.7703C4.56334 5.75271 4.12491 6.98223 4.12477 8.25075C4.12477 9.1142 3.94053 11.2715 3.49368 13.3957C3.2737 14.4503 2.97671 15.5489 2.58211 16.5003H16.6668C16.2722 15.5489 15.9766 14.4517 15.7553 13.3957C15.3084 11.2715 15.1242 9.1142 15.1242 8.25075C15.1237 6.98246 14.6851 5.75327 13.8827 4.77114C13.0802 3.78901 11.963 3.11426 10.7203 2.86105L9.62447 2.63693V2.63831ZM18.1765 16.5003C18.4831 17.1149 18.8378 17.6016 19.2489 17.8752H0C0.411103 17.6016 0.765833 17.1149 1.07244 16.5003C2.30987 14.0254 2.74985 9.46069 2.74985 8.25075C2.74985 4.92343 5.11472 2.14609 8.25642 1.51225C8.23723 1.32107 8.25833 1.12799 8.31834 0.945464C8.37836 0.762939 8.47596 0.595019 8.60486 0.452533C8.73376 0.310047 8.89109 0.19616 9.06671 0.118215C9.24233 0.0402708 9.43233 0 9.62447 0C9.81661 0 10.0066 0.0402708 10.1822 0.118215C10.3579 0.19616 10.5152 0.310047 10.6441 0.452533C10.773 0.595019 10.8706 0.762939 10.9306 0.945464C10.9906 1.12799 11.0117 1.32107 10.9925 1.51225C12.5466 1.82834 13.9436 2.6718 14.9471 3.8998C15.9506 5.1278 16.4989 6.66488 16.4991 8.25075C16.4991 9.46069 16.9391 14.0254 18.1765 16.5003Z" fill="#484B52"/>
</svg>
