<svg width="20" height="22" viewBox="0 0 20 22" fill="none" xmlns="http://www.w3.org/2000/svg">
<path d="M9.62447 22C10.3538 22 11.0532 21.7103 11.5689 21.1946C12.0846 20.6789 12.3743 19.9795 12.3743 19.2501H6.87462C6.87462 19.9795 7.16434 20.6789 7.68004 21.1946C8.19573 21.7103 8.89517 22 9.62447 22ZM10.9925 1.51225C11.0117 1.32107 10.9906 1.12799 10.9306 0.945464C10.8706 0.762939 10.773 0.595019 10.6441 0.452533C10.5152 0.310047 10.3579 0.19616 10.1822 0.118215C10.0066 0.0402708 9.81661 0 9.62447 0C9.43233 0 9.24233 0.0402708 9.06671 0.118215C8.89109 0.19616 8.73376 0.310047 8.60486 0.452533C8.47596 0.595019 8.37836 0.762939 8.31834 0.945464C8.25833 1.12799 8.23723 1.32107 8.25642 1.51225C6.70237 1.82834 5.30531 2.6718 4.30182 3.8998C3.29832 5.1278 2.75005 6.66488 2.74985 8.25075C2.74985 9.76042 2.06239 16.5003 0 17.8752H19.2489C17.1866 16.5003 16.4991 9.76042 16.4991 8.25075C16.4991 4.92343 14.1342 2.14609 10.9925 1.51225Z" fill="#2FC639"/>
</svg>
