<svg width="22" height="22" viewBox="0 0 22 22" fill="none" xmlns="http://www.w3.org/2000/svg">
<path d="M21.0527 13.4117L19.0306 11.8305C19.0572 11.5867 19.0782 11.3016 19.0782 11C19.0782 10.6984 19.0562 10.4133 19.0306 10.1695L21.0546 8.58735C21.4304 8.29035 21.534 7.76325 21.2938 7.3242L19.191 3.68595C18.9609 3.26704 18.4448 3.07545 17.9746 3.2487L15.5885 4.2066C15.132 3.8766 14.6526 3.59795 14.1566 3.3752L13.7936 0.844293C13.7341 0.363 13.3161 0 12.822 0H8.60531C8.11122 0 7.69322 0.363 7.63456 0.835098L7.27066 3.3752C6.79031 3.59245 6.31826 3.86654 5.84066 4.20754L3.44816 3.24689C2.99076 3.06814 2.47006 3.25699 2.24091 3.67679L0.135313 7.32054C-0.113089 7.74039 -0.011339 8.28489 0.373661 8.5892L2.39581 10.1695C2.36372 10.4794 2.34816 10.7479 2.34816 11C2.34816 11.2521 2.36376 11.5207 2.39401 11.8305L0.370009 13.4136C-0.0049366 13.7106 -0.107632 14.2377 0.131618 14.6767L2.23447 18.315C2.46272 18.733 2.97787 18.9237 3.45087 18.7522L5.83697 17.7943C6.29347 18.1234 6.77381 18.4021 7.26972 18.6257L7.63272 21.1557C7.69231 21.637 8.11031 22 8.60437 22H12.821C13.3151 22 13.7331 21.637 13.7918 21.1649L14.1557 18.6257C14.636 18.4085 15.1081 18.1344 15.5857 17.7934L17.9782 18.7541C18.4338 18.931 18.9563 18.744 19.1854 18.3242L21.2993 14.6676C21.5331 14.2386 21.4304 13.7115 21.0527 13.4117ZM20.4981 14.2184L18.3146 17.9016L15.6902 16.8474C15.5417 16.7878 15.3731 16.8108 15.2447 16.9061C14.6764 17.3314 14.1273 17.6513 13.5645 17.8814C13.4141 17.9428 13.3069 18.0794 13.284 18.2407L12.8211 21.0833L8.54297 21.0348L8.14237 18.2417C8.11852 18.0803 8.01222 17.9438 7.86187 17.8823C7.27612 17.6422 6.71237 17.3149 6.18527 16.9097C6.10367 16.8465 6.00467 16.8144 5.90567 16.8144C5.84792 16.8144 5.79017 16.8245 5.73427 16.8474L3.03467 17.8658L0.931825 14.2275C0.912575 14.1918 0.916228 14.1505 0.938228 14.1331L3.16298 12.3942C3.28948 12.2952 3.35548 12.1357 3.33533 11.9762C3.28673 11.5921 3.26473 11.2814 3.26473 11C3.26473 10.7186 3.28763 10.4087 3.33533 10.0237C3.35548 9.8633 3.28948 9.70471 3.16298 9.60571L0.927313 7.7825L3.11081 4.09935L5.73522 5.1535C5.88462 5.214 6.05237 5.1911 6.18162 5.09485C6.74902 4.6686 7.29902 4.3496 7.86187 4.1195C8.01222 4.05715 8.11852 3.9206 8.14147 3.76015L8.60531 0.916652L12.8843 0.966152L13.284 3.76015C13.3078 3.9215 13.4141 4.05805 13.5645 4.1195C14.1493 4.35875 14.7131 4.686 15.2411 5.0921C15.3703 5.1911 15.5399 5.21495 15.6912 5.1535L18.3908 4.1351L20.4936 7.77335C20.5129 7.8091 20.5092 7.84944 20.4872 7.86685L18.2625 9.60575C18.136 9.70475 18.07 9.86335 18.0901 10.0237C18.125 10.3024 18.1607 10.637 18.1607 11C18.1607 11.3639 18.125 11.6976 18.0901 11.9763C18.07 12.1358 18.136 12.2952 18.2625 12.3942L20.4845 14.1322C20.5082 14.1515 20.5128 14.1928 20.4981 14.2184Z" fill="#484B52"/>
<path d="M10.7132 6.41699C8.18598 6.41699 6.12988 8.47309 6.12988 11.0003C6.12988 13.5276 8.18598 15.5837 10.7132 15.5837C13.2405 15.5837 15.2966 13.5276 15.2966 11.0003C15.2966 8.47309 13.2405 6.41699 10.7132 6.41699ZM10.7132 14.667C8.69108 14.667 7.04658 13.0225 7.04658 11.0003C7.04658 8.97819 8.69108 7.33369 10.7132 7.33369C12.7354 7.33369 14.3799 8.97819 14.3799 11.0003C14.3799 13.0225 12.7354 14.667 10.7132 14.667Z" fill="#484B52"/>
</svg>
