<svg width="20" height="32" viewBox="0 0 20 32" fill="none" xmlns="http://www.w3.org/2000/svg">
<path fill-rule="evenodd" clip-rule="evenodd" d="M4 8C6.20911 8 8 6.20917 8 4C8 1.79083 6.20911 0 4 0C1.79089 0 0 1.79083 0 4C0 6.20917 1.79089 8 4 8ZM4 20C6.20911 20 8 18.2092 8 16C8 13.7908 6.20911 12 4 12C1.79089 12 0 13.7908 0 16C0 18.2092 1.79089 20 4 20ZM8 28C8 30.2092 6.20911 32 4 32C1.79089 32 0 30.2092 0 28C0 25.7908 1.79089 24 4 24C6.20911 24 8 25.7908 8 28ZM16 8C18.2091 8 20 6.20917 20 4C20 1.79083 18.2091 0 16 0C13.7909 0 12 1.79083 12 4C12 6.20917 13.7909 8 16 8ZM20 16C20 18.2092 18.2091 20 16 20C13.7909 20 12 18.2092 12 16C12 13.7908 13.7909 12 16 12C18.2091 12 20 13.7908 20 16ZM16 32C18.2091 32 20 30.2092 20 28C20 25.7908 18.2091 24 16 24C13.7909 24 12 25.7908 12 28C12 30.2092 13.7909 32 16 32Z" fill="#53B1FF"/>
</svg>
