<svg width="50" height="50" viewBox="0 0 50 50" fill="none" xmlns="http://www.w3.org/2000/svg">
<path d="M43.8336 3.16602L39.0391 8.70768" stroke="black" stroke-width="2"/>
<rect x="0.35" y="0.35" width="49.3" height="37.3" rx="1.65" fill="#F8F8FB" stroke="#D6DBE3" stroke-width="0.7"/>
<rect x="7.50186" y="48.5019" width="27" height="35" rx="1.5" transform="rotate(-89.7862 7.50186 48.5019)" fill="#B2B9C7" stroke="#B2B9C7"/>
<path d="M25.6275 44.2035L25.6893 27.6584L28.4065 30.4093C28.7098 30.7162 29.2044 30.7193 29.5114 30.416C29.8183 30.1128 29.8213 29.6181 29.5181 29.3112L25.4709 25.2138C25.4707 25.2136 25.4704 25.2134 25.4702 25.2131C25.1669 24.907 24.6707 24.9041 24.3642 25.2089C24.3639 25.2092 24.3636 25.2094 24.3634 25.2096L20.2857 29.2766C19.9803 29.5813 19.9795 30.076 20.2842 30.3815C20.5889 30.687 21.0836 30.6877 21.3891 30.383L24.1268 27.6525L24.0651 44.1976C24.0634 44.6291 24.4119 44.9802 24.8434 44.9818C25.2749 44.9834 25.6259 44.6349 25.6275 44.2035Z" fill="white"/>
</svg>
