<svg width="52" height="48" viewBox="0 0 52 48" fill="none" xmlns="http://www.w3.org/2000/svg">
<path d="M47.3157 4L43.6719 11" stroke="black" stroke-width="2"/>
<rect x="14.35" y="0.35" width="37.3" height="47.3" rx="1.65" fill="white" stroke="white" stroke-width="0.7"/>
<rect x="0.5" y="6.5" width="27" height="35" rx="1.5" fill="#74D179" stroke="#74D179"/>
<path d="M3.78125 24.9375L20.3265 24.9375L17.5857 27.665C17.2799 27.9694 17.2787 28.464 17.5831 28.7698C17.8874 29.0757 18.3821 29.0768 18.688 28.7725L22.7701 24.71C22.7704 24.7098 22.7706 24.7095 22.7708 24.7093C23.0759 24.4049 23.0769 23.9086 22.7709 23.6033C22.7706 23.603 22.7705 23.6027 22.7702 23.6025L18.688 19.54C18.3823 19.2357 17.8876 19.2368 17.5832 19.5427C17.2788 19.8485 17.28 20.3431 17.5858 20.6475L20.3265 23.375L3.78125 23.375C3.34976 23.375 3 23.7248 3 24.1563C3 24.5877 3.34976 24.9375 3.78125 24.9375Z" fill="white"/>
</svg>
