<svg width="74" height="52" viewBox="0 0 74 52" fill="none" xmlns="http://www.w3.org/2000/svg">
<path d="M64 6L57 13" stroke="black" stroke-width="2"/>
<rect x="0.35" y="2.35" width="72.3" height="47.3" rx="1.65" fill="white" stroke="white" stroke-width="0.7"/>
<rect x="17.5" y="17.5" width="39" height="17.4615" rx="1.5" fill="#74D179" stroke="#74D179"/>
<g clip-path="url(#clip0)">
<path d="M55.594 17.1774L66.0828 7.59369L66.0751 10.7611C66.0743 11.1146 66.3601 11.4018 66.7136 11.4026C67.067 11.4035 67.3542 11.1176 67.3551 10.7642L67.3665 6.04643C67.3669 5.69343 67.08 5.40458 66.7259 5.4049L62.0073 5.41628C61.6539 5.41714 61.368 5.7043 61.3688 6.05781C61.3697 6.41127 61.6569 6.69711 62.0103 6.69627L65.1777 6.68862L55.594 17.1774C55.3441 17.4273 55.3441 16.9274 55.594 17.1774C55.844 17.4273 55.3441 17.4273 55.594 17.1774Z" fill="#74D179"/>
</g>
<g clip-path="url(#clip1)">
<path d="M56.5843 34.5999L66.168 45.0886L63.0006 45.081C62.6471 45.0801 62.3599 45.366 62.3591 45.7194C62.3582 46.0729 62.6441 46.3601 62.9975 46.3609L67.7153 46.3723C68.0683 46.3727 68.3571 46.0858 68.3568 45.7317L68.3454 41.0131C68.3446 40.6598 68.0574 40.3738 67.7039 40.3747C67.3505 40.3755 67.0646 40.6627 67.0654 41.0162L67.0731 44.1836L56.5843 34.5999Z" fill="#74D179"/>
</g>
<path d="M15.9255 34.5912L5.43674 44.1749L5.44443 41.0074C5.44527 40.654 5.15943 40.3668 4.80598 40.3659C4.45251 40.3651 4.16531 40.651 4.16445 41.0044L4.15304 45.7221C4.15266 46.0751 4.43956 46.364 4.79367 46.3637L9.51225 46.3523C9.86563 46.3514 10.1516 46.0643 10.1507 45.7107C10.1499 45.3573 9.86267 45.0714 9.50922 45.0723L6.34181 45.0799L15.9255 34.5912Z" fill="#74D179"/>
<path d="M16.9391 17.1882L7.35541 6.69944L10.5229 6.70713C10.8763 6.70797 11.1635 6.42213 11.1644 6.06867C11.1652 5.7152 10.8793 5.428 10.5259 5.42714L5.80815 5.41574C5.45515 5.41535 5.1663 5.70226 5.16662 6.05637L5.178 10.7749C5.17886 11.1283 5.46601 11.4143 5.81953 11.4134C6.17298 11.4126 6.45883 11.1254 6.45799 10.7719L6.45034 7.6045L16.9391 17.1882Z" fill="#74D179"/>
<defs>
<clipPath id="clip0">
<rect width="16.3834" height="16.3834" fill="white" transform="translate(73.793 13.4775) rotate(145.352)"/>
</clipPath>
<clipPath id="clip1">
<rect width="16.3834" height="16.3834" fill="white" transform="translate(64.5352 51.7666) rotate(-145.699)"/>
</clipPath>
</defs>
</svg>
