<svg width="74" height="53" viewBox="0 0 74 53" fill="none" xmlns="http://www.w3.org/2000/svg">
<path d="M64 5.99902L57 12.999" stroke="black" stroke-width="2"/>
<rect x="0.35" y="2.35" width="72.3" height="47.3" rx="1.65" fill="white" stroke="white" stroke-width="0.7"/>
<rect x="17.5" y="17.5" width="39" height="17" rx="1.5" fill="#74D179" stroke="#74D179"/>
<g clip-path="url(#clip0)">
<path d="M69.6443 6.18469L58.4134 14.8868L58.6777 11.7304C58.7072 11.3782 58.4456 11.0688 58.0934 11.0393C57.7411 11.0098 57.4317 11.2715 57.4022 11.6237L57.0085 16.325C56.9795 16.6768 57.2421 16.9879 57.595 17.0163L62.299 17.3874C62.6513 17.4151 62.9596 17.1521 62.9874 16.7997C63.0152 16.4473 62.7521 16.1392 62.3997 16.1113L59.2421 15.8623L69.6443 6.18469C69.9137 5.95583 69.8732 6.45405 69.6443 6.18469C69.4154 5.91532 69.9137 5.95583 69.6443 6.18469Z" fill="#74D179"/>
</g>
<g clip-path="url(#clip1)">
<path d="M68.599 46.7159L58.2557 36.9754L61.4149 36.7455C61.7674 36.7198 62.0323 36.4132 62.0067 36.0607C61.981 35.7082 61.6744 35.4432 61.3219 35.4689L56.6166 35.8113C56.2645 35.8374 55.998 36.1452 56.0249 36.4983L56.3901 41.2027C56.4175 41.555 56.7253 41.8186 57.0777 41.7912C57.4301 41.7639 57.6936 41.4561 57.6663 41.1037L57.4211 37.9458L68.599 46.7159Z" fill="#74D179"/>
</g>
<path d="M5.34013 47.1754L15.8289 37.5917L15.8212 40.7592C15.8204 41.1126 16.1062 41.3998 16.4596 41.4007C16.8131 41.4015 17.1003 41.1157 17.1012 40.7622L17.1126 36.0445C17.113 35.6915 16.8261 35.4026 16.472 35.4029L11.7534 35.4143C11.4 35.4152 11.1141 35.7023 11.1149 36.0559C11.1158 36.4093 11.403 36.6952 11.7564 36.6943L14.9238 36.6867L5.34013 47.1754Z" fill="#74D179"/>
<path d="M5.35387 5.6038L14.9376 16.0926L11.7701 16.0849C11.4167 16.084 11.1295 16.3699 11.1286 16.7233C11.1278 17.0768 11.4136 17.364 11.7671 17.3649L16.4848 17.3763C16.8378 17.3766 17.1267 17.0897 17.1264 16.7356L17.115 12.017C17.1141 11.6637 16.827 11.3777 16.4734 11.3786C16.12 11.3794 15.8341 11.6666 15.835 12.0201L15.8426 15.1875L5.35387 5.6038Z" fill="#74D179"/>
<defs>
<clipPath id="clip0">
<rect width="16.3834" height="16.3834" fill="white" transform="translate(51.207 8.39746) rotate(-30)"/>
</clipPath>
<clipPath id="clip1">
<rect width="16.3834" height="16.3834" fill="white" transform="translate(59.3828 30.1934) rotate(30)"/>
</clipPath>
</defs>
</svg>
