<svg width="74" height="52" viewBox="0 0 74 52" fill="none" xmlns="http://www.w3.org/2000/svg">
<path d="M64 6L57 13" stroke="black" stroke-width="2"/>
<rect x="0.35" y="2.35" width="72.3" height="47.3" rx="1.65" fill="#F8F8FB" stroke="#D6DBE3" stroke-width="0.7"/>
<rect x="17.5" y="17.5" width="39" height="17.4615" rx="1.5" fill="#B2B9C7" stroke="#B2B9C7"/>
<g clip-path="url(#clip0)">
<path d="M55.594 17.1774L66.0828 7.59369L66.0751 10.7611C66.0743 11.1146 66.3601 11.4018 66.7136 11.4026C67.067 11.4035 67.3542 11.1176 67.3551 10.7642L67.3665 6.04643C67.3669 5.69343 67.08 5.40458 66.7259 5.4049L62.0073 5.41628C61.6539 5.41714 61.368 5.7043 61.3688 6.05781C61.3697 6.41127 61.6569 6.69711 62.0103 6.69627L65.1777 6.68862L55.594 17.1774C55.3441 17.4273 55.3441 16.9274 55.594 17.1774C55.844 17.4273 55.3441 17.4273 55.594 17.1774Z" fill="#D6DBE3"/>
</g>
<g clip-path="url(#clip1)">
<path d="M56.5843 34.6018L66.168 45.0906L63.0006 45.0829C62.6471 45.0821 62.3599 45.3679 62.3591 45.7214C62.3582 46.0748 62.6441 46.362 62.9975 46.3629L67.7153 46.3743C68.0683 46.3747 68.3571 46.0878 68.3568 45.7337L68.3454 41.0151C68.3446 40.6617 68.0574 40.3758 67.7039 40.3766C67.3505 40.3775 67.0646 40.6647 67.0654 41.0181L67.0731 44.1855L56.5843 34.6018Z" fill="#D6DBE3"/>
</g>
<path d="M15.9255 34.5922L5.43674 44.1758L5.44443 41.0084C5.44527 40.6549 5.15943 40.3677 4.80598 40.3669C4.45251 40.366 4.16531 40.6519 4.16445 41.0054L4.15304 45.7231C4.15266 46.0761 4.43956 46.3649 4.79367 46.3646L9.51225 46.3532C9.86563 46.3524 10.1516 46.0652 10.1507 45.7117C10.1499 45.3583 9.86267 45.0724 9.50922 45.0733L6.34181 45.0809L15.9255 34.5922Z" fill="#D6DBE3"/>
<path d="M16.9391 17.1892L7.35541 6.70041L10.5229 6.70811C10.8763 6.70894 11.1635 6.4231 11.1644 6.06965C11.1652 5.71618 10.8793 5.42898 10.5259 5.42812L5.80815 5.41671C5.45515 5.41633 5.1663 5.70323 5.16662 6.05734L5.178 10.7759C5.17886 11.1293 5.46601 11.4152 5.81953 11.4144C6.17298 11.4135 6.45883 11.1263 6.45799 10.7729L6.45034 7.60548L16.9391 17.1892Z" fill="#D6DBE3"/>
<defs>
<clipPath id="clip0">
<rect width="16.3834" height="16.3834" fill="white" transform="translate(73.793 13.4785) rotate(145.352)"/>
</clipPath>
<clipPath id="clip1">
<rect width="16.3834" height="16.3834" fill="white" transform="translate(64.5352 51.7676) rotate(-145.699)"/>
</clipPath>
</defs>
</svg>
