<svg width="74" height="53" viewBox="0 0 74 53" fill="none" xmlns="http://www.w3.org/2000/svg">
<path d="M64 6L57 13" stroke="black" stroke-width="2"/>
<rect x="0.35" y="2.35" width="72.3" height="47.3" rx="1.65" fill="#F8F8FB" stroke="#D6DBE3" stroke-width="0.7"/>
<rect x="17.5" y="17.5" width="39" height="17" rx="1.5" fill="#B2B9C7" stroke="#B2B9C7"/>
<g clip-path="url(#clip0)">
<path d="M69.6443 6.18566L58.4134 14.8878L58.6777 11.7314C58.7072 11.3792 58.4456 11.0698 58.0934 11.0403C57.7411 11.0108 57.4317 11.2725 57.4022 11.6247L57.0085 16.326C56.9795 16.6778 57.2421 16.9889 57.595 17.0173L62.299 17.3883C62.6513 17.4161 62.9596 17.1531 62.9874 16.8007C63.0152 16.4483 62.7521 16.1401 62.3997 16.1123L59.2421 15.8633L69.6443 6.18566C69.9137 5.9568 69.8732 6.45503 69.6443 6.18566C69.4154 5.9163 69.9137 5.9568 69.6443 6.18566Z" fill="#D6DBE3"/>
</g>
<g clip-path="url(#clip1)">
<path d="M68.599 46.7149L58.2557 36.9744L61.4149 36.7445C61.7674 36.7188 62.0323 36.4123 62.0067 36.0598C61.981 35.7072 61.6744 35.4423 61.3219 35.4679L56.6166 35.8103C56.2645 35.8364 55.998 36.1442 56.0249 36.4973L56.3901 41.2017C56.4175 41.554 56.7253 41.8176 57.0777 41.7903C57.4301 41.7629 57.6936 41.4551 57.6663 41.1027L57.4211 37.9448L68.599 46.7149Z" fill="#D6DBE3"/>
</g>
<path d="M5.34013 47.1774L15.8289 37.5937L15.8212 40.7611C15.8204 41.1146 16.1062 41.4018 16.4596 41.4026C16.8131 41.4035 17.1003 41.1176 17.1012 40.7642L17.1126 36.0464C17.113 35.6934 16.8261 35.4046 16.472 35.4049L11.7534 35.4163C11.4 35.4171 11.1141 35.7043 11.1149 36.0578C11.1158 36.4113 11.403 36.6971 11.7564 36.6963L14.9238 36.6886L5.34013 47.1774Z" fill="#D6DBE3"/>
<path d="M5.35387 5.6038L14.9376 16.0926L11.7701 16.0849C11.4167 16.084 11.1295 16.3699 11.1286 16.7233C11.1278 17.0768 11.4136 17.364 11.7671 17.3649L16.4848 17.3763C16.8378 17.3766 17.1267 17.0897 17.1264 16.7356L17.115 12.017C17.1141 11.6637 16.827 11.3777 16.4734 11.3786C16.12 11.3794 15.8341 11.6666 15.835 12.0201L15.8426 15.1875L5.35387 5.6038Z" fill="#D6DBE3"/>
<defs>
<clipPath id="clip0">
<rect width="16.3834" height="16.3834" fill="white" transform="translate(51.207 8.39844) rotate(-30)"/>
</clipPath>
<clipPath id="clip1">
<rect width="16.3834" height="16.3834" fill="white" transform="translate(59.3828 30.1934) rotate(30)"/>
</clipPath>
</defs>
</svg>
