<svg width="21" height="19" viewBox="0 0 21 19" fill="none" xmlns="http://www.w3.org/2000/svg">
<path fill-rule="evenodd" clip-rule="evenodd" d="M19.6832 14.0535L12.3656 1.98251C11.3535 0.312964 8.93098 0.312969 7.91887 1.98251L0.601221 14.0535C-0.449195 15.7862 0.798319 18.0013 2.82458 18.0013H17.4599C19.4861 18.0013 20.7336 15.7862 19.6832 14.0535ZM9.28709 2.81195C9.67636 2.16982 10.6081 2.16982 10.9974 2.81195L18.315 14.8829C18.719 15.5494 18.2392 16.4013 17.4599 16.4013H2.82458C2.04525 16.4013 1.56544 15.5494 1.96944 14.8829L9.28709 2.81195ZM9.59622 11.9657C9.74555 12.0124 9.91822 12.0357 10.1142 12.0357C10.3102 12.0357 10.4829 12.0124 10.6322 11.9657C10.6976 11.1631 10.7582 10.3977 10.8142 9.66972C10.8702 8.93238 10.9169 8.29305 10.9542 7.75172C10.9916 7.20105 11.0102 6.81838 11.0102 6.60372C11.0102 6.27705 10.9402 6.02972 10.8002 5.86172C10.6696 5.69372 10.4409 5.60972 10.1142 5.60972C9.78755 5.60972 9.55422 5.69372 9.41422 5.86172C9.28355 6.02972 9.21822 6.27705 9.21822 6.60372C9.21822 6.81838 9.23688 7.20105 9.27422 7.75172C9.31155 8.29305 9.35822 8.93238 9.41422 9.66972C9.47955 10.3977 9.54022 11.1631 9.59622 11.9657ZM9.41422 14.6817C9.58222 14.8591 9.82022 14.9477 10.1282 14.9477C10.3896 14.9477 10.6182 14.8591 10.8142 14.6817C11.0102 14.4951 11.1082 14.2664 11.1082 13.9957C11.1082 13.7064 11.0242 13.4777 10.8562 13.3097C10.6882 13.1324 10.4456 13.0437 10.1282 13.0437C9.88555 13.0437 9.66622 13.1371 9.47022 13.3237C9.27422 13.5011 9.17622 13.725 9.17622 13.9957C9.17622 14.2757 9.25555 14.5044 9.41422 14.6817Z" fill="#A8842C"/>
</svg>
