<svg width="25" height="25" viewBox="0 0 25 25" fill="none" xmlns="http://www.w3.org/2000/svg">
<path d="M12.5 25C19.4036 25 25 19.4036 25 12.5C25 5.59644 19.4036 0 12.5 0C5.59644 0 0 5.59644 0 12.5C0 19.4036 5.59644 25 12.5 25Z" fill="#F0F0F0"/>
<path fill-rule="evenodd" clip-rule="evenodd" d="M15.7609 0.430603C17.3604 0.861755 18.8328 1.60214 20.1103 2.58402L15.7609 6.93339V0.430603ZM0.430664 9.23919C0.861768 7.63963 1.60215 6.16722 2.58403 4.88973L6.9335 9.23919H0.430664ZM22.416 4.88978C23.3979 6.16727 24.1383 7.63968 24.5694 9.2392H18.0667L22.416 4.88978ZM0.430664 15.761C0.861816 17.3605 1.6022 18.8329 2.58403 20.1103L6.93335 15.761H0.430664ZM4.88979 22.416C6.16728 23.3979 7.63969 24.1382 9.23921 24.5694V18.0667L4.88979 22.416ZM4.88979 2.58397C6.16723 1.60214 7.63964 0.861755 9.23916 0.430603V6.93334L4.88979 2.58397ZM15.761 24.5694C17.3605 24.1382 18.8329 23.3979 20.1103 22.416L15.761 18.0667V24.5694ZM22.416 20.1104L18.0667 15.761H24.5694C24.1383 17.3605 23.3979 18.8329 22.416 20.1104Z" fill="#0052B4"/>
<path fill-rule="evenodd" clip-rule="evenodd" d="M24.8942 10.8696H14.1305H14.1305V0.105811C13.5967 0.0363281 13.0526 0 12.5 0C11.9473 0 11.4033 0.0363281 10.8696 0.105811V10.8695V10.8695H0.105811C0.0363281 11.4033 0 11.9474 0 12.5C0 13.0527 0.0363281 13.5967 0.105811 14.1304H10.8695H10.8695V24.8942C11.4033 24.9637 11.9473 25 12.5 25C13.0526 25 13.5967 24.9637 14.1304 24.8942V14.1305V14.1305H24.8942C24.9637 13.5967 25 13.0527 25 12.5C25 11.9474 24.9637 11.4033 24.8942 10.8696ZM15.7609 15.761L21.3388 21.3389C21.5954 21.0824 21.8401 20.8143 22.0736 20.5364L17.2981 15.7609H15.7609V15.761ZM9.23897 15.761H9.23907V17.298L4.46358 22.0736C4.18565 21.8401 3.91754 21.5954 3.66109 21.3388L9.23897 15.761ZM9.23913 9.23917V9.23912L3.6612 3.66114C3.40466 3.91759 3.15993 4.1857 2.92643 4.46363L7.70197 9.23917H9.23913ZM21.3389 3.6612L15.7609 9.23923V7.70202L20.5364 2.92648C20.8143 3.15993 21.0824 3.40466 21.3389 3.6612Z" fill="#D80027"/>
</svg>
