<svg width="42" height="25" viewBox="0 0 42 25" fill="none" xmlns="http://www.w3.org/2000/svg">
<rect width="42" height="18" rx="1" fill="#74D179"/>
<path d="M37.6679 24.7867L33.4202 20.5397L31.3612 22.5987C31.1835 22.7764 30.9254 22.8496 30.6794 22.7928C30.4334 22.7345 30.2357 22.5539 30.1561 22.3143L26.0375 9.95904C25.9501 9.69739 26.0183 9.40875 26.2131 9.21393C26.4072 9.01983 26.6966 8.94873 26.9582 9.03832L39.3135 13.157C39.5531 13.2366 39.7337 13.4342 39.7919 13.6802C39.8496 13.9255 39.7763 14.1836 39.5979 14.362L37.5389 16.421L41.7859 20.6687C42.0703 20.9531 42.0703 21.4138 41.7859 21.6982L38.6974 24.7866C38.413 25.0711 37.9523 25.0711 37.6679 24.7867Z" fill="#ACF1AE"/>
</svg>
