<svg width="36" height="29" viewBox="0 0 36 29" fill="none" xmlns="http://www.w3.org/2000/svg">
<path fill-rule="evenodd" clip-rule="evenodd" d="M6.47607 4.04736H33.5715C34.7637 4.04736 35.7302 5.01384 35.7302 6.20605C35.7302 6.4053 35.7026 6.60359 35.6482 6.79527L33.0502 15.9521C32.8087 16.8032 32.0723 17.4208 31.1922 17.5104L9.71411 19.6979L6.47607 4.04736Z" fill="#ACF1AE"/>
<path fill-rule="evenodd" clip-rule="evenodd" d="M6.14478 3.77783H33.5716C34.9128 3.77783 36.0001 4.86512 36.0001 6.20636C36.0001 6.43051 35.9691 6.65358 35.9079 6.86923L33.3099 16.026C33.0382 16.9835 32.2098 17.6784 31.2196 17.7792L9.49928 19.9913L6.14478 3.77783ZM6.80753 4.3175L9.92909 19.405L31.1649 17.2423C31.9351 17.1639 32.5794 16.6235 32.7907 15.8787L35.3887 6.72192C35.4363 6.5542 35.4604 6.3807 35.4604 6.20636C35.4604 5.16317 34.6148 4.3175 33.5716 4.3175H6.80753Z" fill="#74D179"/>
<path fill-rule="evenodd" clip-rule="evenodd" d="M0 0.809508C0 0.362429 0.362429 0 0.809508 0H7.1719L10.4099 21.3171H30.2216C30.6687 21.3171 31.0312 21.6795 31.0312 22.1266C31.0312 22.5736 30.6687 22.9361 30.2216 22.9361H9.01827L5.78024 1.61902H0.809508C0.362429 1.61902 0 1.25659 0 0.809508Z" fill="#74D179"/>
<path d="M13.4919 28.0629C15.1312 28.0629 16.4601 26.734 16.4601 25.0947C16.4601 23.4554 15.1312 22.1265 13.4919 22.1265C11.8526 22.1265 10.5237 23.4554 10.5237 25.0947C10.5237 26.734 11.8526 28.0629 13.4919 28.0629Z" fill="#74D179"/>
<path fill-rule="evenodd" clip-rule="evenodd" d="M13.4917 22.3961C12.0014 22.3961 10.7933 23.6042 10.7933 25.0945C10.7933 26.5847 12.0014 27.7928 13.4917 27.7928C14.982 27.7928 16.1901 26.5847 16.1901 25.0945C16.1901 23.6042 14.982 22.3961 13.4917 22.3961ZM10.2537 25.0945C10.2537 23.3062 11.7034 21.8564 13.4917 21.8564C15.28 21.8564 16.7297 23.3062 16.7297 25.0945C16.7297 26.8828 15.28 28.3325 13.4917 28.3325C11.7034 28.3325 10.2537 26.8828 10.2537 25.0945Z" fill="#74D179"/>
<path d="M26.444 28.0629C28.0833 28.0629 29.4122 26.734 29.4122 25.0947C29.4122 23.4554 28.0833 22.1265 26.444 22.1265C24.8047 22.1265 23.4758 23.4554 23.4758 25.0947C23.4758 26.734 24.8047 28.0629 26.444 28.0629Z" fill="#74D179"/>
<path fill-rule="evenodd" clip-rule="evenodd" d="M26.4438 22.3961C24.9536 22.3961 23.7455 23.6042 23.7455 25.0945C23.7455 26.5847 24.9536 27.7928 26.4438 27.7928C27.9341 27.7928 29.1422 26.5847 29.1422 25.0945C29.1422 23.6042 27.9341 22.3961 26.4438 22.3961ZM23.2058 25.0945C23.2058 23.3062 24.6555 21.8564 26.4438 21.8564C28.2322 21.8564 29.6819 23.3062 29.6819 25.0945C29.6819 26.8828 28.2322 28.3325 26.4438 28.3325C24.6555 28.3325 23.2058 26.8828 23.2058 25.0945Z" fill="#74D179"/>
</svg>
