<svg width="47" height="27" viewBox="0 0 47 27" fill="none" xmlns="http://www.w3.org/2000/svg">
<path d="M16.5965 2.67035C16.5965 2.11806 17.0442 1.67035 17.5965 1.67035H29.1755C29.7278 1.67035 30.1755 2.11806 30.1755 2.67035V7.84917H16.5965V2.67035Z" fill="#8890A0"/>
<path d="M31.6844 2.67035C31.6844 2.11806 32.1322 1.67035 32.6844 1.67035H45.7723C46.3246 1.67035 46.7723 2.11806 46.7723 2.67035V7.84917H31.6844V2.67035Z" fill="#D6DBE3"/>
<path d="M0 2.67048C0 2.11819 0.447715 1.67048 1 1.67048H14.0878C14.6401 1.67048 15.0878 2.11819 15.0878 2.67048V7.8493H0V2.67048Z" fill="#B2B9C7"/>
<rect y="6.30455" width="46.7722" height="18.5365" rx="1" fill="#B2B9C7"/>
</svg>
