<svg width="40" height="37" viewBox="0 0 40 37" fill="none" xmlns="http://www.w3.org/2000/svg">
<path d="M37.4041 15.9708H35.4223C35.1903 15.132 34.4301 14.5482 33.5591 14.54H31.4435V9.37144C31.4484 9.17458 31.3466 8.9904 31.1773 8.88959L16.253 0.27782C16.0817 0.178389 15.8703 0.178389 15.699 0.27782L0.770108 8.88959C0.598176 8.98915 0.49259 9.1729 0.493166 9.37144V26.5951C0.493166 26.7938 0.599384 26.9775 0.771699 27.0769L15.7021 35.6887C15.7868 35.7375 15.8829 35.7632 15.9806 35.7632C16.0809 35.7633 16.3009 36.2646 16.3884 36.2157L24.1236 31.1613V34.4341C24.122 35.0635 24.3725 35.6674 24.8193 36.1111C25.266 36.5549 25.8719 36.8016 26.5019 36.7966H37.4041C38.0357 36.8022 38.6435 36.5561 39.0928 36.1127C39.5421 35.6693 39.7958 35.0651 39.7976 34.4341V18.3698C39.7969 17.0482 38.727 15.9758 37.4041 15.9708Z" fill="#E1FCDF"/>
<path fill-rule="evenodd" clip-rule="evenodd" d="M16.3542 0.101786C16.3543 0.101827 16.3541 0.101745 16.3542 0.101786L31.2805 8.71466C31.5117 8.85233 31.6515 9.10394 31.6458 9.37377V14.3367H33.561C34.4692 14.3452 35.2691 14.9213 35.5702 15.7674H37.4049C38.8381 15.773 39.9992 16.935 40 18.3697V34.4347C39.998 35.1202 39.7224 35.7764 39.2346 36.2577C38.747 36.7389 38.0878 37.0057 37.4031 36.9999H26.5029C25.8196 37.0052 25.1621 36.7375 24.6771 36.2557C24.1919 35.7738 23.9196 35.1177 23.9214 34.4336V31.536L24.234 31.3318L24.1237 31.1613H23.9214V31.536L16.4929 36.3899L16.4868 36.3933C16.3807 36.4526 16.2828 36.4075 16.2438 36.3834C16.2025 36.3578 16.1701 36.3233 16.1488 36.2986C16.1042 36.2467 16.0581 36.1769 16.0206 36.12L16.0114 36.106C15.974 36.0491 15.9427 36.0015 15.9152 35.9663C15.9144 35.9653 15.9137 35.9644 15.913 35.9635C15.9349 35.9655 15.9569 35.9665 15.979 35.9665M15.8916 35.9389C15.8918 35.9392 15.894 35.9411 15.8982 35.9458C15.9022 35.9502 15.9071 35.956 15.913 35.9635C15.8035 35.9537 15.6972 35.9202 15.6015 35.865L0.671022 27.2532C0.43625 27.1178 0.290894 26.8671 0.290894 26.595V9.3717C0.290893 9.37159 0.290894 9.37181 0.290894 9.3717M15.5981 0.101627C15.5982 0.101574 15.598 0.10168 15.5981 0.101627V0.101627ZM16.3542 0.101786C16.1205 -0.0338347 15.8319 -0.0339696 15.5981 0.101627L16.3542 0.101786ZM15.8916 35.9389C15.8918 35.9391 15.8932 35.9403 15.8958 35.9421C15.8983 35.9439 15.9026 35.9468 15.9088 35.9499C15.9199 35.9556 15.9445 35.9662 15.979 35.9665M16.1518 0.453829C16.0432 0.390765 15.9089 0.390765 15.8003 0.453829L15.7998 0.45412L0.871147 9.06572C0.871103 9.06574 0.871191 9.06569 0.871147 9.06572C0.761827 9.12909 0.695135 9.24562 0.695498 9.37083L0.695499 9.37143L0.695499 26.595C0.695499 26.7206 0.762577 26.8372 0.872436 26.9006L15.8029 35.5123C15.8569 35.5435 15.9182 35.5599 15.9807 35.5599C16.0698 35.56 16.1322 35.6106 16.1552 35.6304C16.1857 35.6568 16.2124 35.6883 16.2336 35.7154C16.2719 35.7645 16.3125 35.8263 16.3472 35.8791L16.3581 35.8957C16.3747 35.9209 16.3897 35.9435 16.4034 35.9634L24.326 30.7866V34.4341C24.3245 35.0088 24.5532 35.561 24.9615 35.9665C25.3699 36.3721 25.9239 36.5979 26.5003 36.5933L26.5019 36.5933L37.4041 36.5933L37.4059 36.5933C37.9841 36.5984 38.5402 36.3732 38.9511 35.9677C39.362 35.5622 39.5937 35.01 39.5954 34.4335V18.3699C39.5947 17.1616 38.6163 16.179 37.4039 16.174H35.2685L35.2274 16.0252C35.0198 15.2746 34.3393 14.751 33.5582 14.7433H31.2412V9.36638C31.2443 9.24392 31.1813 9.12873 31.0753 9.06511C31.0749 9.0649 31.0746 9.06469 31.0742 9.06448L16.1518 0.453829Z" fill="#2EC639"/>
<path d="M38.6418 34.3861C38.6402 34.7218 38.5055 35.0429 38.2677 35.2776C38.0299 35.5122 37.7089 35.6408 37.3765 35.6346H26.5977C26.2669 35.6402 25.9477 35.511 25.7125 35.276C25.4772 35.041 25.3457 34.7202 25.3476 34.3861V18.3331C25.3443 17.9952 25.4742 17.6698 25.7087 17.4287C25.9432 17.1875 26.263 17.0505 26.5977 17.0478H28.5786C28.8212 17.8562 29.5627 18.4062 30.3992 18.3981H33.5751C34.4115 18.4062 35.153 17.8562 35.3956 17.0478H37.3765C38.0765 17.0522 38.6416 17.6263 38.6418 18.3331V34.3861Z" fill="white"/>
<path d="M38.6418 34.3861C38.6402 34.7218 38.5055 35.0429 38.2677 35.2776C38.0299 35.5122 37.7089 35.6408 37.3765 35.6346H26.5977C26.2669 35.6402 25.9477 35.511 25.7125 35.276C25.4772 35.041 25.3457 34.7202 25.3476 34.3861V18.3331C25.3443 17.9952 25.4742 17.6698 25.7087 17.4287C25.9432 17.1875 26.263 17.0505 26.5977 17.0478H28.5786C28.8212 17.8562 29.5627 18.4062 30.3992 18.3981H33.5751C34.4115 18.4062 35.153 17.8562 35.3956 17.0478H37.3765C38.0765 17.0522 38.6416 17.6263 38.6418 18.3331V34.3861Z" fill="#2EC639"/>
<path fill-rule="evenodd" clip-rule="evenodd" d="M0.595075 9.03069L16.5908 18.383V35.6349H16.1862V18.6169L0.391602 9.38212L0.595075 9.03069Z" fill="#2EC639"/>
<path fill-rule="evenodd" clip-rule="evenodd" d="M31.2352 9.37857L16.496 18.6721L16.281 18.3277L31.0202 9.03416L31.2352 9.37857Z" fill="#2EC639"/>
<path fill-rule="evenodd" clip-rule="evenodd" d="M0.493227 9.20639L16.3884 18.1191V35.9253L0.204224 26.7286L0.493227 9.20639Z" fill="white"/>
<path fill-rule="evenodd" clip-rule="evenodd" d="M0.2966 8.86331L16.5908 17.9998V36.2738L0 26.846L0.2966 8.86331ZM0.689943 9.54947L0.408536 26.6111L16.1862 35.5768V18.2385L0.689943 9.54947Z" fill="#2EC639"/>
<path fill-rule="evenodd" clip-rule="evenodd" d="M28.8157 21.1137H35.7518V28.0838H28.8157V21.1137ZM29.3937 21.6945V27.503H35.1738V21.6945H29.3937Z" fill="white"/>
<path fill-rule="evenodd" clip-rule="evenodd" d="M34.4872 22.6295C34.6118 22.7297 34.632 22.9124 34.5323 23.0377L32.0548 26.1498L30.1003 24.8404C29.9675 24.7515 29.9316 24.5711 30.0201 24.4377C30.1087 24.3042 30.2881 24.2682 30.4209 24.3571L31.9345 25.3711L34.081 22.6748C34.1807 22.5496 34.3625 22.5293 34.4872 22.6295Z" fill="white"/>
<path fill-rule="evenodd" clip-rule="evenodd" d="M27.9486 30.4072C27.9486 30.2468 28.078 30.1168 28.2376 30.1168H36.3297C36.4893 30.1168 36.6187 30.2468 36.6187 30.4072C36.6187 30.5676 36.4893 30.6977 36.3297 30.6977H28.2376C28.078 30.6977 27.9486 30.5676 27.9486 30.4072Z" fill="white"/>
<path fill-rule="evenodd" clip-rule="evenodd" d="M27.9486 32.1497C27.9486 31.9893 28.078 31.8593 28.2376 31.8593H36.3297C36.4893 31.8593 36.6187 31.9893 36.6187 32.1497C36.6187 32.3101 36.4893 32.4401 36.3297 32.4401H28.2376C28.078 32.4401 27.9486 32.3101 27.9486 32.1497Z" fill="white"/>
<path fill-rule="evenodd" clip-rule="evenodd" d="M1.64929 22.8563V25.4701L5.69534 27.7935V25.1797L1.64929 22.8563Z" fill="#2EC639"/>
<path fill-rule="evenodd" clip-rule="evenodd" d="M1.36023 22.3557L5.98429 25.011V28.2938L1.36023 25.6385V22.3557ZM1.93824 23.3566V25.3015L5.40628 27.2929V25.3481L1.93824 23.3566Z" fill="#2EC639"/>
<path d="M34.0177 16.0313H29.9717C29.6525 16.0313 29.3937 16.2913 29.3937 16.6121C29.3937 16.9329 29.6525 17.193 29.9717 17.193H34.0177C34.337 17.193 34.5957 16.9329 34.5957 16.6121C34.5957 16.2913 34.337 16.0313 34.0177 16.0313Z" fill="#2EC639"/>
<path fill-rule="evenodd" clip-rule="evenodd" d="M29.9717 16.3218C29.8121 16.3218 29.6827 16.4518 29.6827 16.6122C29.6827 16.7726 29.8121 16.9026 29.9717 16.9026H34.0178C34.1774 16.9026 34.3068 16.7726 34.3068 16.6122C34.3068 16.4518 34.1774 16.3218 34.0178 16.3218H29.9717ZM29.1047 16.6122C29.1047 16.131 29.4929 15.7409 29.9717 15.7409H34.0178C34.4966 15.7409 34.8848 16.131 34.8848 16.6122C34.8848 17.0934 34.4966 17.4835 34.0178 17.4835H29.9717C29.4929 17.4835 29.1047 17.0934 29.1047 16.6122Z" fill="#2EC639"/>
</svg>
