<svg width="32" height="36" viewBox="0 0 32 36" fill="none" xmlns="http://www.w3.org/2000/svg">
<path fill-rule="evenodd" clip-rule="evenodd" d="M8.60229 16.0793H23.9824V3.09275C23.9824 1.93696 23.0268 1 21.8479 1H10.7368C9.55795 1 8.60229 1.93696 8.60229 3.09275V16.0793Z" fill="#2EC639" stroke="#2EC639" stroke-width="0.7"/>
<path fill-rule="evenodd" clip-rule="evenodd" d="M5.67834 18.3727H21.0585V5.38622C21.0585 4.23043 20.1028 3.29347 18.924 3.29347H7.81285C6.634 3.29347 5.67834 4.23043 5.67834 5.38622V18.3727Z" fill="#2EC639" stroke="#2EC639" stroke-width="0.7"/>
<path d="M26.9065 10.1737H3.33918C2.04729 10.1737 1 11.2005 1 12.4671V32.7066C1 33.9732 2.04729 35 3.33918 35H26.9065C28.1984 35 29.2457 33.9732 29.2457 32.7066V12.4671C29.2457 11.2005 28.1984 10.1737 26.9065 10.1737Z" fill="#E1FCDF" stroke="#2EC639" stroke-width="0.7"/>
<path d="M9.02576 21.4402C8.2811 21.4402 7.67566 20.926 7.67566 20.2935C7.67566 19.661 8.2811 19.1468 9.02576 19.1468C9.5041 19.1468 10.0088 19.3542 10.4861 19.7461C11.0219 20.1864 11.8768 20.1748 12.3952 19.7192C12.9136 19.2641 12.8994 18.5385 12.3636 18.0982C11.6785 17.5347 10.9929 17.2162 10.3759 17.0424V15.7066C10.3759 15.0733 9.77148 14.5599 9.02576 14.5599C8.28004 14.5599 7.67566 15.0733 7.67566 15.7066V17.0505C6.10406 17.5239 4.97546 18.7987 4.97546 20.2935C4.97546 22.1905 6.79229 23.7336 9.02576 23.7336C9.7699 23.7336 10.3759 24.2479 10.3759 24.8804C10.3759 25.5128 9.7699 26.0271 9.02576 26.0271C8.4488 26.0271 7.82596 25.7189 7.27221 25.1594C6.79282 24.6748 5.9411 24.612 5.37047 25.0197C4.79931 25.4273 4.72601 26.1507 5.2054 26.6354C5.92738 27.3646 6.77594 27.8726 7.67566 28.1288V29.4672C7.67566 30.1006 8.28004 30.6139 9.02576 30.6139C9.77148 30.6139 10.3759 30.1006 10.3759 29.4672V28.1234C11.9469 27.6499 13.0761 26.3751 13.0761 24.8804C13.0761 22.9834 11.2592 21.4402 9.02576 21.4402Z" fill="#2EC639" stroke="#E1FCDF"/>
<path fill-rule="evenodd" clip-rule="evenodd" d="M21.5556 18.774C19.2463 18.774 17.3743 20.6095 17.3743 22.8735C17.3743 25.1376 19.2463 26.973 21.5556 26.973H28.8655C30.0444 26.973 31 26.0361 31 24.8803V20.8668C31 19.711 30.0444 18.774 28.8655 18.774H21.5556Z" fill="#2EC639" stroke="#2EC639" stroke-width="0.7"/>
<path opacity="0.755069" d="M20.9709 24.0203C21.6168 24.0203 22.1405 23.5069 22.1405 22.8736C22.1405 22.2403 21.6168 21.7269 20.9709 21.7269C20.3249 21.7269 19.8013 22.2403 19.8013 22.8736C19.8013 23.5069 20.3249 24.0203 20.9709 24.0203Z" fill="white" stroke="white"/>
</svg>
