<svg width="39" height="39" viewBox="0 0 39 39" fill="none" xmlns="http://www.w3.org/2000/svg">
<path d="M19.2022 1.07675C19.3927 0.971316 19.624 0.975001 19.8121 1.08477L37.6955 11.5682C37.8842 11.6786 38 11.8808 38 12.0998V37.3834C38 37.7244 37.7244 38 37.3834 38H34.3C33.959 38 33.6833 37.7244 33.6833 37.3834V15.7998H5.31665V37.3833C5.31665 37.7243 5.04038 38 4.70001 38H1.61664C1.27627 38 1 37.7243 1 37.3833V11.4831C1 11.2586 1.12213 11.0514 1.31884 10.9435L19.2022 1.07675Z" fill="#E1FCDF" stroke="#2EC639" stroke-width="0.7"/>
<path d="M19.134 26.6153H11.3274C10.9683 26.6153 10.6769 26.9061 10.6769 27.2659V35.0725C10.6769 35.4323 10.9683 35.723 11.3274 35.723H19.134C19.4938 35.723 19.7846 35.4323 19.7846 35.0725V27.2659C19.7846 26.9061 19.4938 26.6153 19.134 26.6153Z" fill="#2EC639" stroke="#2EC639" stroke-width="0.7"/>
<path d="M27.1034 18.6461H19.2968C18.937 18.6461 18.6462 18.9369 18.6462 19.2966V27.1033C18.6462 27.463 18.937 27.7538 19.2968 27.7538H27.1034C27.4632 27.7538 27.7539 27.463 27.7539 27.1033V19.2966C27.7539 18.9369 27.4632 18.6461 27.1034 18.6461Z" fill="#2EC639" stroke="#2EC639" stroke-width="0.7"/>
<path d="M24.3385 20.6384H22.0616C21.9044 20.6384 21.777 20.7659 21.777 20.923C21.777 21.0802 21.9044 21.2077 22.0616 21.2077H24.3385C24.4957 21.2077 24.6231 21.0802 24.6231 20.923C24.6231 20.7659 24.4957 20.6384 24.3385 20.6384Z" fill="#E1FCDF" stroke="#E1FCDF"/>
<path d="M16.3693 28.6077H14.0924C13.9352 28.6077 13.8077 28.7351 13.8077 28.8923C13.8077 29.0495 13.9352 29.1769 14.0924 29.1769H16.3693C16.5265 29.1769 16.6539 29.0495 16.6539 28.8923C16.6539 28.7351 16.5265 28.6077 16.3693 28.6077Z" fill="#E1FCDF" stroke="#E1FCDF"/>
</svg>
