<svg width="42" height="24" viewBox="0 0 42 24" fill="none" xmlns="http://www.w3.org/2000/svg">
<path d="M28.6324 0.228912C28.9917 0.228912 29.283 0.520681 29.283 0.880475V1.57544C29.283 1.98261 29.6137 2.31388 30.0202 2.31388C30.4268 2.31388 30.7575 1.98261 30.7575 1.57544V0.880475C30.7575 0.5206 31.0488 0.228912 31.408 0.228912H40.4283C41.1697 0.228912 41.7729 0.83293 41.7729 1.57544V22.4246C41.7729 23.1671 41.1698 23.7711 40.4285 23.7711H31.4082C31.0489 23.7711 30.7577 23.4794 30.7577 23.1196V22.4246C30.7577 22.0174 30.4269 21.6862 30.0204 21.6862C29.6139 21.6862 29.2831 22.0174 29.2831 22.4246V23.1196C29.2831 23.4795 28.9918 23.7711 28.6326 23.7711H1.57168C0.830353 23.7711 0.227295 23.1671 0.227295 22.4246V1.57544C0.227295 0.83293 0.830353 0.228912 1.57168 0.228912H28.6324Z" fill="#E1FCDF"/>
<path fill-rule="evenodd" clip-rule="evenodd" d="M1.57159 0.457766C0.954501 0.457766 0.454405 0.960554 0.454405 1.57541V22.4246C0.454405 23.0394 0.954501 23.5422 1.57159 23.5422H28.6325C28.8675 23.5422 29.0558 23.3518 29.0558 23.1196V22.4246C29.0558 21.8898 29.4895 21.4573 30.0203 21.4573C30.5511 21.4573 30.9848 21.8898 30.9848 22.4246V23.1196C30.9848 23.3517 31.1731 23.5422 31.4081 23.5422H40.4284C41.0455 23.5422 41.5456 23.0394 41.5456 22.4246V1.57541C41.5456 0.96059 41.0454 0.457766 40.4282 0.457766H31.4079C31.1729 0.457766 30.9846 0.648242 30.9846 0.880445V1.57541C30.9846 2.11024 30.5509 2.54273 30.0201 2.54273C29.4894 2.54273 29.0557 2.11024 29.0557 1.57541V0.880445C29.0557 0.648286 28.8674 0.457766 28.6324 0.457766H1.57159ZM0 1.57541C0 0.705247 0.706019 0 1.57159 0H28.6324C29.1159 0 29.5101 0.393017 29.5101 0.880445V1.57541C29.5101 1.85493 29.7379 2.08497 30.0201 2.08497C30.3024 2.08497 30.5302 1.85493 30.5302 1.57541V0.880445C30.5302 0.392898 30.9245 0 31.4079 0H40.4282C41.2938 0 42 0.705211 42 1.57541V22.4246C42 23.2948 41.294 24 40.4284 24H31.4081C30.9245 24 30.5304 23.607 30.5304 23.1196V22.4246C30.5304 22.1451 30.3026 21.915 30.0203 21.915C29.738 21.915 29.5102 22.1451 29.5102 22.4246V23.1196C29.5102 23.6071 29.116 24 28.6325 24H1.57159C0.70602 24 0 23.2948 0 22.4246V1.57541Z" fill="#2EC639"/>
<path d="M18.0789 13.3079C19.3317 13.3079 20.3509 14.3347 20.3509 15.5968C20.3509 16.8588 19.3317 17.8856 18.0789 17.8856C16.8262 17.8856 15.8069 16.8588 15.8069 15.5968C15.8069 14.3347 16.8261 13.3079 18.0789 13.3079Z" fill="#E1FCDF"/>
<path fill-rule="evenodd" clip-rule="evenodd" d="M18.0788 13.9619C17.1845 13.9619 16.4559 14.6959 16.4559 15.5967C16.4559 16.4976 17.1845 17.2316 18.0788 17.2316C18.973 17.2316 19.7016 16.4976 19.7016 15.5967C19.7016 14.6959 18.973 13.9619 18.0788 13.9619ZM15.1576 15.5967C15.1576 13.9736 16.4674 12.654 18.0788 12.654C19.69 12.654 20.9999 13.9735 20.9999 15.5967C20.9999 17.2199 19.69 18.5395 18.0788 18.5395C16.4675 18.5395 15.1576 17.2199 15.1576 15.5967Z" fill="#2EC639"/>
<path d="M12.2365 6.7684C13.4893 6.7684 14.5085 7.79521 14.5085 9.05723C14.5085 10.3193 13.4893 11.3461 12.2365 11.3461C10.9837 11.3461 9.96448 10.3193 9.96448 9.05723C9.96448 7.79521 10.9837 6.7684 12.2365 6.7684Z" fill="#E1FCDF"/>
<path fill-rule="evenodd" clip-rule="evenodd" d="M12.2365 7.42234C11.3422 7.42234 10.6136 8.15635 10.6136 9.05722C10.6136 9.95808 11.3422 10.6921 12.2365 10.6921C13.1307 10.6921 13.8594 9.95808 13.8594 9.05722C13.8594 8.15636 13.1307 7.42234 12.2365 7.42234ZM9.31531 9.05722C9.31531 7.43404 10.6251 6.11444 12.2365 6.11444C13.8478 6.11444 15.1577 7.43403 15.1577 9.05722C15.1577 10.6804 13.8478 12 12.2365 12C10.6252 12 9.31531 10.6804 9.31531 9.05722Z" fill="#2EC639"/>
<path fill-rule="evenodd" clip-rule="evenodd" d="M21.7835 5.32505C22.0371 5.58044 22.0371 5.99449 21.7835 6.24988L8.80055 19.3289C8.54704 19.5843 8.13602 19.5843 7.88251 19.3289C7.62901 19.0735 7.62901 18.6595 7.88251 18.4041L20.8655 5.32505C21.119 5.06967 21.53 5.06967 21.7835 5.32505Z" fill="#2EC639"/>
<path fill-rule="evenodd" clip-rule="evenodd" d="M30.0881 3.1716C30.2674 3.1716 30.4127 3.31799 30.4127 3.49858V6.11438C30.4127 6.29496 30.2674 6.44135 30.0881 6.44135C29.9089 6.44135 29.7635 6.29496 29.7635 6.11438V3.49858C29.7635 3.31799 29.9089 3.1716 30.0881 3.1716Z" fill="#2EC639"/>
<path fill-rule="evenodd" clip-rule="evenodd" d="M30.0881 7.74924C30.2674 7.74924 30.4127 7.89563 30.4127 8.07621V10.692C30.4127 10.8726 30.2674 11.019 30.0881 11.019C29.9089 11.019 29.7635 10.8726 29.7635 10.692V8.07621C29.7635 7.89563 29.9089 7.74924 30.0881 7.74924Z" fill="#2EC639"/>
<path fill-rule="evenodd" clip-rule="evenodd" d="M30.0881 12.327C30.2674 12.327 30.4127 12.4734 30.4127 12.654V15.2698C30.4127 15.4504 30.2674 15.5968 30.0881 15.5968C29.9089 15.5968 29.7635 15.4504 29.7635 15.2698V12.654C29.7635 12.4734 29.9089 12.327 30.0881 12.327Z" fill="#2EC639"/>
<path fill-rule="evenodd" clip-rule="evenodd" d="M30.0881 16.9046C30.2674 16.9046 30.4127 17.051 30.4127 17.2316V19.8474C30.4127 20.028 30.2674 20.1744 30.0881 20.1744C29.9089 20.1744 29.7635 20.028 29.7635 19.8474V17.2316C29.7635 17.051 29.9089 16.9046 30.0881 16.9046Z" fill="#2EC639"/>
</svg>
