<svg width="47" height="39" viewBox="0 0 47 39" fill="none" xmlns="http://www.w3.org/2000/svg">
<path d="M19.5265 38C29.7584 38 38.053 29.7173 38.053 19.5C38.053 9.28273 29.7584 1 19.5265 1C9.29459 1 1 9.28273 1 19.5C1 29.7173 9.29459 38 19.5265 38Z" fill="#2EC639" stroke="#2EC639" stroke-width="0.7"/>
<path opacity="0.505673" d="M34.9238 30.0643C41.041 30.0643 46 25.1125 46 19.004C46 12.8956 41.041 7.9437 34.9238 7.9437C28.8066 7.9437 23.8477 12.8956 23.8477 19.004C23.8477 25.1125 28.8066 30.0643 34.9238 30.0643Z" fill="white" stroke="#2EC639" stroke-width="0.7"/>
<path d="M19.5265 38C29.7584 38 38.053 29.7173 38.053 19.5C38.053 9.28273 29.7584 1 19.5265 1C9.29459 1 1 9.28273 1 19.5C1 29.7173 9.29459 38 19.5265 38Z" fill="#E1FCDF" stroke="#2EC639" stroke-width="0.7"/>
<path d="M34.9238 30.0643C41.041 30.0643 46 25.1125 46 19.004C46 12.8956 41.041 7.9437 34.9238 7.9437C28.8066 7.9437 23.8477 12.8956 23.8477 19.004C23.8477 25.1125 28.8066 30.0643 34.9238 30.0643Z" fill="#2EC639" stroke="#2EC639" stroke-width="0.7"/>
</svg>
