<svg width="41" height="29" viewBox="0 0 41 29" fill="none" xmlns="http://www.w3.org/2000/svg">
<path fill-rule="evenodd" clip-rule="evenodd" d="M28.1188 6.33585H35.1774C35.4024 6.33585 35.6081 6.46064 35.7087 6.65821L39.9372 14.96C39.9785 15.041 39.9999 15.1303 39.9999 15.2208V23.2473C39.9999 23.5693 39.734 23.8304 39.4059 23.8304H28.1188V6.33585Z" fill="#E1FCDF" stroke="#2EC639" stroke-width="0.7"/>
<path fill-rule="evenodd" clip-rule="evenodd" d="M27.9109 23.9179V1.9622C27.9109 1.43079 27.472 1 26.9307 1H2.09901C1.49204 1 1 1.48301 1 2.07883V22.9557C1 23.4871 1.43885 23.9179 1.9802 23.9179H27.9109Z" fill="#2EC639" stroke="#2EC639" stroke-width="0.7"/>
<path d="M9.40584 28C11.7517 28 13.6534 26.1332 13.6534 23.8305C13.6534 21.5277 11.7517 19.6609 9.40584 19.6609C7.06 19.6609 5.15833 21.5277 5.15833 23.8305C5.15833 26.1332 7.06 28 9.40584 28Z" fill="white" stroke="#2EC639" stroke-width="0.7"/>
<path d="M31.3861 28C33.7319 28 35.6336 26.1332 35.6336 23.8305C35.6336 21.5277 33.7319 19.6609 31.3861 19.6609C29.0402 19.6609 27.1385 21.5277 27.1385 23.8305C27.1385 26.1332 29.0402 28 31.3861 28Z" fill="white" stroke="#2EC639" stroke-width="0.7"/>
<path d="M9.40601 24.9968C10.0622 24.9968 10.5941 24.4746 10.5941 23.8305C10.5941 23.1864 10.0622 22.6642 9.40601 22.6642C8.74983 22.6642 8.2179 23.1864 8.2179 23.8305C8.2179 24.4746 8.74983 24.9968 9.40601 24.9968Z" fill="#2EC639" stroke="#2EC639"/>
<path d="M31.3861 24.9968C32.0423 24.9968 32.5742 24.4746 32.5742 23.8305C32.5742 23.1864 32.0423 22.6642 31.3861 22.6642C30.7299 22.6642 30.198 23.1864 30.198 23.8305C30.198 24.4746 30.7299 24.9968 31.3861 24.9968Z" fill="#2EC639" stroke="#2EC639"/>
<path fill-rule="evenodd" clip-rule="evenodd" d="M30.4951 9.25165H33.6923C33.9173 9.25165 34.123 9.37644 34.2236 9.57401L36.5998 14.2392C36.7466 14.5273 36.6276 14.8776 36.3342 15.0216C36.2517 15.0621 36.1607 15.0832 36.0685 15.0832H30.4951C30.167 15.0832 29.901 14.8221 29.901 14.5V9.8348C29.901 9.51273 30.167 9.25165 30.4951 9.25165Z" fill="white" stroke="#2EC639" stroke-width="0.7"/>
</svg>
