<svg width="36" height="30" viewBox="0 0 36 30" fill="none" xmlns="http://www.w3.org/2000/svg">
<path d="M0.606491 13.2353C4.8092 9.0361 9.0112 4.83621 13.2125 0.635606C13.3963 0.435072 13.6198 0.274995 13.8689 0.165566C14.1179 0.0561378 14.387 -0.000246577 14.659 8.10545e-07C14.931 0.000248198 15.2 0.0571193 15.4488 0.167001C15.6977 0.276882 15.9209 0.437362 16.1043 0.63823C16.4015 0.92606 16.6905 1.22215 16.9829 1.51489C17.2323 1.70062 17.435 1.942 17.5747 2.21982C17.7144 2.49764 17.7874 2.80423 17.7878 3.1152C17.7881 3.42618 17.716 3.73296 17.5769 4.01112C17.4379 4.28929 17.2359 4.53117 16.9869 4.71753C14.6744 7.02038 12.3612 9.32242 10.0473 11.6236C9.96582 11.7048 9.84995 11.769 9.82558 11.926H10.2625C17.9273 11.926 25.592 11.9264 33.2567 11.9271C33.5305 11.9148 33.8039 11.9595 34.0596 12.0583C34.3153 12.1571 34.5477 12.3079 34.7421 12.5011C34.9365 12.6944 35.0888 12.9258 35.1892 13.1809C35.2896 13.4359 35.336 13.709 35.3255 13.9829C35.3283 14.4887 35.3284 14.9943 35.3257 15.4999C35.334 15.7649 35.2877 16.0288 35.1897 16.2751C35.0917 16.5214 34.9441 16.745 34.7561 16.9319C34.5681 17.1187 34.3436 17.2649 34.0967 17.3614C33.8497 17.4578 33.5856 17.5025 33.3207 17.4925C25.6445 17.4913 17.9682 17.4912 10.292 17.4922C10.1655 17.4682 10.0347 17.489 9.92195 17.5509C10.2103 17.8538 10.4852 18.1546 10.7725 18.4428C12.8979 20.5751 15.0243 22.7065 17.1517 24.837C17.3509 25.0215 17.5099 25.2452 17.6186 25.4941C17.7273 25.743 17.7834 26.0116 17.7834 26.2832C17.7834 26.5548 17.7272 26.8234 17.6184 27.0723C17.5097 27.3211 17.3506 27.5448 17.1513 27.7292C16.8547 28.0337 16.552 28.3324 16.2512 28.6329C16.0635 28.8769 15.8223 29.0745 15.5462 29.2107C15.2701 29.3468 14.9665 29.4178 14.6586 29.4182C14.3508 29.4185 14.047 29.3482 13.7706 29.2127C13.4942 29.0772 13.2526 28.8801 13.0643 28.6366C8.97676 24.5496 4.88852 20.4633 0.799583 16.378C0.442085 16.0518 0.167925 15.6448 6.10352e-05 15.1909V14.2255C0.128236 13.8555 0.335134 13.5177 0.606491 13.2353Z" fill="#89A5BB"/>
</svg>
