<svg width="24" height="25" viewBox="0 0 24 25" fill="none" xmlns="http://www.w3.org/2000/svg">
<path d="M23.6863 9.10493C23.2697 8.69921 22.596 8.70101 22.1816 9.10888L9.39117 21.6987C7.73177 23.3233 5.03666 23.3233 3.37417 21.6966C1.71292 20.0693 1.71292 17.4307 3.37436 15.8041L16.5434 2.84361C17.5794 1.82938 19.2637 1.82938 20.3027 2.84581C21.3414 3.86273 21.3414 5.51154 20.3025 6.52875L9.39317 17.2092L9.39117 17.2113C8.97556 17.6159 8.30389 17.6154 7.88913 17.2093C7.47367 16.8026 7.47367 16.1434 7.88913 15.7366L13.155 10.5802C13.5704 10.1733 13.5704 9.51373 13.1548 9.10698C12.7393 8.70023 12.0655 8.70028 11.6501 9.10713L6.38429 14.2635C5.13786 15.4838 5.13786 17.4621 6.38439 18.6825C7.63087 19.9028 9.65162 19.9028 10.8982 18.6825C10.8996 18.6811 10.9021 18.6781 10.9021 18.6781L21.8072 8.00183C23.6772 6.17103 23.6772 3.20309 21.8072 1.37229C19.9369 -0.457432 16.9056 -0.457432 15.0367 1.37229L1.86763 14.3329C-0.622843 16.7712 -0.622843 20.7285 1.86943 23.1697C4.36334 25.6101 8.40554 25.6101 10.898 23.1699L23.6904 10.5781C24.1048 10.1702 24.1029 9.51065 23.6863 9.10493Z" fill="white"/>
</svg>
