<svg width="32" height="32" viewBox="0 0 32 32" fill="none" xmlns="http://www.w3.org/2000/svg">
<path d="M16 31.6C24.6156 31.6 31.6 24.6156 31.6 16C31.6 7.38432 24.6156 0.399963 16 0.399963C7.38432 0.399963 0.399963 7.38432 0.399963 16C0.399963 24.6156 7.38432 31.6 16 31.6Z" fill="#53B1FF"/>
<path fill-rule="evenodd" clip-rule="evenodd" d="M16 0.8C7.60527 0.8 0.8 7.60527 0.8 16C0.8 24.3947 7.60527 31.2 16 31.2C24.3947 31.2 31.2 24.3947 31.2 16C31.2 7.60527 24.3947 0.8 16 0.8ZM0 16C0 7.16344 7.16344 0 16 0C24.8366 0 32 7.16344 32 16C32 24.8366 24.8366 32 16 32C7.16344 32 0 24.8366 0 16Z" fill="#53B1FF"/>
<path d="M22.6008 11.3994C22.3353 11.1335 21.9048 11.1335 21.6392 11.3994L13.4924 19.5565L10.3609 16.4211C10.0953 16.1552 9.66479 16.1552 9.39919 16.4211C9.13362 16.6869 9.13362 17.118 9.39919 17.3839L13.0115 21.0007C13.277 21.2666 13.7078 21.2664 13.9732 21.0007L22.6008 12.3623C22.8664 12.0964 22.8664 11.6653 22.6008 11.3994Z" fill="white"/>
</svg>
