<svg width="100" height="100" viewBox="0 0 100 100" fill="none" xmlns="http://www.w3.org/2000/svg">
<path d="M70.4642 43.6605C69.7524 42.9626 68.6015 42.9657 67.8936 43.6673L46.0433 65.3218C43.2084 68.1161 38.6043 68.1161 35.7642 65.3181C32.9262 62.5192 32.9262 57.9809 35.7645 55.1831L58.2616 32.891C60.0315 31.1465 62.9089 31.1465 64.6839 32.8948C66.4583 34.6439 66.4583 37.4799 64.6834 39.2295L46.0467 57.5997L46.0433 57.6034C45.3333 58.2994 44.1858 58.2985 43.4773 57.6001C42.7675 56.9005 42.7675 55.7666 43.4773 55.067L52.4731 46.1979C53.1828 45.4981 53.1827 44.3636 52.4728 43.664C51.7629 42.9644 50.612 42.9645 49.9022 43.6643L40.9065 52.5332C38.7772 54.6321 38.7772 58.0349 40.9067 60.1339C43.0361 62.2328 46.4882 62.2328 48.6177 60.1339C48.6202 60.1314 48.6245 60.1264 48.6245 60.1264L67.2539 41.7631C70.4486 38.6142 70.4486 33.5093 67.2539 30.3603C64.0589 27.2132 58.8804 27.2132 55.6876 30.3603L33.1905 52.6526C28.936 56.8464 28.936 63.653 33.1936 67.8519C37.454 72.0493 44.3595 72.0493 48.6173 67.8523L70.4711 46.1943C71.179 45.4927 71.1759 44.3583 70.4642 43.6605Z" fill="#E4E5EF"/>
</svg>
