<?xml version="1.0" encoding="UTF-8"?>
<svg width="374px" height="317px" viewBox="0 0 374 317" version="1.1" xmlns="http://www.w3.org/2000/svg" xmlns:xlink="http://www.w3.org/1999/xlink">
    <!-- Generator: Sketch 61 (89581) - https://sketch.com -->
    <title>icon_show</title>
    <desc>Created with Sketch.</desc>
    <g id="icon_show" stroke="none" stroke-width="1" fill="none" fill-rule="evenodd">
        <g id="view-(2)" transform="translate(6.000000, 43.000000)" fill="#53B1FF" fill-rule="nonzero">
            <path d="M359.699667,108.450631 C356.465697,104.02146 279.411084,0 180.998409,0 C82.5857341,0 5.52758651,104.02146 2.29715126,108.446384 C-0.765717087,112.648327 -0.765717087,118.347425 2.29715126,122.549369 C5.52758651,126.97854 82.5857341,231 180.998409,231 C279.411084,231 356.465697,126.977832 359.699667,122.552908 C362.766778,118.351673 362.766778,112.648327 359.699667,108.450631 Z M180.998409,207.10357 C108.50699,207.10357 45.7217238,138.06244 27.1359389,115.491859 C45.6976847,92.9014583 108.351442,23.8964297 180.998409,23.8964297 C253.486293,23.8964297 316.267317,92.9255261 334.860879,115.508141 C316.299134,138.097834 253.645376,207.10357 180.998409,207.10357 Z" id="Shape"></path>
        </g>
        <path d="M187,101 C155.019393,101 129,127.019393 129,159 C129,190.980607 155.019393,217 187,217 C218.980607,217 245,190.980607 245,159 C245,127.019393 218.980607,101 187,101 Z M187,198 C165.494431,198 148,180.504991 148,159 C148,137.495009 165.495009,120 187,120 C208.504991,120 226,137.495009 226,159 C226,180.504991 208.505569,198 187,198 Z" id="Shape" fill="#53B1FF" fill-rule="nonzero"></path>
    </g>
</svg>