<svg width="26px" height="26px" viewBox="0 0 26 26" version="1.1" xmlns="http://www.w3.org/2000/svg" xmlns:xlink="http://www.w3.org/1999/xlink">
    <path d="M25.3306523,4.34723047 L21.6528203,0.669296875 C21.2212305,0.23765625 20.6473516,0 20.0369609,0 C19.5830273,0 7.40217969,0 6.85546875,0 L2.28515625,0 C1.02512109,0 0,1.02512109 0,2.28515625 L0,23.7148438 C0,24.9748789 1.02512109,26 2.28515625,26 C3.410875,26 22.8303867,26 23.7148438,26 C24.9748789,26 26,24.9748789 26,23.7148438 L26,5.96303906 C26,5.35269922 25.762293,4.77882031 25.3306523,4.34723047 Z M7.6171875,1.5234375 L15.3359375,1.5234375 L15.3359375,5.33203125 C15.3359375,5.75270313 15.6769844,6.09375 16.0976562,6.09375 C16.5183281,6.09375 16.859375,5.75270313 16.859375,5.33203125 L16.859375,1.5234375 L18.3828125,1.5234375 L18.3828125,6.85546875 C18.3828125,7.27548047 18.0411055,7.6171875 17.6210938,7.6171875 L8.37890625,7.6171875 C7.95889453,7.6171875 7.6171875,7.27548047 7.6171875,6.85546875 L7.6171875,1.5234375 Z M19.90625,24.4765625 L6.09375,24.4765625 L6.09375,16.859375 L19.90625,16.859375 L19.90625,24.4765625 Z M19.90625,15.3359375 L6.09375,15.3359375 L6.09375,14.5742188 C6.09375,14.154207 6.43545703,13.8125 6.85546875,13.8125 L19.1445312,13.8125 C19.564543,13.8125 19.90625,14.154207 19.90625,14.5742188 L19.90625,15.3359375 Z M24.4765625,23.7148438 C24.4765625,24.1348555 24.1348555,24.4765625 23.7148438,24.4765625 L21.4296875,24.4765625 L21.4296875,14.5742188 C21.4296875,13.3141836 20.4045664,12.2890625 19.1445312,12.2890625 L6.85546875,12.2890625 C5.59543359,12.2890625 4.5703125,13.3141836 4.5703125,14.5742188 L4.5703125,24.4765625 L2.28515625,24.4765625 C1.86514453,24.4765625 1.5234375,24.1348555 1.5234375,23.7148438 L1.5234375,2.28515625 C1.5234375,1.86514453 1.86514453,1.5234375 2.28515625,1.5234375 L6.09375,1.5234375 L6.09375,6.85546875 C6.09375,8.11550391 7.11887109,9.140625 8.37890625,9.140625 L17.6210938,9.140625 C18.8811289,9.140625 19.90625,8.11550391 19.90625,6.85546875 L19.90625,1.5234375 L20.0369102,1.5234375 C20.2403906,1.5234375 20.4316836,1.60265625 20.5755469,1.74651953 L24.2534297,5.42445313 C24.397293,5.56831641 24.4765625,5.75960938 24.4765625,5.96303906 L24.4765625,23.7148438 Z" id="Shape"></path>
</svg>