<svg xmlns="http://www.w3.org/2000/svg" width="61.88" height="61.88" viewBox="0 0 61.88 61.88"><title>Asset 1</title><g id="Layer_2" data-name="Layer 2"><g id="Layer_1-2" data-name="Layer 1"><path d="M61.88,30.94A30.94,30.94,0,1,1,30.94,0,30.94,30.94,0,0,1,61.88,30.94" style="fill:#00b900"/><path d="M31,12.5c-1.08,0-2.17,0-3.26.12A42,42,0,0,0,15.47,15a2,2,0,0,0-1.22,1.81V35.24c0,9.39,12.86,15,16,16.21a1.88,1.88,0,0,0,1.4,0c3.18-1.23,16-6.82,16-16.21V16.83A2,2,0,0,0,46.49,15a41.87,41.87,0,0,0-12.25-2.4c-1.08-.08-2.17-.12-3.26-.12" style="fill:#fff"/><path d="M35.72,34.23H29.27V22.52a.66.66,0,0,0-.65-.66H26.24a.67.67,0,0,0-.66.66V37.26h0a.64.64,0,0,0,.19.46h0a.63.63,0,0,0,.45.18h9.48a.65.65,0,0,0,.66-.66V34.89a.66.66,0,0,0-.66-.66" style="fill:#00b900"/></g></g></svg>