<svg width="100" height="100" viewBox="0 0 100 100" fill="none" xmlns="http://www.w3.org/2000/svg">
<path fill-rule="evenodd" clip-rule="evenodd" d="M68.3871 33.1413C68.3871 30.3075 66.1068 28 63.3062 28H32.8224C30.0223 28 27.7419 30.3075 27.7419 33.1413V55.7617C27.7419 58.5956 30.0223 60.9031 32.8224 60.9031L58.1018 60.9032C57.7654 59.8096 57.5838 58.6454 57.5838 57.4381C57.5838 52.92 60.1265 49.0048 63.8123 47.1377L57.9027 40.1597C57.2217 39.3516 56.236 38.9197 55.1773 38.8953C54.1246 38.9013 53.137 39.3742 52.4624 40.1928L44.9144 49.3601L42.4554 46.878C41.0656 45.4716 38.8035 45.4716 37.4155 46.878L31.8066 52.5517V33.1413C31.8066 32.5735 32.2617 32.113 32.8224 32.113H63.3062C63.8674 32.113 64.3225 32.5735 64.3225 33.1413L64.3223 46.8957C65.5757 46.3404 66.9473 46.0166 68.3864 45.9769L68.3871 33.1413ZM38.2346 42.3693C40.4208 42.3693 42.1984 40.5791 42.1984 38.3778C42.1984 36.1766 40.4208 34.3864 38.2346 34.3864C36.0484 34.3864 34.2704 36.1766 34.2704 38.3778C34.2704 40.5791 36.0484 42.3693 38.2346 42.3693ZM32.8141 63.2678C29.5316 63.2678 26.6117 61.1612 25.5514 58.025L25.4797 57.7887C25.2296 56.9581 25.1249 56.2597 25.1249 55.5609V41.5484L20.1505 58.1913C19.5108 60.6392 20.9686 63.1771 23.4147 63.8533L55.1212 72.3641C55.5169 72.4668 55.9126 72.5161 56.3024 72.5161C58.3444 72.5161 60.2104 71.1576 60.7334 69.1556L62.5806 63.2678H32.8141Z" fill="#E4E5EF"/>
<path fill-rule="evenodd" clip-rule="evenodd" d="M80 58C80 64.9481 74.3675 70.5806 67.4194 70.5806C60.4713 70.5806 54.8387 64.9481 54.8387 58C54.8387 51.0519 60.4713 45.4194 67.4194 45.4194C74.3675 45.4194 80 51.0519 80 58ZM67.4194 50.7245L72.5094 55.8146L71.1408 57.1832L68.3857 54.4281V64.7755H66.4502V54.4309L63.698 57.1832L62.3294 55.8146L67.4194 50.7245Z" fill="#53B1FF"/>
</svg>
