<svg width="16" height="16" viewBox="0 0 16 16" fill="none" xmlns="http://www.w3.org/2000/svg">
<path fill-rule="evenodd" clip-rule="evenodd" d="M7.15141 9.11033L0 9.11021V14.9647C0 15.5365 0.452861 16 1.01149 16H14.9885C15.5471 16 16 15.5365 16 14.9647V1.03529C16 0.463517 15.5471 0 14.9885 0H1.01149C0.452861 0 0 0.463517 0 1.03529V6.88922L7.1514 6.88923L4.93571 4.89551C4.80865 4.78078 4.73564 4.61558 4.73564 4.44229V3.42588C4.73564 3.18806 4.87198 2.97229 5.0833 2.87599C5.1591 2.84107 5.23949 2.82353 5.32182 2.82353C5.46619 2.82353 5.60642 2.87815 5.71461 2.97838L10.6574 7.55254C10.7801 7.66692 10.8506 7.82976 10.8506 7.9998C10.8506 8.16985 10.7801 8.33268 10.6571 8.4473L5.71511 13.0208C5.54386 13.1816 5.29629 13.2213 5.08363 13.1238C4.87198 13.0273 4.73564 12.8115 4.73564 12.5737V11.5573C4.73564 11.384 4.80864 11.2188 4.93583 11.1039L7.15141 9.11033Z" fill="white"/>
</svg>
