<?xml version="1.0" encoding="UTF-8" standalone="no"?>
<svg
   xmlns:dc="http://purl.org/dc/elements/1.1/"
   xmlns:cc="http://creativecommons.org/ns#"
   xmlns:rdf="http://www.w3.org/1999/02/22-rdf-syntax-ns#"
   xmlns:svg="http://www.w3.org/2000/svg"
   xmlns="http://www.w3.org/2000/svg"
   viewBox="0 0 1122.52 793.70667"
   height="793.70667"
   width="1122.52"
   xml:space="preserve"
   id="svg2"
   version="1.1"><metadata
     id="metadata8"><rdf:RDF><cc:Work
         rdf:about=""><dc:format>image/svg+xml</dc:format><dc:type
           rdf:resource="http://purl.org/dc/dcmitype/StillImage" /></cc:Work></rdf:RDF></metadata><defs
     id="defs6"><clipPath
       id="clipPath22"
       clipPathUnits="userSpaceOnUse"><path
         id="path20"
         d="M 0,595.28 H 841.89 V 0 H 0 Z" /></clipPath></defs><g
     transform="matrix(1.3333333,0,0,-1.3333333,0,793.70667)"
     id="g10"><path
       id="path12"
       style="fill:#98867d;fill-opacity:1;fill-rule:nonzero;stroke:none"
       d="M 0,0 H 841.89 V 297.64 H 0 Z" /><path
       id="path14"
       style="fill:#ed1c2e;fill-opacity:1;fill-rule:nonzero;stroke:none"
       d="M 542.775,441.26 H 112.278 v 6.198 h 430.497 z" /><g
       id="g16"><g
         clip-path="url(#clipPath22)"
         id="g18"><g
           transform="translate(728.2402,447.3786)"
           id="g24"><path
             id="path26"
             style="fill:#ffffff;fill-opacity:1;fill-rule:nonzero;stroke:none"
             d="m 0,0 c 0,-39.507 -32.027,-71.525 -71.539,-71.525 -39.498,0 -71.534,32.018 -71.534,71.525 0,39.498 32.036,71.516 71.534,71.516 C -32.027,71.516 0,39.498 0,0" /></g><g
           transform="translate(692.7676,410.3606)"
           id="g28"><path
             id="path30"
             style="fill:#99877d;fill-opacity:1;fill-rule:nonzero;stroke:none"
             d="m 0,0 c -3.338,1.687 -6.785,3.438 -12.042,3.438 -4.656,0 -8.385,-1.724 -11.981,-3.375 -3.766,-1.741 -7.686,-3.546 -12.879,-3.546 -4.575,0 -8.039,1.609 -11.701,3.306 -3.788,1.75 -7.707,3.578 -12.963,3.578 -4.658,0 -8.377,-1.705 -11.992,-3.31 -3.793,-1.715 -7.726,-3.484 -12.932,-3.484 -0.291,0 -0.56,0.01 -0.815,0.01 0.524,-0.651 1.065,-1.305 1.642,-1.955 5.207,0.168 9.122,1.945 12.905,3.642 3.597,1.6 6.972,3.133 11.192,3.133 4.829,0 8.384,-1.642 12.131,-3.383 3.684,-1.715 7.513,-3.488 12.533,-3.488 5.639,0 9.731,1.883 13.701,3.729 3.565,1.623 6.939,3.178 11.159,3.178 4.793,0 7.886,-1.569 11.155,-3.215 3.57,-1.809 7.271,-3.692 13.328,-3.701 0.587,0.645 1.164,1.323 1.697,2.005 C 13.633,-3.474 13.092,-3.492 12.551,-3.492 6.894,-3.492 3.392,-1.724 0,0" /></g><g
           transform="translate(680.7246,410.094)"
           id="g32"><path
             id="path34"
             style="fill:#99877d;fill-opacity:1;fill-rule:nonzero;stroke:none"
             d="m 0,0 c -4.652,0 -8.386,-1.714 -11.982,-3.365 -3.766,-1.741 -7.681,-3.538 -12.878,-3.538 -4.576,0 -8.036,1.601 -11.697,3.288 -3.792,1.769 -7.708,3.57 -12.968,3.57 -4.653,0 -8.372,-1.687 -11.988,-3.311 -3.223,-1.441 -6.539,-2.933 -10.622,-3.351 0.541,-0.587 1.101,-1.169 1.678,-1.755 3.711,0.609 6.758,1.987 9.74,3.328 3.598,1.619 6.976,3.147 11.192,3.147 4.834,0 8.384,-1.655 12.131,-3.397 3.689,-1.714 7.517,-3.488 12.534,-3.488 5.638,0 9.735,1.901 13.705,3.72 3.56,1.651 6.934,3.188 11.155,3.188 4.797,0 7.885,-1.569 11.154,-3.215 2.869,-1.456 5.843,-2.956 10.054,-3.497 0.596,0.595 1.174,1.196 1.751,1.801 -4.725,0.313 -7.881,1.9 -10.918,3.437 C 8.703,-1.75 5.256,0 0,0" /></g><g
           transform="translate(680.7246,406.3904)"
           id="g36"><path
             id="path38"
             style="fill:#99877d;fill-opacity:1;fill-rule:nonzero;stroke:none"
             d="m 0,0 c -4.652,0 -8.386,-1.714 -11.982,-3.374 -3.766,-1.733 -7.681,-3.538 -12.878,-3.538 -4.576,0 -8.036,1.6 -11.697,3.306 -3.792,1.751 -7.708,3.569 -12.968,3.569 -4.653,0 -8.372,-1.677 -11.988,-3.31 -2.345,-1.069 -4.752,-2.132 -7.48,-2.815 0.578,-0.527 1.128,-1.041 1.715,-1.555 2.355,0.71 4.474,1.651 6.561,2.592 3.598,1.61 6.976,3.138 11.192,3.138 4.834,0 8.384,-1.656 12.131,-3.388 3.689,-1.705 7.517,-3.479 12.534,-3.479 5.638,0 9.735,1.883 13.705,3.711 3.56,1.637 6.934,3.187 11.155,3.187 4.797,0 7.885,-1.568 11.154,-3.214 2.078,-1.056 4.174,-2.115 6.753,-2.833 0.6,0.518 1.187,1.041 1.764,1.582 -3.001,0.655 -5.348,1.837 -7.63,2.992 C 8.703,-1.751 5.256,0 0,0" /></g><g
           transform="translate(680.7246,402.6872)"
           id="g40"><path
             id="path42"
             style="fill:#99877d;fill-opacity:1;fill-rule:nonzero;stroke:none"
             d="m 0,0 c -4.652,0 -8.386,-1.715 -11.982,-3.375 -3.766,-1.732 -7.681,-3.519 -12.878,-3.519 -4.576,0 -8.036,1.591 -11.697,3.288 -3.792,1.759 -7.708,3.578 -12.968,3.578 -4.653,0 -8.372,-1.687 -11.988,-3.31 -1.423,-0.641 -2.86,-1.301 -4.369,-1.842 0.586,-0.487 1.178,-0.959 1.782,-1.409 1.156,0.459 2.292,0.959 3.383,1.473 3.598,1.61 6.976,3.133 11.192,3.133 4.834,0 8.384,-1.642 12.131,-3.392 3.689,-1.715 7.517,-3.488 12.534,-3.488 5.638,0 9.735,1.901 13.705,3.719 3.56,1.642 6.934,3.197 11.155,3.197 4.797,0 7.885,-1.559 11.154,-3.224 1.146,-0.577 2.301,-1.163 3.542,-1.696 0.615,0.455 1.21,0.914 1.806,1.396 -1.619,0.605 -3.056,1.342 -4.461,2.042 C 8.703,-1.742 5.256,0 0,0" /></g><g
           transform="translate(680.7246,398.9836)"
           id="g44"><path
             id="path46"
             style="fill:#99877d;fill-opacity:1;fill-rule:nonzero;stroke:none"
             d="m 0,0 c -4.652,0 -8.386,-1.697 -11.982,-3.356 -3.766,-1.742 -7.681,-3.556 -12.878,-3.556 -4.576,0 -8.036,1.619 -11.697,3.315 -3.792,1.76 -7.708,3.569 -12.968,3.569 -4.653,0 -8.372,-1.678 -11.988,-3.301 -0.409,-0.195 -0.827,-0.382 -1.246,-0.559 0.606,-0.446 1.229,-0.892 1.847,-1.319 0.082,0.027 0.137,0.063 0.195,0.091 3.598,1.614 6.976,3.133 11.192,3.133 4.834,0 8.384,-1.642 12.131,-3.383 3.689,-1.724 7.517,-3.479 12.534,-3.479 5.638,0 9.735,1.892 13.705,3.701 3.56,1.651 6.934,3.197 11.155,3.197 4.797,0 7.885,-1.555 11.154,-3.223 0.151,-0.069 0.286,-0.142 0.446,-0.214 0.595,0.409 1.205,0.837 1.819,1.273 -0.46,0.223 -0.923,0.459 -1.378,0.691 C 8.703,-1.742 5.256,0 0,0" /></g><g
           transform="translate(668.7432,391.9226)"
           id="g48"><path
             id="path50"
             style="fill:#99877d;fill-opacity:1;fill-rule:nonzero;stroke:none"
             d="m 0,0 c -3.766,-1.742 -7.681,-3.534 -12.878,-3.534 -4.575,0 -8.04,1.597 -11.696,3.302 -3.792,1.76 -7.712,3.569 -12.969,3.569 -3.774,0 -6.953,-1.118 -9.954,-2.405 0.69,-0.436 1.364,-0.85 2.059,-1.26 2.47,0.987 4.989,1.715 7.895,1.715 4.834,0 8.385,-1.646 12.132,-3.384 3.688,-1.732 7.513,-3.492 12.533,-3.492 5.639,0 9.735,1.892 13.705,3.72 3.561,1.637 6.935,3.187 11.154,3.187 3.366,0 5.908,-0.777 8.249,-1.818 0.678,0.391 1.351,0.809 2.01,1.218 C 19.431,2.178 16.324,3.374 11.981,3.374 7.325,3.374 3.597,1.66 0,0" /></g><g
           transform="translate(656.2021,382.6862)"
           id="g52"><path
             id="path54"
             style="fill:#ed1c2e;fill-opacity:1;fill-rule:nonzero;stroke:none"
             d="m 0,0 c -35.979,0 -65.163,29.185 -65.163,65.181 0,35.988 29.184,65.164 65.163,65.164 35.987,0 65.173,-29.176 65.173,-65.164 C 65.173,29.185 35.987,0 0,0 m 0,142.718 c -42.836,0 -77.546,-34.71 -77.546,-77.537 0,-42.827 34.71,-77.546 77.546,-77.546 42.827,0 77.555,34.719 77.555,77.546 0,42.827 -34.728,77.537 -77.555,77.537" /></g><g
           transform="translate(692.4658,467.0959)"
           id="g56"><path
             id="path58"
             style="fill:#00a94f;fill-opacity:1;fill-rule:nonzero;stroke:none"
             d="m 0,0 c -0.478,-2.415 -2.947,-4.966 -4.289,-6.039 -3.037,-2.442 -23.1,-14.701 -25.364,-17.548 -2.27,-2.819 -2.652,-6.985 -2.652,-10.191 l -0.005,-23.577 h 3.124 v 6.134 c -0.017,2.115 1.183,5.356 3.652,7.926 4.147,4.333 13.728,9.758 20.009,14.324 5.248,3.847 5.588,9.067 5.588,13.587 v 16.13 z" /></g><g
           transform="translate(660.1807,444.9543)"
           id="g60"><path
             id="path62"
             style="fill:#00a94f;fill-opacity:1;fill-rule:nonzero;stroke:none"
             d="m 0,0 c 2.229,2.787 22.905,15.42 25.87,17.843 2.987,2.406 6.44,6.121 6.44,10.755 V 55.013 C 32.31,51.307 30.24,48.447 27.553,44.95 24.487,40.971 10.577,33.432 3.702,28.598 -3.16,23.778 -5.562,18.944 -5.562,13 v -48.215 h 3.093 v 25.197 C -2.469,-6.867 -2.228,-2.779 0,0" /></g><g
           transform="translate(644.4609,472.2654)"
           id="g64"><path
             id="path66"
             style="fill:#00a94f;fill-opacity:1;fill-rule:nonzero;stroke:none"
             d="m 0,0 c -6.316,4.815 -19.176,15.233 -20.677,17.266 -1.473,2.051 -4.82,5.752 -4.82,10.213 V 2.964 c 0,-3.515 1.678,-9.84 7.812,-14.296 6.121,-4.452 14.72,-10.95 17.312,-13.565 2.619,-2.592 5.002,-7.262 5.002,-13.96 v -23.669 h 3.069 v 47.17 C 7.698,-7.735 6.316,-4.83 0,0" /></g><g
           transform="translate(282.7607,426.8449)"
           id="g68"><path
             id="path70"
             style="fill:#98867d;fill-opacity:1;fill-rule:nonzero;stroke:none"
             d="m 0,0 h -6.289 c 0,0 -7.485,-9.404 -7.853,-9.868 V 0 h -5.343 v -24.124 h 5.343 v 10.573 c 0.341,-0.464 8.167,-10.573 8.167,-10.573 h 6.812 c 0,0 -10.332,12.792 -10.473,12.96 C -9.518,-11.023 0.332,0 0.332,0 Z" /></g><g
           transform="translate(312.2119,420.2195)"
           id="g72"><path
             id="path74"
             style="fill:#98867d;fill-opacity:1;fill-rule:nonzero;stroke:none"
             d="m 0,0 c 0,-3.661 2.355,-5.312 5.889,-6.662 0.018,0 0.418,-0.141 0.418,-0.141 1.951,-0.682 3.988,-1.405 3.979,-3.606 0,-1.651 -1.1,-3.347 -3.224,-3.347 -2.233,0 -3.893,1.756 -4.511,3.383 l -0.082,0.223 -3.501,-3.156 0.063,-0.077 c 2.001,-3.11 4.825,-4.725 8.126,-4.725 5.253,0 8.636,3.238 8.636,8.258 0,4.779 -3.625,6.189 -6.54,7.326 -2.096,0.81 -3.737,1.451 -3.737,3.02 0,1.546 1.582,2.596 3.047,2.596 1.509,0 2.732,-0.65 3.755,-1.901 l 0.123,-0.168 2.524,3.451 -0.054,0.082 C 13.232,6.243 9.931,7.267 7.689,7.267 3.315,7.267 0,4.138 0,0" /></g><g
           transform="translate(338.8389,426.8449)"
           id="g76"><path
             id="path78"
             style="fill:#98867d;fill-opacity:1;fill-rule:nonzero;stroke:none"
             d="M 0,0 H -5.18 V -24.124 H 0.15 L 0.15,0 Z" /></g><g
           transform="translate(365.1724,426.8449)"
           id="g80"><path
             id="path82"
             style="fill:#98867d;fill-opacity:1;fill-rule:nonzero;stroke:none"
             d="m 0,0 h -6.307 c 0,0 -7.494,-9.404 -7.849,-9.868 V 0 h -5.339 v -24.124 h 5.339 v 10.573 c 0.355,-0.464 8.154,-10.573 8.154,-10.573 h 6.83 c 0,0 -10.359,12.792 -10.473,12.96 C -9.541,-11.023 0.318,0 0.318,0 Z" /></g><g
           transform="translate(420.9751,427.4841)"
           id="g84"><path
             id="path86"
             style="fill:#98867d;fill-opacity:1;fill-rule:nonzero;stroke:none"
             d="m 0,0 h -3.756 v -24.76 h 5.33 V -8.704 C 1.919,-9.14 15.097,-25.233 15.097,-25.233 h 3.847 V -0.641 H 13.596 V -16.529 C 13.26,-16.093 0.073,0 0.073,0 Z" /></g><g
           transform="translate(496.6191,427.4841)"
           id="g88"><path
             id="path90"
             style="fill:#98867d;fill-opacity:1;fill-rule:nonzero;stroke:none"
             d="M 0,0 H -3.756 V -24.76 H 1.573 V -8.704 C 1.928,-9.14 15.088,-25.233 15.088,-25.233 h 3.856 v 24.592 h -5.33 V -16.529 C 13.26,-16.093 0.082,0 0.082,0 Z" /></g><g
           transform="translate(541.2666,426.8449)"
           id="g92"><path
             id="path94"
             style="fill:#98867d;fill-opacity:1;fill-rule:nonzero;stroke:none"
             d="m 0,0 h -6.271 c 0,0 -7.512,-9.404 -7.867,-9.868 V 0 h -5.339 v -24.124 h 5.339 v 10.573 c 0.346,-0.464 8.154,-10.573 8.154,-10.573 h 6.82 c 0,0 -10.331,12.792 -10.472,12.96 C -9.514,-11.023 0.336,0 0.336,0 Z" /></g><g
           transform="translate(296.8291,420.0324)"
           id="g96"><path
             id="path98"
             style="fill:#98867d;fill-opacity:1;fill-rule:nonzero;stroke:none"
             d="M 0,0 C 0.223,-0.542 2.965,-7.94 3.083,-8.217 H -2.692 C -2.583,-7.867 -0.141,-0.496 0,0 m 2.21,7.453 h -4.006 l -10.227,-24.765 h 5.661 c 0,0 2.065,4.911 2.128,5.048 h 8.817 c 0.069,-0.205 1.997,-5.048 1.997,-5.048 h 5.675 L 2.328,7.453 Z" /></g><g
           transform="translate(373.2549,408.8152)"
           id="g100"><path
             id="path102"
             style="fill:#98867d;fill-opacity:1;fill-rule:nonzero;stroke:none"
             d="m 0,0 c -1.787,1.614 -2.947,4.051 -2.947,6.179 0,3.689 3.01,7.631 7.485,7.631 1.81,0 3.492,-0.646 4.857,-1.892 1.627,-1.464 2.587,-3.597 2.587,-5.711 0,-3.656 -3.333,-8.081 -7.48,-8.081 C 2.478,-1.874 0.95,-0.846 0,0 m -8.463,6.029 c 0,-3.624 1.51,-7.062 4.13,-9.422 2.387,-2.178 5.452,-3.315 8.871,-3.315 7.399,0 12.951,5.457 12.951,12.701 0,3.565 -1.501,6.966 -4.138,9.354 -2.383,2.178 -5.439,3.32 -8.849,3.32 -7.262,0 -12.965,-5.557 -12.965,-12.638" /></g><g
           transform="translate(401.3022,422.7946)"
           id="g104"><path
             id="path106"
             style="fill:#98867d;fill-opacity:1;fill-rule:nonzero;stroke:none"
             d="m 0,0 c 1.828,0 2.956,-0.282 3.661,-0.923 0.432,-0.391 0.691,-0.905 0.814,-1.582 0.045,-0.264 0.064,-0.56 0.064,-0.86 0,-2.506 -1.388,-3.552 -4.63,-3.552 H -0.578 V 0 Z m -5.798,4.052 h -0.127 v -24.124 h 5.347 v 9.422 c 0.355,-0.559 6.148,-9.422 6.148,-9.422 h 6.44 c 0,0 -7.162,9.859 -7.349,10.122 3.565,0.66 5.216,3.884 5.216,6.672 0,0.568 -0.055,1.1 -0.118,1.609 C 9.486,-0.168 8.835,1.055 7.835,1.987 6.316,3.356 4.034,4.052 1.042,4.052 Z" /></g><g
           transform="translate(452.3809,422.8571)"
           id="g108"><path
             id="path110"
             style="fill:#98867d;fill-opacity:1;fill-rule:nonzero;stroke:none"
             d="m 0,0 c 1.296,0 2.169,-0.241 2.71,-0.728 0.363,-0.345 0.609,-0.818 0.709,-1.414 0.055,-0.236 0.063,-0.505 0.063,-0.782 0,-2.238 -0.927,-3.02 -3.564,-3.02 h -0.441 c 0,0.277 -0.019,5.739 0,5.944 z m 0.168,-9.745 c 1.751,0 3.393,-0.068 4.333,-0.932 0.392,-0.365 0.633,-0.823 0.746,-1.428 0.046,-0.223 0.064,-0.464 0.064,-0.719 0,-3.055 -2.337,-3.306 -4.939,-3.306 h -0.895 c 0,0.277 0,6.189 -0.019,6.385 z M -5.758,3.988 h -0.104 v -24.124 h 8.098 c 5.267,0 8.405,2.596 8.405,6.885 0,0.436 -0.019,0.859 -0.11,1.305 -0.373,2.178 -1.737,4.202 -4.206,4.734 1.569,1.041 2.155,3.001 2.155,4.565 0,0.568 -0.049,1.128 -0.131,1.624 C 8.126,0.336 7.548,1.405 6.68,2.209 5.356,3.401 3.347,3.988 0.541,3.988 Z" /></g><g
           transform="translate(477.3906,420.0324)"
           id="g112"><path
             id="path114"
             style="fill:#98867d;fill-opacity:1;fill-rule:nonzero;stroke:none"
             d="M 0,0 C 0.214,-0.542 2.956,-7.94 3.065,-8.217 H -2.701 C -2.592,-7.867 -0.159,-0.496 0,0 m 2.201,7.453 h -4.002 l -10.218,-24.765 h 5.634 c 0,0 2.097,4.911 2.156,5.048 h 8.794 c 0.087,-0.205 1.997,-5.048 1.997,-5.048 h 5.703 L 2.311,7.453 Z" /></g><g
           transform="translate(195.8369,425.9299)"
           id="g116"><path
             id="path118"
             style="fill:#98867d;fill-opacity:1;fill-rule:nonzero;stroke:none"
             d="m 0,0 h -8.053 l 0.027,-2.692 h 8.24 L 0.187,0 Z" /></g><g
           transform="translate(201.4326,414.7483)"
           id="g120"><path
             id="path122"
             style="fill:#98867d;fill-opacity:1;fill-rule:nonzero;stroke:none"
             d="m 0,0 h -3.27 l 0.091,-7.472 c 0,-0.008 0.028,-1.791 0.028,-1.791 v 0.027 c -0.028,-0.819 0.241,-1.5 0.804,-1.992 0.996,-0.886 2.488,-0.905 2.552,-0.905 H 3.96 l -0.049,2.87 H 1.446 c -0.182,0 -0.455,0.045 -0.655,0.213 -0.223,0.178 -0.318,0.487 -0.318,0.86 L 0.459,-7.399 0.373,0 Z" /></g><g
           transform="translate(191.5122,419.988)"
           id="g124"><path
             id="path126"
             style="fill:#98867d;fill-opacity:1;fill-rule:nonzero;stroke:none"
             d="m 0,0 h -3.261 l -0.122,-12.71 c 0,-0.009 0.036,-1.791 0.036,-1.791 v 0.022 c -0.036,-0.805 0.241,-1.5 0.823,-1.987 0.978,-0.887 2.479,-0.905 2.533,-0.905 h 4.725 l -0.037,2.87 H 1.273 c -0.2,0 -0.464,0.041 -0.687,0.209 -0.195,0.177 -0.309,0.491 -0.309,0.864 L 0.268,-12.637 0.364,0 Z" /></g><g
           transform="translate(207.1616,424.3401)"
           id="g128"><path
             id="path130"
             style="fill:#98867d;fill-opacity:1;fill-rule:nonzero;stroke:none"
             d="m 0,0 c 0.013,-0.56 0.059,-5.861 0.059,-5.861 0.014,-1.92 -0.264,-1.92 -1.846,-1.92 H -5.384 C -5.394,-7.212 -5.466,-0.418 -5.466,0 Z M 3.242,2.683 H -9.131 l 0.15,-13.174 h 9.895 c 1.973,0.009 2.824,1.469 2.806,2.897 L 3.606,2.683 Z" /></g><g
           transform="translate(209.0439,421.7824)"
           id="g132"><path
             id="path134"
             style="fill:#98867d;fill-opacity:1;fill-rule:nonzero;stroke:none"
             d="M 0,0 H -9.317 L -9.29,-2.71 0.382,-2.692 0.346,0 Z" /></g><g
           transform="translate(206.8857,412.9187)"
           id="g136"><path
             id="path138"
             style="fill:#98867d;fill-opacity:1;fill-rule:nonzero;stroke:none"
             d="m 0,0 h -3.197 l 2.46,-6.13 0.846,-2.183 -0.005,0.009 c 0.519,-1.378 1.097,-2.078 2.811,-2.069 H 5.402 L 5.384,-7.735 4.679,-7.772 C 3.715,-7.763 3.288,-7.585 2.556,-5.834 L 0.123,0 Z" /></g><g
           transform="translate(186.0942,421.6491)"
           id="g140"><path
             id="path142"
             style="fill:#98867d;fill-opacity:1;fill-rule:nonzero;stroke:none"
             d="M 0,0 -0.05,-2.388 H 10.018 L 10.009,0.091 0,0.113 Z" /></g><g
           transform="translate(196.1035,416.5422)"
           id="g144"><path
             id="path146"
             style="fill:#98867d;fill-opacity:1;fill-rule:nonzero;stroke:none"
             d="m 0,0 -12.523,-0.009 0.036,-2.752 H 0.045 L 0.009,0 Z" /></g><g
           transform="translate(210.1543,412.945)"
           id="g148"><path
             id="path150"
             style="fill:#98867d;fill-opacity:1;fill-rule:nonzero;stroke:none"
             d="m 0,0 c 0,0 -0.65,-2.319 -0.65,-2.347 -0.564,-1.137 -1.605,-0.85 -1.651,-0.85 l -0.178,0.064 0.028,-2.588 h 2.246 c 1.851,0 1.978,1.378 1.978,1.396 0,-0.018 1.096,4.211 1.096,4.211 l 0.05,0.177 -2.892,0.019 z" /></g><g
           transform="translate(191.4766,427.3156)"
           id="g152"><path
             id="path154"
             style="fill:#98867d;fill-opacity:1;fill-rule:nonzero;stroke:none"
             d="M 0,0 H -3.374 L -6.17,-5.462 c -0.324,-0.514 -1.433,-0.491 -1.433,-0.491 h -0.132 l 0.055,-2.573 2.123,0.008 c 1.392,0.01 1.724,1.101 1.746,1.156 -0.022,-0.019 3.97,7.148 3.97,7.148 L 0.282,0 Z" /></g><g
           transform="translate(243.1938,426.9426)"
           id="g156"><path
             id="path158"
             style="fill:#98867d;fill-opacity:1;fill-rule:nonzero;stroke:none"
             d="m 0,0 h -12.096 l 0.073,-3.447 H 0.791 L 0.695,0 Z" /></g><g
           transform="translate(227.2158,427.2444)"
           id="g160"><path
             id="path162"
             style="fill:#98867d;fill-opacity:1;fill-rule:nonzero;stroke:none"
             d="M 0,0 H -3.111 L -5.557,-5.461 C -5.78,-5.889 -6.662,-5.88 -6.662,-5.88 l -0.282,0.009 0.068,-2.787 2.124,0.009 c 1.369,0.009 1.646,1.164 1.66,1.214 -0.014,-0.036 3.415,7.026 3.415,7.026 L 0.532,0 Z" /></g><g
           transform="translate(225.626,419.8728)"
           id="g164"><path
             id="path166"
             style="fill:#98867d;fill-opacity:1;fill-rule:nonzero;stroke:none"
             d="m 0,0 -1.706,-3.438 c -0.472,-0.895 -0.877,-1.26 -1.423,-1.232 -0.022,0 -1.51,-0.037 -1.51,-0.037 l 0.11,-2.905 h 2.105 c 2.46,0.027 3.392,2.096 3.42,2.196 0,-0.018 2.514,5.139 2.514,5.139 l 0.187,0.4 H 0.073 Z" /></g><g
           transform="translate(225.4927,414.9167)"
           id="g168"><path
             id="path170"
             style="fill:#98867d;fill-opacity:1;fill-rule:nonzero;stroke:none"
             d="m 0,0 h -3.42 l 0.223,-12.283 H 0.914 L 0.728,0 Z" /></g><g
           transform="translate(242.5898,418.2385)"
           id="g172"><path
             id="path174"
             style="fill:#98867d;fill-opacity:1;fill-rule:nonzero;stroke:none"
             d="m 0,0 h -3.429 l 0.305,-10.568 0.009,-0.464 c 0.041,-1.137 -0.041,-1.192 -0.278,-1.196 l -7.73,0.041 0.068,-3.479 8.958,-0.063 c 0.755,0.018 3.224,0.259 3.142,2.965 L 1.009,-11.041 0.718,0 Z" /></g><g
           transform="translate(243.7891,419.8728)"
           id="g176"><path
             id="path178"
             style="fill:#98867d;fill-opacity:1;fill-rule:nonzero;stroke:none"
             d="m 0,0 h -13.065 l 0.1,-3.402 H 0.813 L 0.705,0 Z" /></g><g
           transform="translate(175.7651,426.8005)"
           id="g180"><path
             id="path182"
             style="fill:#98867d;fill-opacity:1;fill-rule:nonzero;stroke:none"
             d="M 0,0 H -25.169 L -25.106,-2.824 0.514,-2.906 0.491,0 Z" /></g><g
           transform="translate(175.916,419.0647)"
           id="g184"><path
             id="path186"
             style="fill:#98867d;fill-opacity:1;fill-rule:nonzero;stroke:none"
             d="m 0,0 h -25.151 l 0.045,-2.824 H 0.428 L 0.373,0 Z" /></g><g
           transform="translate(174.646,422.635)"
           id="g188"><path
             id="path190"
             style="fill:#98867d;fill-opacity:1;fill-rule:nonzero;stroke:none"
             d="M 0,0 H -22.596 V -2.237 H 0.323 L 0.346,0 Z" /></g><g
           transform="translate(165.1694,428.4255)"
           id="g192"><path
             id="path194"
             style="fill:#98867d;fill-opacity:1;fill-rule:nonzero;stroke:none"
             d="M 0,0 H -3.547 L -3.588,-11.91 H 0.473 L 0.382,0 Z" /></g><g
           transform="translate(165.187,415.112)"
           id="g196"><path
             id="path198"
             style="fill:#98867d;fill-opacity:1;fill-rule:nonzero;stroke:none"
             d="m 0,0 h -3.561 l 0.142,-7.68 0.027,-1.21 C -3.383,-9.7 -3.447,-9.7 -4.061,-9.727 h -1.555 v -0.227 l 0.041,-2.578 h 3.379 c 1.032,0 2.774,0.39 2.746,2.906 L 0.532,-7.762 0.373,0 Z" /></g><g
           transform="translate(152.6465,404.4367)"
           id="g200"><path
             id="path202"
             style="fill:#98867d;fill-opacity:1;fill-rule:nonzero;stroke:none"
             d="m 0,0 c 0.746,0.018 1.624,0.56 2.292,1.428 0,0 0.632,0.968 0.691,1.078 H 6.316 C 6.216,2.387 6.121,2.283 6.121,2.283 6.121,2.274 4.929,0.737 4.929,0.737 4.929,0.746 4.666,0.437 4.666,0.437 2.983,-1.591 2.924,-1.668 0.187,-1.668 h -1.988 c 0,0.25 -0.018,1.463 -0.018,1.659 C -1.592,-0.009 0,0 0,0" /></g><g
           transform="translate(155.4971,416.9778)"
           id="g204"><path
             id="path206"
             style="fill:#98867d;fill-opacity:1;fill-rule:nonzero;stroke:none"
             d="M 0,0 C 0.009,-0.037 2.497,-0.045 3.438,-0.045 3.32,-0.15 3.242,-0.278 3.242,-0.278 L 2.028,-1.801 C 0.096,-4.12 -0.168,-4.193 -2.078,-4.052 h -2.565 c 0,0.25 -0.027,1.478 -0.027,1.674 0.228,0 1.378,0.008 1.378,0.008 1.314,0 1.614,0.355 2.183,1.01 l 0.072,0.109 c 0,0.009 0.533,0.655 0.533,0.655 0,0 0.504,0.587 0.504,0.596" /></g><g
           transform="translate(170.7651,416.3825)"
           id="g208"><path
             id="path210"
             style="fill:#98867d;fill-opacity:1;fill-rule:nonzero;stroke:none"
             d="M 0,0 C 0,0 0.782,-0.65 0.782,-0.66 L 0.9,-0.764 c 0.805,-0.655 1.251,-1.014 2.565,-1.014 0,0 1.883,-0.01 2.114,-0.01 0.055,-0.195 0.019,-1.418 0.019,-1.668 H 2.905 C 1.032,-3.597 0.746,-3.524 -2.069,-1.21 l -1.792,1.528 c 0,0 -0.127,0.127 -0.268,0.232 0.923,0 3.401,0.009 3.401,0.045 C -0.719,0.586 0,0 0,0" /></g><g
           transform="translate(151.0122,411.3195)"
           id="g212"><path
             id="path214"
             style="fill:#98867d;fill-opacity:1;fill-rule:nonzero;stroke:none"
             d="m 0,0 c 0,0 -0.096,0.132 -0.232,0.259 0.478,0 3.197,-0.027 3.37,-0.027 0.077,-0.091 0.2,-0.241 0.2,-0.241 0.723,-0.828 1.682,-0.887 2.869,-0.905 H 7.999 C 8.008,-1.182 8.04,-2.628 8.04,-2.815 7.79,-2.815 5.275,-2.824 5.275,-2.824 2.415,-2.815 1.992,-2.442 0.473,-0.66 0.496,-0.66 0,0 0,0" /></g><g
           transform="translate(171.502,406.8972)"
           id="g216"><path
             id="path218"
             style="fill:#98867d;fill-opacity:1;fill-rule:nonzero;stroke:none"
             d="m 0,0 c 0.096,-0.15 0.705,-1.042 0.705,-1.042 0.713,-0.904 1.628,-1.455 2.396,-1.455 0,0 1.342,-0.027 1.751,-0.027 0.009,-0.237 0.05,-1.473 0.05,-1.66 -0.259,0 -2.042,-0.009 -2.042,-0.009 -2.692,0.018 -2.764,0.091 -4.502,2.088 l -0.277,0.327 -1.25,1.519 c 0,0 -0.105,0.145 -0.214,0.25 C -2.91,-0.009 -0.196,0 0,0" /></g><g
           transform="translate(172.834,411.2756)"
           id="g220"><path
             id="path222"
             style="fill:#98867d;fill-opacity:1;fill-rule:nonzero;stroke:none"
             d="M 0,0 C 0,0 0.246,0.309 0.264,0.318 0.273,0.282 2.628,0.3 3.529,0.3 3.447,0.186 3.333,0.073 3.333,0.073 c 0,-0.01 -0.464,-0.66 -0.464,-0.66 -1.418,-1.769 -1.882,-2.183 -4.743,-2.192 0,0 -2.219,0 -2.719,0.009 0,0.246 -0.032,1.706 -0.032,1.901 h 1.847 C -1.419,-0.851 -0.605,-0.719 0,0" /></g><g
           transform="translate(142.9126,416.7912)"
           id="g224"><path
             id="path226"
             style="fill:#98867d;fill-opacity:1;fill-rule:nonzero;stroke:none"
             d="m 0,0 h -29.176 l 0.018,-2.77 H 0.464 L 0.445,0 Z" /></g><g
           transform="translate(140.5942,426.9333)"
           id="g228"><path
             id="path230"
             style="fill:#98867d;fill-opacity:1;fill-rule:nonzero;stroke:none"
             d="m 0,0 h -24.665 l 0.019,-2.769 H 0.482 L 0.464,0 Z" /></g><g
           transform="translate(135.1587,426.2585)"
           id="g232"><path
             id="path234"
             style="fill:#98867d;fill-opacity:1;fill-rule:nonzero;stroke:none"
             d="m 0,0 h -3.142 l -0.027,-23.751 3.828,-0.068 0.005,23.755 z" /></g><g
           transform="translate(125.7798,425.406)"
           id="g236"><path
             id="path238"
             style="fill:#98867d;fill-opacity:1;fill-rule:nonzero;stroke:none"
             d="m 0,0 v -15.861 c 0,0 -0.127,-3.188 -1.978,-4.87 -1.824,-1.679 -2.419,-2.22 -2.419,-2.22 l -2.797,2.57 2.174,2.014 c 0,0 1.137,0.969 1.137,4.252 V 0.009 Z" /></g><g
           transform="translate(132.9561,477.4695)"
           id="g240"><path
             id="path242"
             style="fill:#98867d;fill-opacity:1;fill-rule:nonzero;stroke:none"
             d="M 0,0 V -5.935 C 0,-6.717 -0.091,-7.485 -0.605,-7.913 -0.959,-8.208 -1.61,-8.34 -2.601,-8.34 H -6.234 V 6.129 C -5.416,6.057 -3.474,5.816 -2.178,4.993 0,3.624 0,1.787 0,0 m -0.196,13.765 c 6.858,-2.488 9.441,-0.719 9.55,-0.646 L 9.563,13.269 8.117,19.253 7.648,18.99 C 7.64,18.972 5.78,17.976 0.687,19.717 c -4.793,1.66 -9,1.596 -12.497,-0.159 -5.483,-2.774 -7.198,-8.749 -7.266,-8.999 l -0.028,-0.05 V 6.412 h 6.04 V -8.34 h -3.516 v -6.53 h 16.075 c 1.923,0 3.738,-0.005 5.293,1.324 1.783,1.554 1.928,3.696 1.928,6.12 v 8.899 c 0,3.306 -0.659,5.82 -3.938,8.153 -3.933,2.783 -11.027,2.888 -13.569,2.825 1.237,1.173 4.584,3.446 10.595,1.314" /></g><g
           transform="translate(210.0742,487.1501)"
           id="g244"><path
             id="path246"
             style="fill:#98867d;fill-opacity:1;fill-rule:nonzero;stroke:none"
             d="m 0,0 c 0,7.967 -5.711,11.527 -11.368,11.527 -8.431,0 -12.114,-6.848 -12.151,-6.925 l -0.159,-0.287 5.43,-3.674 0.209,0.414 c 0.027,0.028 1.937,3.802 6.139,3.965 1.35,0.041 2.601,-0.427 3.551,-1.309 1.055,-0.992 1.624,-2.433 1.624,-4.148 V -24.546 H 0 Z" /></g><g
           transform="translate(275.1226,487.1501)"
           id="g248"><path
             id="path250"
             style="fill:#98867d;fill-opacity:1;fill-rule:nonzero;stroke:none"
             d="m 0,0 c 0,7.967 -5.725,11.527 -11.387,11.527 -8.425,0 -12.095,-6.848 -12.141,-6.925 l -0.15,-0.287 5.421,-3.674 0.209,0.414 c 0.009,0.028 1.928,3.802 6.139,3.965 1.35,0.041 2.61,-0.427 3.551,-1.309 1.06,-0.992 1.619,-2.433 1.619,-4.148 V -24.546 H 0 Z" /></g><g
           transform="translate(286.4995,488.9177)"
           id="g252"><path
             id="path254"
             style="fill:#98867d;fill-opacity:1;fill-rule:nonzero;stroke:none"
             d="m 0,0 h 10.623 0.363 c 1.929,0 3.747,0 5.303,-1.314 1.796,-1.546 1.937,-3.706 1.937,-6.121 v -11.519 c 0,-4.442 -3.502,-7.789 -8.144,-7.789 -4.566,0 -8.126,3.42 -8.126,7.789 0,4.493 3.482,7.886 8.126,7.886 0.595,0 1.041,-0.023 1.323,-0.041 v 2.696 c 0,1.324 -0.269,1.806 -0.5,1.983 -0.36,0.291 -1.019,0.446 -1.988,0.446 H -7.594 v 4.997 0.046 0.054 c 0.073,0.227 1.664,5.88 6.93,8.731 3.356,1.828 7.399,2.087 12.033,0.778 4.629,-1.337 7.248,0.027 7.257,0.045 l 0.4,0.223 0.16,-0.428 1.978,-5.051 0.118,-0.287 -0.269,-0.159 C 17.912,1.082 13.597,1.714 10.518,2.564 3.465,4.538 0.792,1.314 0,0 m 10.082,-21.127 c 3.337,0 3.337,4.865 0,4.865 -3.329,0 -3.329,-4.865 0,-4.865" /></g><g
           transform="translate(424.9717,488.9177)"
           id="g256"><path
             id="path258"
             style="fill:#98867d;fill-opacity:1;fill-rule:nonzero;stroke:none"
             d="m 0,0 h 10.986 c 1.928,0 3.739,0 5.321,-1.314 1.778,-1.546 1.91,-3.706 1.91,-6.121 v -11.519 c 0,-4.442 -3.502,-7.789 -8.136,-7.789 -4.565,0 -8.126,3.42 -8.126,7.789 0,4.493 3.488,7.886 8.126,7.886 0.596,0 1.019,-0.023 1.323,-0.041 v 2.696 c 0,1.324 -0.258,1.806 -0.5,1.983 -0.354,0.291 -1.009,0.446 -1.996,0.446 H -7.604 v 4.997 0.046 l 0.01,0.054 c 0.082,0.227 1.678,5.88 6.93,8.731 3.347,1.828 7.39,2.087 12.023,0.778 4.629,-1.337 7.248,0.027 7.276,0.045 L 19.026,8.89 21.281,3.124 21.004,2.965 C 17.907,1.082 13.597,1.714 10.509,2.564 3.483,4.538 0.764,1.314 0,0 m 10.081,-21.127 c 3.338,0 3.338,4.865 0,4.865 -3.324,0 -3.324,-4.865 0,-4.865" /></g><g
           transform="translate(327.0083,498.6784)"
           id="g260"><path
             id="path262"
             style="fill:#98867d;fill-opacity:1;fill-rule:nonzero;stroke:none"
             d="m 0,0 c -9.422,0.096 -15.088,-5.807 -15.143,-5.88 l -0.109,-0.104 v -5.83 l 0.277,-0.086 c 2.142,-0.605 4.425,-1.306 5.426,-1.661 -0.774,-0.763 -2.183,-2.641 -2.183,-6.174 v -16.344 h 6.821 v 15.393 c 0,0.923 0,2.488 0.995,3.874 0.992,1.36 3.216,2.024 3.234,2.033 l 0.264,0.082 v 4.456 l -0.246,0.105 c -0.1,0.036 -2.551,0.969 -3.92,1.328 -1.164,0.282 -1.928,0.514 -2.396,0.673 1.027,0.577 3.365,1.623 6.98,1.623 0.096,0 8.804,-0.196 8.804,-7.38 v -22.187 h 6.821 v 23.583 C 15.625,-4.993 9.495,-0.096 0,0" /></g><g
           transform="translate(376.2656,494.362)"
           id="g264"><path
             id="path266"
             style="fill:#98867d;fill-opacity:1;fill-rule:nonzero;stroke:none"
             d="m 0,0 c -0.587,-0.514 -1.042,-0.851 -1.351,-1.046 0.187,-0.278 0.455,-0.687 0.71,-1.183 1.014,-1.75 1.591,-4.006 1.591,-6.389 v -23.141 h -6.83 v 10.495 c 0,1.669 -3.924,8.34 -10.131,8.34 -2.037,0 -3.752,-1.574 -3.752,-3.447 v -0.423 c 0.332,0.05 0.837,0.096 1.492,0.096 4.72,0 8.144,-3.234 8.144,-7.699 0,-4.443 -3.506,-7.79 -8.144,-7.79 -4.625,0 -8.135,3.347 -8.135,7.79 v 8.026 c 0,4.871 3.565,9.791 10.395,9.791 5.511,0 8.985,-3.188 10.408,-4.825 v 1.832 c 0,6.021 -6.175,7.381 -8.348,7.381 -7.285,0 -9.632,-4.966 -9.727,-5.18 l -0.159,-0.345 -6.103,2.665 0.141,0.336 c 0.046,0.095 4.293,9.031 15.848,9.031 3.738,0 6.207,-0.986 6.862,-1.269 0.163,0.078 0.55,0.283 1.154,0.819 2.443,2.21 2.588,4.429 2.588,4.447 l 0.009,0.364 H 4.484 L 4.452,8.267 C 4.424,8.071 3.934,3.542 0,0 m -18.271,-26.575 c 3.342,0 3.342,4.87 0,4.87 -3.338,0 -3.338,-4.87 0,-4.87" /></g><g
           transform="translate(371.9404,511.3435)"
           id="g268"><path
             id="path270"
             style="fill:#98867d;fill-opacity:1;fill-rule:nonzero;stroke:none"
             d="m 0,0 c -1.724,0.364 -5.498,1.014 -9.6,1.014 -3.36,0 -5.561,-0.232 -6.743,-0.4 0.977,1.214 3.351,3.438 7.825,3.374 C -3.506,3.847 -0.987,1.323 0,0 m 7.203,-1.191 v 0.045 l -0.018,0.045 c -0.018,0.105 -2.87,11.242 -15.703,11.428 -12.141,0.1 -15.579,-11.296 -15.615,-11.41 v -0.063 -0.045 -4.948 l 0.491,0.073 c 0.055,0.009 5.266,0.846 13.551,0.846 8.767,0 16.698,-1.583 16.78,-1.61 l 0.514,-0.096 z" /></g><g
           transform="translate(398.1499,498.6784)"
           id="g272"><path
             id="path274"
             style="fill:#98867d;fill-opacity:1;fill-rule:nonzero;stroke:none"
             d="m 0,0 c -9.431,0.096 -15.097,-5.807 -15.143,-5.88 l -0.1,-0.104 v -5.83 l 0.278,-0.086 c 2.114,-0.605 4.415,-1.306 5.424,-1.661 -0.782,-0.763 -2.2,-2.641 -2.2,-6.174 v -16.344 h 6.829 v 15.393 c 0,0.923 0,2.488 0.996,3.874 1.001,1.36 3.197,2.024 3.233,2.033 l 0.265,0.082 v 4.456 l -0.246,0.105 c -0.1,0.036 -2.56,0.969 -3.92,1.328 -1.155,0.282 -1.919,0.514 -2.406,0.673 1.028,0.577 3.365,1.623 6.99,1.623 0.082,0 8.794,-0.196 8.794,-7.38 v -22.187 h 6.812 v 23.583 C 15.606,-4.993 9.477,-0.096 0,0" /></g><g
           transform="translate(505.207,490.8005)"
           id="g276"><path
             id="path278"
             style="fill:#98867d;fill-opacity:1;fill-rule:nonzero;stroke:none"
             d="M 0,0 V -28.198 H -6.812 V 0.336 l -12.282,-17.193 v -11.341 h -6.725 v 20.363 c -0.301,-0.019 -0.746,-0.032 -1.315,-0.032 -4.707,0 -8.23,3.415 -8.23,7.958 0,4.365 3.624,7.785 8.23,7.785 4.584,0 8.04,-3.338 8.04,-7.785 v -5.935 l 0.823,1.447 8.671,11.841 h 2.006 c 2.06,0 4.015,0 5.657,-1.405 C -0.15,4.493 0,2.478 0,0 m -27.134,2.183 c -3.251,0 -3.251,-4.793 0,-4.793 3.242,0 3.242,4.793 0,4.793" /></g><g
           transform="translate(541.6836,498.2434)"
           id="g280"><path
             id="path282"
             style="fill:#98867d;fill-opacity:1;fill-rule:nonzero;stroke:none"
             d="m 0,0 v -28.198 c 0,-2.424 -0.15,-4.566 -1.937,-6.121 -1.546,-1.332 -3.375,-1.323 -5.293,-1.323 h -14.333 c -1.928,0 -3.756,-0.009 -5.302,1.332 -1.797,1.546 -1.929,3.688 -1.929,6.112 v 1.928 c 0,4.011 2.356,5.966 3.543,6.712 -1.41,0.846 -4.548,3.456 -4.625,9.931 0,6.917 4.733,10.063 9.131,10.063 4.606,0 8.23,-3.419 8.23,-7.789 0,-4.443 -3.542,-7.79 -8.23,-7.79 -0.25,0 -0.437,0.009 -0.613,0.018 0.299,-0.541 1.054,-1.387 3.028,-1.805 2.519,-0.487 5.257,-0.245 5.257,-0.245 l 0.454,0.041 v -5.939 h -3.811 c -2.968,0 -5.647,-0.251 -5.647,-3.279 0,-2.328 0.591,-2.76 3.665,-2.76 h 9.103 c 0.633,0 1.433,0.041 1.902,0.423 0.505,0.427 0.577,1.2 0.577,1.982 L -6.83,0 Z m -20.745,-5.257 c -3.26,0 -3.26,-4.798 0,-4.798 3.228,0 3.228,4.798 0,4.798" /></g><g
           transform="translate(153.9165,492.9856)"
           id="g284"><path
             id="path286"
             style="fill:#98867d;fill-opacity:1;fill-rule:nonzero;stroke:none"
             d="M 0,0 C -3.233,0 -3.233,-4.798 0,-4.798 3.242,-4.798 3.242,0 0,0 m 35.01,-22.31 c 0.027,-2.255 -0.778,-4.256 -2.328,-5.811 -1.674,-1.651 -4.165,-2.688 -6.516,-2.688 -3.871,0 -7.763,2.192 -7.763,7.085 v 3.27 c -0.587,-0.382 -1.715,-1.228 -3.72,-3.01 -2.755,-2.543 -4.674,-4.734 -5.711,-5.908 -0.809,-0.932 -0.887,-1.013 -1.119,-1.013 H 1.591 v 20.367 c -0.304,-0.018 -0.736,-0.037 -1.309,-0.037 -4.625,0 -8.122,3.42 -8.122,7.958 0,4.37 3.574,7.79 8.122,7.79 4.543,0 7.958,-3.338 7.958,-7.79 v -15.879 l -0.123,-3.038 c 0.8,0.842 2.378,2.379 5.002,4.566 2.574,2.096 4.602,3.065 5.284,3.365 V 5.256 h 6.653 v -17.48 c 1.769,-0.254 9.708,-1.864 9.954,-10.086 m -8.39,2.556 c -3.529,0 -3.529,-5.239 0,-5.239 3.561,0 3.561,5.239 0,5.239" /></g><g
           transform="translate(248.2563,483.3933)"
           id="g288"><path
             id="path290"
             style="fill:#98867d;fill-opacity:1;fill-rule:nonzero;stroke:none"
             d="m 0,0 v -20.791 h -6.812 v 20.7 c 0,5.298 -4.12,9.299 -9.595,9.299 -6.889,0 -9.968,-4.847 -9.968,-9.645 0,-2.646 0.655,-4.661 1.105,-5.752 0.418,1.66 1.183,4.716 1.183,4.716 1.064,4.27 3.965,6.821 7.762,6.821 3.092,0 7.417,-2.247 7.417,-7.258 0,-5.238 -4.539,-7.203 -7.417,-7.203 -1.259,0 -2.346,0.409 -2.928,0.651 -0.26,-0.746 -0.819,-2.488 -1.278,-4.78 -0.819,-3.856 -0.973,-6.011 -0.973,-7.157 v -0.392 h -6.826 v 0.392 1.391 c 0,3.047 -1.032,5.766 -2.115,8.617 -1.341,3.525 -2.737,7.149 -2.387,11.805 0.691,9.077 8.967,13.97 16.411,13.97 4.739,0.045 8.854,-1.474 11.882,-4.38 C -1.614,8.199 0,4.279 0,0 m -16.325,0.614 c -3.329,0 -3.329,-4.884 0,-4.884 3.342,0 3.342,4.884 0,4.884" /></g><g
           transform="translate(470.1875,469.9646)"
           id="g292"><path
             id="path294"
             style="fill:#98867d;fill-opacity:1;fill-rule:nonzero;stroke:none"
             d="m 0,0 c 0,-4.37 -3.615,-7.79 -8.244,-7.79 -4.615,0 -8.117,3.347 -8.117,7.79 v 34.673 l 0.373,8.108 -5.248,-8.935 h -4.034 l -3.942,12.346 c -0.068,0.118 -0.282,0.5 -0.469,0.987 -0.186,0.531 -0.322,0.614 -0.517,0.664 -0.255,0.072 -0.401,0.222 -0.401,0.418 v 7.176 h 3.183 c 0.532,0 1.083,-0.255 1.642,-0.796 0.487,-0.492 0.792,-1.237 0.8,-1.292 l 2.974,-8.535 6.344,10.623 h 6.107 V 7.79 c 0.314,0.054 0.764,0.095 1.305,0.095 C -3.542,7.885 0,4.493 0,0 m -8.244,-2.178 c 3.351,0 3.351,4.87 0,4.87 -3.311,0 -3.311,-4.87 0,-4.87" /></g><path
           id="path296"
           style="fill:#ed1c2e;fill-opacity:1;fill-rule:nonzero;stroke:none"
           d="M 542.775,142.641 H 112.278 v 6.198 h 430.497 z" /><g
           transform="translate(728.2402,148.7605)"
           id="g298"><path
             id="path300"
             style="fill:#ffffff;fill-opacity:1;fill-rule:nonzero;stroke:none"
             d="m 0,0 c 0,-39.508 -32.027,-71.525 -71.539,-71.525 -39.498,0 -71.534,32.017 -71.534,71.525 0,39.498 32.036,71.516 71.534,71.516 C -32.027,71.516 0,39.498 0,0" /></g><g
           transform="translate(692.7676,111.7419)"
           id="g302"><path
             id="path304"
             style="fill:#99877d;fill-opacity:1;fill-rule:nonzero;stroke:none"
             d="m 0,0 c -3.338,1.687 -6.785,3.438 -12.042,3.438 -4.656,0 -8.385,-1.724 -11.981,-3.375 -3.766,-1.741 -7.686,-3.546 -12.879,-3.546 -4.575,0 -8.039,1.609 -11.701,3.305 -3.788,1.751 -7.707,3.579 -12.963,3.579 -4.658,0 -8.377,-1.705 -11.992,-3.31 -3.793,-1.715 -7.726,-3.484 -12.932,-3.484 -0.291,0 -0.56,0.009 -0.815,0.009 0.524,-0.649 1.065,-1.304 1.642,-1.955 5.207,0.168 9.122,1.946 12.905,3.643 3.597,1.6 6.972,3.133 11.192,3.133 4.829,0 8.384,-1.642 12.131,-3.383 3.684,-1.715 7.513,-3.489 12.533,-3.489 5.639,0 9.731,1.883 13.701,3.73 3.565,1.623 6.939,3.179 11.159,3.179 4.793,0 7.886,-1.57 11.155,-3.216 3.57,-1.81 7.271,-3.693 13.328,-3.701 0.587,0.645 1.164,1.323 1.697,2.005 C 13.633,-3.475 13.092,-3.492 12.551,-3.492 6.894,-3.492 3.392,-1.724 0,0" /></g><g
           transform="translate(680.7246,111.4753)"
           id="g306"><path
             id="path308"
             style="fill:#99877d;fill-opacity:1;fill-rule:nonzero;stroke:none"
             d="m 0,0 c -4.652,0 -8.386,-1.714 -11.982,-3.365 -3.766,-1.741 -7.681,-3.537 -12.878,-3.537 -4.576,0 -8.036,1.6 -11.697,3.287 -3.792,1.769 -7.708,3.569 -12.968,3.569 -4.653,0 -8.372,-1.686 -11.988,-3.31 -3.223,-1.442 -6.539,-2.933 -10.622,-3.351 0.541,-0.587 1.101,-1.169 1.678,-1.756 3.711,0.609 6.758,1.987 9.74,3.329 3.598,1.619 6.976,3.147 11.192,3.147 4.834,0 8.384,-1.656 12.131,-3.397 3.689,-1.715 7.517,-3.488 12.534,-3.488 5.638,0 9.735,1.901 13.705,3.72 3.56,1.651 6.934,3.187 11.155,3.187 4.797,0 7.885,-1.568 11.154,-3.215 2.869,-1.455 5.843,-2.955 10.054,-3.497 0.596,0.596 1.174,1.197 1.751,1.801 -4.725,0.314 -7.881,1.901 -10.918,3.438 C 8.703,-1.751 5.256,0 0,0" /></g><g
           transform="translate(680.7246,107.7712)"
           id="g310"><path
             id="path312"
             style="fill:#99877d;fill-opacity:1;fill-rule:nonzero;stroke:none"
             d="m 0,0 c -4.652,0 -8.386,-1.714 -11.982,-3.374 -3.766,-1.732 -7.681,-3.538 -12.878,-3.538 -4.576,0 -8.036,1.6 -11.697,3.307 -3.792,1.75 -7.708,3.569 -12.968,3.569 -4.653,0 -8.372,-1.678 -11.988,-3.311 -2.345,-1.068 -4.752,-2.132 -7.48,-2.814 0.578,-0.527 1.128,-1.042 1.715,-1.556 2.355,0.71 4.474,1.651 6.561,2.592 3.598,1.61 6.976,3.138 11.192,3.138 4.834,0 8.384,-1.656 12.131,-3.388 3.689,-1.705 7.517,-3.479 12.534,-3.479 5.638,0 9.735,1.883 13.705,3.711 3.56,1.637 6.934,3.188 11.155,3.188 4.797,0 7.885,-1.569 11.154,-3.215 2.078,-1.055 4.174,-2.115 6.753,-2.833 0.6,0.519 1.187,1.041 1.764,1.582 -3.001,0.655 -5.348,1.837 -7.63,2.992 C 8.703,-1.75 5.256,0 0,0" /></g><g
           transform="translate(680.7246,104.0681)"
           id="g314"><path
             id="path316"
             style="fill:#99877d;fill-opacity:1;fill-rule:nonzero;stroke:none"
             d="m 0,0 c -4.652,0 -8.386,-1.714 -11.982,-3.374 -3.766,-1.732 -7.681,-3.52 -12.878,-3.52 -4.576,0 -8.036,1.592 -11.697,3.288 -3.792,1.76 -7.708,3.579 -12.968,3.579 -4.653,0 -8.372,-1.687 -11.988,-3.311 -1.423,-0.641 -2.86,-1.301 -4.369,-1.842 0.586,-0.486 1.178,-0.959 1.782,-1.409 1.156,0.459 2.292,0.959 3.383,1.474 3.598,1.609 6.976,3.133 11.192,3.133 4.834,0 8.384,-1.642 12.131,-3.393 3.689,-1.714 7.517,-3.488 12.534,-3.488 5.638,0 9.735,1.901 13.705,3.719 3.56,1.643 6.934,3.198 11.155,3.198 4.797,0 7.885,-1.56 11.154,-3.224 1.146,-0.578 2.301,-1.164 3.542,-1.696 0.615,0.454 1.21,0.914 1.806,1.395 -1.619,0.606 -3.056,1.342 -4.461,2.042 C 8.703,-1.742 5.256,0 0,0" /></g><g
           transform="translate(680.7246,100.365)"
           id="g318"><path
             id="path320"
             style="fill:#99877d;fill-opacity:1;fill-rule:nonzero;stroke:none"
             d="m 0,0 c -4.652,0 -8.386,-1.696 -11.982,-3.356 -3.766,-1.742 -7.681,-3.556 -12.878,-3.556 -4.576,0 -8.036,1.619 -11.697,3.314 -3.792,1.76 -7.708,3.571 -12.968,3.571 -4.653,0 -8.372,-1.679 -11.988,-3.302 -0.409,-0.195 -0.827,-0.382 -1.246,-0.56 0.606,-0.445 1.229,-0.89 1.847,-1.318 0.082,0.027 0.137,0.063 0.195,0.091 3.598,1.614 6.976,3.133 11.192,3.133 4.834,0 8.384,-1.642 12.131,-3.383 3.689,-1.724 7.517,-3.479 12.534,-3.479 5.638,0 9.735,1.892 13.705,3.701 3.56,1.651 6.934,3.197 11.155,3.197 4.797,0 7.885,-1.555 11.154,-3.224 0.151,-0.068 0.286,-0.141 0.446,-0.214 0.595,0.409 1.205,0.837 1.819,1.274 -0.46,0.222 -0.923,0.459 -1.378,0.691 C 8.703,-1.742 5.256,0 0,0" /></g><g
           transform="translate(668.7432,93.3034)"
           id="g322"><path
             id="path324"
             style="fill:#99877d;fill-opacity:1;fill-rule:nonzero;stroke:none"
             d="m 0,0 c -3.766,-1.741 -7.681,-3.533 -12.878,-3.533 -4.575,0 -8.04,1.596 -11.696,3.302 -3.792,1.759 -7.712,3.569 -12.969,3.569 -3.774,0 -6.953,-1.118 -9.954,-2.405 0.69,-0.437 1.364,-0.851 2.059,-1.26 2.47,0.986 4.989,1.715 7.895,1.715 4.834,0 8.385,-1.647 12.132,-3.384 3.688,-1.733 7.513,-3.492 12.533,-3.492 5.639,0 9.735,1.891 13.705,3.719 3.561,1.637 6.935,3.188 11.154,3.188 3.366,0 5.908,-0.777 8.249,-1.818 0.678,0.39 1.351,0.808 2.01,1.218 C 19.431,2.179 16.324,3.374 11.981,3.374 7.325,3.374 3.597,1.66 0,0" /></g><g
           transform="translate(656.2021,84.0671)"
           id="g326"><path
             id="path328"
             style="fill:#ed1c2e;fill-opacity:1;fill-rule:nonzero;stroke:none"
             d="m 0,0 c -35.979,0 -65.163,29.185 -65.163,65.182 0,35.987 29.184,65.163 65.163,65.163 35.987,0 65.173,-29.176 65.173,-65.163 C 65.173,29.185 35.987,0 0,0 m 0,142.718 c -42.836,0 -77.546,-34.709 -77.546,-77.536 0,-42.828 34.71,-77.546 77.546,-77.546 42.827,0 77.555,34.718 77.555,77.546 0,42.827 -34.728,77.536 -77.555,77.536" /></g><g
           transform="translate(692.4658,168.4773)"
           id="g330"><path
             id="path332"
             style="fill:#00a94f;fill-opacity:1;fill-rule:nonzero;stroke:none"
             d="m 0,0 c -0.478,-2.415 -2.947,-4.966 -4.289,-6.039 -3.037,-2.442 -23.1,-14.701 -25.364,-17.548 -2.27,-2.819 -2.652,-6.985 -2.652,-10.19 l -0.005,-23.578 h 3.124 v 6.133 c -0.017,2.116 1.183,5.358 3.652,7.926 4.147,4.334 13.728,9.76 20.009,14.324 5.248,3.848 5.588,9.069 5.588,13.588 V 0.745 Z" /></g><g
           transform="translate(660.1807,146.3357)"
           id="g334"><path
             id="path336"
             style="fill:#00a94f;fill-opacity:1;fill-rule:nonzero;stroke:none"
             d="m 0,0 c 2.229,2.787 22.905,15.42 25.87,17.844 2.987,2.405 6.44,6.12 6.44,10.754 V 55.014 C 32.31,51.308 30.24,48.447 27.553,44.95 24.487,40.971 10.577,33.432 3.702,28.598 -3.16,23.777 -5.562,18.943 -5.562,13 v -48.215 h 3.093 v 25.196 C -2.469,-6.867 -2.228,-2.778 0,0" /></g><g
           transform="translate(644.4609,173.6462)"
           id="g338"><path
             id="path340"
             style="fill:#00a94f;fill-opacity:1;fill-rule:nonzero;stroke:none"
             d="m 0,0 c -6.316,4.815 -19.176,15.233 -20.677,17.267 -1.473,2.05 -4.82,5.752 -4.82,10.212 V 2.965 c 0,-3.515 1.678,-9.841 7.812,-14.297 6.121,-4.452 14.72,-10.95 17.312,-13.564 2.619,-2.592 5.002,-7.263 5.002,-13.961 v -23.668 h 3.069 v 47.169 C 7.698,-7.735 6.316,-4.829 0,0" /></g><g
           transform="translate(282.7607,128.2263)"
           id="g342"><path
             id="path344"
             style="fill:#ffffff;fill-opacity:1;fill-rule:nonzero;stroke:none"
             d="m 0,0 h -6.289 c 0,0 -7.485,-9.404 -7.853,-9.868 V 0 h -5.343 v -24.124 h 5.343 v 10.572 c 0.341,-0.464 8.167,-10.572 8.167,-10.572 h 6.812 c 0,0 -10.332,12.792 -10.473,12.96 C -9.518,-11.023 0.332,0 0.332,0 Z" /></g><g
           transform="translate(312.2119,121.6003)"
           id="g346"><path
             id="path348"
             style="fill:#ffffff;fill-opacity:1;fill-rule:nonzero;stroke:none"
             d="m 0,0 c 0,-3.66 2.355,-5.312 5.889,-6.662 0.018,0 0.418,-0.141 0.418,-0.141 1.951,-0.682 3.988,-1.405 3.979,-3.605 0,-1.652 -1.1,-3.348 -3.224,-3.348 -2.233,0 -3.893,1.756 -4.511,3.384 l -0.082,0.223 -3.501,-3.157 0.063,-0.077 c 2.001,-3.11 4.825,-4.724 8.126,-4.724 5.253,0 8.636,3.238 8.636,8.257 0,4.78 -3.625,6.19 -6.54,7.327 -2.096,0.809 -3.737,1.45 -3.737,3.019 0,1.546 1.582,2.597 3.047,2.597 1.509,0 2.732,-0.651 3.755,-1.902 l 0.123,-0.168 2.524,3.452 -0.054,0.082 C 13.232,6.244 9.931,7.267 7.689,7.267 3.315,7.267 0,4.139 0,0" /></g><g
           transform="translate(338.8389,128.2263)"
           id="g350"><path
             id="path352"
             style="fill:#ffffff;fill-opacity:1;fill-rule:nonzero;stroke:none"
             d="M 0,0 H -5.18 V -24.124 H 0.15 L 0.15,0 Z" /></g><g
           transform="translate(365.1724,128.2263)"
           id="g354"><path
             id="path356"
             style="fill:#ffffff;fill-opacity:1;fill-rule:nonzero;stroke:none"
             d="m 0,0 h -6.307 c 0,0 -7.494,-9.404 -7.849,-9.868 V 0 h -5.339 v -24.124 h 5.339 v 10.572 c 0.355,-0.464 8.154,-10.572 8.154,-10.572 h 6.83 c 0,0 -10.359,12.792 -10.473,12.96 C -9.541,-11.023 0.318,0 0.318,0 Z" /></g><g
           transform="translate(420.9751,128.865)"
           id="g358"><path
             id="path360"
             style="fill:#ffffff;fill-opacity:1;fill-rule:nonzero;stroke:none"
             d="m 0,0 h -3.756 v -24.76 h 5.33 V -8.703 C 1.919,-9.14 15.097,-25.232 15.097,-25.232 h 3.847 V -0.641 H 13.596 V -16.529 C 13.26,-16.093 0.073,0 0.073,0 Z" /></g><g
           transform="translate(496.6191,128.865)"
           id="g362"><path
             id="path364"
             style="fill:#ffffff;fill-opacity:1;fill-rule:nonzero;stroke:none"
             d="M 0,0 H -3.756 V -24.76 H 1.573 V -8.703 C 1.928,-9.14 15.088,-25.232 15.088,-25.232 h 3.856 v 24.591 h -5.33 V -16.529 C 13.26,-16.093 0.082,0 0.082,0 Z" /></g><g
           transform="translate(541.2666,128.2263)"
           id="g366"><path
             id="path368"
             style="fill:#ffffff;fill-opacity:1;fill-rule:nonzero;stroke:none"
             d="m 0,0 h -6.271 c 0,0 -7.512,-9.404 -7.867,-9.868 V 0 h -5.339 v -24.124 h 5.339 v 10.572 c 0.346,-0.464 8.154,-10.572 8.154,-10.572 h 6.82 c 0,0 -10.331,12.792 -10.472,12.96 C -9.514,-11.023 0.336,0 0.336,0 Z" /></g><g
           transform="translate(296.8291,121.4138)"
           id="g370"><path
             id="path372"
             style="fill:#ffffff;fill-opacity:1;fill-rule:nonzero;stroke:none"
             d="M 0,0 C 0.223,-0.541 2.965,-7.94 3.083,-8.218 H -2.692 C -2.583,-7.867 -0.141,-0.496 0,0 m 2.21,7.453 h -4.006 l -10.227,-24.765 h 5.661 c 0,0 2.065,4.911 2.128,5.047 h 8.817 c 0.069,-0.204 1.997,-5.047 1.997,-5.047 h 5.675 L 2.328,7.453 Z" /></g><g
           transform="translate(373.2549,110.196)"
           id="g374"><path
             id="path376"
             style="fill:#ffffff;fill-opacity:1;fill-rule:nonzero;stroke:none"
             d="m 0,0 c -1.787,1.614 -2.947,4.052 -2.947,6.18 0,3.688 3.01,7.631 7.485,7.631 1.81,0 3.492,-0.647 4.857,-1.892 1.627,-1.465 2.587,-3.598 2.587,-5.712 0,-3.656 -3.333,-8.081 -7.48,-8.081 C 2.478,-1.874 0.95,-0.846 0,0 m -8.463,6.03 c 0,-3.625 1.51,-7.062 4.13,-9.423 2.387,-2.177 5.452,-3.314 8.871,-3.314 7.399,0 12.951,5.457 12.951,12.7 0,3.566 -1.501,6.967 -4.138,9.355 -2.383,2.177 -5.439,3.319 -8.849,3.319 -7.262,0 -12.965,-5.557 -12.965,-12.637" /></g><g
           transform="translate(401.3022,124.1755)"
           id="g378"><path
             id="path380"
             style="fill:#ffffff;fill-opacity:1;fill-rule:nonzero;stroke:none"
             d="m 0,0 c 1.828,0 2.956,-0.281 3.661,-0.923 0.432,-0.39 0.691,-0.905 0.814,-1.582 0.045,-0.264 0.064,-0.559 0.064,-0.86 0,-2.505 -1.388,-3.551 -4.63,-3.551 H -0.578 V 0 Z m -5.798,4.052 h -0.127 v -24.123 h 5.347 v 9.422 c 0.355,-0.56 6.148,-9.422 6.148,-9.422 h 6.44 c 0,0 -7.162,9.858 -7.349,10.122 3.565,0.659 5.216,3.884 5.216,6.671 0,0.568 -0.055,1.1 -0.118,1.61 C 9.486,-0.168 8.835,1.056 7.835,1.987 6.316,3.356 4.034,4.052 1.042,4.052 Z" /></g><g
           transform="translate(452.3809,124.238)"
           id="g382"><path
             id="path384"
             style="fill:#ffffff;fill-opacity:1;fill-rule:nonzero;stroke:none"
             d="m 0,0 c 1.296,0 2.169,-0.241 2.71,-0.728 0.363,-0.345 0.609,-0.818 0.709,-1.414 0.055,-0.236 0.063,-0.504 0.063,-0.782 0,-2.237 -0.927,-3.019 -3.564,-3.019 h -0.441 c 0,0.277 -0.019,5.738 0,5.943 z m 0.168,-9.745 c 1.751,0 3.393,-0.068 4.333,-0.932 0.392,-0.364 0.633,-0.823 0.746,-1.428 0.046,-0.223 0.064,-0.464 0.064,-0.718 0,-3.056 -2.337,-3.307 -4.939,-3.307 h -0.895 c 0,0.278 0,6.19 -0.019,6.385 z M -5.758,3.988 h -0.104 v -24.124 h 8.098 c 5.267,0 8.405,2.597 8.405,6.885 0,0.437 -0.019,0.859 -0.11,1.306 -0.373,2.177 -1.737,4.201 -4.206,4.733 1.569,1.041 2.155,3.001 2.155,4.566 0,0.568 -0.049,1.127 -0.131,1.623 C 8.126,0.337 7.548,1.405 6.68,2.21 5.356,3.401 3.347,3.988 0.541,3.988 Z" /></g><g
           transform="translate(477.3906,121.4138)"
           id="g386"><path
             id="path388"
             style="fill:#ffffff;fill-opacity:1;fill-rule:nonzero;stroke:none"
             d="M 0,0 C 0.214,-0.541 2.956,-7.94 3.065,-8.218 H -2.701 C -2.592,-7.867 -0.159,-0.496 0,0 m 2.201,7.453 h -4.002 l -10.218,-24.765 h 5.634 c 0,0 2.097,4.911 2.156,5.047 h 8.794 c 0.087,-0.204 1.997,-5.047 1.997,-5.047 h 5.703 L 2.311,7.453 Z" /></g><g
           transform="translate(195.8369,127.3112)"
           id="g390"><path
             id="path392"
             style="fill:#ffffff;fill-opacity:1;fill-rule:nonzero;stroke:none"
             d="m 0,0 h -8.053 l 0.027,-2.692 h 8.24 L 0.187,0 Z" /></g><g
           transform="translate(201.4326,116.1296)"
           id="g394"><path
             id="path396"
             style="fill:#ffffff;fill-opacity:1;fill-rule:nonzero;stroke:none"
             d="m 0,0 h -3.27 l 0.091,-7.472 c 0,-0.008 0.028,-1.792 0.028,-1.792 v 0.028 c -0.028,-0.819 0.241,-1.5 0.804,-1.992 0.996,-0.886 2.488,-0.905 2.552,-0.905 H 3.96 L 3.911,-9.264 H 1.446 c -0.182,0 -0.455,0.046 -0.655,0.214 -0.223,0.178 -0.318,0.487 -0.318,0.86 L 0.459,-7.398 0.373,0 Z" /></g><g
           transform="translate(191.5122,121.3698)"
           id="g398"><path
             id="path400"
             style="fill:#ffffff;fill-opacity:1;fill-rule:nonzero;stroke:none"
             d="m 0,0 h -3.261 l -0.122,-12.71 c 0,-0.01 0.036,-1.792 0.036,-1.792 v 0.023 c -0.036,-0.805 0.241,-1.5 0.823,-1.988 0.978,-0.887 2.479,-0.904 2.533,-0.904 h 4.725 l -0.037,2.869 H 1.273 c -0.2,0 -0.464,0.041 -0.687,0.209 -0.195,0.178 -0.309,0.491 -0.309,0.864 L 0.268,-12.638 0.364,0 Z" /></g><g
           transform="translate(207.1616,125.7214)"
           id="g402"><path
             id="path404"
             style="fill:#ffffff;fill-opacity:1;fill-rule:nonzero;stroke:none"
             d="m 0,0 c 0.013,-0.56 0.059,-5.861 0.059,-5.861 0.014,-1.92 -0.264,-1.92 -1.846,-1.92 H -5.384 C -5.394,-7.212 -5.466,-0.419 -5.466,0 Z M 3.242,2.683 H -9.131 l 0.15,-13.174 h 9.895 c 1.973,0.01 2.824,1.469 2.806,2.896 L 3.606,2.683 Z" /></g><g
           transform="translate(209.0439,123.1638)"
           id="g406"><path
             id="path408"
             style="fill:#ffffff;fill-opacity:1;fill-rule:nonzero;stroke:none"
             d="M 0,0 H -9.317 L -9.29,-2.711 0.382,-2.692 0.346,0 Z" /></g><g
           transform="translate(206.8857,114.2995)"
           id="g410"><path
             id="path412"
             style="fill:#ffffff;fill-opacity:1;fill-rule:nonzero;stroke:none"
             d="m 0,0 h -3.197 l 2.46,-6.13 0.846,-2.183 -0.005,0.009 c 0.519,-1.378 1.097,-2.078 2.811,-2.068 H 5.402 L 5.384,-7.735 4.679,-7.771 C 3.715,-7.763 3.288,-7.585 2.556,-5.834 L 0.123,0 Z" /></g><g
           transform="translate(186.0942,123.03)"
           id="g414"><path
             id="path416"
             style="fill:#ffffff;fill-opacity:1;fill-rule:nonzero;stroke:none"
             d="M 0,0 -0.05,-2.387 H 10.018 L 10.009,0.091 0,0.114 Z" /></g><g
           transform="translate(196.1035,117.9236)"
           id="g418"><path
             id="path420"
             style="fill:#ffffff;fill-opacity:1;fill-rule:nonzero;stroke:none"
             d="m 0,0 -12.523,-0.01 0.036,-2.751 H 0.045 L 0.009,0 Z" /></g><g
           transform="translate(210.1543,114.3259)"
           id="g422"><path
             id="path424"
             style="fill:#ffffff;fill-opacity:1;fill-rule:nonzero;stroke:none"
             d="m 0,0 c 0,0 -0.65,-2.319 -0.65,-2.347 -0.564,-1.136 -1.605,-0.849 -1.651,-0.849 l -0.178,0.063 0.028,-2.588 h 2.246 c 1.851,0 1.978,1.378 1.978,1.397 0,-0.019 1.096,4.211 1.096,4.211 l 0.05,0.176 -2.892,0.019 z" /></g><g
           transform="translate(191.4766,128.697)"
           id="g426"><path
             id="path428"
             style="fill:#ffffff;fill-opacity:1;fill-rule:nonzero;stroke:none"
             d="M 0,0 H -3.374 L -6.17,-5.462 c -0.324,-0.514 -1.433,-0.491 -1.433,-0.491 h -0.132 l 0.055,-2.573 2.123,0.008 c 1.392,0.009 1.724,1.101 1.746,1.156 -0.022,-0.019 3.97,7.148 3.97,7.148 L 0.282,0 Z" /></g><g
           transform="translate(243.1938,128.3239)"
           id="g430"><path
             id="path432"
             style="fill:#ffffff;fill-opacity:1;fill-rule:nonzero;stroke:none"
             d="m 0,0 h -12.096 l 0.073,-3.447 H 0.791 L 0.695,0 Z" /></g><g
           transform="translate(227.2158,128.6257)"
           id="g434"><path
             id="path436"
             style="fill:#ffffff;fill-opacity:1;fill-rule:nonzero;stroke:none"
             d="M 0,0 H -3.111 L -5.557,-5.462 C -5.78,-5.889 -6.662,-5.88 -6.662,-5.88 l -0.282,0.009 0.068,-2.787 2.124,0.009 c 1.369,0.009 1.646,1.164 1.66,1.214 -0.014,-0.037 3.415,7.026 3.415,7.026 L 0.532,0 Z" /></g><g
           transform="translate(225.626,121.2536)"
           id="g438"><path
             id="path440"
             style="fill:#ffffff;fill-opacity:1;fill-rule:nonzero;stroke:none"
             d="m 0,0 -1.706,-3.438 c -0.472,-0.895 -0.877,-1.259 -1.423,-1.232 -0.022,0 -1.51,-0.036 -1.51,-0.036 l 0.11,-2.906 h 2.105 c 2.46,0.027 3.392,2.096 3.42,2.196 0,-0.018 2.514,5.139 2.514,5.139 l 0.187,0.4 H 0.073 Z" /></g><g
           transform="translate(225.4927,116.2976)"
           id="g442"><path
             id="path444"
             style="fill:#ffffff;fill-opacity:1;fill-rule:nonzero;stroke:none"
             d="m 0,0 h -3.42 l 0.223,-12.282 H 0.914 L 0.728,0 Z" /></g><g
           transform="translate(242.5898,119.6198)"
           id="g446"><path
             id="path448"
             style="fill:#ffffff;fill-opacity:1;fill-rule:nonzero;stroke:none"
             d="m 0,0 h -3.429 l 0.305,-10.568 0.009,-0.464 c 0.041,-1.137 -0.041,-1.192 -0.278,-1.196 l -7.73,0.04 0.068,-3.478 8.958,-0.063 c 0.755,0.018 3.224,0.258 3.142,2.964 L 1.009,-11.041 0.718,0 Z" /></g><g
           transform="translate(243.7891,121.2536)"
           id="g450"><path
             id="path452"
             style="fill:#ffffff;fill-opacity:1;fill-rule:nonzero;stroke:none"
             d="m 0,0 h -13.065 l 0.1,-3.401 H 0.813 L 0.705,0 Z" /></g><g
           transform="translate(175.7651,128.1814)"
           id="g454"><path
             id="path456"
             style="fill:#ffffff;fill-opacity:1;fill-rule:nonzero;stroke:none"
             d="M 0,0 H -25.169 L -25.106,-2.824 0.514,-2.905 0.491,0 Z" /></g><g
           transform="translate(175.916,120.446)"
           id="g458"><path
             id="path460"
             style="fill:#ffffff;fill-opacity:1;fill-rule:nonzero;stroke:none"
             d="m 0,0 h -25.151 l 0.045,-2.824 H 0.428 L 0.373,0 Z" /></g><g
           transform="translate(174.646,124.0163)"
           id="g462"><path
             id="path464"
             style="fill:#ffffff;fill-opacity:1;fill-rule:nonzero;stroke:none"
             d="M 0,0 H -22.596 V -2.237 H 0.323 L 0.346,0 Z" /></g><g
           transform="translate(165.1694,129.8064)"
           id="g466"><path
             id="path468"
             style="fill:#ffffff;fill-opacity:1;fill-rule:nonzero;stroke:none"
             d="M 0,0 H -3.547 L -3.588,-11.909 H 0.473 L 0.382,0 Z" /></g><g
           transform="translate(165.187,116.4939)"
           id="g470"><path
             id="path472"
             style="fill:#ffffff;fill-opacity:1;fill-rule:nonzero;stroke:none"
             d="m 0,0 h -3.561 l 0.142,-7.681 0.027,-1.21 C -3.383,-9.7 -3.447,-9.7 -4.061,-9.728 h -1.555 v -0.227 l 0.041,-2.578 h 3.379 c 1.032,0 2.774,0.391 2.746,2.906 L 0.532,-7.763 0.373,0 Z" /></g><g
           transform="translate(152.6465,105.8181)"
           id="g474"><path
             id="path476"
             style="fill:#ffffff;fill-opacity:1;fill-rule:nonzero;stroke:none"
             d="m 0,0 c 0.746,0.019 1.624,0.56 2.292,1.428 0,0 0.632,0.968 0.691,1.078 H 6.316 C 6.216,2.388 6.121,2.282 6.121,2.282 6.121,2.273 4.929,0.736 4.929,0.736 4.929,0.745 4.666,0.437 4.666,0.437 2.983,-1.592 2.924,-1.669 0.187,-1.669 h -1.988 c 0,0.25 -0.018,1.464 -0.018,1.66 C -1.592,-0.009 0,0 0,0" /></g><g
           transform="translate(155.4971,118.3591)"
           id="g478"><path
             id="path480"
             style="fill:#ffffff;fill-opacity:1;fill-rule:nonzero;stroke:none"
             d="M 0,0 C 0.009,-0.037 2.497,-0.046 3.438,-0.046 3.32,-0.15 3.242,-0.277 3.242,-0.277 L 2.028,-1.801 C 0.096,-4.12 -0.168,-4.193 -2.078,-4.052 h -2.565 c 0,0.25 -0.027,1.478 -0.027,1.673 0.228,0 1.378,0.009 1.378,0.009 1.314,0 1.614,0.355 2.183,1.01 l 0.072,0.109 c 0,0.009 0.533,0.655 0.533,0.655 0,0 0.504,0.586 0.504,0.596" /></g><g
           transform="translate(170.7651,117.7634)"
           id="g482"><path
             id="path484"
             style="fill:#ffffff;fill-opacity:1;fill-rule:nonzero;stroke:none"
             d="M 0,0 C 0,0 0.782,-0.65 0.782,-0.659 L 0.9,-0.764 c 0.805,-0.655 1.251,-1.014 2.565,-1.014 0,0 1.883,-0.009 2.114,-0.009 0.055,-0.195 0.019,-1.419 0.019,-1.669 H 2.905 C 1.032,-3.597 0.746,-3.524 -2.069,-1.21 l -1.792,1.528 c 0,0 -0.127,0.127 -0.268,0.232 0.923,0 3.401,0.01 3.401,0.046 C -0.719,0.587 0,0 0,0" /></g><g
           transform="translate(151.0122,112.7009)"
           id="g486"><path
             id="path488"
             style="fill:#ffffff;fill-opacity:1;fill-rule:nonzero;stroke:none"
             d="m 0,0 c 0,0 -0.096,0.132 -0.232,0.259 0.478,0 3.197,-0.028 3.37,-0.028 0.077,-0.09 0.2,-0.24 0.2,-0.24 0.723,-0.828 1.682,-0.887 2.869,-0.905 H 7.999 C 8.008,-1.183 8.04,-2.629 8.04,-2.815 7.79,-2.815 5.275,-2.824 5.275,-2.824 2.415,-2.815 1.992,-2.442 0.473,-0.659 0.496,-0.659 0,0 0,0" /></g><g
           transform="translate(171.502,108.278)"
           id="g490"><path
             id="path492"
             style="fill:#ffffff;fill-opacity:1;fill-rule:nonzero;stroke:none"
             d="m 0,0 c 0.096,-0.149 0.705,-1.041 0.705,-1.041 0.713,-0.905 1.628,-1.455 2.396,-1.455 0,0 1.342,-0.027 1.751,-0.027 0.009,-0.237 0.05,-1.474 0.05,-1.661 -0.259,0 -2.042,-0.008 -2.042,-0.008 -2.692,0.018 -2.764,0.09 -4.502,2.087 l -0.277,0.327 -1.25,1.519 c 0,0 -0.105,0.146 -0.214,0.25 C -2.91,-0.009 -0.196,0 0,0" /></g><g
           transform="translate(172.834,112.657)"
           id="g494"><path
             id="path496"
             style="fill:#ffffff;fill-opacity:1;fill-rule:nonzero;stroke:none"
             d="M 0,0 C 0,0 0.246,0.309 0.264,0.317 0.273,0.281 2.628,0.3 3.529,0.3 3.447,0.186 3.333,0.072 3.333,0.072 3.333,0.063 2.869,-0.587 2.869,-0.587 1.451,-2.355 0.987,-2.77 -1.874,-2.779 c 0,0 -2.219,0 -2.719,0.009 0,0.246 -0.032,1.706 -0.032,1.901 h 1.847 C -1.419,-0.851 -0.605,-0.719 0,0" /></g><g
           transform="translate(142.9126,118.1726)"
           id="g498"><path
             id="path500"
             style="fill:#ffffff;fill-opacity:1;fill-rule:nonzero;stroke:none"
             d="m 0,0 h -29.176 l 0.018,-2.77 H 0.464 L 0.445,0 Z" /></g><g
           transform="translate(140.5942,128.3152)"
           id="g502"><path
             id="path504"
             style="fill:#ffffff;fill-opacity:1;fill-rule:nonzero;stroke:none"
             d="m 0,0 h -24.665 l 0.019,-2.77 H 0.482 L 0.464,0 Z" /></g><g
           transform="translate(135.1587,127.6394)"
           id="g506"><path
             id="path508"
             style="fill:#ffffff;fill-opacity:1;fill-rule:nonzero;stroke:none"
             d="m 0,0 h -3.142 l -0.027,-23.75 3.828,-0.068 0.005,23.755 z" /></g><g
           transform="translate(125.7798,126.7868)"
           id="g510"><path
             id="path512"
             style="fill:#ffffff;fill-opacity:1;fill-rule:nonzero;stroke:none"
             d="m 0,0 v -15.861 c 0,0 -0.127,-3.188 -1.978,-4.87 -1.824,-1.678 -2.419,-2.219 -2.419,-2.219 l -2.797,2.569 2.174,2.015 c 0,0 1.137,0.968 1.137,4.252 V 0.009 Z" /></g><g
           transform="translate(132.9561,178.8503)"
           id="g514"><path
             id="path516"
             style="fill:#ffffff;fill-opacity:1;fill-rule:nonzero;stroke:none"
             d="M 0,0 V -5.935 C 0,-6.717 -0.091,-7.484 -0.605,-7.912 -0.959,-8.208 -1.61,-8.34 -2.601,-8.34 H -6.234 V 6.13 C -5.416,6.058 -3.474,5.816 -2.178,4.993 0,3.625 0,1.787 0,0 m -0.196,13.765 c 6.858,-2.488 9.441,-0.718 9.55,-0.646 L 9.563,13.27 8.117,19.254 7.648,18.99 C 7.64,18.972 5.78,17.976 0.687,19.718 c -4.793,1.659 -9,1.595 -12.497,-0.159 -5.483,-2.775 -7.198,-8.749 -7.266,-8.999 l -0.028,-0.051 V 6.412 h 6.04 V -8.34 h -3.516 v -6.529 h 16.075 c 1.923,0 3.738,-0.005 5.293,1.323 1.783,1.555 1.928,3.696 1.928,6.12 v 8.9 c 0,3.305 -0.659,5.82 -3.938,8.153 -3.933,2.783 -11.027,2.888 -13.569,2.824 1.237,1.173 4.584,3.446 10.595,1.314" /></g><g
           transform="translate(210.0742,188.532)"
           id="g518"><path
             id="path520"
             style="fill:#ffffff;fill-opacity:1;fill-rule:nonzero;stroke:none"
             d="m 0,0 c 0,7.966 -5.711,11.527 -11.368,11.527 -8.431,0 -12.114,-6.848 -12.151,-6.925 l -0.159,-0.288 5.43,-3.673 0.209,0.414 c 0.027,0.027 1.937,3.801 6.139,3.965 1.35,0.041 2.601,-0.428 3.551,-1.31 1.055,-0.991 1.624,-2.433 1.624,-4.147 v -24.11 H 0 Z" /></g><g
           transform="translate(275.1226,188.532)"
           id="g522"><path
             id="path524"
             style="fill:#ffffff;fill-opacity:1;fill-rule:nonzero;stroke:none"
             d="m 0,0 c 0,7.966 -5.725,11.527 -11.387,11.527 -8.425,0 -12.095,-6.848 -12.141,-6.925 l -0.15,-0.288 5.421,-3.673 0.209,0.414 c 0.009,0.027 1.928,3.801 6.139,3.965 1.35,0.041 2.61,-0.428 3.551,-1.31 1.06,-0.991 1.619,-2.433 1.619,-4.147 v -24.11 H 0 Z" /></g><g
           transform="translate(286.4995,190.2986)"
           id="g526"><path
             id="path528"
             style="fill:#ffffff;fill-opacity:1;fill-rule:nonzero;stroke:none"
             d="m 0,0 h 10.623 0.363 c 1.929,0 3.747,0 5.303,-1.313 1.796,-1.547 1.937,-3.707 1.937,-6.122 v -11.518 c 0,-4.443 -3.502,-7.79 -8.144,-7.79 -4.566,0 -8.126,3.42 -8.126,7.79 0,4.493 3.482,7.885 8.126,7.885 0.595,0 1.041,-0.023 1.323,-0.041 v 2.697 c 0,1.323 -0.269,1.806 -0.5,1.982 -0.36,0.291 -1.019,0.446 -1.988,0.446 H -7.594 v 4.998 0.045 0.054 c 0.073,0.228 1.664,5.88 6.93,8.732 3.356,1.828 7.399,2.087 12.033,0.777 4.629,-1.337 7.248,0.027 7.257,0.045 l 0.4,0.224 0.16,-0.428 1.978,-5.052 0.118,-0.287 -0.269,-0.159 C 17.912,1.083 13.597,1.715 10.518,2.564 3.465,4.538 0.792,1.314 0,0 m 10.082,-21.127 c 3.337,0 3.337,4.866 0,4.866 -3.329,0 -3.329,-4.866 0,-4.866" /></g><g
           transform="translate(424.9717,190.2986)"
           id="g530"><path
             id="path532"
             style="fill:#ffffff;fill-opacity:1;fill-rule:nonzero;stroke:none"
             d="m 0,0 h 10.986 c 1.928,0 3.739,0 5.321,-1.313 1.778,-1.547 1.91,-3.707 1.91,-6.122 v -11.518 c 0,-4.443 -3.502,-7.79 -8.136,-7.79 -4.565,0 -8.126,3.42 -8.126,7.79 0,4.493 3.488,7.885 8.126,7.885 0.596,0 1.019,-0.023 1.323,-0.041 v 2.697 c 0,1.323 -0.258,1.806 -0.5,1.982 -0.354,0.291 -1.009,0.446 -1.996,0.446 H -7.604 v 4.998 0.045 l 0.01,0.054 c 0.082,0.228 1.678,5.88 6.93,8.732 3.347,1.828 7.39,2.087 12.023,0.777 4.629,-1.337 7.248,0.027 7.276,0.045 L 19.026,8.891 21.281,3.124 21.004,2.965 C 17.907,1.083 13.597,1.715 10.509,2.564 3.483,4.538 0.764,1.314 0,0 m 10.081,-21.127 c 3.338,0 3.338,4.866 0,4.866 -3.324,0 -3.324,-4.866 0,-4.866" /></g><g
           transform="translate(327.0083,200.0593)"
           id="g534"><path
             id="path536"
             style="fill:#ffffff;fill-opacity:1;fill-rule:nonzero;stroke:none"
             d="m 0,0 c -9.422,0.096 -15.088,-5.807 -15.143,-5.88 l -0.109,-0.104 v -5.829 l 0.277,-0.087 c 2.142,-0.605 4.425,-1.305 5.426,-1.66 -0.774,-0.764 -2.183,-2.642 -2.183,-6.175 v -16.343 h 6.821 v 15.392 c 0,0.923 0,2.488 0.995,3.874 0.992,1.361 3.216,2.025 3.234,2.034 l 0.264,0.081 v 4.457 l -0.246,0.104 c -0.1,0.036 -2.551,0.969 -3.92,1.328 -1.164,0.283 -1.928,0.514 -2.396,0.673 1.027,0.577 3.365,1.623 6.98,1.623 0.096,0 8.804,-0.195 8.804,-7.38 v -22.186 h 6.821 v 23.582 C 15.625,-4.992 9.495,-0.096 0,0" /></g><g
           transform="translate(376.2656,195.7429)"
           id="g538"><path
             id="path540"
             style="fill:#ffffff;fill-opacity:1;fill-rule:nonzero;stroke:none"
             d="m 0,0 c -0.587,-0.514 -1.042,-0.851 -1.351,-1.046 0.187,-0.277 0.455,-0.686 0.71,-1.183 1.014,-1.75 1.591,-4.005 1.591,-6.388 v -23.142 h -6.83 v 10.495 c 0,1.669 -3.924,8.34 -10.131,8.34 -2.037,0 -3.752,-1.573 -3.752,-3.446 v -0.423 c 0.332,0.05 0.837,0.095 1.492,0.095 4.72,0 8.144,-3.233 8.144,-7.698 0,-4.443 -3.506,-7.79 -8.144,-7.79 -4.625,0 -8.135,3.347 -8.135,7.79 v 8.026 c 0,4.87 3.565,9.79 10.395,9.79 5.511,0 8.985,-3.188 10.408,-4.825 v 1.833 c 0,6.02 -6.175,7.38 -8.348,7.38 -7.285,0 -9.632,-4.965 -9.727,-5.179 l -0.159,-0.346 -6.103,2.665 0.141,0.336 c 0.046,0.096 4.293,9.031 15.848,9.031 3.738,0 6.207,-0.986 6.862,-1.268 0.163,0.077 0.55,0.282 1.154,0.818 2.443,2.21 2.588,4.429 2.588,4.448 l 0.009,0.364 H 4.484 L 4.452,8.268 C 4.424,8.071 3.934,3.543 0,0 m -18.271,-26.575 c 3.342,0 3.342,4.871 0,4.871 -3.338,0 -3.338,-4.871 0,-4.871" /></g><g
           transform="translate(371.9404,212.7243)"
           id="g542"><path
             id="path544"
             style="fill:#ffffff;fill-opacity:1;fill-rule:nonzero;stroke:none"
             d="m 0,0 c -1.724,0.364 -5.498,1.015 -9.6,1.015 -3.36,0 -5.561,-0.233 -6.743,-0.401 0.977,1.214 3.351,3.438 7.825,3.374 C -3.506,3.848 -0.987,1.323 0,0 m 7.203,-1.191 v 0.045 L 7.185,-1.1 C 7.167,-0.996 4.315,10.141 -8.518,10.327 -20.659,10.428 -24.097,-0.968 -24.133,-1.082 v -0.064 -0.045 -4.948 l 0.491,0.074 c 0.055,0.008 5.266,0.845 13.551,0.845 8.767,0 16.698,-1.583 16.78,-1.61 l 0.514,-0.095 z" /></g><g
           transform="translate(398.1499,200.0593)"
           id="g546"><path
             id="path548"
             style="fill:#ffffff;fill-opacity:1;fill-rule:nonzero;stroke:none"
             d="m 0,0 c -9.431,0.096 -15.097,-5.807 -15.143,-5.88 l -0.1,-0.104 v -5.829 l 0.278,-0.087 c 2.114,-0.605 4.415,-1.305 5.424,-1.66 -0.782,-0.764 -2.2,-2.642 -2.2,-6.175 v -16.343 h 6.829 v 15.392 c 0,0.923 0,2.488 0.996,3.874 1.001,1.361 3.197,2.025 3.233,2.034 l 0.265,0.081 v 4.457 l -0.246,0.104 c -0.1,0.036 -2.56,0.969 -3.92,1.328 -1.155,0.283 -1.919,0.514 -2.406,0.673 1.028,0.577 3.365,1.623 6.99,1.623 0.082,0 8.794,-0.195 8.794,-7.38 v -22.186 h 6.812 v 23.582 C 15.606,-4.992 9.477,-0.096 0,0" /></g><g
           transform="translate(505.207,192.1814)"
           id="g550"><path
             id="path552"
             style="fill:#ffffff;fill-opacity:1;fill-rule:nonzero;stroke:none"
             d="M 0,0 V -28.198 H -6.812 V 0.337 l -12.282,-17.194 v -11.341 h -6.725 v 20.363 c -0.301,-0.019 -0.746,-0.032 -1.315,-0.032 -4.707,0 -8.23,3.415 -8.23,7.958 0,4.365 3.624,7.785 8.23,7.785 4.584,0 8.04,-3.338 8.04,-7.785 v -5.935 l 0.823,1.447 8.671,11.841 h 2.006 c 2.06,0 4.015,0 5.657,-1.405 C -0.15,4.493 0,2.479 0,0 m -27.134,2.183 c -3.251,0 -3.251,-4.793 0,-4.793 3.242,0 3.242,4.793 0,4.793" /></g><g
           transform="translate(541.6836,199.6247)"
           id="g554"><path
             id="path556"
             style="fill:#ffffff;fill-opacity:1;fill-rule:nonzero;stroke:none"
             d="m 0,0 v -28.198 c 0,-2.424 -0.15,-4.566 -1.937,-6.121 -1.546,-1.332 -3.375,-1.324 -5.293,-1.324 h -14.333 c -1.928,0 -3.756,-0.008 -5.302,1.332 -1.797,1.547 -1.929,3.689 -1.929,6.113 v 1.927 c 0,4.011 2.356,5.967 3.543,6.712 -1.41,0.846 -4.548,3.456 -4.625,9.932 0,6.917 4.733,10.064 9.131,10.064 4.606,0 8.23,-3.42 8.23,-7.791 0,-4.442 -3.542,-7.789 -8.23,-7.789 -0.25,0 -0.437,0.009 -0.613,0.018 0.299,-0.541 1.054,-1.387 3.028,-1.805 2.519,-0.487 5.257,-0.246 5.257,-0.246 l 0.454,0.041 v -5.938 h -3.811 c -2.968,0 -5.647,-0.25 -5.647,-3.28 0,-2.328 0.591,-2.759 3.665,-2.759 h 9.103 c 0.633,0 1.433,0.041 1.902,0.423 0.505,0.427 0.577,1.2 0.577,1.982 L -6.83,0 Z m -20.745,-5.257 c -3.26,0 -3.26,-4.798 0,-4.798 3.228,0 3.228,4.798 0,4.798" /></g><g
           transform="translate(153.9165,194.3669)"
           id="g558"><path
             id="path560"
             style="fill:#ffffff;fill-opacity:1;fill-rule:nonzero;stroke:none"
             d="M 0,0 C -3.233,0 -3.233,-4.798 0,-4.798 3.242,-4.798 3.242,0 0,0 m 35.01,-22.31 c 0.027,-2.255 -0.778,-4.256 -2.328,-5.811 -1.674,-1.65 -4.165,-2.688 -6.516,-2.688 -3.871,0 -7.763,2.192 -7.763,7.085 v 3.27 c -0.587,-0.382 -1.715,-1.228 -3.72,-3.011 -2.755,-2.542 -4.674,-4.733 -5.711,-5.907 -0.809,-0.932 -0.887,-1.014 -1.119,-1.014 H 1.591 v 20.368 c -0.304,-0.018 -0.736,-0.037 -1.309,-0.037 -4.625,0 -8.122,3.42 -8.122,7.958 0,4.37 3.574,7.789 8.122,7.789 4.543,0 7.958,-3.337 7.958,-7.789 v -15.879 l -0.123,-3.038 c 0.8,0.841 2.378,2.378 5.002,4.566 2.574,2.096 4.602,3.064 5.284,3.365 V 5.256 h 6.653 v -17.48 c 1.769,-0.255 9.708,-1.864 9.954,-10.086 m -8.39,2.556 c -3.529,0 -3.529,-5.238 0,-5.238 3.561,0 3.561,5.238 0,5.238" /></g><g
           transform="translate(248.2563,184.7751)"
           id="g562"><path
             id="path564"
             style="fill:#ffffff;fill-opacity:1;fill-rule:nonzero;stroke:none"
             d="m 0,0 v -20.791 h -6.812 v 20.699 c 0,5.298 -4.12,9.3 -9.595,9.3 -6.889,0 -9.968,-4.848 -9.968,-9.645 0,-2.647 0.655,-4.662 1.105,-5.752 0.418,1.66 1.183,4.715 1.183,4.715 1.064,4.27 3.965,6.821 7.762,6.821 3.092,0 7.417,-2.246 7.417,-7.257 0,-5.239 -4.539,-7.203 -7.417,-7.203 -1.259,0 -2.346,0.409 -2.928,0.65 -0.26,-0.746 -0.819,-2.487 -1.278,-4.779 -0.819,-3.857 -0.973,-6.012 -0.973,-7.158 v -0.391 h -6.826 v 0.391 1.391 c 0,3.047 -1.032,5.767 -2.115,8.617 -1.341,3.525 -2.737,7.149 -2.387,11.806 0.691,9.076 8.967,13.969 16.411,13.969 4.739,0.046 8.854,-1.474 11.882,-4.379 C -1.614,8.198 0,4.278 0,0 m -16.325,0.613 c -3.329,0 -3.329,-4.884 0,-4.884 3.342,0 3.342,4.884 0,4.884" /></g><g
           transform="translate(470.1875,171.3454)"
           id="g566"><path
             id="path568"
             style="fill:#ffffff;fill-opacity:1;fill-rule:nonzero;stroke:none"
             d="m 0,0 c 0,-4.37 -3.615,-7.789 -8.244,-7.789 -4.615,0 -8.117,3.347 -8.117,7.789 v 34.674 l 0.373,8.107 -5.248,-8.935 h -4.034 l -3.942,12.346 c -0.068,0.119 -0.282,0.5 -0.469,0.987 -0.186,0.532 -0.322,0.614 -0.517,0.664 -0.255,0.073 -0.401,0.222 -0.401,0.418 v 7.176 h 3.183 c 0.532,0 1.083,-0.255 1.642,-0.795 0.487,-0.493 0.792,-1.238 0.8,-1.292 l 2.974,-8.536 6.344,10.623 h 6.107 V 7.79 c 0.314,0.055 0.764,0.095 1.305,0.095 C -3.542,7.885 0,4.493 0,0 m -8.244,-2.178 c 3.351,0 3.351,4.87 0,4.87 -3.311,0 -3.311,-4.87 0,-4.87" /></g></g></g></g></svg>