<svg class="mobile-logo" width="36" height="36" viewBox="0 0 36 36" fill="none" xmlns="http://www.w3.org/2000/svg">
        <path d="M30.2663 7.09376C28.3708 6.40577 26.2902 6.42814 24.41 7.15673C22.5298 7.88531 20.9774 9.27072 20.0405 11.0563C19.436 9.90467 18.5705 8.91053 17.513 8.15336C16.4556 7.39619 15.2356 6.89701 13.9507 6.69576C12.6658 6.49452 11.3516 6.59679 10.1133 6.99439C8.87498 7.39199 7.74691 8.07389 6.81933 8.98554C6.81279 8.99318 6.80567 9.0003 6.79803 9.00684L6.76394 9.03027C6.70419 9.06873 6.63474 9.08942 6.56369 9.08992C6.49301 9.09066 6.42363 9.07094 6.36391 9.03314C6.30419 8.99534 6.25667 8.94108 6.22709 8.87689V8.87689C6.03097 8.21476 5.62658 7.63352 5.07395 7.21943C4.52132 6.80534 3.8499 6.58048 3.15934 6.57821H0.752014V30.2659H6.23774V16.5569C6.23774 15.3274 6.72614 14.1483 7.5955 13.279C8.46487 12.4096 9.64398 11.9212 10.8734 11.9212C12.1029 11.9212 13.282 12.4096 14.1514 13.279C15.0207 14.1483 15.5091 15.3274 15.5091 16.5569V30.2659H20.9949V16.5569C20.9949 15.3274 21.4833 14.1483 22.3526 13.279C23.222 12.4096 24.4011 11.9212 25.6306 11.9212C26.86 11.9212 28.0391 12.4096 28.9085 13.279C29.7779 14.1483 30.2663 15.3274 30.2663 16.5569V30.2659H32.7993C33.604 30.2045 34.3558 29.841 34.9035 29.2482C35.4512 28.6555 35.7543 27.8774 35.752 27.0703V14.925C35.7527 13.2143 35.2266 11.5448 34.2451 10.1436C33.2635 8.74247 31.8743 7.67758 30.2663 7.09376V7.09376Z" fill="#0091FF"/>
        </svg>