<svg width="19" height="5" viewBox="0 0 19 5" fill="none" xmlns="http://www.w3.org/2000/svg">
<path fill-rule="evenodd" clip-rule="evenodd" d="M5 2.5C5 3.88071 3.88074 5 2.5 5C1.11926 5 0 3.88071 0 2.5C0 1.11929 1.11926 0 2.5 0C3.88074 0 5 1.11929 5 2.5ZM12 2.5C12 3.88071 10.8807 5 9.5 5C8.11926 5 7 3.88071 7 2.5C7 1.11929 8.11926 0 9.5 0C10.8807 0 12 1.11929 12 2.5ZM16.5 5C17.8807 5 19 3.88071 19 2.5C19 1.11929 17.8807 0 16.5 0C15.1193 0 14 1.11929 14 2.5C14 3.88071 15.1193 5 16.5 5Z" fill="#53B1FF"/>
</svg>
