<svg width="15" height="15" viewBox="0 0 15 15" fill="none" xmlns="http://www.w3.org/2000/svg">
<path d="M4.73861 2.39157C7.48971 1.26531 10.7184 2.31708 12.2461 4.96316C13.9129 7.85016 12.9237 11.5418 10.0367 13.2086C7.14973 14.8754 3.45814 13.8862 1.79133 10.9992C0.824276 9.32423 0.75084 7.3788 1.42458 5.71332C1.52622 5.46205 1.40493 5.17595 1.15365 5.0743C0.902379 4.97265 0.616277 5.09395 0.514629 5.34522C-0.267592 7.27887 -0.183344 9.54215 0.941254 11.49C2.87912 14.8465 7.17104 15.9965 10.5275 14.0586C13.884 12.1208 15.034 7.82886 13.0962 4.47237C11.297 1.35617 7.4688 0.141829 4.24391 1.53471L3.35784 0L2.30661 3.16523L5.57339 3.83745L4.73861 2.39157Z" fill="#53B1FF"/>
</svg>
