<svg width="24" height="24" viewBox="0 0 24 24" fill="none" xmlns="http://www.w3.org/2000/svg" class="ng-star-inserted"><path d="M8.40002 18.4V22.8762C8.40002 23.1889 8.62506 23.4658 8.95827 23.5643C9.04158 23.5884 9.12705 23.6 9.21143 23.6C9.46459 23.6 9.7091 23.4938 9.86489 23.3047L12.8 19.7415L8.40002 18.4Z" ng-reflect-ng-style="[object Object]" style="fill: rgb(84, 177, 255);"></path><path d="M23.685 0.14187C23.455 -0.0243895 23.153 -0.0468294 22.903 0.08679L0.403043 12.0717C0.137044 12.2135 -0.0199555 12.5032 0.00204447 12.8082C0.0250444 13.1142 0.224044 13.3753 0.507043 13.4742L6.76202 15.655L20.083 4.03723L9.77501 16.7046L20.258 20.3592C20.336 20.3857 20.418 20.4 20.5 20.4C20.636 20.4 20.771 20.3623 20.89 20.2888C21.08 20.1705 21.209 19.9716 21.242 19.7482L23.992 0.878306C24.033 0.592708 23.915 0.309149 23.685 0.14187Z" ng-reflect-ng-style="[object Object]" style="fill: rgb(84, 177, 255);"></path></svg>