<svg width="75" height="64" viewBox="0 0 75 64" fill="none" xmlns="http://www.w3.org/2000/svg">
<path fill-rule="evenodd" clip-rule="evenodd" d="M36.9573 18.8657C36.9573 8.46329 45.4075 0 55.7937 0C66.1799 0 74.63 8.46329 74.63 18.8657C74.63 29.268 66.1799 37.7313 55.7937 37.7313C53.6315 37.7313 51.5509 37.3774 49.6024 36.6782L39.8738 38.3785C39.7917 38.3933 39.7092 38.4 39.6277 38.4C39.1957 38.4 38.7809 38.2037 38.5066 37.8569C38.1809 37.4453 38.1061 36.8884 38.312 36.405L40.88 30.3747C39.799 28.9886 38.9158 27.435 38.2491 25.7437C37.3912 23.542 36.9573 21.2293 36.9573 18.8657ZM20.4755 18.8632C13.9465 18.8632 8.63489 24.1877 8.63489 30.7325C8.63489 37.2772 13.9465 42.6018 20.4755 42.6018C27.0044 42.6018 32.316 37.2772 32.316 30.7325C32.316 24.1877 27.0044 18.8632 20.4755 18.8632ZM35.2904 50.1736C32.0304 46.8 27.7089 44.9422 23.1216 44.9422H17.8293C13.2422 44.9422 8.92041 46.8 5.66052 50.1736C2.4165 53.5307 0.630005 57.962 0.630005 62.6516C0.630005 63.3962 1.22241 64 1.953 64H38.9979C39.7285 64 40.3209 63.3962 40.3209 62.6516C40.3209 57.962 38.5344 53.5307 35.2904 50.1736Z" fill="#363951"/>
<path fill-rule="evenodd" clip-rule="evenodd" d="M49.1454 14.321C48.6949 14.321 48.2626 14.4063 47.9243 14.5663C47.6243 14.7082 47.2208 15.0026 47.2208 15.4947C47.2208 15.9869 47.6243 16.2813 47.9243 16.4231C48.2626 16.5831 48.6949 16.6684 49.1454 16.6684H62.4417C62.8922 16.6684 63.3245 16.5831 63.6628 16.4231C63.9628 16.2813 64.3663 15.9869 64.3663 15.4947C64.3663 15.0026 63.9628 14.7082 63.6628 14.5663C63.3245 14.4063 62.8922 14.321 62.4417 14.321H49.1454ZM49.1454 21.0579C48.6949 21.0579 48.2626 21.1432 47.9243 21.3032C47.6243 21.4451 47.2208 21.7394 47.2208 22.2316C47.2208 22.7237 47.6243 23.0181 47.9243 23.16C48.2626 23.32 48.6949 23.4053 49.1454 23.4053H62.4417C62.8922 23.4053 63.3245 23.32 63.6628 23.16C63.9628 23.0181 64.3663 22.7237 64.3663 22.2316C64.3663 21.7394 63.9628 21.4451 63.6628 21.3032C63.3245 21.1432 62.8922 21.0579 62.4417 21.0579H49.1454Z" fill="white"/>
</svg>
