<svg width="22" height="19" viewBox="0 0 22 19" fill="none" xmlns="http://www.w3.org/2000/svg">
<path d="M21.9833 10.0522L20.4119 2.59728C20.1084 0.970848 18.9396 0 17.2857 0H4.71429C3.88929 0 3.19197 0.230313 2.64688 0.684554C2.10179 1.13879 1.74478 1.78013 1.58715 2.59433L0.0157181 10.0522C0.00510143 10.1056 -0.000162744 10.1599 3.83229e-06 10.2143V15.7143C3.83229e-06 16.5478 0.331125 17.3472 0.920525 17.9366C1.50993 18.526 2.30932 18.8571 3.14286 18.8571H18.8571C19.6907 18.8571 20.4901 18.526 21.0795 17.9366C21.6689 17.3472 22 16.5478 22 15.7143V10.2143C21.9998 10.1598 21.9943 10.1056 21.9833 10.0522ZM3.12616 2.91205V2.8983C3.30049 1.99326 3.80433 1.57241 4.71183 1.57241H17.2857C18.1996 1.57241 18.7034 1.99228 18.8704 2.89388C18.8704 2.90027 18.8729 2.90665 18.8738 2.91304L20.1963 9.19286C20.2023 9.22147 20.2018 9.25106 20.1949 9.27946C20.188 9.30787 20.1749 9.33438 20.1564 9.35706C20.138 9.37974 20.1147 9.39802 20.0883 9.41056C20.0619 9.4231 20.033 9.42959 20.0038 9.42955H14.1429C13.9357 9.42851 13.7366 9.50974 13.5892 9.6554C13.4419 9.80107 13.3584 9.99925 13.3571 10.2064C13.3571 10.8316 13.1088 11.4311 12.6668 11.8732C12.2247 12.3152 11.6252 12.5636 11 12.5636C10.3748 12.5636 9.7753 12.3152 9.33325 11.8732C8.8912 11.4311 8.64286 10.8316 8.64286 10.2064C8.64235 10.1038 8.62161 10.0022 8.58185 9.90755C8.54208 9.81289 8.48407 9.727 8.4111 9.65477C8.33814 9.58254 8.25167 9.52539 8.15662 9.48657C8.06157 9.44776 7.95981 9.42805 7.85715 9.42857H1.99621C1.96698 9.42861 1.9381 9.42212 1.9117 9.40958C1.88529 9.39704 1.86202 9.37876 1.84357 9.35608C1.82513 9.3334 1.81198 9.30689 1.80508 9.27848C1.79818 9.25007 1.79772 9.22048 1.80371 9.19187L3.12616 2.91205Z" fill="#2FC639"/>
<path d="M16.5 4.71401H5.5C5.29161 4.71401 5.09177 4.63123 4.94442 4.48388C4.79707 4.33653 4.71428 4.13668 4.71428 3.92829C4.71428 3.71991 4.79707 3.52006 4.94442 3.37271C5.09177 3.22536 5.29161 3.14258 5.5 3.14258H16.5C16.7084 3.14258 16.9082 3.22536 17.0556 3.37271C17.2029 3.52006 17.2857 3.71991 17.2857 3.92829C17.2857 4.13668 17.2029 4.33653 17.0556 4.48388C16.9082 4.63123 16.7084 4.71401 16.5 4.71401Z" fill="#2FC639"/>
<path d="M17.2857 7.85756H4.71428C4.5059 7.85756 4.30605 7.77478 4.1587 7.62743C4.01135 7.48008 3.92857 7.28023 3.92857 7.07185C3.92857 6.86346 4.01135 6.66361 4.1587 6.51626C4.30605 6.36891 4.5059 6.28613 4.71428 6.28613H17.2857C17.4941 6.28613 17.6939 6.36891 17.8413 6.51626C17.9886 6.66361 18.0714 6.86346 18.0714 7.07185C18.0714 7.28023 17.9886 7.48008 17.8413 7.62743C17.6939 7.77478 17.4941 7.85756 17.2857 7.85756Z" fill="#2FC639"/>
</svg>
