<svg width="29" height="26" viewBox="0 0 29 26" fill="none" xmlns="http://www.w3.org/2000/svg">
<path d="M25.8131 9.44568V9.56046L25.9001 9.63527L28.35 11.7409C28.7286 12.0663 28.848 12.5584 28.6669 12.9998C28.4844 13.4442 28.0357 13.7409 27.5114 13.7409H25.4328H25.1828V13.9909V25.1956V25.1956C25.1828 25.4882 24.9269 25.75 24.58 25.75H17.4485C17.1016 25.75 16.8457 25.4882 16.8457 25.1956V18.3924V18.1424H16.5957H12.4042H12.1542V18.3924V25.1955C12.1542 25.4882 11.8983 25.7499 11.5514 25.7499H4.4196C4.0727 25.7499 3.81676 25.4881 3.81676 25.1955V13.9908V13.7408H3.56676H1.48868C0.964289 13.7408 0.515645 13.4442 0.333145 12.9998C0.151957 12.5585 0.271418 12.0663 0.649957 11.7409L13.6613 0.557729L13.6613 0.557703C14.1385 0.147457 14.8612 0.147385 15.3386 0.557771L15.3386 0.557783L18.2973 3.10073L18.7102 3.45565V2.91113V2.46374C18.7102 2.17108 18.9662 1.90929 19.3131 1.90929H25.2102C25.5571 1.90929 25.8131 2.17112 25.8131 2.46374V9.44568ZM23.7272 24.6411H23.9772V24.3911V13.1864C23.9772 12.8938 24.2332 12.632 24.58 12.632H26.947H27.6214L27.11 12.1924L24.7989 10.206C24.6746 10.0992 24.6075 9.95173 24.6075 9.80097V3.26818V3.01818H24.3575H20.166H19.916V3.26818V4.73244C19.916 4.94352 19.7835 5.14503 19.5616 5.23755C19.3381 5.33063 19.0782 5.28915 18.9017 5.13748L14.663 1.49428L14.5 1.35422L14.3371 1.49428L1.88998 12.1924L1.37851 12.632H2.05293H4.41954C4.76645 12.632 5.02238 12.8938 5.02238 13.1864V24.3911V24.6411H5.27238H10.6986H10.9486V24.3911V17.5879C10.9486 17.2953 11.2045 17.0335 11.5514 17.0335H17.4486C17.7954 17.0335 18.0514 17.2953 18.0514 17.5879V24.3911V24.6411H18.3014H23.7272Z" fill="black" stroke="white" stroke-width="0.5"/>
</svg>
