<svg width="27" height="26" viewBox="0 0 27 26" fill="none" xmlns="http://www.w3.org/2000/svg">
<path d="M22.8848 25.9999H16.2451C15.8067 25.9999 15.4511 25.6398 15.4511 25.1955V18.3924H11.5487V25.1956C11.5487 25.6398 11.1932 26 10.7547 26H4.11478C3.6763 26 3.32076 25.6399 3.32076 25.1956V13.9908H1.386C0.809829 13.9908 0.303002 13.6391 0.0948606 13.0948C-0.113228 12.5503 0.0275192 11.9445 0.4534 11.5513L12.5675 0.368136C13.099 -0.122694 13.9008 -0.122747 14.4325 0.368189L17.1871 2.91113V2.46369C17.1871 2.01944 17.5427 1.65924 17.9812 1.65924H23.4716C23.9101 1.65924 24.2656 2.01939 24.2656 2.46369V9.44563L26.5465 11.5512C26.9725 11.9445 27.1132 12.5503 26.9051 13.0947C26.697 13.6391 26.1902 13.9908 25.614 13.9908H23.6788V25.1954C23.6788 25.6398 23.3233 25.9999 22.8848 25.9999Z" fill="#2FC639"/>
</svg>
