<svg width="20" height="27" viewBox="0 0 20 27" fill="none" xmlns="http://www.w3.org/2000/svg">
<path d="M17.9735 1.97266H15.3632V2.82775C15.3615 4.46872 13.9835 5.79875 12.2832 5.80045H7.71675C6.01655 5.79875 4.63852 4.46872 4.63675 2.82775V1.97266H2.02648C0.907715 1.97407 0.00146974 2.84875 0 3.92854V24.6265C0.0011758 25.7063 0.907715 26.5813 2.02648 26.5824H17.9735C19.0923 26.5813 19.9988 25.7063 20 24.6265V3.92854C19.9988 2.84875 19.0923 1.97407 17.9735 1.97266ZM14.6181 13.0685L9.15181 18.2192C8.94722 18.4119 8.62064 18.4119 8.41606 18.2192L5.38191 15.36C5.1738 15.164 5.16968 14.842 5.3731 14.6411C5.57621 14.4402 5.90985 14.4363 6.11796 14.6326L8.78408 17.1448L13.882 12.3408C14.0902 12.1447 14.4238 12.1484 14.6269 12.3493C14.8303 12.5504 14.8262 12.8722 14.6181 13.0685Z" fill="#2FC639"/>
<path d="M7.71667 4.78361H12.2832C13.4019 4.78248 14.3085 3.90752 14.3097 2.82772V1.97263H12.5915C12.3443 1.97263 12.1303 1.80637 12.0771 1.57316C11.8696 0.661609 10.9963 0 10.0001 0C9.00387 0 8.13026 0.661609 7.92302 1.57345C7.87011 1.80666 7.65582 1.97291 7.40861 1.97291H5.69019V2.82801C5.69166 3.90752 6.59819 4.78248 7.71667 4.78361Z" fill="#2FC639"/>
</svg>
