<svg width="21" height="27" viewBox="0 0 21 27" fill="none" xmlns="http://www.w3.org/2000/svg">
<path d="M12.8257 1.88376L12.8586 1.95826H12.94L17.2823 1.95826C18.8516 1.96008 20.1232 3.2309 20.125 4.79876V24.0345C20.1232 25.6024 18.8516 26.8732 17.2823 26.875H2.96749C1.39825 26.8732 0.12682 25.6024 0.125 24.0345L0.125 4.79869C0.126857 3.23085 1.39827 1.96008 2.96749 1.95826L7.30996 1.95826H7.3914L7.42431 1.88376C7.89635 0.814908 8.9555 0.125 10.1251 0.125C11.2945 0.125 12.3536 0.814904 12.8257 1.88376ZM11.9138 2.62618L11.9138 2.62612C11.7346 1.81125 10.9807 1.225 10.1251 1.225C9.26953 1.225 8.51538 1.81122 8.33623 2.6261C8.28066 2.87863 8.05704 3.05826 7.79864 3.05826H6.45883H6.33383V3.18326V3.77557V3.77572C6.33497 4.73637 7.11391 5.51458 8.07524 5.51572H8.07539H12.1746H12.1748C13.1359 5.51458 13.9148 4.73636 13.916 3.77572V3.77557V3.18326V3.05826H13.791H12.4516C12.1927 3.05826 11.9692 2.87858 11.9138 2.62618ZM19.024 24.0348V24.0346V4.79862V4.79847C19.0229 3.83762 18.2439 3.05939 17.2826 3.05826H17.2824H15.142H15.017V3.18326V3.77543C15.0151 5.34329 13.7437 6.6139 12.1745 6.61572H8.07553C6.50627 6.6139 5.23465 5.34328 5.23283 3.77543V3.18326V3.05826H5.10783H2.96734H2.9672C2.00606 3.05939 1.22714 3.83763 1.226 4.79847V4.79862L1.226 24.0346L1.226 24.0348C1.22714 24.9956 2.00604 25.7741 2.96722 25.775H2.96734H17.2824H17.2826C18.2439 25.7741 19.0231 24.9956 19.024 24.0348Z" fill="#484B52" stroke="white" stroke-width="0.25"/>
<path d="M13.4682 12.4716L9.0335 16.7984L6.78155 14.6019C6.51663 14.3429 6.09233 14.346 5.83079 14.6084C5.56945 14.8711 5.5684 15.295 5.82868 15.5587L5.83775 15.5676L8.56128 18.225C8.82388 18.481 9.2429 18.481 9.50529 18.225L14.4117 13.438C14.6771 13.1772 14.6813 12.7513 14.4217 12.4854C14.1616 12.2194 13.7356 12.2135 13.4682 12.4721V12.4716Z" fill="#484B52"/>
</svg>
