<svg width="24" height="24" viewBox="0 0 24 24" fill="none" xmlns="http://www.w3.org/2000/svg">
<path d="M22.5 21H1.5C0.948 21 0.5 20.552 0.5 20C0.5 19.448 0.948 19 1.5 19H22.5C23.052 19 23.5 19.448 23.5 20C23.5 20.552 23.052 21 22.5 21Z" fill="#2FC639"/>
<path d="M22.5 10H1.5C0.948 10 0.5 9.552 0.5 9C0.5 8.448 0.948 8 1.5 8H22.5C23.052 8 23.5 8.448 23.5 9C23.5 9.552 23.052 10 22.5 10Z" fill="#2FC639"/>
<path d="M1 24C0.448 24 0 23.552 0 23V1C0 0.448 0.448 0 1 0C1.552 0 2 0.448 2 1V23C2 23.552 1.552 24 1 24Z" fill="#2FC639"/>
<path d="M23 24C22.448 24 22 23.552 22 23V1C22 0.448 22.448 0 23 0C23.552 0 24 0.448 24 1V23C24 23.552 23.552 24 23 24Z" fill="#2FC639"/>
<path d="M4.5 13H6.25H7.75H9.5C9.776 13 10 13.224 10 13.5V17.5C10 17.776 9.776 18 9.5 18H4.5C4.224 18 4 17.776 4 17.5V13.5C4 13.224 4.224 13 4.5 13Z" fill="#2FC639"/>
<path d="M12.5 12H14.75H18.5C18.776 12 19 12.224 19 12.5V17.5C19 17.776 18.776 18 18.5 18H12.5C12.224 18 12 17.776 12 17.5V12.5C12 12.224 12.224 12 12.5 12Z" fill="#2FC639"/>
<path d="M5.5 2H8.25H12.5C12.776 2 13 2.224 13 2.5V6.5C13 6.776 12.776 7 12.5 7H5.5C5.224 7 5 6.776 5 6.5V2.5C5 2.224 5.224 2 5.5 2Z" fill="#2FC639"/>
</svg>
