<svg width="24" height="24" viewBox="0 0 24 24" fill="none" xmlns="http://www.w3.org/2000/svg">
<path d="M5.92494 9V9.075H5.99994H11.9999H12.0749V9V3V2.925H11.9999H5.99994H5.92494V3V9ZM12.4999 9.925H5.49994C5.26536 9.925 5.07494 9.73458 5.07494 9.5V2.5C5.07494 2.26542 5.26536 2.075 5.49994 2.075H12.4999C12.7345 2.075 12.9249 2.26542 12.9249 2.5V9.5C12.9249 9.73458 12.7345 9.925 12.4999 9.925Z" fill="#484B52" stroke="white" stroke-width="0.15"/>
<path d="M12.925 20V20.075H13H19H19.075V20V14V13.925H19H13H12.925V14V20ZM19.5 20.925H12.5C12.2654 20.925 12.075 20.7346 12.075 20.5V13.5C12.075 13.2654 12.2654 13.075 12.5 13.075H19.5C19.7346 13.075 19.925 13.2654 19.925 13.5V20.5C19.925 20.7346 19.7346 20.925 19.5 20.925Z" fill="#484B52" stroke="white" stroke-width="0.15"/>
<path d="M4.92506 20V20.075H5.00006H10.0001H10.0751V20V15V14.925H10.0001H5.00006H4.92506V15V20ZM10.5001 20.925H4.50006C4.26548 20.925 4.07506 20.7346 4.07506 20.5V14.5C4.07506 14.2654 4.26548 14.075 4.50006 14.075H10.5001C10.7346 14.075 10.9251 14.2654 10.9251 14.5V20.5C10.9251 20.7346 10.7346 20.925 10.5001 20.925Z" fill="#484B52" stroke="white" stroke-width="0.15"/>
<path d="M21.4999 20.925H2.49994C2.26536 20.925 2.07494 20.7346 2.07494 20.5C2.07494 20.2654 2.26536 20.075 2.49994 20.075H21.4999C21.7345 20.075 21.9249 20.2654 21.9249 20.5C21.9249 20.7346 21.7345 20.925 21.4999 20.925Z" fill="#484B52" stroke="white" stroke-width="0.15"/>
<path d="M21.4999 9.925H2.49994C2.26536 9.925 2.07494 9.73458 2.07494 9.5C2.07494 9.26542 2.26536 9.075 2.49994 9.075H21.4999C21.7345 9.075 21.9249 9.26542 21.9249 9.5C21.9249 9.73458 21.7345 9.925 21.4999 9.925Z" fill="#484B52" stroke="white" stroke-width="0.15"/>
<path d="M0.925 23V23.075H1H2H2.075V23V1V0.925H2H1H0.925V1V23ZM2.5 23.925H0.5C0.265421 23.925 0.075 23.7346 0.075 23.5V0.5C0.075 0.265421 0.265421 0.075 0.5 0.075H2.5C2.73458 0.075 2.925 0.265421 2.925 0.5V23.5C2.925 23.7346 2.73458 23.925 2.5 23.925Z" fill="#484B52" stroke="white" stroke-width="0.15"/>
<path d="M21.925 23V23.075H22H23H23.075V23V1V0.925H23H22H21.925V1V23ZM23.5 23.925H21.5C21.2654 23.925 21.075 23.7346 21.075 23.5V0.5C21.075 0.265421 21.2654 0.075 21.5 0.075H23.5C23.7346 0.075 23.925 0.265421 23.925 0.5V23.5C23.925 23.7346 23.7346 23.925 23.5 23.925Z" fill="#484B52" stroke="white" stroke-width="0.15"/>
</svg>
