<svg xmlns="http://www.w3.org/2000/svg" width="40" height="36" viewBox="0 0 40 36" fill="none">
    <path
      fill-rule="evenodd"
      clip-rule="evenodd"
      d="M1.81491 0C0.812564 0 0 0.805887 0 1.8C0 2.79411 0.812564 3.6 1.81491 3.6H7.07524L7.9259 6.76379C7.94756 6.84432 7.97438 6.9221 8.00593 6.99689L9.78857 23.3578C9.92134 24.5764 10.9586 25.5 12.1945 25.5H34.5441C35.697 25.5 36.6898 24.6933 36.9166 23.5722L39.9519 8.57223C40.2525 7.08669 39.107 5.7 37.5793 5.7H11.3965L10.343 1.78161C10.0605 0.731002 9.10114 0 8.00481 0H1.81491ZM17.5442 36C19.883 36 21.779 34.1196 21.779 31.8C21.779 29.4804 19.883 27.6 17.5442 27.6C15.2053 27.6 13.3094 29.4804 13.3094 31.8C13.3094 34.1196 15.2053 36 17.5442 36ZM35.0883 31.8C35.0883 34.1196 33.1923 36 30.8535 36C28.5147 36 26.6187 34.1196 26.6187 31.8C26.6187 29.4804 28.5147 27.6 30.8535 27.6C33.1923 27.6 35.0883 29.4804 35.0883 31.8ZM19.7315 18.9456L21.3432 17.4912L22.0401 16.872C22.6112 16.3728 23.0468 15.9744 23.3468 15.6768C23.6566 15.3792 23.9082 15.0768 24.1018 14.7696C24.3051 14.4624 24.4067 14.16 24.4067 13.8624C24.4067 12.9696 23.8985 12.5232 22.8822 12.5232C22.3885 12.5232 21.8997 12.6096 21.4158 12.7824C20.9415 12.9552 20.501 13.1952 20.0945 13.5024V11.0688C20.5301 10.7712 21.0382 10.5408 21.619 10.3776C22.1998 10.2048 22.8193 10.1184 23.4775 10.1184C24.2325 10.1184 24.8859 10.2576 25.4376 10.536C25.9893 10.8144 26.4104 11.1984 26.7008 11.688C26.9912 12.1776 27.1364 12.7296 27.1364 13.344C27.1364 14.0832 26.9621 14.7312 26.6137 15.288C26.2749 15.8352 25.7231 16.4544 24.9585 17.1456L23.6662 18.312H27.4558V20.4H19.7315V18.9456Z"
      fill="#606367"
    />
  </svg>