<svg xmlns="http://www.w3.org/2000/svg" width="40" height="37" viewBox="0 0 40 37" fill="none">
    <path
      fill-rule="evenodd"
      clip-rule="evenodd"
      d="M7.96806 2.43322L9.05324 6.54395L7.88952 6.85743L7.04276 3.64984H1.80658C0.808834 3.64984 0 2.83279 0 1.82492C0 0.817044 0.808834 0 1.80658 0H7.96807C9.05936 0 10.0143 0.741121 10.2955 1.80627L11.3442 5.77891H37.4068C38.9275 5.77891 40.0677 7.1848 39.7685 8.6909L36.7472 23.8986C36.5214 25.0352 35.5331 25.853 34.3855 25.853H12.1385C10.9083 25.853 9.8758 24.9167 9.74364 23.6812L7.96918 7.09375C7.93778 7.01793 7.91107 6.93906 7.88952 6.85743L9.05324 6.54395C9.06072 6.57227 9.06981 6.59899 9.08025 6.62419L9.1478 6.78728L10.9411 23.5505C11.0071 24.1682 11.5234 24.6364 12.1385 24.6364H34.3855C34.9593 24.6364 35.4534 24.2275 35.5663 23.6592L38.5876 8.45151C38.7372 7.69847 38.1671 6.99552 37.4068 6.99552H10.4189L9.13179 2.11975C8.99119 1.58717 8.51371 1.21661 7.96807 1.21661H1.80658C1.474 1.21661 1.20439 1.48896 1.20439 1.82492C1.20439 2.16088 1.474 2.43322 1.80658 2.43322H7.96806ZM17.4636 35.2817C19.1265 35.2817 20.4746 33.92 20.4746 32.2402C20.4746 30.5604 19.1265 29.1987 17.4636 29.1987C15.8007 29.1987 14.4527 30.5604 14.4527 32.2402C14.4527 33.92 15.8007 35.2817 17.4636 35.2817ZM30.7119 35.2817C32.3748 35.2817 33.7229 33.92 33.7229 32.2402C33.7229 30.5604 32.3748 29.1987 30.7119 29.1987C29.049 29.1987 27.7009 30.5604 27.7009 32.2402C27.7009 33.92 29.049 35.2817 30.7119 35.2817ZM21.679 32.2402C21.679 34.5919 19.7917 36.4984 17.4636 36.4984C15.1356 36.4984 13.2483 34.5919 13.2483 32.2402C13.2483 29.8885 15.1356 27.9821 17.4636 27.9821C19.7917 27.9821 21.679 29.8885 21.679 32.2402ZM30.7119 36.4984C33.04 36.4984 34.9273 34.5919 34.9273 32.2402C34.9273 29.8885 33.04 27.9821 30.7119 27.9821C28.3838 27.9821 26.4965 29.8885 26.4965 32.2402C26.4965 34.5919 28.3838 36.4984 30.7119 36.4984Z"
      fill="#606367"
    />
    <path
      d="M19.9082 19.4497L21.5236 17.8852L22.2221 17.2191C22.7945 16.6821 23.2311 16.2535 23.5318 15.9334C23.8423 15.6132 24.0946 15.2879 24.2886 14.9575C24.4923 14.627 24.5942 14.3017 24.5942 13.9816C24.5942 13.0212 24.0848 12.541 23.0662 12.541C22.5714 12.541 22.0814 12.6339 21.5963 12.8198C21.1209 13.0057 20.6795 13.2639 20.272 13.5943V10.9765C20.7086 10.6563 21.218 10.4085 21.8001 10.2329C22.3822 10.047 23.0031 9.9541 23.6628 9.9541C24.4196 9.9541 25.0744 10.1038 25.6274 10.4033C26.1804 10.7028 26.6025 11.1159 26.8935 11.6426C27.1846 12.1692 27.3301 12.763 27.3301 13.4239C27.3301 14.2191 27.1555 14.9162 26.8062 15.5151C26.4667 16.1038 25.9136 16.7699 25.1472 17.5134L23.852 18.7681H27.6503V21.0142H19.9082V19.4497Z"
      fill="#606367"
    />
  </svg>