<svg xmlns="http://www.w3.org/2000/svg" width="27" height="38" viewBox="0 0 27 38" fill="none">
    <path
      fill-rule="evenodd"
      clip-rule="evenodd"
      d="M8.11261 8.72131H19.158C19.1944 8.41768 19.2134 8.10584 19.2134 7.78688C19.2134 4.01998 16.5718 1.2459 13.6353 1.2459C10.6988 1.2459 8.05722 4.01998 8.05722 7.78688C8.05722 8.10584 8.07616 8.41768 8.11261 8.72131ZM6.86623 8.72131C6.83416 8.41495 6.81765 8.10312 6.81765 7.78688C6.81765 3.48631 9.87002 0 13.6353 0C17.4006 0 20.453 3.48631 20.453 7.78688C20.453 8.10312 20.4364 8.41495 20.4044 8.72131H23.2351C24.5531 8.72131 25.6407 9.75788 25.7107 11.0808L26.9964 35.3758C27.0719 36.802 25.9417 38 24.5208 38H2.47922C1.05829 38 -0.0719027 36.802 0.00357212 35.3758L1.2893 11.0808C1.35931 9.75788 2.44692 8.72131 3.76495 8.72131H6.86623ZM9.54305 27.1457L11.1942 25.6357L11.9082 24.9928C12.4932 24.4745 12.9395 24.0609 13.2469 23.7519C13.5642 23.4429 13.8221 23.1289 14.0204 22.81C14.2286 22.491 14.3328 22.177 14.3328 21.8681C14.3328 20.9411 13.8121 20.4776 12.7709 20.4776C12.2652 20.4776 11.7644 20.5673 11.2685 20.7468C10.7826 20.9262 10.3314 21.1753 9.91492 21.4943V18.9676C10.3612 18.6586 10.8818 18.4194 11.4768 18.25C12.0718 18.0706 12.7064 17.9809 13.3808 17.9809C14.1543 17.9809 14.8236 18.1254 15.3889 18.4144C15.9541 18.7035 16.3855 19.1022 16.683 19.6105C16.9805 20.1188 17.1292 20.6919 17.1292 21.3298C17.1292 22.0973 16.9507 22.7701 16.5937 23.3482C16.2467 23.9163 15.6814 24.5592 14.898 25.2769L13.5741 26.4879H17.4565V28.6557H9.54305V27.1457Z"
      fill="#606367"
    />
  </svg>