<svg xmlns="http://www.w3.org/2000/svg" width="37" height="31" viewBox="0 0 37 31" fill="none">
    <path
      fill-rule="evenodd"
      clip-rule="evenodd"
      d="M20.4403 0.0980671C20.7004 -0.0782519 21.0542 -0.0103337 21.2305 0.249767L27.9969 10.2313C28.0048 10.2429 28.0121 10.2547 28.019 10.2666H33.9195C35.4246 10.2666 36.5152 11.7014 36.1124 13.1516L31.6871 29.0826C31.4135 30.0676 30.5166 30.7493 29.4943 30.7493H6.25973C5.21541 30.7493 4.30511 30.0386 4.05182 29.0255L0.0690725 13.0945C-0.290027 11.6581 0.79637 10.2666 2.27698 10.2666H8.50783C8.51566 10.2537 8.52406 10.2409 8.53305 10.2284L15.6843 0.262541C15.8675 0.00723898 16.223 -0.0512117 16.4783 0.131987C16.7336 0.315185 16.792 0.67066 16.6088 0.925962L9.90618 10.2666H26.6461L20.2886 0.888275C20.1123 0.628174 20.1802 0.274386 20.4403 0.0980671ZM2.27698 11.4046H33.9195C34.6721 11.4046 35.2174 12.122 35.016 12.8471L30.5907 28.778C30.4539 29.2706 30.0054 29.6114 29.4943 29.6114H6.25973C5.73757 29.6114 5.28242 29.256 5.15577 28.7495L1.17303 12.8185C0.993475 12.1003 1.53668 11.4046 2.27698 11.4046ZM16.0903 22.5695L14.5746 23.9486V25.3278H21.8391V23.3478H18.2751L19.4904 22.2417C20.2096 21.5863 20.7285 20.9991 21.0471 20.4802C21.3748 19.9522 21.5387 19.3377 21.5387 18.6368C21.5387 18.0542 21.4021 17.5307 21.129 17.0664C20.8559 16.6022 20.4599 16.238 19.941 15.974C19.4221 15.71 18.8077 15.578 18.0976 15.578C17.4786 15.578 16.8959 15.66 16.3497 15.8238C15.8035 15.9786 15.3256 16.1971 14.9159 16.4793V18.787C15.2983 18.4957 15.7125 18.2681 16.1586 18.1042C16.6137 17.9404 17.0735 17.8584 17.5377 17.8584C18.4936 17.8584 18.9715 18.2817 18.9715 19.1284C18.9715 19.4106 18.8759 19.6973 18.6848 19.9886C18.5027 20.2799 18.266 20.5667 17.9747 20.8489C17.6925 21.1311 17.2828 21.5089 16.7457 21.9823L16.0903 22.5695Z"
      fill="#606367"
    />
  </svg>