<svg xmlns="http://www.w3.org/2000/svg" width="36" height="31" viewBox="0 0 36 31" fill="none">
    <path
      fill-rule="evenodd"
      clip-rule="evenodd"
      d="M20.7856 0.241238C20.6044 -0.0169884 20.2511 -0.0774143 19.9964 0.106273C19.7418 0.289959 19.6822 0.648201 19.8633 0.906426L26.4839 10.3437H9.8549L16.5186 0.923749C16.7008 0.666249 16.6426 0.307772 16.3886 0.123068C16.1347 -0.0616358 15.7811 -0.00262412 15.599 0.254875L8.46211 10.3437H2.2646C0.792042 10.3437 -0.288451 11.7469 0.0686971 13.1955L4.0298 29.2615C4.28171 30.2832 5.18706 31 6.22571 31H29.334C30.3507 31 31.2427 30.3125 31.5149 29.3191L35.9161 13.2531C36.3167 11.7907 35.2321 10.3437 33.7352 10.3437H27.8727L20.7856 0.241238ZM15.9341 22.4804L14.4266 23.8713V25.2621H21.6517V23.2654H18.107L19.3158 22.1499C20.031 21.4889 20.5471 20.8968 20.864 20.3735C21.1899 19.841 21.3529 19.2213 21.3529 18.5144C21.3529 17.9268 21.2171 17.399 20.9455 16.9308C20.6738 16.4625 20.28 16.0953 19.7639 15.8291C19.2478 15.5628 18.6367 15.4297 17.9305 15.4297C17.3148 15.4297 16.7354 15.5124 16.1921 15.6776C15.6489 15.8337 15.1736 16.054 14.7661 16.3386V18.6659C15.1464 18.3721 15.5584 18.1426 16.002 17.9773C16.4547 17.8121 16.9119 17.7295 17.3737 17.7295C18.3243 17.7295 18.7997 18.1564 18.7997 19.0102C18.7997 19.2948 18.7046 19.5839 18.5145 19.8777C18.3334 20.1715 18.098 20.4607 17.8083 20.7453C17.5276 21.0299 17.1202 21.4109 16.586 21.8883L15.9341 22.4804Z"
      fill="#606367"
    />
  </svg>