<svg xmlns="http://www.w3.org/2000/svg" width="28" height="39" viewBox="0 0 28 39" fill="none">
    <path
      fill-rule="evenodd"
      clip-rule="evenodd"
      d="M13.7098 0C10.0831 0 7.11428 3.35281 6.87101 7.59677C6.86033 7.78307 6.85491 7.97108 6.85491 8.1606C6.85491 8.35012 6.85988 8.53813 6.87056 8.72443H3.78552C2.46029 8.72443 1.36674 9.76136 1.29634 11.0847L0.00359164 35.3885C-0.0722956 36.8152 1.06407 38.0136 2.49277 38.0136H24.6548C26.0835 38.0136 27.2198 36.8151 27.1439 35.3885L25.8512 11.0847C25.7808 9.76136 24.6872 8.72443 23.362 8.72443H20.5486C20.5593 8.53813 20.5647 8.35012 20.5647 8.1606C20.5647 7.97108 20.5593 7.78307 20.5486 7.59677C20.3053 3.35281 17.3365 0 13.7098 0ZM2.54093 11.1509C2.57613 10.4892 3.12291 9.97077 3.78552 9.97077H23.362C24.0246 9.97077 24.5714 10.4892 24.6066 11.1509L25.8994 35.4547C25.9373 36.168 25.3691 36.7672 24.6548 36.7672H2.49277C1.77842 36.7672 1.21023 36.168 1.24818 35.4547L2.54093 11.1509ZM19.3033 8.6769C19.3023 8.69277 19.3012 8.70861 19.3002 8.72443H8.1194C8.11892 8.71679 8.11841 8.70914 8.1179 8.70149C8.11684 8.68539 8.11577 8.66927 8.11487 8.65313C8.10585 8.49098 8.10125 8.32677 8.10125 8.1606C8.10125 7.97003 8.1073 7.78203 8.11913 7.59678C8.12166 7.55708 8.12446 7.51752 8.12753 7.47808C8.41255 3.80802 10.9737 1.24635 13.7098 1.24635C16.4459 1.24635 19.0071 3.80802 19.2921 7.47808C19.2952 7.51752 19.298 7.55708 19.3005 7.59678C19.3123 7.78203 19.3184 7.97003 19.3184 8.1606C19.3184 8.32677 19.3138 8.49098 19.3048 8.65313C19.3043 8.66106 19.3038 8.66898 19.3033 8.6769ZM11.3916 25.6445L9.73148 27.155V28.6656H17.6882V26.497H13.7846L15.1157 25.2855C15.9034 24.5676 16.4717 23.9245 16.8207 23.3562C17.1796 22.7779 17.3591 22.1048 17.3591 21.3371C17.3591 20.6989 17.2096 20.1256 16.9104 19.6171C16.6113 19.1086 16.1776 18.7098 15.6093 18.4206C15.0409 18.1315 14.3679 17.9869 13.5902 17.9869C12.9122 17.9869 12.274 18.0766 11.6758 18.2561C11.0775 18.4256 10.5541 18.6649 10.1054 18.974V21.5016C10.5242 21.1825 10.9778 20.9333 11.4664 20.7538C11.9649 20.5743 12.4685 20.4846 12.977 20.4846C14.0239 20.4846 14.5474 20.9482 14.5474 21.8755C14.5474 22.1846 14.4427 22.4987 14.2333 22.8177C14.0339 23.1368 13.7746 23.4509 13.4556 23.76C13.1465 24.0691 12.6978 24.4829 12.1095 25.0013L11.3916 25.6445Z"
      fill="#606367"
    />
  </svg>