<svg width="36" height="34" viewBox="0 0 36 34" fill="none" xmlns="http://www.w3.org/2000/svg">
<path d="M33.8076 14.6501H31.9924C31.78 13.8707 31.0837 13.3284 30.2859 13.3207H28.3482V8.51846C28.3526 8.33556 28.2594 8.16443 28.1043 8.07076L14.4348 0.0692882C14.2779 -0.0230961 14.0842 -0.0230961 13.9274 0.0692882L0.253608 8.07076C0.0961316 8.16327 -0.000577029 8.334 2.5909e-06 8.51846V24.5215C2.5909e-06 24.7062 0.0972378 24.8768 0.255066 24.9692L13.9303 32.9707C14.0078 33.016 14.0958 33.0399 14.1853 33.0399C14.2772 33.04 14.3675 33.0161 14.4477 32.9707L21.6437 28.7642V31.805C21.6422 32.3898 21.8716 32.9509 22.2808 33.3632C22.6901 33.7755 23.245 34.0047 23.822 33.9999H33.8076C34.3861 34.0053 34.9428 33.7766 35.3544 33.3646C35.7659 32.9526 35.9983 32.3913 36 31.805V16.8792C35.9993 15.6512 35.0193 14.6548 33.8076 14.6501ZM30.3041 14.3547C30.713 14.3547 31.0445 14.6907 31.0445 15.1051V15.1552C31.0445 15.5696 30.713 15.9056 30.3041 15.9056H27.3397C26.9307 15.9056 26.5992 15.5696 26.5992 15.1552V15.1051C26.5992 14.6907 26.9307 14.3547 27.3397 14.3547H30.3041ZM14.1853 1.11395L19.8676 4.4387L7.21356 11.8427L1.53132 8.51795L14.1853 1.11395ZM13.7004 31.6275L1.02025 24.223V9.41276L13.7004 16.8173V31.6275ZM14.1853 15.9219L8.2338 12.4396L20.8879 5.03566L26.8397 8.51795L14.1853 15.9219ZM21.6437 16.8792V27.5703L14.7206 31.6275V16.8173L27.3279 9.41276V13.3207H27.3438C26.5459 13.3283 25.8497 13.8707 25.6372 14.6501H23.822C22.6131 14.656 21.6379 15.654 21.6437 16.8792Z" fill="#9799A5"/>
<path d="M34.9412 31.7606C34.9398 32.0725 34.8164 32.3709 34.5986 32.5889C34.3808 32.8069 34.0868 32.9264 33.7823 32.9206H23.9097C23.6067 32.9259 23.3144 32.8058 23.0989 32.5874C22.8834 32.3691 22.763 32.0711 22.7647 31.7606V16.8453C22.7617 16.5313 22.8807 16.2289 23.0954 16.0049C23.3102 15.7809 23.6032 15.6536 23.9097 15.651H25.7241C25.9462 16.4021 26.6254 16.9131 27.3916 16.9056H30.3004C31.0666 16.9131 31.7458 16.4021 31.9679 15.651H33.7823C34.4234 15.6551 34.941 16.1886 34.9412 16.8453V31.7606Z" fill="white"/>
<path d="M24.2932 22.1269H24.7883C25.0496 22.1269 25.2614 21.911 25.2614 21.6446C25.2614 21.3783 25.0496 21.1623 24.7883 21.1623H24.7697V19.8533H26.0745C26.1356 20.0526 26.3196 20.1859 26.5243 20.179C26.7859 20.1797 26.9987 19.9645 27 19.6978V19.3733C26.9977 19.1055 26.7845 18.8894 26.5217 18.8888H24.2932C24.1678 18.8894 24.0479 18.9409 23.9598 19.0318C23.8717 19.1227 23.8226 19.2456 23.8235 19.3733V21.6452C23.8228 21.7727 23.8719 21.8952 23.9601 21.9856C24.0482 22.076 24.1681 22.1269 24.2932 22.1269Z" fill="#9799A5"/>
<path d="M24.7884 30.3367H24.7697V29.0277H26.049C26.0541 29.2915 26.2652 29.5027 26.524 29.503C26.7828 29.5032 26.9944 29.2925 27 29.0287V28.564C26.999 28.293 26.7875 28.0715 26.5217 28.0632H24.2932C24.0291 28.0723 23.8205 28.2947 23.8235 28.564V30.8357C23.8234 30.9615 23.8733 31.082 23.9617 31.1697C24.0502 31.2574 24.1698 31.3048 24.2932 31.3011H24.7884C25.0497 31.3011 25.2615 31.0852 25.2615 30.8189C25.2615 30.5526 25.0497 30.3367 24.7884 30.3367Z" fill="#9799A5"/>
<path d="M28.2429 19.569L26.7427 20.9711L26.2863 20.5446C26.1569 20.4236 25.9682 20.3764 25.7915 20.4206C25.6147 20.4649 25.4766 20.594 25.4292 20.7592C25.3818 20.9244 25.4324 21.1007 25.5618 21.2217L26.3805 21.9868C26.4765 22.0766 26.6069 22.127 26.7427 22.127C26.8786 22.127 27.0089 22.0766 27.105 21.9868L28.9676 20.2459C29.1676 20.059 29.1676 19.7558 28.9676 19.5688C28.7675 19.3818 28.4431 19.3818 28.2431 19.5688L28.2429 19.569Z" fill="#9799A5"/>
<path d="M28.2429 28.7435L26.7427 30.1456L26.2863 29.719C26.1569 29.598 25.9682 29.5508 25.7915 29.5951C25.6147 29.6394 25.4766 29.7684 25.4292 29.9336C25.3818 30.0989 25.4324 30.2752 25.5618 30.3961L26.3805 31.1612C26.4765 31.251 26.6069 31.3014 26.7427 31.3014C26.8786 31.3014 27.0089 31.251 27.105 31.1612L28.9676 29.4204C29.1676 29.2334 29.1676 28.9302 28.9676 28.7433C28.7675 28.5563 28.4431 28.5563 28.2431 28.7433L28.2429 28.7435Z" fill="#9799A5"/>
<path d="M25.3554 26.9841H27.5857C27.847 26.9841 28.0588 26.7681 28.0588 26.5018V24.2282C28.0588 23.9619 27.847 23.746 27.5857 23.746H25.3554C25.0941 23.746 24.8823 23.9619 24.8823 24.2282V26.5018C24.8823 26.7681 25.0941 26.9841 25.3554 26.9841ZM25.8285 24.7105H27.1126V26.0195H25.8285V24.7105Z" fill="#9799A5"/>
<path d="M33.307 19.9684H29.6931C29.3753 19.9684 29.1177 20.21 29.1177 20.5081C29.1177 20.8061 29.3753 21.0477 29.6931 21.0477H33.307C33.6248 21.0477 33.8824 20.8061 33.8824 20.5081C33.8824 20.21 33.6248 19.9684 33.307 19.9684Z" fill="#9799A5"/>
<path d="M33.307 24.8256H29.6931C29.3753 24.8256 29.1177 25.0672 29.1177 25.3652C29.1177 25.6633 29.3753 25.9049 29.6931 25.9049H33.307C33.6248 25.9049 33.8824 25.6633 33.8824 25.3652C33.8824 25.0672 33.6248 24.8256 33.307 24.8256Z" fill="#9799A5"/>
<path d="M33.307 29.1428H29.6931C29.3753 29.1428 29.1177 29.3844 29.1177 29.6825C29.1177 29.9806 29.3753 30.2222 29.6931 30.2222H33.307C33.6248 30.2222 33.8824 29.9806 33.8824 29.6825C33.8824 29.3844 33.6248 29.1428 33.307 29.1428Z" fill="#9799A5"/>
</svg>
