<svg width="31" height="35" viewBox="0 0 31 35" fill="none" xmlns="http://www.w3.org/2000/svg">
<path d="M30.3231 16.5495H25.3135V0.672796C25.3135 0.400738 25.1486 0.155389 24.8957 0.051248C24.6427 -0.0529599 24.3515 0.00476146 24.158 0.197031L22.2405 2.10278L20.3232 0.197099C20.0588 -0.0656075 19.6303 -0.0656075 19.3659 0.197099L17.4484 2.10285L15.5312 0.197099C15.2669 -0.0656075 14.8383 -0.0656075 14.5739 0.197099L12.6565 2.10285L10.739 0.197099C10.4747 -0.0656075 10.0461 -0.0656075 9.78177 0.197099L7.86434 2.10285L5.94705 0.197099C5.68273 -0.0656075 5.25414 -0.0656075 4.98976 0.197099L3.07233 2.10285L1.15497 0.197099C0.892273 -0.0639929 0.467403 -0.0653384 0.20241 0.193399C0.0632459 0.32936 -0.00423774 0.51053 0.000205902 0.690489V30.9463C0.000205902 32.8752 1.57929 34.4444 3.52001 34.4444H27.4795H27.4804C29.4211 34.4444 31 32.8752 31 30.9463V17.2222C31 16.8507 30.697 16.5495 30.3231 16.5495ZM3.52001 33.099C2.32567 33.099 1.3541 32.1332 1.3541 30.9462V2.29781L2.59371 3.52987C2.85803 3.79258 3.28662 3.79258 3.55101 3.52987L5.46844 1.62412L7.38587 3.52987C7.65018 3.79258 8.07877 3.79258 8.34316 3.52987L10.2606 1.62412L12.1781 3.52987C12.4424 3.79258 12.871 3.79258 13.1353 3.52987L15.0527 1.62412L16.9702 3.52987C17.2345 3.79258 17.6631 3.79258 17.9275 3.52987L19.8449 1.62412L21.7623 3.52987C22.0267 3.79258 22.4553 3.79258 22.7195 3.52987L23.9602 2.29687V17.2222C23.9602 17.2283 23.9609 17.2343 23.9611 17.2404V30.9462C23.9611 31.7577 24.2413 32.5049 24.7095 33.099H3.52001Z" fill="white"/>
<path d="M12.9167 10.7646C12.242 10.7646 11.6931 10.3008 11.6931 9.73096C11.6931 9.16101 12.242 8.69729 12.9167 8.69729C13.5915 8.69729 14.1404 9.16101 14.1404 9.73096C14.1404 10.1014 14.4447 10.4016 14.8202 10.4016C15.1957 10.4016 15.5 10.1014 15.5 9.73096C15.5 8.63767 14.6921 7.7152 13.5965 7.44008V6.98575C13.5965 6.61533 13.2922 6.31506 12.9167 6.31506C12.5412 6.31506 12.2369 6.61533 12.2369 6.98575V7.44008C11.1412 7.7152 10.3334 8.63773 10.3334 9.73096C10.3334 11.0405 11.4923 12.1059 12.9167 12.1059C13.5915 12.1059 14.1404 12.5696 14.1404 13.1395C14.1404 13.7095 13.5915 14.1731 12.9167 14.1731C12.242 14.1731 11.6931 13.7094 11.6931 13.1395C11.6931 12.7691 11.3887 12.4689 11.0132 12.4689C10.6377 12.4689 10.3334 12.7691 10.3334 13.1395C10.3334 14.2328 11.1413 15.1553 12.2369 15.4304V15.9777C12.2369 16.3481 12.5412 16.6484 12.9167 16.6484C13.2922 16.6484 13.5965 16.3481 13.5965 15.9777V15.4304C14.6922 15.1553 15.5 14.2328 15.5 13.1395C15.5 11.83 14.3411 10.7646 12.9167 10.7646Z" fill="white"/>
<path d="M19.3658 10.9075H17.9492C17.5477 10.9075 17.2223 11.1645 17.2223 11.4815C17.2223 11.7986 17.5477 12.0556 17.9492 12.0556H19.3658C19.7672 12.0556 20.0927 11.7986 20.0927 11.4815C20.0927 11.1645 19.7672 10.9075 19.3658 10.9075Z" fill="white"/>
<path d="M7.31014 10.9075H5.89349C5.49204 10.9075 5.16663 11.1645 5.16663 11.4815C5.16663 11.7986 5.49204 12.0556 5.89349 12.0556H7.31014C7.71158 12.0556 8.037 11.7986 8.037 11.4815C8.037 11.1645 7.71158 10.9075 7.31014 10.9075Z" fill="white"/>
<path d="M19.9588 18.3705H8.74483C8.35389 18.3705 8.03699 18.6275 8.03699 18.9446C8.03699 19.2616 8.35389 19.5186 8.74483 19.5186H19.9588C20.3497 19.5186 20.6666 19.2616 20.6666 18.9446C20.6666 18.6275 20.3497 18.3705 19.9588 18.3705Z" fill="white"/>
<path d="M6.14657 18.5387C6.03979 18.4319 5.89168 18.3705 5.7407 18.3705C5.58972 18.3705 5.44161 18.4319 5.33483 18.5387C5.22805 18.6455 5.16663 18.7936 5.16663 18.9446C5.16663 19.0955 5.22805 19.2437 5.33483 19.3504C5.44161 19.4572 5.58972 19.5186 5.7407 19.5186C5.89168 19.5186 6.03979 19.4572 6.14657 19.3504C6.25335 19.2437 6.31477 19.0955 6.31477 18.9446C6.31477 18.7936 6.25335 18.6455 6.14657 18.5387Z" fill="white"/>
<path d="M19.9588 22.3887H8.74483C8.35389 22.3887 8.03699 22.6457 8.03699 22.9627C8.03699 23.2798 8.35389 23.5368 8.74483 23.5368H19.9588C20.3497 23.5368 20.6666 23.2798 20.6666 22.9627C20.6666 22.6457 20.3497 22.3887 19.9588 22.3887Z" fill="white"/>
<path d="M6.14657 22.5569C6.03979 22.4501 5.89168 22.3887 5.7407 22.3887C5.58972 22.3887 5.44161 22.4501 5.33483 22.5569C5.22805 22.6637 5.16663 22.8118 5.16663 22.9627C5.16663 23.1137 5.22805 23.2618 5.33483 23.3686C5.44161 23.4754 5.58972 23.5368 5.7407 23.5368C5.89168 23.5368 6.03979 23.4754 6.14657 23.3686C6.25335 23.2618 6.31477 23.1137 6.31477 22.9627C6.31477 22.8118 6.25335 22.6637 6.14657 22.5569Z" fill="white"/>
<path d="M19.9588 26.9817H8.74483C8.35389 26.9817 8.03699 27.2387 8.03699 27.5558C8.03699 27.8728 8.35389 28.1298 8.74483 28.1298H19.9588C20.3497 28.1298 20.6666 27.8728 20.6666 27.5558C20.6666 27.2387 20.3497 26.9817 19.9588 26.9817Z" fill="white"/>
<path d="M6.14657 27.1499C6.03979 27.0431 5.89168 26.9817 5.7407 26.9817C5.58972 26.9817 5.44161 27.0431 5.33483 27.1499C5.22805 27.2567 5.16663 27.4048 5.16663 27.5558C5.16663 27.7067 5.22805 27.8549 5.33483 27.9616C5.44161 28.0684 5.58972 28.1298 5.7407 28.1298C5.89168 28.1298 6.03979 28.0684 6.14657 27.9616C6.25335 27.8549 6.31477 27.7067 6.31477 27.5558C6.31477 27.4048 6.25335 27.2567 6.14657 27.1499Z" fill="white"/>
<path d="M25.2593 17.7963H29.8519V31C29.8519 32.2682 28.8238 33.2963 27.5556 33.2963C26.2874 33.2963 25.2593 32.2682 25.2593 31V17.7963Z" fill="#2FC639"/>
</svg>
