<svg width="41" height="27" viewBox="0 0 41 27" fill="none" xmlns="http://www.w3.org/2000/svg">
<path d="M33.0548 18.7021C30.7883 18.7021 28.9452 20.5629 28.9452 22.8511C28.9452 25.1392 30.7883 27 33.0548 27C35.3212 27 37.1644 25.1392 37.1644 22.8511C37.1644 20.5629 35.3212 18.7021 33.0548 18.7021ZM33.0548 25.617C31.5438 25.617 30.3151 24.3765 30.3151 22.8511C30.3151 21.3256 31.5439 20.0852 33.0548 20.0852C34.5658 20.0852 35.7945 21.3257 35.7945 22.8511C35.7945 24.3765 34.5658 25.617 33.0548 25.617Z" fill="#9799A5"/>
<path d="M40.8971 15.4586L35.0689 6.27971C34.9498 6.09216 34.7445 5.97876 34.5243 5.97876H27.401C27.0429 5.97876 26.7534 6.27249 26.7534 6.63437V23.0252C26.7534 23.3878 27.0429 23.6809 27.401 23.6809H29.9912V22.3695H28.0485V7.29005H34.1707L39.7049 16.006V22.3697H36.467V23.6809H40.3524C40.7106 23.6809 41 23.3878 41 23.0253V15.8133C41 15.688 40.9645 15.5641 40.8971 15.4586Z" fill="#9799A5"/>
<path d="M13.4931 23.6809H26.6439C27.0075 23.6809 27.3014 23.3827 27.3014 23.0138V1.66706C27.3014 1.29886 27.0075 1 26.6439 1H1.65751C1.29458 1 1 1.29886 1 1.66706V23.0138C1 23.3827 1.29458 23.6809 1.65751 23.6809H6.91781" stroke="#9799A5" stroke-width="1.25"/>
<path d="M10.5891 18.7021C8.32263 18.7021 6.47949 20.5629 6.47949 22.8511C6.47949 25.1392 8.32263 27 10.5891 27C12.8555 27 14.6987 25.1392 14.6987 22.8511C14.6987 20.5629 12.8555 18.7021 10.5891 18.7021ZM10.5891 25.617C9.07808 25.617 7.84938 24.3765 7.84938 22.8511C7.84938 21.3256 9.07817 20.0852 10.5891 20.0852C12.1 20.0852 13.3288 21.3257 13.3288 22.8511C13.3288 24.3765 12.1 25.617 10.5891 25.617Z" fill="#9799A5"/>
</svg>
