<svg width="124" height="124" viewBox="0 0 124 124" fill="none" xmlns="http://www.w3.org/2000/svg">
<circle cx="62" cy="62" r="62" fill="#2292F3"/>
<path d="M8.37756 74C7.87356 74 7.44156 73.832 7.08156 73.496C6.72156 73.136 6.54156 72.704 6.54156 72.2C6.54156 71.672 6.72156 71.228 7.08156 70.868C7.44156 70.508 7.87356 70.328 8.37756 70.328C8.88156 70.328 9.31356 70.508 9.67356 70.868C10.0336 71.228 10.2136 71.672 10.2136 72.2C10.2136 72.704 10.0336 73.136 9.67356 73.496C9.31356 73.832 8.88156 74 8.37756 74ZM13.8006 48.836H22.2246C24.9606 48.836 27.3366 49.34 29.3526 50.348C31.3686 51.356 32.9166 52.796 33.9966 54.668C35.0766 56.54 35.6166 58.748 35.6166 61.292C35.6166 65.468 34.4046 68.636 31.9806 70.796C29.5566 72.932 26.1726 74 21.8286 74H13.8006V48.836ZM21.9006 70.22C24.8286 70.22 27.0726 69.44 28.6326 67.88C30.2166 66.296 31.0086 64.1 31.0086 61.292C31.0086 59.588 30.6606 58.088 29.9646 56.792C29.2686 55.472 28.2726 54.452 26.9766 53.732C25.6806 52.988 24.1446 52.616 22.3686 52.616H18.3726V70.22H21.9006ZM51.8546 74.54C49.3346 74.54 47.0546 74 45.0146 72.92C42.9986 71.816 41.4026 70.268 40.2266 68.276C39.0746 66.284 38.4986 64.004 38.4986 61.436C38.4986 58.868 39.0746 56.588 40.2266 54.596C41.4026 52.604 42.9986 51.056 45.0146 49.952C47.0546 48.848 49.3346 48.296 51.8546 48.296C54.3506 48.296 56.6066 48.848 58.6226 49.952C60.6626 51.056 62.2586 52.604 63.4106 54.596C64.5866 56.588 65.1746 58.868 65.1746 61.436C65.1746 64.004 64.5866 66.284 63.4106 68.276C62.2586 70.244 60.6626 71.78 58.6226 72.884C56.6066 73.988 54.3506 74.54 51.8546 74.54ZM51.8546 70.4C53.4626 70.4 54.9266 70.04 56.2466 69.32C57.5666 68.576 58.6106 67.532 59.3786 66.188C60.1706 64.82 60.5666 63.236 60.5666 61.436C60.5666 59.66 60.1826 58.1 59.4146 56.756C58.6466 55.388 57.6026 54.332 56.2826 53.588C54.9626 52.844 53.4866 52.472 51.8546 52.472C50.2226 52.472 48.7346 52.844 47.3906 53.588C46.0706 54.332 45.0266 55.388 44.2586 56.756C43.4906 58.1 43.1066 59.66 43.1066 61.436C43.1066 63.236 43.4906 64.82 44.2586 66.188C45.0506 67.532 46.1066 68.576 47.4266 69.32C48.7706 70.04 50.2466 70.4 51.8546 70.4ZM81.0017 74.54C78.3617 74.54 76.0217 74.012 73.9817 72.956C71.9417 71.876 70.3577 70.352 69.2297 68.384C68.1017 66.392 67.5377 64.076 67.5377 61.436C67.5377 58.796 68.1017 56.492 69.2297 54.524C70.3577 52.532 71.9417 50.996 73.9817 49.916C76.0217 48.836 78.3617 48.296 81.0017 48.296C84.4817 48.296 87.3857 49.124 89.7137 50.78V55.136C87.6257 53.36 84.8537 52.472 81.3977 52.472C79.5497 52.472 77.9297 52.844 76.5377 53.588C75.1457 54.308 74.0657 55.34 73.2977 56.684C72.5297 58.028 72.1457 59.612 72.1457 61.436C72.1457 63.26 72.5297 64.844 73.2977 66.188C74.0897 67.532 75.1817 68.576 76.5737 69.32C77.9657 70.04 79.5737 70.4 81.3977 70.4C83.1737 70.4 84.7577 70.184 86.1497 69.752C87.5417 69.296 88.8257 68.576 90.0017 67.592V71.948C87.7937 73.676 84.7937 74.54 81.0017 74.54ZM100.944 61.292L91.8357 48.836H97.0557L103.536 57.728L110.052 48.836H115.272L106.164 61.292L115.452 74H110.232L103.536 64.856L96.8397 74H91.6197L100.944 61.292Z" fill="white"/>
</svg>