<svg width="124" height="124" viewBox="0 0 124 124" fill="none" xmlns="http://www.w3.org/2000/svg">
<circle cx="62" cy="62" r="62" fill="#71747D"/>
<path d="M25.8819 74.54C23.3619 74.54 21.0819 74 19.0419 72.92C17.0259 71.816 15.4299 70.268 14.2539 68.276C13.1019 66.284 12.5259 64.004 12.5259 61.436C12.5259 58.868 13.1019 56.588 14.2539 54.596C15.4299 52.604 17.0259 51.056 19.0419 49.952C21.0819 48.848 23.3619 48.296 25.8819 48.296C28.3779 48.296 30.6339 48.848 32.6499 49.952C34.6899 51.056 36.2859 52.604 37.4379 54.596C38.6139 56.588 39.2019 58.868 39.2019 61.436C39.2019 64.004 38.6139 66.284 37.4379 68.276C36.2859 70.244 34.6899 71.78 32.6499 72.884C30.6339 73.988 28.3779 74.54 25.8819 74.54ZM25.8819 70.4C27.4899 70.4 28.9539 70.04 30.2739 69.32C31.5939 68.576 32.6379 67.532 33.4059 66.188C34.1979 64.82 34.5939 63.236 34.5939 61.436C34.5939 59.66 34.2099 58.1 33.4419 56.756C32.6739 55.388 31.6299 54.332 30.3099 53.588C28.9899 52.844 27.5139 52.472 25.8819 52.472C24.2499 52.472 22.7619 52.844 21.4179 53.588C20.0979 54.332 19.0539 55.388 18.2859 56.756C17.5179 58.1 17.1339 59.66 17.1339 61.436C17.1339 63.236 17.5179 64.82 18.2859 66.188C19.0779 67.532 20.1339 68.576 21.4539 69.32C22.7979 70.04 24.2739 70.4 25.8819 70.4ZM48.4947 74.54C46.5987 74.54 45.1587 74.012 44.1747 72.956C43.1907 71.9 42.6987 70.412 42.6987 68.492V60.176H40.1067V56.72H42.6987V51.536H47.2347V56.72H51.3747V60.176H47.2347V67.916C47.2347 69.02 47.4387 69.812 47.8467 70.292C48.2547 70.748 48.9987 70.976 50.0787 70.976C50.8227 70.976 51.5547 70.808 52.2747 70.472V73.928C51.2427 74.336 49.9827 74.54 48.4947 74.54ZM55.5038 47.396H60.0398V58.916C61.6718 57.092 63.7838 56.18 66.3758 56.18C68.7038 56.18 70.4438 56.816 71.5958 58.088C72.7478 59.336 73.3238 61.004 73.3238 63.092V74H68.7878V63.524C68.7878 61.004 67.6118 59.744 65.2598 59.744C64.2278 59.744 63.2558 59.996 62.3438 60.5C61.4318 60.98 60.6638 61.712 60.0398 62.696V74H55.5038V47.396ZM87.1964 74.54C83.9804 74.54 81.4364 73.736 79.5644 72.128C77.6924 70.52 76.7564 68.276 76.7564 65.396C76.7564 62.564 77.5844 60.32 79.2404 58.664C80.8964 57.008 83.2604 56.18 86.3324 56.18C88.3484 56.18 90.0644 56.564 91.4804 57.332C92.9204 58.1 94.0004 59.156 94.7204 60.5C95.4404 61.82 95.8004 63.332 95.8004 65.036V67.124H81.0764C81.3884 69.692 83.6204 70.976 87.7724 70.976C88.8764 70.976 90.0044 70.88 91.1564 70.688C92.3084 70.496 93.3164 70.232 94.1804 69.896V73.388C93.3644 73.724 92.3084 74 91.0124 74.216C89.7404 74.432 88.4684 74.54 87.1964 74.54ZM91.5164 64.028C91.4684 62.66 90.9764 61.604 90.0404 60.86C89.1284 60.116 87.8684 59.744 86.2604 59.744C84.6764 59.744 83.4284 60.128 82.5164 60.896C81.6044 61.664 81.1244 62.708 81.0764 64.028H91.5164ZM99.4139 56.72H103.806V59.492C104.502 58.556 105.486 57.86 106.758 57.404C108.054 56.948 109.53 56.72 111.186 56.72V60.176C109.434 60.176 107.91 60.452 106.614 61.004C105.342 61.532 104.454 62.372 103.95 63.524V74H99.4139V56.72Z" fill="white"/>
</svg>