<svg width="124" height="124" viewBox="0 0 124 124" fill="none" xmlns="http://www.w3.org/2000/svg">
<circle cx="62" cy="62" r="62" fill="#DF1216"/>
<path d="M14.6828 79C13.9828 79 13.3828 78.7667 12.8828 78.3C12.3828 77.8 12.1328 77.2 12.1328 76.5C12.1328 75.7667 12.3828 75.15 12.8828 74.65C13.3828 74.15 13.9828 73.9 14.6828 73.9C15.3828 73.9 15.9828 74.15 16.4828 74.65C16.9828 75.15 17.2328 75.7667 17.2328 76.5C17.2328 77.2 16.9828 77.8 16.4828 78.3C15.9828 78.7667 15.3828 79 14.6828 79ZM22.2148 44.05H36.2148C40.0482 44.05 43.1148 45.0667 45.4148 47.1C47.7482 49.1333 48.9148 51.9167 48.9148 55.45C48.9148 59.1167 47.7648 61.9167 45.4648 63.85C43.1648 65.75 40.0648 66.7 36.1648 66.7H28.5648V79H22.2148V44.05ZM35.4148 61.45C40.1815 61.45 42.5648 59.45 42.5648 55.45C42.5648 51.35 40.1815 49.3 35.4148 49.3H28.5648V61.45H35.4148ZM52.9277 44.05H64.6277C68.4277 44.05 71.7277 44.75 74.5277 46.15C77.3277 47.55 79.4777 49.55 80.9777 52.15C82.4777 54.75 83.2277 57.8167 83.2277 61.35C83.2277 67.15 81.5444 71.55 78.1777 74.55C74.8111 77.5167 70.1111 79 64.0777 79H52.9277V44.05ZM64.1777 73.75C68.2444 73.75 71.3611 72.6667 73.5277 70.5C75.7277 68.3 76.8277 65.25 76.8277 61.35C76.8277 58.9833 76.3444 56.9 75.3777 55.1C74.4111 53.2667 73.0277 51.85 71.2277 50.85C69.4277 49.8167 67.2944 49.3 64.8277 49.3H59.2777V73.75H64.1777ZM88.2305 44.05H111.88V49.35H94.5805V59.15H107.43V63.9H94.5805V79H88.2305V44.05Z" fill="white"/>
</svg>