<svg width="124" height="124" viewBox="0 0 124 124" fill="none" xmlns="http://www.w3.org/2000/svg">
<circle cx="62" cy="62" r="62" fill="#FF7000"/>
<path d="M16.5754 79C15.8754 79 15.2754 78.7667 14.7754 78.3C14.2754 77.8 14.0254 77.2 14.0254 76.5C14.0254 75.7667 14.2754 75.15 14.7754 74.65C15.2754 74.15 15.8754 73.9 16.5754 73.9C17.2754 73.9 17.8754 74.15 18.3754 74.65C18.8754 75.15 19.1254 75.7667 19.1254 76.5C19.1254 77.2 18.8754 77.8 18.3754 78.3C17.8754 78.7667 17.2754 79 16.5754 79ZM24.1074 44.05H38.1074C41.9408 44.05 45.0074 45.0667 47.3074 47.1C49.6408 49.1333 50.8074 51.9167 50.8074 55.45C50.8074 59.1167 49.6574 61.9167 47.3574 63.85C45.0574 65.75 41.9574 66.7 38.0574 66.7H30.4574V79H24.1074V44.05ZM37.3074 61.45C42.0741 61.45 44.4574 59.45 44.4574 55.45C44.4574 51.35 42.0741 49.3 37.3074 49.3H30.4574V61.45H37.3074ZM54.0879 44.05H68.0879C71.9212 44.05 74.9879 45.0667 77.2879 47.1C79.6212 49.1333 80.7879 51.9167 80.7879 55.45C80.7879 59.1167 79.6379 61.9167 77.3379 63.85C75.0379 65.75 71.9379 66.7 68.0379 66.7H60.4379V79H54.0879V44.05ZM67.2879 61.45C72.0546 61.45 74.4379 59.45 74.4379 55.45C74.4379 51.35 72.0546 49.3 67.2879 49.3H60.4379V61.45H67.2879ZM92.0813 49.3H81.5313V44.05H108.981V49.3H98.4313V79H92.0813V49.3Z" fill="white"/>
</svg>