<svg width="124" height="124" viewBox="0 0 124 124" fill="none" xmlns="http://www.w3.org/2000/svg">
<circle cx="62" cy="62" r="62" fill="#027544"/>
<path d="M14.7584 74C14.2544 74 13.8224 73.832 13.4624 73.496C13.1024 73.136 12.9224 72.704 12.9224 72.2C12.9224 71.672 13.1024 71.228 13.4624 70.868C13.8224 70.508 14.2544 70.328 14.7584 70.328C15.2624 70.328 15.6944 70.508 16.0544 70.868C16.4144 71.228 16.5944 71.672 16.5944 72.2C16.5944 72.704 16.4144 73.136 16.0544 73.496C15.6944 73.832 15.2624 74 14.7584 74ZM28.7855 61.292L19.6775 48.836H24.8975L31.3775 57.728L37.8935 48.836H43.1135L34.0055 61.292L43.2935 74H38.0735L31.3775 64.856L24.6815 74H19.4615L28.7855 61.292ZM46.9002 48.836H51.4722V70.22H63.5682V74H46.9002V48.836ZM73.7191 74.54C72.2311 74.54 70.7551 74.396 69.2911 74.108C67.8511 73.844 66.6631 73.484 65.7271 73.028V69.104C66.9271 69.68 68.1871 70.112 69.5071 70.4C70.8271 70.688 72.1231 70.832 73.3951 70.832C75.0031 70.832 76.2271 70.532 77.0671 69.932C77.9071 69.332 78.3271 68.504 78.3271 67.448C78.3271 66.704 78.1351 66.092 77.7511 65.612C77.3671 65.108 76.8031 64.676 76.0591 64.316C75.3151 63.932 74.1751 63.44 72.6391 62.84C70.2871 61.88 68.5831 60.812 67.5271 59.636C66.4711 58.46 65.9431 56.996 65.9431 55.244C65.9431 53.876 66.3151 52.664 67.0591 51.608C67.8031 50.552 68.8471 49.736 70.1911 49.16C71.5351 48.584 73.0831 48.296 74.8351 48.296C76.2751 48.296 77.5471 48.416 78.6511 48.656C79.7791 48.872 80.8831 49.22 81.9631 49.7V53.516C79.8751 52.508 77.7631 52.004 75.6271 52.004C74.0911 52.004 72.9031 52.292 72.0631 52.868C71.2231 53.42 70.8031 54.212 70.8031 55.244C70.8031 55.988 70.9951 56.6 71.3791 57.08C71.7631 57.536 72.2671 57.932 72.8911 58.268C73.5391 58.58 74.6911 59.084 76.3471 59.78C78.0271 60.476 79.3471 61.16 80.3071 61.832C81.2911 62.504 82.0231 63.296 82.5031 64.208C83.0071 65.096 83.2591 66.188 83.2591 67.484C83.2591 69.716 82.4551 71.456 80.8471 72.704C79.2391 73.928 76.8631 74.54 73.7191 74.54ZM94.5628 61.292L85.4548 48.836H90.6748L97.1548 57.728L103.671 48.836H108.891L99.7828 61.292L109.071 74H103.851L97.1548 64.856L90.4588 74H85.2388L94.5628 61.292Z" fill="white"/>
</svg>