<svg width="124" height="124" viewBox="0 0 124 124" fill="none" xmlns="http://www.w3.org/2000/svg">
<circle cx="62" cy="62" r="62" fill="#E6AA09"/>
<path d="M22.8371 79C22.1371 79 21.5371 78.7667 21.0371 78.3C20.5371 77.8 20.2871 77.2 20.2871 76.5C20.2871 75.7667 20.5371 75.15 21.0371 74.65C21.5371 74.15 22.1371 73.9 22.8371 73.9C23.5371 73.9 24.1371 74.15 24.6371 74.65C25.1371 75.15 25.3871 75.7667 25.3871 76.5C25.3871 77.2 25.1371 77.8 24.6371 78.3C24.1371 78.7667 23.5371 79 22.8371 79ZM29.3691 74.85L47.6691 49.3H29.8191V44.05H55.4191V48.2L37.1691 73.75H56.3191V79H29.3691V74.85ZM64.8762 50.8C63.8762 50.8 63.0262 50.4667 62.3262 49.8C61.6595 49.1333 61.3262 48.3 61.3262 47.3C61.3262 46.3 61.6595 45.4667 62.3262 44.8C63.0262 44.1 63.8762 43.75 64.8762 43.75C65.8762 43.75 66.7262 44.1 67.4262 44.8C68.1262 45.4667 68.4762 46.3 68.4762 47.3C68.4762 48.3 68.1262 49.1333 67.4262 49.8C66.7262 50.4667 65.8762 50.8 64.8762 50.8ZM61.6762 55H68.0762V79H61.6762V55ZM74.4609 55H80.5609V57.9C81.8609 56.6667 83.2776 55.75 84.8109 55.15C86.3443 54.55 88.0943 54.25 90.0609 54.25C92.4943 54.25 94.6609 54.7833 96.5609 55.85C98.4943 56.8833 99.9943 58.3667 101.061 60.3C102.161 62.2 102.711 64.4167 102.711 66.95C102.711 69.45 102.161 71.6667 101.061 73.6C99.9943 75.5333 98.4943 77.05 96.5609 78.15C94.6609 79.2167 92.4943 79.75 90.0609 79.75C88.2276 79.75 86.4943 79.5 84.8609 79C83.2609 78.4667 81.8943 77.6833 80.7609 76.65V89.95H74.4609V55ZM88.5109 74.8C90.7776 74.8 92.6443 74.0667 94.1109 72.6C95.5776 71.1333 96.3109 69.25 96.3109 66.95C96.3109 64.65 95.5776 62.7833 94.1109 61.35C92.6443 59.9167 90.7776 59.2 88.5109 59.2C86.7109 59.2 85.1109 59.6833 83.7109 60.65C82.3109 61.6167 81.3276 62.9167 80.7609 64.55V69.4C81.2943 71.0333 82.2609 72.35 83.6609 73.35C85.0943 74.3167 86.7109 74.8 88.5109 74.8Z" fill="white"/>
</svg>