<svg width="50" height="50" viewBox="0 0 50 50" fill="none" xmlns="http://www.w3.org/2000/svg">
<path d="M25 50C38.8071 50 50 38.8071 50 25C50 11.1929 38.8071 0 25 0C11.1929 0 0 11.1929 0 25C0 38.8071 11.1929 50 25 50Z" fill="#DDDFEA"/>
<path fill-rule="evenodd" clip-rule="evenodd" d="M35.5 9.5H14.5V40.5H19V36H31V40.5H35.5V9.5ZM31 42H37V8H13V42H19H31ZM29.5 40.5V37.5H20.5V40.5H29.5ZM18.5 13.5H21.5V16.5H18.5V13.5ZM17 18V12H23V18H17ZM28.5 13.5H31.5V16.5H28.5V13.5ZM27 18V12H33V18H27ZM28.5 21.5H31.5V24.5H28.5V21.5ZM27 26V20H33V26H27ZM31.5 29.5H28.5V32.5H31.5V29.5ZM27 28V34H33V28H27ZM21.5 21.5H18.5V24.5H21.5V21.5ZM17 20V26H23V20H17ZM18.5 29.5H21.5V32.5H18.5V29.5ZM17 34V28H23V34H17Z" fill="white"/>
</svg>
