<svg width="96" height="63" viewBox="0 0 96 63" fill="none" xmlns="http://www.w3.org/2000/svg">
<rect x="0.35" y="0.35" width="95.3" height="62.3" rx="1.65" fill="white" stroke="white" stroke-width="0.7"/>
<path d="M31.1981 26.214H32.5561L37.5401 33.592V26.214H38.9821V36H37.6101L32.6261 28.622V36H31.1981V26.214ZM44.3377 36.21C43.5817 36.21 42.9144 36.07 42.3357 35.79C41.7664 35.5007 41.3184 35.09 40.9917 34.558C40.6744 34.0167 40.5157 33.382 40.5157 32.654C40.5157 31.9353 40.6744 31.3053 40.9917 30.764C41.3091 30.2227 41.7571 29.8073 42.3357 29.518C42.9144 29.2193 43.5817 29.07 44.3377 29.07C45.0937 29.07 45.7611 29.2193 46.3397 29.518C46.9184 29.8073 47.3664 30.2227 47.6837 30.764C48.0104 31.3053 48.1737 31.9353 48.1737 32.654C48.1737 33.382 48.0104 34.0167 47.6837 34.558C47.3664 35.09 46.9184 35.5007 46.3397 35.79C45.7611 36.07 45.0937 36.21 44.3377 36.21ZM44.3377 35.09C45.0657 35.09 45.6444 34.866 46.0737 34.418C46.5031 33.97 46.7177 33.382 46.7177 32.654C46.7177 31.898 46.5031 31.3007 46.0737 30.862C45.6444 30.4233 45.0657 30.204 44.3377 30.204C43.6097 30.204 43.0311 30.4233 42.6017 30.862C42.1724 31.3007 41.9577 31.898 41.9577 32.654C41.9577 33.382 42.1724 33.97 42.6017 34.418C43.0311 34.866 43.6097 35.09 44.3377 35.09ZM49.7098 29.28H51.0818V30.246C51.3991 29.8447 51.7865 29.5507 52.2438 29.364C52.7105 29.168 53.1958 29.07 53.6998 29.07C54.5958 29.07 55.2631 29.308 55.7018 29.784C56.1405 30.26 56.3598 30.8993 56.3598 31.702V36H54.9458V31.842C54.9458 30.75 54.4231 30.204 53.3778 30.204C52.9298 30.204 52.5098 30.3113 52.1178 30.526C51.7351 30.7313 51.4038 31.0487 51.1238 31.478V36H49.7098V29.28ZM61.8003 36.21C60.559 36.21 59.5837 35.902 58.8743 35.286C58.1743 34.6607 57.8243 33.7833 57.8243 32.654C57.8243 31.5527 58.137 30.68 58.7623 30.036C59.397 29.392 60.2977 29.07 61.4643 29.07C62.239 29.07 62.897 29.2193 63.4383 29.518C63.9797 29.8073 64.3857 30.2133 64.6563 30.736C64.9363 31.2493 65.0763 31.8373 65.0763 32.5V33.2H59.1683C59.215 33.8347 59.481 34.3107 59.9663 34.628C60.461 34.936 61.1283 35.09 61.9683 35.09C62.3977 35.09 62.8317 35.0527 63.2703 34.978C63.709 34.894 64.0963 34.7867 64.4323 34.656V35.79C64.1337 35.9113 63.737 36.0093 63.2423 36.084C62.757 36.168 62.2763 36.21 61.8003 36.21ZM63.7463 32.206C63.7277 31.5713 63.5177 31.0813 63.1163 30.736C62.7243 30.3813 62.1643 30.204 61.4363 30.204C60.727 30.204 60.1763 30.386 59.7843 30.75C59.3923 31.114 59.187 31.5993 59.1683 32.206H63.7463Z" fill="#B2B9C7"/>
</svg>
