<svg width="49" height="48" viewBox="0 0 49 48" fill="none" xmlns="http://www.w3.org/2000/svg">
<path d="M21.5572 3.06H27.4372L44.1772 45H37.9372L33.7372 34.56H15.1972L11.1172 45H4.81719L21.5572 3.06ZM32.0572 29.46L24.4972 9.84L16.9372 29.46H32.0572Z" fill="#B2B9C7"/>
<path d="M21.5572 3.06V0.0599964H19.5245L18.7709 1.94789L21.5572 3.06ZM27.4372 3.06L30.2234 1.94789L29.4699 0.0599964H27.4372V3.06ZM44.1772 45V48H48.6048L46.9634 43.8879L44.1772 45ZM37.9372 45L35.154 46.1197L35.9104 48H37.9372V45ZM33.7372 34.56L36.5204 33.4403L35.764 31.56H33.7372V34.56ZM15.1972 34.56V31.56H13.1486L12.403 33.468L15.1972 34.56ZM11.1172 45V48H13.1657L13.9114 46.092L11.1172 45ZM4.81719 45L2.03093 43.8879L0.389619 48H4.81719V45ZM32.0572 29.46V32.46H36.4282L34.8566 28.3813L32.0572 29.46ZM24.4972 9.84L27.2966 8.76134L24.4972 1.4963L21.6978 8.76134L24.4972 9.84ZM16.9372 29.46L14.1378 28.3813L12.5662 32.46H16.9372V29.46ZM21.5572 6.06H27.4372V0.0599964H21.5572V6.06ZM24.6509 4.17211L41.3909 46.1121L46.9634 43.8879L30.2234 1.94789L24.6509 4.17211ZM44.1772 42H37.9372V48H44.1772V42ZM40.7204 43.8803L36.5204 33.4403L30.954 35.6797L35.154 46.1197L40.7204 43.8803ZM33.7372 31.56H15.1972V37.56H33.7372V31.56ZM12.403 33.468L8.32299 43.908L13.9114 46.092L17.9914 35.652L12.403 33.468ZM11.1172 42H4.81719V48H11.1172V42ZM7.60344 46.1121L24.3434 4.17211L18.7709 1.94789L2.03093 43.8879L7.60344 46.1121ZM34.8566 28.3813L27.2966 8.76134L21.6978 10.9187L29.2578 30.5387L34.8566 28.3813ZM21.6978 8.76134L14.1378 28.3813L19.7366 30.5387L27.2966 10.9187L21.6978 8.76134ZM16.9372 32.46H32.0572V26.46H16.9372V32.46Z" fill="white"/>
</svg>
