<svg width="48" height="44" viewBox="0 0 48 44" fill="none" xmlns="http://www.w3.org/2000/svg">
<g filter="url(#filter0_d)">
<path d="M18.5572 1.06H24.4372L41.1772 43H34.9372L30.7372 32.56H12.1972L8.11719 43H1.81719L18.5572 1.06ZM29.0572 27.46L21.4972 7.84L13.9372 27.46H29.0572Z" fill="#ACB3C0"/>
<path d="M18.5572 1.06V0.0599964H17.8796L17.6284 0.689293L18.5572 1.06ZM24.4372 1.06L25.3659 0.689293L25.1148 0.0599964H24.4372V1.06ZM41.1772 43V44H42.653L42.1059 42.6293L41.1772 43ZM34.9372 43L34.0094 43.3732L34.2616 44H34.9372V43ZM30.7372 32.56L31.6649 32.1868L31.4128 31.56H30.7372V32.56ZM12.1972 32.56V31.56H11.5143L11.2658 32.196L12.1972 32.56ZM8.11719 43V44H8.80004L9.04859 43.364L8.11719 43ZM1.81719 43L0.888436 42.6293L0.341332 44H1.81719V43ZM29.0572 27.46V28.46H30.5142L29.9903 27.1004L29.0572 27.46ZM21.4972 7.84L22.4303 7.48045L21.4972 5.05876L20.5641 7.48045L21.4972 7.84ZM13.9372 27.46L13.0041 27.1004L12.4802 28.46H13.9372V27.46ZM18.5572 2.06H24.4372V0.0599964H18.5572V2.06ZM23.5084 1.4307L40.2484 43.3707L42.1059 42.6293L25.3659 0.689293L23.5084 1.4307ZM41.1772 42H34.9372V44H41.1772V42ZM35.8649 42.6268L31.6649 32.1868L29.8094 32.9332L34.0094 43.3732L35.8649 42.6268ZM30.7372 31.56H12.1972V33.56H30.7372V31.56ZM11.2658 32.196L7.18579 42.636L9.04859 43.364L13.1286 32.924L11.2658 32.196ZM8.11719 42H1.81719V44H8.11719V42ZM2.74594 43.3707L19.4859 1.4307L17.6284 0.689293L0.888436 42.6293L2.74594 43.3707ZM29.9903 27.1004L22.4303 7.48045L20.5641 8.19955L28.1241 27.8196L29.9903 27.1004ZM20.5641 7.48045L13.0041 27.1004L14.8703 27.8196L22.4303 8.19955L20.5641 7.48045ZM13.9372 28.46H29.0572V26.46H13.9372V28.46Z" fill="#ACB3C0"/>
</g>
<defs>
<filter id="filter0_d" x="0.339844" y="0.0585938" width="47.3117" height="43.94" filterUnits="userSpaceOnUse" color-interpolation-filters="sRGB">
<feFlood flood-opacity="0" result="BackgroundImageFix"/>
<feColorMatrix in="SourceAlpha" type="matrix" values="0 0 0 0 0 0 0 0 0 0 0 0 0 0 0 0 0 0 127 0"/>
<feOffset dx="5"/>
<feColorMatrix type="matrix" values="0 0 0 0 1 0 0 0 0 1 0 0 0 0 1 0 0 0 1 0"/>
<feBlend mode="normal" in2="BackgroundImageFix" result="effect1_dropShadow"/>
<feBlend mode="normal" in="SourceGraphic" in2="effect1_dropShadow" result="shape"/>
</filter>
</defs>
</svg>
