<?xml version="1.0" encoding="UTF-8"?>
<svg width="374px" height="317px" viewBox="0 0 374 317" version="1.1" xmlns="http://www.w3.org/2000/svg" xmlns:xlink="http://www.w3.org/1999/xlink">
    <!-- Generator: Sketch 61 (89581) - https://sketch.com -->
    <title>icon_hide</title>
    <desc>Created with Sketch.</desc>
    <g id="icon_hide" stroke="none" stroke-width="1" fill="none" fill-rule="evenodd">
        <g id="Group" transform="translate(6.000000, 18.000000)">
            <g id="hide" transform="translate(44.000000, 0.000000)" stroke="#D3D4D7" stroke-linecap="round" stroke-width="26">
                <line x1="281" y1="0" x2="0" y2="281" id="Path-2"></line>
            </g>
            <g id="view-(2)" transform="translate(0.000000, 25.000000)" fill="#D3D4D7" fill-rule="nonzero">
                <path d="M359.699667,108.450631 C356.465697,104.02146 279.411084,0 180.998409,0 C82.5857341,0 5.52758651,104.02146 2.29715126,108.446384 C-0.765717087,112.648327 -0.765717087,118.347425 2.29715126,122.549369 C5.52758651,126.97854 82.5857341,231 180.998409,231 C279.411084,231 356.465697,126.977832 359.699667,122.552908 C362.766778,118.351673 362.766778,112.648327 359.699667,108.450631 Z M180.998409,207.10357 C108.50699,207.10357 45.7217238,138.06244 27.1359389,115.491859 C45.6976847,92.9014583 108.351442,23.8964297 180.998409,23.8964297 C253.486293,23.8964297 316.267317,92.9255261 334.860879,115.508141 C316.299134,138.097834 253.645376,207.10357 180.998409,207.10357 Z" id="Shape"></path>
            </g>
            <path d="M181,83 C149.019393,83 123,109.019393 123,141 C123,172.980607 149.019393,199 181,199 C212.980607,199 239,172.980607 239,141 C239,109.019393 212.980607,83 181,83 Z M181,180 C159.494431,180 142,162.504991 142,141 C142,119.495009 159.495009,102 181,102 C202.504991,102 220,119.495009 220,141 C220,162.504991 202.505569,180 181,180 Z" id="Shape" fill="#D3D4D7" fill-rule="nonzero"></path>
        </g>
    </g>
</svg>