<svg width="40" height="40" viewBox="0 0 40 40" fill="none" xmlns="http://www.w3.org/2000/svg">
<circle cx="20" cy="20" r="19.5" fill="#DDDFEA" stroke="#DDDFEA"/>
<path d="M19.9527 10C17.2218 10 15 12.2768 15 15.0753C15 17.8738 17.2218 20.1505 19.9527 20.1505C22.6837 20.1505 24.9055 17.8738 24.9055 15.0753C24.9055 12.2768 22.6837 10 19.9527 10ZM19.9527 19.0227C17.8287 19.0227 16.1006 17.2519 16.1006 15.0753C16.1006 12.8987 17.8287 11.1278 19.9527 11.1278C22.0768 11.1278 23.8049 12.8987 23.8049 15.0753C23.8049 17.2519 22.0768 19.0227 19.9527 19.0227Z" fill="white"/>
<path d="M25.9721 23.196C24.658 21.7799 22.9159 21 21.0667 21H18.9333C17.0842 21 15.342 21.7799 14.0279 23.196C12.7202 24.6052 12 26.4654 12 28.434C12 28.7466 12.2388 29 12.5333 29H27.4667C27.7612 29 28 28.7466 28 28.434C28 26.4654 27.2798 24.6052 25.9721 23.196ZM13.0901 27.8679C13.3573 24.6571 15.8759 22.1321 18.9333 22.1321H21.0667C24.1241 22.1321 26.6427 24.6571 26.9099 27.8679H13.0901Z" fill="white"/>
</svg>
