<svg width="75" height="70" viewBox="0 0 75 70" fill="none" xmlns="http://www.w3.org/2000/svg">
<path d="M70.1326 30.2149H66.4166C65.9817 28.628 64.5564 27.5236 62.9232 27.5081H58.9565V17.7297C58.9656 17.3573 58.7748 17.0089 58.4573 16.8181L30.4742 0.525604C30.1531 0.337492 29.7566 0.337492 29.4356 0.525604L1.44383 16.8181C1.12146 17.0065 0.923485 17.3541 0.924565 17.7297V50.315C0.924565 50.691 1.12372 51.0385 1.44681 51.2266L29.4414 67.5191C29.6002 67.6115 29.7802 67.6602 29.9635 67.6602C30.1516 67.6603 30.5641 68.6087 30.7282 68.5161L45.2317 58.9539V65.1457C45.2287 66.3364 45.6983 67.4788 46.536 68.3184C47.3737 69.1579 48.5097 69.6247 49.6909 69.6152H70.1326C71.3167 69.6258 72.4564 69.1603 73.2989 68.3213C74.1414 67.4824 74.6171 66.3394 74.6205 65.1457V34.7537C74.6191 32.2534 72.613 30.2245 70.1326 30.2149Z" fill="#E1FCDF"/>
<path fill-rule="evenodd" clip-rule="evenodd" d="M30.6641 0.192569C30.6643 0.192646 30.664 0.192491 30.6641 0.192569L58.6508 16.4872C59.0844 16.7477 59.3466 17.2237 59.3359 17.7342V27.1235H62.9269C64.6298 27.1397 66.1296 28.2295 66.6941 29.8303H70.1342C72.8213 29.8407 74.9985 32.0393 75 34.7535V65.1467C74.9963 66.4437 74.4794 67.685 73.5648 68.5957C72.6507 69.506 71.4147 70.0109 70.1309 69.9998H49.693C48.4117 70.0098 47.179 69.5033 46.2695 68.5919C45.3597 67.6801 44.8492 66.4388 44.8526 65.1446V59.6627L45.4387 59.2763L45.2319 58.9539H44.8526V59.6627L30.9242 68.8458L30.9128 68.8522C30.7139 68.9645 30.5303 68.8791 30.4572 68.8335C30.3797 68.7851 30.319 68.7198 30.2791 68.6729C30.1954 68.5748 30.1089 68.4428 30.0386 68.3351L30.0214 68.3086C29.9512 68.2009 29.8926 68.111 29.841 68.0443C29.8396 68.0425 29.8382 68.0408 29.8369 68.039C29.8779 68.0428 29.9192 68.0447 29.9607 68.0448M29.7967 67.9926C29.7972 67.993 29.8012 67.9968 29.809 68.0055C29.8166 68.0139 29.8258 68.0249 29.8369 68.039C29.6316 68.0205 29.4322 67.9571 29.2527 67.8527L1.25815 51.5601C0.817954 51.3039 0.54541 50.8296 0.54541 50.315V17.7302C0.54541 17.73 0.545411 17.7304 0.54541 17.7302M29.2465 0.192267C29.2467 0.192166 29.2463 0.192368 29.2465 0.192267V0.192267ZM30.6641 0.192569C30.2259 -0.0640116 29.6847 -0.0642669 29.2465 0.192267L30.6641 0.192569ZM29.7967 67.9926C29.7972 67.993 29.7998 67.9952 29.8046 67.9986C29.8092 68.0019 29.8174 68.0074 29.829 68.0134C29.8499 68.0242 29.896 68.0442 29.9607 68.0448M30.2846 0.858596C30.0809 0.739284 29.8292 0.739284 29.6255 0.858595L29.6246 0.859146L1.63339 17.1514C1.6333 17.1514 1.63347 17.1513 1.63339 17.1514C1.42841 17.2712 1.30336 17.4917 1.30404 17.7286L1.30405 17.7297L1.30404 50.315C1.30404 50.5524 1.42982 50.7731 1.6358 50.893L29.6304 67.1855C29.7316 67.2444 29.8466 67.2755 29.9637 67.2755C30.1308 67.2756 30.2479 67.3715 30.2909 67.4089C30.3482 67.4589 30.3982 67.5183 30.4379 67.5696C30.5098 67.6626 30.5859 67.7795 30.651 67.8794L30.6714 67.9107C30.7025 67.9585 30.7307 68.0013 30.7564 68.0389L45.6112 58.245V65.1456C45.6084 66.2329 46.0372 67.2775 46.8028 68.0448C47.5685 68.8121 48.6074 69.2393 49.6881 69.2306L49.6911 69.2306L70.1327 69.2306L70.1361 69.2306C71.2201 69.2403 72.2628 68.8141 73.0333 68.0469C73.8037 67.2798 74.2382 66.2351 74.2413 65.1445V34.7539C74.2401 32.4678 72.4055 30.6089 70.1323 30.5995H66.1285L66.0513 30.3179C65.6622 28.898 64.3862 27.9074 62.9215 27.8927H58.5773V17.7202C58.583 17.4885 58.4648 17.2706 58.2661 17.1502C58.2654 17.1498 58.2648 17.1494 58.2641 17.149L30.2846 0.858596Z" fill="#2EC639"/>
<path d="M72.4533 65.0548C72.4504 65.6899 72.1978 66.2974 71.752 66.7413C71.3061 67.1852 70.7043 67.4285 70.081 67.4168H49.8707C49.2503 67.4275 48.652 67.1829 48.2109 66.7384C47.7698 66.2938 47.5232 65.6869 47.5267 65.0548V34.6843C47.5206 34.0449 47.7641 33.4293 48.2038 32.9731C48.6435 32.517 49.2432 32.2577 49.8707 32.2525H53.5849C54.0397 33.7819 55.43 34.8224 56.9984 34.8072H62.9532C64.5216 34.8225 65.9119 33.7819 66.3667 32.2525H70.081C71.3934 32.2609 72.453 33.3471 72.4533 34.6843V65.0548Z" fill="white"/>
<path d="M72.4533 65.0548C72.4504 65.6899 72.1978 66.2974 71.752 66.7413C71.3061 67.1852 70.7043 67.4285 70.081 67.4168H49.8707C49.2503 67.4275 48.652 67.1829 48.2109 66.7384C47.7698 66.2938 47.5232 65.6869 47.5267 65.0548V34.6843C47.5206 34.0449 47.7641 33.4293 48.2038 32.9731C48.6435 32.517 49.2432 32.2577 49.8707 32.2525H53.5849C54.0397 33.7819 55.43 34.8224 56.9984 34.8072H62.9532C64.5216 34.8225 65.9119 33.7819 66.3667 32.2525H70.081C71.3934 32.2609 72.453 33.3471 72.4533 34.6843V65.0548Z" fill="#2EC639"/>
<path fill-rule="evenodd" clip-rule="evenodd" d="M1.11564 17.0851L31.1077 34.7787V67.4174H30.3491V35.2211L0.734131 17.75L1.11564 17.0851Z" fill="#2EC639"/>
<path fill-rule="evenodd" clip-rule="evenodd" d="M58.566 17.7432L30.9301 35.3256L30.5269 34.674L58.1628 17.0917L58.566 17.7432Z" fill="#2EC639"/>
<path fill-rule="evenodd" clip-rule="evenodd" d="M0.924694 17.4175L30.7282 34.2795V67.9668L0.382812 50.5676L0.924694 17.4175Z" fill="white"/>
<path fill-rule="evenodd" clip-rule="evenodd" d="M0.556125 16.7684L31.1077 34.0536V68.6261L0 50.7898L0.556125 16.7684ZM1.29364 18.0666L0.766004 50.3453L30.3491 67.3074V34.5053L1.29364 18.0666Z" fill="#2EC639"/>
<path fill-rule="evenodd" clip-rule="evenodd" d="M54.0293 39.9448H67.0345V53.1316H54.0293V39.9448ZM55.1131 41.0437V52.0327H65.9507V41.0437H55.1131Z" fill="white"/>
<path fill-rule="evenodd" clip-rule="evenodd" d="M64.6636 42.8125C64.8973 43.0021 64.9352 43.3478 64.7482 43.5848L60.1028 49.4726L56.4381 46.9954C56.1891 46.8271 56.1218 46.4859 56.2878 46.2334C56.4539 45.981 56.7903 45.9127 57.0393 46.0811L59.8772 47.9994L63.9019 42.8983C64.0889 42.6613 64.4299 42.6229 64.6636 42.8125Z" fill="white"/>
<path fill-rule="evenodd" clip-rule="evenodd" d="M52.4036 57.5272C52.4036 57.2238 52.6462 56.9778 52.9454 56.9778H68.1181C68.4174 56.9778 68.66 57.2238 68.66 57.5272C68.66 57.8307 68.4174 58.0767 68.1181 58.0767H52.9454C52.6462 58.0767 52.4036 57.8307 52.4036 57.5272Z" fill="white"/>
<path fill-rule="evenodd" clip-rule="evenodd" d="M52.4036 60.8238C52.4036 60.5204 52.6462 60.2744 52.9454 60.2744H68.1181C68.4174 60.2744 68.66 60.5204 68.66 60.8238C68.66 61.1273 68.4174 61.3733 68.1181 61.3733H52.9454C52.6462 61.3733 52.4036 61.1273 52.4036 60.8238Z" fill="white"/>
<path fill-rule="evenodd" clip-rule="evenodd" d="M3.09229 43.2416V48.1867L10.6786 52.5822V47.6372L3.09229 43.2416Z" fill="#2EC639"/>
<path fill-rule="evenodd" clip-rule="evenodd" d="M2.55029 42.2946L11.2204 47.3182V53.5289L2.55029 48.5053V42.2946ZM3.63406 44.1882V47.8676L10.1366 51.6353V47.9559L3.63406 44.1882Z" fill="#2EC639"/>
<path d="M63.7831 30.3294H56.1968C55.5983 30.3294 55.113 30.8214 55.113 31.4283C55.113 32.0352 55.5983 32.5272 56.1968 32.5272H63.7831C64.3817 32.5272 64.8669 32.0352 64.8669 31.4283C64.8669 30.8214 64.3817 30.3294 63.7831 30.3294Z" fill="#2EC639"/>
<path fill-rule="evenodd" clip-rule="evenodd" d="M56.1969 30.879C55.8977 30.879 55.6551 31.125 55.6551 31.4285C55.6551 31.7319 55.8977 31.9779 56.1969 31.9779H63.7833C64.0825 31.9779 64.3252 31.7319 64.3252 31.4285C64.3252 31.125 64.0825 30.879 63.7833 30.879H56.1969ZM54.5713 31.4285C54.5713 30.5181 55.2991 29.7801 56.1969 29.7801H63.7833C64.6811 29.7801 65.4089 30.5181 65.4089 31.4285C65.4089 32.3388 64.6811 33.0768 63.7833 33.0768H56.1969C55.2991 33.0768 54.5713 32.3388 54.5713 31.4285Z" fill="#2EC639"/>
</svg>
