<svg width="56" height="62" viewBox="0 0 56 62" fill="none" xmlns="http://www.w3.org/2000/svg">
<path fill-rule="evenodd" clip-rule="evenodd" d="M14.6843 27.6105H42.3686V4.69309C42.3686 2.65345 40.6484 1 38.5265 1H18.5264C16.4045 1 14.6843 2.65345 14.6843 4.69309V27.6105Z" fill="#2EC639" stroke="#2EC639" stroke-width="0.7"/>
<path fill-rule="evenodd" clip-rule="evenodd" d="M9.4209 31.6578H37.1051V8.74041C37.1051 6.70077 35.385 5.04732 33.263 5.04732H13.263C11.1411 5.04732 9.4209 6.70077 9.4209 8.74041V31.6578Z" fill="#2EC639" stroke="#2EC639" stroke-width="0.7"/>
<path d="M47.6316 17.1888H5.21053C2.88512 17.1888 1 19.0008 1 21.236V56.9528C1 59.188 2.88512 61 5.21053 61H47.6316C49.9571 61 51.8422 59.188 51.8422 56.9528V21.236C51.8422 19.0008 49.9571 17.1888 47.6316 17.1888Z" fill="#E1FCDF" stroke="#2EC639" stroke-width="0.7"/>
<path d="M15.4463 37.0709C14.1059 37.0709 13.0161 36.1635 13.0161 35.0473C13.0161 33.9312 14.1059 33.0237 15.4463 33.0237C16.3073 33.0237 17.2158 33.3897 18.0749 34.0814C19.0394 34.8584 20.5782 34.8379 21.5113 34.0339C22.4445 33.2308 22.4189 31.9503 21.4544 31.1732C20.2212 30.1788 18.9872 29.6168 17.8765 29.3101V26.9529C17.8765 25.8352 16.7886 24.9293 15.4463 24.9293C14.104 24.9293 13.0161 25.8352 13.0161 26.9529V29.3243C10.1873 30.1598 8.15577 32.4095 8.15577 35.0473C8.15577 38.395 11.4261 41.1182 15.4463 41.1182C16.7858 41.1182 17.8765 42.0256 17.8765 43.1418C17.8765 44.2579 16.7858 45.1654 15.4463 45.1654C14.4078 45.1654 13.2867 44.6215 12.2899 43.6342C11.427 42.7789 9.89392 42.6683 8.86679 43.3876C7.83871 44.1069 7.70676 45.3836 8.56967 46.2388C9.86924 47.5257 11.3966 48.4221 13.0161 48.8743V51.2362C13.0161 52.354 14.104 53.2598 15.4463 53.2598C16.7886 53.2598 17.8765 52.354 17.8765 51.2362V48.8648C20.7044 48.0293 22.7369 45.7796 22.7369 43.1418C22.7369 39.7941 19.4666 37.0709 15.4463 37.0709Z" fill="#2EC639" stroke="#E1FCDF"/>
<path fill-rule="evenodd" clip-rule="evenodd" d="M38 32.366C33.8433 32.366 30.4736 35.6049 30.4736 39.6004C30.4736 43.5958 33.8433 46.8348 38 46.8348H51.1579C53.2798 46.8348 55 45.1813 55 43.1417V36.0591C55 34.0194 53.2798 32.366 51.1579 32.366H38Z" fill="#2EC639" stroke="#2EC639" stroke-width="0.7"/>
<path opacity="0.755069" d="M36.9476 41.624C38.1103 41.624 39.0528 40.718 39.0528 39.6004C39.0528 38.4828 38.1103 37.5768 36.9476 37.5768C35.7848 37.5768 34.8423 38.4828 34.8423 39.6004C34.8423 40.718 35.7848 41.624 36.9476 41.624Z" fill="white" stroke="white"/>
</svg>
