<svg width="72" height="72" viewBox="0 0 72 72" fill="none" xmlns="http://www.w3.org/2000/svg">
<path d="M35.4366 1.14521C35.797 0.945733 36.2345 0.952705 36.5904 1.16038L70.4239 20.9939C70.7808 21.2027 71 21.5854 71 21.9996V69.8334C71 70.4786 70.4786 71 69.8334 71H64C63.3548 71 62.8334 70.4786 62.8334 69.8334V28.9997H9.16664V69.8332C9.16664 70.4784 8.64396 71 8.00001 71H2.16662C1.52268 71 1 70.4784 1 69.8332V20.8329C1 20.4082 1.23106 20.0162 1.6032 19.8121L35.4366 1.14521Z" fill="#E1FCDF" stroke="#2EC639" stroke-width="0.7"/>
<path d="M35.3077 49.4614H20.5383C19.859 49.4614 19.3076 50.0115 19.3076 50.6922V65.4615C19.3076 66.1421 19.859 66.6922 20.5383 66.6922H35.3077C35.9883 66.6922 36.5384 66.1421 36.5384 65.4615V50.6922C36.5384 50.0115 35.9883 49.4614 35.3077 49.4614Z" fill="#2EC639" stroke="#2EC639" stroke-width="0.7"/>
<path d="M50.3848 34.3845H35.6155C34.9349 34.3845 34.3848 34.9346 34.3848 35.6152V50.3845C34.3848 51.0652 34.9349 51.6153 35.6155 51.6153H50.3848C51.0654 51.6153 51.6155 51.0652 51.6155 50.3845V35.6152C51.6155 34.9346 51.0654 34.3845 50.3848 34.3845Z" fill="#2EC639" stroke="#2EC639" stroke-width="0.7"/>
<path d="M45.154 38.1538H40.8463C40.5489 38.1538 40.3079 38.3949 40.3079 38.6923C40.3079 38.9896 40.5489 39.2307 40.8463 39.2307H45.154C45.4514 39.2307 45.6925 38.9896 45.6925 38.6923C45.6925 38.3949 45.4514 38.1538 45.154 38.1538Z" fill="#E1FCDF" stroke="#E1FCDF"/>
<path d="M30.0771 53.2307H25.7694C25.472 53.2307 25.231 53.4718 25.231 53.7692C25.231 54.0666 25.472 54.3077 25.7694 54.3077H30.0771C30.3745 54.3077 30.6156 54.0666 30.6156 53.7692C30.6156 53.4718 30.3745 53.2307 30.0771 53.2307Z" fill="#E1FCDF" stroke="#E1FCDF"/>
</svg>
