<svg width="77" height="44" viewBox="0 0 77 44" fill="none" xmlns="http://www.w3.org/2000/svg">
<path d="M52.4929 0.419647C53.1516 0.419647 53.6855 0.954556 53.6855 1.61418V2.88828C53.6855 3.63476 54.2918 4.24209 55.0371 4.24209C55.7824 4.24209 56.3888 3.63476 56.3888 2.88828V1.61418C56.3888 0.954407 56.9229 0.419647 57.5814 0.419647H74.1187C75.4778 0.419647 76.5837 1.52701 76.5837 2.88828V41.1118C76.5837 42.473 75.4781 43.5804 74.119 43.5804H57.5817C56.923 43.5804 56.3891 43.0455 56.3891 42.3859V41.1118C56.3891 40.3653 55.7827 39.758 55.0374 39.758C54.2921 39.758 53.6858 40.3653 53.6858 41.1118V42.3859C53.6858 43.0457 53.1517 43.5804 52.4932 43.5804H2.88145C1.52235 43.5804 0.416748 42.473 0.416748 41.1118V2.88828C0.416748 1.52701 1.52235 0.419647 2.88145 0.419647H52.4929Z" fill="#E1FCDF"/>
<path fill-rule="evenodd" clip-rule="evenodd" d="M2.88124 0.839237C1.74992 0.839237 0.833076 1.76102 0.833076 2.88825V41.1118C0.833076 42.239 1.74992 43.1608 2.88124 43.1608H52.4929C52.9238 43.1608 53.269 42.8116 53.269 42.3859V41.1118C53.269 40.1312 54.0642 39.3383 55.0372 39.3383C56.0103 39.3383 56.8054 40.1312 56.8054 41.1118V42.3859C56.8054 42.8115 57.1506 43.1608 57.5815 43.1608H74.1188C75.2501 43.1608 76.1669 42.239 76.1669 41.1118V2.88825C76.1669 1.76108 75.2499 0.839237 74.1185 0.839237H57.5812C57.1504 0.839237 56.8051 1.18844 56.8051 1.61415V2.88825C56.8051 3.86877 56.01 4.66168 55.0369 4.66168C54.0639 4.66168 53.2687 3.86877 53.2687 2.88825V1.61415C53.2687 1.18853 52.9236 0.839237 52.4926 0.839237H2.88124ZM0 2.88825C0 1.29295 1.29437 0 2.88124 0H52.4926C53.3792 0 54.1018 0.72053 54.1018 1.61415V2.88825C54.1018 3.4007 54.5194 3.82244 55.0369 3.82244C55.5545 3.82244 55.9721 3.4007 55.9721 2.88825V1.61415C55.9721 0.720313 56.6949 0 57.5812 0H74.1185C75.7053 0 77 1.29289 77 2.88825V41.1118C77 42.7071 75.7056 44 74.1188 44H57.5815C56.695 44 55.9724 43.2795 55.9724 42.3859V41.1118C55.9724 40.5993 55.5548 40.1776 55.0372 40.1776C54.5197 40.1776 54.1021 40.5993 54.1021 41.1118V42.3859C54.1021 43.2797 53.3793 44 52.4929 44H2.88124C1.29437 44 0 42.7071 0 41.1118V2.88825Z" fill="#2EC639"/>
<path d="M33.1446 24.3979C35.4413 24.3979 37.31 26.2803 37.31 28.5941C37.31 30.9078 35.4413 32.7902 33.1446 32.7902C30.8479 32.7902 28.9792 30.9078 28.9792 28.5941C28.9792 26.2803 30.8478 24.3979 33.1446 24.3979Z" fill="#E1FCDF"/>
<path fill-rule="evenodd" clip-rule="evenodd" d="M33.1443 25.5968C31.5048 25.5968 30.169 26.9425 30.169 28.594C30.169 30.2456 31.5049 31.5913 33.1443 31.5913C34.7838 31.5913 36.1196 30.2456 36.1196 28.594C36.1196 26.9425 34.7838 25.5968 33.1443 25.5968ZM27.7888 28.594C27.7888 25.6182 30.1902 23.1989 33.1443 23.1989C36.0983 23.1989 38.4998 25.6182 38.4998 28.594C38.4998 31.5699 36.0983 33.9891 33.1443 33.9891C30.1903 33.9891 27.7888 31.5699 27.7888 28.594Z" fill="#2EC639"/>
<path d="M22.4334 12.4088C24.7302 12.4088 26.5988 14.2912 26.5988 16.605C26.5988 18.9187 24.7302 20.8011 22.4334 20.8011C20.1367 20.8011 18.2681 18.9187 18.2681 16.605C18.2681 14.2912 20.1366 12.4088 22.4334 12.4088Z" fill="#E1FCDF"/>
<path fill-rule="evenodd" clip-rule="evenodd" d="M22.4336 13.6076C20.7941 13.6076 19.4583 14.9533 19.4583 16.6049C19.4583 18.2565 20.7942 19.6022 22.4336 19.6022C24.0731 19.6022 25.4089 18.2565 25.4089 16.6049C25.4089 14.9533 24.0731 13.6076 22.4336 13.6076ZM17.0781 16.6049C17.0781 13.6291 19.4795 11.2098 22.4336 11.2098C25.3876 11.2098 27.7891 13.6291 27.7891 16.6049C27.7891 19.5808 25.3876 22 22.4336 22C19.4796 22 17.0781 19.5808 17.0781 16.6049Z" fill="#2EC639"/>
<path fill-rule="evenodd" clip-rule="evenodd" d="M39.9366 9.76258C40.4014 10.2308 40.4014 10.9899 39.9366 11.4581L16.1344 35.4363C15.6697 35.9045 14.9161 35.9045 14.4514 35.4363C13.9866 34.9681 13.9866 34.209 14.4514 33.7408L38.2535 9.76258C38.7183 9.29437 39.4718 9.29437 39.9366 9.76258Z" fill="#2EC639"/>
<path fill-rule="evenodd" clip-rule="evenodd" d="M55.1615 5.81462C55.4901 5.81462 55.7565 6.08301 55.7565 6.41408V11.2097C55.7565 11.5408 55.4901 11.8092 55.1615 11.8092C54.8328 11.8092 54.5664 11.5408 54.5664 11.2097V6.41408C54.5664 6.08301 54.8328 5.81462 55.1615 5.81462Z" fill="#2EC639"/>
<path fill-rule="evenodd" clip-rule="evenodd" d="M55.1615 14.2069C55.4901 14.2069 55.7565 14.4753 55.7565 14.8064V19.602C55.7565 19.9331 55.4901 20.2015 55.1615 20.2015C54.8328 20.2015 54.5664 19.9331 54.5664 19.602V14.8064C54.5664 14.4753 54.8328 14.2069 55.1615 14.2069Z" fill="#2EC639"/>
<path fill-rule="evenodd" clip-rule="evenodd" d="M55.1615 22.5995C55.4901 22.5995 55.7565 22.8679 55.7565 23.1989V27.9946C55.7565 28.3256 55.4901 28.594 55.1615 28.594C54.8328 28.594 54.5664 28.3256 54.5664 27.9946V23.1989C54.5664 22.8679 54.8328 22.5995 55.1615 22.5995Z" fill="#2EC639"/>
<path fill-rule="evenodd" clip-rule="evenodd" d="M55.1615 30.9918C55.4901 30.9918 55.7565 31.2602 55.7565 31.5912V36.3869C55.7565 36.718 55.4901 36.9863 55.1615 36.9863C54.8328 36.9863 54.5664 36.718 54.5664 36.3869V31.5912C54.5664 31.2602 54.8328 30.9918 55.1615 30.9918Z" fill="#2EC639"/>
</svg>
