<svg width="72" height="60" viewBox="0 0 72 60" fill="none" xmlns="http://www.w3.org/2000/svg">
<path d="M29.819 58.9688C45.7353 58.9688 58.638 45.992 58.638 29.9844C58.638 13.9767 45.7353 1 29.819 1C13.9027 1 1 13.9767 1 29.9844C1 45.992 13.9027 58.9688 29.819 58.9688Z" fill="#2EC639" stroke="#2EC639" stroke-width="0.7"/>
<path opacity="0.505673" d="M53.7704 46.5358C63.286 46.5358 70.9999 38.7775 70.9999 29.2073C70.9999 19.6371 63.286 11.8788 53.7704 11.8788C44.2547 11.8788 36.5408 19.6371 36.5408 29.2073C36.5408 38.7775 44.2547 46.5358 53.7704 46.5358Z" fill="white" stroke="#2EC639" stroke-width="0.7"/>
<path d="M29.819 58.9688C45.7353 58.9688 58.638 45.992 58.638 29.9844C58.638 13.9767 45.7353 1 29.819 1C13.9027 1 1 13.9767 1 29.9844C1 45.992 13.9027 58.9688 29.819 58.9688Z" fill="#E1FCDF" stroke="#2EC639" stroke-width="0.7"/>
<path d="M53.7704 46.5358C63.286 46.5358 70.9999 38.7775 70.9999 29.2073C70.9999 19.6371 63.286 11.8788 53.7704 11.8788C44.2547 11.8788 36.5408 19.6371 36.5408 29.2073C36.5408 38.7775 44.2547 46.5358 53.7704 46.5358Z" fill="#2EC639" stroke="#2EC639" stroke-width="0.7"/>
</svg>
