<svg width="76" height="53" viewBox="0 0 76 53" fill="none" xmlns="http://www.w3.org/2000/svg">
<path fill-rule="evenodd" clip-rule="evenodd" d="M52.4562 11.0788H65.8494C66.2763 11.0788 66.6666 11.3145 66.8576 11.6877L74.8809 27.3689C74.9592 27.5218 74.9999 27.6905 74.9999 27.8615V43.0226C74.9999 43.631 74.4953 44.1241 73.8728 44.1241H52.4562V11.0788Z" fill="#E1FCDF" stroke="#2EC639" stroke-width="0.7"/>
<path fill-rule="evenodd" clip-rule="evenodd" d="M52.0616 44.2894V2.81749C52.0616 1.81372 51.2289 1 50.2018 1H3.0853C1.93362 1 1 1.91235 1 3.0378V42.4719C1 43.4757 1.83269 44.2894 2.85986 44.2894H52.0616Z" fill="#2EC639" stroke="#2EC639" stroke-width="0.7"/>
<path d="M16.9497 52C21.4007 52 25.009 48.4739 25.009 44.1242C25.009 39.7745 21.4007 36.2484 16.9497 36.2484C12.4986 36.2484 8.89026 39.7745 8.89026 44.1242C8.89026 48.4739 12.4986 52 16.9497 52Z" fill="white" stroke="#2EC639" stroke-width="0.7"/>
<path d="M58.6557 52C63.1068 52 66.7151 48.4739 66.7151 44.1242C66.7151 39.7745 63.1068 36.2484 58.6557 36.2484C54.2046 36.2484 50.5963 39.7745 50.5963 44.1242C50.5963 48.4739 54.2046 52 58.6557 52Z" fill="white" stroke="#2EC639" stroke-width="0.7"/>
<path d="M16.9498 46.3273C18.1949 46.3273 19.2042 45.3409 19.2042 44.1242C19.2042 42.9075 18.1949 41.9212 16.9498 41.9212C15.7048 41.9212 14.6954 42.9075 14.6954 44.1242C14.6954 45.3409 15.7048 46.3273 16.9498 46.3273Z" fill="#2EC639" stroke="#2EC639"/>
<path d="M58.6556 46.3273C59.9007 46.3273 60.91 45.3409 60.91 44.1242C60.91 42.9075 59.9007 41.9212 58.6556 41.9212C57.4106 41.9212 56.4012 42.9075 56.4012 44.1242C56.4012 45.3409 57.4106 46.3273 58.6556 46.3273Z" fill="#2EC639" stroke="#2EC639"/>
<path fill-rule="evenodd" clip-rule="evenodd" d="M56.965 16.5864H63.0314C63.4584 16.5864 63.8487 16.8222 64.0396 17.1953L68.5484 26.0074C68.8268 26.5515 68.6011 27.2132 68.0443 27.4852C67.8878 27.5617 67.7152 27.6015 67.5402 27.6015H56.965C56.3424 27.6015 55.8378 27.1084 55.8378 26.5V17.6879C55.8378 17.0796 56.3424 16.5864 56.965 16.5864Z" fill="white" stroke="#2EC639" stroke-width="0.7"/>
</svg>
