<svg width="78" height="67" viewBox="0 0 78 67" fill="none" xmlns="http://www.w3.org/2000/svg">
<path d="M71.0625 17.8519H5.75V66H71.0625V17.8519Z" fill="#E1FCDF"/>
<path d="M2.1875 66H73.4375" stroke="#2EC639" stroke-width="0.7" stroke-linecap="round"/>
<path d="M5.75 21.463V66" stroke="#2EC639" stroke-width="0.7"/>
<path d="M71.0625 21.463V66" stroke="#2EC639" stroke-width="0.7"/>
<path d="M46.125 21.463C45.6016 25.5368 42.3406 28.6852 38.4062 28.6852C34.4718 28.6852 31.2109 25.5368 30.6875 21.463H46.125Z" fill="#2EC639"/>
<path d="M61.5625 21.463C61.0391 25.5368 57.7781 28.6852 53.8438 28.6852C49.9093 28.6852 46.6484 25.5368 46.125 21.463H61.5625Z" fill="#2EC639"/>
<path d="M75.8127 21.463C75.3296 25.5368 72.3195 28.6852 68.6877 28.6852C65.0559 28.6852 62.0458 25.5368 61.5627 21.463H75.8127Z" fill="#2EC639"/>
<path d="M30.6875 21.463C30.1641 25.5368 26.9031 28.6852 22.9688 28.6852C19.0344 28.6852 15.7734 25.5368 15.25 21.463H30.6875Z" fill="#2EC639"/>
<path d="M15.25 21.463C14.7669 25.5368 11.7567 28.6852 8.125 28.6852C4.49329 28.6852 1.4831 25.5368 1 21.463H15.25Z" fill="#2EC639"/>
<path fill-rule="evenodd" clip-rule="evenodd" d="M1 21.463H77L68.2191 3.66156C67.4145 2.03038 65.7698 1 63.9706 1H15.0682C13.3474 1 11.7612 1.94338 10.9217 3.46605L1 21.463Z" fill="#2EC639" stroke="#2EC639"/>
<path d="M63.3438 37.713H46.7188V65.3981H63.3438V37.713Z" fill="#2EC639" stroke="#2EC639"/>
<path opacity="0.672642" d="M62.1562 56.9722H47.9062V64.1945H62.1562V56.9722Z" fill="#E1FCDF" stroke="#2EC639"/>
</svg>
