<?xml version="1.0" encoding="utf-8"?>
<!-- Generator: Adobe Illustrator 23.0.3, SVG Export Plug-In . SVG Version: 6.00 Build 0)  -->
<svg version="1.1" id="Layer_1" xmlns="http://www.w3.org/2000/svg" xmlns:xlink="http://www.w3.org/1999/xlink" x="0px" y="0px"
	 viewBox="0 0 595.3 841.9" style="enable-background:new 0 0 595.3 841.9;" xml:space="preserve">
<style type="text/css">
	.st0{fill:#534FDB;}
</style>
<g>
	<path class="st0" d="M340,635.9c-14.6-5.5-23.9-17.4-33.3-28.6c-8.8-10.4-6-26.7,4.2-36.8c33.2-32.8,66.3-65.7,99.4-98.5
		c1.2-1.2,3-2.1,3.3-4.3c-2-1.4-4.2-0.7-6.3-0.7c-107.8,0-215.6,0-323.5,0c-13.6,0-23.8-5.3-29.6-18.1c-1.2-2.6-2-5.4-2-8.2
		c-0.2-9.5-0.8-19.1,0.1-28.5c1.5-15.6,13.2-25.4,28.8-25.4c107.8,0,215.6,0,323.5-0.1c2.4,0,5.9,1.4,6.9-1c1-2.3-2.4-4-4.1-5.6
		c-31.7-31.9-63.5-63.8-95.3-95.6c-8.1-8.1-12.3-17.3-9.7-28.9c2.4-10.7,25.6-34.7,36.2-37.4c12-3.1,22,0.4,30.2,9.4
		c1.7,1.8,3.4,3.7,5.1,5.5c56,56,111.9,112,168,167.9c5.1,5.1,9.6,10.5,13,16.9c0,6,0,12,0,18c-4.2,8.3-10.9,14.6-17.4,21.1
		c-56,55.9-111.9,111.8-167.8,167.8c-4.9,4.9-10.2,9-16.8,11.2C348.7,635.9,344.3,635.9,340,635.9z"/>
</g>
</svg>
