<svg id="Layer_1" data-name="Layer 1" xmlns="http://www.w3.org/2000/svg" viewBox="0 0 295.89 286.89"><title>customer</title><path d="M409.85,307a140.41,140.41,0,0,0-59.49-1.24c-35.84,6.91-60.73,27.2-72,62.68-.45,1.41-.82,2.84-1.15,4.27h0a164.1,164.1,0,0,0-4.79,30c-1,16.44,1.41,23.84,4.06,28.65l0,0c5.39,11.62,13.63,16.31,27.95,16.33l68.4.11c1.49,0,3.14.14,4.9.08h53.87c2.87,0,4.61-.14,6.34-.13a111.07,111.07,0,0,0,19-1.63c11.39-1.89,19.44-10.16,20.12-21.47.82-13.83,1.05-27.7-.56-41.51C472.4,348.22,444.05,315.24,409.85,307Z" transform="translate(-272.15 -161.04)"/><path d="M375.72,279.69a59.33,59.33,0,1,0-59.08-59.56A59.09,59.09,0,0,0,375.72,279.69Z" transform="translate(-272.15 -161.04)"/><path d="M568,354.53c-.12-23.57-17.24-44.44-40.33-49-12-2.37-24.15-1.83-36.2-.49a45.76,45.76,0,0,0-21.72,8.65c-2.26,1.62-3.22,3.06-.71,5.22a27,27,0,0,1,2.24,2.52c12.43,13.75,20.29,29.71,24.51,47.79,3.43,14.67,3.49,19.58,3.37,25.63-.06,3.23,1,4.19,4,4.17,14.12-.07,28.25.15,42.37-.12,12.85-.25,22.44-10.47,22.47-23.36,0-8,0,8.72,0,.72C568,369,568,361.78,568,354.53Z" transform="translate(-272.15 -161.04)"/><path d="M503.49,283.87a37.5,37.5,0,1,0-37.25-37.69A37.4,37.4,0,0,0,503.49,283.87Z" transform="translate(-272.15 -161.04)"/></svg>