<?xml version="1.0" encoding="utf-8"?>
<!-- Generator: Adobe Illustrator 23.0.3, SVG Export Plug-In . SVG Version: 6.00 Build 0)  -->
<svg version="1.1" id="Layer_1" xmlns="http://www.w3.org/2000/svg" xmlns:xlink="http://www.w3.org/1999/xlink" x="0px" y="0px"
	 viewBox="0 0 294.8 294.8" style="enable-background:new 0 0 294.8 294.8;" xml:space="preserve">
<title>customer</title>
<path d="M116,134.8H22.6C10.1,134.8,0,124.6,0,112.1V22.6C0,10.1,10.1,0,22.6,0H116c12.5,0,22.6,10.1,22.6,22.6v89.5
	C138.6,124.6,128.5,134.8,116,134.8z"/>
<path d="M272.2,294.8h-93.4c-12.5,0-22.6-10.1-22.6-22.6v-93.4c0-12.5,10.1-22.6,22.6-22.6h93.4c12.5,0,22.6,10.1,22.6,22.6v93.4
	C294.8,284.7,284.7,294.8,272.2,294.8z"/>
<path d="M69.3,294.8L69.3,294.8C31,294.8,0,263.8,0,225.5v0c0-38.3,31-69.3,69.3-69.3h0c38.3,0,69.3,31,69.3,69.3v0
	C138.6,263.8,107.6,294.8,69.3,294.8z"/>
<path d="M212,12.2L162,106c-6.2,11.7,2.2,25.8,15.5,25.8h99.9c13.2,0,21.7-14.1,15.5-25.8l-50-93.8C236.3-0.2,218.6-0.2,212,12.2z"
	/>
</svg>
