<?xml version="1.0" encoding="utf-8"?>
<!-- Generator: Adobe Illustrator 23.0.3, SVG Export Plug-In . SVG Version: 6.00 Build 0)  -->
<svg version="1.1" id="Layer_1" xmlns="http://www.w3.org/2000/svg" xmlns:xlink="http://www.w3.org/1999/xlink" x="0px" y="0px"
	 viewBox="0 0 36 30" style="enable-background:new 0 0 36 30;" xml:space="preserve">
<style type="text/css">
	.st0{fill:#89A5BB;}
</style>
<path class="st0" d="M35.4,16.5c-4.3,4.3-8.6,8.6-12.8,12.8c-0.2,0.2-0.4,0.4-0.7,0.5c-0.3,0.1-0.5,0.2-0.8,0.2
	c-0.3,0-0.6-0.1-0.8-0.2c-0.3-0.1-0.5-0.3-0.7-0.5c-0.3-0.3-0.6-0.6-0.9-0.9c-0.3-0.2-0.5-0.4-0.6-0.7s-0.2-0.6-0.2-0.9
	c0-0.3,0.1-0.6,0.2-0.9c0.1-0.3,0.3-0.5,0.6-0.7c2.4-2.3,4.7-4.7,7.1-7c0.1-0.1,0.2-0.1,0.2-0.3h-0.4c-7.8,0-15.6,0-23.4,0
	c-0.3,0-0.6,0-0.8-0.1c-0.3-0.1-0.5-0.3-0.7-0.5c-0.2-0.2-0.4-0.4-0.5-0.7C0,16.3,0,16,0,15.7c0-0.5,0-1,0-1.5c0-0.3,0-0.5,0.1-0.8
	c0.1-0.3,0.3-0.5,0.4-0.7c0.2-0.2,0.4-0.3,0.7-0.4c0.3-0.1,0.5-0.1,0.8-0.1c7.8,0,15.6,0,23.5,0c0.1,0,0.3,0,0.4-0.1
	c-0.3-0.3-0.6-0.6-0.9-0.9c-2.2-2.2-4.3-4.3-6.5-6.5C18.3,4.5,18.2,4.3,18,4c-0.1-0.3-0.2-0.5-0.2-0.8c0-0.3,0.1-0.6,0.2-0.8
	c0.1-0.3,0.3-0.5,0.5-0.7c0.3-0.3,0.6-0.6,0.9-0.9c0.2-0.2,0.4-0.5,0.7-0.6C20.4,0.1,20.7,0,21.1,0c0.3,0,0.6,0.1,0.9,0.2
	c0.3,0.1,0.5,0.3,0.7,0.6C26.9,5,31,9.1,35.2,13.3c0.4,0.3,0.6,0.7,0.8,1.2v1C35.9,15.9,35.7,16.2,35.4,16.5z"/>
</svg>
