<?xml version="1.0" encoding="utf-8"?>
<!-- Generator: Adobe Illustrator 23.0.3, SVG Export Plug-In . SVG Version: 6.00 Build 0)  -->
<svg version="1.1" xmlns="http://www.w3.org/2000/svg" xmlns:xlink="http://www.w3.org/1999/xlink" x="0px" y="0px"
	 viewBox="0 0 88 88" style="enable-background:new 0 0 88 88;" xml:space="preserve">
<style type="text/css">
	.st0{display:none;}
	.st1{display:inline;fill:#89A5BB;}
	.st2{display:inline;}
	.st3{fill:#89A5BB;}
</style>
<g id="Facebook" class="st0">
	<path class="st1" d="M88,44C88,19.7,68.3,0,44,0C19.7,0,0,19.7,0,44c0,21.96,16.09,40.16,37.13,43.47V56.72H25.95V44h11.17v-9.7
		c0-11.03,6.57-17.12,16.62-17.12c4.81,0,9.85,0.86,9.85,0.86v10.83h-5.55c-5.46,0-7.17,3.39-7.17,6.87V44h12.2l-1.95,12.72H50.87
		v30.75C71.91,84.17,88,65.97,88,44z"/>
</g>
<g id="Email" class="st0">
	<g class="st2">
		<path class="st3" d="M11.91,33.06c3.77,2.63,25.62,17.89,25.62,17.89s2.96,2.17,6.47,2.17s6.47-2.17,6.47-2.17
			s21.86-15.26,25.63-17.89s12.53-7.39,11.87-16.02C87.3,8.42,77.51,8.98,77.51,8.98H44H10.49c0,0-9.79-0.56-10.45,8.07
			C-0.63,25.66,8.14,30.43,11.91,33.06z"/>
		<path class="st3" d="M87.98,69.7c0,0,0-35.18,0-36.68c0-1.5-1.67,0-1.67,0s-31.6,23.01-35.91,24.7C46.09,59.41,44,59.3,44,59.3
			s-2.09,0.11-6.4-1.58c-4.31-1.69-35.91-24.7-35.91-24.7s-1.67-1.5-1.67,0c0,1.5,0,36.68,0,36.68s-0.95,9.32,10.33,9.32
			c11.28,0,33.65,0.01,33.65,0.01s22.37-0.01,33.65-0.01C88.93,79.02,87.98,69.7,87.98,69.7z"/>
	</g>
</g>
<g id="Line" class="st0">
	<g class="st2">
		<path class="st3" d="M42.43,87.22c-0.48,0-0.97,0-1.45,0c-0.53-0.18-0.76-0.59-0.92-1.1c-0.22-0.69,0-1.36,0.09-2.02
			c0.28-2.06,0.76-4.11,0.66-6.21c-0.05-1.18-0.49-2.1-1.56-2.74c-1.27-0.75-2.67-0.94-4.08-1.16c-4.53-0.72-8.89-2.01-13.05-3.93
			c-6.03-2.79-11.28-6.63-15.41-11.89c-2.59-3.31-4.51-6.97-5.68-11.02C0.51,45.3,0.22,43.42,0,41.53c0-1.65,0-3.3,0-4.96
			c0.11-0.89,0.19-1.8,0.35-2.68c1.14-6.22,4.03-11.57,8.26-16.2c2.4-2.62,5.13-4.85,8.13-6.77c3.88-2.49,8.07-4.3,12.49-5.6
			c3.83-1.12,7.74-1.8,11.72-1.99C44.3,3.16,47.66,3.21,51,3.68c2.66,0.37,5.3,0.9,7.88,1.66c4.66,1.37,9.05,3.32,13.08,6.03
			c3.51,2.35,6.63,5.14,9.25,8.48c2.71,3.46,4.71,7.27,5.87,11.52c0.47,1.71,0.75,3.45,0.92,5.21c0,1.65,0,3.3,0,4.96
			c-0.12,0.87-0.21,1.75-0.36,2.62c-0.73,4.07-2.35,7.79-4.63,11.22c-2.32,3.5-5.1,6.6-8.15,9.48c-1.69,1.6-3.44,3.14-5.23,4.63
			c-3.99,3.31-8.17,6.36-12.45,9.29c-3.25,2.22-6.57,4.34-9.99,6.29C45.67,85.92,44.16,86.82,42.43,87.22z M39.21,39.67
			c0,2.94,0,5.88,0,8.82c0,1.26,1.37,2.37,2.6,2.14c1.22-0.23,1.89-1.03,1.89-2.27c0-3.34,0-6.69,0.01-10.03
			c0-0.23-0.12-0.58,0.11-0.67c0.31-0.12,0.39,0.29,0.53,0.47c0.6,0.78,1.16,1.59,1.74,2.39c2.21,3.06,4.43,6.12,6.64,9.18
			c0.49,0.67,1.18,1.02,1.98,0.92c1.35-0.17,2.05-1.07,2.05-2.46c0-2.88,0-5.76,0-8.64c0-2.84,0-5.68,0-8.52
			c0-0.97-0.55-1.82-1.33-2.11c-1.56-0.58-3.03,0.44-3.04,2.12c-0.01,3.34,0,6.69-0.01,10.03c0,0.17,0.08,0.41-0.11,0.49
			c-0.21,0.08-0.28-0.17-0.38-0.31c-2.15-2.86-4.3-5.72-6.45-8.58c-0.76-1.01-1.51-2.03-2.27-3.04c-0.83-1.11-2.59-1.35-3.54,0.01
			c-0.29,0.41-0.42,0.85-0.42,1.35C39.21,33.87,39.21,36.77,39.21,39.67z M66.7,28.75c-1.47,0-2.94-0.01-4.41,0
			c-1.23,0.01-2.12,0.89-2.16,2.12c-0.01,0.26,0,0.52,0,0.78c0,5.54,0,11.08,0,16.62c0,1.39,0.86,2.36,2.19,2.37
			c2.9,0.03,5.8,0.04,8.7,0c1.7-0.02,2.65-1.71,1.93-3.24c-0.47-0.99-1.28-1.35-2.29-1.36c-1.81-0.02-3.63-0.03-5.44,0
			c-0.56,0.01-0.74-0.19-0.72-0.73c0.03-0.88,0.04-1.77,0-2.66c-0.03-0.57,0.21-0.72,0.74-0.71c1.87,0.02,3.75,0.02,5.62,0.01
			c1.34-0.01,2.37-1.07,2.35-2.4c-0.02-1.22-0.97-2.11-2.29-2.11c-1.89-0.01-3.79-0.01-5.68,0c-0.54,0-0.76-0.19-0.74-0.75
			c0.03-0.95,0.01-1.89,0.01-2.84c0-0.78,0.05-0.83,0.82-0.83c1.91-0.01,3.83-0.05,5.74,0.01c1.25,0.04,2.14-1.15,2.14-2.15
			c0-1.19-0.93-2.12-2.15-2.13C69.6,28.75,68.15,28.76,66.7,28.75z M15.76,39.71c0,2.84,0.04,5.68-0.02,8.51
			c-0.02,1.34,1.03,2.41,2.38,2.42c2.88,0.03,5.76,0.02,8.64,0c0.77-0.01,1.46-0.29,1.87-1.01c0.95-1.64-0.15-3.56-2.08-3.59
			c-1.75-0.03-3.5-0.01-5.25-0.01c-1.04,0-1.04,0-1.04-1.06c0-4.71,0-9.42,0-14.13c0-0.69-0.26-1.25-0.8-1.66
			c-0.77-0.59-1.62-0.59-2.45-0.19c-0.85,0.4-1.27,1.12-1.26,2.09C15.77,33.96,15.76,36.83,15.76,39.71z M31.24,39.65
			c0,2.9,0,5.8,0,8.69c0,1.03,0.56,1.77,1.55,2.14c0.96,0.35,1.9,0.1,2.55-0.68c0.46-0.57,0.51-1.26,0.51-1.94
			c0.01-3.06,0.01-6.12,0.01-9.18c0-2.4,0.02-4.79-0.01-7.19c-0.01-0.91-0.1-1.83-0.98-2.4c-0.78-0.5-1.63-0.52-2.41-0.09
			c-0.79,0.44-1.24,1.14-1.23,2.12C31.25,33.97,31.24,36.81,31.24,39.65z"/>
	</g>
</g>
<g id="Layer_4">
	<g>
		<path class="st3" d="M55.12,76.89c-6.96,0-13.92,0-20.88,0c-0.31-0.04-0.62-0.1-0.93-0.11c-3.27-0.08-6.55-0.09-9.82-0.22
			c-3.81-0.16-7.62-0.26-11.41-0.81C6.95,75,3.51,72.35,2.02,67.29c-0.76-2.58-1.19-5.21-1.37-7.89c-0.14-2.04-0.31-4.08-0.47-6.12
			c0-6.22,0-12.44,0-18.66c0.16-2.01,0.33-4.03,0.47-6.04c0.23-3.29,0.73-6.52,2.03-9.57c1.62-3.8,4.53-5.98,8.56-6.7
			c2.42-0.43,4.88-0.5,7.32-0.62c6.86-0.32,13.73-0.55,20.6-0.56c7.98-0.01,15.96-0.02,23.94,0.32c4.21,0.18,8.43,0.27,12.63,0.72
			c4.68,0.5,8.02,2.85,9.77,7.32c1.2,3.06,1.64,6.27,1.86,9.53c0.15,2.16,0.31,4.32,0.47,6.47c0,5.71,0,11.41,0,17.12
			c-0.16,2.16-0.32,4.31-0.47,6.47c-0.21,3.08-0.62,6.12-1.69,9.04c-0.71,1.93-1.71,3.64-3.28,5.02c-2.37,2.07-5.2,2.74-8.21,2.93
			c-5.89,0.37-11.78,0.67-17.68,0.73C56.03,76.78,55.57,76.75,55.12,76.89z M33.1,44.05c0,5.08,0,10.16,0,15.23
			c0,0.93,0.09,0.99,0.89,0.51c8.49-5.09,16.98-10.18,25.46-15.28c0.78-0.47,0.78-0.52,0.02-0.98
			c-8.49-5.09-16.97-10.19-25.46-15.28c-0.84-0.51-0.91-0.46-0.91,0.55C33.1,33.9,33.1,38.98,33.1,44.05z"/>
	</g>
</g>
</svg>
