<?xml version="1.0" encoding="utf-8"?>
<!-- Generator: Adobe Illustrator 23.0.3, SVG Export Plug-In . SVG Version: 6.00 Build 0)  -->
<svg version="1.1" xmlns="http://www.w3.org/2000/svg" xmlns:xlink="http://www.w3.org/1999/xlink" x="0px" y="0px"
	 viewBox="0 0 88 88" style="enable-background:new 0 0 88 88;" xml:space="preserve">
<style type="text/css">
	.st0{display:none;}
	.st1{display:inline;fill:#89A5BB;}
	.st2{fill:#89A5BB;}
</style>
<g id="Facebook" class="st0">
	<path class="st1" d="M88,44C88,19.7,68.3,0,44,0C19.7,0,0,19.7,0,44c0,21.96,16.09,40.16,37.13,43.47V56.72H25.95V44h11.17v-9.7
		c0-11.03,6.57-17.12,16.62-17.12c4.81,0,9.85,0.86,9.85,0.86v10.83h-5.55c-5.46,0-7.17,3.39-7.17,6.87V44h12.2l-1.95,12.72H50.87
		v30.75C71.91,84.17,88,65.97,88,44z"/>
</g>
<g id="Email">
	<g>
		<path class="st2" d="M11.91,33.06c3.77,2.63,25.62,17.89,25.62,17.89s2.96,2.17,6.47,2.17s6.47-2.17,6.47-2.17
			s21.86-15.26,25.63-17.89s12.53-7.39,11.87-16.02C87.3,8.42,77.51,8.98,77.51,8.98H44H10.49c0,0-9.79-0.56-10.45,8.07
			C-0.63,25.66,8.14,30.43,11.91,33.06z"/>
		<path class="st2" d="M87.98,69.7c0,0,0-35.18,0-36.68c0-1.5-1.67,0-1.67,0s-31.6,23.01-35.91,24.7C46.09,59.41,44,59.3,44,59.3
			s-2.09,0.11-6.4-1.58c-4.31-1.69-35.91-24.7-35.91-24.7s-1.67-1.5-1.67,0c0,1.5,0,36.68,0,36.68s-0.95,9.32,10.33,9.32
			c11.28,0,33.65,0.01,33.65,0.01s22.37-0.01,33.65-0.01C88.93,79.02,87.98,69.7,87.98,69.7z"/>
	</g>
</g>
</svg>
