<?xml version="1.0" encoding="utf-8"?>
<!-- Generator: Adobe Illustrator 23.0.3, SVG Export Plug-In . SVG Version: 6.00 Build 0)  -->
<svg version="1.1"
	 id="Layer_1" inkscape:export-filename="G:\Users\suitedoalex\sites\facebook-messenger-logo-0.png" inkscape:export-xdpi="96" inkscape:export-ydpi="96" inkscape:version="0.92.2 (5c3e80d, 2017-08-06)" sodipodi:docname="facebook-messenger-logo.svg" xmlns:cc="http://creativecommons.org/ns#" xmlns:dc="http://purl.org/dc/elements/1.1/" xmlns:inkscape="http://www.inkscape.org/namespaces/inkscape" xmlns:rdf="http://www.w3.org/1999/02/22-rdf-syntax-ns#" xmlns:sodipodi="http://sodipodi.sourceforge.net/DTD/sodipodi-0.dtd" xmlns:svg="http://www.w3.org/2000/svg"
	 xmlns="http://www.w3.org/2000/svg" xmlns:xlink="http://www.w3.org/1999/xlink" x="0px" y="0px" viewBox="0 0 4096 4096"
	 style="enable-background:new 0 0 4096 4096;" xml:space="preserve">
<style type="text/css">
	.st0{fill-rule:evenodd;clip-rule:evenodd;fill:#89A5BB;}
</style>
<sodipodi:namedview  bordercolor="#666666" borderopacity="1" gridtolerance="10" guidetolerance="10" id="namedview13" inkscape:current-layer="Messenger_4_" inkscape:cx="-1123.0973" inkscape:cy="3886.9186" inkscape:pageopacity="0" inkscape:pageshadow="2" inkscape:window-height="837" inkscape:window-maximized="1" inkscape:window-width="1600" inkscape:window-x="-8" inkscape:window-y="-8" inkscape:zoom="0.057617188" objecttolerance="10" pagecolor="#ffffff" showgrid="false">
	</sodipodi:namedview>
<path class="st0" d="M2048,0C894.2,0,0,845.2,0,1986.6c0,597.1,244.8,1113,643.2,1469.5c33.4,30.1,53.6,71.7,55.2,116.6l11.1,364.3
	c3.7,116.2,123.6,191.6,229.9,145l406.3-179.3c34.6-15.2,72.9-18.1,109.2-8.2c186.7,51.5,385.7,78.7,593,78.7
	c1153.8,0,2048-845.2,2048-1986.6S3201.8,0,2048,0z M3277.6,1528.8l-601.2,953.9c-95.6,151.6-300.8,189.6-444.2,82l-478.4-358.9
	c-44.1-33-104.3-32.6-147.9,0.4L959.3,2697c-86.1,65.5-199-37.9-140.9-129.4l601.6-954.4c95.6-151.6,300.8-189.6,444.2-82
	l478.4,358.9c44.1,33,104.3,32.6,147.9-0.4l646.1-490.4C3222.8,1333.9,3335.7,1437.3,3277.6,1528.8z"/>
</svg>
