<?xml version="1.0" encoding="utf-8"?>
<!-- Generator: Adobe Illustrator 23.0.3, SVG Export Plug-In . SVG Version: 6.00 Build 0)  -->
<svg version="1.1" id="Primary_Logo" xmlns="http://www.w3.org/2000/svg" xmlns:xlink="http://www.w3.org/1999/xlink" x="0px"
	 y="0px" viewBox="0 0 474.4 163.6" style="enable-background:new 0 0 474.4 163.6;" xml:space="preserve">
<style type="text/css">
	.st0{fill:#FFFFFF;}
</style>
<title>More-Logo-Primary</title>
<path class="st0" d="M302.4,0"/>
<path class="st0" d="M328.1,0"/>
<path class="st0" d="M302.4,0"/>
<path class="st0" d="M356.6,0.6v24.5h-6.7c-12,0-21.8,9.7-21.8,21.8l0,0v64.4h-11.7c-7.9-0.5-14-7.1-14-14.9V0h25.8v2.7
	c-0.1,2.6,2,4.8,4.6,4.9c1.1,0,2.1-0.4,2.9-1.1c0.1-0.1,0.3-0.2,0.4-0.4C341.7,1.1,349.3-1,356.6,0.6L356.6,0.6z"/>
<path class="st0" d="M279.7,25.1C262.8-0.5,228.4-7.6,202.8,9.2c-14.9,9.8-24.2,26.3-25,44.1v4.6c0.4,10.1,3.5,19.8,9.1,28.2
	c10.3,15.6,27.7,25.1,46.4,25.1c10.8,0,21.4-3.1,30.5-9.1C289.4,85.2,296.6,50.8,279.7,25.1C279.7,25.1,279.7,25.1,279.7,25.1
	L279.7,25.1z M233.3,86.1c-16.8,0-30.5-13.6-30.5-30.5s13.6-30.5,30.5-30.5c16.8,0,30.5,13.6,30.5,30.5c0,0,0,0,0,0
	C263.8,72.4,250.1,86.1,233.3,86.1L233.3,86.1z"/>
<path class="st0" d="M473.9,63.6c4.4-30.4-16.6-58.5-47-63c-19.7-2.9-39.5,5.1-51.8,20.8c-0.9,1.2-1.8,2.4-2.6,3.6
	c-3.6,5.4-6.2,11.5-7.7,17.8c-0.1,0.6-0.3,1.2-0.4,1.7c-1.2,6.2-1.4,12.6-0.5,18.8c0,0,0,0.1,0,0.1c4.4,30.4,32.6,51.4,63,47
	c6.4-0.9,12.5-2.9,18.2-6l0,0c1.5-0.8,3-1.7,4.4-2.6c5.4-3.6,10.2-8.1,14.1-13.4c0.6-0.8,1.2-1.7,1.8-2.5c2.3-3.5,4.2-7.2,5.6-11.1
	h-23.1c-1.9,0.1-3.8,0.6-5.6,1.4c-1.2,0.6-2.4,1.3-3.4,2.2c-12.7,11-32,9.6-43-3.2c-3-3.5-5.1-7.5-6.3-11.9L473.9,63.6z M390.5,44.7
	c6.1-15.7,23.7-23.5,39.4-17.5c8,3.1,14.4,9.4,17.5,17.5H390.5z"/>
<path class="st0" d="M138.5,2.4c-18.4-6.7-38.9,1.3-48,18.6C80.5,1.9,56.9-5.5,37.7,4.6c-3.4,1.8-6.5,4.1-9.2,6.7
	c0,0-0.1,0.1-0.1,0.1l-0.2,0.1l0,0c-0.3,0.2-0.6,0.3-0.9,0.3c-0.7,0-1.3-0.4-1.6-1l0,0l0,0C23.8,4.4,18,0,11.3,0H0v111.2h25.8V46.8
	c0-12,9.8-21.8,21.8-21.8c12,0,21.7,9.7,21.8,21.8v64.3H95V46.8c0-12,9.7-21.8,21.8-21.8c12,0,21.8,9.7,21.8,21.8v64.3h11.9
	c7.8-0.6,13.9-7.1,13.9-15v-57C164.3,22.7,154,8,138.5,2.4z"/>
<path class="st0" d="M25.7,154.5c-2.2,6.9-9.6,10.8-16.5,8.7c-6.9-2.2-10.8-9.6-8.7-16.5s9.6-10.8,16.5-8.7c4.1,1.3,7.4,4.5,8.7,8.7
	h-3.5c-2-5-7.8-7.5-12.8-5.4c-1.2,0.5-2.3,1.2-3.2,2.1c-1.8,1.9-2.8,4.5-2.8,7.1c-0.2,5.3,4,9.8,9.3,9.9c0.1,0,0.3,0,0.4,0
	c3.9,0.1,7.5-2.2,9-5.9L25.7,154.5z"/>
<path class="st0" d="M69,150.4c0-7.2,5.9-13.1,13.1-13c7.2,0,13.1,5.9,13,13.1c0,7.2-5.9,13.1-13.1,13C74.9,163.5,69,157.7,69,150.4
	L69,150.4z M72.4,150.5c0,5.5,4.5,9.9,10,9.9c5.5,0,9.9-4.5,9.9-10c0-5.5-4.5-9.9-10-9.9C76.8,140.6,72.4,145,72.4,150.5L72.4,150.5
	z"/>
<path class="st0" d="M138.5,137.4h3.2v4.6c1.6-2.9,4.6-4.6,7.8-4.6c2.6-0.1,5,0.9,6.8,2.8c0.6,0.8,1.2,1.7,1.6,2.6
	c0.5-1,1.1-1.8,1.8-2.6c1.8-1.8,4.3-2.8,6.8-2.8c2.5-0.1,4.9,0.8,6.7,2.5c2.2,2.2,2.8,4.8,2.8,9.2v14.5h-3.4v-14.4
	c0-2.6-0.4-5-1.8-6.6c-1.2-1.4-3.1-2.2-4.9-2.1c-2.1-0.1-4.2,0.9-5.4,2.6c-1.2,1.8-1.5,3.1-1.5,6v14.5h-3.4v-14.5
	c0.1-2.8-0.3-4.4-1.3-5.9c-1.3-1.7-3.3-2.7-5.4-2.6c-2.1-0.1-4,0.9-5.3,2.5c-1.2,1.7-1.8,3.8-1.7,6v14.5h-3.4V137.4z"/>
<path class="st0" d="M208.4,137.4h3.2v4.6c1.6-2.9,4.6-4.6,7.8-4.6c2.6-0.1,5,0.9,6.8,2.8c0.6,0.8,1.2,1.7,1.6,2.6
	c0.5-1,1.1-1.8,1.8-2.6c1.8-1.8,4.3-2.8,6.8-2.8c2.5-0.1,4.9,0.8,6.7,2.5c2.2,2.2,2.8,4.8,2.8,9.2v14.5h-3.4v-14.4
	c0-2.6-0.4-5-1.8-6.6c-1.2-1.4-3.1-2.2-4.9-2.1c-2.1-0.1-4.2,0.9-5.4,2.6c-1.2,1.8-1.5,3.1-1.5,6v14.5h-3.4v-14.5
	c0.1-2.8-0.3-4.4-1.3-5.9c-1.3-1.7-3.3-2.7-5.4-2.6c-2.1-0.1-4,0.9-5.3,2.5c-1.2,1.7-1.8,3.8-1.7,6v14.5h-3.4L208.4,137.4z"/>
<path class="st0" d="M281.7,151.4c0.2,5.2,4.5,9.3,9.7,9.2c3.6,0.1,6.9-1.9,8.5-5.1h3.5c-2,4.9-6.8,8.1-12.1,8.1
	c-7.1,0.2-12.9-5.5-13.1-12.5c0-0.2,0-0.3,0-0.5c0.3-7.2,6.3-12.8,13.5-12.5c7.2,0.3,12.8,6.3,12.5,13.5L281.7,151.4z M301,148.7
	c-0.7-5.3-5.5-9-10.8-8.3c-4.4,0.6-7.8,4-8.3,8.3H301z"/>
<path class="st0" d="M336.7,137.4h3.2v4.8c1.8-3.7,5-4.7,7.9-4.8v3.4h-0.3c-4.8,0-7.5,3-7.5,9.3v13.5h-3.4L336.7,137.4z"/>
<path class="st0" d="M405.3,154.5c-2.2,7-9.6,10.8-16.5,8.7s-10.8-9.6-8.7-16.5c2.2-7,9.6-10.8,16.5-8.7c4.1,1.3,7.4,4.5,8.7,8.7
	h-3.5c-2-5-7.8-7.5-12.8-5.4c-1.2,0.5-2.3,1.2-3.2,2.1c-1.8,1.9-2.8,4.5-2.8,7.1c-0.2,5.3,4,9.8,9.3,9.9c0.1,0,0.3,0,0.4,0
	c3.9,0.1,7.5-2.2,9-5.9L405.3,154.5z"/>
<path class="st0" d="M451.8,151.4c0.1,5.2,4.5,9.3,9.7,9.2c3.6,0.1,6.9-1.9,8.5-5.1h3.5c-2,4.9-6.8,8.1-12.1,8.1
	c-7.2,0-13.1-5.9-13.1-13.1c0-7.2,5.9-13.1,13.1-13.1c7-0.2,12.8,5.4,13,12.4c0,0.5,0,1.1-0.1,1.6H451.8z M471,148.7
	c-0.7-5.3-5.5-9-10.8-8.3c-4.4,0.6-7.8,4-8.3,8.3H471z"/>
</svg>
