<svg id="Primary_Logo" data-name="Primary Logo" xmlns="http://www.w3.org/2000/svg" viewBox="0 0 474.43 163.59"><defs><style>.cls-1{fill:#0091ff;}.cls-2{fill:#577083;}</style></defs><title>More-Logo-Primary</title><path class="cls-1" d="M355.29,205.58" transform="translate(-52.9 -205.58)"/><path class="cls-1" d="M381.05,205.58" transform="translate(-52.9 -205.58)"/><path class="cls-1" d="M355.29,205.58" transform="translate(-52.9 -205.58)"/><path class="cls-1" d="M409.47,206.15v24.51h-6.66a21.76,21.76,0,0,0-21.76,21.76v64.35H369.34a15,15,0,0,1-14-14.94V205.58h25.76v2.72a4.76,4.76,0,0,0,4.65,4.86,4.47,4.47,0,0,0,2.93-1.1,3.2,3.2,0,0,0,.39-.36,23.39,23.39,0,0,1,20.45-5.55Z" transform="translate(-52.9 -205.58)"/><path class="cls-1" d="M332.61,230.66a55.54,55.54,0,0,0-101.89,28.25v4.58a55.18,55.18,0,0,0,9.06,28.2,55.56,55.56,0,0,0,46.44,25.06,55.24,55.24,0,0,0,30.46-9.1,55.55,55.55,0,0,0,15.93-77Zm-46.39,61a30.47,30.47,0,1,1,30.46-30.47A30.47,30.47,0,0,1,286.22,291.67Z" transform="translate(-52.9 -205.58)"/><path class="cls-1" d="M526.76,269.17A55.55,55.55,0,0,0,428,227q-1.39,1.77-2.62,3.64a55.87,55.87,0,0,0-7.69,17.83c-.13.58-.26,1.16-.37,1.74a55.74,55.74,0,0,0-.53,18.85.28.28,0,0,0,0,.09,55.56,55.56,0,0,0,81.12,41.05l0,0c1.52-.8,3-1.69,4.42-2.63a55.7,55.7,0,0,0,14.08-13.35c.62-.83,1.2-1.67,1.77-2.53a55.83,55.83,0,0,0,5.62-11.06h-23.1A15,15,0,0,0,495.1,282a15.29,15.29,0,0,0-3.42,2.24,30.47,30.47,0,0,1-49.3-15.11Zm-83.4-18.94a30.47,30.47,0,0,1,56.85,0Z" transform="translate(-52.9 -205.58)"/><path class="cls-1" d="M191.44,208a39.13,39.13,0,0,0-48,18.6,39.12,39.12,0,0,0-62.06-9.72.91.91,0,0,1-.1.1l-.16.11h0a1.76,1.76,0,0,1-.94.28,1.72,1.72,0,0,1-1.58-1h0v0A15.07,15.07,0,0,0,64.2,205.58H52.9V316.77H78.65V252.42a21.76,21.76,0,0,1,43.52,0v64.35h25.75V252.42a21.76,21.76,0,1,1,43.52,0v64.35h11.89a15,15,0,0,0,13.86-15V244.76A39.09,39.09,0,0,0,191.44,208Z" transform="translate(-52.9 -205.58)"/><path class="cls-2" d="M78.62,360.06a13.18,13.18,0,1,1,0-7.84h-3.5a9.84,9.84,0,0,0-16-3.32,10.19,10.19,0,0,0-2.81,7.15A9.64,9.64,0,0,0,66.08,366a9.35,9.35,0,0,0,9-5.9Z" transform="translate(-52.9 -205.58)"/><path class="cls-2" d="M121.93,356a13.07,13.07,0,1,1,0,.05Zm3.37.1a9.94,9.94,0,1,0,0-.05Z" transform="translate(-52.9 -205.58)"/><path class="cls-2" d="M191.4,343h3.23v4.61a8.87,8.87,0,0,1,7.84-4.61,8.74,8.74,0,0,1,6.77,2.81,12.93,12.93,0,0,1,1.62,2.58,10.92,10.92,0,0,1,1.79-2.63,9.37,9.37,0,0,1,6.82-2.76,9.16,9.16,0,0,1,6.69,2.49c2.16,2.16,2.81,4.84,2.81,9.22v14.47h-3.41V354.8c0-2.62-.42-5-1.84-6.59a5.88,5.88,0,0,0-4.94-2.07,6.49,6.49,0,0,0-5.44,2.58c-1.24,1.75-1.47,3.13-1.47,5.95v14.47h-3.41V354.67c.09-2.77-.32-4.38-1.29-5.9a6.39,6.39,0,0,0-5.44-2.63,6.13,6.13,0,0,0-5.26,2.53,9.62,9.62,0,0,0-1.66,5.95v14.52H191.4Z" transform="translate(-52.9 -205.58)"/><path class="cls-2" d="M261.31,343h3.23v4.61a8.87,8.87,0,0,1,7.84-4.61,8.74,8.74,0,0,1,6.77,2.81,12.35,12.35,0,0,1,1.61,2.58,11.32,11.32,0,0,1,1.8-2.63,9.37,9.37,0,0,1,6.82-2.76,9.16,9.16,0,0,1,6.69,2.49c2.16,2.16,2.81,4.84,2.81,9.22v14.47h-3.41V354.8c0-2.62-.42-5-1.84-6.59a5.88,5.88,0,0,0-4.94-2.07,6.49,6.49,0,0,0-5.44,2.58c-1.24,1.75-1.47,3.13-1.47,5.95v14.47h-3.41V354.67c.09-2.77-.32-4.38-1.29-5.9a6.41,6.41,0,0,0-5.44-2.63,6.13,6.13,0,0,0-5.26,2.53,9.62,9.62,0,0,0-1.66,5.95v14.52h-3.41Z" transform="translate(-52.9 -205.58)"/><path class="cls-2" d="M334.63,357a9.45,9.45,0,0,0,9.68,9.17,9.16,9.16,0,0,0,8.53-5.12h3.55a12.91,12.91,0,0,1-12.08,8.07,12.81,12.81,0,0,1-13.09-13,13,13,0,1,1,26,.92Zm19.23-2.72a9.67,9.67,0,0,0-19.18,0Z" transform="translate(-52.9 -205.58)"/><path class="cls-2" d="M389.62,343h3.23v4.75c1.79-3.69,5-4.66,7.93-4.75v3.36h-.33c-4.79,0-7.47,3-7.47,9.31v13.51h-3.36Z" transform="translate(-52.9 -205.58)"/><path class="cls-2" d="M458.19,360.08a13.19,13.19,0,1,1,0-7.83h-3.5a9.84,9.84,0,0,0-16-3.32,10.17,10.17,0,0,0-2.81,7.14,9.63,9.63,0,0,0,9.77,9.91,9.34,9.34,0,0,0,9-5.9Z" transform="translate(-52.9 -205.58)"/><path class="cls-2" d="M504.69,357a9.43,9.43,0,0,0,9.67,9.17,9.16,9.16,0,0,0,8.53-5.12h3.55a12.91,12.91,0,0,1-12.08,8.07,13.09,13.09,0,0,1,0-26.18A12.7,12.7,0,0,1,527.27,357Zm19.22-2.72a9.67,9.67,0,0,0-19.18,0Z" transform="translate(-52.9 -205.58)"/></svg>