<svg id="Layer_1" data-name="Layer 1" xmlns="http://www.w3.org/2000/svg" viewBox="0 0 384.43 384.41"><title>advertising</title><path d="M229.5,332v-8.25c1.53-11.73,6.91-21.29,15.24-29.72q52.71-53.35,105-107.09,32.79-33.48,65.58-67c9.18-9.39,19.95-14.22,33.41-14.12,45.5.31,91,.11,136.5.12,16.74,0,28.52,11.79,28.53,28.53,0,45.25-.23,90.5.14,135.75.11,14-4.88,25.12-14.68,34.7q-85.92,84-171.66,168.25c-8.84,8.71-18.43,15.21-30.84,17.06h-9c-12.85-1.82-22.68-8.65-31.66-17.72q-54.15-54.72-108.86-108.87C238.17,354.71,231.29,344.89,229.5,332ZM533.58,217.77c17.2,0,31.66-14.44,31.57-31.48-.1-17.33-14.78-31.89-31.91-31.65a31.57,31.57,0,0,0,.34,63.13Z" transform="translate(-229.5 -105.86)"/></svg>