<svg id="Layer_1" data-name="Layer 1" xmlns="http://www.w3.org/2000/svg" viewBox="0 0 202.32 157.34"><defs><style>.cls-1{fill:#f9813d;}</style></defs><title>Correct-Orange</title><path class="cls-1" d="M296.08,67.94c-1,3.82-3.21,6.79-6,9.56q-59,58.89-117.93,117.88c-4,4-8.78,4.87-13.26,2.4a12,12,0,0,1-2.62-2.08q-28.82-28.81-57.61-57.64c-6.61-6.63-6.55-16,0-22.73,2.21-2.24,4.44-4.48,6.69-6.69,6.68-6.58,16.06-6.63,22.74,0,7.68,7.58,15.27,15.24,22.9,22.87,3.76,3.77,7.61,7.46,11.26,11.34,1.42,1.51,2.19,1.32,3.56-.06q47.38-47.49,94.85-94.91c2.79-2.8,5.81-5.1,9.86-5.77A15.07,15.07,0,0,1,283.89,46c2.85,2.62,5.52,5.45,8.25,8.21a17.46,17.46,0,0,1,3.94,7.41Z" transform="translate(-93.76 -41.83)"/></svg>