<svg width="19" height="20" viewBox="0 0 19 20" fill="none" xmlns="http://www.w3.org/2000/svg">
<path d="M17.2331 12.6486C16.9763 12.6486 16.7681 12.8567 16.7681 13.1136V17.2424C16.7672 18.0126 16.1432 18.6368 15.373 18.6375H2.32509C1.55491 18.6368 0.930945 18.0126 0.930037 17.2424V5.12453C0.930945 4.35453 1.55491 3.73038 2.32509 3.72948H6.45395C6.7108 3.72948 6.91896 3.52131 6.91896 3.26446C6.91896 3.00779 6.7108 2.79944 6.45395 2.79944H2.32509C1.04157 2.80089 0.00145318 3.84101 0 5.12453V17.2426C0.00145318 18.5261 1.04157 19.5663 2.32509 19.5677H15.373C16.6566 19.5663 17.6967 18.5261 17.6981 17.2426V13.1136C17.6981 12.8567 17.49 12.6486 17.2331 12.6486Z" fill="#2FC639"/>
<path d="M17.5139 1.60292C16.6967 0.785682 15.3717 0.785682 14.5545 1.60292L6.25829 9.89913C6.20144 9.95599 6.16039 10.0265 6.13895 10.1039L5.04797 14.0425C5.00311 14.204 5.0487 14.3769 5.16714 14.4956C5.28575 14.614 5.45868 14.6596 5.62017 14.6149L9.55883 13.5237C9.63622 13.5023 9.7067 13.4612 9.76355 13.4044L18.0596 5.10799C18.8756 4.29021 18.8756 2.96636 18.0596 2.14859L17.5139 1.60292ZM7.27153 10.2014L14.0613 3.4114L16.2511 5.60117L9.46111 12.3912L7.27153 10.2014ZM6.83412 11.0791L8.58357 12.8287L6.16366 13.4992L6.83412 11.0791ZM17.402 4.45043L16.9088 4.9436L14.7189 2.75365L15.2123 2.26048C15.6662 1.80654 16.4022 1.80654 16.8562 2.26048L17.402 2.80615C17.8552 3.26063 17.8552 3.99613 17.402 4.45043Z" fill="#2FC639"/>
</svg>
