<svg width="19" height="20" viewBox="0 0 19 20" fill="none" xmlns="http://www.w3.org/2000/svg">
<path d="M16.8431 17.2425V17.2424V13.1136C16.8431 12.8982 17.0177 12.7236 17.2331 12.7236C17.4485 12.7236 17.6231 12.8982 17.6231 13.1136V17.2425C17.6217 18.4847 16.6151 19.4913 15.373 19.4927H2.32518C1.08301 19.4913 0.0764063 18.4847 0.075 17.2425L0.075 5.12458C0.0764275 3.88243 1.08302 2.87584 2.32518 2.87444L6.45395 2.87444C6.66936 2.87444 6.84397 3.04919 6.84397 3.26446C6.84397 3.47989 6.66937 3.65448 6.45395 3.65448L2.32509 3.65448L2.325 3.65448C1.51346 3.65543 0.855994 4.31309 0.855037 5.12444V5.12453L0.855037 17.2424L0.855037 17.2425C0.855994 18.054 1.51345 18.7117 2.32502 18.7125H2.32509H15.373H15.3731C16.1847 18.7117 16.8421 18.054 16.8431 17.2425Z" fill="#484B52" stroke="white" stroke-width="0.15"/>
<path d="M5.12024 14.0626L5.12025 14.0625L6.21123 10.1239C6.22921 10.059 6.26364 9.99986 6.31133 9.95217L14.6075 1.65595C15.3955 0.868004 16.6729 0.868004 17.4609 1.65595L18.0065 2.20156C18.7932 2.99006 18.7932 4.26651 18.0065 5.05502L9.71052 13.3514C9.66283 13.399 9.60373 13.4335 9.53881 13.4515L5.60016 14.5426C5.60016 14.5426 5.60015 14.5426 5.60014 14.5426C5.46475 14.5801 5.31974 14.5419 5.22021 14.4426C5.12082 14.343 5.08262 14.198 5.12024 14.0626ZM7.21849 10.1484L7.16546 10.2014L7.21849 10.2544L9.40807 12.4442L9.46111 12.4972L9.51414 12.4442L16.3041 5.6542L16.3572 5.60117L16.3041 5.54813L14.1144 3.35837L14.0613 3.30533L14.0083 3.35837L7.21849 10.1484ZM6.88715 11.0261L6.79619 10.9351L6.76184 11.0591L6.09138 13.4792L6.05601 13.6069L6.18368 13.5715L8.60359 12.901L8.72756 12.8667L8.6366 12.7757L6.88715 11.0261ZM17.4551 4.50346L17.4551 4.5034C17.9375 4.01981 17.9375 3.23694 17.4551 2.75319L17.455 2.75311L16.9092 2.20745C16.9092 2.20744 16.9092 2.20744 16.9092 2.20744C16.426 1.72422 15.6425 1.72422 15.1592 2.20744C15.1592 2.20744 15.1592 2.20744 15.1592 2.20745L14.6659 2.70061L14.6128 2.75364L14.6659 2.80669L16.8558 4.99663L16.9088 5.04967L16.9619 4.99663L17.4551 4.50346Z" fill="#484B52" stroke="white" stroke-width="0.15"/>
</svg>
