<svg width="23" height="23" viewBox="0 0 23 23" fill="none" xmlns="http://www.w3.org/2000/svg">
<path d="M20.0338 3.50077L20.1816 3.47473L20.0338 3.50078L22.8421 19.427C22.8421 19.427 22.8421 19.427 22.8421 19.427C22.8662 19.5638 22.835 19.7046 22.7553 19.8184C22.6756 19.9322 22.554 20.0097 22.4172 20.0338L22.4171 20.0338L6.49094 22.842L6.49085 22.8421C6.46074 22.8474 6.43032 22.85 6.40001 22.85C6.2932 22.85 6.1882 22.8173 6.09954 22.7553L6.0135 22.8781L6.09954 22.7553C5.98572 22.6756 5.90823 22.5539 5.8841 22.4171L5.10771 18.0139L5.08947 17.9105L4.98604 17.8922L0.582882 17.1158L0.582851 17.1158C0.446034 17.0917 0.324381 17.0142 0.244746 16.9005L0.244728 16.9004C0.165051 16.7867 0.133854 16.6459 0.157946 16.509C0.157948 16.509 0.157949 16.509 0.157951 16.509L2.96615 0.582834L2.96615 0.582823C2.99035 0.445554 3.0683 0.323576 3.1827 0.243905C3.29713 0.164292 3.43865 0.133539 3.57582 0.158428C3.57584 0.158431 3.57586 0.158435 3.57588 0.158438L19.4618 3.0491L19.4617 3.04974L19.6116 3.07704C19.8217 3.11532 19.9948 3.27945 20.0338 3.50077ZM4.05485 1.31048L3.90647 1.28348L3.88028 1.43201L3.11216 5.78818L3.05688 6.10164L3.33382 5.94473C3.38513 5.91566 3.44096 5.89466 3.50083 5.88409C3.50084 5.88409 3.50084 5.88409 3.50085 5.88409L15.7227 3.72906L15.7235 3.43376L4.05485 1.31048ZM1.3067 16.0274L1.28065 16.1751L1.42837 16.2011L4.6849 16.7753L4.89586 16.8125L4.85866 16.6016L3.1798 7.08018L2.88436 7.08017L1.3067 16.0274ZM6.79881 21.5716L6.82485 21.7193L6.97258 21.6933L21.5717 19.1191L21.7194 19.093L21.6933 18.9453L19.1191 4.34632L19.0931 4.1986L18.9454 4.22464L4.34632 6.79885L4.1986 6.8249L4.22465 6.97262L6.79881 21.5716Z" fill="#484B52" stroke="white" stroke-width="0.3"/>
<path d="M17.8907 9.88433L17.8907 9.88433L7.27326 11.7565C7.24235 11.7619 7.21165 11.7645 7.18147 11.7646C6.93211 11.7646 6.71114 11.5856 6.66637 11.3316C6.61615 11.0467 6.80641 10.775 7.09129 10.7248L7.0913 10.7248L17.7088 8.85265C17.7088 8.85265 17.7088 8.85265 17.7088 8.85265C17.994 8.80243 18.2654 8.99262 18.3157 9.27752L18.4634 9.25149L18.3157 9.27753C18.3659 9.56242 18.1756 9.83411 17.8907 9.88433Z" fill="#484B52" stroke="white" stroke-width="0.3"/>
<path d="M7.55919 13.3791L7.5592 13.3791L18.1767 11.5069C18.1767 11.5069 18.1767 11.5069 18.1767 11.5069C18.4619 11.4567 18.7333 11.6469 18.7836 11.9319L18.9313 11.9058L18.7836 11.9319C18.8338 12.2168 18.6435 12.4885 18.3586 12.5387L18.3586 12.5387L7.74115 14.4108C7.71019 14.4163 7.67949 14.4189 7.64936 14.4189C7.4 14.4189 7.17904 14.2399 7.13426 13.9859C7.08404 13.701 7.2743 13.4293 7.55919 13.3791Z" fill="#484B52" stroke="white" stroke-width="0.3"/>
<path d="M8.02734 16.0335L8.02733 16.0335C7.74244 16.0837 7.55218 16.3554 7.6024 16.6403C7.6024 16.6403 7.6024 16.6403 7.6024 16.6403M8.02734 16.0335L7.6024 16.6403M8.02734 16.0335L15.1056 14.7854C15.1056 14.7854 15.1056 14.7854 15.1056 14.7854C15.3908 14.7351 15.6622 14.9254 15.7125 15.2103C15.7627 15.4952 15.5724 15.7669 15.2875 15.8171L15.2875 15.8171L8.20929 17.0652M8.02734 16.0335L8.20929 17.0652M7.6024 16.6403C7.64718 16.8943 7.86815 17.0733 8.1175 17.0733C8.14762 17.0733 8.17832 17.0707 8.20929 17.0652M7.6024 16.6403L8.20929 17.0652" fill="#484B52" stroke="white" stroke-width="0.3"/>
</svg>
