<svg width="17" height="16" viewBox="0 0 17 16" fill="none" xmlns="http://www.w3.org/2000/svg">
<path d="M3.72961 0.766724C4.52058 0.766724 5.16408 1.41554 5.16408 2.21304C5.16408 2.69149 5.55024 3.08084 6.02476 3.08084H12.9403C13.6223 3.08084 14.1912 3.65936 14.3174 4.23789H14.9598C15.3918 4.23789 15.7946 4.42476 16.0652 4.76464C16.3357 5.10453 16.437 5.53524 16.3432 5.96075L14.5446 14.1171C14.3995 14.7761 13.8308 15.2299 13.1612 15.2299H1.71734C1.65451 15.2299 1.59283 15.2377 1.53144 15.2299H1.43447C0.643501 15.2299 0 14.5811 0 13.7836V2.21304C0 1.41554 0.643501 0.766724 1.43447 0.766724H3.72961ZM14.9595 4.81671H3.47829C3.09213 4.81671 2.76364 5.09035 2.67987 5.47044L0.889656 13.6014C0.833712 13.8556 0.894246 14.1215 1.05577 14.3248C1.21786 14.5282 1.45885 14.6514 1.71734 14.6514H13.1612C13.5477 14.6514 13.8759 14.3777 13.9596 13.9977L15.7582 5.83C15.8121 5.58441 15.7539 5.32784 15.5978 5.13143C15.4415 4.93531 15.2091 4.81642 14.9595 4.81671Z" fill="#484B52"/>
<path d="M0.545898 2.18187C0.545898 1.70269 0.930618 1.31274 1.40337 1.31274H3.68996C4.16272 1.31274 4.54743 1.70269 4.54743 2.18187C4.54743 2.9806 5.18854 3.63041 5.97655 3.63041H12.8661C13.2282 3.63041 13.536 3.92012 13.6478 4.20983H3.43987C2.77275 4.20983 2.20625 4.66438 2.06162 5.32434L0.545898 12.231V2.18187Z" fill="white"/>
</svg>
