<svg width="17" height="15" viewBox="0 0 17 15" fill="none" xmlns="http://www.w3.org/2000/svg">
<path d="M3.72961 0C4.52058 0 5.16408 0.648819 5.16408 1.44632C5.16408 1.92476 5.55024 2.31411 6.02476 2.31411H12.9403C13.6223 2.31411 14.1912 2.89264 14.3174 3.47117H14.9598C15.3918 3.47117 15.7946 3.65803 16.0652 3.99792C16.3357 4.3378 16.437 4.76852 16.3432 5.19402L14.5446 13.3504C14.3995 14.0093 13.8308 14.4632 13.1612 14.4632H1.71734C1.65451 14.4632 1.59283 14.471 1.53144 14.4632H1.43447C0.643501 14.4632 0 13.8144 0 13.0169V1.44632C0 0.648819 0.643501 0 1.43447 0H3.72961ZM14.9595 4.04998H3.47829C3.09213 4.04998 2.76364 4.32363 2.67987 4.70372L0.889656 12.8346C0.833712 13.0889 0.894246 13.3547 1.05577 13.5581C1.21786 13.7614 1.45885 13.8847 1.71734 13.8847H13.1612C13.5477 13.8847 13.8759 13.611 13.9596 13.2309L15.7582 5.06328C15.8121 4.81769 15.7539 4.56111 15.5978 4.3647C15.4415 4.16858 15.2091 4.0497 14.9595 4.04998Z" fill="#2FC639"/>
<path d="M0.545898 1.41502C0.545898 0.935846 0.930618 0.545898 1.40337 0.545898H3.68996C4.16272 0.545898 4.54743 0.935846 4.54743 1.41502C4.54743 2.21375 5.18854 2.86357 5.97655 2.86357H12.8661C13.2282 2.86357 13.536 3.15327 13.6478 3.44298H3.43987C2.77275 3.44298 2.20625 3.89753 2.06162 4.55749L0.545898 11.4641V1.41502Z" fill="white"/>
</svg>
