<svg width="31" height="19" viewBox="0 0 31 19" fill="none" xmlns="http://www.w3.org/2000/svg">
<path d="M13.7598 17.717L12.3564 16.3135L12.3446 16.3005L0.528641 4.48453C0.361039 4.31693 0.228095 4.11796 0.13739 3.89899C0.0466845 3.68001 -1.506e-07 3.44533 -1.4024e-07 3.20831C-1.29879e-07 2.97129 0.0466846 2.73659 0.13739 2.51761C0.228095 2.29863 0.361039 2.09966 0.528641 1.93207L1.93188 0.528656C2.09948 0.361055 2.29845 0.228096 2.51743 0.13739C2.7364 0.046685 2.9711 1.29871e-07 3.20812 1.40231e-07C3.44514 1.50592e-07 3.67983 0.046685 3.89881 0.13739C4.11779 0.228096 4.31676 0.361055 4.48435 0.528656L15.0366 11.0809L25.5821 0.535585C25.7497 0.367983 25.9486 0.235025 26.1676 0.144319C26.3865 0.0536122 26.6212 0.00692865 26.8582 0.00692866C27.0952 0.00692867 27.3299 0.0536122 27.5489 0.144319C27.7678 0.235025 27.9668 0.367983 28.1344 0.535585L29.5378 1.93881C29.7054 2.10641 29.8383 2.30538 29.929 2.52435C30.0198 2.74333 30.0664 2.97804 30.0664 3.21506C30.0664 3.45208 30.0198 3.68676 29.929 3.90573C29.8383 4.12471 29.7054 4.32368 29.5378 4.49127L16.3121 17.717C15.9736 18.0554 15.5146 18.2455 15.0359 18.2455C14.5573 18.2455 14.0983 18.0554 13.7598 17.717V17.717Z" fill="#577083"/>
</svg>
