<svg width="40" height="40" viewBox="0 0 40 40" fill="none" xmlns="http://www.w3.org/2000/svg">
<path d="M37.2513 16.7526H22.3368V1.83815C22.3368 1.35065 22.1432 0.883108 21.7984 0.538391C21.4537 0.193674 20.9862 1.32602e-05 20.4987 0H18.5906C18.3492 -8.03837e-10 18.1102 0.0475456 17.8872 0.139923C17.6642 0.232301 17.4616 0.367701 17.2909 0.538391C17.1202 0.709081 16.9848 0.911714 16.8925 1.13473C16.8001 1.35774 16.7526 1.59677 16.7526 1.83815V16.7526H1.838C1.35052 16.7527 0.883016 16.9463 0.53833 17.2911C0.193644 17.6358 5.30409e-06 18.1033 2.2039e-09 18.5908V20.4987C-1.1817e-05 20.7401 0.0475152 20.9791 0.139877 21.2021C0.232239 21.4251 0.367625 21.6277 0.5383 21.7984C0.708974 21.9691 0.911595 22.1045 1.1346 22.1969C1.3576 22.2893 1.59662 22.3368 1.838 22.3368H16.7525V37.2515C16.7525 37.739 16.9462 38.2065 17.2909 38.5512C17.6356 38.8959 18.1031 39.0896 18.5906 39.0896H20.4987C20.9862 39.0896 21.4537 38.8959 21.7985 38.5512C22.1432 38.2065 22.3368 37.739 22.3369 37.2515V22.3368H37.2513C37.4927 22.3368 37.7317 22.2893 37.9548 22.1969C38.1778 22.1045 38.3804 21.9691 38.5511 21.7985C38.7218 21.6278 38.8572 21.4251 38.9496 21.2021C39.0419 20.9791 39.0895 20.7401 39.0895 20.4987V18.5908C39.0895 18.1033 38.8958 17.6357 38.5511 17.291C38.2064 16.9463 37.7388 16.7526 37.2513 16.7526V16.7526Z" fill="#577083"/>
</svg>
