<svg width="40" height="31" viewBox="0 0 40 31" fill="none" xmlns="http://www.w3.org/2000/svg">
<path d="M39.0093 1.75062C38.6243 1.36162 38.2484 0.962493 37.8459 0.592273C37.6006 0.356282 37.3022 0.182817 36.9757 0.0865514C36.6492 -0.00971378 36.3043 -0.0259506 35.9702 0.039211C35.4571 0.141643 34.9904 0.405966 34.6387 0.793331C30.1788 5.25477 17.8459 17.4564 13.3845 21.9161C13.0364 22.2641 13.1149 22.2632 12.775 21.9266C12.3268 21.4826 11.8822 21.035 11.4363 20.5889C10.2948 19.4476 5.96828 15.2426 4.82028 14.1079C4.61506 13.888 4.36681 13.7127 4.09097 13.5928C3.81513 13.4729 3.5176 13.411 3.21683 13.4109C2.91605 13.4108 2.61848 13.4726 2.34259 13.5924C2.0667 13.7122 1.81838 13.8874 1.61307 14.1072C1.34838 14.3673 1.09699 14.6415 0.823364 14.8916C0.422795 15.2421 0.136075 15.7043 0 16.2188V17.1095C0.122205 17.5587 0.359965 17.968 0.689606 18.2967C3.38828 20.9881 9.27188 26.875 11.9665 29.5703C12.0811 29.692 12.2128 29.7962 12.3575 29.8799C12.6613 30.0474 13.014 30.1038 13.3549 30.0394C13.6958 29.975 14.0036 29.7937 14.2254 29.5269C19.7666 23.9864 33.1781 10.5713 38.7238 5.035C39.1234 4.67202 39.4146 4.20551 39.5654 3.68716V2.79631C39.4683 2.40753 39.2774 2.04848 39.0093 1.75062V1.75062Z" fill="#0091FF"/>
</svg>
