<svg width="20" height="27" viewBox="0 0 20 27" fill="none" xmlns="http://www.w3.org/2000/svg">
<path d="M17.5 26.6667H2.5C1.12222 26.6667 0 25.5456 0 24.1667V12.5C0 11.1211 1.12222 10 2.5 10H17.5C18.8778 10 20 11.1211 20 12.5V24.1667C20 25.5456 18.8778 26.6667 17.5 26.6667ZM2.5 11.6667C2.04111 11.6667 1.66667 12.04 1.66667 12.5V24.1667C1.66667 24.6267 2.04111 25 2.5 25H17.5C17.9589 25 18.3333 24.6267 18.3333 24.1667V12.5C18.3333 12.04 17.9589 11.6667 17.5 11.6667H2.5Z" fill="#BCBFC8"/>
<path d="M15.8333 11.6667C15.3733 11.6667 15 11.2933 15 10.8333V6.66667C15 3.91 12.7566 1.66667 9.99998 1.66667C7.24331 1.66667 4.99998 3.91 4.99998 6.66667V10.8333C4.99998 11.2933 4.62665 11.6667 4.16665 11.6667C3.70665 11.6667 3.33331 11.2933 3.33331 10.8333V6.66667C3.33331 2.99 6.32331 0 9.99998 0C13.6766 0 16.6666 2.99 16.6666 6.66667V10.8333C16.6666 11.2933 16.2933 11.6667 15.8333 11.6667Z" fill="#BCBFC8"/>
</svg>
