<svg width="40" height="40" viewBox="0 0 40 40" fill="none" xmlns="http://www.w3.org/2000/svg">
<path d="M36.8161 0.216421C38.4522 0.216421 39.7837 1.54786 39.7837 3.18396V36.8161C39.7837 38.4522 38.4522 39.7837 36.8161 39.7837H3.18397C1.54787 39.7837 0.216431 38.4522 0.216431 36.8161V3.18396C0.216431 1.54786 1.54787 0.216421 3.18397 0.216421H36.8161Z" fill="white"/>
<path fill-rule="evenodd" clip-rule="evenodd" d="M3.18393 0.432767C1.66733 0.432767 0.432767 1.66733 0.432767 3.18393V36.8161C0.432767 38.3327 1.66733 39.5672 3.18393 39.5672H36.8161C38.3327 39.5672 39.5672 38.3327 39.5672 36.8161V3.18393C39.5672 1.66733 38.3327 0.432767 36.8161 0.432767H3.18393ZM0 3.18393C0 1.42832 1.42832 0 3.18393 0H36.8161C38.5717 0 40 1.42832 40 3.18393V36.8161C40 38.5717 38.5717 40 36.8161 40H3.18393C1.42832 40 0 38.5717 0 36.8161V3.18393Z" fill="#CDCDD4"/>
<path d="M36.8161 0.216421C38.4522 0.216421 39.7837 1.5538 39.7837 3.19721V8.82759C39.7837 9.19324 39.4882 9.48999 39.1242 9.48999H0.875885C0.511866 9.48999 0.216431 9.19324 0.216431 8.82759V3.19721C0.216431 1.5538 1.54787 0.216421 3.18397 0.216421H36.8161Z" fill="#CDCDD4"/>
<path d="M36.0181 37.3107H22.5292C22.1569 37.3107 21.8548 37.0198 21.8548 36.6615V11.9938C21.8548 11.6355 22.1569 11.3447 22.5292 11.3447H36.0181C36.3904 11.3447 36.6925 11.6355 36.6925 11.9938V36.6615C36.6925 37.0198 36.3904 37.3107 36.0181 37.3107Z" fill="#CDCDD4"/>
<path d="M32.983 15.054H32.3648C32.0235 15.054 31.7465 14.7771 31.7465 14.4358C31.7465 14.0945 32.0235 13.8176 32.3648 13.8176H32.983C33.3243 13.8176 33.6012 14.0945 33.6012 14.4358C33.6012 14.7771 33.3243 15.054 32.983 15.054Z" fill="white"/>
<path fill-rule="evenodd" clip-rule="evenodd" d="M32.3648 13.9722C32.1089 13.9722 31.9011 14.1799 31.9011 14.4358C31.9011 14.6917 32.1089 14.8995 32.3648 14.8995H32.983C33.2389 14.8995 33.4467 14.6917 33.4467 14.4358C33.4467 14.1799 33.2389 13.9722 32.983 13.9722H32.3648ZM31.592 14.4358C31.592 14.0092 31.9381 13.663 32.3648 13.663H32.983C33.4096 13.663 33.7558 14.0092 33.7558 14.4358C33.7558 14.8625 33.4096 15.2086 32.983 15.2086H32.3648C31.9381 15.2086 31.592 14.8625 31.592 14.4358Z" fill="#CDCDD4"/>
<path d="M30.4414 15.054H25.6329C25.2537 15.054 24.9459 14.7771 24.9459 14.4358C24.9459 14.0945 25.2537 13.8176 25.6329 13.8176H30.4414C30.8206 13.8176 31.1283 14.0945 31.1283 14.4358C31.1283 14.7771 30.8206 15.054 30.4414 15.054Z" fill="white"/>
<path fill-rule="evenodd" clip-rule="evenodd" d="M25.6328 13.9722C25.3233 13.9722 25.1004 14.1948 25.1004 14.4358C25.1004 14.6768 25.3233 14.8995 25.6328 14.8995H30.4413C30.7509 14.8995 30.9737 14.6768 30.9737 14.4358C30.9737 14.1948 30.7509 13.9722 30.4413 13.9722H25.6328ZM24.7913 14.4358C24.7913 13.9943 25.184 13.663 25.6328 13.663H30.4413C30.8902 13.663 31.2828 13.9943 31.2828 14.4358C31.2828 14.8774 30.8902 15.2086 30.4413 15.2086H25.6328C25.184 15.2086 24.7913 14.8774 24.7913 14.4358Z" fill="#CDCDD4"/>
<path d="M26.1824 17.5271H25.5642C25.2229 17.5271 24.9459 17.2501 24.9459 16.9088C24.9459 16.5676 25.2229 16.2906 25.5642 16.2906H26.1824C26.5237 16.2906 26.8006 16.5676 26.8006 16.9088C26.8006 17.2501 26.5237 17.5271 26.1824 17.5271Z" fill="white"/>
<path fill-rule="evenodd" clip-rule="evenodd" d="M25.5641 16.4452C25.3082 16.4452 25.1004 16.653 25.1004 16.9089C25.1004 17.1648 25.3082 17.3725 25.5641 17.3725H26.1824C26.4383 17.3725 26.646 17.1648 26.646 16.9089C26.646 16.653 26.4383 16.4452 26.1824 16.4452H25.5641ZM24.7913 16.9089C24.7913 16.4822 25.1375 16.1361 25.5641 16.1361H26.1824C26.609 16.1361 26.9552 16.4822 26.9552 16.9089C26.9552 17.3355 26.609 17.6817 26.1824 17.6817H25.5641C25.1375 17.6817 24.7913 17.3355 24.7913 16.9089Z" fill="#CDCDD4"/>
<path d="M32.9143 17.5271H28.1058C27.7266 17.5271 27.4188 17.2501 27.4188 16.9088C27.4188 16.5676 27.7266 16.2906 28.1058 16.2906H32.9143C33.2935 16.2906 33.6012 16.5676 33.6012 16.9088C33.6012 17.2501 33.2935 17.5271 32.9143 17.5271Z" fill="white"/>
<path fill-rule="evenodd" clip-rule="evenodd" d="M28.1058 16.4452C27.7963 16.4452 27.5735 16.6679 27.5735 16.9089C27.5735 17.1499 27.7963 17.3725 28.1058 17.3725H32.9144C33.2239 17.3725 33.4467 17.1499 33.4467 16.9089C33.4467 16.6679 33.2239 16.4452 32.9144 16.4452H28.1058ZM27.2643 16.9089C27.2643 16.4673 27.657 16.1361 28.1058 16.1361H32.9144C33.3632 16.1361 33.7558 16.4673 33.7558 16.9089C33.7558 17.3504 33.3632 17.6817 32.9144 17.6817H28.1058C27.657 17.6817 27.2643 17.3504 27.2643 16.9089Z" fill="#CDCDD4"/>
<path d="M32.983 20.6182H32.3648C32.0235 20.6182 31.7465 20.3413 31.7465 20C31.7465 19.6587 32.0235 19.3818 32.3648 19.3818H32.983C33.3243 19.3818 33.6012 19.6587 33.6012 20C33.6012 20.3413 33.3243 20.6182 32.983 20.6182Z" fill="white"/>
<path fill-rule="evenodd" clip-rule="evenodd" d="M32.3648 19.5363C32.1089 19.5363 31.9011 19.7441 31.9011 20C31.9011 20.2559 32.1089 20.4637 32.3648 20.4637H32.983C33.2389 20.4637 33.4467 20.2559 33.4467 20C33.4467 19.7441 33.2389 19.5363 32.983 19.5363H32.3648ZM31.592 20C31.592 19.5734 31.9381 19.2272 32.3648 19.2272H32.983C33.4096 19.2272 33.7558 19.5734 33.7558 20C33.7558 20.4267 33.4096 20.7728 32.983 20.7728H32.3648C31.9381 20.7728 31.592 20.4267 31.592 20Z" fill="#CDCDD4"/>
<path d="M30.4414 20.6182H25.6329C25.2537 20.6182 24.9459 20.3413 24.9459 20C24.9459 19.6587 25.2537 19.3818 25.6329 19.3818H30.4414C30.8206 19.3818 31.1283 19.6587 31.1283 20C31.1283 20.3413 30.8206 20.6182 30.4414 20.6182Z" fill="white"/>
<path fill-rule="evenodd" clip-rule="evenodd" d="M25.6328 19.5363C25.3233 19.5363 25.1004 19.759 25.1004 20C25.1004 20.241 25.3233 20.4637 25.6328 20.4637H30.4413C30.7509 20.4637 30.9737 20.241 30.9737 20C30.9737 19.759 30.7509 19.5363 30.4413 19.5363H25.6328ZM24.7913 20C24.7913 19.5585 25.184 19.2272 25.6328 19.2272H30.4413C30.8902 19.2272 31.2828 19.5585 31.2828 20C31.2828 20.4416 30.8902 20.7728 30.4413 20.7728H25.6328C25.184 20.7728 24.7913 20.4416 24.7913 20Z" fill="#CDCDD4"/>
<path d="M26.1824 23.7094H25.5642C25.2229 23.7094 24.9459 23.4324 24.9459 23.0912C24.9459 22.7499 25.2229 22.4729 25.5642 22.4729H26.1824C26.5237 22.4729 26.8006 22.7499 26.8006 23.0912C26.8006 23.4324 26.5237 23.7094 26.1824 23.7094Z" fill="white"/>
<path fill-rule="evenodd" clip-rule="evenodd" d="M25.5641 22.6275C25.3082 22.6275 25.1004 22.8353 25.1004 23.0912C25.1004 23.3471 25.3082 23.5549 25.5641 23.5549H26.1824C26.4383 23.5549 26.646 23.3471 26.646 23.0912C26.646 22.8353 26.4383 22.6275 26.1824 22.6275H25.5641ZM24.7913 23.0912C24.7913 22.6646 25.1375 22.3184 25.5641 22.3184H26.1824C26.609 22.3184 26.9552 22.6646 26.9552 23.0912C26.9552 23.5178 26.609 23.864 26.1824 23.864H25.5641C25.1375 23.864 24.7913 23.5178 24.7913 23.0912Z" fill="#CDCDD4"/>
<path d="M32.9143 23.7094H28.1058C27.7266 23.7094 27.4188 23.4324 27.4188 23.0912C27.4188 22.7499 27.7266 22.4729 28.1058 22.4729H32.9143C33.2935 22.4729 33.6012 22.7499 33.6012 23.0912C33.6012 23.4324 33.2935 23.7094 32.9143 23.7094Z" fill="white"/>
<path fill-rule="evenodd" clip-rule="evenodd" d="M28.1058 22.6275C27.7963 22.6275 27.5735 22.8502 27.5735 23.0912C27.5735 23.3322 27.7963 23.5549 28.1058 23.5549H32.9144C33.2239 23.5549 33.4467 23.3322 33.4467 23.0912C33.4467 22.8502 33.2239 22.6275 32.9144 22.6275H28.1058ZM27.2643 23.0912C27.2643 22.6496 27.657 22.3184 28.1058 22.3184H32.9144C33.3632 22.3184 33.7558 22.6496 33.7558 23.0912C33.7558 23.5327 33.3632 23.864 32.9144 23.864H28.1058C27.657 23.864 27.2643 23.5327 27.2643 23.0912Z" fill="#CDCDD4"/>
<path d="M26.1824 26.1824H25.5642C25.2229 26.1824 24.9459 25.9055 24.9459 25.5642C24.9459 25.2229 25.2229 24.9459 25.5642 24.9459H26.1824C26.5237 24.9459 26.8006 25.2229 26.8006 25.5642C26.8006 25.9055 26.5237 26.1824 26.1824 26.1824Z" fill="white"/>
<path fill-rule="evenodd" clip-rule="evenodd" d="M25.5641 25.1004C25.3082 25.1004 25.1004 25.3082 25.1004 25.5641C25.1004 25.82 25.3082 26.0278 25.5641 26.0278H26.1824C26.4383 26.0278 26.646 25.82 26.646 25.5641C26.646 25.3082 26.4383 25.1004 26.1824 25.1004H25.5641ZM24.7913 25.5641C24.7913 25.1375 25.1375 24.7913 25.5641 24.7913H26.1824C26.609 24.7913 26.9552 25.1375 26.9552 25.5641C26.9552 25.9907 26.609 26.3369 26.1824 26.3369H25.5641C25.1375 26.3369 24.7913 25.9907 24.7913 25.5641Z" fill="#CDCDD4"/>
<path d="M32.9143 26.1824H28.1058C27.7266 26.1824 27.4188 25.9055 27.4188 25.5642C27.4188 25.2229 27.7266 24.9459 28.1058 24.9459H32.9143C33.2935 24.9459 33.6012 25.2229 33.6012 25.5642C33.6012 25.9055 33.2935 26.1824 32.9143 26.1824Z" fill="white"/>
<path fill-rule="evenodd" clip-rule="evenodd" d="M28.1058 25.1004C27.7963 25.1004 27.5735 25.3231 27.5735 25.5641C27.5735 25.8051 27.7963 26.0278 28.1058 26.0278H32.9144C33.2239 26.0278 33.4467 25.8051 33.4467 25.5641C33.4467 25.3231 33.2239 25.1004 32.9144 25.1004H28.1058ZM27.2643 25.5641C27.2643 25.1225 27.657 24.7913 28.1058 24.7913H32.9144C33.3632 24.7913 33.7558 25.1225 33.7558 25.5641C33.7558 26.0056 33.3632 26.3369 32.9144 26.3369H28.1058C27.657 26.3369 27.2643 26.0056 27.2643 25.5641Z" fill="#CDCDD4"/>
<path d="M32.983 28.6553H32.3648C32.0235 28.6553 31.7465 28.3784 31.7465 28.0371C31.7465 27.6958 32.0235 27.4189 32.3648 27.4189H32.983C33.3243 27.4189 33.6012 27.6958 33.6012 28.0371C33.6012 28.3784 33.3243 28.6553 32.983 28.6553Z" fill="white"/>
<path fill-rule="evenodd" clip-rule="evenodd" d="M32.3648 27.5734C32.1089 27.5734 31.9011 27.7812 31.9011 28.0371C31.9011 28.293 32.1089 28.5008 32.3648 28.5008H32.983C33.2389 28.5008 33.4467 28.293 33.4467 28.0371C33.4467 27.7812 33.2389 27.5734 32.983 27.5734H32.3648ZM31.592 28.0371C31.592 27.6105 31.9381 27.2643 32.3648 27.2643H32.983C33.4096 27.2643 33.7558 27.6105 33.7558 28.0371C33.7558 28.4637 33.4096 28.8099 32.983 28.8099H32.3648C31.9381 28.8099 31.592 28.4637 31.592 28.0371Z" fill="#CDCDD4"/>
<path d="M30.4414 28.6553H25.6329C25.2537 28.6553 24.9459 28.3784 24.9459 28.0371C24.9459 27.6958 25.2537 27.4189 25.6329 27.4189H30.4414C30.8206 27.4189 31.1283 27.6958 31.1283 28.0371C31.1283 28.3784 30.8206 28.6553 30.4414 28.6553Z" fill="white"/>
<path fill-rule="evenodd" clip-rule="evenodd" d="M25.6328 27.5734C25.3233 27.5734 25.1004 27.7961 25.1004 28.0371C25.1004 28.2781 25.3233 28.5008 25.6328 28.5008H30.4413C30.7509 28.5008 30.9737 28.2781 30.9737 28.0371C30.9737 27.7961 30.7509 27.5734 30.4413 27.5734H25.6328ZM24.7913 28.0371C24.7913 27.5956 25.184 27.2643 25.6328 27.2643H30.4413C30.8902 27.2643 31.2828 27.5956 31.2828 28.0371C31.2828 28.4787 30.8902 28.8099 30.4413 28.8099H25.6328C25.184 28.8099 24.7913 28.4787 24.7913 28.0371Z" fill="#CDCDD4"/>
<path d="M32.983 33.6013H32.3648C32.0235 33.6013 31.7465 33.3243 31.7465 32.983C31.7465 32.6418 32.0235 32.3648 32.3648 32.3648H32.983C33.3243 32.3648 33.6012 32.6418 33.6012 32.983C33.6012 33.3243 33.3243 33.6013 32.983 33.6013Z" fill="white"/>
<path fill-rule="evenodd" clip-rule="evenodd" d="M32.3648 32.5194C32.1089 32.5194 31.9011 32.7271 31.9011 32.983C31.9011 33.239 32.1089 33.4467 32.3648 33.4467H32.983C33.2389 33.4467 33.4467 33.239 33.4467 32.983C33.4467 32.7271 33.2389 32.5194 32.983 32.5194H32.3648ZM31.592 32.983C31.592 32.5564 31.9381 32.2103 32.3648 32.2103H32.983C33.4096 32.2103 33.7558 32.5564 33.7558 32.983C33.7558 33.4097 33.4096 33.7558 32.983 33.7558H32.3648C31.9381 33.7558 31.592 33.4097 31.592 32.983Z" fill="#CDCDD4"/>
<path d="M30.4414 33.6013H25.6329C25.2537 33.6013 24.9459 33.3243 24.9459 32.983C24.9459 32.6418 25.2537 32.3648 25.6329 32.3648H30.4414C30.8206 32.3648 31.1283 32.6418 31.1283 32.983C31.1283 33.3243 30.8206 33.6013 30.4414 33.6013Z" fill="white"/>
<path fill-rule="evenodd" clip-rule="evenodd" d="M25.6328 32.5194C25.3233 32.5194 25.1004 32.7421 25.1004 32.983C25.1004 33.224 25.3233 33.4467 25.6328 33.4467H30.4413C30.7509 33.4467 30.9737 33.224 30.9737 32.983C30.9737 32.7421 30.7509 32.5194 30.4413 32.5194H25.6328ZM24.7913 32.983C24.7913 32.5415 25.184 32.2103 25.6328 32.2103H30.4413C30.8902 32.2103 31.2828 32.5415 31.2828 32.983C31.2828 33.4246 30.8902 33.7558 30.4413 33.7558H25.6328C25.184 33.7558 24.7913 33.4246 24.7913 32.983Z" fill="#CDCDD4"/>
<path d="M26.1824 31.1282H25.5642C25.2229 31.1282 24.9459 30.8513 24.9459 30.51C24.9459 30.1687 25.2229 29.8918 25.5642 29.8918H26.1824C26.5237 29.8918 26.8006 30.1687 26.8006 30.51C26.8006 30.8513 26.5237 31.1282 26.1824 31.1282Z" fill="white"/>
<path fill-rule="evenodd" clip-rule="evenodd" d="M25.5641 30.0463C25.3082 30.0463 25.1004 30.2541 25.1004 30.51C25.1004 30.7659 25.3082 30.9737 25.5641 30.9737H26.1824C26.4383 30.9737 26.646 30.7659 26.646 30.51C26.646 30.2541 26.4383 30.0463 26.1824 30.0463H25.5641ZM24.7913 30.51C24.7913 30.0834 25.1375 29.7372 25.5641 29.7372H26.1824C26.609 29.7372 26.9552 30.0834 26.9552 30.51C26.9552 30.9366 26.609 31.2828 26.1824 31.2828H25.5641C25.1375 31.2828 24.7913 30.9366 24.7913 30.51Z" fill="#CDCDD4"/>
<path d="M32.9143 31.1282H28.1058C27.7266 31.1282 27.4188 30.8513 27.4188 30.51C27.4188 30.1687 27.7266 29.8918 28.1058 29.8918H32.9143C33.2935 29.8918 33.6012 30.1687 33.6012 30.51C33.6012 30.8513 33.2935 31.1282 32.9143 31.1282Z" fill="white"/>
<path fill-rule="evenodd" clip-rule="evenodd" d="M28.1058 30.0463C27.7963 30.0463 27.5735 30.269 27.5735 30.51C27.5735 30.751 27.7963 30.9737 28.1058 30.9737H32.9144C33.2239 30.9737 33.4467 30.751 33.4467 30.51C33.4467 30.269 33.2239 30.0463 32.9144 30.0463H28.1058ZM27.2643 30.51C27.2643 30.0685 27.657 29.7372 28.1058 29.7372H32.9144C33.3632 29.7372 33.7558 30.0685 33.7558 30.51C33.7558 30.9516 33.3632 31.2828 32.9144 31.2828H28.1058C27.657 31.2828 27.2643 30.9516 27.2643 30.51Z" fill="#CDCDD4"/>
<path d="M18.712 21.8547H3.97731C3.60761 21.8547 3.30756 21.5604 3.30756 21.1978V12.0016C3.30756 11.639 3.60761 11.3447 3.97731 11.3447H18.712C19.0817 11.3447 19.3817 11.639 19.3817 12.0016V21.1978C19.3817 21.5604 19.0817 21.8547 18.712 21.8547Z" fill="white"/>
<path d="M14.3995 24.9459H4.58045C4.21911 24.9459 3.92584 24.6689 3.92584 24.3277C3.92584 23.9864 4.21911 23.7094 4.58045 23.7094H14.3995C14.7609 23.7094 15.0541 23.9864 15.0541 24.3277C15.0541 24.6689 14.7609 24.9459 14.3995 24.9459Z" fill="#CDCDD4"/>
<path fill-rule="evenodd" clip-rule="evenodd" d="M4.58047 23.864C4.29604 23.864 4.08042 24.08 4.08042 24.3277C4.08042 24.5754 4.29604 24.7914 4.58047 24.7914H14.3995C14.684 24.7914 14.8996 24.5754 14.8996 24.3277C14.8996 24.08 14.684 23.864 14.3995 23.864H4.58047ZM3.7713 24.3277C3.7713 23.8929 4.14221 23.5549 4.58047 23.5549H14.3995C14.8378 23.5549 15.2087 23.8929 15.2087 24.3277C15.2087 24.7625 14.8378 25.1005 14.3995 25.1005H4.58047C4.14221 25.1005 3.7713 24.7625 3.7713 24.3277Z" fill="white"/>
<path d="M19.2581 24.9459H17.0325C16.623 24.9459 16.2906 24.6689 16.2906 24.3277C16.2906 23.9864 16.623 23.7094 17.0325 23.7094H19.2581C19.6676 23.7094 20 23.9864 20 24.3277C20 24.6689 19.6676 24.9459 19.2581 24.9459Z" fill="#CDCDD4"/>
<path fill-rule="evenodd" clip-rule="evenodd" d="M17.0325 23.864C16.6808 23.864 16.4452 24.097 16.4452 24.3277C16.4452 24.5584 16.6808 24.7914 17.0325 24.7914H19.2581C19.6099 24.7914 19.8455 24.5584 19.8455 24.3277C19.8455 24.097 19.6099 23.864 19.2581 23.864H17.0325ZM16.136 24.3277C16.136 23.8759 16.5652 23.5549 17.0325 23.5549H19.2581C19.7254 23.5549 20.1546 23.8759 20.1546 24.3277C20.1546 24.7795 19.7254 25.1005 19.2581 25.1005H17.0325C16.5652 25.1005 16.136 24.7795 16.136 24.3277Z" fill="white"/>
<path d="M18.7272 28.6553H8.90815C8.5468 28.6553 8.25354 28.3784 8.25354 28.0371C8.25354 27.6958 8.5468 27.4189 8.90815 27.4189H18.7272C19.0886 27.4189 19.3818 27.6958 19.3818 28.0371C19.3818 28.3784 19.0886 28.6553 18.7272 28.6553Z" fill="#CDCDD4"/>
<path fill-rule="evenodd" clip-rule="evenodd" d="M8.90816 27.5734C8.62374 27.5734 8.40812 27.7894 8.40812 28.0371C8.40812 28.2848 8.62374 28.5008 8.90816 28.5008H18.7272C19.0117 28.5008 19.2273 28.2848 19.2273 28.0371C19.2273 27.7894 19.0117 27.5734 18.7272 27.5734H8.90816ZM8.099 28.0371C8.099 27.6023 8.4699 27.2643 8.90816 27.2643H18.7272C19.1655 27.2643 19.5364 27.6023 19.5364 28.0371C19.5364 28.4719 19.1655 28.8099 18.7272 28.8099H8.90816C8.4699 28.8099 8.099 28.4719 8.099 28.0371Z" fill="white"/>
<path d="M6.2751 28.6553H4.04944C3.63992 28.6553 3.30756 28.3784 3.30756 28.0371C3.30756 27.6958 3.63992 27.4189 4.04944 27.4189H6.2751C6.68462 27.4189 7.01698 27.6958 7.01698 28.0371C7.01698 28.3784 6.68462 28.6553 6.2751 28.6553Z" fill="#CDCDD4"/>
<path fill-rule="evenodd" clip-rule="evenodd" d="M4.04952 27.5734C3.69778 27.5734 3.4622 27.8064 3.4622 28.0371C3.4622 28.2678 3.69778 28.5008 4.04952 28.5008H6.27518C6.62692 28.5008 6.8625 28.2678 6.8625 28.0371C6.8625 27.8064 6.62692 27.5734 6.27518 27.5734H4.04952ZM3.15308 28.0371C3.15308 27.5853 3.58222 27.2643 4.04952 27.2643H6.27518C6.74248 27.2643 7.17162 27.5853 7.17162 28.0371C7.17162 28.4889 6.74248 28.8099 6.27518 28.8099H4.04952C3.58222 28.8099 3.15308 28.4889 3.15308 28.0371Z" fill="white"/>
<path d="M14.3995 32.3648H4.58045C4.21911 32.3648 3.92584 32.0878 3.92584 31.7465C3.92584 31.4052 4.21911 31.1283 4.58045 31.1283H14.3995C14.7609 31.1283 15.0541 31.4052 15.0541 31.7465C15.0541 32.0878 14.7609 32.3648 14.3995 32.3648Z" fill="#CDCDD4"/>
<path fill-rule="evenodd" clip-rule="evenodd" d="M4.58047 31.2829C4.29604 31.2829 4.08042 31.4988 4.08042 31.7465C4.08042 31.9942 4.29604 32.2102 4.58047 32.2102H14.3995C14.684 32.2102 14.8996 31.9942 14.8996 31.7465C14.8996 31.4988 14.684 31.2829 14.3995 31.2829H4.58047ZM3.7713 31.7465C3.7713 31.3117 4.14221 30.9737 4.58047 30.9737H14.3995C14.8378 30.9737 15.2087 31.3117 15.2087 31.7465C15.2087 32.1814 14.8378 32.5193 14.3995 32.5193H4.58047C4.14221 32.5193 3.7713 32.1814 3.7713 31.7465Z" fill="white"/>
<path d="M19.2581 32.3648H17.0325C16.623 32.3648 16.2906 32.0878 16.2906 31.7465C16.2906 31.4052 16.623 31.1283 17.0325 31.1283H19.2581C19.6676 31.1283 20 31.4052 20 31.7465C20 32.0878 19.6676 32.3648 19.2581 32.3648Z" fill="#CDCDD4"/>
<path fill-rule="evenodd" clip-rule="evenodd" d="M17.0325 31.2829C16.6808 31.2829 16.4452 31.5158 16.4452 31.7465C16.4452 31.9773 16.6808 32.2102 17.0325 32.2102H19.2581C19.6099 32.2102 19.8455 31.9773 19.8455 31.7465C19.8455 31.5158 19.6099 31.2829 19.2581 31.2829H17.0325ZM16.136 31.7465C16.136 31.2947 16.5652 30.9737 17.0325 30.9737H19.2581C19.7254 30.9737 20.1546 31.2947 20.1546 31.7465C20.1546 32.1984 19.7254 32.5193 19.2581 32.5193H17.0325C16.5652 32.5193 16.136 32.1984 16.136 31.7465Z" fill="white"/>
<path d="M18.7272 36.0742H8.90815C8.5468 36.0742 8.25354 35.7972 8.25354 35.4559C8.25354 35.1147 8.5468 34.8377 8.90815 34.8377H18.7272C19.0886 34.8377 19.3818 35.1147 19.3818 35.4559C19.3818 35.7972 19.0886 36.0742 18.7272 36.0742Z" fill="#CDCDD4"/>
<path fill-rule="evenodd" clip-rule="evenodd" d="M8.90816 34.9923C8.62374 34.9923 8.40812 35.2082 8.40812 35.4559C8.40812 35.7037 8.62374 35.9196 8.90816 35.9196H18.7272C19.0117 35.9196 19.2273 35.7037 19.2273 35.4559C19.2273 35.2082 19.0117 34.9923 18.7272 34.9923H8.90816ZM8.099 35.4559C8.099 35.0211 8.4699 34.6832 8.90816 34.6832H18.7272C19.1655 34.6832 19.5364 35.0211 19.5364 35.4559C19.5364 35.8908 19.1655 36.2287 18.7272 36.2287H8.90816C8.4699 36.2287 8.099 35.8908 8.099 35.4559Z" fill="white"/>
<path d="M6.2751 36.0742H4.04944C3.63992 36.0742 3.30756 35.7972 3.30756 35.4559C3.30756 35.1147 3.63992 34.8377 4.04944 34.8377H6.2751C6.68462 34.8377 7.01698 35.1147 7.01698 35.4559C7.01698 35.7972 6.68462 36.0742 6.2751 36.0742Z" fill="#CDCDD4"/>
<path fill-rule="evenodd" clip-rule="evenodd" d="M4.04952 34.9923C3.69778 34.9923 3.4622 35.2252 3.4622 35.4559C3.4622 35.6867 3.69778 35.9196 4.04952 35.9196H6.27518C6.62692 35.9196 6.8625 35.6867 6.8625 35.4559C6.8625 35.2252 6.62692 34.9923 6.27518 34.9923H4.04952ZM3.15308 35.4559C3.15308 35.0041 3.58222 34.6832 4.04952 34.6832H6.27518C6.74248 34.6832 7.17162 35.0041 7.17162 35.4559C7.17162 35.9078 6.74248 36.2287 6.27518 36.2287H4.04952C3.58222 36.2287 3.15308 35.9078 3.15308 35.4559Z" fill="white"/>
<path fill-rule="evenodd" clip-rule="evenodd" d="M9.49815 15.9763L12.4328 19.237C12.5127 19.3258 12.5055 19.4627 12.4167 19.5426C12.3279 19.6226 12.1911 19.6154 12.1111 19.5265L9.48162 16.6049L6.5517 19.5348C6.4672 19.6193 6.33019 19.6193 6.24569 19.5348C6.16119 19.4503 6.16119 19.3133 6.24569 19.2288L9.49815 15.9763Z" fill="#CDCDD4"/>
<path fill-rule="evenodd" clip-rule="evenodd" d="M13.8258 14.1215L16.7605 17.3823C16.8404 17.4711 16.8332 17.6079 16.7444 17.6878C16.6556 17.7678 16.5188 17.7606 16.4388 17.6718L13.8093 14.7501L10.8794 17.68C10.7949 17.7645 10.6579 17.7645 10.5734 17.68C10.4889 17.5955 10.4889 17.4585 10.5734 17.374L13.8258 14.1215Z" fill="#CDCDD4"/>
<path d="M10.7264 15.6723C11.0678 15.6723 11.3446 15.3955 11.3446 15.0541C11.3446 14.7126 11.0678 14.4358 10.7264 14.4358C10.3849 14.4358 10.1082 14.7126 10.1082 15.0541C10.1082 15.3955 10.3849 15.6723 10.7264 15.6723Z" fill="#CDCDD4"/>
<path fill-rule="evenodd" clip-rule="evenodd" d="M10.7264 14.745C10.5557 14.745 10.4173 14.8834 10.4173 15.0541C10.4173 15.2248 10.5557 15.3632 10.7264 15.3632C10.8972 15.3632 11.0355 15.2248 11.0355 15.0541C11.0355 14.8834 10.8972 14.745 10.7264 14.745ZM9.79907 15.0541C9.79907 14.542 10.2143 14.1268 10.7264 14.1268C11.2386 14.1268 11.6538 14.542 11.6538 15.0541C11.6538 15.5663 11.2386 15.9815 10.7264 15.9815C10.2143 15.9815 9.79907 15.5663 9.79907 15.0541Z" fill="#CDCDD4"/>
</svg>
