<svg width="40" height="40" viewBox="0 0 40 40" fill="none" xmlns="http://www.w3.org/2000/svg">
<path d="M36.8161 0.2164C38.4522 0.2164 39.7837 1.54784 39.7837 3.18394V36.8161C39.7837 38.4522 38.4522 39.7836 36.8161 39.7836H3.18397C1.54787 39.7836 0.216431 38.4522 0.216431 36.8161V3.18394C0.216431 1.54784 1.54787 0.2164 3.18397 0.2164H36.8161Z" fill="white"/>
<path fill-rule="evenodd" clip-rule="evenodd" d="M3.18393 0.432767C1.66733 0.432767 0.432767 1.66733 0.432767 3.18393V36.8161C0.432767 38.3327 1.66733 39.5672 3.18393 39.5672H36.8161C38.3327 39.5672 39.5672 38.3327 39.5672 36.8161V3.18393C39.5672 1.66733 38.3327 0.432767 36.8161 0.432767H3.18393ZM0 3.18393C0 1.42832 1.42832 0 3.18393 0H36.8161C38.5717 0 40 1.42832 40 3.18393V36.8161C40 38.5717 38.5717 40 36.8161 40H3.18393C1.42832 40 0 38.5717 0 36.8161V3.18393Z" fill="#CDCDD4"/>
<path d="M32.983 13.8177H7.01702C5.65125 13.8177 4.54407 14.9248 4.54407 16.2906V32.3648C4.54407 33.7306 5.65125 34.8378 7.01702 34.8378H32.983C34.3488 34.8378 35.456 33.7306 35.456 32.3648V16.2906C35.456 14.9248 34.3488 13.8177 32.983 13.8177Z" fill="white"/>
<path d="M36.8161 0.2164C38.4522 0.2164 39.7837 1.55031 39.7837 3.18945V8.80521C39.7837 9.1699 39.4882 9.46588 39.1242 9.46588H0.875885C0.511866 9.46588 0.216431 9.1699 0.216431 8.80521V3.18945C0.216431 1.55031 1.54787 0.2164 3.18397 0.2164H36.8161Z" fill="#CDCDD4"/>
<path d="M25.1536 24.2263H20.7196V19.7923C20.7196 19.5656 20.5358 19.3818 20.3091 19.3818C20.0824 19.3818 19.8986 19.5656 19.8986 19.7923V24.2263H15.4646C15.2379 24.2263 15.0541 24.4101 15.0541 24.6368C15.0541 24.8635 15.2379 25.0473 15.4646 25.0473H19.8986V29.4813C19.8986 29.708 20.0824 29.8918 20.3091 29.8918C20.5358 29.8918 20.7196 29.708 20.7196 29.4813V25.0473H25.1536C25.3803 25.0473 25.5641 24.8635 25.5641 24.6368C25.5641 24.4101 25.3803 24.2263 25.1536 24.2263Z" fill="#CDCDD4"/>
<path fill-rule="evenodd" clip-rule="evenodd" d="M19.8058 19.7923C19.8058 19.5144 20.0311 19.2891 20.3091 19.2891C20.587 19.2891 20.8123 19.5144 20.8123 19.7923V24.1335H25.1535C25.4315 24.1335 25.6568 24.3589 25.6568 24.6368C25.6568 24.9148 25.4315 25.1401 25.1535 25.1401H20.8123V29.4813C20.8123 29.7593 20.587 29.9846 20.3091 29.9846C20.0311 29.9846 19.8058 29.7593 19.8058 29.4813V25.1401H15.4646C15.1866 25.1401 14.9613 24.9148 14.9613 24.6368C14.9613 24.3589 15.1866 24.1335 15.4646 24.1335H19.8058V19.7923ZM20.3091 19.4745C20.1335 19.4745 19.9912 19.6168 19.9912 19.7923V24.319H15.4646C15.2891 24.319 15.1468 24.4613 15.1468 24.6368C15.1468 24.8123 15.2891 24.9546 15.4646 24.9546H19.9912V29.4813C19.9912 29.6568 20.1335 29.7991 20.3091 29.7991C20.4846 29.7991 20.6269 29.6568 20.6269 29.4813V24.9546H25.1535C25.3291 24.9546 25.4713 24.8123 25.4713 24.6368C25.4713 24.4613 25.3291 24.319 25.1535 24.319H20.6269V19.7923C20.6269 19.6168 20.4846 19.4745 20.3091 19.4745Z" fill="white"/>
</svg>
