<svg width="40" height="32" viewBox="0 0 40 32" fill="none" xmlns="http://www.w3.org/2000/svg">
<path fill-rule="evenodd" clip-rule="evenodd" d="M7.19556 4.49725H37.3016C38.6262 4.49725 39.7001 5.57112 39.7001 6.89579C39.7001 7.11718 39.6695 7.3375 39.609 7.55048L36.7223 17.7247C36.454 18.6704 35.6358 19.3566 34.6579 19.4562L10.7934 21.8867L7.19556 4.49725Z" fill="white"/>
<path fill-rule="evenodd" clip-rule="evenodd" d="M6.82739 4.19751H37.3016C38.7919 4.19751 40 5.40561 40 6.89587C40 7.14493 39.9655 7.39279 39.8975 7.63239L37.0108 17.8066C36.7089 18.8705 35.7885 19.6425 34.6883 19.7546L10.5546 22.2124L6.82739 4.19751ZM7.56379 4.79714L11.0322 21.5611L34.6275 19.158C35.4832 19.0709 36.1992 18.4704 36.4339 17.643L39.3206 7.46872C39.3735 7.28236 39.4003 7.08958 39.4003 6.89587C39.4003 5.73678 38.4607 4.79714 37.3016 4.79714H7.56379Z" fill="#CDCDD4"/>
<path fill-rule="evenodd" clip-rule="evenodd" d="M0 0.899453C0 0.402699 0.402699 0 0.899453 0H7.96877L11.5666 23.6856H33.5796C34.0763 23.6856 34.479 24.0883 34.479 24.585C34.479 25.0818 34.0763 25.4845 33.5796 25.4845H10.0203L6.42248 1.79891H0.899453C0.402699 1.79891 0 1.39621 0 0.899453Z" fill="#CDCDD4"/>
<path d="M14.991 31.181C16.8124 31.181 18.289 29.7044 18.289 27.883C18.289 26.0616 16.8124 24.585 14.991 24.585C13.1696 24.585 11.693 26.0616 11.693 27.883C11.693 29.7044 13.1696 31.181 14.991 31.181Z" fill="#CDCDD4"/>
<path fill-rule="evenodd" clip-rule="evenodd" d="M14.9908 24.8849C13.3349 24.8849 11.9926 26.2272 11.9926 27.883C11.9926 29.5389 13.3349 30.8812 14.9908 30.8812C16.6466 30.8812 17.9889 29.5389 17.9889 27.883C17.9889 26.2272 16.6466 24.8849 14.9908 24.8849ZM11.3929 27.883C11.3929 25.896 13.0037 24.2852 14.9908 24.2852C16.9778 24.2852 18.5886 25.896 18.5886 27.883C18.5886 29.87 16.9778 31.4808 14.9908 31.4808C13.0037 31.4808 11.3929 29.87 11.3929 27.883Z" fill="#CDCDD4"/>
<path d="M29.3822 31.181C31.2037 31.181 32.6802 29.7044 32.6802 27.883C32.6802 26.0616 31.2037 24.585 29.3822 24.585C27.5608 24.585 26.0842 26.0616 26.0842 27.883C26.0842 29.7044 27.5608 31.181 29.3822 31.181Z" fill="#CDCDD4"/>
<path fill-rule="evenodd" clip-rule="evenodd" d="M29.382 24.8849C27.7261 24.8849 26.3838 26.2272 26.3838 27.883C26.3838 29.5389 27.7261 30.8812 29.382 30.8812C31.0378 30.8812 32.3802 29.5389 32.3802 27.883C32.3802 26.2272 31.0378 24.8849 29.382 24.8849ZM25.7842 27.883C25.7842 25.896 27.395 24.2852 29.382 24.2852C31.369 24.2852 32.9798 25.896 32.9798 27.883C32.9798 29.87 31.369 31.4808 29.382 31.4808C27.395 31.4808 25.7842 29.87 25.7842 27.883Z" fill="#CDCDD4"/>
</svg>
