<svg width="40" height="36" viewBox="0 0 40 36" fill="none" xmlns="http://www.w3.org/2000/svg">
<path fill-rule="evenodd" clip-rule="evenodd" d="M2.27683 0.247559H8.38357C9.19919 0.247559 9.93634 0.753424 10.2576 1.53363L11.2373 3.9127C11.5586 4.6929 12.2958 5.19877 13.1114 5.19877H29.8457C31.1074 5.19877 32.3175 5.72041 33.2097 6.64894L34.8746 8.38169H7.38014C6.38264 8.38168 5.53159 9.13277 5.36861 10.1569C2.60391 27.5308 1.11195 35.191 0.892729 33.1377C0.67451 31.0938 0.456291 20.8464 0.238073 2.39562C0.224219 1.22379 1.12577 0.262143 2.25174 0.247719C2.2601 0.247612 2.26847 0.247559 2.27683 0.247559Z" fill="#CDCDD4"/>
<path fill-rule="evenodd" clip-rule="evenodd" d="M2.27679 0.495121L2.25462 0.495263C1.26002 0.508004 0.463649 1.35746 0.475886 2.39257C0.682194 19.8363 0.888515 29.9301 1.0933 32.7005C1.30081 31.9955 1.58396 30.7265 1.94294 28.8833C2.688 25.0579 3.75158 18.8032 5.1339 10.1165C5.31589 8.97284 6.26622 8.13412 7.3801 8.13413H34.3003L33.0414 6.824C32.1939 5.94189 31.0443 5.44633 29.8456 5.44633H13.1113C12.2006 5.44633 11.3774 4.88145 11.0186 4.01022L10.0389 1.63115C9.75514 0.941969 9.104 0.495121 8.38353 0.495121H2.27679ZM0.881922 33.2644C0.881916 33.2644 0.882168 33.2641 0.882697 33.2635L0.881922 33.2644ZM2.24877 0.000179472L2.27679 0H8.38353C9.29431 0 10.1175 0.564883 10.4762 1.43611L11.4559 3.81518C11.7397 4.50436 12.3909 4.95121 13.1113 4.95121H29.8456C31.1705 4.95121 32.441 5.49894 33.3778 6.4739L35.4489 8.62925H7.38009C6.49897 8.62925 5.74721 9.29271 5.60325 10.1974C4.22086 18.8845 3.1561 25.1469 2.4092 28.9817C2.03641 30.8958 1.74075 32.2161 1.52245 32.9314C1.46775 33.1106 1.41592 33.2586 1.36666 33.371C1.34207 33.4271 1.31594 33.4794 1.28777 33.5242C1.26208 33.5651 1.22311 33.6189 1.16705 33.658C1.10193 33.7035 0.995392 33.7383 0.883771 33.6817C0.795561 33.637 0.75273 33.557 0.73336 33.5141C0.691688 33.4216 0.670193 33.2955 0.656269 33.1651C0.436361 31.1053 0.218276 20.8394 0.000175926 2.39866C-0.015294 1.09013 0.991432 0.0162859 2.24877 0.000179472Z" fill="#CDCDD4"/>
<path fill-rule="evenodd" clip-rule="evenodd" d="M7.39239 8.38171H37.7232C38.8493 8.38171 39.7621 9.33174 39.7621 10.5037C39.7621 10.6711 39.7431 10.8379 39.7054 11.0007L34.4657 33.6348C34.245 34.588 33.4256 35.2597 32.4835 35.2597H2.73484C1.60878 35.2597 0.695923 34.3097 0.695923 33.1378C0.695923 32.9884 0.711076 32.8395 0.741129 32.6934L5.39868 10.0593C5.60003 9.08082 6.43087 8.38171 7.39239 8.38171Z" fill="white"/>
<path fill-rule="evenodd" clip-rule="evenodd" d="M7.39235 8.62928C6.54301 8.62928 5.8091 9.24682 5.63124 10.1112L0.973686 32.7452C0.947139 32.8743 0.933755 33.0058 0.933755 33.1378C0.933755 34.173 1.74011 35.0121 2.7348 35.0121H32.4834C33.3156 35.0121 34.0394 34.4188 34.2344 33.5768L39.4741 10.9427C39.5074 10.7989 39.5242 10.6515 39.5242 10.5037C39.5242 9.46847 38.7179 8.62928 37.7232 8.62928H7.39235ZM5.16604 10.0075C5.39088 8.91482 6.31866 8.13416 7.39235 8.13416H37.7232C38.9806 8.13416 40 9.19502 40 10.5037C40 10.6906 39.9787 10.8769 39.9366 11.0587L34.6969 33.6928C34.4505 34.7572 33.5354 35.5073 32.4834 35.5073H2.7348C1.47736 35.5073 0.458008 34.4464 0.458008 33.1378C0.458008 32.971 0.474928 32.8047 0.508488 32.6416L5.16604 10.0075Z" fill="#CDCDD4"/>
<path fill-rule="evenodd" clip-rule="evenodd" d="M23.4891 31.6708L23.3207 32.4304H31.4763L32.4958 27.8329H28.1248C25.9094 27.8329 23.9873 29.4242 23.4891 31.6708Z" fill="#CDCDD4"/>
<path fill-rule="evenodd" clip-rule="evenodd" d="M23.1581 31.5913C23.6918 29.1843 25.7512 27.4792 28.1248 27.4792H32.923L31.7467 32.7841H22.8936L23.1581 31.5913ZM28.1248 28.1866C26.0677 28.1866 24.2828 29.6643 23.8203 31.7503L23.7479 32.0768H31.206L32.0687 28.1866H28.1248Z" fill="#CDCDD4"/>
</svg>
