<svg width="35" height="26" viewBox="0 0 35 26" fill="none" xmlns="http://www.w3.org/2000/svg">
<path d="M31.5088 0H2.76393C1.23745 0 0 1.22311 0 2.73188V22.4014C0 23.9102 1.23745 25.1333 2.76393 25.1333H31.5088C33.0353 25.1333 34.2727 23.9102 34.2727 22.4014V2.73188C34.2727 1.22311 33.0353 0 31.5088 0Z" fill="white"/>
<path fill-rule="evenodd" clip-rule="evenodd" d="M2.99206 0.534752C1.64004 0.534752 0.544012 1.61213 0.544012 2.94113V22.1922C0.544012 23.5212 1.64004 24.5986 2.99206 24.5986H31.2807C32.6327 24.5986 33.7287 23.5212 33.7287 22.1922V2.94113C33.7287 1.61213 32.6327 0.534752 31.2807 0.534752H2.99206ZM0 2.94113C0 1.31679 1.33959 0 2.99206 0H31.2807C32.9331 0 34.2727 1.31679 34.2727 2.94113V22.1922C34.2727 23.8165 32.9331 25.1333 31.2807 25.1333H2.99206C1.33959 25.1333 0 23.8165 0 22.1922V2.94113Z" fill="#CDCDD4"/>
<path fill-rule="evenodd" clip-rule="evenodd" d="M28.5606 4.99273L16.9967 13.7091L5.71216 4.99073L6.05927 4.5717L17.0009 13.0252L28.2188 4.5697L28.5606 4.99273Z" fill="#CDCDD4"/>
<path fill-rule="evenodd" clip-rule="evenodd" d="M28.5606 6.13512L16.9967 14.8515L5.71216 6.13313L6.05927 5.7141L17.0009 14.1676L28.2188 5.7121L28.5606 6.13512Z" fill="#CDCDD4"/>
<path d="M29.1698 19.4212H22.2391C21.9446 19.4212 21.7059 19.5917 21.7059 19.802V21.3252C21.7059 21.5356 21.9446 21.7061 22.2391 21.7061H29.1698C29.4642 21.7061 29.7029 21.5356 29.7029 21.3252V19.802C29.7029 19.5917 29.4642 19.4212 29.1698 19.4212Z" fill="#CDCDD4"/>
<path fill-rule="evenodd" clip-rule="evenodd" d="M22.4556 18.7684C22.3176 18.7684 22.2057 18.878 22.2057 19.0132V20.9716C22.2057 21.1068 22.3176 21.2164 22.4556 21.2164H28.9532C29.0912 21.2164 29.2031 21.1068 29.2031 20.9716V19.0132C29.2031 18.878 29.0912 18.7684 28.9532 18.7684H22.4556ZM21.7059 19.0132C21.7059 18.6076 22.0416 18.2787 22.4556 18.2787H28.9532C29.3672 18.2787 29.7029 18.6076 29.7029 19.0132V20.9716C29.7029 21.3772 29.3672 21.706 28.9532 21.706H22.4556C22.0416 21.706 21.7059 21.3772 21.7059 20.9716V19.0132Z" fill="#CDCDD4"/>
</svg>
