<svg width="35" height="26" viewBox="0 0 35 26" fill="none" xmlns="http://www.w3.org/2000/svg">
<path d="M31.5088 0H2.76393C1.23745 0 0 1.22311 0 2.73188V22.4014C0 23.9102 1.23745 25.1333 2.76393 25.1333H31.5088C33.0353 25.1333 34.2727 23.9102 34.2727 22.4014V2.73188C34.2727 1.22311 33.0353 0 31.5088 0Z" fill="#E1FCDF"/>
<path fill-rule="evenodd" clip-rule="evenodd" d="M2.99206 0.534752C1.64004 0.534752 0.544012 1.61213 0.544012 2.94113V22.1922C0.544012 23.5212 1.64004 24.5986 2.99206 24.5986H31.2807C32.6327 24.5986 33.7287 23.5212 33.7287 22.1922V2.94113C33.7287 1.61213 32.6327 0.534752 31.2807 0.534752H2.99206ZM0 2.94113C0 1.31679 1.33959 0 2.99206 0H31.2807C32.9331 0 34.2727 1.31679 34.2727 2.94113V22.1922C34.2727 23.8165 32.9331 25.1333 31.2807 25.1333H2.99206C1.33959 25.1333 0 23.8165 0 22.1922V2.94113Z" fill="#92E898"/>
<path fill-rule="evenodd" clip-rule="evenodd" d="M28.5606 4.99273L16.9967 13.7091L5.71216 4.99073L6.05927 4.5717L17.0009 13.0252L28.2188 4.5697L28.5606 4.99273Z" fill="#92E898"/>
<path fill-rule="evenodd" clip-rule="evenodd" d="M28.5606 6.13512L16.9967 14.8515L5.71216 6.13313L6.05927 5.7141L17.0009 14.1676L28.2188 5.7121L28.5606 6.13512Z" fill="#BCF3C0"/>
<path d="M29.1699 19.4212H22.2392C21.9447 19.4212 21.7061 19.5917 21.7061 19.802V21.3252C21.7061 21.5356 21.9447 21.7061 22.2392 21.7061H29.1699C29.4643 21.7061 29.703 21.5356 29.703 21.3252V19.802C29.703 19.5917 29.4643 19.4212 29.1699 19.4212Z" fill="#2EC639"/>
<path fill-rule="evenodd" clip-rule="evenodd" d="M22.4558 18.7684C22.3178 18.7684 22.2059 18.878 22.2059 19.0132V20.9716C22.2059 21.1068 22.3178 21.2164 22.4558 21.2164H28.9533C29.0913 21.2164 29.2032 21.1068 29.2032 20.9716V19.0132C29.2032 18.878 29.0913 18.7684 28.9533 18.7684H22.4558ZM21.7061 19.0132C21.7061 18.6076 22.0417 18.2787 22.4558 18.2787H28.9533C29.3674 18.2787 29.703 18.6076 29.703 19.0132V20.9716C29.703 21.3772 29.3674 21.706 28.9533 21.706H22.4558C22.0417 21.706 21.7061 21.3772 21.7061 20.9716V19.0132Z" fill="#2EC639"/>
</svg>
