<svg width="40" height="40" viewBox="0 0 40 40" fill="none" xmlns="http://www.w3.org/2000/svg">
<path d="M36.8161 0.2164C38.4522 0.2164 39.7837 1.54784 39.7837 3.18394V36.8161C39.7837 38.4522 38.4522 39.7836 36.8161 39.7836H3.18397C1.54787 39.7836 0.216431 38.4522 0.216431 36.8161V3.18394C0.216431 1.54784 1.54787 0.2164 3.18397 0.2164H36.8161Z" fill="#E1FCDF"/>
<path fill-rule="evenodd" clip-rule="evenodd" d="M3.18393 0.432767C1.66733 0.432767 0.432767 1.66733 0.432767 3.18393V36.8161C0.432767 38.3327 1.66733 39.5672 3.18393 39.5672H36.8161C38.3327 39.5672 39.5672 38.3327 39.5672 36.8161V3.18393C39.5672 1.66733 38.3327 0.432767 36.8161 0.432767H3.18393ZM0 3.18393C0 1.42832 1.42832 0 3.18393 0H36.8161C38.5717 0 40 1.42832 40 3.18393V36.8161C40 38.5717 38.5717 40 36.8161 40H3.18393C1.42832 40 0 38.5717 0 36.8161V3.18393Z" fill="#92E898"/>
<path d="M32.983 13.8177H7.01702C5.65125 13.8177 4.54407 14.9248 4.54407 16.2906V32.3648C4.54407 33.7306 5.65125 34.8378 7.01702 34.8378H32.983C34.3488 34.8378 35.456 33.7306 35.456 32.3648V16.2906C35.456 14.9248 34.3488 13.8177 32.983 13.8177Z" fill="white"/>
<path fill-rule="evenodd" clip-rule="evenodd" d="M16.0093 22.6538L22.0792 29.0609C22.1966 29.1849 22.1913 29.3805 22.0674 29.4979C21.9435 29.6153 21.7478 29.6101 21.6304 29.4861L15.9863 23.5285L9.70293 29.4976C9.57916 29.6152 9.3835 29.6102 9.26592 29.4864C9.14833 29.3627 9.15335 29.167 9.27712 29.0494L16.0093 22.6538Z" fill="#2EC639"/>
<path fill-rule="evenodd" clip-rule="evenodd" d="M25.2508 19.5378L30.7453 25.9818C30.856 26.1118 30.8405 26.3069 30.7106 26.4176C30.5807 26.5284 30.3856 26.5129 30.2748 26.383L25.2266 20.4623L19.6062 26.395C19.4887 26.5189 19.2931 26.5242 19.1692 26.4068C19.0452 26.2894 19.0399 26.0937 19.1573 25.9698L25.2508 19.5378Z" fill="#2EC639"/>
<path d="M18.7635 22.7821C19.2757 22.7821 19.6909 22.3669 19.6909 21.8547C19.6909 21.3426 19.2757 20.9274 18.7635 20.9274C18.2514 20.9274 17.8362 21.3426 17.8362 21.8547C17.8362 22.3669 18.2514 22.7821 18.7635 22.7821Z" fill="#2EC639"/>
<path fill-rule="evenodd" clip-rule="evenodd" d="M18.7636 21.2365C18.4221 21.2365 18.1453 21.5133 18.1453 21.8547C18.1453 22.1962 18.4221 22.473 18.7636 22.473C19.105 22.473 19.3818 22.1962 19.3818 21.8547C19.3818 21.5133 19.105 21.2365 18.7636 21.2365ZM17.5271 21.8547C17.5271 21.1718 18.0807 20.6183 18.7636 20.6183C19.4465 20.6183 20.0001 21.1718 20.0001 21.8547C20.0001 22.5376 19.4465 23.0912 18.7636 23.0912C18.0807 23.0912 17.5271 22.5376 17.5271 21.8547Z" fill="#2EC639"/>
<path d="M36.8161 0.2164C38.4522 0.2164 39.7837 1.55031 39.7837 3.18945V8.80521C39.7837 9.1699 39.4882 9.46588 39.1242 9.46588H0.875885C0.511866 9.46588 0.216431 9.1699 0.216431 8.80521V3.18945C0.216431 1.55031 1.54787 0.2164 3.18397 0.2164H36.8161Z" fill="#2EC639"/>
</svg>
