<svg width="42" height="41" viewBox="0 0 42 41" fill="none" xmlns="http://www.w3.org/2000/svg">
<path fill-rule="evenodd" clip-rule="evenodd" d="M1.67798 27.2241V2.34483C1.67798 1.6021 2.28505 1 3.03391 1H12.8644C13.4261 1 13.8814 1.45157 13.8814 2.00862V15.1207" fill="white"/>
<path d="M1.67798 27.2241V2.34483C1.67798 1.6021 2.28505 1 3.03391 1H12.8644C13.4261 1 13.8814 1.45157 13.8814 2.00862V15.1207" stroke="#CDCDD4"/>
<path d="M10.4915 17.138H11.8474V3.01729C11.8474 2.64593 11.5438 2.34488 11.1694 2.34488H4.38976C4.01533 2.34488 3.71179 2.64593 3.71179 3.01729V23.1897C3.71179 23.561 4.01533 23.8621 4.38976 23.8621H5.06772L6.08467 22.8535L5.06772 22.5173V17.138H10.4915ZM5.06772 15.7931V10.4138H10.4915V15.7931H5.06772Z" fill="#CDCDD4"/>
<path d="M26.7658 10.6881L30.565 14.4819L26.7658 18.2758L22.9667 14.4819L26.7658 10.6881Z" fill="#CDCDD4"/>
<path fill-rule="evenodd" clip-rule="evenodd" d="M7.44067 24.5346L25.804 6.64116C26.3348 6.1239 27.1868 6.12764 27.7131 6.64954L34.6175 13.4974C35.147 14.0226 35.147 14.8741 34.6175 15.3993L24.7288 25.207" fill="white"/>
<path d="M7.44067 24.5346L25.804 6.64116C26.3348 6.1239 27.1868 6.12764 27.7131 6.64954L34.6175 13.4974C35.147 14.0226 35.147 14.8741 34.6175 15.3993L24.7288 25.207" stroke="#CDCDD4" stroke-width="0.7"/>
<path d="M21.678 24.8707L31.9898 14.9562C32.2521 14.6943 32.2521 14.2697 31.9898 14.0078L27.2409 9.26543C26.9786 9.00353 26.5534 9.00353 26.291 9.26543L12.0442 23.4924C11.9183 23.6182 11.8475 23.7888 11.8475 23.9667C11.8475 24.1446 11.9183 24.3152 12.0443 24.4409L12.5255 24.5345H13.8814L13.4689 23.9667L17.268 20.1728L21.0673 23.9667L20.7751 24.2584L21.678 24.8707Z" fill="#CDCDD4"/>
<path d="M40.3333 27.2241C40.7015 27.2241 41 27.5101 41 27.8629V39.3612C41 39.714 40.7015 40 40.3333 40H7.66667C3.98477 40 1 37.14 1 33.6121C1 30.0841 3.98477 27.2241 7.66667 27.2241H40.3333Z" fill="white" stroke="#CDCDD4" stroke-width="0.7"/>
<path d="M18.5635 37.3103H36.9957C37.335 37.3103 37.6101 37.0344 37.6101 36.6939V30.5302C37.6101 30.1897 37.335 29.9138 36.9957 29.9138H18.5635C18.2242 29.9138 17.9491 30.1897 17.9491 30.5302V36.6939C17.9491 37.0344 18.2242 37.3103 18.5635 37.3103Z" fill="#CDCDD4"/>
<path d="M36.9081 36.5706H31.2906V30.6534H36.9081V36.5706Z" fill="white"/>
<path d="M30.5883 36.5706H24.9708V30.6534H30.5883V36.5706Z" fill="white"/>
<path d="M18.6514 30.6534H24.2688V36.5706H18.6514V30.6534Z" fill="white"/>
<path d="M3.71179 33.6121C3.71179 35.6546 5.38124 37.3103 7.44061 37.3103C9.49997 37.3103 11.1694 35.6546 11.1694 33.6121C11.1694 31.5696 9.49997 29.9138 7.44061 29.9138C5.3822 29.9161 3.71411 31.5705 3.71179 33.6121Z" fill="#CDCDD4"/>
</svg>
