<svg width="30" height="33" viewBox="0 0 30 33" fill="none" xmlns="http://www.w3.org/2000/svg">
<path fill-rule="evenodd" clip-rule="evenodd" d="M3.04529 8.12067L5.38427 30.9907C5.38427 30.9907 6.18476 32.4827 7.0367 32.4827H22.6353C23.466 32.4827 24.1689 31.8691 24.2812 31.0461L27.4074 8.12067H3.04529Z" fill="white"/>
<path fill-rule="evenodd" clip-rule="evenodd" d="M2.03015 7.10559H27.4073L24.1886 30.7757C24.0556 31.7536 23.2227 32.4827 22.2384 32.4827H6.39548C5.38598 32.4827 4.54015 31.7169 4.43745 30.7098L2.03015 7.10559ZM2.65295 7.66953L4.99688 30.6524C5.07025 31.3718 5.67441 31.9188 6.39548 31.9188H22.2384C22.9415 31.9188 23.5364 31.398 23.6314 30.6995L26.7631 7.66953H2.65295Z" fill="#CDCDD4"/>
<path fill-rule="evenodd" clip-rule="evenodd" d="M10.151 13.1961V26.3922H9.13586V13.1961H10.151Z" fill="#CDCDD4"/>
<path fill-rule="evenodd" clip-rule="evenodd" d="M15.2263 13.1961V26.3922H14.2112V13.1961H15.2263Z" fill="#CDCDD4"/>
<path fill-rule="evenodd" clip-rule="evenodd" d="M20.3017 13.1961V26.3922H19.2866V13.1961H20.3017Z" fill="#CDCDD4"/>
<path fill-rule="evenodd" clip-rule="evenodd" d="M12.555 0C11.2273 0 10.1509 1.13617 10.1509 2.53772V2.81968C10.1509 4.0655 11.1077 5.07543 12.2879 5.07543H18.1647C19.345 5.07543 20.3017 4.0655 20.3017 2.81968V2.53772C20.3017 1.13617 19.2254 0 17.8976 0H12.555Z" fill="#CDCDD4"/>
<path d="M26.89 3.04529H2.54748C1.14054 3.04529 0 4.18146 0 5.583C0 6.98455 1.14054 8.12072 2.54748 8.12072H26.89C28.297 8.12072 29.4375 6.98455 29.4375 5.583C29.4375 4.18146 28.297 3.04529 26.89 3.04529Z" fill="#CDCDD4"/>
<path fill-rule="evenodd" clip-rule="evenodd" d="M2.77712 3.55283C1.55011 3.55283 0.555425 4.46177 0.555425 5.583C0.555425 6.70424 1.55011 7.61318 2.77712 7.61318H26.6604C27.8874 7.61318 28.8821 6.70424 28.8821 5.583C28.8821 4.46177 27.8874 3.55283 26.6604 3.55283H2.77712ZM0 5.583C0 4.18146 1.24336 3.04529 2.77712 3.04529H26.6604C28.1941 3.04529 29.4375 4.18146 29.4375 5.583C29.4375 6.98455 28.1941 8.12072 26.6604 8.12072H2.77712C1.24336 8.12072 0 6.98455 0 5.583Z" fill="#CDCDD4"/>
</svg>
