<svg width="30" height="33" viewBox="0 0 30 33" fill="none" xmlns="http://www.w3.org/2000/svg">
<path fill-rule="evenodd" clip-rule="evenodd" d="M3.04541 8.12067L5.38439 30.9907C5.38439 30.9907 6.18488 32.4827 7.03682 32.4827H22.6355C23.4661 32.4827 24.1691 31.8691 24.2813 31.0461L27.4075 8.12067H3.04541Z" fill="#E1FCDF"/>
<path fill-rule="evenodd" clip-rule="evenodd" d="M2.03027 7.10559H27.4074L24.1887 30.7757C24.0558 31.7536 23.2228 32.4827 22.2386 32.4827H6.3956C5.38611 32.4827 4.54028 31.7169 4.43757 30.7098L2.03027 7.10559ZM2.65308 7.66953L4.99701 30.6524C5.07037 31.3718 5.67453 31.9188 6.3956 31.9188H22.2386C22.9416 31.9188 23.5366 31.398 23.6315 30.6995L26.7632 7.66953H2.65308Z" fill="#92E898"/>
<path fill-rule="evenodd" clip-rule="evenodd" d="M10.1508 13.1961V26.3922H9.13574V13.1961H10.1508Z" fill="#92E898"/>
<path fill-rule="evenodd" clip-rule="evenodd" d="M15.2263 13.1961V26.3922H14.2112V13.1961H15.2263Z" fill="#92E898"/>
<path fill-rule="evenodd" clip-rule="evenodd" d="M20.3017 13.1961V26.3922H19.2866V13.1961H20.3017Z" fill="#92E898"/>
<path fill-rule="evenodd" clip-rule="evenodd" d="M12.555 0C11.2273 0 10.1509 1.13617 10.1509 2.53772V2.81968C10.1509 4.0655 11.1077 5.07543 12.2879 5.07543H18.1647C19.345 5.07543 20.3017 4.0655 20.3017 2.81968V2.53772C20.3017 1.13617 19.2254 0 17.8976 0H12.555Z" fill="#2EC639"/>
<path d="M26.89 3.04529H2.54748C1.14054 3.04529 0 4.18146 0 5.583C0 6.98455 1.14054 8.12072 2.54748 8.12072H26.89C28.297 8.12072 29.4375 6.98455 29.4375 5.583C29.4375 4.18146 28.297 3.04529 26.89 3.04529Z" fill="#2EC639"/>
<path fill-rule="evenodd" clip-rule="evenodd" d="M2.77712 3.55283C1.55011 3.55283 0.555425 4.46177 0.555425 5.583C0.555425 6.70424 1.55011 7.61318 2.77712 7.61318H26.6604C27.8874 7.61318 28.8821 6.70424 28.8821 5.583C28.8821 4.46177 27.8874 3.55283 26.6604 3.55283H2.77712ZM0 5.583C0 4.18146 1.24336 3.04529 2.77712 3.04529H26.6604C28.1941 3.04529 29.4375 4.18146 29.4375 5.583C29.4375 6.98455 28.1941 8.12072 26.6604 8.12072H2.77712C1.24336 8.12072 0 6.98455 0 5.583Z" fill="#2EC639"/>
</svg>
