<svg width="42" height="42" viewBox="0 0 42 42" fill="none" xmlns="http://www.w3.org/2000/svg">
<path d="M38 1C39.654 1 41 2.346 41 4V38C41 39.654 39.654 41 38 41H4C2.346 41 1 39.654 1 38V4C1 2.346 2.346 1 4 1H38Z" fill="white" stroke="#CDCDD4" stroke-width="0.7"/>
<path d="M38 1C39.654 1 41 2.35201 41 4.01339V9.70536C41 10.0757 40.7013 10.375 40.3333 10.375H1.66667C1.29867 10.375 1 10.0757 1 9.70536V4.01339C1 2.35201 2.346 1 4 1H38Z" fill="#CDCDD4"/>
<path d="M34.125 12.875H7.875C6.49429 12.875 5.375 13.9943 5.375 15.375V22.25C5.375 23.6307 6.49429 24.75 7.875 24.75H34.125C35.5057 24.75 36.625 23.6307 36.625 22.25V15.375C36.625 13.9943 35.5057 12.875 34.125 12.875Z" fill="white"/>
<path d="M21 21C20.655 21 20.375 20.6857 20.375 20.2969V16.0781C20.375 15.6893 20.655 15.375 21 15.375C21.345 15.375 21.625 15.6893 21.625 16.0781V20.2969C21.625 20.6857 21.345 21 21 21Z" fill="white"/>
<path d="M34.125 26H7.875C6.49429 26 5.375 27.1193 5.375 28.5V35.375C5.375 36.7557 6.49429 37.875 7.875 37.875H34.125C35.5057 37.875 36.625 36.7557 36.625 35.375V28.5C36.625 27.1193 35.5057 26 34.125 26Z" fill="#CDCDD4"/>
<path d="M14.6806 29.75H9.81944C9.43611 29.75 9.125 29.47 9.125 29.125C9.125 28.78 9.43611 28.5 9.81944 28.5H14.6806C15.0639 28.5 15.375 28.78 15.375 29.125C15.375 29.47 15.0639 29.75 14.6806 29.75Z" fill="white" stroke="#CDCDD4" stroke-width="0.7"/>
<path d="M10.375 32.25H9.75C9.405 32.25 9.125 31.97 9.125 31.625C9.125 31.28 9.405 31 9.75 31H10.375C10.72 31 11 31.28 11 31.625C11 31.97 10.72 32.25 10.375 32.25Z" fill="white" stroke="#CDCDD4" stroke-width="0.7"/>
<path d="M17.1806 32.25H12.3194C11.9361 32.25 11.625 31.97 11.625 31.625C11.625 31.28 11.9361 31 12.3194 31H17.1806C17.5639 31 17.875 31.28 17.875 31.625C17.875 31.97 17.5639 32.25 17.1806 32.25Z" fill="white" stroke="#CDCDD4" stroke-width="0.7"/>
<path d="M17.25 35.375H16.625C16.28 35.375 16 35.095 16 34.75C16 34.405 16.28 34.125 16.625 34.125H17.25C17.595 34.125 17.875 34.405 17.875 34.75C17.875 35.095 17.595 35.375 17.25 35.375Z" fill="white" stroke="#CDCDD4" stroke-width="0.7"/>
<path d="M29.6806 29.75H24.8194C24.4361 29.75 24.125 29.47 24.125 29.125C24.125 28.78 24.4361 28.5 24.8194 28.5H29.6806C30.0639 28.5 30.375 28.78 30.375 29.125C30.375 29.47 30.0639 29.75 29.6806 29.75Z" fill="white" stroke="#CDCDD4" stroke-width="0.7"/>
<path d="M25.375 32.25H24.75C24.405 32.25 24.125 31.97 24.125 31.625C24.125 31.28 24.405 31 24.75 31H25.375C25.72 31 26 31.28 26 31.625C26 31.97 25.72 32.25 25.375 32.25Z" fill="white" stroke="#CDCDD4" stroke-width="0.7"/>
<path d="M32.1806 32.25H27.3194C26.9361 32.25 26.625 31.97 26.625 31.625C26.625 31.28 26.9361 31 27.3194 31H32.1806C32.5639 31 32.875 31.28 32.875 31.625C32.875 31.97 32.5639 32.25 32.1806 32.25Z" fill="white" stroke="#CDCDD4" stroke-width="0.7"/>
<path d="M32.25 35.375H31.625C31.28 35.375 31 35.095 31 34.75C31 34.405 31.28 34.125 31.625 34.125H32.25C32.595 34.125 32.875 34.405 32.875 34.75C32.875 35.095 32.595 35.375 32.25 35.375Z" fill="white" stroke="#CDCDD4" stroke-width="0.7"/>
<path d="M33.9063 13.0938H8.09375C6.71304 13.0938 5.59375 14.213 5.59375 15.5938V22.0313C5.59375 23.412 6.71304 24.5313 8.09375 24.5313H33.9063C35.287 24.5313 36.4063 23.412 36.4063 22.0313V15.5938C36.4063 14.213 35.287 13.0938 33.9063 13.0938Z" fill="white" stroke="#CDCDD4" stroke-width="0.7"/>
<path d="M23.8809 18.8809H21.2441V16.2441C21.2441 16.1093 21.1348 16 21 16C20.8652 16 20.7559 16.1093 20.7559 16.2441V18.8809H18.1191C17.9843 18.8809 17.875 18.9902 17.875 19.125C17.875 19.2598 17.9843 19.3691 18.1191 19.3691H20.7559V22.0059C20.7559 22.1407 20.8652 22.25 21 22.25C21.1348 22.25 21.2441 22.1407 21.2441 22.0059V19.3691H23.8809C24.0157 19.3691 24.125 19.2598 24.125 19.125C24.125 18.9902 24.0157 18.8809 23.8809 18.8809Z" fill="#CDCDD4"/>
</svg>
