<svg width="16" height="16" viewBox="0 0 16 16" fill="none" xmlns="http://www.w3.org/2000/svg">
<path fill-rule="evenodd" clip-rule="evenodd" d="M7.99999 0.299988C8.38659 0.299988 8.69999 0.613388 8.69999 0.999988V7.29999H15C15.3866 7.29999 15.7 7.61339 15.7 7.99999C15.7 8.38659 15.3866 8.69999 15 8.69999H8.69999V15C8.69999 15.3866 8.38659 15.7 7.99999 15.7C7.61339 15.7 7.29999 15.3866 7.29999 15V8.69999H0.999988C0.613388 8.69999 0.299988 8.38659 0.299988 7.99999C0.299988 7.61339 0.613388 7.29999 0.999988 7.29999H7.29999V0.999988C7.29999 0.613388 7.61339 0.299988 7.99999 0.299988Z" fill="#53B1FF"/>
</svg>
