<svg width="25" height="25" viewBox="0 0 25 25" fill="none" xmlns="http://www.w3.org/2000/svg">
<path d="M12.5 25C19.4036 25 25 19.4036 25 12.5C25 5.59644 19.4036 0 12.5 0C5.59644 0 0 5.59644 0 12.5C0 19.4036 5.59644 25 12.5 25Z" fill="#EA501F"/>
<path d="M5.53461 7.50293H9.04865C9.15599 6.30921 9.48733 5.2372 9.96333 4.40861C10.5933 3.3132 11.4894 2.6391 12.502 2.6391C13.5147 2.6391 14.4061 3.31788 15.0407 4.40861C15.5167 5.23252 15.8481 6.30921 15.9554 7.50293H19.4648C19.8801 7.50293 20.2535 7.84466 20.2208 8.26129L19.5161 18.1247C19.4275 19.3605 18.6528 20.0674 17.5281 20.0674H7.47597C6.22528 20.0674 5.56261 19.192 5.48794 18.1247L4.7786 8.26597C4.7506 7.84934 5.11927 7.50293 5.53461 7.50293ZM9.926 7.50293H15.0687C14.9661 6.46837 14.6814 5.55084 14.2754 4.84865C13.8087 4.02943 13.174 3.51918 12.502 3.51918C11.8254 3.51918 11.1953 4.02943 10.7193 4.85333C10.3133 5.55084 10.0333 6.47305 9.926 7.50293Z" fill="white"/>
<path d="M9.94638 16.6079C9.78304 16.4956 9.74104 16.2756 9.85304 16.1117C9.96505 15.9479 10.1844 15.9058 10.3477 16.0181C10.4504 16.0883 10.5577 16.1585 10.6744 16.2288C11.4957 16.7297 12.2517 16.9778 12.8818 16.9778C13.4511 16.9778 13.9131 16.7624 14.2071 16.3271C14.2258 16.2943 14.2444 16.2756 14.2491 16.2615C14.3331 16.1258 14.3938 15.9807 14.4358 15.8402C14.5198 15.55 14.5058 15.2504 14.3891 14.9789C14.2631 14.6933 14.0204 14.4171 13.6424 14.1877C13.3904 14.0332 13.0778 13.8975 12.6997 13.7945C11.7384 13.523 11.0291 13.1391 10.6464 12.6242C10.2264 12.0578 10.1937 11.3743 10.6417 10.5457C10.9404 9.998 11.5517 9.65627 12.3264 9.59542C12.9938 9.54392 13.7964 9.70309 14.6131 10.1197C14.7904 10.2087 14.8604 10.424 14.7671 10.6019C14.6738 10.7798 14.4638 10.85 14.2864 10.7564C13.5911 10.4006 12.9284 10.2648 12.3777 10.307C11.8504 10.3491 11.4491 10.5551 11.2717 10.8828C10.9731 11.4305 10.9777 11.8611 11.2204 12.1888C11.5004 12.568 12.0837 12.8629 12.8958 13.0923C13.3344 13.2187 13.7078 13.3779 14.0158 13.5651C14.5244 13.8741 14.8651 14.2626 15.0471 14.6839C15.2338 15.1193 15.2571 15.5781 15.1311 16.0275C15.0751 16.2288 14.9864 16.4301 14.8651 16.6267C14.8371 16.6688 14.8184 16.7016 14.8044 16.725C14.3704 17.3663 13.7031 17.6846 12.8911 17.6893C12.1304 17.6893 11.2437 17.4084 10.3104 16.8373C10.1937 16.7718 10.0724 16.6969 9.94638 16.6079Z" fill="#EA501F"/>
</svg>
