<svg width="24" height="22" viewBox="0 0 24 22" fill="none" xmlns="http://www.w3.org/2000/svg">
<path d="M6.2753 17.4606C4.66777 17.4606 3.23785 16.4266 2.71862 14.8873L2.6835 14.7713C2.56104 14.3636 2.50975 14.0208 2.50975 13.6778V6.8L0.0737209 14.9689C-0.239585 16.1704 0.474362 17.4161 1.67224 17.748L17.1994 21.9254C17.3932 21.9758 17.587 22 17.7779 22C18.7779 22 19.6917 21.3332 19.9478 20.3506L20.8525 17.4606H6.2753Z" fill="white"/>
<path d="M9.04934 7.2C10.1343 7.2 11.0165 6.30299 11.0165 5.2C11.0165 4.097 10.1343 3.2 9.04934 3.2C7.96437 3.2 7.08203 4.097 7.08203 5.2C7.08203 6.30299 7.96437 7.2 9.04934 7.2Z" fill="white"/>
<path d="M21.4917 0H6.44258C5.06019 0 3.93445 1.12206 3.93445 2.5001V13.4999C3.93445 14.8779 5.06019 16 6.44258 16H21.4917C22.8743 16 24 14.8779 24 13.4999V2.5001C24 1.12206 22.8743 0 21.4917 0ZM6.44258 2.00005H21.4917C21.7687 2.00005 21.9934 2.22398 21.9934 2.5001V9.59905L18.8241 5.91298C18.488 5.52004 18.0013 5.31002 17.4787 5.29812C16.959 5.30105 16.4714 5.53102 16.1384 5.92909L12.4121 10.3869L11.1982 9.17992C10.512 8.49603 9.39527 8.49603 8.71005 9.17992L5.94106 11.9389V2.5001C5.94106 2.22398 6.16573 2.00005 6.44258 2.00005Z" fill="white"/>
</svg>
