<svg width="18" height="21" viewBox="0 0 18 21" fill="none" xmlns="http://www.w3.org/2000/svg">
<path fill-rule="evenodd" clip-rule="evenodd" d="M3 3.01599H5.5H6.5H11.5H12.5H15C16.1046 3.01599 17 3.91142 17 5.01599C17 6.12056 16.1046 7.01599 15 7.01599H3C1.89543 7.01599 1 6.12056 1 5.01599C1 3.91142 1.89543 3.01599 3 3.01599ZM2 7.84529C0.834808 7.43345 0 6.32221 0 5.01599C0 3.35914 1.34315 2.01599 3 2.01599H5.55001C5.78164 0.874871 6.79052 0.0159912 8 0.0159912H10C11.2095 0.0159912 12.2184 0.874871 12.45 2.01599H15C16.6569 2.01599 18 3.35914 18 5.01599C18 6.32221 17.1652 7.43345 16 7.84529V18.016C16 19.1206 15.1046 20.016 14 20.016H4C2.89543 20.016 2 19.1206 2 18.016V7.84529ZM3 8.01599L3 18.016C3 18.5683 3.44772 19.016 4 19.016H14C14.5523 19.016 15 18.5683 15 18.016V8.01599H3ZM11.4146 2.01599H6.58535C6.79127 1.4334 7.34689 1.01599 8 1.01599H10C10.6531 1.01599 11.2087 1.4334 11.4146 2.01599ZM6.25 16.6827V10.016H7.25V16.6827H6.25ZM10.75 10.016V16.6827H11.75V10.016H10.75Z" fill="#D1D2D5"/>
</svg>
