<svg width="34" height="33" viewBox="0 0 34 33" fill="none" xmlns="http://www.w3.org/2000/svg">
<path d="M7.56481 0.00413444C7.98555 0.169527 8.23459 0.505275 8.44369 0.868312C9.30047 2.35685 10.1436 3.85861 11.0055 5.34384C11.3124 5.86896 11.6855 6.35687 12.0187 6.86959C12.6273 7.81398 12.561 8.30355 11.7909 9.1148C11.0854 9.85907 10.2439 10.4454 9.45006 11.0871C9.08046 11.3883 8.73442 11.7159 8.41479 12.0671C8.07905 12.4326 8.0051 12.8394 8.20739 13.2918C8.68593 14.3561 9.33872 15.3253 9.97195 16.3028C12.1555 19.6735 15.0905 22.271 18.6604 24.2028C19.2282 24.5096 19.7595 24.88 20.3808 25.0967C20.5711 25.1732 20.7799 25.1955 20.9828 25.1609C21.1857 25.1263 21.3742 25.0364 21.5266 24.9015C22.1419 24.4054 22.6434 23.8099 23.1288 23.1996C23.5855 22.6032 24.0942 22.0463 24.6494 21.535C25.4305 20.8395 25.9473 20.7502 26.8168 21.3208C28.7361 22.5786 30.799 23.5867 32.81 24.6865C33.32 24.966 33.8853 25.2224 34 25.8881V26.3016C33.8777 27.0737 33.7132 27.8389 33.507 28.5939C33.2478 29.5251 32.697 30.2396 31.9158 30.8119C30.3791 31.9382 28.6859 32.7015 26.7743 33H24.6494C23.3948 32.7693 22.1844 32.3955 20.9817 31.9779C18.6825 31.179 16.4233 30.3173 14.3952 28.9537C11.5232 27.0202 9.00042 24.7163 6.70633 22.1676C5.11602 20.3995 3.63621 18.5389 2.65108 16.3789C1.48576 13.826 0.343391 11.2517 0 8.43503V7.60807C0.0203443 7.55678 0.0351571 7.50356 0.0441993 7.44929C0.171696 5.51916 0.979176 3.84207 2.08415 2.28077C2.71313 1.39674 3.49426 0.72442 4.60348 0.447387C5.27412 0.281994 5.9541 0.15795 6.62559 0L7.56481 0.00413444Z" fill="#0091FF"/>
</svg>
