<svg width="30" height="24" viewBox="0 0 30 24" fill="none" xmlns="http://www.w3.org/2000/svg">
<path d="M0 22.0801C0 17.3301 0 12.5801 0 7.83008C3.57 10.3451 7.1475 12.8476 10.705 15.3826C14.0775 17.7851 15.9175 17.8101 19.31 15.4076C22.875 12.8851 26.4375 10.3551 30 7.83008C30 12.6626 30 17.4976 30 22.3301C29.0425 23.6176 27.755 23.9376 26.1825 23.9251C18.63 23.8651 11.075 23.8676 3.5225 23.9226C1.9425 23.9351 0.7875 23.4376 0 22.0801Z" fill="#0091FF"/>
<path d="M0 4.08008C0 3.41258 0 2.74758 0 2.08008C0.6425 0.530079 1.8175 -0.00742274 3.4675 7.72564e-05C11.17 0.0450773 18.8725 0.0400759 26.5725 0.00257588C28.1025 -0.00492412 29.2325 0.515079 30 1.83008C30 2.66258 30 3.49758 30 4.33008C29.2425 5.47258 28.525 6.63008 27.355 7.43758C24.075 9.70508 20.8 11.9851 17.5575 14.3076C15.84 15.5401 14.225 15.5226 12.5125 14.3026C9.2975 12.0126 6.035 9.78758 2.8075 7.51508C1.5625 6.63758 0.6575 5.45258 0 4.08008Z" fill="#0091FF"/>
</svg>
