<svg width="31" height="43" viewBox="0 0 31 43" fill="none" xmlns="http://www.w3.org/2000/svg">
<path d="M0 16.7948V13.9391C0.0429097 13.6771 0.0835609 13.415 0.128729 13.1552C1.16421 7.19298 4.54504 3.1155 10.1967 0.883584C11.4095 0.405396 12.69 0.18926 13.9739 0H17.0227C17.5772 0.09295 18.1395 0.154543 18.6849 0.283329C24.2801 1.60143 28.0189 5.00922 30.0899 10.2839C30.5822 11.5426 30.8103 12.8596 31 14.1945V17.0502C30.9368 17.4634 30.8803 17.8789 30.8092 18.291C30.3631 20.8902 29.3412 23.2711 28.011 25.5332C26.4008 28.2714 24.4326 30.7597 22.505 33.275C20.2353 36.2393 17.9984 39.2238 16.2594 42.5397C16.1566 42.7236 16.012 42.8812 15.8371 43H15.1595C14.9485 42.8134 14.7773 42.5869 14.6559 42.3337C13.7406 40.6293 12.7291 38.9775 11.6263 37.386C9.7789 34.6871 7.74972 32.1226 5.83685 29.4696C4.7328 27.9646 3.70909 26.4032 2.76993 24.7919C1.34262 22.3002 0.329727 19.6662 0 16.7948ZM15.4769 23.3517C16.5394 23.3676 17.5944 23.1727 18.58 22.7785C19.5655 22.3843 20.4616 21.7987 21.2158 21.0562C21.9699 20.3137 22.5669 19.4293 22.9715 18.4548C23.3762 17.4803 23.5803 16.4354 23.5721 15.3815C23.5789 10.547 19.5883 7.35985 15.5435 7.37776C11.0617 7.39792 7.48435 10.8763 7.46064 15.3143C7.4458 16.3667 7.64234 17.4115 8.03879 18.3877C8.43525 19.364 9.02369 20.2522 9.76982 21.0006C10.5159 21.749 11.4048 22.3426 12.3847 22.7469C13.3645 23.1511 14.4156 23.3579 15.4769 23.3551V23.3517Z" fill="#0091FF"/>
</svg>
