<svg xmlns="http://www.w3.org/2000/svg" width="40" height="40" viewBox="0 0 40 40" fill="none">
    <path d="M36.816 0.216431C38.4521 0.216431 39.7835 1.54787 39.7835 3.18397V36.8161C39.7835 38.4522 38.4521 39.7837 36.816 39.7837H3.18385C1.54775 39.7837 0.216309 38.4522 0.216309 36.8161V3.18397C0.216309 1.54787 1.54775 0.216431 3.18385 0.216431H36.816Z" fill="white"/>
    <path fill-rule="evenodd" clip-rule="evenodd" d="M3.18393 0.432767C1.66733 0.432767 0.432767 1.66733 0.432767 3.18393V36.8161C0.432767 38.3327 1.66733 39.5672 3.18393 39.5672H36.8161C38.3327 39.5672 39.5672 38.3327 39.5672 36.8161V3.18393C39.5672 1.66733 38.3327 0.432767 36.8161 0.432767H3.18393ZM0 3.18393C0 1.42832 1.42832 0 3.18393 0H36.8161C38.5717 0 40 1.42832 40 3.18393V36.8161C40 38.5717 38.5717 40 36.8161 40H3.18393C1.42832 40 0 38.5717 0 36.8161V3.18393Z" fill="#2EC639"/>
    <path d="M36.816 0.716431C38.1739 0.716431 39.2835 1.82785 39.2835 3.19722V8.8276C39.2835 8.91921 39.2099 8.99 39.1241 8.99H0.875763C0.789983 8.99 0.716309 8.91921 0.716309 8.8276V3.19722C0.716309 1.82785 1.82599 0.716431 3.18385 0.716431H36.816Z" fill="#2EC639" stroke="white"/>
    <path d="M36.0183 37.3107H22.5294C22.1571 37.3107 21.855 37.0198 21.855 36.6615V11.9938C21.855 11.6355 22.1571 11.3447 22.5294 11.3447H36.0183C36.3905 11.3447 36.6927 11.6355 36.6927 11.9938V36.6615C36.6927 37.0198 36.3905 37.3107 36.0183 37.3107Z" fill="#2EC639"/>
    <path d="M32.9831 15.054H32.3648C32.0236 15.054 31.7466 14.7771 31.7466 14.4358C31.7466 14.0945 32.0236 13.8176 32.3648 13.8176H32.9831C33.3243 13.8176 33.6013 14.0945 33.6013 14.4358C33.6013 14.7771 33.3243 15.054 32.9831 15.054Z" fill="white"/>
    <path fill-rule="evenodd" clip-rule="evenodd" d="M32.3646 13.9721C32.1087 13.9721 31.9009 14.1799 31.9009 14.4358C31.9009 14.6917 32.1087 14.8995 32.3646 14.8995H32.9828C33.2387 14.8995 33.4465 14.6917 33.4465 14.4358C33.4465 14.1799 33.2387 13.9721 32.9828 13.9721H32.3646ZM31.5918 14.4358C31.5918 14.0092 31.938 13.663 32.3646 13.663H32.9828C33.4095 13.663 33.7556 14.0092 33.7556 14.4358C33.7556 14.8625 33.4095 15.2086 32.9828 15.2086H32.3646C31.938 15.2086 31.5918 14.8625 31.5918 14.4358Z" fill="#2EC639"/>
    <path d="M30.4413 15.054H25.6327C25.2535 15.054 24.9458 14.7771 24.9458 14.4358C24.9458 14.0945 25.2535 13.8176 25.6327 13.8176H30.4413C30.8204 13.8176 31.1282 14.0945 31.1282 14.4358C31.1282 14.7771 30.8204 15.054 30.4413 15.054Z" fill="white"/>
    <path fill-rule="evenodd" clip-rule="evenodd" d="M25.633 13.9721C25.3234 13.9721 25.1006 14.1948 25.1006 14.4358C25.1006 14.6768 25.3234 14.8995 25.633 14.8995H30.4415C30.7511 14.8995 30.9739 14.6768 30.9739 14.4358C30.9739 14.1948 30.7511 13.9721 30.4415 13.9721H25.633ZM24.7915 14.4358C24.7915 13.9943 25.1842 13.663 25.633 13.663H30.4415C30.8903 13.663 31.283 13.9943 31.283 14.4358C31.283 14.8774 30.8903 15.2086 30.4415 15.2086H25.633C25.1842 15.2086 24.7915 14.8774 24.7915 14.4358Z" fill="#2EC639"/>
    <path d="M26.1823 17.5271H25.564C25.2228 17.5271 24.9458 17.2501 24.9458 16.9088C24.9458 16.5676 25.2228 16.2906 25.564 16.2906H26.1823C26.5235 16.2906 26.8005 16.5676 26.8005 16.9088C26.8005 17.2501 26.5235 17.5271 26.1823 17.5271Z" fill="white"/>
    <path fill-rule="evenodd" clip-rule="evenodd" d="M25.5643 16.4452C25.3084 16.4452 25.1006 16.6529 25.1006 16.9088C25.1006 17.1648 25.3084 17.3725 25.5643 17.3725H26.1825C26.4384 17.3725 26.6462 17.1648 26.6462 16.9088C26.6462 16.6529 26.4384 16.4452 26.1825 16.4452H25.5643ZM24.7915 16.9088C24.7915 16.4822 25.1377 16.136 25.5643 16.136H26.1825C26.6092 16.136 26.9553 16.4822 26.9553 16.9088C26.9553 17.3355 26.6092 17.6816 26.1825 17.6816H25.5643C25.1377 17.6816 24.7915 17.3355 24.7915 16.9088Z" fill="#2EC639"/>
    <path d="M32.9144 17.5271H28.1059C27.7267 17.5271 27.4189 17.2501 27.4189 16.9088C27.4189 16.5676 27.7267 16.2906 28.1059 16.2906H32.9144C33.2936 16.2906 33.6013 16.5676 33.6013 16.9088C33.6013 17.2501 33.2936 17.5271 32.9144 17.5271Z" fill="white"/>
    <path fill-rule="evenodd" clip-rule="evenodd" d="M28.1057 16.4452C27.7961 16.4452 27.5733 16.6679 27.5733 16.9088C27.5733 17.1498 27.7961 17.3725 28.1057 17.3725H32.9142C33.2237 17.3725 33.4465 17.1498 33.4465 16.9088C33.4465 16.6679 33.2237 16.4452 32.9142 16.4452H28.1057ZM27.2642 16.9088C27.2642 16.4673 27.6568 16.136 28.1057 16.136H32.9142C33.363 16.136 33.7557 16.4673 33.7557 16.9088C33.7557 17.3504 33.363 17.6816 32.9142 17.6816H28.1057C27.6568 17.6816 27.2642 17.3504 27.2642 16.9088Z" fill="#2EC639"/>
    <path d="M32.9831 20.6182H32.3648C32.0236 20.6182 31.7466 20.3413 31.7466 20C31.7466 19.6587 32.0236 19.3818 32.3648 19.3818H32.9831C33.3243 19.3818 33.6013 19.6587 33.6013 20C33.6013 20.3413 33.3243 20.6182 32.9831 20.6182Z" fill="white"/>
    <path fill-rule="evenodd" clip-rule="evenodd" d="M32.3646 19.5364C32.1087 19.5364 31.9009 19.7441 31.9009 20C31.9009 20.2559 32.1087 20.4637 32.3646 20.4637H32.9828C33.2387 20.4637 33.4465 20.2559 33.4465 20C33.4465 19.7441 33.2387 19.5364 32.9828 19.5364H32.3646ZM31.5918 20C31.5918 19.5734 31.938 19.2272 32.3646 19.2272H32.9828C33.4095 19.2272 33.7556 19.5734 33.7556 20C33.7556 20.4267 33.4095 20.7728 32.9828 20.7728H32.3646C31.938 20.7728 31.5918 20.4267 31.5918 20Z" fill="#2EC639"/>
    <path d="M30.4413 20.6182H25.6327C25.2535 20.6182 24.9458 20.3413 24.9458 20C24.9458 19.6587 25.2535 19.3818 25.6327 19.3818H30.4413C30.8204 19.3818 31.1282 19.6587 31.1282 20C31.1282 20.3413 30.8204 20.6182 30.4413 20.6182Z" fill="white"/>
    <path fill-rule="evenodd" clip-rule="evenodd" d="M25.633 19.5364C25.3234 19.5364 25.1006 19.759 25.1006 20C25.1006 20.241 25.3234 20.4637 25.633 20.4637H30.4415C30.7511 20.4637 30.9739 20.241 30.9739 20C30.9739 19.759 30.7511 19.5364 30.4415 19.5364H25.633ZM24.7915 20C24.7915 19.5585 25.1842 19.2272 25.633 19.2272H30.4415C30.8903 19.2272 31.283 19.5585 31.283 20C31.283 20.4416 30.8903 20.7728 30.4415 20.7728H25.633C25.1842 20.7728 24.7915 20.4416 24.7915 20Z" fill="#2EC639"/>
    <path d="M26.1823 23.7094H25.564C25.2228 23.7094 24.9458 23.4324 24.9458 23.0911C24.9458 22.7499 25.2228 22.4729 25.564 22.4729H26.1823C26.5235 22.4729 26.8005 22.7499 26.8005 23.0911C26.8005 23.4324 26.5235 23.7094 26.1823 23.7094Z" fill="white"/>
    <path fill-rule="evenodd" clip-rule="evenodd" d="M25.5643 22.6275C25.3084 22.6275 25.1006 22.8353 25.1006 23.0912C25.1006 23.3471 25.3084 23.5548 25.5643 23.5548H26.1825C26.4384 23.5548 26.6462 23.3471 26.6462 23.0912C26.6462 22.8353 26.4384 22.6275 26.1825 22.6275H25.5643ZM24.7915 23.0912C24.7915 22.6645 25.1377 22.3184 25.5643 22.3184H26.1825C26.6092 22.3184 26.9553 22.6645 26.9553 23.0912C26.9553 23.5178 26.6092 23.864 26.1825 23.864H25.5643C25.1377 23.864 24.7915 23.5178 24.7915 23.0912Z" fill="#2EC639"/>
    <path d="M32.9144 23.7094H28.1059C27.7267 23.7094 27.4189 23.4324 27.4189 23.0911C27.4189 22.7499 27.7267 22.4729 28.1059 22.4729H32.9144C33.2936 22.4729 33.6013 22.7499 33.6013 23.0911C33.6013 23.4324 33.2936 23.7094 32.9144 23.7094Z" fill="white"/>
    <path fill-rule="evenodd" clip-rule="evenodd" d="M28.1057 22.6275C27.7961 22.6275 27.5733 22.8502 27.5733 23.0912C27.5733 23.3321 27.7961 23.5548 28.1057 23.5548H32.9142C33.2237 23.5548 33.4465 23.3321 33.4465 23.0912C33.4465 22.8502 33.2237 22.6275 32.9142 22.6275H28.1057ZM27.2642 23.0912C27.2642 22.6496 27.6568 22.3184 28.1057 22.3184H32.9142C33.363 22.3184 33.7557 22.6496 33.7557 23.0912C33.7557 23.5327 33.363 23.864 32.9142 23.864H28.1057C27.6568 23.864 27.2642 23.5327 27.2642 23.0912Z" fill="#2EC639"/>
    <path d="M26.1823 26.1824H25.564C25.2228 26.1824 24.9458 25.9054 24.9458 25.5642C24.9458 25.2229 25.2228 24.9459 25.564 24.9459H26.1823C26.5235 24.9459 26.8005 25.2229 26.8005 25.5642C26.8005 25.9054 26.5235 26.1824 26.1823 26.1824Z" fill="white"/>
    <path fill-rule="evenodd" clip-rule="evenodd" d="M25.5643 25.1004C25.3084 25.1004 25.1006 25.3082 25.1006 25.5641C25.1006 25.82 25.3084 26.0278 25.5643 26.0278H26.1825C26.4384 26.0278 26.6462 25.82 26.6462 25.5641C26.6462 25.3082 26.4384 25.1004 26.1825 25.1004H25.5643ZM24.7915 25.5641C24.7915 25.1375 25.1377 24.7913 25.5643 24.7913H26.1825C26.6092 24.7913 26.9553 25.1375 26.9553 25.5641C26.9553 25.9907 26.6092 26.3369 26.1825 26.3369H25.5643C25.1377 26.3369 24.7915 25.9907 24.7915 25.5641Z" fill="#2EC639"/>
    <path d="M32.9144 26.1824H28.1059C27.7267 26.1824 27.4189 25.9054 27.4189 25.5642C27.4189 25.2229 27.7267 24.9459 28.1059 24.9459H32.9144C33.2936 24.9459 33.6013 25.2229 33.6013 25.5642C33.6013 25.9054 33.2936 26.1824 32.9144 26.1824Z" fill="white"/>
    <path fill-rule="evenodd" clip-rule="evenodd" d="M28.1057 25.1004C27.7961 25.1004 27.5733 25.3231 27.5733 25.5641C27.5733 25.8051 27.7961 26.0278 28.1057 26.0278H32.9142C33.2237 26.0278 33.4465 25.8051 33.4465 25.5641C33.4465 25.3231 33.2237 25.1004 32.9142 25.1004H28.1057ZM27.2642 25.5641C27.2642 25.1226 27.6568 24.7913 28.1057 24.7913H32.9142C33.363 24.7913 33.7557 25.1226 33.7557 25.5641C33.7557 26.0057 33.363 26.3369 32.9142 26.3369H28.1057C27.6568 26.3369 27.2642 26.0057 27.2642 25.5641Z" fill="#2EC639"/>
    <path d="M32.9831 28.6553H32.3648C32.0236 28.6553 31.7466 28.3783 31.7466 28.0371C31.7466 27.6958 32.0236 27.4188 32.3648 27.4188H32.9831C33.3243 27.4188 33.6013 27.6958 33.6013 28.0371C33.6013 28.3783 33.3243 28.6553 32.9831 28.6553Z" fill="white"/>
    <path fill-rule="evenodd" clip-rule="evenodd" d="M32.3646 27.5735C32.1087 27.5735 31.9009 27.7812 31.9009 28.0371C31.9009 28.293 32.1087 28.5008 32.3646 28.5008H32.9828C33.2387 28.5008 33.4465 28.293 33.4465 28.0371C33.4465 27.7812 33.2387 27.5735 32.9828 27.5735H32.3646ZM31.5918 28.0371C31.5918 27.6105 31.938 27.2643 32.3646 27.2643H32.9828C33.4095 27.2643 33.7556 27.6105 33.7556 28.0371C33.7556 28.4638 33.4095 28.8099 32.9828 28.8099H32.3646C31.938 28.8099 31.5918 28.4638 31.5918 28.0371Z" fill="#2EC639"/>
    <path d="M30.4413 28.6553H25.6327C25.2535 28.6553 24.9458 28.3783 24.9458 28.0371C24.9458 27.6958 25.2535 27.4188 25.6327 27.4188H30.4413C30.8204 27.4188 31.1282 27.6958 31.1282 28.0371C31.1282 28.3783 30.8204 28.6553 30.4413 28.6553Z" fill="white"/>
    <path fill-rule="evenodd" clip-rule="evenodd" d="M25.633 27.5735C25.3234 27.5735 25.1006 27.7961 25.1006 28.0371C25.1006 28.2781 25.3234 28.5008 25.633 28.5008H30.4415C30.7511 28.5008 30.9739 28.2781 30.9739 28.0371C30.9739 27.7961 30.7511 27.5735 30.4415 27.5735H25.633ZM24.7915 28.0371C24.7915 27.5956 25.1842 27.2643 25.633 27.2643H30.4415C30.8903 27.2643 31.283 27.5956 31.283 28.0371C31.283 28.4787 30.8903 28.8099 30.4415 28.8099H25.633C25.1842 28.8099 24.7915 28.4787 24.7915 28.0371Z" fill="#2EC639"/>
    <path d="M32.9831 33.6013H32.3648C32.0236 33.6013 31.7466 33.3243 31.7466 32.983C31.7466 32.6418 32.0236 32.3648 32.3648 32.3648H32.9831C33.3243 32.3648 33.6013 32.6418 33.6013 32.983C33.6013 33.3243 33.3243 33.6013 32.9831 33.6013Z" fill="white"/>
    <path fill-rule="evenodd" clip-rule="evenodd" d="M32.3646 32.5194C32.1087 32.5194 31.9009 32.7272 31.9009 32.9831C31.9009 33.239 32.1087 33.4467 32.3646 33.4467H32.9828C33.2387 33.4467 33.4465 33.239 33.4465 32.9831C33.4465 32.7272 33.2387 32.5194 32.9828 32.5194H32.3646ZM31.5918 32.9831C31.5918 32.5564 31.938 32.2103 32.3646 32.2103H32.9828C33.4095 32.2103 33.7556 32.5564 33.7556 32.9831C33.7556 33.4097 33.4095 33.7559 32.9828 33.7559H32.3646C31.938 33.7559 31.5918 33.4097 31.5918 32.9831Z" fill="#2EC639"/>
    <path d="M30.4413 33.6013H25.6327C25.2535 33.6013 24.9458 33.3243 24.9458 32.983C24.9458 32.6418 25.2535 32.3648 25.6327 32.3648H30.4413C30.8204 32.3648 31.1282 32.6418 31.1282 32.983C31.1282 33.3243 30.8204 33.6013 30.4413 33.6013Z" fill="white"/>
    <path fill-rule="evenodd" clip-rule="evenodd" d="M25.633 32.5194C25.3234 32.5194 25.1006 32.7421 25.1006 32.9831C25.1006 33.2241 25.3234 33.4467 25.633 33.4467H30.4415C30.7511 33.4467 30.9739 33.2241 30.9739 32.9831C30.9739 32.7421 30.7511 32.5194 30.4415 32.5194H25.633ZM24.7915 32.9831C24.7915 32.5415 25.1842 32.2103 25.633 32.2103H30.4415C30.8903 32.2103 31.283 32.5415 31.283 32.9831C31.283 33.4246 30.8903 33.7559 30.4415 33.7559H25.633C25.1842 33.7559 24.7915 33.4246 24.7915 32.9831Z" fill="#2EC639"/>
    <path d="M26.1823 31.1283H25.564C25.2228 31.1283 24.9458 30.8513 24.9458 30.51C24.9458 30.1688 25.2228 29.8918 25.564 29.8918H26.1823C26.5235 29.8918 26.8005 30.1688 26.8005 30.51C26.8005 30.8513 26.5235 31.1283 26.1823 31.1283Z" fill="white"/>
    <path fill-rule="evenodd" clip-rule="evenodd" d="M25.5643 30.0464C25.3084 30.0464 25.1006 30.2541 25.1006 30.51C25.1006 30.7659 25.3084 30.9737 25.5643 30.9737H26.1825C26.4384 30.9737 26.6462 30.7659 26.6462 30.51C26.6462 30.2541 26.4384 30.0464 26.1825 30.0464H25.5643ZM24.7915 30.51C24.7915 30.0834 25.1377 29.7372 25.5643 29.7372H26.1825C26.6092 29.7372 26.9553 30.0834 26.9553 30.51C26.9553 30.9367 26.6092 31.2828 26.1825 31.2828H25.5643C25.1377 31.2828 24.7915 30.9367 24.7915 30.51Z" fill="#2EC639"/>
    <path d="M32.9144 31.1283H28.1059C27.7267 31.1283 27.4189 30.8513 27.4189 30.51C27.4189 30.1688 27.7267 29.8918 28.1059 29.8918H32.9144C33.2936 29.8918 33.6013 30.1688 33.6013 30.51C33.6013 30.8513 33.2936 31.1283 32.9144 31.1283Z" fill="white"/>
    <path fill-rule="evenodd" clip-rule="evenodd" d="M28.1057 30.0464C27.7961 30.0464 27.5733 30.269 27.5733 30.51C27.5733 30.751 27.7961 30.9737 28.1057 30.9737H32.9142C33.2237 30.9737 33.4465 30.751 33.4465 30.51C33.4465 30.269 33.2237 30.0464 32.9142 30.0464H28.1057ZM27.2642 30.51C27.2642 30.0685 27.6568 29.7372 28.1057 29.7372H32.9142C33.363 29.7372 33.7557 30.0685 33.7557 30.51C33.7557 30.9516 33.363 31.2828 32.9142 31.2828H28.1057C27.6568 31.2828 27.2642 30.9516 27.2642 30.51Z" fill="#2EC639"/>
    <path d="M18.712 21.8547H3.97738C3.60767 21.8547 3.30762 21.5604 3.30762 21.1978V12.0015C3.30762 11.6389 3.60767 11.3447 3.97738 11.3447H18.712C19.0818 11.3447 19.3818 11.6389 19.3818 12.0015V21.1978C19.3818 21.5604 19.0818 21.8547 18.712 21.8547Z" fill="white"/>
    <path d="M14.3995 24.9459H4.58039C4.21904 24.9459 3.92578 24.6689 3.92578 24.3277C3.92578 23.9864 4.21904 23.7094 4.58039 23.7094H14.3995C14.7608 23.7094 15.0541 23.9864 15.0541 24.3277C15.0541 24.6689 14.7608 24.9459 14.3995 24.9459Z" fill="#2EC639"/>
    <path fill-rule="evenodd" clip-rule="evenodd" d="M4.58065 23.8641C4.29623 23.8641 4.0806 24.08 4.0806 24.3277C4.0806 24.5754 4.29623 24.7914 4.58065 24.7914H14.3997C14.6841 24.7914 14.8998 24.5754 14.8998 24.3277C14.8998 24.08 14.6841 23.8641 14.3997 23.8641H4.58065ZM3.77148 24.3277C3.77148 23.8929 4.14239 23.5549 4.58065 23.5549H14.3997C14.838 23.5549 15.2089 23.8929 15.2089 24.3277C15.2089 24.7626 14.838 25.1005 14.3997 25.1005H4.58065C4.14239 25.1005 3.77148 24.7626 3.77148 24.3277Z" fill="white"/>
    <path d="M19.2581 24.9459H17.0324C16.6229 24.9459 16.2905 24.6689 16.2905 24.3277C16.2905 23.9864 16.6229 23.7094 17.0324 23.7094H19.2581C19.6676 23.7094 20 23.9864 20 24.3277C20 24.6689 19.6676 24.9459 19.2581 24.9459Z" fill="#2EC639"/>
    <path fill-rule="evenodd" clip-rule="evenodd" d="M17.0327 23.8641C16.6809 23.8641 16.4453 24.097 16.4453 24.3277C16.4453 24.5584 16.6809 24.7914 17.0327 24.7914H19.2583C19.6101 24.7914 19.8457 24.5584 19.8457 24.3277C19.8457 24.097 19.6101 23.8641 19.2583 23.8641H17.0327ZM16.1362 24.3277C16.1362 23.8759 16.5654 23.5549 17.0327 23.5549H19.2583C19.7256 23.5549 20.1548 23.8759 20.1548 24.3277C20.1548 24.7795 19.7256 25.1005 19.2583 25.1005H17.0327C16.5654 25.1005 16.1362 24.7795 16.1362 24.3277Z" fill="white"/>
    <path d="M18.7271 28.6553H8.90802C8.54668 28.6553 8.25342 28.3783 8.25342 28.0371C8.25342 27.6958 8.54668 27.4188 8.90802 27.4188H18.7271C19.0884 27.4188 19.3817 27.6958 19.3817 28.0371C19.3817 28.3783 19.0884 28.6553 18.7271 28.6553Z" fill="#2EC639"/>
    <path fill-rule="evenodd" clip-rule="evenodd" d="M8.90829 27.5735C8.62386 27.5735 8.40824 27.7894 8.40824 28.0371C8.40824 28.2848 8.62386 28.5008 8.90829 28.5008H18.7274C19.0118 28.5008 19.2274 28.2848 19.2274 28.0371C19.2274 27.7894 19.0118 27.5735 18.7274 27.5735H8.90829ZM8.09912 28.0371C8.09912 27.6023 8.47003 27.2643 8.90829 27.2643H18.7274C19.1656 27.2643 19.5365 27.6023 19.5365 28.0371C19.5365 28.472 19.1656 28.8099 18.7274 28.8099H8.90829C8.47003 28.8099 8.09912 28.472 8.09912 28.0371Z" fill="white"/>
    <path d="M6.27516 28.6553H4.0495C3.63998 28.6553 3.30762 28.3783 3.30762 28.0371C3.30762 27.6958 3.63998 27.4188 4.0495 27.4188H6.27516C6.68468 27.4188 7.01705 27.6958 7.01705 28.0371C7.01705 28.3783 6.68468 28.6553 6.27516 28.6553Z" fill="#2EC639"/>
    <path fill-rule="evenodd" clip-rule="evenodd" d="M4.04928 27.5735C3.69753 27.5735 3.46195 27.8064 3.46195 28.0371C3.46195 28.2679 3.69753 28.5008 4.04928 28.5008H6.27493C6.62668 28.5008 6.86226 28.2679 6.86226 28.0371C6.86226 27.8064 6.62668 27.5735 6.27493 27.5735H4.04928ZM3.15283 28.0371C3.15283 27.5853 3.58198 27.2643 4.04928 27.2643H6.27493C6.74223 27.2643 7.17138 27.5853 7.17138 28.0371C7.17138 28.489 6.74223 28.8099 6.27493 28.8099H4.04928C3.58198 28.8099 3.15283 28.489 3.15283 28.0371Z" fill="white"/>
    <path d="M14.3995 32.3648H4.58039C4.21904 32.3648 3.92578 32.0878 3.92578 31.7465C3.92578 31.4053 4.21904 31.1283 4.58039 31.1283H14.3995C14.7608 31.1283 15.0541 31.4053 15.0541 31.7465C15.0541 32.0878 14.7608 32.3648 14.3995 32.3648Z" fill="#2EC639"/>
    <path fill-rule="evenodd" clip-rule="evenodd" d="M4.58065 31.2829C4.29623 31.2829 4.0806 31.4989 4.0806 31.7466C4.0806 31.9943 4.29623 32.2102 4.58065 32.2102H14.3997C14.6841 32.2102 14.8998 31.9943 14.8998 31.7466C14.8998 31.4989 14.6841 31.2829 14.3997 31.2829H4.58065ZM3.77148 31.7466C3.77148 31.3117 4.14239 30.9738 4.58065 30.9738H14.3997C14.838 30.9738 15.2089 31.3117 15.2089 31.7466C15.2089 32.1814 14.838 32.5194 14.3997 32.5194H4.58065C4.14239 32.5194 3.77148 32.1814 3.77148 31.7466Z" fill="white"/>
    <path d="M19.2581 32.3648H17.0324C16.6229 32.3648 16.2905 32.0878 16.2905 31.7465C16.2905 31.4053 16.6229 31.1283 17.0324 31.1283H19.2581C19.6676 31.1283 20 31.4053 20 31.7465C20 32.0878 19.6676 32.3648 19.2581 32.3648Z" fill="#2EC639"/>
    <path fill-rule="evenodd" clip-rule="evenodd" d="M17.0327 31.2829C16.6809 31.2829 16.4453 31.5158 16.4453 31.7466C16.4453 31.9773 16.6809 32.2102 17.0327 32.2102H19.2583C19.6101 32.2102 19.8457 31.9773 19.8457 31.7466C19.8457 31.5158 19.6101 31.2829 19.2583 31.2829H17.0327ZM16.1362 31.7466C16.1362 31.2947 16.5654 30.9738 17.0327 30.9738H19.2583C19.7256 30.9738 20.1548 31.2947 20.1548 31.7466C20.1548 32.1984 19.7256 32.5194 19.2583 32.5194H17.0327C16.5654 32.5194 16.1362 32.1984 16.1362 31.7466Z" fill="white"/>
    <path d="M18.7271 36.0742H8.90802C8.54668 36.0742 8.25342 35.7972 8.25342 35.4559C8.25342 35.1147 8.54668 34.8377 8.90802 34.8377H18.7271C19.0884 34.8377 19.3817 35.1147 19.3817 35.4559C19.3817 35.7972 19.0884 36.0742 18.7271 36.0742Z" fill="#2EC639"/>
    <path fill-rule="evenodd" clip-rule="evenodd" d="M8.90829 34.9923C8.62386 34.9923 8.40824 35.2083 8.40824 35.456C8.40824 35.7037 8.62386 35.9196 8.90829 35.9196H18.7274C19.0118 35.9196 19.2274 35.7037 19.2274 35.456C19.2274 35.2083 19.0118 34.9923 18.7274 34.9923H8.90829ZM8.09912 35.456C8.09912 35.0211 8.47003 34.6832 8.90829 34.6832H18.7274C19.1656 34.6832 19.5365 35.0211 19.5365 35.456C19.5365 35.8908 19.1656 36.2288 18.7274 36.2288H8.90829C8.47003 36.2288 8.09912 35.8908 8.09912 35.456Z" fill="white"/>
    <path d="M6.27516 36.0742H4.0495C3.63998 36.0742 3.30762 35.7972 3.30762 35.4559C3.30762 35.1147 3.63998 34.8377 4.0495 34.8377H6.27516C6.68468 34.8377 7.01705 35.1147 7.01705 35.4559C7.01705 35.7972 6.68468 36.0742 6.27516 36.0742Z" fill="#2EC639"/>
    <path fill-rule="evenodd" clip-rule="evenodd" d="M4.04928 34.9923C3.69753 34.9923 3.46195 35.2252 3.46195 35.456C3.46195 35.6867 3.69753 35.9196 4.04928 35.9196H6.27493C6.62668 35.9196 6.86226 35.6867 6.86226 35.456C6.86226 35.2252 6.62668 34.9923 6.27493 34.9923H4.04928ZM3.15283 35.456C3.15283 35.0041 3.58198 34.6832 4.04928 34.6832H6.27493C6.74223 34.6832 7.17138 35.0041 7.17138 35.456C7.17138 35.9078 6.74223 36.2288 6.27493 36.2288H4.04928C3.58198 36.2288 3.15283 35.9078 3.15283 35.456Z" fill="white"/>
    <path fill-rule="evenodd" clip-rule="evenodd" d="M9.49797 15.9763L12.4326 19.237C12.5126 19.3259 12.5054 19.4627 12.4165 19.5426C12.3277 19.6226 12.1909 19.6154 12.1109 19.5265L9.48144 16.6049L6.55152 19.5348C6.46702 19.6193 6.33001 19.6193 6.24551 19.5348C6.161 19.4503 6.161 19.3133 6.24551 19.2288L9.49797 15.9763Z" fill="#2EC639"/>
    <path fill-rule="evenodd" clip-rule="evenodd" d="M13.8256 14.1215L16.7602 17.3822C16.8402 17.4711 16.833 17.6079 16.7442 17.6878C16.6553 17.7678 16.5185 17.7606 16.4386 17.6717L13.8091 14.7501L10.8792 17.68C10.7947 17.7645 10.6576 17.7645 10.5731 17.68C10.4886 17.5955 10.4886 17.4585 10.5731 17.374L13.8256 14.1215Z" fill="#2EC639"/>
    <path d="M10.7266 15.6723C11.0681 15.6723 11.3449 15.3955 11.3449 15.0541C11.3449 14.7126 11.0681 14.4359 10.7266 14.4359C10.3852 14.4359 10.1084 14.7126 10.1084 15.0541C10.1084 15.3955 10.3852 15.6723 10.7266 15.6723Z" fill="#2EC639"/>
    <path fill-rule="evenodd" clip-rule="evenodd" d="M10.7267 14.745C10.556 14.745 10.4176 14.8834 10.4176 15.0541C10.4176 15.2248 10.556 15.3632 10.7267 15.3632C10.8974 15.3632 11.0358 15.2248 11.0358 15.0541C11.0358 14.8834 10.8974 14.745 10.7267 14.745ZM9.79932 15.0541C9.79932 14.542 10.2145 14.1268 10.7267 14.1268C11.2388 14.1268 11.654 14.542 11.654 15.0541C11.654 15.5663 11.2388 15.9815 10.7267 15.9815C10.2145 15.9815 9.79932 15.5663 9.79932 15.0541Z" fill="#2EC639"/>
    </svg>