<svg xmlns="http://www.w3.org/2000/svg" width="42" height="42" viewBox="0 0 42 42" fill="none">
    <path
      d="M37.816 1.21643C39.4521 1.21643 40.7835 2.54787 40.7835 4.18397V37.8161C40.7835 39.4522 39.4521 40.7837 37.816 40.7837H4.18385C2.54775 40.7837 1.21631 39.4522 1.21631 37.8161V4.18397C1.21631 2.54787 2.54775 1.21643 4.18385 1.21643H37.816Z"
      stroke="#DADFEB"
    />
    <path
      fill-rule="evenodd"
      clip-rule="evenodd"
      d="M4.18393 1.43277C2.66733 1.43277 1.43277 2.66733 1.43277 4.18393V37.8161C1.43277 39.3327 2.66733 40.5672 4.18393 40.5672H37.8161C39.3327 40.5672 40.5672 39.3327 40.5672 37.8161V4.18393C40.5672 2.66733 39.3327 1.43277 37.8161 1.43277H4.18393ZM1 4.18393C1 2.42832 2.42832 1 4.18393 1H37.8161C39.5717 1 41 2.42832 41 4.18393V37.8161C41 39.5717 39.5717 41 37.8161 41H4.18393C2.42832 41 1 39.5717 1 37.8161V4.18393Z"
      fill="#DADFEB"
    />
    <path
      d="M37.816 1.71643C39.1739 1.71643 40.2835 2.82785 40.2835 4.19722V9.8276C40.2835 9.91921 40.2099 9.99 40.1241 9.99H1.87576C1.78998 9.99 1.71631 9.91921 1.71631 9.8276V4.19722C1.71631 2.82785 2.82599 1.71643 4.18385 1.71643H37.816Z"
      stroke="#DADFEB"
    />
  </svg>