<svg xmlns="http://www.w3.org/2000/svg" width="44" height="34" viewBox="0 0 44 34" fill="none">
    <path
      d="M9.15147 25.397C6.80716 25.397 4.72186 23.893 3.96465 21.6539L3.91343 21.4852C3.73485 20.8922 3.66004 20.3936 3.66004 19.8947V9.89062L0.10751 21.7727C-0.349394 23.5203 0.691778 25.3322 2.43868 25.815L25.0825 31.8912C25.3651 31.9645 25.6477 31.9997 25.9261 31.9997C27.3845 31.9997 28.7171 31.0298 29.0906 29.6005L30.4098 25.397H9.15147Z"
      fill="#E4E5EE"
    />
    <path
      d="M13.1971 10.4705C14.7793 10.4705 16.0658 9.16579 16.0658 7.56143C16.0658 5.95708 14.7793 4.65234 13.1971 4.65234C11.6149 4.65234 10.3281 5.95708 10.3281 7.56143C10.3281 9.16579 11.6149 10.4705 13.1971 10.4705Z"
      fill="#E4E5EE"
    />
    <path
      d="M31.3426 0H9.39597C7.37999 0 5.73828 1.63209 5.73828 3.63651V19.6362C5.73828 21.6406 7.37999 23.2727 9.39597 23.2727H31.3426C33.3589 23.2727 35.0006 21.6406 35.0006 19.6362V3.63651C35.0006 1.63209 33.3589 0 31.3426 0ZM9.39597 2.90916H31.3426C31.7466 2.90916 32.0743 3.23488 32.0743 3.63651V13.9622L27.4524 8.6007C26.9621 8.02915 26.2525 7.72366 25.4903 7.70635C24.7324 7.71061 24.0214 8.04513 23.5356 8.62413L18.1015 15.1083L16.3312 13.3526C15.3306 12.3579 13.702 12.3579 12.7027 13.3526L8.66459 17.3657V3.63651C8.66459 3.23488 8.99224 2.90916 9.39597 2.90916Z"
      fill="#E4E5EE"
    />
    <circle cx="35" cy="25" r="9" fill="#2EC639" />
    <path
      fill-rule="evenodd"
      clip-rule="evenodd"
      d="M34.9991 20.0898C35.1506 20.0898 35.2959 20.1473 35.403 20.2496C35.5102 20.3519 35.5704 20.4906 35.5704 20.6353V30.4535C35.5704 30.5981 35.5102 30.7369 35.403 30.8392C35.2959 30.9415 35.1506 30.9989 34.9991 30.9989C34.8475 30.9989 34.7022 30.9415 34.5951 30.8392C34.4879 30.7369 34.4277 30.5981 34.4277 30.4535V20.6353C34.4277 20.4906 34.4879 20.3519 34.5951 20.2496C34.7022 20.1473 34.8475 20.0898 34.9991 20.0898Z"
      fill="white"
    />
    <path
      fill-rule="evenodd"
      clip-rule="evenodd"
      d="M34.5955 19.1602C34.6486 19.1095 34.7116 19.0692 34.781 19.0417C34.8504 19.0142 34.9249 19 35 19C35.0751 19 35.1496 19.0142 35.219 19.0417C35.2884 19.0692 35.3514 19.1095 35.4045 19.1602L38.8325 22.433C38.9397 22.5354 39 22.6743 39 22.8192C39 22.964 38.9397 23.1029 38.8325 23.2053C38.7252 23.3078 38.5797 23.3653 38.428 23.3653C38.2762 23.3653 38.1307 23.3078 38.0235 23.2053L35 20.3177L31.9765 23.2053C31.8693 23.3078 31.7238 23.3653 31.572 23.3653C31.4203 23.3653 31.2748 23.3078 31.1675 23.2053C31.0603 23.1029 31 22.964 31 22.8192C31 22.6743 31.0603 22.5354 31.1675 22.433L34.5955 19.1602Z"
      fill="white"
    />
  </svg>