<svg xmlns="http://www.w3.org/2000/svg" width="43" height="37" viewBox="0 0 43 37" fill="none">
    <path d="M38.7969 10.0741H3.5625V36H38.7969V10.0741Z" fill="white" />
    <path d="M1.64062 36H40.0781" stroke="#DADFEB" stroke-width="0.7" stroke-linecap="round" />
    <path d="M3.5625 12.0185V36" stroke="#DADFEB" stroke-width="0.7" />
    <path d="M38.7969 12.0185V36" stroke="#DADFEB" stroke-width="0.7" />
    <path d="M25.3437 12.0185C25.0614 14.2121 23.3022 15.9074 21.1797 15.9074C19.0571 15.9074 17.298 14.2121 17.0156 12.0185H25.3437Z" fill="#DADFEB" />
    <path d="M33.6719 12.0185C33.3895 14.2121 31.6303 15.9074 29.5078 15.9074C27.3853 15.9074 25.6261 14.2121 25.3438 12.0185H33.6719Z" fill="#DADFEB" />
    <path d="M41.3594 12.0185C41.0987 14.2121 39.4748 15.9074 37.5156 15.9074C35.5563 15.9074 33.9325 14.2121 33.6719 12.0185H41.3594Z" fill="#DADFEB" />
    <path d="M17.0156 12.0185C16.7333 14.2121 14.974 15.9074 12.8516 15.9074C10.7291 15.9074 8.96984 14.2121 8.6875 12.0185H17.0156Z" fill="#DADFEB" />
    <path d="M8.6875 12.0185C8.42688 14.2121 6.80296 15.9074 4.84375 15.9074C2.88454 15.9074 1.26062 14.2121 1 12.0185H8.6875Z" fill="#DADFEB" />
    <path
      fill-rule="evenodd"
      clip-rule="evenodd"
      d="M1 12.0185H42L37.2629 2.43315C36.8289 1.55482 35.9416 1 34.971 1H8.58942C7.66109 1 6.80536 1.50798 6.35251 2.32787L1 12.0185Z"
      fill="#DADFEB"
      stroke="#DADFEB"
    />
    <path d="M34.6328 20.7685H25.6641V35.6759H34.6328V20.7685Z" fill="#DADFEB" stroke="#DADFEB" />
    <path d="M33.9922 21.4167H26.3047V30.4908H33.9922V21.4167Z" stroke="#DADFEB" />
    <path opacity="0.672642" d="M33.9922 31.1389H26.3047V35.0278H33.9922V31.1389Z" fill="white" stroke="#DADFEB" />
  </svg>