<svg width="139" height="107" viewBox="0 0 139 107" fill="none" xmlns="http://www.w3.org/2000/svg">
<rect width="132" height="99" rx="4" fill="#F8F8FB"/>
<path d="M39.8888 83.034L45.3068 75.418H40.0148V74.214H47.0428V75.194L41.6388 82.81H47.2808V84H39.8888V83.034ZM51.7362 84.21C50.9802 84.21 50.3128 84.07 49.7342 83.79C49.1648 83.5007 48.7168 83.09 48.3902 82.558C48.0728 82.0167 47.9142 81.382 47.9142 80.654C47.9142 79.9353 48.0728 79.3053 48.3902 78.764C48.7075 78.2227 49.1555 77.8073 49.7342 77.518C50.3128 77.2193 50.9802 77.07 51.7362 77.07C52.4922 77.07 53.1595 77.2193 53.7382 77.518C54.3168 77.8073 54.7648 78.2227 55.0822 78.764C55.4088 79.3053 55.5722 79.9353 55.5722 80.654C55.5722 81.382 55.4088 82.0167 55.0822 82.558C54.7648 83.09 54.3168 83.5007 53.7382 83.79C53.1595 84.07 52.4922 84.21 51.7362 84.21ZM51.7362 83.09C52.4642 83.09 53.0428 82.866 53.4722 82.418C53.9015 81.97 54.1162 81.382 54.1162 80.654C54.1162 79.898 53.9015 79.3007 53.4722 78.862C53.0428 78.4233 52.4642 78.204 51.7362 78.204C51.0082 78.204 50.4295 78.4233 50.0002 78.862C49.5708 79.3007 49.3562 79.898 49.3562 80.654C49.3562 81.382 49.5708 81.97 50.0002 82.418C50.4295 82.866 51.0082 83.09 51.7362 83.09ZM60.2948 84.21C59.5388 84.21 58.8714 84.07 58.2928 83.79C57.7234 83.5007 57.2754 83.09 56.9488 82.558C56.6314 82.0167 56.4728 81.382 56.4728 80.654C56.4728 79.9353 56.6314 79.3053 56.9488 78.764C57.2661 78.2227 57.7141 77.8073 58.2928 77.518C58.8714 77.2193 59.5388 77.07 60.2948 77.07C61.0508 77.07 61.7181 77.2193 62.2968 77.518C62.8754 77.8073 63.3234 78.2227 63.6408 78.764C63.9674 79.3053 64.1308 79.9353 64.1308 80.654C64.1308 81.382 63.9674 82.0167 63.6408 82.558C63.3234 83.09 62.8754 83.5007 62.2968 83.79C61.7181 84.07 61.0508 84.21 60.2948 84.21ZM60.2948 83.09C61.0228 83.09 61.6014 82.866 62.0308 82.418C62.4601 81.97 62.6748 81.382 62.6748 80.654C62.6748 79.898 62.4601 79.3007 62.0308 78.862C61.6014 78.4233 61.0228 78.204 60.2948 78.204C59.5668 78.204 58.9881 78.4233 58.5588 78.862C58.1294 79.3007 57.9148 79.898 57.9148 80.654C57.9148 81.382 58.1294 81.97 58.5588 82.418C58.9881 82.866 59.5668 83.09 60.2948 83.09ZM65.6668 77.28H67.0108V78.246C67.3282 77.854 67.6875 77.56 68.0888 77.364C68.4902 77.168 68.9055 77.07 69.3348 77.07C69.8762 77.07 70.3055 77.1633 70.6228 77.35C70.9402 77.5273 71.1735 77.8027 71.3228 78.176C71.6215 77.812 71.9855 77.5367 72.4148 77.35C72.8535 77.1633 73.2922 77.07 73.7308 77.07C74.5522 77.07 75.1448 77.28 75.5088 77.7C75.8728 78.1107 76.0548 78.722 76.0548 79.534V84H74.6828V79.716C74.6828 79.1653 74.5802 78.778 74.3748 78.554C74.1695 78.3207 73.8195 78.204 73.3248 78.204C72.6155 78.204 72.0368 78.512 71.5888 79.128C71.6075 79.268 71.6168 79.4967 71.6168 79.814V84H70.2448V79.716C70.2448 79.1653 70.1515 78.778 69.9648 78.554C69.7782 78.3207 69.4422 78.204 68.9568 78.204C68.2475 78.204 67.6128 78.6053 67.0528 79.408V84H65.6668V77.28ZM82.9891 74.214H84.4311V84H82.9891V74.214ZM86.2567 77.28H87.6287V78.246C87.946 77.8447 88.3333 77.5507 88.7907 77.364C89.2573 77.168 89.7427 77.07 90.2467 77.07C91.1427 77.07 91.81 77.308 92.2487 77.784C92.6873 78.26 92.9067 78.8993 92.9067 79.702V84H91.4927V79.842C91.4927 78.75 90.97 78.204 89.9247 78.204C89.4767 78.204 89.0567 78.3113 88.6647 78.526C88.282 78.7313 87.9507 79.0487 87.6707 79.478V84H86.2567V77.28Z" fill="#484B52"/>
<path d="M93 17.9999L86 24.9999" stroke="black" stroke-width="2"/>
<rect x="29.35" y="14.3499" width="72.3" height="47.3" rx="1.65" fill="#F8F8FB" stroke="#D6DBE3" stroke-width="0.7"/>
<rect x="46.5" y="29.4999" width="39" height="17.4615" rx="1.5" fill="#B2B9C7" stroke="#B2B9C7"/>
<g clip-path="url(#clip0_189_10585)">
<path d="M84.595 29.1777L95.0838 19.5941L95.0761 22.7615C95.0752 23.115 95.3611 23.4022 95.7145 23.403C96.068 23.4039 96.3552 23.118 96.3561 22.7645L96.3675 18.0468C96.3679 17.6938 96.0809 17.4049 95.7268 17.4053L91.0083 17.4166C90.6549 17.4175 90.3689 17.7047 90.3698 18.0582C90.3706 18.4116 90.6578 18.6975 91.0113 18.6966L94.1787 18.689L84.595 29.1777C84.3451 29.4277 84.3451 28.9278 84.595 29.1777C84.8449 29.4277 84.3451 29.4277 84.595 29.1777Z" fill="#D6DBE3"/>
</g>
<g clip-path="url(#clip1_189_10585)">
<path d="M85.5834 46.6001L95.1671 57.0889L91.9996 57.0812C91.6461 57.0804 91.3589 57.3662 91.3581 57.7197C91.3573 58.0731 91.6431 58.3603 91.9966 58.3612L96.7143 58.3726C97.0673 58.373 97.3562 58.0861 97.3558 57.732L97.3445 53.0134C97.3436 52.66 97.0564 52.3741 96.7029 52.3749C96.3495 52.3758 96.0636 52.663 96.0645 53.0164L96.0721 56.1838L85.5834 46.6001Z" fill="#D6DBE3"/>
</g>
<path d="M44.9255 46.5914L34.4367 56.1751L34.4444 53.0077C34.4453 52.6542 34.1594 52.367 33.806 52.3662C33.4525 52.3653 33.1653 52.6512 33.1644 53.0046L33.153 57.7224C33.1527 58.0754 33.4396 58.3642 33.7937 58.3639L38.5122 58.3525C38.8656 58.3517 39.1516 58.0645 39.1507 57.711C39.1499 57.3575 38.8627 57.0717 38.5092 57.0725L35.3418 57.0802L44.9255 46.5914Z" fill="#D6DBE3"/>
<path d="M45.9391 29.1886L36.3554 18.6998L39.5229 18.7075C39.8763 18.7083 40.1635 18.4225 40.1644 18.069C40.1652 17.7156 39.8793 17.4284 39.5259 17.4275L34.8082 17.4161C34.4552 17.4157 34.1663 17.7026 34.1666 18.0567L34.178 22.7753C34.1789 23.1287 34.466 23.4146 34.8195 23.4138C35.173 23.4129 35.4588 23.1257 35.458 22.7723L35.4503 19.6049L45.9391 29.1886Z" fill="#D6DBE3"/>
<path d="M1 4C1 2.34314 2.34315 1 4 1H129C130.657 1 132 2.34315 132 4V95C132 96.6569 130.657 98 129 98H4C2.34315 98 1 96.6569 1 95V4Z" fill="#2EC639" fill-opacity="0.2" stroke="#2EC639" stroke-width="2"/>
<g filter="url(#filter0_d_189_10585)">
<rect x="103" y="70" width="22" height="22" rx="11" fill="white"/>
</g>
<path d="M108.867 80.9707L113.079 84.6667L119.133 78.0667" stroke="#2EC639" stroke-width="2" stroke-linecap="round" stroke-linejoin="round"/>
<defs>
<filter id="filter0_d_189_10585" x="93" y="61" width="46" height="46" filterUnits="userSpaceOnUse" color-interpolation-filters="sRGB">
<feFlood flood-opacity="0" result="BackgroundImageFix"/>
<feColorMatrix in="SourceAlpha" type="matrix" values="0 0 0 0 0 0 0 0 0 0 0 0 0 0 0 0 0 0 127 0" result="hardAlpha"/>
<feOffset dx="2" dy="3"/>
<feGaussianBlur stdDeviation="6"/>
<feColorMatrix type="matrix" values="0 0 0 0 0.180392 0 0 0 0 0.776471 0 0 0 0 0.223529 0 0 0 0.35 0"/>
<feBlend mode="normal" in2="BackgroundImageFix" result="effect1_dropShadow_189_10585"/>
<feBlend mode="normal" in="SourceGraphic" in2="effect1_dropShadow_189_10585" result="shape"/>
</filter>
<clipPath id="clip0_189_10585">
<rect width="16.3834" height="16.3834" fill="white" transform="translate(102.793 25.4779) rotate(145.352)"/>
</clipPath>
<clipPath id="clip1_189_10585">
<rect width="16.3834" height="16.3834" fill="white" transform="translate(93.5342 63.7668) rotate(-145.699)"/>
</clipPath>
</defs>
</svg>
