<svg width="132" height="99" viewBox="0 0 132 99" fill="none" xmlns="http://www.w3.org/2000/svg">
<rect width="132" height="99" rx="4" fill="#F8F8FB"/>
<path d="M28.8906 84.21C28.3306 84.21 27.7753 84.1587 27.2246 84.056C26.6833 83.9627 26.24 83.832 25.8946 83.664V82.376C26.7906 82.796 27.7566 83.006 28.7926 83.006C30.2486 83.006 30.9766 82.516 30.9766 81.536C30.9766 81.2 30.8973 80.9293 30.7386 80.724C30.58 80.5187 30.3513 80.3413 30.0526 80.192C29.754 80.0333 29.2686 79.8187 28.5966 79.548C27.6726 79.1747 27.0053 78.764 26.5946 78.316C26.184 77.868 25.9786 77.3033 25.9786 76.622C25.9786 76.1087 26.1186 75.656 26.3986 75.264C26.6786 74.8627 27.0706 74.5547 27.5746 74.34C28.0786 74.116 28.6573 74.004 29.3106 74.004C29.8426 74.004 30.3233 74.046 30.7526 74.13C31.182 74.214 31.602 74.3493 32.0126 74.536V75.768C31.2006 75.404 30.3793 75.222 29.5486 75.222C28.8766 75.222 28.3633 75.3433 28.0086 75.586C27.654 75.8287 27.4766 76.174 27.4766 76.622C27.4766 76.93 27.5513 77.1913 27.7006 77.406C27.8593 77.6113 28.088 77.798 28.3866 77.966C28.6946 78.1247 29.1473 78.3253 29.7446 78.568C30.4073 78.8387 30.93 79.0953 31.3126 79.338C31.6953 79.5807 31.9846 79.8793 32.1806 80.234C32.386 80.5793 32.4886 81.0133 32.4886 81.536C32.4886 82.3853 32.1853 83.0433 31.5786 83.51C30.972 83.9767 30.076 84.21 28.8906 84.21ZM33.1134 77.28H34.5554L36.0674 82.264L37.5654 77.28H38.8394L40.3374 82.264L41.8494 77.28H43.3054L41.1214 84H39.7634L38.2094 78.988L36.6554 84H35.2834L33.1134 77.28ZM46.4928 84.21C45.6808 84.21 45.0275 84.0047 44.5328 83.594C44.0475 83.174 43.8048 82.6093 43.8048 81.9C43.8048 81.1533 44.0381 80.5793 44.5048 80.178C44.9808 79.7673 45.6528 79.562 46.5208 79.562C47.4448 79.562 48.2288 79.7487 48.8728 80.122V79.772C48.8728 79.24 48.7095 78.848 48.3828 78.596C48.0655 78.3347 47.5615 78.204 46.8708 78.204C46.4601 78.204 46.0588 78.246 45.6668 78.33C45.2841 78.4047 44.9388 78.512 44.6308 78.652V77.504C44.9108 77.3733 45.2748 77.2707 45.7228 77.196C46.1708 77.112 46.6048 77.07 47.0248 77.07C48.1355 77.07 48.9568 77.3173 49.4888 77.812C50.0301 78.2973 50.3008 78.974 50.3008 79.842V84H48.9708V83.244C48.6815 83.5613 48.3361 83.804 47.9348 83.972C47.5428 84.1307 47.0621 84.21 46.4928 84.21ZM46.8428 83.132C47.2908 83.132 47.6968 83.0433 48.0608 82.866C48.4248 82.6887 48.6955 82.4413 48.8728 82.124V81.214C48.2661 80.822 47.5895 80.626 46.8428 80.626C46.3015 80.626 45.8955 80.7333 45.6248 80.948C45.3635 81.1533 45.2328 81.4707 45.2328 81.9C45.2328 82.7213 45.7695 83.132 46.8428 83.132ZM52.0555 77.28H53.4275V78.274C54.1182 77.4713 55.0515 77.07 56.2275 77.07C56.8995 77.07 57.5015 77.2193 58.0335 77.518C58.5748 77.8167 58.9948 78.2367 59.2935 78.778C59.6015 79.31 59.7555 79.9307 59.7555 80.64C59.7555 81.34 59.6015 81.9607 59.2935 82.502C58.9948 83.0433 58.5795 83.4633 58.0475 83.762C57.5155 84.0607 56.9088 84.21 56.2275 84.21C55.6675 84.21 55.1448 84.1167 54.6595 83.93C54.1742 83.7433 53.7775 83.468 53.4695 83.104V87.066H52.0555V77.28ZM55.9055 83.09C56.3628 83.09 56.7735 82.992 57.1375 82.796C57.5108 82.5907 57.8002 82.3013 58.0055 81.928C58.2202 81.5547 58.3275 81.1253 58.3275 80.64C58.3275 80.1547 58.2202 79.73 58.0055 79.366C57.8002 78.9927 57.5108 78.708 57.1375 78.512C56.7735 78.3067 56.3628 78.204 55.9055 78.204C55.3362 78.204 54.8322 78.3533 54.3935 78.652C53.9642 78.9507 53.6562 79.3613 53.4695 79.884V81.396C53.6282 81.9093 53.9315 82.32 54.3795 82.628C54.8275 82.936 55.3362 83.09 55.9055 83.09ZM67.3053 75.964C67.072 75.964 66.876 75.8847 66.7173 75.726C66.5587 75.5673 66.4793 75.3713 66.4793 75.138C66.4793 74.9047 66.5587 74.7087 66.7173 74.55C66.876 74.3913 67.072 74.312 67.3053 74.312C67.548 74.312 67.7487 74.3913 67.9073 74.55C68.0753 74.7087 68.1593 74.9047 68.1593 75.138C68.1593 75.3713 68.0753 75.5673 67.9073 75.726C67.7487 75.8847 67.548 75.964 67.3053 75.964ZM66.5913 77.28H68.0333V84H66.5913V77.28ZM69.9793 77.28H71.3233V78.246C71.6407 77.854 72 77.56 72.4013 77.364C72.8027 77.168 73.218 77.07 73.6473 77.07C74.1887 77.07 74.618 77.1633 74.9353 77.35C75.2527 77.5273 75.486 77.8027 75.6353 78.176C75.934 77.812 76.298 77.5367 76.7273 77.35C77.166 77.1633 77.6047 77.07 78.0433 77.07C78.8647 77.07 79.4573 77.28 79.8213 77.7C80.1853 78.1107 80.3673 78.722 80.3673 79.534V84H78.9953V79.716C78.9953 79.1653 78.8927 78.778 78.6873 78.554C78.482 78.3207 78.132 78.204 77.6373 78.204C76.928 78.204 76.3493 78.512 75.9013 79.128C75.92 79.268 75.9293 79.4967 75.9293 79.814V84H74.5573V79.716C74.5573 79.1653 74.464 78.778 74.2773 78.554C74.0907 78.3207 73.7547 78.204 73.2693 78.204C72.56 78.204 71.9253 78.6053 71.3653 79.408V84H69.9793V77.28ZM84.3229 84.21C83.5109 84.21 82.8575 84.0047 82.3629 83.594C81.8775 83.174 81.6349 82.6093 81.6349 81.9C81.6349 81.1533 81.8682 80.5793 82.3349 80.178C82.8109 79.7673 83.4829 79.562 84.3509 79.562C85.2749 79.562 86.0589 79.7487 86.7029 80.122V79.772C86.7029 79.24 86.5395 78.848 86.2129 78.596C85.8955 78.3347 85.3915 78.204 84.7009 78.204C84.2902 78.204 83.8889 78.246 83.4969 78.33C83.1142 78.4047 82.7689 78.512 82.4609 78.652V77.504C82.7409 77.3733 83.1049 77.2707 83.5529 77.196C84.0009 77.112 84.4349 77.07 84.8549 77.07C85.9655 77.07 86.7869 77.3173 87.3189 77.812C87.8602 78.2973 88.1309 78.974 88.1309 79.842V84H86.8009V83.244C86.5115 83.5613 86.1662 83.804 85.7649 83.972C85.3729 84.1307 84.8922 84.21 84.3229 84.21ZM84.6729 83.132C85.1209 83.132 85.5269 83.0433 85.8909 82.866C86.2549 82.6887 86.5255 82.4413 86.7029 82.124V81.214C86.0962 80.822 85.4195 80.626 84.6729 80.626C84.1315 80.626 83.7255 80.7333 83.4549 80.948C83.1935 81.1533 83.0629 81.4707 83.0629 81.9C83.0629 82.7213 83.5995 83.132 84.6729 83.132ZM93.3996 87.22C92.9423 87.22 92.4943 87.1827 92.0556 87.108C91.6263 87.0333 91.2623 86.926 90.9636 86.786V85.624C91.6636 85.9413 92.4756 86.1 93.3996 86.1C94.2676 86.1 94.8976 85.9087 95.2896 85.526C95.6909 85.1527 95.8916 84.5833 95.8916 83.818V83.104C95.2756 83.8413 94.3703 84.21 93.1756 84.21C92.4943 84.21 91.8829 84.0607 91.3416 83.762C90.8003 83.4633 90.3756 83.0433 90.0676 82.502C89.7596 81.9607 89.6056 81.34 89.6056 80.64C89.6056 79.9307 89.7549 79.31 90.0536 78.778C90.3616 78.2367 90.7816 77.8167 91.3136 77.518C91.8549 77.2193 92.4616 77.07 93.1336 77.07C93.7589 77.07 94.2863 77.1633 94.7156 77.35C95.1543 77.5273 95.5603 77.826 95.9336 78.246V77.28H97.3056V83.664C97.3056 84.812 96.9836 85.6893 96.3396 86.296C95.7049 86.912 94.7249 87.22 93.3996 87.22ZM93.4556 83.09C94.0343 83.09 94.5429 82.936 94.9816 82.628C95.4296 82.32 95.7329 81.9093 95.8916 81.396V79.884C95.7143 79.3613 95.4063 78.9507 94.9676 78.652C94.5383 78.3533 94.0343 78.204 93.4556 78.204C92.9983 78.204 92.5829 78.3067 92.2096 78.512C91.8456 78.708 91.5563 78.9927 91.3416 79.366C91.1363 79.7393 91.0336 80.164 91.0336 80.64C91.0336 81.1253 91.1363 81.5547 91.3416 81.928C91.5563 82.292 91.8456 82.5767 92.2096 82.782C92.5829 82.9873 92.9983 83.09 93.4556 83.09ZM102.824 84.21C101.582 84.21 100.607 83.902 99.8978 83.286C99.1978 82.6607 98.8478 81.7833 98.8478 80.654C98.8478 79.5527 99.1604 78.68 99.7858 78.036C100.42 77.392 101.321 77.07 102.488 77.07C103.262 77.07 103.92 77.2193 104.462 77.518C105.003 77.8073 105.409 78.2133 105.68 78.736C105.96 79.2493 106.1 79.8373 106.1 80.5V81.2H100.192C100.238 81.8347 100.504 82.3107 100.99 82.628C101.484 82.936 102.152 83.09 102.992 83.09C103.421 83.09 103.855 83.0527 104.294 82.978C104.732 82.894 105.12 82.7867 105.456 82.656V83.79C105.157 83.9113 104.76 84.0093 104.266 84.084C103.78 84.168 103.3 84.21 102.824 84.21ZM104.77 80.206C104.751 79.5713 104.541 79.0813 104.14 78.736C103.748 78.3813 103.188 78.204 102.46 78.204C101.75 78.204 101.2 78.386 100.808 78.75C100.416 79.114 100.21 79.5993 100.192 80.206H104.77Z" fill="#484B52"/>
<path d="M94 38H104.5C107.538 38 110 40.4624 110 43.5V43.5C110 46.5376 107.538 49 104.5 49H98.6452" stroke="#D6DBE3"/>
<path d="M102.535 45.0002L98.5 49.0001L103 53.0001" stroke="#D6DBE3" stroke-linecap="round"/>
<rect x="28.35" y="21.35" width="65.3" height="42.3" rx="1.65" fill="#B2B9C7" stroke="#B2B8C6" stroke-width="0.7"/>
<g opacity="0.6" filter="url(#filter0_d_189_10583)">
<rect x="22" y="16" width="66" height="43" rx="2" fill="#F8F8FB"/>
<rect x="22.35" y="16.35" width="65.3" height="42.3" rx="1.65" stroke="#F8F8FB" stroke-width="0.7"/>
</g>
<defs>
<filter id="filter0_d_189_10583" x="18" y="12" width="74" height="51" filterUnits="userSpaceOnUse" color-interpolation-filters="sRGB">
<feFlood flood-opacity="0" result="BackgroundImageFix"/>
<feColorMatrix in="SourceAlpha" type="matrix" values="0 0 0 0 0 0 0 0 0 0 0 0 0 0 0 0 0 0 127 0" result="hardAlpha"/>
<feOffset/>
<feGaussianBlur stdDeviation="2"/>
<feColorMatrix type="matrix" values="0 0 0 0 0 0 0 0 0 0 0 0 0 0 0 0 0 0 0.25 0"/>
<feBlend mode="normal" in2="BackgroundImageFix" result="effect1_dropShadow_189_10583"/>
<feBlend mode="normal" in="SourceGraphic" in2="effect1_dropShadow_189_10583" result="shape"/>
</filter>
</defs>
</svg>
