<svg width="139" height="107" viewBox="0 0 139 107" fill="none" xmlns="http://www.w3.org/2000/svg">
<rect width="132" height="99" rx="4" fill="#F8F8FB"/>
<rect x="18.35" y="18.35" width="95.3" height="62.3" rx="1.65" stroke="#D6DBE3" stroke-width="0.7"/>
<path d="M49.1981 44.214H50.5561L55.5401 51.592V44.214H56.9821V54H55.6101L50.6261 46.622V54H49.1981V44.214ZM62.3377 54.21C61.5817 54.21 60.9144 54.07 60.3357 53.79C59.7664 53.5007 59.3184 53.09 58.9917 52.558C58.6744 52.0167 58.5157 51.382 58.5157 50.654C58.5157 49.9353 58.6744 49.3053 58.9917 48.764C59.3091 48.2227 59.7571 47.8073 60.3357 47.518C60.9144 47.2193 61.5817 47.07 62.3377 47.07C63.0937 47.07 63.7611 47.2193 64.3397 47.518C64.9184 47.8073 65.3664 48.2227 65.6837 48.764C66.0104 49.3053 66.1737 49.9353 66.1737 50.654C66.1737 51.382 66.0104 52.0167 65.6837 52.558C65.3664 53.09 64.9184 53.5007 64.3397 53.79C63.7611 54.07 63.0937 54.21 62.3377 54.21ZM62.3377 53.09C63.0657 53.09 63.6444 52.866 64.0737 52.418C64.5031 51.97 64.7177 51.382 64.7177 50.654C64.7177 49.898 64.5031 49.3007 64.0737 48.862C63.6444 48.4233 63.0657 48.204 62.3377 48.204C61.6097 48.204 61.0311 48.4233 60.6017 48.862C60.1724 49.3007 59.9577 49.898 59.9577 50.654C59.9577 51.382 60.1724 51.97 60.6017 52.418C61.0311 52.866 61.6097 53.09 62.3377 53.09ZM67.7098 47.28H69.0818V48.246C69.3991 47.8447 69.7865 47.5507 70.2438 47.364C70.7105 47.168 71.1958 47.07 71.6998 47.07C72.5958 47.07 73.2631 47.308 73.7018 47.784C74.1405 48.26 74.3598 48.8993 74.3598 49.702V54H72.9458V49.842C72.9458 48.75 72.4231 48.204 71.3778 48.204C70.9298 48.204 70.5098 48.3113 70.1178 48.526C69.7351 48.7313 69.4038 49.0487 69.1238 49.478V54H67.7098V47.28ZM79.8003 54.21C78.559 54.21 77.5837 53.902 76.8743 53.286C76.1743 52.6607 75.8243 51.7833 75.8243 50.654C75.8243 49.5527 76.137 48.68 76.7623 48.036C77.397 47.392 78.2977 47.07 79.4643 47.07C80.239 47.07 80.897 47.2193 81.4383 47.518C81.9797 47.8073 82.3857 48.2133 82.6563 48.736C82.9363 49.2493 83.0763 49.8373 83.0763 50.5V51.2H77.1683C77.215 51.8347 77.481 52.3107 77.9663 52.628C78.461 52.936 79.1283 53.09 79.9683 53.09C80.3977 53.09 80.8317 53.0527 81.2703 52.978C81.709 52.894 82.0963 52.7867 82.4323 52.656V53.79C82.1337 53.9113 81.737 54.0093 81.2423 54.084C80.757 54.168 80.2763 54.21 79.8003 54.21ZM81.7463 50.206C81.7277 49.5713 81.5177 49.0813 81.1163 48.736C80.7243 48.3813 80.1643 48.204 79.4363 48.204C78.727 48.204 78.1763 48.386 77.7843 48.75C77.3923 49.114 77.187 49.5993 77.1683 50.206H81.7463Z" fill="#B2B9C7"/>
<path d="M1 4C1 2.34314 2.34315 1 4 1H129C130.657 1 132 2.34315 132 4V95C132 96.6569 130.657 98 129 98H4C2.34315 98 1 96.6569 1 95V4Z" fill="#2EC639" fill-opacity="0.2" stroke="#2EC639" stroke-width="2"/>
<g filter="url(#filter0_d_189_10581)">
<rect x="103" y="70" width="22" height="22" rx="11" fill="white"/>
</g>
<path d="M108.867 80.9707L113.079 84.6667L119.133 78.0667" stroke="#2EC639" stroke-width="2" stroke-linecap="round" stroke-linejoin="round"/>
<defs>
<filter id="filter0_d_189_10581" x="93" y="61" width="46" height="46" filterUnits="userSpaceOnUse" color-interpolation-filters="sRGB">
<feFlood flood-opacity="0" result="BackgroundImageFix"/>
<feColorMatrix in="SourceAlpha" type="matrix" values="0 0 0 0 0 0 0 0 0 0 0 0 0 0 0 0 0 0 127 0" result="hardAlpha"/>
<feOffset dx="2" dy="3"/>
<feGaussianBlur stdDeviation="6"/>
<feColorMatrix type="matrix" values="0 0 0 0 0.180392 0 0 0 0 0.776471 0 0 0 0 0.223529 0 0 0 0.35 0"/>
<feBlend mode="normal" in2="BackgroundImageFix" result="effect1_dropShadow_189_10581"/>
<feBlend mode="normal" in="SourceGraphic" in2="effect1_dropShadow_189_10581" result="shape"/>
</filter>
</defs>
</svg>
