<svg width="16" height="19" viewBox="0 0 16 19" fill="none" xmlns="http://www.w3.org/2000/svg">
<path d="M9.93596 18.2021C8.17596 18.2021 6.61596 17.8501 5.25596 17.1461C3.89596 16.4261 2.83996 15.4101 2.08796 14.0981C1.33596 12.7701 0.959961 11.2261 0.959961 9.46612C0.959961 7.70612 1.33596 6.17012 2.08796 4.85812C2.83996 3.53012 3.89596 2.50612 5.25596 1.78612C6.61596 1.06612 8.17596 0.706116 9.93596 0.706116C12.256 0.706116 14.192 1.25812 15.744 2.36212V5.26612C14.352 4.08212 12.504 3.49012 10.2 3.49012C8.96796 3.49012 7.88796 3.73812 6.95996 4.23412C6.03196 4.71412 5.31196 5.40212 4.79996 6.29812C4.28796 7.19412 4.03196 8.25012 4.03196 9.46612C4.03196 10.6821 4.28796 11.7381 4.79996 12.6341C5.32796 13.5301 6.05596 14.2261 6.98396 14.7221C7.91196 15.2021 8.98396 15.4421 10.2 15.4421C11.384 15.4421 12.44 15.2981 13.368 15.0101C14.296 14.7061 15.152 14.2261 15.936 13.5701V16.4741C14.464 17.6261 12.464 18.2021 9.93596 18.2021Z" fill="white"/>
</svg>
