<svg width="32" height="37" viewBox="0 0 32 37" fill="none" xmlns="http://www.w3.org/2000/svg">
<path d="M18.7 36.75C15.0333 36.75 11.7833 36.0167 8.95 34.55C6.11667 33.05 3.91667 30.9333 2.35 28.2C0.783333 25.4333 0 22.2167 0 18.55C0 14.8833 0.783333 11.6833 2.35 8.94999C3.91667 6.18332 6.11667 4.04999 8.95 2.54999C11.7833 1.04999 15.0333 0.299988 18.7 0.299988C23.5333 0.299988 27.5667 1.44999 30.8 3.74999V9.79999C27.9 7.33332 24.05 6.09999 19.25 6.09999C16.6833 6.09999 14.4333 6.61665 12.5 7.64999C10.5667 8.64999 9.06667 10.0833 8 11.95C6.93333 13.8167 6.4 16.0167 6.4 18.55C6.4 21.0833 6.93333 23.2833 8 25.15C9.1 27.0167 10.6167 28.4667 12.55 29.5C14.4833 30.5 16.7167 31 19.25 31C21.7167 31 23.9167 30.7 25.85 30.1C27.7833 29.4667 29.5667 28.4667 31.2 27.1V33.15C28.1333 35.55 23.9667 36.75 18.7 36.75Z" fill="#2FC639"/>
</svg>
