<svg width="46" height="32" viewBox="0 0 46 32" fill="none" xmlns="http://www.w3.org/2000/svg">
<path d="M38.7902 0.696465C33.6383 -1.22562 27.8972 1.06105 25.3505 6.04946C23.7397 2.89485 20.7712 0.710094 17.3468 0.158809C13.9224 -0.392475 10.4463 0.754777 7.97419 3.25209C7.9656 3.26242 7.95623 3.27204 7.94619 3.28087L7.90139 3.31253C7.82286 3.36448 7.73159 3.39243 7.6382 3.39311C7.44845 3.39514 7.27523 3.28245 7.19581 3.10532C6.66652 1.26857 5.02759 0.00628843 3.16392 0H0V32H7.20981V13.4803C7.20981 10.0217 9.93758 7.21792 13.3024 7.21792C16.6673 7.21792 19.3951 10.0217 19.3951 13.4803V32H26.6049V13.4803C26.6049 10.0217 29.3327 7.21792 32.6975 7.21792C36.0624 7.21792 38.7902 10.0217 38.7902 13.4803V32H42.1193C44.3133 31.8281 46.0063 29.9448 46 27.6831V11.2758C46.0019 6.5413 43.1198 2.31219 38.7902 0.696465Z" fill="#0186FF"/>
</svg>
