<svg width="27" height="18" viewBox="0 0 27 18" fill="none" xmlns="http://www.w3.org/2000/svg">
<path d="M22.2622 0.391762C19.3054 -0.689413 16.0106 0.59684 14.549 3.40282C13.6245 1.62835 11.9209 0.399428 9.95557 0.0893302C7.99026 -0.220767 5.99524 0.424562 4.57649 1.8293C4.57156 1.83511 4.56619 1.84052 4.56042 1.84549L4.53471 1.8633C4.48964 1.89252 4.43726 1.90824 4.38366 1.90862C4.27476 1.90977 4.17535 1.84638 4.12977 1.74674C3.826 0.71357 2.8854 0.00353724 1.81581 0H0V18H4.1378V7.5827C4.1378 5.63721 5.7033 4.06008 7.63445 4.06008C9.56559 4.06008 11.1311 5.63721 11.1311 7.5827V18H15.2689V7.5827C15.2689 5.63721 16.8344 4.06008 18.7655 4.06008C20.6967 4.06008 22.2622 5.63721 22.2622 7.5827V18H24.1728C25.432 17.9033 26.4036 16.8439 26.4 15.5717V6.34266C26.4011 3.67948 24.747 1.30061 22.2622 0.391762Z" fill="white"/>
</svg>
