<svg width="68" height="45" viewBox="0 0 68 45" fill="none" xmlns="http://www.w3.org/2000/svg">
<path d="M33.3795 10.198L33.4406 9.91695L33.2285 9.72281L31.5678 8.20309L33.7431 7.99701L34.0441 7.9685L34.1586 7.68872L35 5.63401L35.8413 7.6887L35.9559 7.96849L36.2569 7.99701L38.4324 8.20315L36.7718 9.72245L36.5596 9.9166L36.6208 10.1976L37.1036 12.4171L35.2645 11.2703L34.9999 11.1052L34.7353 11.2703L32.8966 12.4175L33.3795 10.198Z" fill="#8591AA" stroke="#8591AA"/>
<path d="M44.9068 13.925L44.9679 13.644L44.7557 13.4499L43.718 12.5002L45.0691 12.3722L45.3701 12.3437L45.4847 12.0639L46 10.8054L46.5153 12.0639L46.6299 12.3437L46.9309 12.3722L48.2821 12.5002L47.2445 13.4496L47.0323 13.6438L47.0934 13.9248L47.3926 15.3001L46.2645 14.5966L45.9999 14.4316L45.7353 14.5967L44.6076 15.3003L44.9068 13.925Z" fill="#8591AA" stroke="#8591AA"/>
<path d="M22.9068 13.925L22.9679 13.644L22.7557 13.4499L21.718 12.5002L23.0691 12.3722L23.3701 12.3437L23.4847 12.0639L24 10.8054L24.5153 12.0639L24.6299 12.3437L24.9309 12.3722L26.2821 12.5002L25.2445 13.4496L25.0323 13.6438L25.0934 13.9248L25.3926 15.3001L24.2645 14.5966L23.9999 14.4316L23.7353 14.5967L22.6076 15.3003L22.9068 13.925Z" fill="#8591AA" stroke="#8591AA"/>
<rect x="0.5" y="0.5" width="67" height="44" rx="1.5" stroke="#D6DBE3"/>
<path d="M40 22.5C40 21.1667 40.6 18.3 43 17.5" stroke="#8591AA" stroke-width="0.7" stroke-linecap="round" stroke-dasharray="2 2"/>
<path d="M29 23C29 21.6667 28.4 18.8 26 18" stroke="#8591AA" stroke-width="0.7" stroke-linecap="round" stroke-dasharray="2 2"/>
<path d="M35 39V21H46.6471V39H35Z" fill="#D6DBE3" stroke="white"/>
<path d="M23.3516 39V21H34.9986V39H23.3516Z" fill="#D6DBE3" stroke="white"/>
<path d="M39.8483 25.9909L35 21H47.8571L52.5055 25.7851C52.6903 25.9753 52.5555 26.2941 52.2903 26.2941H40.5656C40.2953 26.2941 40.0366 26.1847 39.8483 25.9909Z" fill="#D6DBE3" stroke="white"/>
<path d="M30.1517 25.9909L35 21H22.1429L17.4945 25.7851C17.3097 25.9753 17.4445 26.2941 17.7097 26.2941H29.4344C29.7047 26.2941 29.9634 26.1847 30.1517 25.9909Z" fill="#D6DBE3" stroke="white"/>
<path d="M35 20.5V13" stroke="#8591AA" stroke-width="0.7" stroke-linecap="round" stroke-dasharray="2 2"/>
</svg>
