 <svg
      class="absolute bottom-0 right-0 z-10"
      width="16"
      height="16"
      viewBox="0 0 16 16"
      fill="none"
      xmlns="http://www.w3.org/2000/svg"
    >
      <path d="M8 16C12.4183 16 16 12.4183 16 8C16 3.58172 12.4183 0 8 0C3.58172 0 0 3.58172 0 8C0 12.4183 3.58172 16 8 16Z" fill="#0075FB" />
      <path
        d="M9.84372 4.39307H10.8475V2.67584C10.6743 2.65244 10.0787 2.59979 9.38511 2.59979C6.20919 2.59979 7.07327 6.13236 6.94682 6.64987H5.34924V8.5696H6.94636V13.4H8.9045V8.57005H10.437L10.6803 6.65032H8.90405C8.99018 5.37949 8.55539 4.39307 9.84372 4.39307Z"
        fill="white"
      />
    </svg>