<svg width="16" height="16" viewBox="0 0 16 16" fill="none" xmlns="http://www.w3.org/2000/svg">
<circle cx="8" cy="8" r="8" fill="url(#paint0_linear)"/>
<path d="M7.93044 13.5C7.84154 13.5006 7.75402 13.4778 7.67665 13.434C7.01429 13.0508 2.1086 9.97488 1.92334 9.88097C1.78235 9.81518 1.68607 9.6804 1.66955 9.52567V5.21132C1.66591 5.05028 1.74552 4.89873 1.88019 4.81034L1.91573 4.79004C2.3903 4.49565 3.97899 3.52619 4.23024 3.38661C4.2879 3.35239 4.35356 3.33401 4.42058 3.33331C4.48342 3.33402 4.54519 3.34968 4.60078 3.37899C4.60078 3.37899 6.82394 4.82811 7.16401 4.95754C7.40262 5.06717 7.66281 5.1218 7.92537 5.11742C8.22289 5.12364 8.51687 5.0519 8.77808 4.90932C9.11054 4.73421 11.2347 3.38661 11.2576 3.38661C11.3111 3.35426 11.3727 3.33756 11.4352 3.33839C11.5023 3.33872 11.568 3.35713 11.6256 3.39168C11.9149 3.55157 13.8842 4.75705 13.968 4.81034C14.1065 4.89391 14.1905 5.0445 14.1888 5.20625V9.5206C14.1733 9.67569 14.0767 9.81091 13.935 9.8759C13.7497 9.97741 8.8593 13.0533 8.18422 13.4289C8.10737 13.4745 8.01982 13.499 7.93044 13.5Z" fill="url(#paint1_linear)"/>
<path d="M7.90515 13.5L7.93053 13.5C8.01944 13.5006 8.10696 13.4779 8.18431 13.434C8.84669 13.0508 13.7498 9.97493 13.9351 9.88102C14.0768 9.81603 14.1733 9.68082 14.1889 9.52572V5.21137C14.1897 5.13834 14.1732 5.06615 14.1407 5.00073L7.90515 8.42429V13.5Z" fill="url(#paint2_linear)"/>
<path d="M7.88354 13.4392L7.85843 13.4392C7.77047 13.4398 7.68389 13.4173 7.60736 13.3739C6.95203 12.9948 2.10113 9.95166 1.91784 9.85875C1.77769 9.79445 1.68214 9.66068 1.66677 9.50724V5.23885C1.66596 5.16659 1.6823 5.09517 1.71447 5.03046L7.88354 8.41754V13.4392Z" fill="url(#paint3_linear)"/>
<path d="M4.33337 5.98114H4.97255V9.05665H6.07436V9.66373H4.33605L4.33337 5.98114Z" fill="white"/>
<path d="M7.55458 6.90377C7.89322 6.89953 8.21424 7.05389 8.42247 7.32097V6.9586H9.01878V9.66905H8.42247V9.30668C8.21424 9.57376 7.89322 9.72811 7.55458 9.72388C6.81113 9.72388 6.24683 9.08872 6.24683 8.31316C6.24683 7.53759 6.81113 6.90377 7.55458 6.90377V6.90377ZM7.66296 7.44666C7.18021 7.44666 6.86057 7.82643 6.86057 8.31316C6.86057 8.79989 7.1855 9.18099 7.66296 9.18099C8.14032 9.18099 8.46525 8.80122 8.46525 8.31316C8.46525 7.82508 8.14561 7.44666 7.66296 7.44666" fill="white"/>
<path d="M9.48291 9.19839L10.9043 7.50017H9.50425V6.95862H11.6745V7.43599L10.2585 9.12752H11.7066V9.66907H9.48291V9.19839" fill="white"/>
<defs>
<linearGradient id="paint0_linear" x1="8" y1="0" x2="8" y2="16" gradientUnits="userSpaceOnUse">
<stop stop-color="#1700C6"/>
<stop offset="1" stop-color="#130C75"/>
</linearGradient>
<linearGradient id="paint1_linear" x1="1.66183" y1="3.42622" x2="14.0661" y2="3.33014" gradientUnits="userSpaceOnUse">
<stop offset="1e-07" stop-color="#FF9200"/>
<stop offset="0.337553" stop-color="#F36D00"/>
<stop offset="0.56729" stop-color="#F83C72"/>
<stop offset="0.78" stop-color="#FC1CBE"/>
<stop offset="0.93" stop-color="#FE08ED"/>
<stop offset="1" stop-color="#FF00FF"/>
</linearGradient>
<linearGradient id="paint2_linear" x1="5.14663" y1="12.4391" x2="17.7934" y2="5.43667" gradientUnits="userSpaceOnUse">
<stop stop-color="#EE0A3F"/>
<stop offset="1" stop-color="#EE0A3F" stop-opacity="0"/>
</linearGradient>
<linearGradient id="paint3_linear" x1="6.37744" y1="10.6142" x2="0.26626" y2="5.69132" gradientUnits="userSpaceOnUse">
<stop stop-color="#ED6600"/>
<stop offset="1" stop-color="#F98200"/>
</linearGradient>
</defs>
</svg>
