<svg width="16" height="16" viewBox="0 0 16 16" fill="none" xmlns="http://www.w3.org/2000/svg">
<path d="M8 16C12.4183 16 16 12.4183 16 8C16 3.58172 12.4183 0 8 0C3.58172 0 0 3.58172 0 8C0 12.4183 3.58172 16 8 16Z" fill="#EA501F"/>
<path d="M3.54218 4.80188H5.79117C5.85986 4.03789 6.07192 3.35181 6.37656 2.82152C6.77977 2.12045 7.35321 1.68903 8.00133 1.68903C8.64945 1.68903 9.21991 2.12345 9.6261 2.82152C9.93074 3.34881 10.1428 4.03789 10.2115 4.80188H12.4575C12.7233 4.80188 12.9622 5.02058 12.9413 5.28723L12.4903 11.5998C12.4336 12.3908 11.9378 12.8432 11.218 12.8432H4.78465C3.98421 12.8432 3.5601 12.2829 3.51231 11.5998L3.05833 5.29022C3.04041 5.02358 3.27636 4.80188 3.54218 4.80188ZM6.35267 4.80188H9.64402C9.57831 4.13976 9.39612 3.55254 9.13628 3.10314C8.83761 2.57884 8.43142 2.25227 8.00133 2.25227C7.56826 2.25227 7.16505 2.57884 6.86041 3.10614C6.60057 3.55254 6.42136 4.14275 6.35267 4.80188Z" fill="white"/>
<path d="M6.36565 10.6291C6.26111 10.5572 6.23423 10.4164 6.30591 10.3115C6.3776 10.2066 6.51797 10.1797 6.6225 10.2516C6.68821 10.2965 6.75691 10.3415 6.83157 10.3864C7.35723 10.707 7.84108 10.8658 8.24429 10.8658C8.60866 10.8658 8.90435 10.7279 9.09251 10.4493C9.10446 10.4283 9.1164 10.4164 9.11939 10.4074C9.17315 10.3205 9.21198 10.2276 9.23886 10.1377C9.29262 9.95198 9.28366 9.76023 9.20899 9.58646C9.12835 9.40371 8.97304 9.22694 8.73112 9.08014C8.56984 8.98127 8.36973 8.89439 8.1278 8.82848C7.51254 8.65471 7.05856 8.40903 6.81365 8.07947C6.54485 7.71696 6.52394 7.27954 6.81067 6.74925C7.00182 6.39872 7.39307 6.18001 7.88887 6.14106C8.31597 6.1081 8.82968 6.20997 9.35235 6.47661C9.46585 6.53354 9.51065 6.67135 9.45091 6.7852C9.39118 6.89905 9.25678 6.94399 9.14328 6.88407C8.69827 6.65637 8.27415 6.56949 7.92172 6.59645C7.58422 6.62342 7.32737 6.75524 7.21387 6.96496C7.02272 7.31549 7.02571 7.59113 7.18102 7.80085C7.36022 8.04352 7.73356 8.23227 8.25325 8.37907C8.534 8.45997 8.77293 8.56183 8.97006 8.68167C9.29561 8.87941 9.51364 9.12808 9.63012 9.39772C9.74959 9.67635 9.76452 9.96995 9.68388 10.2576C9.64804 10.3864 9.59129 10.5152 9.51364 10.6411C9.49572 10.668 9.48377 10.689 9.47481 10.704C9.19704 11.1144 8.76995 11.3182 8.25026 11.3212C7.76343 11.3212 7.19595 11.1414 6.59861 10.7759C6.52394 10.7339 6.44629 10.686 6.36565 10.6291Z" fill="#EA501F"/>
</svg>
