<svg width="35" height="35" viewBox="0 0 35 35" fill="none" xmlns="http://www.w3.org/2000/svg">
<path d="M17.5 35C27.165 35 35 27.165 35 17.5C35 7.83502 27.165 0 17.5 0C7.83502 0 0 7.83502 0 17.5C0 27.165 7.83502 35 17.5 35Z" fill="#F0F0F0"/>
<path fill-rule="evenodd" clip-rule="evenodd" d="M22.065 0.602844C24.3044 1.20646 26.3657 2.24299 28.1542 3.61763L22.065 9.70674V0.602844ZM0.602905 12.9348C1.20645 10.6955 2.24298 8.63408 3.61762 6.84559L9.70687 12.9348H0.602905ZM31.3824 6.84568C32.757 8.63417 33.7936 10.6955 34.3971 12.9349H25.2933L31.3824 6.84568ZM0.602905 22.0654C1.20652 24.3047 2.24305 26.3661 3.61762 28.1545L9.70667 22.0654H0.602905ZM6.84565 31.3824C8.63414 32.757 10.6955 33.7935 12.9348 34.3971V25.2933L6.84565 31.3824ZM6.84565 3.61756C8.63407 2.24299 10.6954 1.20646 12.9348 0.602844V9.70667L6.84565 3.61756ZM22.0652 34.3971C24.3045 33.7935 26.3659 32.757 28.1543 31.3824L22.0652 25.2933V34.3971ZM31.3824 28.1546L25.2933 22.0654H34.3971C33.7936 24.3047 32.757 26.3661 31.3824 28.1546Z" fill="#0052B4"/>
<path fill-rule="evenodd" clip-rule="evenodd" d="M34.8519 15.2174H19.7827H19.7827V0.148135C19.0354 0.0508594 18.2736 0 17.5 0C16.7262 0 15.9646 0.0508594 15.2174 0.148135V15.2173V15.2173H0.148135C0.0508594 15.9646 0 16.7264 0 17.5C0 18.2738 0.0508594 19.0354 0.148135 19.7826H15.2173H15.2173V34.8519C15.9646 34.9491 16.7262 35 17.5 35C18.2736 35 19.0354 34.9492 19.7826 34.8519V19.7827V19.7827H34.8519C34.9491 19.0354 35 18.2738 35 17.5C35 16.7264 34.9491 15.9646 34.8519 15.2174ZM22.0652 22.0654L29.8743 29.8745C30.2335 29.5154 30.5761 29.1401 30.903 28.751L24.2173 22.0653H22.0652V22.0654ZM12.9346 22.0654H12.9348V24.2173L6.24907 30.9031C5.85997 30.5762 5.48461 30.2336 5.12559 29.8744L12.9346 22.0654ZM12.9347 12.9348V12.9348L5.12562 5.12559C4.76646 5.48461 4.42384 5.85997 4.09695 6.24907L10.7827 12.9348H12.9347ZM29.8744 5.12572L22.0652 12.935V10.7829L28.7509 4.09712C29.14 4.42395 29.5154 4.76656 29.8744 5.12572Z" fill="#D80027"/>
</svg>
