<svg width="18" height="26" viewBox="0 0 18 26" fill="none" xmlns="http://www.w3.org/2000/svg">
<path d="M17.55 23.0069V25.5667C17.55 25.806 17.356 26 17.1167 26C16.8774 26 16.6833 25.806 16.6833 25.5667V23.0069C16.6833 21.0139 15.0705 19.4009 13.0773 19.401C12.1343 19.401 11.2785 18.9205 10.7883 18.1157C10.6638 17.9113 10.7286 17.6447 10.9329 17.5202C11.1373 17.3957 11.4039 17.4605 11.5285 17.6649C11.8601 18.2093 12.4391 18.5343 13.0773 18.5343C15.5494 18.5342 17.55 20.5347 17.55 23.0069ZM11.5044 19.8512C11.6585 20.0342 11.635 20.3076 11.4519 20.4617C10.8138 20.9989 10.0298 21.3298 9.20833 21.4165V23.4C9.20833 23.6393 9.01431 23.8333 8.775 23.8333C8.53569 23.8333 8.34167 23.6393 8.34167 23.4V21.4173C7.0012 21.277 5.80894 20.4921 5.15011 19.3147C4.9316 19.3713 4.70448 19.4009 4.47276 19.4009C2.47515 19.4009 0.866667 21.0177 0.866667 23.0069V25.5667C0.866667 25.806 0.672642 26 0.433333 26C0.194025 26 0 25.806 0 25.5667V23.0069C0 20.535 2.00032 18.5343 4.4726 18.5343C5.47246 18.5343 6.28333 17.7288 6.28333 16.7283V16.6142C4.39189 15.7097 3.06426 13.8092 2.98334 11.596C2.20496 11.4089 1.625 10.7122 1.625 9.88325V4.60417C1.625 3.6589 2.32045 2.873 3.22649 2.73114C4.00481 1.06329 5.6621 0 7.52115 0H11.2374C13.852 0 15.9792 2.12718 15.9792 4.7418V9.88325C15.9792 10.1226 15.7851 10.3166 15.5458 10.3166C15.3065 10.3166 15.1125 10.1226 15.1125 9.88325V4.7418C15.1125 2.60504 13.3741 0.866667 11.2374 0.866667H7.52115C5.9274 0.866667 4.51506 1.82282 3.92318 3.3026C3.85737 3.4671 3.69801 3.575 3.52083 3.575C2.95333 3.575 2.49167 4.03666 2.49167 4.60417V9.88325C2.49167 10.2271 2.6897 10.5259 2.97917 10.676V7.86679C2.97917 6.19423 4.33994 4.83345 6.0125 4.83345H11.5375C13.2101 4.83345 14.5708 6.19412 14.5708 7.86662V11.4147C14.5708 15.1833 10.8882 18.0458 7.14079 16.9426C7.07341 17.7964 6.61055 18.522 5.94604 18.9608C6.97873 20.7052 9.3347 21.1111 10.8937 19.7987C11.0767 19.6447 11.3501 19.6681 11.5044 19.8512ZM8.775 16.3109C11.493 16.3109 13.7042 14.0997 13.7042 11.3818V7.86662C13.7042 6.67203 12.7322 5.70012 11.5375 5.70012H6.0125C4.8178 5.70012 3.84583 6.67209 3.84583 7.86679V11.3818C3.84583 14.0997 6.05703 16.3109 8.775 16.3109Z" fill="#71747D"/>
</svg>
