<svg width="20" height="22" viewBox="0 0 20 22" fill="none" xmlns="http://www.w3.org/2000/svg">
<path d="M19.2495 10.5704H16.0693V0.429721C16.0693 0.255955 15.9646 0.0992483 15.8041 0.0327326C15.6435 -0.033826 15.4587 0.00304119 15.3358 0.125846L14.1186 1.34307L12.9014 0.125889C12.7336 -0.0419041 12.4615 -0.0419041 12.2937 0.125889L11.0765 1.34311L9.85937 0.125889C9.69158 -0.0419041 9.4195 -0.0419041 9.25166 0.125889L8.03444 1.34311L6.81718 0.125889C6.64939 -0.0419041 6.37731 -0.0419041 6.20952 0.125889L4.9923 1.34311L3.77516 0.125889C3.60737 -0.0419041 3.33529 -0.0419041 3.16746 0.125889L1.95024 1.34311L0.733062 0.125889C0.5663 -0.0408729 0.296586 -0.0417323 0.128363 0.123526C0.040019 0.210366 -0.0028209 0.32608 0.000143941 0.441022V19.7657C0.000143941 20.9977 1.00243 22 2.23443 22H17.4443C17.4444 22 17.4445 22 17.4446 22C17.4447 22 17.4448 22 17.4449 22C18.6769 22 19.6792 20.9977 19.6792 19.7657V11C19.6792 10.7627 19.4869 10.5704 19.2495 10.5704ZM2.23443 21.1406C1.47625 21.1406 0.859476 20.5238 0.859476 19.7657V1.46763L1.64641 2.25456C1.8142 2.42235 2.08628 2.42235 2.25411 2.25456L3.47133 1.03734L4.68855 2.25456C4.85634 2.42235 5.12842 2.42235 5.29626 2.25456L6.51348 1.03734L7.73074 2.25456C7.89853 2.42235 8.17061 2.42235 8.3384 2.25456L9.55562 1.03734L10.7728 2.25456C10.9406 2.42235 11.2127 2.42235 11.3806 2.25456L12.5978 1.03734L13.815 2.25456C13.9828 2.42235 14.2549 2.42235 14.4227 2.25456L15.2102 1.46703V11C15.2102 11.0039 15.2107 11.0077 15.2108 11.0116V19.7657C15.2108 20.284 15.3887 20.7612 15.6859 21.1406H2.23443ZM18.8199 19.7657C18.8199 20.5238 18.203 21.1406 17.4449 21.1406C16.6868 21.1406 16.0699 20.5238 16.0699 19.7657V11.4297H18.8199V19.7657Z" fill="#71747D"/>
<path d="M8.03475 6.82573C7.60828 6.82573 7.26135 6.52865 7.26135 6.16354C7.26135 5.79839 7.60833 5.50131 8.03475 5.50131C8.46121 5.50131 8.80814 5.79839 8.80814 6.16354C8.80814 6.40086 9.00051 6.59323 9.23783 6.59323C9.47515 6.59323 9.66752 6.40086 9.66752 6.16354C9.66752 5.46311 9.15688 4.87211 8.46443 4.69586V4.40479C8.46443 4.16747 8.27206 3.9751 8.03475 3.9751C7.79743 3.9751 7.60506 4.16747 7.60506 4.40479V4.69586C6.91258 4.87211 6.40198 5.46315 6.40198 6.16354C6.40198 7.00251 7.13447 7.68506 8.03475 7.68506C8.46121 7.68506 8.80814 7.98215 8.80814 8.3473C8.80814 8.71245 8.46121 9.00949 8.03475 9.00949C7.60828 9.00949 7.26135 8.7124 7.26135 8.3473C7.26135 8.10998 7.06898 7.91761 6.83167 7.91761C6.59435 7.91761 6.40198 8.10998 6.40198 8.3473C6.40198 9.04773 6.91262 9.63873 7.60506 9.81498V10.1656C7.60506 10.4029 7.79743 10.5953 8.03475 10.5953C8.27206 10.5953 8.46443 10.4029 8.46443 10.1656V9.81498C9.15692 9.63873 9.66752 9.04773 9.66752 8.3473C9.66752 7.50833 8.93503 6.82573 8.03475 6.82573Z" fill="#71747D"/>
<path d="M12.3516 6.82568H11.5142C11.2768 6.82568 11.0845 7.01805 11.0845 7.25537C11.0845 7.49269 11.2768 7.68506 11.5142 7.68506H12.3516C12.5889 7.68506 12.7813 7.49269 12.7813 7.25537C12.7813 7.01805 12.5889 6.82568 12.3516 6.82568Z" fill="#71747D"/>
<path d="M4.55536 6.82568H3.7179C3.48058 6.82568 3.28821 7.01805 3.28821 7.25537C3.28821 7.49269 3.48058 7.68506 3.7179 7.68506H4.55536C4.79267 7.68506 4.98504 7.49269 4.98504 7.25537C4.98504 7.01805 4.79267 6.82568 4.55536 6.82568Z" fill="#71747D"/>
<path d="M12.569 11.6018H5.76178C5.52446 11.6018 5.33209 11.7942 5.33209 12.0315C5.33209 12.2688 5.52446 12.4612 5.76178 12.4612H12.569C12.8063 12.4612 12.9987 12.2688 12.9987 12.0315C12.9987 11.7942 12.8063 11.6018 12.569 11.6018Z" fill="#71747D"/>
<path d="M3.80416 11.7277C3.72423 11.6478 3.61337 11.6018 3.50037 11.6018C3.38736 11.6018 3.2765 11.6478 3.19658 11.7277C3.11666 11.8076 3.07068 11.9185 3.07068 12.0315C3.07068 12.1445 3.11666 12.2554 3.19658 12.3353C3.2765 12.4152 3.38736 12.4612 3.50037 12.4612C3.61337 12.4612 3.72423 12.4152 3.80416 12.3353C3.88408 12.2554 3.93005 12.1445 3.93005 12.0315C3.93005 11.9185 3.88408 11.8076 3.80416 11.7277Z" fill="#71747D"/>
<path d="M12.569 14.4377H5.76178C5.52446 14.4377 5.33209 14.6301 5.33209 14.8674C5.33209 15.1047 5.52446 15.2971 5.76178 15.2971H12.569C12.8063 15.2971 12.9987 15.1047 12.9987 14.8674C12.9987 14.6301 12.8063 14.4377 12.569 14.4377Z" fill="#71747D"/>
<path d="M3.80416 14.5636C3.72423 14.4837 3.61337 14.4377 3.50037 14.4377C3.38736 14.4377 3.2765 14.4837 3.19658 14.5636C3.11666 14.6436 3.07068 14.7544 3.07068 14.8674C3.07068 14.9804 3.11666 15.0913 3.19658 15.1712C3.2765 15.2511 3.38736 15.2971 3.50037 15.2971C3.61337 15.2971 3.72423 15.2511 3.80416 15.1712C3.88408 15.0913 3.93005 14.9804 3.93005 14.8674C3.93005 14.7544 3.88408 14.6436 3.80416 14.5636Z" fill="#71747D"/>
<path d="M12.569 17.2734H5.76178C5.52446 17.2734 5.33209 17.4658 5.33209 17.7031C5.33209 17.9404 5.52446 18.1328 5.76178 18.1328H12.569C12.8063 18.1328 12.9987 17.9404 12.9987 17.7031C12.9987 17.4658 12.8063 17.2734 12.569 17.2734Z" fill="#71747D"/>
<path d="M3.80416 17.3993C3.72423 17.3194 3.61337 17.2734 3.50037 17.2734C3.38736 17.2734 3.2765 17.3194 3.19658 17.3993C3.11666 17.4793 3.07068 17.5901 3.07068 17.7031C3.07068 17.8161 3.11666 17.927 3.19658 18.0069C3.2765 18.0868 3.38736 18.1328 3.50037 18.1328C3.61337 18.1328 3.72423 18.0868 3.80416 18.0069C3.88408 17.927 3.93005 17.8161 3.93005 17.7031C3.93005 17.5901 3.88408 17.4793 3.80416 17.3993Z" fill="#71747D"/>
</svg>
