<svg width="25" height="26" viewBox="0 0 25 26" fill="none" xmlns="http://www.w3.org/2000/svg">
<path d="M24.1565 5.73683L12.3515 0.0378574C12.2468 -0.0126191 12.1249 -0.0126191 12.0203 0.0378574L0.215262 5.73683C0.0836367 5.80036 0 5.93366 0 6.0798V19.9202C0 20.0663 0.0836367 20.1996 0.215262 20.2631L12.0203 25.9621C12.0726 25.9874 12.1292 26 12.1859 26C12.2425 26 12.2991 25.9874 12.3515 25.9621L24.1565 20.2631C24.2881 20.1996 24.3717 20.0663 24.3717 19.9202V6.07986C24.3717 5.93361 24.288 5.80041 24.1565 5.73683ZM12.1859 0.80379L23.1148 6.0798L19.9468 7.60923C19.9267 7.59395 19.9055 7.57983 19.8823 7.56861L9.02753 2.3285L12.1859 0.80379ZM8.16739 2.75912L19.0805 8.02747L16.8453 9.10652L5.93678 3.8403L8.16739 2.75912ZM19.3358 8.74998V12.7386L17.248 13.7465V9.75789L19.3358 8.74998ZM23.61 19.6812L12.5667 25.0123V12.0178L15.2009 10.7461C15.3903 10.6547 15.4697 10.427 15.3783 10.2376C15.2868 10.0482 15.0592 9.96868 14.8697 10.0602L12.1859 11.3559L11.1298 10.846C10.9404 10.7545 10.7127 10.834 10.6212 11.0234C10.5298 11.2128 10.6092 11.4405 10.7986 11.532L11.805 12.0178V25.0123L0.761718 19.6811V6.68659L9.17109 10.7463C9.22446 10.7721 9.28087 10.7843 9.33638 10.7843C9.47796 10.7843 9.61395 10.705 9.67961 10.5689C9.77106 10.3795 9.69164 10.1518 9.50223 10.0603L1.25689 6.0798L5.04034 4.25331L16.481 9.77642C16.4827 9.77876 16.4846 9.78084 16.4863 9.78312V14.3534C16.4863 14.4844 16.5537 14.6063 16.6647 14.676C16.7264 14.7147 16.7967 14.7342 16.8672 14.7342C16.9237 14.7342 16.9803 14.7217 17.0328 14.6964L19.8823 13.3207C20.0139 13.2572 20.0975 13.124 20.0975 12.9778V8.38233L23.61 6.68664V19.6812Z" fill="#71747D"/>
<path d="M3.90483 18.2039L2.17243 17.3676C1.98291 17.276 1.75531 17.3556 1.66386 17.545C1.5724 17.7344 1.65182 17.9621 1.84123 18.0536L3.57364 18.8899C3.62701 18.9157 3.68342 18.9279 3.73893 18.9279C3.88051 18.9279 4.0165 18.8485 4.08216 18.7125C4.17367 18.523 4.09424 18.2954 3.90483 18.2039Z" fill="#71747D"/>
<path d="M5.49917 17.1663L2.17478 15.5614C1.98531 15.47 1.75766 15.5494 1.6662 15.7388C1.5748 15.9283 1.65422 16.156 1.84363 16.2474L5.16803 17.8523C5.2214 17.878 5.27781 17.8903 5.33332 17.8903C5.4749 17.8903 5.61089 17.811 5.67655 17.6749C5.76801 17.4854 5.68858 17.2577 5.49917 17.1663Z" fill="#71747D"/>
</svg>
