<svg width="27" height="27" viewBox="0 0 27 27" fill="none" xmlns="http://www.w3.org/2000/svg">
<path d="M25.1565 5.73683L13.3515 0.0378574C13.2468 -0.0126191 13.1249 -0.0126191 13.0203 0.0378574L1.21526 5.73683C1.08364 5.80036 1 5.93366 1 6.0798V19.9202C1 20.0663 1.08364 20.1996 1.21526 20.2631L13.0203 25.9621C13.0726 25.9874 13.1292 26 13.1859 26C13.2425 26 13.2991 25.9874 13.3515 25.9621L25.1565 20.2631C25.2881 20.1996 25.3717 20.0663 25.3717 19.9202V6.07986C25.3717 5.93361 25.288 5.80041 25.1565 5.73683ZM13.1859 0.80379L24.1148 6.0798L20.9468 7.60923C20.9267 7.59395 20.9055 7.57983 20.8823 7.56861L10.0275 2.3285L13.1859 0.80379ZM9.16739 2.75912L20.0805 8.02747L17.8453 9.10652L6.93678 3.8403L9.16739 2.75912ZM20.3358 8.74998V12.7386L18.248 13.7465V9.75789L20.3358 8.74998ZM24.61 19.6812L13.5667 25.0123V12.0178L16.2009 10.7461C16.3903 10.6547 16.4697 10.427 16.3783 10.2376C16.2868 10.0482 16.0592 9.96868 15.8697 10.0602L13.1859 11.3559L12.1298 10.846C11.9404 10.7545 11.7127 10.834 11.6212 11.0234C11.5298 11.2128 11.6092 11.4405 11.7986 11.532L12.805 12.0178V25.0123L1.76172 19.6811V6.68659L10.1711 10.7463C10.2245 10.7721 10.2809 10.7843 10.3364 10.7843C10.478 10.7843 10.6139 10.705 10.6796 10.5689C10.7711 10.3795 10.6916 10.1518 10.5022 10.0603L2.25689 6.0798L6.04034 4.25331L17.481 9.77642C17.4827 9.77876 17.4846 9.78084 17.4863 9.78312V14.3534C17.4863 14.4844 17.5537 14.6063 17.6647 14.676C17.7264 14.7147 17.7967 14.7342 17.8672 14.7342C17.9237 14.7342 17.9803 14.7217 18.0328 14.6964L20.8823 13.3207C21.0139 13.2572 21.0975 13.124 21.0975 12.9778V8.38233L24.61 6.68664V19.6812Z" fill="#71747D"/>
<path d="M4.9048 18.2039L3.1724 17.3676C2.98288 17.276 2.75528 17.3556 2.66383 17.545C2.57237 17.7344 2.65179 17.9621 2.8412 18.0536L4.57361 18.8899C4.62698 18.9157 4.68339 18.9279 4.7389 18.9279C4.88048 18.9279 5.01647 18.8485 5.08213 18.7125C5.17364 18.523 5.09421 18.2954 4.9048 18.2039Z" fill="#71747D"/>
<path d="M6.4992 17.1663L3.17481 15.5614C2.98534 15.47 2.75769 15.5494 2.66624 15.7388C2.57483 15.9283 2.65425 16.156 2.84366 16.2474L6.16806 17.8523C6.22143 17.878 6.27785 17.8903 6.33335 17.8903C6.47493 17.8903 6.61092 17.811 6.67658 17.6749C6.76804 17.4854 6.68861 17.2577 6.4992 17.1663Z" fill="#71747D"/>
<line x1="25.8094" y1="0.353553" x2="0.35352" y2="25.8094" stroke="#EA6161"/>
</svg>
