<svg width="26" height="25" viewBox="0 0 26 25" fill="none" xmlns="http://www.w3.org/2000/svg">
<path d="M24.4166 10.4403H23.1056C23.031 10.17 22.8703 9.93132 22.6479 9.7604C22.4256 9.58948 22.1536 9.4956 21.8732 9.49296H20.4737V6.07064C20.4753 6.00662 20.4598 5.94333 20.4288 5.88727C20.3979 5.8312 20.3526 5.78437 20.2976 5.75159L10.4251 0.0493779C10.3695 0.0170364 10.3063 0 10.2419 0C10.1775 0 10.1143 0.0170364 10.0587 0.0493779L0.18316 5.75159C0.127282 5.78398 0.0809288 5.83053 0.0487732 5.88654C0.0166175 5.94255 -0.000204717 6.00605 1.88023e-06 6.07064V17.4751C3.5231e-06 17.5398 0.0170276 17.6033 0.0493633 17.6593C0.0816989 17.7153 0.128207 17.7618 0.184212 17.7942L10.0607 23.4964C10.1167 23.5287 10.1803 23.5457 10.2449 23.5457C10.3113 23.5458 10.3765 23.5288 10.4344 23.4964L15.6316 20.4986V22.6657C15.631 22.872 15.6714 23.0764 15.7504 23.267C15.8294 23.4576 15.9454 23.6306 16.0917 23.7761C16.238 23.9216 16.4118 24.0366 16.6028 24.1144C16.7939 24.1923 16.9985 24.2315 17.2048 24.2298H24.4166C24.6235 24.2317 24.8287 24.1927 25.0204 24.115C25.2121 24.0373 25.3865 23.9225 25.5337 23.7771C25.6809 23.6318 25.7978 23.4587 25.8779 23.268C25.9579 23.0772 25.9994 22.8725 26 22.6657V12.0289C25.9998 11.6085 25.833 11.2054 25.5363 10.9077C25.2395 10.61 24.837 10.4419 24.4166 10.4403ZM21.8863 10.2298C22.0281 10.2298 22.1641 10.2861 22.2644 10.3864C22.3647 10.4867 22.4211 10.6228 22.4211 10.7646V10.8003C22.4211 10.9421 22.3647 11.0781 22.2644 11.1784C22.1641 11.2787 22.0281 11.3351 21.8863 11.3351H19.7453C19.6035 11.3351 19.4675 11.2787 19.3672 11.1784C19.2669 11.0781 19.2105 10.9421 19.2105 10.8003V10.7646C19.2105 10.6228 19.2669 10.4867 19.3672 10.3864C19.4675 10.2861 19.6035 10.2298 19.7453 10.2298H21.8863ZM10.2449 0.793851L14.3488 3.16322L5.20979 8.43964L1.10595 6.07027L10.2449 0.793851ZM9.89474 22.5392L0.736844 17.2624V6.70796L9.89474 11.9847V22.5392ZM10.2449 11.3466L5.94663 8.86501L15.0857 3.58864L19.3842 6.07027L10.2449 11.3466ZM15.6316 12.0289V19.6479L10.6316 22.5392V11.9847L19.7368 6.70796V9.49296H19.7483C19.4678 9.49559 19.1958 9.58947 18.9735 9.76039C18.7511 9.93131 18.5905 10.17 18.5158 10.4403H17.2048C16.7855 10.4424 16.3842 10.6109 16.0892 10.9088C15.7942 11.2067 15.6296 11.6096 15.6316 12.0289ZM25.2632 22.6657C25.2627 22.7758 25.2403 22.8847 25.1973 22.9861C25.1544 23.0875 25.0917 23.1794 25.0129 23.2564C24.9341 23.3333 24.8409 23.3939 24.7385 23.4345C24.6362 23.4751 24.5267 23.495 24.4166 23.493H17.2048C17.0952 23.4948 16.9864 23.4747 16.8847 23.4339C16.783 23.3931 16.6904 23.3324 16.6125 23.2553C16.5346 23.1783 16.4729 23.0864 16.431 22.9852C16.389 22.8839 16.3678 22.7753 16.3684 22.6657V12.0289C16.3673 11.918 16.3881 11.808 16.4295 11.7052C16.471 11.6023 16.5323 11.5087 16.61 11.4296C16.6877 11.3505 16.7802 11.2874 16.8823 11.2441C16.9843 11.2008 17.0939 11.1781 17.2048 11.1772H18.5302C18.6092 11.438 18.7706 11.6661 18.9902 11.8274C19.2098 11.9887 19.4758 12.0745 19.7483 12.0719H21.8732C22.1456 12.0745 22.4116 11.9887 22.6312 11.8274C22.8508 11.6661 23.0122 11.438 23.0912 11.1772H24.4166C24.6416 11.1786 24.8569 11.2689 25.0155 11.4285C25.1741 11.5881 25.2631 11.8039 25.2632 12.0289V22.6657Z" fill="#71747D"/>
</svg>
