<svg width="29" height="34" viewBox="0 0 29 34" fill="none" xmlns="http://www.w3.org/2000/svg">
<path d="M14.5393 4.30821C15.3414 4.30821 15.9938 4.85471 15.9938 5.52638C15.9938 6.13641 16.4884 6.63111 17.0984 6.63111C17.7083 6.63111 18.2029 6.13641 18.2029 5.52638C18.2029 3.99645 17.1258 2.69763 15.6438 2.25828V2.10472C15.6438 1.4947 15.1492 1 14.5393 1C13.9294 1 13.4348 1.4947 13.4348 2.10472V2.25828C11.9529 2.69774 10.8757 3.99645 10.8757 5.52638C10.8757 7.41635 12.5193 8.9539 14.5393 8.9539C15.3414 8.9539 15.9938 9.5003 15.9938 10.172C15.9938 10.8436 15.3414 11.3901 14.5393 11.3901C13.7372 11.3901 13.0848 10.8436 13.0848 10.172C13.0848 9.56194 12.5902 9.06724 11.9802 9.06724C11.3703 9.06724 10.8757 9.56194 10.8757 10.172C10.8757 11.7019 11.9529 13.0007 13.4348 13.4401V13.5938C13.4348 14.2039 13.9294 14.6986 14.5393 14.6986C15.1492 14.6986 15.6438 14.2039 15.6438 13.5938V13.4403C17.1258 13.0008 18.2029 11.7021 18.2029 10.1722C18.2029 8.28212 16.5594 6.74456 14.5393 6.74456C13.7372 6.74456 13.0848 6.19817 13.0848 5.52649C13.0848 4.85482 13.7372 4.30821 14.5393 4.30821Z" fill="#71747D" stroke="white"/>
<path d="M24.2559 9.34707C24.7474 9.52598 25.0255 10.0059 24.876 10.4169C24.7401 10.7902 24.933 11.2032 25.3068 11.3392C25.6806 11.4753 26.0939 11.2829 26.2297 10.9096C26.5705 9.97349 26.1996 8.93849 25.3893 8.3391L25.4235 8.24514C25.5594 7.87187 25.3664 7.45884 24.9926 7.3228C24.6188 7.18675 24.2056 7.37913 24.0697 7.7524L24.0355 7.84636C23.0294 7.78471 22.0801 8.33912 21.7394 9.27528C21.3184 10.4317 21.9832 11.7391 23.2212 12.1897C23.7128 12.3686 23.9909 12.8485 23.8413 13.2595C23.6917 13.6705 23.1702 13.8594 22.6786 13.6805C22.1871 13.5015 21.9089 13.0216 22.0585 12.6106C22.1944 12.2373 22.0014 11.8243 21.6277 11.6883C21.2539 11.5522 20.8406 11.7446 20.7047 12.1179C20.364 13.054 20.7349 14.089 21.5452 14.6884L21.5109 14.7825C21.3751 15.1558 21.568 15.5688 21.9418 15.7049C22.3156 15.8409 22.7289 15.6485 22.8647 15.2753L22.8989 15.1813C23.905 15.2429 24.8543 14.6885 25.1951 13.7524C25.616 12.5959 24.9512 11.2884 23.7133 10.8379C23.2217 10.6589 22.9435 10.1791 23.0931 9.76808C23.2427 9.35709 23.7643 9.16815 24.2559 9.34707Z" fill="#71747D" stroke="white" stroke-width="0.5"/>
<path d="M4.68963 11.4883C8.6111 11.4883 11.8014 14.665 11.8014 18.5697V21.3107L13.7176 23.2186L13.7174 13.6522C14.1421 13.712 14.576 13.7429 15.0171 13.7429L15.0423 13.7425L15.0424 28.9057L16.9586 26.9978V24.2566C16.9586 20.3519 20.1489 17.1753 24.0704 17.1753H27.0976C27.4634 17.1753 27.76 17.4706 27.76 17.8348V20.8492C27.76 24.7539 24.5697 27.9305 20.6482 27.9305H17.8954L15.0424 30.7713V31.5381H21.6768C22.0426 31.5381 22.3392 31.8335 22.3392 32.1977C22.3392 32.5619 22.0426 32.8572 21.6768 32.8572H7.0832C6.71743 32.8572 6.42082 32.5619 6.42082 32.1977C6.42082 31.8335 6.71743 31.5381 7.0832 31.5381H13.7176V25.0842L10.8647 22.2435H8.1118C4.19034 22.2435 1 19.0668 1 15.1621V12.1478C1 11.7836 1.29661 11.4883 1.66238 11.4883H4.68963ZM26.4352 18.4944H24.0704C20.8794 18.4944 18.2833 21.0793 18.2833 24.2567V25.6787L21.2084 22.7661C21.4673 22.5086 21.8866 22.5087 22.1452 22.7661C22.4039 23.0237 22.4039 23.4414 22.1452 23.6989L19.2201 26.6115H20.6482C23.8392 26.6115 26.4352 24.0265 26.4352 20.8492V18.4944ZM4.68963 12.8073H2.32475V15.1621C2.32475 18.3394 4.9208 20.9244 8.1118 20.9244H9.53995L6.61477 18.0117C6.35611 17.7541 6.35611 17.3365 6.61477 17.079C6.87356 16.8215 7.29284 16.8215 7.55156 17.079L10.4767 19.9916V18.5696C10.4767 15.3922 7.88063 12.8073 4.68963 12.8073Z" fill="#71747D" stroke="white" stroke-width="0.5"/>
</svg>
