<svg width="26" height="26" viewBox="0 0 26 26" fill="none" xmlns="http://www.w3.org/2000/svg">
<path d="M20.1187 14.8722V9.32334C20.1244 6.71611 18.1251 4.51819 15.4679 4.21048L16.8237 1.57344C16.8869 1.45036 16.8799 1.30405 16.8052 1.18696C16.7305 1.07007 16.5991 0.999238 16.4576 1.00001H9.13562C8.9946 1.00001 8.86371 1.07104 8.78942 1.18793C8.71533 1.30463 8.70858 1.45055 8.77154 1.57344L10.1258 4.21048C7.47295 4.52632 5.47799 6.7194 5.47461 9.32334V16.4576H6.28817V9.32334C6.29115 6.91661 8.29267 4.96641 10.7627 4.9635H14.8305C16.0177 4.96176 17.157 5.42062 17.9964 6.23867C18.8359 7.05653 19.3069 8.16662 19.3051 9.32334V14.8722H20.1187ZM14.5791 4.17081H11.0142L9.79386 1.79271H15.7994L14.5791 4.17081Z" fill="#71747D" stroke="#71747D" stroke-width="0.3"/>
<path d="M2.14082 20.681L8.93164 24.3661C9.6959 24.7817 10.5529 24.9998 11.424 25H24.6C24.8209 25 25 24.8218 25 24.602V17.4383C25 17.2185 24.8209 17.0403 24.6 17.0403H21.5389L21.4932 17.0049C21.0234 16.64 20.5041 16.343 19.9508 16.1225C18.01 15.3345 15.8061 15.5282 14.034 16.6423H11C10.3631 16.6421 9.76406 16.9439 9.38711 17.4548C9.01035 17.9657 8.90059 18.6246 9.0916 19.2292L4.14688 16.7641C3.4125 16.3972 2.53184 16.481 1.88086 16.9798C1.32735 17.3924 1.00118 18.0397 1 18.7278V18.7715C0.999027 19.5681 1.43692 20.3013 2.14082 20.681ZM21.8 17.8362H24.2V24.204H21.8V17.8362ZM1.8 18.7278C1.80293 18.2822 2.01797 17.8642 2.37969 17.6015C2.78692 17.2958 3.3334 17.247 3.78887 17.4758L10.0213 20.58C10.0766 20.6078 10.1379 20.6221 10.2 20.6221H16.2V19.8262H11C10.3373 19.8262 9.8 19.2916 9.8 18.6322C9.8 17.9729 10.3373 17.4383 11 17.4383H14.152C14.2303 17.4381 14.3068 17.4153 14.3725 17.3726C15.9396 16.3457 17.9152 16.1541 19.6523 16.8607C20.1357 17.0535 20.5895 17.3129 21 17.6312V24.204H11.424C10.6869 24.2038 9.96192 24.0192 9.31524 23.6675L2.52246 19.9818C2.07637 19.7411 1.79903 19.2764 1.8 18.7715V18.7278Z" fill="#71747D" stroke="#71747D" stroke-width="0.3"/>
</svg>
