<svg width="26" height="19" viewBox="0 0 26 19" fill="none" xmlns="http://www.w3.org/2000/svg">
<path d="M6.06671 13.4336C4.6328 13.4336 3.46671 14.5997 3.46671 16.0336C3.46671 17.4675 4.6328 18.6336 6.06671 18.6336C7.50062 18.6336 8.66672 17.4675 8.66672 16.0336C8.66672 14.5997 7.50057 13.4336 6.06671 13.4336ZM6.06671 17.7669C5.11075 17.7669 4.33339 16.9895 4.33339 16.0336C4.33339 15.0776 5.1108 14.3003 6.06671 14.3003C7.02262 14.3003 7.80003 15.0777 7.80003 16.0336C7.80003 16.9895 7.02262 17.7669 6.06671 17.7669Z" fill="#71747D"/>
<path d="M20.8 13.4336C19.3661 13.4336 18.2 14.5997 18.2 16.0336C18.2 17.4675 19.3661 18.6336 20.8 18.6336C22.234 18.6336 23.4001 17.4675 23.4001 16.0336C23.4001 14.5997 22.234 13.4336 20.8 13.4336ZM20.8 17.7669C19.8441 17.7669 19.0667 16.9895 19.0667 16.0336C19.0667 15.0776 19.8441 14.3003 20.8 14.3003C21.756 14.3003 22.5334 15.0777 22.5334 16.0336C22.5334 16.9895 21.756 17.7669 20.8 17.7669Z" fill="#71747D"/>
<path d="M25.9311 11.0322L22.0311 4.96551C21.9514 4.84156 21.814 4.7666 21.6667 4.7666H16.9C16.6604 4.7666 16.4667 4.96074 16.4667 5.19992V16.0333C16.4667 16.2729 16.6604 16.4666 16.9 16.4666H18.6333V15.5999H17.3333V5.63329H21.4301L25.1334 11.394V15.6H22.9667V16.4666H25.5667C25.8063 16.4666 26 16.2729 26 16.0333V11.2666C26 11.1838 25.9762 11.1019 25.9311 11.0322Z" fill="#71747D"/>
<path d="M19.0667 10.4V7.36669H22.5334V6.5H18.6334C18.3938 6.5 18.2001 6.69414 18.2001 6.93332V10.8333C18.2001 11.073 18.3938 11.2666 18.6334 11.2666H25.1334V10.4H19.0667V10.4Z" fill="#71747D"/>
<path d="M16.9 1.7334H0.433317C0.194137 1.7334 0 1.92754 0 2.16672V16.0334C0 16.2731 0.194137 16.4667 0.433317 16.4667H3.90001V15.6001H0.866685V2.60003H16.4667V15.6001H8.23333V16.4667H16.9C17.1397 16.4667 17.3334 16.2731 17.3334 16.0334V2.16672C17.3334 1.92754 17.1397 1.7334 16.9 1.7334Z" fill="#71747D"/>
<path d="M3.03332 13.8667H0.433319V14.7334H3.03332V13.8667Z" fill="#71747D"/>
<path d="M16.4667 13.8667H9.10001V14.7334H16.4667V13.8667Z" fill="#71747D"/>
<path d="M25.5667 13.8667H23.8334V14.7334H25.5667V13.8667Z" fill="#71747D"/>
<path d="M16.9 3.4668H1.73331V4.33348H16.9V3.4668Z" fill="#71747D"/>
<path d="M6.50002 15.6001H5.63333V16.4668H6.50002V15.6001Z" fill="#71747D"/>
<path d="M21.2334 15.6001H20.3667V16.4668H21.2334V15.6001Z" fill="#71747D"/>
<path d="M7.8 0H1.73331V0.866685H7.8V0Z" fill="#71747D"/>
<path d="M0.866685 0H0V0.866685H0.866685V0Z" fill="#71747D"/>
</svg>
