<svg width="27" height="34" viewBox="0 0 27 34" fill="none" xmlns="http://www.w3.org/2000/svg">
<path d="M9.48556 26.981C8.20673 26.981 7.0538 27.7513 6.5644 28.9327C6.07499 30.1142 6.34548 31.4742 7.24975 32.3784C8.15401 33.2827 9.51395 33.5533 10.6954 33.0639C11.8769 32.5745 12.6473 31.4216 12.6473 30.1427C12.6453 28.3974 11.2309 26.983 9.48556 26.981ZM9.48556 32.0302C8.72213 32.0302 8.03386 31.5704 7.7417 30.8651C7.44953 30.1598 7.611 29.3479 8.15081 28.8081C8.69062 28.2683 9.50247 28.1068 10.2078 28.3989C10.9131 28.6911 11.373 29.3793 11.373 30.1427C11.3718 31.1847 10.5275 32.029 9.48556 32.0302Z" fill="#71747D"/>
<path d="M20.8682 26.981C19.5894 26.981 18.4365 27.7513 17.9471 28.9327C17.4577 30.1142 17.7282 31.4742 18.6324 32.3784C19.5367 33.2827 20.8966 33.5533 22.0781 33.0639C23.2596 32.5745 24.03 31.4216 24.03 30.1427C24.028 28.3974 22.6136 26.983 20.8682 26.981ZM20.8682 32.0302C20.1048 32.0302 19.4166 31.5704 19.1244 30.8651C18.8322 30.1598 18.9937 29.3479 19.5335 28.8081C20.0733 28.2683 20.8852 28.1068 21.5905 28.3989C22.2958 28.6911 22.7557 29.3793 22.7557 30.1427C22.7545 31.1847 21.9102 32.029 20.8682 32.0302Z" fill="#71747D"/>
<path d="M0.678948 5.48048C3.23289 5.47471 5.43306 7.26177 5.92746 9.74353L10.5395 9.74347V11.0373L6.73741 11.0376L7.68402 19.8907H22.3182C23.4897 19.8844 24.5164 18.6457 24.8334 16.856L24.8318 16.8631H26.0211L25.6021 18.354C25.1558 19.9296 23.7319 21.0323 22.0895 21.0893L21.9746 21.0916H7.8695L8.02741 21.9971C8.2331 23.2139 9.30059 24.1025 10.5461 24.0937H23.204C23.5388 24.0937 23.8102 24.3626 23.8102 24.6942C23.8102 25.0258 23.5388 25.2946 23.204 25.2946H10.5461C8.7073 25.3019 7.13439 23.9875 6.83204 22.191L6.5541 20.5818L5.42237 13.9766L4.75555 10.0885C4.42222 8.11733 2.69677 6.67524 0.678948 6.68135H0.606204C0.271407 6.68135 0 6.41253 0 6.08092C0 5.74932 0.271407 5.48048 0.606204 5.48048H0.678948Z" fill="#71747D"/>
<path d="M16.6532 6.74525C16.4912 6.74525 16.3293 6.67914 16.2054 6.54826L13.6755 3.84976C13.4288 3.58665 13.4288 3.15894 13.6755 2.89583L16.2054 0.197328C16.452 -0.0657761 16.853 -0.0657761 17.0997 0.197328C17.3463 0.460433 17.3463 0.888146 17.0997 1.15125L15.0176 3.37212L17.0997 5.59299C17.3463 5.8561 17.3463 6.28381 17.0997 6.54691C16.977 6.67914 16.8151 6.74525 16.6532 6.74525Z" fill="#71747D"/>
<path d="M26.3109 3.79428H14.5822C14.2123 3.79428 13.9121 3.51098 13.9121 3.16191C13.9121 2.81284 14.2123 2.52954 14.5822 2.52954H26.3109C26.6808 2.52954 26.981 2.81284 26.981 3.16191C26.981 3.51098 26.6808 3.79428 26.3109 3.79428Z" fill="#71747D"/>
<path d="M23.8196 13.4906C23.6576 13.4906 23.4957 13.4245 23.3718 13.2936C23.1251 13.0304 23.1251 12.6026 23.3718 12.3395L25.4539 10.1182L23.3718 7.89684C23.1251 7.63368 23.1251 7.20589 23.3718 6.94273C23.6184 6.67957 24.0194 6.67957 24.2661 6.94273L26.796 9.64177C27.0426 9.90493 27.0426 10.3327 26.796 10.5959L24.2661 13.2949C24.1434 13.4245 23.9815 13.4906 23.8196 13.4906Z" fill="#71747D"/>
<path d="M25.8893 10.961H14.1606C13.7907 10.961 13.4905 10.6777 13.4905 10.3287C13.4905 9.97959 13.7907 9.69629 14.1606 9.69629H25.8893C26.2592 9.69629 26.5594 9.97959 26.5594 10.3287C26.5594 10.6777 26.2592 10.961 25.8893 10.961Z" fill="#71747D"/>
</svg>
