<svg width="12" height="12" viewBox="0 0 12 12" fill="none" xmlns="http://www.w3.org/2000/svg">
<path d="M6.00007 0C6.29517 0 6.57261 0.114898 6.78128 0.323636L11.6768 5.21846L11.6777 5.21937C12.1076 5.65012 12.1074 6.35059 11.6771 6.78106C11.4682 6.98989 11.1908 7.10479 10.8958 7.10479H10.7149V10.707C10.7149 11.4199 10.1348 11.9999 9.42174 11.9999H7.50645C7.31224 11.9999 7.15485 11.8424 7.15485 11.6483V8.82413C7.15485 8.49885 6.89023 8.23427 6.56492 8.23427H5.43522C5.1099 8.23427 4.8452 8.49885 4.8452 8.82413V11.6483C4.8452 11.8424 4.6878 11.9999 4.4936 11.9999H2.57831C1.86531 11.9999 1.28518 11.4199 1.28518 10.707V7.10479H1.09015C1.0787 7.10479 1.06735 7.10424 1.056 7.10314C0.778655 7.09115 0.519352 6.97744 0.322951 6.78097C-0.106932 6.35114 -0.107665 5.65195 0.320846 5.22102C0.322402 5.21937 0.324142 5.21763 0.32579 5.21598L5.21877 0.323636C5.42753 0.114898 5.70496 0 6.00007 0Z" fill="#B2B9C7"/>
</svg>
