<svg width="12" height="12" viewBox="0 0 12 12" fill="none" xmlns="http://www.w3.org/2000/svg">
<path fill-rule="evenodd" clip-rule="evenodd" d="M0 2C0 0.895431 0.895431 0 2 0H10C11.1046 0 12 0.895431 12 2V8.07153C12 8.07153 12 8.07153 12 8.07153H7.76467C7.48852 8.07153 7.26467 8.29539 7.26467 8.57153C7.26467 8.84767 7.48852 9.07153 7.76467 9.07153H12C12 9.07153 12 9.07153 12 9.07153V10C12 11.1046 11.1046 12 10 12H2C0.895431 12 0 11.1046 0 10V3.92868L4.23529 3.92868C4.51144 3.92868 4.73529 3.70482 4.73529 3.42868C4.73529 3.15253 4.51144 2.92868 4.23529 2.92868L0 2.92868V2Z" fill="white"/>
</svg>
