<svg width="12" height="12" viewBox="0 0 12 12" fill="none" xmlns="http://www.w3.org/2000/svg">
<path fill-rule="evenodd" clip-rule="evenodd" d="M2.7998 0C1.69524 0 0.799805 0.895428 0.799805 2V9.2C0.799805 10.3046 1.69523 11.2 2.7998 11.2H9.9998C11.1044 11.2 11.9998 10.3046 11.9998 9.2V2C11.9998 0.895431 11.1044 0 9.99981 0H2.7998ZM8.24719 1.35242C8.11051 1.21573 7.8889 1.21573 7.75222 1.35242C7.61554 1.4891 7.61554 1.71071 7.75222 1.84739L8.70473 2.7999L7.75222 3.75242C7.61554 3.8891 7.61554 4.11071 7.75222 4.24739C7.8889 4.38407 8.11051 4.38407 8.24719 4.24739L9.19971 3.29488L10.1522 4.24739C10.2889 4.38407 10.5105 4.38407 10.6472 4.24739C10.7839 4.11071 10.7839 3.8891 10.6472 3.75242L9.69468 2.7999L10.6472 1.84739C10.7839 1.71071 10.7839 1.4891 10.6472 1.35242C10.5105 1.21573 10.2889 1.21573 10.1522 1.35242L9.19971 2.30493L8.24719 1.35242Z" fill="#AAB2C2" fill-opacity="0.5"/>
<path fill-rule="evenodd" clip-rule="evenodd" d="M11.2 5.17192C10.7293 5.44418 10.1829 5.6 9.60005 5.6C7.83274 5.6 6.40005 4.16731 6.40005 2.4C6.40005 1.81718 6.55586 1.27075 6.8281 0.800095H2C0.895431 0.800095 0 1.69552 0 2.80009V10.0001C0 11.1047 0.895428 12.0001 2 12.0001H9.2C10.3046 12.0001 11.2 11.1047 11.2 10.0001V5.17192Z" fill="#AAB2C2"/>
</svg>
