<svg width="12" height="12" viewBox="0 0 12 12" fill="none" xmlns="http://www.w3.org/2000/svg">
<path fill-rule="evenodd" clip-rule="evenodd" d="M2.80005 0C1.69548 0 0.800049 0.895428 0.800049 2V9.2C0.800049 10.3046 1.69548 11.2 2.80005 11.2H10C11.1046 11.2 12 10.3046 12 9.2V2C12 0.895431 11.1046 0 10.0001 0H2.80005ZM8.24744 1.35242C8.11076 1.21573 7.88915 1.21573 7.75246 1.35242C7.61578 1.4891 7.61578 1.71071 7.75246 1.84739L8.70498 2.7999L7.75246 3.75242C7.61578 3.8891 7.61578 4.11071 7.75246 4.24739C7.88915 4.38407 8.11076 4.38407 8.24744 4.24739L9.19995 3.29488L10.1525 4.24739C10.2891 4.38407 10.5108 4.38407 10.6474 4.24739C10.7841 4.11071 10.7841 3.8891 10.6474 3.75242L9.69493 2.7999L10.6474 1.84739C10.7841 1.71071 10.7841 1.4891 10.6474 1.35242C10.5108 1.21573 10.2891 1.21573 10.1525 1.35242L9.19995 2.30493L8.24744 1.35242Z" fill="#AAB2C2" fill-opacity="0.5"/>
<path fill-rule="evenodd" clip-rule="evenodd" d="M11.2 5.17192C10.7293 5.44418 10.1829 5.6 9.60005 5.6C7.83274 5.6 6.40005 4.16731 6.40005 2.4C6.40005 1.81718 6.55586 1.27075 6.8281 0.800095H2C0.895431 0.800095 0 1.69552 0 2.80009V10.0001C0 11.1047 0.895428 12.0001 2 12.0001H9.2C10.3046 12.0001 11.2 11.1047 11.2 10.0001V5.17192Z" fill="white"/>
</svg>
