<svg width="25" height="25" viewBox="0 0 25 25" fill="none" xmlns="http://www.w3.org/2000/svg">
<path d="M13.5379 24.9514C13.441 24.9514 13.3441 24.9514 13.2472 24.9514C13.1503 24.9514 12.9496 24.9514 12.7973 24.9514C12.4859 24.9514 12.1675 24.9514 11.8491 24.9514C11.6415 24.9514 11.4338 24.9514 11.2331 24.9028C11.0324 24.8542 10.721 24.8472 10.4718 24.8056C9.97159 24.7258 9.4769 24.6145 8.99066 24.4722C8.49513 24.3286 8.00959 24.1523 7.53721 23.9444C7.24652 23.8125 6.95583 23.6667 6.66514 23.5208L6.56824 23.4653C6.54411 23.4535 6.52318 23.436 6.50725 23.4143C6.49132 23.3926 6.48087 23.3674 6.47679 23.3408C6.4727 23.3141 6.47511 23.2869 6.48381 23.2614C6.4925 23.236 6.50723 23.213 6.52672 23.1944C6.58307 23.1263 6.64315 23.0614 6.70667 23C7.14389 22.538 7.5486 22.0461 7.91787 21.5278C8.50597 20.7013 9.03781 19.8359 9.50975 18.9375C10.1197 17.7949 10.656 16.6142 11.1155 15.4028C11.4269 14.5556 11.7107 13.6875 11.9391 12.8056C12.0637 12.3264 12.1744 11.8403 12.2575 11.3472C12.3059 11.0694 12.3405 10.7847 12.382 10.5C12.382 10.4028 12.382 10.3056 12.4166 10.2083C12.4096 10.181 12.4096 10.1523 12.4166 10.125C12.4222 10.1109 12.4306 10.098 12.4413 10.0873C12.452 10.0765 12.4648 10.0681 12.4789 10.0625C12.4789 10.0625 12.5343 10.0625 12.5412 10.1111C12.5561 10.1636 12.5676 10.2169 12.5758 10.2708C12.6243 10.5903 12.6589 10.9167 12.7073 11.2361C12.8376 11.9983 13.0132 12.752 13.2333 13.4931C13.5381 14.5181 13.8962 15.5265 14.3061 16.5139C14.8477 17.8206 15.4886 19.0836 16.2233 20.2917C16.6634 21.0213 17.1561 21.7176 17.6975 22.375C17.9131 22.6364 18.1443 22.8845 18.3896 23.1181C18.4255 23.1518 18.458 23.189 18.4865 23.2292C18.5035 23.2466 18.5162 23.2677 18.5238 23.2908C18.5314 23.314 18.5336 23.3385 18.5302 23.3627C18.5269 23.3868 18.5181 23.4098 18.5045 23.43C18.491 23.4502 18.473 23.467 18.4519 23.4792L18.355 23.5347C17.8641 23.8013 17.3553 24.0334 16.8324 24.2292C16.4102 24.3819 15.988 24.5139 15.5519 24.625C15.1733 24.722 14.7898 24.7985 14.403 24.8542L13.8839 24.9306L13.5379 25V24.9514Z" fill="#FFC423"/>
<path d="M12.9704 0L13.8148 0.0694445C15.385 0.248595 16.9083 0.719587 18.3066 1.45833L18.3897 1.50694C18.4287 1.52789 18.4614 1.55887 18.4845 1.5967C18.5076 1.63454 18.5203 1.67786 18.5212 1.72222C18.5212 1.84722 18.5212 1.97222 18.5212 2.09722C18.5212 2.22222 18.5212 2.28472 18.5212 2.38194C18.5212 2.75694 18.4589 3.13889 18.4174 3.52083C18.3758 3.90278 18.3343 4.21528 18.2789 4.54861C18.2028 5.03472 18.1267 5.51389 18.0367 6C17.8322 7.09727 17.5429 8.17691 17.1715 9.22917C16.9465 9.8796 16.6518 10.5036 16.2926 11.0903C16.1092 11.3989 15.8883 11.6835 15.635 11.9375C15.5478 12.0241 15.4553 12.1053 15.3582 12.1806C15.2059 12.2917 15.1021 12.2639 15.026 12.0903C14.8806 11.7569 14.7422 11.3958 14.6107 11.0764C14.3394 10.3325 14.1083 9.57447 13.9186 8.80556C13.7456 8.11111 13.5864 7.41667 13.4549 6.77083C13.3234 6.125 13.1919 5.55556 13.1088 4.99306C13.0396 4.61806 12.9842 4.23611 12.9289 3.85417C12.8735 3.47222 12.8458 3.20833 12.8112 2.88194C12.7766 2.55556 12.742 2.34028 12.7143 2.06944C12.6866 1.79861 12.6659 1.51389 12.6382 1.24306C12.6105 0.972222 12.5966 0.8125 12.5828 0.590278C12.5759 0.470007 12.5759 0.349438 12.5828 0.229167C12.5766 0.201892 12.5766 0.173572 12.5827 0.146281C12.5888 0.118991 12.601 0.0934216 12.6182 0.0714479C12.6355 0.0494742 12.6574 0.0316529 12.6824 0.0192901C12.7074 0.0069272 12.7349 0.000336158 12.7628 0C12.832 0 12.9012 0 12.9704 0Z" fill="#FFC423"/>
<path d="M12.0291 0H12.2229C12.3682 0 12.4305 0.0694444 12.4305 0.208333C12.4305 0.347222 12.4305 0.527778 12.4305 0.6875C12.4305 0.847222 12.4305 1.05556 12.382 1.24306C12.3336 1.43056 12.382 1.625 12.3336 1.8125C12.2851 2 12.2713 2.36806 12.2367 2.64583C12.2021 2.92361 12.1744 3.15972 12.1467 3.41667C12.119 3.67361 12.0775 3.94444 12.036 4.21528C11.9945 4.48611 11.946 4.79861 11.8976 5.09028C11.8214 5.54861 11.7453 6.01389 11.6553 6.47917C11.4132 7.78073 11.0896 9.06568 10.6864 10.3264C10.5077 10.8856 10.2997 11.435 10.0634 11.9722C10.0499 12.0214 10.0289 12.0683 10.0012 12.1111C9.99207 12.1356 9.97715 12.1574 9.95771 12.1747C9.93827 12.192 9.9149 12.2043 9.88963 12.2105C9.86437 12.2167 9.83798 12.2165 9.81278 12.2101C9.78758 12.2037 9.76433 12.1911 9.74507 12.1736C9.63055 12.091 9.52186 12.0005 9.41978 11.9028C9.11968 11.6008 8.8613 11.2598 8.65153 10.8889C8.3456 10.34 8.0863 9.76619 7.87635 9.17361C7.60856 8.44398 7.38211 7.69973 7.19808 6.94444C7.04581 6.29167 6.91431 5.63194 6.81741 4.96528C6.7482 4.53472 6.68591 4.09722 6.63054 3.65972C6.63054 3.35417 6.56825 3.04861 6.53364 2.74306L6.47135 2.04861C6.47135 1.92361 6.47135 1.79861 6.47135 1.67361C6.46793 1.63458 6.47593 1.5954 6.49437 1.56086C6.51281 1.52632 6.54089 1.49793 6.57517 1.47917L6.82433 1.38889C7.73337 0.925314 8.69569 0.575475 9.6897 0.347222C10.0872 0.254718 10.4891 0.182864 10.894 0.131944L11.7315 0H12.0291Z" fill="#FFC423"/>
<path d="M0 12.5695C0 12.375 7.73503e-09 12.1736 0.0346059 11.9792C0.0692118 11.7847 0.0346059 11.6667 0.0692118 11.5139C0.103818 11.3611 0.138424 11 0.166108 10.7431C0.221478 10.3472 0.304532 9.96528 0.394507 9.5764C0.573495 8.83258 0.82143 8.1072 1.13507 7.40973C1.82027 5.86594 2.80627 4.47524 4.03505 3.31945C4.5932 2.80452 5.19535 2.33977 5.83456 1.93056L6.06296 1.79167L6.13909 1.75695C6.15669 1.74933 6.17573 1.74567 6.19489 1.74621C6.21405 1.74675 6.23286 1.75148 6.25 1.76008C6.26714 1.76868 6.2822 1.78094 6.29413 1.79599C6.30605 1.81105 6.31456 1.82853 6.31904 1.84723C6.32562 1.87696 6.32562 1.90778 6.31904 1.93751V2.54862C6.31904 2.65278 6.31904 2.75695 6.31904 2.86112C6.31904 2.96528 6.31904 3.09028 6.31904 3.20834C6.31904 3.3264 6.31904 3.41667 6.31904 3.52084C6.31904 3.8264 6.26367 4.13195 6.22906 4.43751C6.19446 4.74306 6.15293 5.02778 6.10448 5.3264C6.02143 5.86806 5.90377 6.40278 5.77227 6.93751C5.53721 7.72349 5.24099 8.48973 4.88635 9.22917C4.54608 10.0053 4.1213 10.7412 3.61978 11.4236C2.97552 12.3002 2.15495 13.0313 1.21121 13.5694C0.948202 13.7222 0.671355 13.8542 0.394507 14L0.263005 14.0486C0.243826 14.0537 0.223775 14.0546 0.204211 14.0513C0.184648 14.048 0.16603 14.0404 0.14962 14.0292C0.13321 14.018 0.119391 14.0034 0.1091 13.9864C0.0988088 13.9694 0.0922866 13.9503 0.0899754 13.9306C0.0860895 13.8913 0.0860895 13.8518 0.0899754 13.8125C0.0415271 13.4931 0.0415271 13.1945 0.0415271 12.8542C0.0415271 12.7639 0.0415271 12.6667 0.0415271 12.5695H0Z" fill="#FFC423"/>
<path d="M18.6664 2.19445V1.93751C18.663 1.90751 18.663 1.87722 18.6664 1.84723C18.6709 1.82853 18.6794 1.81105 18.6913 1.79599C18.7032 1.78094 18.7183 1.76868 18.7354 1.76008C18.7526 1.75148 18.7714 1.74675 18.7905 1.74621C18.8097 1.74567 18.8287 1.74933 18.8463 1.75695L18.9571 1.81251C19.3595 2.04767 19.7457 2.30984 20.1129 2.59723C20.6327 3.00135 21.1188 3.44727 21.5664 3.93056C21.8453 4.22484 22.1065 4.53558 22.3485 4.86112C22.6412 5.24958 22.9138 5.65289 23.1652 6.06945C23.3797 6.44445 23.5874 6.81945 23.7673 7.21528C24.134 7.99858 24.4193 8.81772 24.6186 9.65973C24.7409 10.1624 24.8288 10.6728 24.8816 11.1875L24.9577 11.9931C24.9625 12.0726 24.9741 12.1516 24.9924 12.2292C25.0025 12.3563 25.0025 12.484 24.9924 12.6111C24.9888 12.7624 24.9749 12.9132 24.9508 13.0625C24.9508 13.1667 24.9508 13.2778 24.9508 13.3819L24.9093 13.8681C24.9124 13.8864 24.9124 13.9052 24.9093 13.9236C24.9093 14.0278 24.8193 14.0625 24.7155 14.0417H24.6324C24.0001 13.7559 23.4031 13.397 22.8537 12.9722C22.2665 12.5127 21.7489 11.97 21.3172 11.3611C20.8969 10.7879 20.5352 10.1737 20.2375 9.52778C19.8489 8.69584 19.5407 7.82845 19.317 6.93751C19.1924 6.44445 19.0817 5.94445 19.0055 5.44445C18.9294 4.94445 18.8533 4.59028 18.8048 4.16667C18.7564 3.74306 18.7287 3.47223 18.7287 3.10417C18.7287 3.05556 18.7287 3.00001 18.7287 2.94445C18.7287 2.8889 18.7287 2.65278 18.7287 2.50695V2.19445H18.6664Z" fill="#FFC423"/>
<path d="M0.802812 16.8056C0.800803 16.7775 0.806922 16.7495 0.820429 16.7248C0.833937 16.7002 0.854258 16.68 0.878945 16.6667C0.924282 16.6338 0.973009 16.6058 1.02429 16.5833C1.6877 16.2606 2.31039 15.8596 2.87917 15.3889C3.29489 15.0493 3.68365 14.6779 4.04193 14.2778C4.60358 13.6585 5.09136 12.9757 5.49537 12.2431C5.79231 11.7176 6.02471 11.158 6.18749 10.5764C6.22902 10.4097 6.2567 10.2431 6.29823 10.0764C6.30468 10.0348 6.31876 9.99477 6.33976 9.95834C6.34597 9.94829 6.35463 9.94 6.36492 9.93425C6.37522 9.9285 6.38681 9.92548 6.39859 9.92548C6.41037 9.92548 6.42196 9.9285 6.43225 9.93425C6.44255 9.94 6.45121 9.94829 6.45742 9.95834C6.47727 9.99282 6.4913 10.0304 6.49895 10.0694C6.55431 10.2986 6.59584 10.5278 6.65813 10.7639C6.85009 11.4526 7.10495 12.1221 7.41946 12.7639C7.6657 13.2842 7.95754 13.7815 8.29153 14.25L8.58914 14.6389C8.61507 14.6586 8.63677 14.6834 8.65296 14.7117C8.66915 14.74 8.67949 14.7713 8.68336 14.8037C8.68724 14.8361 8.68457 14.8689 8.67552 14.9003C8.66646 14.9316 8.65121 14.9608 8.63067 14.9861C8.39535 15.3958 8.16695 15.8125 7.93855 16.2153C7.57839 16.8096 7.18077 17.3802 6.74811 17.9236C6.32537 18.4453 5.86254 18.9329 5.36387 19.3819C4.80379 19.9392 4.17866 20.4265 3.50207 20.8333L3.43286 20.8681C3.4126 20.8845 3.38925 20.8966 3.3642 20.9038C3.33915 20.9109 3.31293 20.913 3.28709 20.9097C3.26124 20.9065 3.23632 20.898 3.2138 20.8849C3.19128 20.8718 3.17163 20.8543 3.15601 20.8333C3.07225 20.7479 2.99367 20.6574 2.92069 20.5625C2.39365 19.9143 1.9301 19.2166 1.53646 18.4792C1.27366 18.0067 1.04245 17.5172 0.844339 17.0139L0.802812 16.875C0.795873 16.8524 0.795873 16.8282 0.802812 16.8056Z" fill="#FFC423"/>
<path d="M24.1897 16.8194C24.1897 16.875 24.1897 16.9305 24.1343 16.9861C24.0236 17.25 23.9198 17.5138 23.8021 17.7708C23.3407 18.772 22.7471 19.7063 22.0372 20.5486L21.8711 20.75C21.8544 20.7771 21.8322 20.8005 21.806 20.8186C21.7798 20.8367 21.75 20.849 21.7188 20.8549C21.6875 20.8608 21.6553 20.8601 21.6243 20.8528C21.5934 20.8454 21.5643 20.8317 21.5389 20.8125C21.2759 20.6597 21.0129 20.5 20.7637 20.3333C20.3323 20.04 19.925 19.7126 19.5456 19.3541C18.9146 18.7628 18.3421 18.1116 17.836 17.4097C17.2962 16.658 16.806 15.8716 16.3688 15.0555L16.3203 14.9444C16.2938 14.9068 16.2795 14.8619 16.2795 14.8159C16.2795 14.7699 16.2938 14.725 16.3203 14.6875C16.3678 14.6374 16.4118 14.584 16.4518 14.5277C16.7378 14.1708 16.9925 13.7898 17.2131 13.3888C17.6077 12.6841 17.9323 11.9421 18.1821 11.1736C18.2987 10.8215 18.3912 10.4619 18.459 10.0972C18.4665 10.0514 18.4804 10.007 18.5005 9.96523C18.5351 9.89579 18.5974 9.89579 18.632 9.96523C18.6497 10.0055 18.6636 10.0473 18.6735 10.0902C18.8159 10.8455 19.085 11.5711 19.4694 12.2361C19.8221 12.8791 20.2395 13.4841 20.7153 14.0416C21.4955 14.9603 22.4331 15.7317 23.4837 16.3194C23.6291 16.4027 23.7813 16.4791 23.9336 16.5555C23.9889 16.5814 24.0421 16.6116 24.0928 16.6458C24.1247 16.6613 24.1512 16.6862 24.1685 16.7173C24.1858 16.7483 24.1932 16.784 24.1897 16.8194Z" fill="#FFC423"/>
</svg>
