<svg width="25" height="25" viewBox="0 0 25 25" fill="none" xmlns="http://www.w3.org/2000/svg">
<path d="M12.5 25C19.4036 25 25 19.4036 25 12.5C25 5.59644 19.4036 0 12.5 0C5.59644 0 0 5.59644 0 12.5C0 19.4036 5.59644 25 12.5 25Z" fill="#003399"/>
<path d="M20.4225 14.8472C20.4191 15.392 20.3703 15.9355 20.2767 16.4722C20.2091 16.8134 20.0822 17.1401 19.9017 17.4375C19.7558 17.6832 19.5884 17.9156 19.4017 18.1319C18.9231 18.6626 18.3927 19.1442 17.8183 19.5694L17.1239 20.1111C16.6725 20.4722 16.2003 20.8055 15.735 21.118C14.8808 21.7222 14.0267 22.3125 13.1656 22.9097C12.985 23.0347 12.7975 23.1527 12.61 23.2708L12.485 23.3472C12.4317 23.3797 12.3704 23.3969 12.3079 23.3969C12.2455 23.3969 12.1842 23.3797 12.1309 23.3472C12.0636 23.312 11.9987 23.2725 11.9364 23.2291C11.4781 22.9236 11.0197 22.618 10.5475 22.3055C9.70724 21.7152 8.86002 21.1319 8.02668 20.5277C7.47113 20.125 6.92946 19.7014 6.39474 19.2708C6.15079 19.0768 5.91888 18.868 5.7003 18.6458C5.45292 18.3963 5.22101 18.1319 5.00585 17.8541C4.62746 17.3878 4.38693 16.8249 4.31141 16.2291C4.22397 15.5686 4.20071 14.9011 4.24196 14.2361C4.29281 13.4178 4.50523 12.6177 4.86696 11.8819C5.16623 11.2655 5.51702 10.6754 5.91557 10.118C6.33918 9.5208 6.75585 8.91664 7.19335 8.3333C8.01974 7.2083 8.84613 6.09025 9.69335 4.97914C10.3878 4.07636 11.0822 3.18747 11.7767 2.29858C11.86 2.18747 11.9503 2.07636 12.0475 1.96525L12.1656 1.8333C12.1844 1.80881 12.2086 1.78898 12.2363 1.77533C12.264 1.76168 12.2944 1.75458 12.3253 1.75458C12.3562 1.75458 12.3866 1.76168 12.4143 1.77533C12.442 1.78898 12.4662 1.80881 12.485 1.8333L12.61 1.97219C12.9086 2.34025 13.2072 2.66664 13.492 3.07636C14.2628 4.06941 15.0406 5.06247 15.7975 6.06941C16.7975 7.39812 17.7744 8.74071 18.7281 10.0972C19.1721 10.7202 19.558 11.3827 19.8809 12.0764C20.1866 12.7313 20.3657 13.4382 20.4086 14.1597C20.4017 14.3958 20.4086 14.6597 20.4225 14.8472ZM7.54057 11.1666C7.52863 11.5261 7.60997 11.8826 7.77668 12.2014C7.91681 12.4815 8.09181 12.7429 8.29752 12.9791L11.8739 17.1458C11.9316 17.2174 11.9968 17.2826 12.0684 17.3402C12.1318 17.3927 12.2117 17.4215 12.294 17.4215C12.3764 17.4215 12.4562 17.3927 12.5197 17.3402L12.6031 17.2639C12.6529 17.2163 12.6994 17.1652 12.742 17.1111C13.3253 16.4166 13.9086 15.7569 14.485 15.0764C15.0614 14.3958 15.6934 13.6875 16.2906 12.9583C16.3993 12.8385 16.4992 12.7108 16.5892 12.5764C16.857 12.2056 17.0179 11.7684 17.0545 11.3125C17.0902 10.91 16.9978 10.5065 16.7906 10.1597C16.7072 10.0277 16.6239 9.8958 16.5336 9.7708C16.0614 9.11803 15.5892 8.47219 15.11 7.82636C14.6309 7.18053 14.1864 6.56941 13.7211 5.95136L12.7211 4.67358C12.6621 4.59467 12.5971 4.52038 12.5267 4.45136C12.4968 4.41962 12.4608 4.39433 12.4208 4.37704C12.3808 4.35975 12.3376 4.35083 12.294 4.35083C12.2505 4.35083 12.2073 4.35975 12.1673 4.37704C12.1273 4.39433 12.0913 4.41962 12.0614 4.45136C12.0033 4.50249 11.952 4.56084 11.9086 4.62497C11.6378 4.96525 11.36 5.31941 11.1031 5.65969L8.40863 9.35414C8.23502 9.59719 8.06141 9.8333 7.89474 10.0486C7.64681 10.3669 7.52116 10.7636 7.54057 11.1666ZM13.3878 19.5972C13.3878 19.875 13.3878 20.0694 13.3878 20.2916C13.3933 20.3744 13.4096 20.4562 13.4364 20.5347C13.4585 20.5945 13.502 20.6439 13.5584 20.6734C13.6149 20.7029 13.6803 20.7104 13.742 20.6944C13.7978 20.6809 13.8515 20.6598 13.9017 20.6319C13.9737 20.5897 14.0433 20.5433 14.11 20.493C14.5406 20.1944 14.9711 19.8958 15.3947 19.5902L17.36 18.1597C17.5706 18.0018 17.7576 17.8147 17.9156 17.6041L18.1239 17.3194C18.5656 16.6693 18.807 15.9039 18.8183 15.118C18.8299 14.4116 18.7267 13.708 18.5128 13.0347C18.4975 12.975 18.4717 12.9186 18.4364 12.868C18.4162 12.8263 18.3861 12.7901 18.3488 12.7626C18.3115 12.7352 18.268 12.7172 18.2221 12.7104C18.1763 12.7035 18.1294 12.708 18.0857 12.7234C18.0419 12.7387 18.0026 12.7646 17.9711 12.7986C17.9232 12.846 17.8791 12.8971 17.8392 12.9514L17.4781 13.4652C17.11 13.9722 16.7836 14.4861 16.3808 14.9791C15.867 15.6736 15.3045 16.3125 14.742 16.9514L13.7906 18.0208C13.5194 18.3216 13.36 18.7066 13.3392 19.1111C13.3947 19.2916 13.3947 19.4861 13.3878 19.5972ZM11.1864 19.6805C11.1864 19.5694 11.1864 19.4027 11.1864 19.243C11.1855 18.7763 11.0124 18.3262 10.7003 17.9791C10.3253 17.5694 9.96418 17.1458 9.59613 16.7291C8.82858 15.8672 8.10986 14.963 7.44335 14.0208C7.2003 13.6736 6.95724 13.3264 6.70724 12.9861C6.65449 12.9043 6.59148 12.8296 6.51974 12.7639C6.49044 12.7362 6.45535 12.7155 6.41702 12.7032C6.3787 12.6908 6.3381 12.6872 6.29819 12.6925C6.25828 12.6978 6.22005 12.712 6.1863 12.7339C6.15255 12.7559 6.12412 12.7851 6.10307 12.8194C6.07569 12.8524 6.05452 12.89 6.04057 12.9305C6.0136 12.9884 5.99266 13.0489 5.97807 13.1111C5.84604 13.5764 5.75769 14.053 5.71418 14.5347C5.6578 15.0995 5.71741 15.6699 5.88937 16.2109C6.06133 16.7518 6.34201 17.2519 6.71418 17.6805C6.84756 17.8475 7.00157 17.9968 7.17252 18.125L7.79057 18.5833C8.38085 19.0069 8.97113 19.4305 9.56835 19.8472L10.4989 20.5416C10.5721 20.5949 10.6513 20.6392 10.735 20.6736C10.7727 20.6926 10.8144 20.7026 10.8566 20.7027C10.8989 20.7028 10.9406 20.693 10.9783 20.6741C11.0161 20.6552 11.049 20.6278 11.0743 20.5939C11.0995 20.56 11.1165 20.5207 11.1239 20.4791C11.1345 20.4031 11.1345 20.326 11.1239 20.25C11.1864 20.0625 11.1864 19.8958 11.1864 19.6805Z" fill="white"/>
</svg>
