<svg width="25" height="25" viewBox="0 0 25 25" fill="none" xmlns="http://www.w3.org/2000/svg">
<path d="M12.5 25C19.4036 25 25 19.4036 25 12.5C25 5.59644 19.4036 0 12.5 0C5.59644 0 0 5.59644 0 12.5C0 19.4036 5.59644 25 12.5 25Z" fill="#552387"/>
<path d="M4.15194 17.9294C5.52598 18.5681 6.90744 19.2291 8.28147 19.8827C8.35482 19.92 8.43729 19.9354 8.51914 19.9273H11.6683C11.8465 19.9273 11.8762 19.8679 11.8762 19.7045C11.8762 18.7761 11.8762 17.8551 11.8762 16.9267C11.8762 16.8673 11.8762 16.8376 11.8762 16.7484C11.8085 16.7817 11.7391 16.8115 11.6683 16.8376C10.7362 17.3168 9.69104 17.5326 8.64541 17.4614C8.23132 17.4209 7.841 17.2491 7.53132 16.9712C7.28177 16.719 7.08699 16.418 6.95919 16.0869C6.83139 15.7559 6.77331 15.4021 6.7886 15.0476C6.78395 14.4434 6.82866 13.8397 6.92229 13.2428C6.993 12.5437 7.17871 11.8611 7.47191 11.2226C8.28216 9.50375 9.41707 7.95775 10.8142 6.6697C11.2857 6.25419 11.7818 5.86728 12.2996 5.51106C12.3503 5.46461 12.4165 5.43884 12.4853 5.43884C12.554 5.43884 12.6203 5.46461 12.671 5.51106C13.072 5.80815 13.4954 6.07553 13.8667 6.38747C14.8257 7.23653 15.6719 8.20501 16.3846 9.26923C17.1563 10.3012 17.6982 11.4864 17.974 12.7452C18.1887 13.6802 18.234 14.6462 18.1077 15.5972C18.064 16.128 17.814 16.6205 17.4113 16.969C17.0086 17.3175 16.4853 17.4943 15.9538 17.4614C15.3855 17.4673 14.8212 17.3665 14.2901 17.1644C13.8964 17.0307 13.5102 16.8673 13.124 16.7187V19.6153C13.124 19.8084 13.1834 19.853 13.3765 19.853C14.3941 19.853 15.3967 19.853 16.4143 19.853C16.5495 19.8455 16.6826 19.8154 16.8079 19.7639L20.7889 17.8699C21.0563 17.7362 21.0563 17.7511 20.982 17.4466C20.2393 14.5203 19.4966 11.6162 18.7538 8.6899C18.722 8.58224 18.6661 8.4832 18.5904 8.40024C18.2859 8.10315 17.974 7.82092 17.6769 7.53869L15.9092 5.92698C15.1145 5.18426 14.3347 4.50838 13.5399 3.77309C13.2429 3.49086 12.9086 3.20862 12.6115 2.91153C12.5959 2.88856 12.5748 2.86975 12.5502 2.85676C12.5256 2.84377 12.4982 2.83698 12.4704 2.83698C12.4426 2.83698 12.4152 2.84377 12.3906 2.85676C12.366 2.86975 12.345 2.88856 12.3293 2.91153C12.1882 3.04522 12.0396 3.16406 11.906 3.28289C11.2895 3.84736 10.6805 4.41926 10.064 4.96887C9.44755 5.51848 8.78652 6.17951 8.10322 6.77368L6.66234 8.04374C6.44778 8.19911 6.28271 8.41318 6.187 8.6602C5.44428 11.5915 4.70403 14.5153 3.96626 17.4317C3.93655 17.7511 3.96626 17.8551 4.15194 17.9294Z" fill="#FFA800"/>
</svg>
